<svg width="48" height="48" viewBox="0 0 48 48" version="1.1" xmlns="http://www.w3.org/2000/svg" xmlns:xlink="http://www.w3.org/1999/xlink">
<g data-name="Canvas" fill="none">
<g data-name="auto-message">
<g data-name="Rectangle 2">
<rect x="1" y="1" width="4" height="4" rx="2" stroke-width="2" transform="translate(39 39)" stroke="#52636B"/>
</g>
<g data-name="Rectangle">
<rect x="1" y="1" width="46" height="46" rx="3" stroke-width="2" stroke="#D5E2E8"/>
</g>
<g data-name="Rectangle">
<path fill-rule="evenodd" clip-rule="evenodd" d="M 4 1C 2.34315 1 1 2.34315 1 4L 1 19.5C 1 22.2614 3.23858 24.5 6 24.5L 15.5 24.5L 15.5 4C 15.5 2.34315 14.1569 1 12.5 1L 4 1Z" stroke-width="2" stroke-miterlimit="8" transform="translate(21 19.5)" stroke="#52636B"/>
</g>
<g data-name="Vector">
<path d="M 0 0L 7.875 0" stroke-linecap="round" transform="translate(25.125 24.75)" stroke="#52636B"/>
</g>
<g data-name="Vector">
<path d="M 0 0L 7.875 0" stroke-linecap="round" transform="translate(25.125 27.75)" stroke="#52636B"/>
</g>
<g data-name="Vector">
<path d="M 0 0L 5.25 0" stroke-linecap="round" transform="translate(25.125 30.75)" stroke="#52636B"/>
</g>
</g>
</g>
</svg>

