<svg width="1920" height="309" viewBox="0 0 1920 309" version="1.1" xmlns="http://www.w3.org/2000/svg" xmlns:xlink="http://www.w3.org/1999/xlink">
<g id="Canvas" fill="none">
<g id="Vector">
<path d="M 1658.86 0L 1658.86 0.350525C 1606.3 21.8502 1526.88 123.156 1375.86 195.484C 1260.93 250.518 1140.51 260.217 1111.78 260.918C 1083.75 261.619 1077.32 234.511 1074.87 210.674C 1072.3 186.72 1071.95 174.218 1089.12 170.479C 1089.12 170.479 1307.18 148.278 1388.12 0.116818L 554.07 0.116818C 569.488 36.5729 601.373 79.5723 666.546 107.382C 764.89 149.33 860.664 139.164 879.001 141.384C 897.455 143.604 903.879 161.598 903.879 178.775C 903.879 195.951 913.456 226.098 885.425 231.823C 857.51 237.549 667.948 252.505 530.477 170.829C 393.007 89.1537 349.441 16.4753 287.889 0.116818L 0 1.42635e-05L 0.116797 308.474L 1920.12 308.474L 1920 0L 1658.86 0.116818L 1658.86 0Z" transform="translate(0 0.408813)" fill="white"/>
</g>
</g>
</svg>

