<svg width="674" height="565" viewBox="0 0 674 565" version="1.1" xmlns="http://www.w3.org/2000/svg" xmlns:xlink="http://www.w3.org/1999/xlink">
<g id="Canvas" fill="none">
<g id="Group">
<g id="Vector">
<path d="M 199.12 15.1793C 199.12 24.0098 154.609 31.5156 99.6336 31.9571C 44.6583 32.3986 0 25.6286 0 16.7982C 0 7.9678 44.5109 0.46195 99.4862 0.0204287C 154.462 -0.421093 198.973 6.3489 199.12 15.1793Z" transform="translate(0 254.296)" fill="url(#paint0_linear)"/>
</g>
<g id="Vector_2">
<path d="M 22.968 1.81464C 34.1694 -5.54405 50.6767 10.4979 47.5816 31.5437C 44.4865 52.4424 63.6468 48.0272 56.867 84.6734C 48.9081 127.207 25.6209 130.297 10.8822 117.935C 1.00731 109.693 18.5464 94.6813 12.0613 86.2924C 4.24981 76.1374 -10.3415 53.6198 11.4718 40.9628C 23.7049 33.6042 7.34493 11.9696 22.968 1.81464Z" transform="translate(382.789 41.8961)" fill="url(#paint1_linear)"/>
</g>
<g id="Vector_3">
<path d="M 28.0035 35.0273L 26.8245 33.9971L 15.4756 47.3899L 15.4756 0L 13.707 0L 13.707 37.235L 0.884331 26.6384L 0 27.6687L 13.707 39.1482L 13.707 127.6L 15.4756 127.6L 15.4756 49.156L 15.623 49.3032L 28.0035 35.0273Z" transform="translate(398.683 69.9075)" fill="url(#paint2_linear)"/>
</g>
<g id="Group_2">
<g id="Vector_4">
<path d="M 121.544 39.1482C 121.544 7.94737 114.469 0.588699 114.027 0.294352C 113.732 0.147178 113.585 -2.24569e-06 113.143 -2.24569e-06L 1.12852 3.09064C 0.686361 3.09064 0.391586 3.385 0.0968118 3.67935C -0.0505752 4.12087 -0.0505747 4.56238 0.244199 4.85672C 0.244199 5.0039 5.99229 6.91716 5.99229 31.0536C 5.99229 40.4728 5.99229 55.3373 5.99229 55.3373C 5.99229 55.6317 6.13968 55.926 6.28707 56.2204C 6.43446 56.3675 6.72923 56.5147 7.17139 56.5147L 7.31878 56.5147L 7.31878 77.8549C 7.31878 78.7379 8.05571 79.621 9.08742 79.621C 10.1191 79.621 10.8561 78.8851 10.8561 77.8549L 10.8561 56.5147L 113.732 49.0088L 113.732 69.466C 113.732 70.349 114.469 71.2321 115.501 71.2321C 116.385 71.2321 117.27 70.4962 117.27 69.466L 117.27 47.0956L 121.544 39.7369C 121.396 39.4426 121.544 39.2954 121.544 39.1482Z" transform="translate(27.9072 187.794)" fill="url(#paint3_linear)"/>
</g>
<g id="Vector_5">
<path d="M 7.31878 24.578C 7.31878 7.50587 1.12852 0.73586 1.12852 0.73586C 0.833746 0.441512 0.538974 0.147165 0.2442 -8.98277e-06C 0.0968129 0.147165 0.0968124 0.147183 0.0968124 0.294356C -0.0505747 0.735878 -0.0505741 1.17738 0.2442 1.47173C 0.2442 1.6189 5.99229 10.3022 5.99229 26.0498C 5.99229 33.5556 5.99229 48.5673 5.99229 50.9221L 6.87662 51.2164L 7.31878 48.1258C 7.17139 48.1258 7.31878 40.3256 7.31878 24.578Z" transform="translate(28.0547 191.179)" fill="#D5E2E8"/>
</g>
<g id="Vector_6">
<path d="M 114.225 8.98277e-06L 11.791 8.09456C 11.6436 8.09456 9.58016 8.24174 4.71639 8.83043C 2.65297 9.12478 0 10.155 0 12.9513C 0 12.9513 0 16.1891 0 18.5439C 0 19.4269 0.884322 19.7213 1.32648 19.7213C 1.1791 13.54 1.32648 11.6267 3.68468 11.4795C 5.74809 11.3324 8.10629 11.6267 12.5279 12.9513C 22.2554 15.8948 27.2666 27.963 27.414 28.1102C 27.5614 28.5517 28.0035 28.6989 28.4457 28.6989L 28.5931 28.6989L 30.5091 28.5517L 30.5091 52.6882C 30.5091 54.0127 31.5408 55.043 32.8673 55.043C 34.1938 55.043 35.2255 54.0127 35.2255 52.6882L 35.2255 28.1102L 127.048 18.5439L 127.048 41.6502C 127.048 42.9747 128.079 44.0049 129.406 44.0049C 130.732 44.0049 131.764 42.9747 131.764 41.6502L 131.764 17.9552L 135.154 17.5137C 135.743 17.5137 136.186 16.925 136.186 16.1891C 135.743 16.0419 133.975 1.03023 114.225 8.98277e-06Z" transform="translate(33.8994 224.587)" fill="url(#paint4_linear)"/>
</g>
</g>
<g id="Group_3">
<g id="Vector_7">
<path d="M 19.1603 28.8461L 5.45331 28.8461L -4.4979e-06 -1.12285e-06L 25.498 -1.12285e-06L 19.1603 28.8461Z" transform="translate(245.692 57.1035)" fill="url(#paint5_linear)"/>
</g>
<g id="Vector_8">
<path d="M 14.0018 20.8987L 3.97945 20.8987L 0 -1.12285e-06L 18.5708 -1.12285e-06L 14.0018 20.8987Z" transform="translate(249.083 57.1035)" fill="white"/>
</g>
<g id="Vector_9">
<path d="M 6.33764 0L 20.0446 0L 25.498 9.71346L -4.4979e-06 9.71346L 6.33764 0Z" transform="translate(245.692 43.4163)" fill="url(#paint6_linear)"/>
</g>
<g id="Vector_10">
<path d="M 31.8356 -2.24569e-06L 4.4979e-06 -2.24569e-06L 4.4979e-06 3.82652L 31.8356 3.82652L 31.8356 -2.24569e-06Z" transform="translate(242.155 53.1297)" fill="url(#paint7_linear)"/>
</g>
<g id="Vector_11">
<path d="M 17.0969 2.24569e-06L 10.7593 2.24569e-06L 6.19026 2.24569e-06L 4.4979e-06 2.24569e-06L 4.4979e-06 2.7963L 3.97945 2.7963L 3.97945 5.29825L 6.19026 5.29825L 6.19026 176.314L 10.7593 176.314L 10.7593 5.29825L 13.2648 5.29825L 13.2648 2.7963L 17.0969 2.7963L 17.0969 2.24569e-06Z" transform="translate(249.524 85.9495)" fill="url(#paint8_linear)"/>
</g>
</g>
<g id="Vector_12">
<path d="M 93.7381 15.6027C 93.7381 24.4331 72.8092 31.7918 47.0165 31.939C 21.0763 32.0862 4.4979e-06 25.169 4.4979e-06 16.3386C 4.4979e-06 7.50816 20.929 0.149488 46.7217 0.00231443C 72.6618 -0.144859 93.7381 6.77229 93.7381 15.6027Z" transform="translate(284.899 252.548)" fill="url(#paint9_linear)"/>
</g>
<g id="Group_4">
<g id="Vector_13">
<path d="M 31.983 63.8734C 49.6467 63.8734 63.966 49.5748 63.966 31.9367C 63.966 14.2985 49.6467 2.24569e-06 31.983 2.24569e-06C 14.3193 2.24569e-06 0 14.2985 0 31.9367C 0 49.5748 14.3193 63.8734 31.983 63.8734Z" transform="translate(119.384 79.3267)" fill="#E9F2F7"/>
</g>
<g id="Vector_14">
<path d="M 8.10629 16.1891C 12.5833 16.1891 16.2126 12.5651 16.2126 8.09456C 16.2126 3.62406 12.5833 2.24569e-06 8.10629 2.24569e-06C 3.62931 2.24569e-06 2.24895e-06 3.62406 2.24895e-06 8.09456C 2.24895e-06 12.5651 3.62931 16.1891 8.10629 16.1891Z" transform="translate(127.343 145.555)" fill="#E9F2F7"/>
</g>
<g id="Vector_15">
<path d="M 5.01116 10.0078C 7.77874 10.0078 10.0223 7.76748 10.0223 5.0039C 10.0223 2.24032 7.77874 4.49139e-06 5.01116 4.49139e-06C 2.24357 4.49139e-06 -4.4979e-06 2.24032 -4.4979e-06 5.0039C -4.4979e-06 7.76748 2.24357 10.0078 5.01116 10.0078Z" transform="translate(145.471 160.125)" fill="#E9F2F7"/>
</g>
<g id="Vector_16">
<path d="M 15.7704 18.1024L 9.87493 15.6004L 3.97945 18.3967L 4.42161 11.9211L -4.4979e-06 7.21151L 6.33764 5.73977L 9.58015 4.49138e-06L 12.8227 5.5926L 19.3077 6.76999L 15.0335 11.7739L 15.7704 18.1024Z" transform="translate(130.732 101.991)" fill="#FEA729"/>
</g>
<g id="Group_5">
<g id="Vector_17">
<path d="M 9.87493 4.70955C 9.87493 6.76999 8.69583 8.09456 7.51674 9.27195C 6.7798 10.155 6.19025 10.8909 6.19025 11.6267L 6.19025 13.2456C 6.19025 13.9815 5.6007 14.423 4.71638 14.423C 3.97945 14.423 3.38991 13.8343 3.38991 13.2456L 3.38991 11.7739C 3.38991 10.0078 4.56899 8.83043 5.45332 7.80021C 6.33764 6.91717 7.07458 6.03413 7.07458 4.85674C 7.07458 3.82652 6.19026 2.50195 4.86378 2.50195C 3.68468 2.50195 2.65297 3.53217 2.65297 4.85674C 2.65297 5.59261 2.06342 6.03412 1.32649 6.03412C 0.58955 6.03412 0 5.44543 0 4.85674C 0 2.20761 2.21081 0 5.01116 0C 6.33765 0 7.66413 0.588695 8.54845 1.47174C 9.43278 2.35478 9.87493 3.53216 9.87493 4.70955ZM 6.92719 17.6608C 6.92719 18.6911 6.04287 19.4269 5.01116 19.4269C 3.97945 19.4269 3.09513 18.6911 3.09513 17.6608C 3.09513 16.7778 3.97945 15.8948 5.01116 15.8948C 5.89548 15.8948 6.92719 16.6306 6.92719 17.6608Z" transform="translate(151.809 100.079)" fill="#B3C0C8"/>
</g>
<g id="Vector_18">
<path d="M 1.76864 19.2798C -0.58955 19.2798 -0.58955 15.8948 1.76864 15.8948C 4.12683 15.8948 4.27422 19.2798 1.76864 19.2798ZM 0.442157 12.5098L 0.442157 1.17739C 0.442157 0.441526 1.03171 0 1.76864 0C 2.50558 0 3.09513 0.588699 3.09513 1.17739L 3.09513 12.5098C 3.09513 13.2456 2.50558 13.8343 1.76864 13.8343C 1.03171 13.8343 0.442157 13.2456 0.442157 12.5098Z" transform="translate(164.927 100.078)" fill="#B3C0C8"/>
</g>
</g>
</g>
<g id="Group_6">
<g id="Vector_19">
<path d="M 8.10628 16.1891C 12.5833 16.1891 16.2126 12.565 16.2126 8.09455C 16.2126 3.62405 12.5833 2.24569e-06 8.10628 2.24569e-06C 3.6293 2.24569e-06 -8.99579e-06 3.62405 -8.99579e-06 8.09455C -8.99579e-06 12.565 3.6293 16.1891 8.10628 16.1891Z" transform="translate(578.348 186.763)" fill="#E9F2F7"/>
</g>
<g id="Vector_20">
<path d="M 5.01115 10.0078C 7.77874 10.0078 10.0223 7.76748 10.0223 5.0039C 10.0223 2.24032 7.77874 4.49139e-06 5.01115 4.49139e-06C 2.24356 4.49139e-06 0 2.24032 0 5.0039C 0 7.76748 2.24356 10.0078 5.01115 10.0078Z" transform="translate(563.756 196.182)" fill="#E9F2F7"/>
</g>
<g id="Vector_21">
<path d="M 31.983 63.8734C 49.6467 63.8734 63.966 49.5748 63.966 31.9367C 63.966 14.2985 49.6467 -2.24569e-06 31.983 -2.24569e-06C 14.3193 -2.24569e-06 0 14.2985 0 31.9367C 0 49.5748 14.3193 63.8734 31.983 63.8734Z" transform="translate(570.388 120.83)" fill="#E9F2F7"/>
</g>
<g id="Vector_22">
<path d="M 15.7704 18.2495L 9.72754 15.7476L 3.83205 18.3967L 4.42159 11.9211L -1.79916e-05 7.21151L 6.33765 5.73978L 9.43279 0L 12.8227 5.59261L 19.1603 6.91716L 14.8861 11.7739L 15.7704 18.2495Z" transform="translate(581.884 143.494)" fill="#FEA729"/>
</g>
<g id="Group_7">
<g id="Vector_23">
<path d="M 9.87491 4.85673C 9.87491 6.91717 8.69585 8.24173 7.51676 9.41912C 6.77982 10.3022 6.19024 11.038 6.19024 11.7739L 6.19024 13.3928C 6.19024 14.1287 5.60069 14.5702 4.71637 14.5702C 3.97943 14.5702 3.38989 13.9815 3.38989 13.3928L 3.38989 11.7739C 3.38989 10.0078 4.56898 8.83043 5.4533 7.80021C 6.33763 6.91717 7.07457 6.03412 7.07457 4.85673C 7.07457 3.82652 6.19025 2.50196 4.86376 2.50196C 3.68467 2.50196 2.65296 3.53217 2.65296 4.85673C 2.65296 5.5926 2.06342 6.03412 1.32648 6.03412C 0.589548 6.03412 8.99579e-06 5.44543 8.99579e-06 4.85673C 8.99579e-06 2.20761 2.21081 -2.24569e-06 5.01116 -2.24569e-06C 6.33764 -2.24569e-06 7.66412 0.588693 8.54844 1.47173C 9.28537 2.50195 9.87491 3.67935 9.87491 4.85673ZM 6.77982 17.808C 6.77982 18.8382 5.89547 19.5741 4.86376 19.5741C 3.83205 19.5741 2.94775 18.8382 2.94775 17.808C 2.94775 16.925 3.83205 16.0419 4.86376 16.0419C 5.89547 16.0419 6.77982 16.925 6.77982 17.808Z" transform="translate(602.961 141.434)" fill="#B3C0C8"/>
</g>
<g id="Vector_24">
<path d="M 1.76865 19.2798C -0.589539 19.2798 -0.589539 15.8948 1.76865 15.8948C 4.27423 15.8948 4.27423 19.2798 1.76865 19.2798ZM 0.442179 12.5098L 0.442179 1.17739C 0.442179 0.441521 1.03172 -4.49139e-06 1.76865 -4.49139e-06C 2.50559 -4.49139e-06 3.09513 0.588695 3.09513 1.17739L 3.09513 12.5098C 3.09513 13.2456 2.50559 13.8343 1.76865 13.8343C 1.03172 13.8343 0.442179 13.2456 0.442179 12.5098Z" transform="translate(615.931 141.581)" fill="#B3C0C8"/>
</g>
</g>
</g>
<g id="Vector_25">
<path d="M 106.119 31.947C 105.972 49.3135 82.0953 63.1478 52.7653 62.7063C 23.4352 62.4119 -0.146709 48.1361 0.000678129 30.7696C 0.148065 13.4031 24.0248 -0.431249 53.3548 0.0102726C 82.6848 0.451794 106.267 14.5805 106.119 31.947Z" transform="translate(482.545 395.74)" fill="url(#paint10_linear)"/>
</g>
<g id="Vector_26">
<path d="M 20.5029 29.7451C 20.6502 30.9225 19.7659 31.9527 18.5868 31.9527L 4.73247 33.2773C 3.55338 33.4245 2.52167 32.5414 2.52167 31.364L 0.0160709 3.54822C -0.131316 2.37083 0.752988 1.34061 1.93208 1.34061L 15.7865 0.0160566C 16.9656 -0.131117 17.9973 0.751907 17.9973 1.9293L 20.5029 29.7451Z" transform="translate(474.57 193.665)" fill="#8D7FFF"/>
</g>
<g id="Vector_27">
<path d="M 1.47387 2.94347C 2.28787 2.94347 2.94774 2.28456 2.94774 1.47174C 2.94774 0.658919 2.28787 0 1.47387 0C 0.659874 0 0 0.658919 0 1.47174C 0 2.28456 0.659874 2.94347 1.47387 2.94347Z" transform="translate(482.693 200.156)" fill="#E6E7E8"/>
</g>
<g id="Vector_28">
<path d="M 35.931 5.73977C 23.6978 5.0039 17.3602 1.76609 14.7072 4.49139e-06C 14.1176 2.50196 13.5281 5.00391 12.7912 7.06435C 7.19047 22.5176 -3.27401 49.7447 1.00022 64.3149C 4.83228 77.4134 23.8452 91.8364 23.8452 91.8364C 31.6567 91.8364 31.362 85.6551 31.362 85.6551C 25.7612 80.6512 16.0337 69.6132 17.2128 56.5147C 18.3919 43.4162 33.278 27.2271 33.278 27.2271C 45.6585 59.6054 51.2592 141.875 51.2592 141.875C 54.6491 143.642 58.9233 141.875 58.9233 141.875C 58.9233 141.875 60.5446 83.1531 58.9233 32.9669C 58.6285 21.7817 58.1864 12.0682 57.7442 3.82651C 54.7965 5.0039 48.1641 6.47564 35.931 5.73977Z" transform="translate(497.167 285.223)" fill="#4707FF"/>
</g>
<g id="Vector_29">
<path d="M 87.4005 33.7278C 75.9043 11.5046 66.0294 1.93831 47.4586 0.172225C 38.0259 -0.710817 32.2778 1.64397 31.8356 10.9159C 31.3934 20.1879 28.4457 31.3731 19.1603 31.3731C 9.87491 31.3731 6.19026 16.5085 6.19026 16.5085C 5.01116 22.1011 -1.79916e-05 21.5124 -1.79916e-05 21.5124C 1.91601 29.607 7.81151 42.5583 19.4551 45.0602C 31.246 47.5622 35.2255 36.9657 35.2255 36.9657C 35.2255 36.9657 35.6677 58.0115 32.2778 73.7591C 34.9307 75.5252 41.2684 78.763 53.5015 79.4989C 65.7346 80.2347 72.367 78.763 75.1674 77.7328C 73.5461 49.1811 71.7775 37.5544 71.7775 37.5544C 89.7587 59.1889 91.8221 70.5213 97.865 82.148C 103.76 86.1217 107.15 82.148 107.15 82.148C 107.15 82.148 96.0964 50.5056 87.4005 33.7278Z" transform="translate(479.45 211.611)" fill="url(#paint11_linear)"/>
</g>
<g id="Vector_30">
<path d="M 5.55434 6.32845C 5.55434 6.32845 5.55433 12.3626 3.93308 17.808C 2.16443 23.2535 0.54321 27.0799 0.101049 29.1404C -0.341112 31.2008 0.690579 33.2613 2.754 33.85C 4.81742 34.5858 12.3341 25.7554 13.6606 20.0156C 14.9871 14.2759 14.6924 10.5965 14.6924 10.5965L 16.7558 12.6569C 16.7558 12.6569 20.5878 11.9211 20.1457 4.41521L 12.9237 0C 13.0711 0.147174 13.3659 5.73976 5.55434 6.32845Z" transform="translate(515.312 370.878)" fill="#312D74"/>
</g>
<g id="Vector_31">
<path d="M 9.49537 -1.79655e-05C 9.49537 -1.79655e-05 8.46364 6.47566 4.04203 12.3626C -0.379584 18.1024 -0.232161 20.1628 0.21 22.6648C 0.504774 25.0196 10.2323 24.8724 14.0644 23.695C 17.4543 22.6647 18.1912 14.8645 17.3069 0.147165C 17.1595 -8.98058e-06 14.3591 1.32455 9.49537 -1.79655e-05Z" transform="translate(538.784 427.245)" fill="#312D74"/>
</g>
<g id="Vector_32">
<path d="M -1.79916e-05 0.327053C -1.79916e-05 0.327053 0.736953 9.15748 7.22198 12.5425C 13.707 15.9275 18.5707 13.867 19.8972 12.5425C 21.2237 11.2179 16.8021 8.27443 15.7704 7.24421C 14.7387 6.214 14.7387 1.2101 9.28539 0.327053C 3.83207 -0.408816 -1.79916e-05 0.327053 -1.79916e-05 0.327053Z" transform="translate(577.462 293.284)" fill="#B08874"/>
</g>
<g id="Vector_33">
<path d="M 8.05037 22.6272C 8.05037 22.6272 0.975808 20.2724 0.238873 13.2081C -0.498063 5.99657 0.386269 2.31724 4.07094 0.256811C 7.75562 -1.80362 13.2089 9.08722 9.81903 13.2081C 6.42913 17.3289 14.0932 16.0044 14.0932 16.0044C 14.0932 16.0044 15.4197 22.1857 8.05037 22.6272Z" transform="translate(471.547 210.349)" fill="#B08874"/>
</g>
<g id="Vector_34">
<path d="M 9.44003 2.59799C 9.44003 2.59799 14.8934 6.42452 19.0202 11.5756C 19.0202 11.5756 20.6414 23.6438 21.231 32.4743C 21.5258 37.331 11.6508 36.0064 11.6508 36.0064C 11.6508 36.0064 0.00727145 14.5191 0.00727145 3.33386C -0.140116 3.18669 1.92329 -3.5833 9.44003 2.59799Z" transform="translate(532.354 237.589)" fill="url(#paint12_linear)"/>
</g>
<g id="Vector_35">
<path d="M 8.3315 -8.98277e-06C 8.3315 -8.98277e-06 10.1001 7.8002 10.1001 16.925C 10.1001 16.925 7.59456 22.9591 2.43601 24.578C -2.72253 26.1969 0.814757 6.32846 8.3315 -8.98277e-06Z" transform="translate(504.869 231.651)" fill="url(#paint13_linear)"/>
</g>
<g id="Vector_36">
<path d="M 4.07211 4.49139e-06C 4.07211 4.49139e-06 9.52541 2.64912 14.0944 10.4493C 14.0944 10.4493 8.49371 16.3363 3.18778 25.4611C 3.33517 25.4611 -4.62372 12.2154 4.07211 4.49139e-06Z" transform="translate(516.204 302.148)" fill="url(#paint14_linear)"/>
</g>
<g id="Vector_37">
<path d="M 7.95892 4.49139e-06C 7.95892 4.49139e-06 7.07456 5.88696 -1.79916e-05 6.32848L 3.83205 9.56627C 3.83205 9.56627 7.51676 9.41911 9.43279 7.50585C 11.3488 5.59259 11.3488 3.385 11.3488 3.385L 7.95892 4.49139e-06Z" transform="translate(517.034 367.64)" fill="#B08874"/>
</g>
<g id="Vector_38">
<path d="M 0.294774 4.26802C 0.294774 4.26802 0.589566 4.85671 3.53731 5.00389C 6.33766 5.29824 7.95892 4.26802 7.95892 4.26802L 8.10627 -8.98277e-06C 8.10627 -8.98277e-06 7.0746 0.883042 4.27424 0.883042C 1.47389 0.883042 -1.79916e-05 -8.98277e-06 -1.79916e-05 -8.98277e-06" transform="translate(547.984 422.977)" fill="#B08874"/>
</g>
<g id="Group_8">
<g id="Vector_39">
<path d="M 10.1697 20.31C 15.7863 20.31 20.3394 15.7634 20.3394 10.155C 20.3394 4.54655 15.7863 2.24569e-06 10.1697 2.24569e-06C 4.55312 2.24569e-06 0 4.54655 0 10.155C 0 15.7634 4.55312 20.31 10.1697 20.31Z" transform="translate(507.749 174.254)" fill="#FEA729"/>
</g>
<g id="Vector_40">
<path d="M 0.209054 0.0615727C 0.209054 0.0615727 -0.970051 5.507 2.27246 7.86178C 4.92543 9.77504 5.51495 3.29939 5.51495 3.29939C 5.51495 3.29939 2.86202 -0.527122 0.209054 0.0615727Z" transform="translate(510.045 175.075)" fill="#312D74"/>
</g>
<g id="Vector_41">
<path d="M 0.149496 21.0796C 0.296883 30.6459 8.25578 38.1518 17.8359 38.0046C 27.4161 37.8574 34.9328 29.91 34.7855 20.3437L 34.6381 10.7774C 34.4907 1.21115 26.6792 -0.260577 17.099 0.0337706C 7.51885 0.180944 -0.145287 1.94702 0.00209964 11.5133L 0.149496 21.0796Z" transform="translate(512.315 166.861)" fill="#B08874"/>
</g>
<g id="Group_9">
<g id="Vector_42">
<path d="M 2.50557 0.147171C 2.50557 0.147171 2.50556 0.735866 2.35817 1.61891C 2.21079 2.06043 2.21081 2.50196 1.91603 3.09066C 1.76864 3.53218 1.47387 4.12086 1.1791 4.70955L 0.884304 5.0039C 0.884304 5.15107 0.884304 5.15108 0.884304 5.15108C 0.884304 5.29825 0.884313 5.44543 1.0317 5.59261C 1.17909 5.88695 1.62126 6.18129 1.91603 6.18129C 2.21081 6.32847 2.65298 6.32847 2.80036 6.32847C 3.09514 6.32847 3.24251 6.32847 3.24251 6.32847C 3.24251 6.32847 3.3899 6.32846 3.3899 6.47564L 3.3899 6.62282C 3.3899 6.62282 3.24253 6.62283 2.94776 6.77C 2.65298 6.77 2.35818 6.91716 1.76864 6.91716C 1.32647 6.76999 0.736926 6.62281 0.294765 6.18129C 0.147378 5.88694 1.79916e-05 5.44543 1.79916e-05 5.15108C 1.79916e-05 5.00391 0.147369 4.70957 0.147369 4.56239L 0.442161 4.12087C 0.736935 3.67935 1.03171 3.23781 1.1791 2.79629C 1.32648 2.35477 1.62125 1.91326 1.76864 1.47174C 2.06341 0.735869 2.21082 0.147171 2.21082 0.147171C 2.21082 -2.24789e-06 2.35818 0 2.50557 0C 2.50557 0 2.50557 -2.24789e-06 2.50557 0.147171Z" transform="translate(518.36 186.175)" fill="#312D74"/>
</g>
</g>
<g id="Vector_43">
<path d="M 34.1968 25.9052C 34.1968 25.9052 29.1856 25.0222 29.1856 21.6372C 29.1856 18.3994 29.0383 16.4861 29.0383 16.4861C 29.0383 16.4861 22.9954 19.7239 12.8257 19.8711C 2.65598 20.0183 0.00299599 13.3955 0.00299599 8.6859C -0.144391 3.82917 5.16154 0.149821 12.5309 0.0026471C 19.0159 -0.144527 21.2267 5.8896 30.6595 5.74242C 40.0923 5.59525 43.1874 3.97634 46.7247 9.2746C 49.2303 12.9539 48.4933 17.5163 48.4933 17.5163C 48.4933 17.5163 38.471 12.8068 34.1968 25.9052Z" transform="translate(505.535 157.62)" fill="#312D74"/>
</g>
<g id="Vector_44">
<path d="M 9.43278 18.8382C 14.6424 18.8382 18.8655 14.6212 18.8655 9.41912C 18.8655 4.21708 14.6424 -4.49139e-06 9.43278 -4.49139e-06C 4.2232 -4.49139e-06 1.79916e-05 4.21708 1.79916e-05 9.41912C 1.79916e-05 14.6212 4.2232 18.8382 9.43278 18.8382Z" transform="translate(539.731 173.959)" fill="#FEA729"/>
<path d="M 18.8655 9.41912C 18.8655 14.6212 14.6424 18.8382 9.43278 18.8382C 4.2232 18.8382 1.79916e-05 14.6212 1.79916e-05 9.41912C 1.79916e-05 4.21708 4.2232 -4.49139e-06 9.43278 -4.49139e-06C 14.6424 -4.49139e-06 18.8655 4.21708 18.8655 9.41912Z" stroke-width="0.9384" stroke-miterlimit="10" transform="translate(539.731 173.959)" stroke="#FEA729"/>
</g>
<g id="Vector_45">
<path d="M 7.51673 17.3665C 11.6681 17.3665 15.0335 13.4789 15.0335 8.68325C 15.0335 3.88762 11.6681 -4.49139e-06 7.51673 -4.49139e-06C 3.36536 -4.49139e-06 -8.99579e-06 3.88762 -8.99579e-06 8.68325C -8.99579e-06 13.4789 3.36536 17.3665 7.51673 17.3665Z" transform="matrix(0.999801 -0.0202137 0.0202723 0.999799 543.54 174.848)" fill="#FEC729"/>
</g>
<g id="Vector_46">
<path d="M 26.3823 15.7536C 26.3823 15.7536 27.414 7.95338 20.0446 2.65513C 12.5279 -2.64313 1.79916e-05 1.6249 1.79916e-05 1.6249C 1.79916e-05 1.6249 3.24252 4.12686 6.48504 4.56838C 6.48504 4.56838 17.2443 4.12686 17.5391 17.814C 17.5391 17.814 20.192 15.3121 26.3823 15.7536Z" transform="translate(524.993 158.353)" fill="#FEA729"/>
</g>
<g id="Vector_47">
<path d="M 0.147369 2.94348C 0.147369 3.385 0.589539 3.82652 1.0317 3.82652C 1.47386 3.82652 1.91603 3.385 1.91603 2.94348L 1.76864 0.883042C 1.76864 0.441521 1.32647 2.24569e-06 0.884304 2.24569e-06C 0.442143 2.24569e-06 1.79916e-05 0.441521 1.79916e-05 0.883042L 0.147369 2.94348Z" transform="translate(524.993 182.348)" fill="#312D74"/>
</g>
<g id="Vector_48">
<path d="M 0.147378 2.94347C 0.147378 3.385 0.589548 3.82651 1.03171 3.82651C 1.47387 3.82651 1.91604 3.385 1.91604 2.94347L 1.76864 0.88304C 1.76864 0.441519 1.32647 0 0.884313 0C 0.442152 0 -1.79916e-05 0.441519 -1.79916e-05 0.88304L 0.147378 2.94347Z" transform="translate(515.56 182.495)" fill="#312D74"/>
</g>
<g id="Group_10">
<g id="Vector_49">
<path d="M 0.257918 2.06043C 0.257918 2.06043 0.405323 2.06043 0.55271 2.06043C 0.700097 2.06043 1.14227 2.06043 1.43704 2.06043C 1.8792 2.06043 2.32135 2.06044 2.76352 1.91327C 3.05829 1.91327 3.20568 1.91326 3.50045 1.76608C 3.79523 1.76608 3.94261 1.6189 4.23739 1.6189C 4.53216 1.6189 4.67955 1.47174 4.97432 1.47174C 5.2691 1.32457 5.41648 1.32457 5.71126 1.1774C 5.85864 1.03023 6.15341 1.03021 6.3008 0.883033C 6.44818 0.883033 6.74295 0.735864 6.89033 0.58869C 7.62727 0.294343 8.06946 4.49139e-06 8.06946 4.49139e-06L 8.21681 4.49139e-06L 8.21681 0.147165C 8.21681 0.147165 7.92206 0.588695 7.18513 1.03022C 7.03774 1.17739 6.89036 1.32457 6.59559 1.47174C 6.4482 1.61892 6.15339 1.76608 6.006 1.76608C 5.71123 1.91326 5.56384 2.06043 5.26907 2.06043C 4.97429 2.2076 4.67952 2.2076 4.53213 2.35477C 4.23736 2.35477 3.94262 2.50195 3.64785 2.50195C 3.35307 2.50195 3.0583 2.50195 2.91091 2.50195C 2.61614 2.50195 2.46875 2.50195 2.17398 2.50195C 1.8792 2.50195 1.73182 2.50194 1.43704 2.35477C 0.99488 2.2076 0.700088 2.2076 0.405314 2.06043C 0.11054 1.91325 0.110522 1.91327 0.110522 1.91327C -0.0368648 1.91327 -0.0368648 1.76608 0.110522 1.6189C 0.110522 2.06042 0.257918 2.06043 0.257918 2.06043Z" transform="translate(522.083 193.975)" fill="#312D74"/>
</g>
</g>
</g>
<g id="Vector_50">
<path d="M 84.895 57.6921C 131.781 57.6921 169.79 44.7773 169.79 28.846C 169.79 12.9148 131.781 1.79655e-05 84.895 1.79655e-05C 38.0088 1.79655e-05 8.99579e-06 12.9148 8.99579e-06 28.846C 8.99579e-06 44.7773 38.0088 57.6921 84.895 57.6921Z" transform="translate(310.396 507.308)" fill="url(#paint15_linear)"/>
</g>
<g id="Vector_51">
<path d="M 36.7969 75.8704C 35.1756 77.6364 32.5227 77.7836 30.754 76.1647L 1.424 49.8206C -0.344643 48.2017 -0.492048 45.5526 1.12921 43.7865L 40.3342 1.40045C 41.9554 -0.365637 44.6084 -0.51282 46.377 1.25326L 74.9701 28.3332C 76.5914 29.9522 76.7388 32.6013 75.1175 34.3674L 36.7969 75.8704Z" transform="translate(400.943 315.759)" fill="#8D7FFF"/>
</g>
<g id="Vector_52">
<path d="M 5.8955 11.7739C 9.15148 11.7739 11.791 9.13821 11.791 5.88694C 11.791 2.63567 9.15148 -8.98277e-06 5.8955 -8.98277e-06C 2.63951 -8.98277e-06 1.79916e-05 2.63567 1.79916e-05 5.88694C 1.79916e-05 9.13821 2.63951 11.7739 5.8955 11.7739Z" transform="translate(435.823 347.919)" fill="#E6E7E8"/>
</g>
<g id="Vector_53">
<path d="M 0 37.9708C 0 37.9708 6.19025 53.5712 28.5931 70.349C 50.9959 86.9797 71.4827 88.4514 74.4304 87.8627C 77.2308 87.1268 80.1786 81.2399 75.3148 79.4738C 70.451 77.7077 47.9008 74.4699 31.983 47.2427C 16.0652 20.0156 13.8544 8.53607 13.2648 -4.49139e-06C 13.2648 -4.49139e-06 11.3488 8.97759 7.36935 18.6911C 3.3899 28.4045 1.62126 31.6423 0 37.9708Z" transform="translate(397.208 376.323)" fill="#312D74"/>
</g>
<g id="Vector_54">
<path d="M -8.99579e-06 37.9708C -8.99579e-06 37.9708 6.19024 53.5712 28.5931 70.349C 50.9959 86.9797 71.4827 88.4514 74.4304 87.8627C 77.3782 87.274 80.1785 81.2399 75.3148 79.4738C 70.451 77.7077 47.9008 74.4699 31.983 47.2428C 16.0652 20.0156 13.8544 8.53608 13.2648 4.49139e-06C 13.2648 4.49139e-06 11.3488 8.9776 7.36934 18.6911C 3.09512 28.4045 1.62125 31.4952 -8.99579e-06 37.9708Z" transform="translate(397.062 375.734)" fill="url(#paint16_linear)"/>
</g>
<g id="Vector_55">
<path d="M 31.2651 -4.49139e-06C 31.2651 -4.49139e-06 20.5058 16.6306 0.461172 28.9932C 0.461172 28.9932 -1.30746 30.9065 2.08244 35.3217C 2.08244 35.3217 18.7372 27.963 29.349 19.4269L 31.2651 -4.49139e-06Z" transform="translate(339.561 334.379)" fill="#FE9029"/>
</g>
<g id="Vector_56">
<path d="M 31.2651 -4.49139e-06C 31.2651 -4.49139e-06 20.5058 16.6306 0.461172 28.9932C 0.461172 28.9932 -1.30746 30.9065 2.08244 35.3217C 2.08244 35.3217 18.7372 27.963 29.349 19.4269L 31.2651 -4.49139e-06Z" transform="translate(339.561 334.379)" fill="url(#paint17_linear)"/>
</g>
<g id="Vector_57">
<path d="M 18.6966 2.32212C 18.6966 2.32212 10.2956 3.49951 1.74711 0.114511C -1.20063 -1.06288 -1.05324 7.17887 7.20043 9.2393C 15.4541 11.2997 6.16872 11.8884 7.20043 15.2734C 7.4952 16.1565 9.26385 14.5375 13.0959 13.0658C 16.6332 11.7412 21.2022 10.2695 21.9391 7.4732C 22.9708 3.49951 18.6966 2.32212 18.6966 2.32212Z" transform="translate(321.326 361.05)" fill="#ECC19C"/>
</g>
<g id="Vector_58">
<path d="M 1.14121 1.69014C 1.14121 1.69014 -1.217 6.10534 0.846422 11.5508C 2.90984 16.9962 0.551675 18.3208 0.551675 18.3208C 0.551675 18.3208 3.94156 20.3812 10.574 11.9923C 15.143 6.10535 7.62623 0.0712176 7.62623 0.0712176C 7.62623 0.0712176 2.61508 -0.517468 1.14121 1.69014Z" transform="translate(450.748 358.591)" fill="#ECC19C"/>
</g>
<g id="Vector_59">
<path d="M 31.2461 0.147174C 31.2461 0.147174 21.2237 9.86064 8.9906 11.1852C 1.47386 12.0682 4.4979e-06 14.8645 4.4979e-06 18.2495L 28.2983 18.2495L 35.9625 15.1589L 36.1098 18.2495L 45.69 18.2495C 45.69 8.09454 44.2161 -8.98277e-06 44.2161 -8.98277e-06C 44.2161 -8.98277e-06 38.6154 3.385 31.2461 0.147174Z" transform="translate(363.014 528.942)" fill="#312D74"/>
</g>
<g id="Vector_60">
<path d="M 3.92664 8.38888C 3.92664 8.38888 8.34825 17.2193 0.978902 27.6686C -1.52668 31.348 1.56844 35.0273 1.56844 35.0273C 1.56844 35.0273 8.49564 32.2311 12.0329 25.9026C 16.1598 18.5439 14.9807 15.7476 14.9807 15.7476L 13.8016 10.7437L 16.3071 11.1852C 16.3071 11.1852 18.3706 7.65304 16.0124 2.20761L 4.51618 8.98277e-06C 4.81096 0.147183 9.23258 3.67933 3.92664 8.38888Z" transform="translate(467.563 455.65)" fill="#312D74"/>
</g>
<g id="Vector_61">
<path d="M 0.0302731 6.47564C -0.411888 45.0352 4.00973 100.372 11.9686 127.158C 22.4331 162.48 25.6756 169.838 25.6756 169.838C 25.6756 169.838 33.4871 170.133 37.0244 163.068C 37.0244 163.068 21.991 121.86 23.907 83.5947C 25.5282 53.7184 34.6662 38.7067 39.6774 26.1969C 43.3621 17.0721 41.5934 9.27195 39.6774 8.98277e-06C 20.5171 10.7437 6.22053 8.53608 0.0302731 6.47564Z" transform="translate(368.437 359.987)" fill="#403C7E"/>
</g>
<g id="Vector_62">
<path d="M 27.8561 0.0878843C 11.791 4.20875 7.07457 22.4583 2.06341 52.7761C 0.884313 60.1347 0.147387 70.7313 0 83.0938C 6.19026 85.1543 20.4868 87.3619 39.7945 76.6182C 39.0576 73.2332 38.468 69.5539 38.0258 65.7273C 37.4363 60.4291 37.7311 44.8287 39.3524 35.9983C 67.9454 51.7458 83.2737 77.0597 83.2737 77.0597C 87.6953 78.2371 89.7587 75.4408 89.7587 75.4408C 70.3036 32.4661 36.1098 -1.97255 27.8561 0.0878843Z" transform="translate(368.468 283.369)" fill="#FEA729"/>
</g>
<g id="Vector_63">
<path d="M 1.19812 19.7213L 19.4741 0L 42.6139 45.3295L 36.7184 51.658C 35.0971 53.4241 32.4442 53.5712 30.6755 51.9523L 1.34551 25.6082C -0.423132 24.1365 -0.423141 21.4874 1.19812 19.7213Z" transform="translate(401.021 339.971)" fill="#8D7FFF"/>
</g>
<g id="Vector_64">
<path d="M 1.18139 27.08L 19.4574 7.35869L 26.2372 0L 3.09745 27.08C 1.47619 28.846 1.62355 31.4952 3.3922 33.1141L 32.7222 59.4582C 33.3118 59.8997 33.9013 60.194 34.6383 60.3412C 33.3118 60.6356 31.8379 60.3412 30.8062 59.4582L 1.47618 33.1141C -0.439846 31.4952 -0.439865 28.846 1.18139 27.08Z" transform="translate(401.037 332.613)" fill="#796DE0"/>
</g>
<g id="Vector_65">
<path d="M 3.54234 0C 3.54234 0 1.77369 3.385 1.92107 6.77C 2.06846 10.3022 0.447204 12.0682 0.447204 12.0682C 0.447204 12.0682 -0.879243 13.3928 1.03679 13.3928C 3.83714 13.3928 5.90055 9.41911 6.04794 7.2115C 5.90055 5.15107 4.13189 0.441521 3.54234 0Z" transform="translate(448.051 361.312)" fill="#ECC19C"/>
</g>
<g id="Vector_66">
<path d="M 3.09515 0C 3.09515 0 10.7592 1.76608 20.9289 8.09455C 20.9289 8.09455 19.4551 16.1891 19.4551 25.3139C 19.4551 34.5858 12.3805 31.0537 7.07457 28.4045C 1.76864 25.7554 -3.53727 8.3889 3.09515 0Z" transform="translate(387.038 311.272)" fill="url(#paint18_linear)"/>
</g>
<g id="Vector_67">
<path d="M 1.47385 6.91716L -1.79916e-05 2.79631C -1.79916e-05 2.79631 2.06343 3.67935 7.07459 2.79631C 11.791 2.06044 12.9701 1.79655e-05 12.9701 1.79655e-05L 14.7387 6.18129C 14.7387 6.18129 13.707 8.09456 8.40106 8.68326C 3.53729 9.41913 1.47385 6.91716 1.47385 6.91716Z" transform="translate(392.491 522.761)" fill="#ECC19C"/>
</g>
<g id="Vector_68">
<path d="M 2.35817 0C 2.35817 0 5.01118 6.47563 1.79916e-05 9.27192C 1.79916e-05 9.27192 3.68469 9.56627 5.15856 9.27192C 6.63243 8.97758 9.58016 4.5624 5.60071 1.03023L 2.35817 0Z" transform="translate(466.774 454.767)" fill="#ECC19C"/>
</g>
<g id="Group_11">
<g id="Vector_69">
<path d="M 0.962528 0C 0.962528 0 -1.98521 7.65303 2.4364 13.54C 6.85801 19.4269 6.56322 0.147183 6.56322 0.147183L 0.962528 0Z" transform="translate(371.189 236.214)" fill="#312D74"/>
</g>
<g id="Vector_70">
<path d="M 0.0274151 23.9461C -0.562133 35.4257 8.4285 45.1391 19.9247 45.7278C 31.4209 46.3165 41.1484 37.3389 41.7379 25.8594L 42.3275 14.3798C 42.917 2.90027 33.6317 0.545495 22.1355 0.103974C 10.6393 -0.484721 1.20651 1.13419 0.76435 12.6137L 0.0274151 23.9461Z" transform="translate(373.894 230.959)" fill="#ECC19C"/>
</g>
<g id="Group_12">
<g id="Vector_71">
<path d="M 16.8343 19.2193C 0.0321838 23.4873 -3.35771 6.12079 2.97993 2.58862C 7.99109 -0.207684 12.2653 4.3547 17.866 2.58862C 48.9647 -7.12485 47.196 13.6266 47.196 13.6266C 47.196 13.6266 52.6494 14.804 53.6811 21.4269C 55.0075 29.8158 51.1755 37.1744 46.9013 38.499C 44.3957 39.2349 43.5114 34.231 43.5114 34.231C 50.1438 30.4044 47.7856 23.3401 43.0692 22.7514C 37.1737 22.0155 37.3211 29.8158 37.3211 29.8158C 37.3211 29.8158 33.1943 28.6384 33.3417 28.0497C 34.9629 21.8684 35.1103 14.5097 16.8343 19.2193Z" transform="translate(368.288 221.41)" fill="#312D74"/>
</g>
</g>
<g id="Vector_72">
<path d="M 0 4.12086C 0 4.85673 0.58953 5.44542 1.17908 5.44542C 1.91601 5.44542 2.5056 4.85674 2.5056 4.26805L 2.5056 1.32457C 2.5056 0.588704 1.91602 -4.49139e-06 1.32647 -4.49139e-06C 0.589539 -4.49139e-06 0 0.588695 0 1.17739L 0 4.12086Z" transform="translate(390.575 247.546)" fill="#312D74"/>
</g>
<g id="Vector_73">
<path d="M 8.99579e-06 4.12086C 8.99579e-06 4.85673 0.589539 5.44544 1.17909 5.44544C 1.91602 5.44544 2.50556 4.85674 2.50556 4.26804L 2.50556 1.32457C 2.50556 0.588699 1.91603 -8.98277e-06 1.32648 -8.98277e-06C 0.589548 -8.98277e-06 8.99579e-06 0.58869 8.99579e-06 1.17739L 8.99579e-06 4.12086Z" transform="translate(377.457 247.105)" fill="#312D74"/>
</g>
<g id="Group_13">
<g id="Vector_74">
<path d="M 0.700079 1.76608C 0.700079 1.76608 0.847493 1.76608 1.14227 1.76608C 1.43704 1.76608 1.87918 1.76608 2.32135 1.76608C 2.61612 1.76608 2.91089 1.76608 3.05828 1.76608C 3.35306 1.76608 3.64784 1.76608 3.94261 1.76608C 4.23739 1.76608 4.53217 1.61892 4.82694 1.61892C 5.12172 1.61892 5.41646 1.47174 5.71123 1.47174C 6.006 1.47174 6.3008 1.32455 6.74296 1.32455C 7.03773 1.17738 7.33251 1.17739 7.62729 1.03021C 7.92206 0.883038 8.21685 0.883042 8.51162 0.735869C 8.80639 0.735869 9.10117 0.588699 9.24855 0.441526C 10.2803 0.147178 11.0172 0 11.0172 0C 11.1646 0 11.312 -4.49577e-06 11.312 0.294343C 11.312 0.441517 11.312 0.441512 11.312 0.588686C 11.312 0.588686 10.8698 1.17739 9.98549 1.91326C 9.69072 2.06044 9.54333 2.35477 9.24855 2.50195C 8.95378 2.64912 8.659 2.7963 8.36422 2.94347C 8.06945 3.09065 7.77466 3.23783 7.3325 3.385C 6.89033 3.53217 6.59558 3.53217 6.15342 3.67934C 5.71126 3.67934 5.41646 3.82653 4.97429 3.82653C 4.53213 3.82653 4.23738 3.82653 3.79522 3.82653C 3.50044 3.82653 3.05826 3.82652 2.76349 3.67934C 2.46871 3.67934 2.17398 3.53216 1.8792 3.53216C 1.28965 3.38499 0.847457 3.09065 0.552683 2.94347C 0.257909 2.7963 0.11054 2.64913 0.11054 2.64913C -0.0368468 2.50196 -0.0368468 2.2076 0.11054 2.06042C 0.552701 1.76608 0.700079 1.76608 0.700079 1.76608Z" transform="translate(383.832 263.441)" fill="#312D74"/>
</g>
</g>
<g id="Group_14">
<g id="Vector_75">
<path d="M 2.80037 0.169937C 2.80037 0.169937 2.94776 0.905801 2.80037 1.93602C 2.80037 2.52471 2.65297 3.11343 2.50558 3.70212C 2.35819 4.43799 2.06342 5.02667 1.76864 5.76254L 1.47385 6.20407C 1.47385 6.35124 1.47385 6.35123 1.47385 6.35123C 1.47385 6.4984 1.47386 6.64558 1.62125 6.79275C 1.91602 7.0871 2.35821 7.38145 2.80037 7.52862C 3.24253 7.6758 3.68468 7.67581 3.97945 7.67581C 4.27422 7.67581 4.42159 7.67581 4.42159 7.67581C 4.56898 7.67581 4.56899 7.67579 4.56899 7.82297C 4.56899 7.82297 4.56898 7.97015 4.42159 7.97015C 4.42159 7.97015 4.27422 8.11732 3.97945 8.26449C 3.68468 8.41166 3.24252 8.55883 2.65298 8.55883C 2.06343 8.55883 1.3265 8.41166 0.589566 7.82297C 0.294792 7.52862 -1.79916e-05 6.93993 -1.79916e-05 6.49841C -1.79916e-05 6.20406 0.147378 5.90972 0.147378 5.76254L 0.44217 5.32102C 0.736944 4.73232 1.03172 4.14363 1.17911 3.55494C 1.32649 2.96624 1.62126 2.37754 1.76864 1.93602C 2.06342 0.905801 2.21079 0.31712 2.21079 0.31712C 2.21079 0.169946 2.35819 0.0227634 2.50558 0.169937C 2.65297 -0.12441 2.80037 0.0227634 2.80037 0.169937Z" transform="translate(381.438 252.527)" fill="#312D74"/>
</g>
</g>
</g>
<g id="Group_15" opacity="0.5">
<g id="Vector_76" opacity="0.5">
<path d="M 1.76865 4.49139e-06C 1.76865 4.49139e-06 5.74809 11.6267 15.9178 21.9289C 15.9178 21.9289 16.6547 23.4006 14.0018 25.4611C 14.0018 25.4611 5.01115 18.5439 -8.99579e-06 11.9211L 1.76865 4.49139e-06Z" transform="translate(339.581 137.313)" fill="#A9BBC4"/>
</g>
<g id="Vector_77" opacity="0.5">
<path d="M 1.76865 4.49139e-06C 1.76865 4.49139e-06 5.74809 11.6267 15.9178 21.9289C 15.9178 21.9289 16.6547 23.4006 14.0018 25.4611C 14.0018 25.4611 5.01115 18.5439 -8.99579e-06 11.9211L 1.76865 4.49139e-06Z" transform="translate(339.581 137.313)" fill="url(#paint19_linear)"/>
</g>
<g id="Vector_78" opacity="0.5">
<path d="M 15.0335 4.70956C 23.5819 3.82652 27.8562 1.32456 29.4774 -2.24569e-06C 29.9196 1.76608 30.5091 3.385 31.0987 4.85673C 35.5203 15.3061 43.774 33.85 41.2684 44.0049C 39.0576 53.2769 26.5297 63.8734 26.5297 63.8734C 21.0764 64.1677 21.0764 59.8997 21.0764 59.8997C 24.761 56.2204 31.0987 48.273 29.9196 39.2954C 28.7405 30.3178 17.6864 19.5741 17.6864 19.5741C 10.3171 42.386 9.28539 99.4894 9.28539 99.4894C 7.07459 100.814 3.97945 99.7838 3.97945 99.7838C 3.97945 99.7838 0.884313 59.1638 0.147378 24.578C -8.99359e-06 16.7778 4.4979e-06 10.155 4.4979e-06 4.41521C 1.91604 4.85673 6.63242 5.59261 15.0335 4.70956Z" transform="translate(315.115 162.774)" fill="#78909C"/>
</g>
<g id="Vector_79" opacity="0.5">
<path d="M 6.48504 24.8771C 13.707 9.12955 20.192 2.21239 33.0147 0.29913C 39.4997 -0.731086 43.6266 0.740647 44.2161 7.21629C 44.8057 13.5448 42.7422 25.3187 42.7422 25.3187C 42.7422 25.3187 43.1844 39.8889 46.1321 50.6325C 44.3635 51.9571 40.0893 54.3119 31.6882 55.3421C 23.2871 56.2251 18.7182 55.4893 16.6547 54.9006C 16.8021 35.0321 17.5391 27.0847 17.5391 27.0847C 7.95891 40.4776 7.22196 50.191 5.89548 58.5799C 1.91603 61.5234 -4.4979e-06 58.5799 -4.4979e-06 58.5799C -4.4979e-06 58.5799 1.03172 36.651 6.48504 24.8771Z" transform="translate(298.755 112.289)" fill="#A9BBC4"/>
</g>
<g id="Vector_80" opacity="0.5">
<path d="M 9.41368 4.12086C 9.41368 4.12086 9.56107 8.24172 10.8876 12.0682C 12.214 15.7476 12.5088 16.7778 12.8036 18.1024C 13.0984 19.5741 12.214 21.0458 10.7402 20.8987C 9.26628 20.8987 5.28683 17.6609 4.10774 13.8343C 2.92864 10.0078 -1.34558 5.00391 0.423062 3.385L 3.81297 -4.49139e-06C 3.96036 0.147169 3.96036 3.97369 9.41368 4.12086Z" transform="translate(332.23 222.527)" fill="#52636B"/>
</g>
<g id="Vector_81" opacity="0.5">
<path d="M 5.30594 -4.49138e-06C 5.30594 -4.49138e-06 6.33764 4.4152 9.58016 8.38889C 12.8227 12.2154 12.8227 13.6872 12.6753 15.3061C 12.5279 16.925 5.7481 17.2193 3.09514 16.4834C 0.736944 15.8948 0 10.4493 0 0.294338C 0 0.294338 1.91604 1.03021 5.30594 -4.49138e-06Z" transform="translate(319.094 262.263)" fill="#52636B"/>
</g>
<g id="Vector_82" opacity="0.5">
<path d="M 11.3524 0.287453C 11.3524 0.287453 11.2051 6.46874 6.78344 8.97069C 2.36183 11.6198 1.33013 10.2953 0.298422 9.41222C -0.733287 8.52918 1.18275 6.61592 1.91969 5.88005C 2.65662 5.14418 2.65661 1.17049 6.48867 0.434625C 10.1733 -0.448418 11.3524 0.287453 11.3524 0.287453Z" transform="translate(293.003 170.14)" fill="#D5E2E8"/>
</g>
<g id="Vector_83" opacity="0.5">
<path d="M 7.07457 1.99026C 7.07457 1.99026 3.38989 4.78656 0.736926 8.46591C 0.736926 8.46591 0.147378 16.8548 -8.99579e-06 23.0361C -8.99579e-06 26.4211 6.7798 25.0965 6.7798 25.0965C 6.7798 25.0965 14.1492 9.79046 13.707 2.13743C 13.707 2.13743 12.0857 -2.57213 7.07457 1.99026Z" transform="translate(315.262 130.613)" fill="url(#paint20_linear)"/>
</g>
<g id="Vector_84" opacity="0.5">
<path d="M 6.63241 -4.49139e-06C 6.63241 -4.49139e-06 2.94774 1.91326 -4.4979e-06 7.50587C -4.4979e-06 7.50587 3.97945 11.3324 8.10628 17.5137C 8.10628 17.6609 13.1174 8.09455 6.63241 -4.49139e-06Z" transform="translate(332.653 174.695)" fill="url(#paint21_linear)"/>
</g>
<g id="Vector_85" opacity="0.5">
<path d="M 2.21081 8.98277e-06C 2.21081 8.98277e-06 2.94774 4.12086 7.9589 4.12086L 5.45332 6.47564C 5.45332 6.47564 2.94775 6.47564 1.47388 5.29825C 8.96065e-06 4.12086 8.99579e-06 2.50196 8.99579e-06 2.50196L 2.21081 8.98277e-06Z" transform="translate(336.191 220.172)" fill="#D5E2E8"/>
</g>
<g id="Vector_86" opacity="0.5">
<path d="M 5.45333 2.94347C 5.45333 2.94347 5.30594 3.385 3.24252 3.53218C 1.32649 3.82653 0.147387 3.09065 0.147387 3.09065L -8.99579e-06 0.147178C -8.99579e-06 0.147178 0.736931 0.735864 2.65296 0.735864C 4.56899 0.735864 5.6007 -4.49139e-06 5.6007 -4.49139e-06" transform="translate(318.946 259.32)" fill="#D5E2E8"/>
</g>
<g id="Group_16" opacity="0.5">
<g id="Vector_87" opacity="0.5">
<path d="M 26.5352 6.92594C 26.5352 6.92594 26.093 -0.285577 18.2815 0.00877043C 13.4177 0.303118 10.47 2.51073 10.9122 8.98637C 11.3543 16.7866 -0.289274 13.9903 0.00550035 18.9942C 0.152887 23.2622 8.40656 27.5303 17.9867 24.2924C 28.009 20.9074 26.8299 11.0468 26.5352 6.92594Z" transform="translate(300.959 79.9064)" fill="#52636B"/>
</g>
<g id="Vector_88" opacity="0.5">
<path d="M 2.80036 5.5926C 4.34696 5.5926 5.60071 4.34065 5.60071 2.7963C 5.60071 1.25194 4.34696 0 2.80036 0C 1.25377 0 -4.4979e-06 1.25194 -4.4979e-06 2.7963C -4.4979e-06 4.34065 1.25377 5.5926 2.80036 5.5926Z" transform="translate(320.862 85.655)" fill="#E6E7E8"/>
</g>
<g id="Vector_89" opacity="0.5">
<path d="M 0.985766 15.9639C 1.87009 22.4395 7.91296 26.8547 14.2506 25.9717C 20.7356 25.0886 25.1572 19.0545 24.2729 12.726L 23.3886 6.25039C 22.5043 -0.225253 17.0509 -0.5196 10.7133 0.363442C 4.22827 1.24648 -0.782887 3.01256 0.101435 9.48821L 0.985766 15.9639Z" transform="translate(322.677 81.9065)" fill="#D5E2E8"/>
</g>
<g id="Vector_90" opacity="0.5">
<path d="M 18.9784 5.67882C 18.9784 5.67882 18.831 8.62229 14.7041 11.8601C 12.4933 13.479 9.84036 14.5092 7.62955 14.8036C 6.89262 14.9508 5.41875 15.5395 5.12398 17.7471C 4.68182 19.8075 1.58669 14.6564 0.407598 14.2149C 0.407598 14.2149 -1.65583 7.15055 3.50271 3.02969C 8.66126 -1.09118 20.4522 -0.355307 23.6947 1.41078C 26.7899 3.17686 26.2003 9.06381 24.8738 11.7129C 24.7264 11.8601 24.1369 7.15056 18.9784 5.67882Z" transform="translate(321.78 78.7988)" fill="#52636B"/>
</g>
<g id="Vector_91" opacity="0.5">
<path d="M 2.06342 4.12086C 3.20301 4.12086 4.12683 3.19837 4.12683 2.06043C 4.12683 0.922485 3.20301 -4.49139e-06 2.06342 -4.49139e-06C 0.923824 -4.49139e-06 8.99579e-06 0.922485 8.99579e-06 2.06043C 8.99579e-06 3.19837 0.923824 4.12086 2.06342 4.12086Z" transform="translate(331.768 95.2213)" fill="#E9F2F7"/>
</g>
<g id="Vector_92" opacity="0.5">
<path d="M 1.93471 4.26804C 1.05039 4.41521 0.166084 3.67935 0.0186966 2.50196C -0.12869 1.32457 0.60824 0.294345 1.78734 -2.24569e-06C 1.93472 -2.24569e-06 1.93472 -2.24569e-06 2.08211 -2.24569e-06C 2.08211 0.294345 2.52426 1.91326 1.93471 4.26804Z" transform="translate(345.014 94.3383)" fill="#E9F2F7"/>
</g>
<g id="Group_17" opacity="0.5">
<g id="Vector_93" opacity="0.5">
<path d="M 0.736926 2.24569e-06C 0.736926 2.24569e-06 0.884318 0.147169 1.17909 0.441517C 1.47387 0.735864 1.91603 0.883042 2.35819 0.883042C 2.50558 0.883042 2.65296 0.883042 2.65296 0.883042C 2.65296 0.883042 2.80034 0.883042 2.94773 0.883042C 3.09512 0.883042 3.38991 0.735871 3.53729 0.735871C 3.83207 0.588697 4.12683 0.441517 4.12683 0.441517L 4.27423 0.441517C 4.27423 0.441517 4.27423 0.441526 4.27423 0.588699C 4.27423 0.588699 4.27422 0.883047 3.83206 1.32457C 3.68468 1.47174 3.3899 1.76608 3.09513 1.91325C 2.94774 2.06043 2.80036 2.06044 2.50559 2.06044C 2.3582 2.06044 2.2108 2.06044 1.91603 2.06044C 1.62125 2.06044 1.1791 1.91326 0.884322 1.76608C 0.589548 1.61891 0.44217 1.32456 0.294783 1.17739C 8.98261e-06 0.735864 -8.99579e-06 0.294345 -8.99579e-06 0.294345C -8.99579e-06 0.147171 0.147396 2.24569e-06 0.294783 2.24569e-06C 0.589557 2.24569e-06 0.736926 2.24569e-06 0.736926 2.24569e-06Z" transform="translate(337.369 99.1951)" fill="#52636B"/>
</g>
</g>
<g id="Vector_94" opacity="0.5">
<path d="M 0.147396 2.20761C 0.147396 2.50196 0.44217 2.7963 0.884331 2.7963C 1.17911 2.7963 1.47387 2.50195 1.47387 2.06043L 1.32647 0.588694C 1.32647 0.294346 1.0317 2.24569e-06 0.589539 2.24569e-06C 0.294765 2.24569e-06 0 0.29435 0 0.735871L 0.147396 2.20761Z" transform="translate(343.412 91.8365)" fill="#52636B"/>
</g>
<g id="Vector_95" opacity="0.5">
<path d="M 0.147392 2.2076C 0.147392 2.50195 0.442166 2.7963 0.884327 2.7963C 1.1791 2.7963 1.47387 2.50195 1.47387 2.06043L 1.32649 0.588695C 1.32649 0.294347 1.03172 -2.24569e-06 0.589557 -2.24569e-06C 0.294783 -2.24569e-06 -4.4979e-06 0.294345 -4.4979e-06 0.735866L 0.147392 2.2076Z" transform="translate(336.338 92.1306)" fill="#52636B"/>
</g>
<g id="Vector_96" opacity="0.5">
<path d="M 2.94755 7.06483C 4.57543 7.06483 5.89508 5.48331 5.89508 3.53241C 5.89508 1.58151 4.57543 0 2.94755 0C 1.31967 0 8.99517e-06 1.58151 8.99517e-06 3.53241C 8.99517e-06 5.48331 1.31967 7.06483 2.94755 7.06483Z" transform="matrix(0.975868 -0.218598 0.219202 0.975732 320.777 93.1407)" fill="#D5E2E8"/>
</g>
<g id="Group_18" opacity="0.5">
<g id="Vector_97" opacity="0.5">
<path d="M 0.884331 -2.24569e-06C 0.884331 -2.24569e-06 0.884318 -1.11846e-06 1.0317 0.294346C 1.0317 0.44152 1.17909 0.735864 1.32647 0.883038C 1.47386 1.32456 1.76864 2.06044 2.21081 2.50196C 2.35819 2.64913 2.3582 2.64913 2.3582 2.7963C 2.50559 2.94347 2.50558 3.09065 2.50558 3.23783C 2.50558 3.53217 2.2108 3.82651 2.06341 3.82651C 1.76864 4.12086 1.32648 4.12087 1.0317 4.12087C 0.442157 4.12087 0 3.97369 0 3.97369C 0 3.97369 0 3.97369 0 3.82651C 0 3.82651 8.99359e-06 3.82651 0.147396 3.82651C 0.147396 3.82651 0.442157 3.82651 1.0317 3.67934C 1.32648 3.67934 1.62125 3.53217 1.76864 3.23783C 1.91603 3.09065 1.91604 3.09064 1.91604 3.09064L 1.76864 2.94347C 1.17909 2.35478 1.03172 1.47174 0.884331 1.03022C 0.884331 0.735873 0.884322 0.441523 0.736935 0.441523C 0.736935 0.29435 0.736935 0.147175 0.736935 0.147175C 0.589548 1.11846e-06 0.736944 -2.24569e-06 0.884331 -2.24569e-06C 0.736944 -2.24569e-06 0.884331 -2.24569e-06 0.884331 -2.24569e-06Z" transform="translate(340.464 93.6024)" fill="#52636B"/>
</g>
</g>
<g id="Vector_98" opacity="0.5">
<path d="M 1.17909 2.35478C 1.83029 2.35478 2.35819 1.82764 2.35819 1.17739C 2.35819 0.527133 1.83029 4.49139e-06 1.17909 4.49139e-06C 0.527895 4.49139e-06 -8.99579e-06 0.527133 -8.99579e-06 1.17739C -8.99579e-06 1.82764 0.527895 2.35478 1.17909 2.35478Z" transform="translate(323.368 98.3119)" fill="#E9F2F7"/>
</g>
</g>
<g id="Vector_99" opacity="0.5">
<path d="M 2.52731 -4.49139e-06C 2.52731 -4.49139e-06 7.3911 1.91326 12.9918 1.17739C 14.9078 0.883042 13.5813 5.73977 8.4228 5.88694C 3.26425 5.88694 8.71758 7.65303 7.53849 9.56629C 7.24371 10.0078 6.35938 8.83042 4.44335 7.35868C 2.52732 6.03412 0.0217396 4.56238 0.0217396 2.7963C -0.273034 0.147171 2.52731 -4.49139e-06 2.52731 -4.49139e-06Z" transform="translate(352.971 159.242)" fill="#D5E2E8"/>
</g>
</g>
<g id="Group_19">
<g id="Vector_100">
<path d="M 25.498 38.4123L 7.22197 38.4123L 1.79916e-05 1.12285e-06L 34.0464 1.12285e-06L 25.498 38.4123Z" transform="translate(636.269 63.5792)" fill="url(#paint22_linear)"/>
</g>
<g id="Vector_101">
<path d="M 18.4234 27.963L 5.15854 27.963L -8.99579e-06 1.12285e-06L 24.6136 1.12285e-06L 18.4234 27.963Z" transform="translate(640.985 63.5792)" fill="white"/>
</g>
<g id="Vector_102">
<path d="M 8.54845 -5.61423e-07L 26.677 -5.61423e-07L 34.0464 12.9513L 1.79916e-05 12.9513L 8.54845 -5.61423e-07Z" transform="translate(636.269 45.4767)" fill="url(#paint23_linear)"/>
</g>
<g id="Vector_103">
<path d="M 42.3001 0L 8.99579e-06 0L 8.99579e-06 5.15108L 42.3001 5.15108L 42.3001 0Z" transform="translate(631.7 58.4282)" fill="url(#paint24_linear)"/>
</g>
<g id="Vector_104">
<path d="M 22.845 4.49139e-06L 14.2965 4.49139e-06L 8.10631 4.49139e-06L 1.79916e-05 4.49139e-06L 1.79916e-05 3.82652L 5.30592 3.82652L 5.30592 7.06434L 8.10631 7.06434L 8.10631 234.301L 14.2965 234.301L 14.2965 7.06434L 17.5391 7.06434L 17.5391 3.82652L 22.845 3.82652L 22.845 4.49139e-06Z" transform="translate(641.427 101.991)" fill="url(#paint25_linear)"/>
</g>
</g>
<g id="Group_20">
<g id="Vector_105">
<path d="M 35.5203 0L -1.79916e-05 0L -1.79916e-05 64.7564L 35.5203 64.7564L 35.5203 0Z" transform="translate(497.873 59.8997)" fill="url(#paint26_linear)"/>
</g>
<g id="Vector_106">
<path d="M 73.2514 0L -1.79916e-05 0L -1.79916e-05 148.793L 73.2514 148.793L 73.2514 0Z" transform="translate(543.562 0)" fill="url(#paint27_linear)"/>
</g>
<g id="Vector_107">
<path d="M 10.9066 15.3061L 10.9066 0L 7.8115 0L 7.8115 15.3061L 8.99579e-06 15.3061L 8.99579e-06 99.931L 44.0687 99.931L 44.0687 15.3061L 10.9066 15.3061Z" transform="translate(442.308 20.6043)" fill="url(#paint28_linear)"/>
</g>
<g id="Vector_108">
<path d="M 52.4698 0L 0 0L 0 6.91716L 52.4698 6.91716L 52.4698 0Z" transform="translate(554.175 13.6873)" fill="white"/>
</g>
<g id="Vector_109">
<path d="M 52.4698 0L 0 0L 0 6.91716L 52.4698 6.91716L 52.4698 0Z" transform="translate(554.175 28.2573)" fill="white"/>
</g>
<g id="Vector_110">
<path d="M 52.4698 0L 0 0L 0 6.91716L 52.4698 6.91716L 52.4698 0Z" transform="translate(554.175 42.8276)" fill="white"/>
</g>
<g id="Vector_111">
<path d="M 52.4698 0L 0 0L 0 6.91717L 52.4698 6.91717L 52.4698 0Z" transform="translate(554.175 57.3977)" fill="white"/>
</g>
<g id="Vector_112">
<path d="M 52.4698 2.24569e-06L 0 2.24569e-06L 0 6.91716L 52.4698 6.91716L 52.4698 2.24569e-06Z" transform="translate(554.175 71.968)" fill="white"/>
</g>
<g id="Vector_113">
<path d="M 52.4698 0L 0 0L 0 6.91716L 52.4698 6.91716L 52.4698 0Z" transform="translate(554.175 86.5382)" fill="white"/>
</g>
<g id="Vector_114">
<path d="M 52.4698 -4.49139e-06L 0 -4.49139e-06L 0 6.91717L 52.4698 6.91717L 52.4698 -4.49139e-06Z" transform="translate(554.175 101.108)" fill="white"/>
</g>
</g>
<g id="Group_21">
<g id="Vector_115">
<path d="M 8.10629 16.1891C 12.5833 16.1891 16.2126 12.565 16.2126 8.09455C 16.2126 3.62405 12.5833 2.24569e-06 8.10629 2.24569e-06C 3.62931 2.24569e-06 0 3.62405 0 8.09455C 0 12.565 3.62931 16.1891 8.10629 16.1891Z" transform="translate(373.626 185.292)" fill="#E9F2F7"/>
</g>
<g id="Vector_116">
<path d="M 5.01116 10.0078C 7.77875 10.0078 10.0223 7.76748 10.0223 5.0039C 10.0223 2.24032 7.77875 4.49139e-06 5.01116 4.49139e-06C 2.24357 4.49139e-06 8.99579e-06 2.24032 8.99579e-06 5.0039C 8.99579e-06 7.76748 2.24357 10.0078 5.01116 10.0078Z" transform="translate(370.089 205.013)" fill="#E9F2F7"/>
</g>
<g id="Vector_117">
<path d="M 31.983 63.8734C 49.6467 63.8734 63.966 49.5748 63.966 31.9367C 63.966 14.2985 49.6467 4.49139e-06 31.983 4.49139e-06C 14.3193 4.49139e-06 1.79916e-05 14.2985 1.79916e-05 31.9367C 1.79916e-05 49.5748 14.3193 63.8734 31.983 63.8734Z" transform="translate(393.081 149.087)" fill="#E9F2F7"/>
</g>
<g id="Vector_118">
<path d="M 15.7704 18.1024L 9.72755 15.6004L 3.83207 18.3967L 4.42161 11.9211L 0 7.06434L 6.33762 5.5926L 9.43276 4.49138e-06L 12.8227 5.5926L 19.1603 6.76999L 15.0335 11.6267L 15.7704 18.1024Z" transform="translate(404.578 171.899)" fill="#FEA729"/>
</g>
<g id="Group_22">
<g id="Vector_119">
<path d="M 9.87493 4.85673C 9.87493 6.91716 8.69583 8.24173 7.51673 9.41912C 6.77979 10.3022 6.19026 11.038 6.19026 11.7739L 6.19026 13.3928C 6.19026 14.1287 5.60071 14.5702 4.71639 14.5702C 3.97945 14.5702 3.38991 13.9815 3.38991 13.3928L 3.38991 11.7739C 3.38991 10.0078 4.569 8.83042 5.45332 7.8002C 6.33764 6.91716 7.07459 6.03412 7.07459 4.85673C 7.07459 3.82651 6.19026 2.50195 4.86378 2.50195C 3.68468 2.50195 2.65298 3.53216 2.65298 4.85673C 2.65298 5.5926 2.06344 6.03412 1.3265 6.03412C 0.589566 6.03412 -1.79916e-05 5.44542 -1.79916e-05 4.85673C -1.79916e-05 2.2076 2.21082 2.24569e-06 5.01118 2.24569e-06C 6.33766 2.24569e-06 7.66413 0.588697 8.54846 1.47174C 9.43278 2.50196 9.87493 3.67934 9.87493 4.85673ZM 6.77979 17.808C 6.77979 18.8382 5.89549 19.5741 4.86378 19.5741C 3.83207 19.5741 2.94772 18.8382 2.94772 17.808C 2.94772 16.925 3.83207 16.0419 4.86378 16.0419C 5.89549 15.8948 6.77979 16.7778 6.77979 17.808Z" transform="translate(425.654 169.839)" fill="#B3C0C8"/>
</g>
<g id="Vector_120">
<path d="M 1.76864 19.2798C -0.589557 19.2798 -0.589557 15.8948 1.76864 15.8948C 4.12683 15.8948 4.12683 19.2798 1.76864 19.2798ZM 0.294765 12.5098L 0.294765 1.17739C 0.294765 0.441526 0.884304 0 1.62124 0C 2.35817 0 2.94776 0.588699 2.94776 1.17739L 2.94776 12.5098C 2.94776 13.2456 2.35817 13.8343 1.62124 13.8343C 1.03169 13.8343 0.294765 13.2456 0.294765 12.5098Z" transform="translate(438.772 169.986)" fill="#B3C0C8"/>
</g>
</g>
</g>
<g id="Group_23">
<g id="Group_24">
<g id="Vector_121">
<path d="M 26.2615 0.0331503C 26.2615 0.0331503 9.16462 -0.849892 2.38482 16.2223C -4.10021 32.7057 3.7113 50.0722 12.9967 60.2272C 22.5768 70.8237 44.9797 80.9787 61.7818 76.4163C 78.7313 71.8539 80.7947 69.4992 85.0689 72.8842C 89.3432 76.2691 97.3021 82.3033 105.261 79.3598C 113.22 76.4163 114.399 69.9407 109.977 66.2613C 105.703 62.582 102.755 60.5216 101.282 55.0761C 99.6603 49.6307 94.6491 42.1248 80.3526 44.6268C 65.9086 47.1287 64.2874 44.6268 59.2762 24.1696C 53.5281 0.916194 32.7465 -0.261197 26.2615 0.0331503Z" transform="translate(161.804 146.551)" fill="#312D74"/>
</g>
<g id="Vector_122">
<path d="M 18.1543 41.6502C 6.80547 40.3256 -1.30081 30.0234 0.173063 18.6911L 2.38387 -2.24569e-06L 43.3575 4.85674L 41.1467 23.5478C 39.8202 34.8802 29.5031 42.9747 18.1543 41.6502Z" transform="translate(165.637 160.566)" fill="#ECC19C"/>
</g>
<g id="Group_25">
<g id="Vector_123">
<path d="M 6.48503 0.551897C 6.33765 1.28777 5.89548 1.87646 5.30593 2.46516C 4.71638 2.90668 3.97945 3.20103 3.24251 3.20103C 2.94774 3.20103 2.50558 3.20102 2.06342 3.05385C 1.62126 2.90667 1.32648 2.75951 1.03171 2.46516C 0.442159 2.02364 0.147389 1.28777 2.24895e-06 0.69908C 2.24895e-06 0.551906 0 0.404737 0.147387 0.404737L 0.294772 0.404737C 0.736933 0.699084 1.32648 0.993432 1.76864 1.14061C 2.2108 1.28778 2.50558 1.28777 3.09513 1.28777C 3.53729 1.28777 3.97945 1.1406 4.42161 0.993423C 4.86377 0.846249 5.30594 0.551892 5.7481 0.110371C 5.89549 -0.0368024 6.04287 -0.0368024 6.19025 0.110371C 6.48503 0.404719 6.48503 0.551897 6.48503 0.551897Z" transform="translate(175.979 190.332)" fill="#312D74"/>
</g>
</g>
<g id="Vector_124">
<path d="M 2.23371 2.81918C 2.23371 3.40787 1.64417 3.99656 1.05462 3.84939C 0.465072 3.84939 -0.124483 3.2607 0.0229043 2.672L 0.0229043 1.05308C 0.0229043 0.46439 0.612457 -0.1243 1.20201 0.0228734C 1.79155 0.0228734 2.3811 0.611573 2.23371 1.20027L 2.23371 2.81918Z" transform="translate(183.622 177.321)" fill="#312D74"/>
</g>
<g id="Vector_125">
<path d="M 2.2108 2.7963C 2.2108 3.38499 1.62126 3.82652 1.03171 3.82652C 0.442163 3.82652 -4.4979e-06 3.23782 -4.4979e-06 2.64913L -4.4979e-06 1.03022C -4.4979e-06 0.441523 0.589548 -4.49139e-06 1.1791 -4.49139e-06C 1.76864 -4.49139e-06 2.2108 0.588695 2.2108 1.17739L 2.2108 2.7963Z" transform="translate(171.264 176.167)" fill="#312D74"/>
</g>
<g id="Vector_126">
<path d="M 7.37949 3.38499C 7.52688 5.44542 5.90563 5.59261 3.84221 5.73978C 1.77879 5.88695 0.157537 5.88695 0.0101504 3.82652C -0.137237 1.76608 1.33663 2.24569e-06 3.40005 2.24569e-06C 5.46346 2.24569e-06 7.2321 1.47173 7.37949 3.38499Z" transform="translate(185.551 183.084)" fill="#E0A8A3"/>
</g>
<g id="Vector_127">
<path d="M 5.30594 3.58185C 5.01116 5.34794 3.83207 5.20076 2.3582 4.90641C 0.884327 4.61206 -4.4979e-06 4.46489 -4.4979e-06 2.6988C -4.4979e-06 0.785545 1.76865 -0.244664 3.24252 0.0496833C 4.71639 0.344031 5.60071 1.96294 5.30594 3.58185Z" transform="translate(166.842 182.298)" fill="#E0A8A3"/>
</g>
<g id="Group_26">
<g id="Vector_128">
<path d="M 3.06984 0.110385C 3.21723 0.993427 2.92245 1.72929 2.62768 2.46516C 2.3329 3.20103 1.74335 3.93689 1.30119 4.37841C 1.1538 4.52559 1.00642 4.67276 1.15381 4.96711C 1.15381 5.11428 1.44858 5.40863 1.59597 5.55581C 2.03813 5.99733 2.77506 6.14451 3.512 6.14451C 3.512 6.14451 3.65939 6.1445 3.65939 6.29168C 3.65939 6.29168 3.65938 6.43885 3.512 6.43885C 2.77506 6.7332 1.89074 6.7332 1.15381 6.29168C 0.711645 6.1445 0.416876 5.85016 0.122102 5.26147C -0.172672 4.67277 0.122097 4.08408 0.416871 3.78973C 1.00642 3.20103 1.3012 2.7595 1.74336 2.17081C 2.03813 1.58211 2.3329 0.846251 2.62768 0.257556C 2.62768 0.110383 2.77507 0.110385 2.92246 0.110385C 3.06984 -0.0367889 3.06984 -0.0367889 3.06984 0.110385Z" transform="translate(175.121 181.355)" fill="#312D74"/>
</g>
</g>
<g id="Vector_129">
<path d="M 22.5502 18.7407C 26.3823 28.7485 36.4046 35.5185 47.7534 34.9298C 50.259 34.7826 52.6172 34.3411 54.828 33.4581C 54.2384 31.1033 53.9436 28.1598 53.7963 24.6276C 53.5015 1.66855 32.5725 -0.391892 26.2349 0.0496286C 26.2349 0.0496286 9.138 -0.833414 2.35819 16.2387C 0.736935 20.2124 2.24895e-06 24.3333 2.24895e-06 28.307C 1.1791 28.4542 2.3582 28.4542 3.53729 28.4542C 11.2014 28.0126 17.9812 24.3333 22.5502 18.7407Z" transform="translate(161.979 146.535)" fill="#312D74"/>
</g>
<g id="Vector_130">
<path d="M 5.59262 10.317C 8.68134 10.317 11.1852 8.0075 11.1852 5.15852C 11.1852 2.30955 8.68134 -4.49788e-06 5.59262 -4.49788e-06C 2.5039 -4.49788e-06 -4.4914e-06 2.30955 -4.4914e-06 5.15852C -4.4914e-06 8.0075 2.5039 10.317 5.59262 10.317Z" transform="matrix(0.0508495 -0.998696 0.998704 0.0507028 203.826 190.257)" fill="#ECC19C"/>
</g>
<g id="Vector_131">
<path d="M 2.06343 4.12086C 3.20302 4.12086 4.12684 3.19839 4.12684 2.06044C 4.12684 0.922496 3.20302 -4.49139e-06 2.06343 -4.49139e-06C 0.923833 -4.49139e-06 -4.4979e-06 0.922496 -4.4979e-06 2.06044C -4.4979e-06 3.19839 0.923833 4.12086 2.06343 4.12086Z" transform="translate(205.162 187.941)" fill="#F1F2F2"/>
</g>
</g>
<g id="Group_27">
<g id="Vector_132">
<path d="M 145.913 29.2888C 145.766 45.1836 113.046 57.9877 72.8092 57.8405C 32.5725 57.6934 4.4979e-06 44.5949 4.4979e-06 28.5529C 0.147392 12.6582 32.8673 -0.145927 73.104 0.00124715C 113.341 0.295595 145.913 13.394 145.913 29.2888Z" transform="translate(133.827 379.56)" fill="url(#paint29_linear)"/>
</g>
<g id="Vector_133">
<path d="M 30.3865 -8.98277e-06C 30.3865 -8.98277e-06 28.323 19.1326 15.2056 34.2915C 11.9631 37.9708 5.18327 44.4465 1.20382 48.1258C -2.77563 51.8052 4.00417 54.4543 8.57317 51.2164C 13.1422 48.1258 27.1439 39.1482 32.0077 27.2271C 31.8603 27.2271 28.9126 7.06433 30.3865 -8.98277e-06Z" transform="translate(127.023 239.746)" fill="#31CEB7"/>
</g>
<g id="Vector_134">
<path d="M 9.6023 0.297025C 9.6023 0.297025 4.59113 4.27071 1.79078 9.71613C -1.00958 15.1616 -0.420021 20.1655 2.82249 20.4598C 6.06501 20.7542 7.83364 16.0446 10.7814 13.6898C 12.55 12.2181 12.6974 15.1616 14.3187 15.0144C 15.9399 14.8672 16.2347 5.59526 16.6769 4.41787C 17.119 3.24048 11.3709 -1.17471 9.6023 0.297025Z" transform="translate(118.478 287.575)" fill="#ECC19C"/>
</g>
<g id="Vector_135">
<path d="M 32.9125 47.587C 32.6177 49.2059 31.2912 50.3833 29.8173 50.2361L 2.69811 47.7342C 0.929465 47.587 -0.249636 46.1153 0.0451383 44.3492L 6.23539 2.55185C 6.53016 0.785761 8.15143 -0.244451 9.77269 0.0498969L 36.4497 5.49532C 37.9236 5.78967 38.9553 7.40858 38.6605 8.88032L 32.9125 47.587Z" transform="translate(233.858 233.956)" fill="#8D7FFF"/>
</g>
<g id="Vector_136">
<path d="M 1.45443 5.30947C 1.45443 5.30947 7.3499 -0.283114 11.9189 0.0112333C 16.6353 0.305581 18.2565 6.63405 14.5719 10.6077C 10.8872 14.5814 0.127936 12.0795 0.127936 12.0795C 0.127936 12.0795 -0.608986 10.019 1.45443 5.30947Z" transform="translate(258.095 253.275)" fill="#ECC19C"/>
</g>
<g id="Vector_137">
<path d="M 19.8997 4.29644C 19.8997 4.29644 15.7729 9.4475 11.0565 12.8325C 6.34012 16.2175 -0.144921 19.0138 0.00246585 21.9573C 0.00246585 24.9008 6.4875 26.9612 14.5938 23.2818C 22.7001 19.7497 22.8475 15.0401 28.006 11.6551C 33.1646 8.41731 27.2691 2.67751 26.8269 0.322733C 23.437 -0.854656 22.5527 1.35297 19.8997 4.29644Z" transform="translate(183.642 393.367)" fill="#312D74"/>
</g>
<g id="Vector_138">
<path d="M 0 7.56188C 0 7.56188 1.91604 10.3582 2.3582 17.864C 2.80036 25.3699 1.47387 31.1097 5.60071 31.5512C 9.72755 31.9927 12.5279 23.0151 9.72755 10.7997C 9.138 8.5921 11.2014 5.05994 10.0223 1.82212C 8.99061 -1.12136 5.01116 0.497536 0.736935 0.0560152C 0.736935 0.203189 0 2.4108 0 7.56188Z" transform="translate(220.345 354.485)" fill="#312D74"/>
</g>
<g id="Vector_139">
<path d="M 2.04855 9.9958C 2.04855 9.9958 16.4925 14.2638 23.7144 16.7658C 23.7144 16.7658 27.5465 15.7356 26.6622 9.55427C 26.6622 9.55427 17.2294 7.34667 10.0074 1.45972C 6.76492 -1.18941 0.13251 0.57669 0.13251 0.57669C 0.13251 0.57669 -0.751807 6.75798 2.04855 9.9958Z" transform="translate(196.631 345.429)" fill="#ECC19C"/>
</g>
<g id="Vector_140">
<path d="M 2.04855 9.9958C 2.04855 9.9958 16.4925 14.2638 23.7144 16.7658C 23.7144 16.7658 27.5465 15.7356 26.6622 9.55427C 26.6622 9.55427 17.2294 7.34667 10.0074 1.45972C 6.76492 -1.18941 0.13251 0.57669 0.13251 0.57669C 0.13251 0.57669 -0.751807 6.75798 2.04855 9.9958Z" transform="translate(196.631 345.429)" fill="url(#paint30_linear)"/>
</g>
<g id="Vector_141">
<path d="M -4.4979e-06 6.47565C -4.4979e-06 6.47565 8.84323 30.0235 10.9066 55.1902C 10.9066 55.1902 17.2443 57.5449 17.9812 52.0995C 18.1286 48.5673 17.5391 12.6569 14.4439 -4.49139e-06C 14.4439 -4.49139e-06 9.87493 5.59261 -4.4979e-06 6.47565Z" transform="translate(192.636 342.473)" fill="#ECC19C"/>
</g>
<g id="Vector_142">
<path d="M 25.3968 0.412887C 39.2512 -1.50037 46.1784 3.35636 53.8425 12.4811C 63.2753 23.8135 85.5307 46.7726 106.312 52.0708C 106.312 52.0708 108.523 56.1917 104.986 58.8408C 101.449 61.49 62.8331 46.4782 47.3575 30.2891C 47.3575 30.2891 42.7885 62.373 64.1596 79.5923C 85.5307 96.8117 99.8273 93.721 104.838 101.227C 109.85 108.733 105.133 117.858 94.2265 121.831C 83.3199 125.952 75.6558 123.156 68.139 131.103C 60.6223 139.051 58.2641 152.59 40.5777 148.911C 32.0292 146.998 29.2289 146.704 22.8912 142.877C 7.56296 133.752 0.635773 112.854 0.0462249 82.2415C -0.543323 42.7989 4.32044 3.35636 25.3968 0.412887Z" transform="translate(153.237 206.513)" fill="#31E8B7"/>
</g>
<g id="Vector_143">
<path d="M 0.884318 1.76608C 1.37272 1.76608 1.76865 1.37072 1.76865 0.883033C 1.76865 0.395343 1.37272 4.49139e-06 0.884318 4.49139e-06C 0.39592 4.49139e-06 8.99579e-06 0.395343 8.99579e-06 0.883033C 8.99579e-06 1.37072 0.39592 1.76608 0.884318 1.76608Z" transform="translate(244.073 238.127)" fill="#F1F2F2"/>
</g>
</g>
</g>
</g>
</g>
<defs>

<linearGradient id="paint0_linear" x2="1" gradientUnits="userSpaceOnUse" gradientTransform="matrix(-4.06243 -33.6126 71.5207 -2.35562 65.0423 28.5525)">
<stop stop-color="#E9F2F7" stop-opacity="0"/>
<stop offset="1" stop-color="#E9F2F7"/>
</linearGradient>
<linearGradient id="paint1_linear" x2="1" gradientUnits="userSpaceOnUse" gradientTransform="matrix(27.3238 82.6791 -82.7989 27.2842 57.0557 16.4623)">
<stop offset="0.0107527" stop-color="#D5E2E8"/>
<stop offset="1" stop-color="#D5E2E8" stop-opacity="0"/>
</linearGradient>
<linearGradient id="paint2_linear" x2="1" gradientUnits="userSpaceOnUse" gradientTransform="matrix(-18.3112 112.32 -112.483 -18.2847 82.7537 -28.5187)">
<stop offset="0.0107527" stop-color="#D5E2E8"/>
<stop offset="1" stop-color="white"/>
</linearGradient>
<linearGradient id="paint3_linear" x2="1" gradientUnits="userSpaceOnUse" gradientTransform="matrix(0 97.2022 -97.3431 0 109.436 1.60022)">
<stop offset="0.0107527" stop-color="white"/>
<stop offset="1" stop-color="#A9BBC4"/>
</linearGradient>
<linearGradient id="paint4_linear" x2="1" gradientUnits="userSpaceOnUse" gradientTransform="matrix(0 42.1229 -42.1839 0 89.0153 6.92202)">
<stop offset="0.0107527" stop-color="white"/>
<stop offset="1" stop-color="#A9BBC4"/>
</linearGradient>
<linearGradient id="paint5_linear" x2="1" gradientUnits="userSpaceOnUse" gradientTransform="matrix(0 40.4538 -40.5124 0 32.9747 3.42164)">
<stop stop-color="#D5E2E8"/>
<stop offset="0.2354" stop-color="#D5E2E8" stop-opacity="0.7152"/>
<stop offset="1" stop-color="#D5E2E8" stop-opacity="0"/>
</linearGradient>
<linearGradient id="paint6_linear" x2="1" gradientUnits="userSpaceOnUse" gradientTransform="matrix(0 19.4798 -19.508 0 22.4725 -4.31131)">
<stop stop-color="#D5E2E8"/>
<stop offset="0.2354" stop-color="#D5E2E8" stop-opacity="0.7152"/>
<stop offset="1" stop-color="#D5E2E8" stop-opacity="0"/>
</linearGradient>
<linearGradient id="paint7_linear" x2="1" gradientUnits="userSpaceOnUse" gradientTransform="matrix(14.4031 30.015 -30.0586 14.3823 23.8536 -20.0691)">
<stop stop-color="#D5E2E8"/>
<stop offset="0.2354" stop-color="#D5E2E8" stop-opacity="0.7152"/>
<stop offset="1" stop-color="#D5E2E8" stop-opacity="0"/>
</linearGradient>
<linearGradient id="paint8_linear" x2="1" gradientUnits="userSpaceOnUse" gradientTransform="matrix(136.949 285.393 -285.806 136.751 85.5627 -124.03)">
<stop stop-color="#D5E2E8"/>
<stop offset="0.2354" stop-color="#D5E2E8" stop-opacity="0.7152"/>
<stop offset="1" stop-color="#D5E2E8" stop-opacity="0"/>
</linearGradient>
<linearGradient id="paint9_linear" x2="1" gradientUnits="userSpaceOnUse" gradientTransform="matrix(-2.05606 -33.6278 33.6766 -2.05309 30.7559 28.3931)">
<stop stop-color="#E9F2F7" stop-opacity="0"/>
<stop offset="1" stop-color="#E9F2F7"/>
</linearGradient>
<linearGradient id="paint10_linear" x2="1" gradientUnits="userSpaceOnUse" gradientTransform="matrix(0 -51.6587 51.7336 0 27.2248 52.9707)">
<stop stop-color="#E9F2F7" stop-opacity="0"/>
<stop offset="1" stop-color="#E9F2F7"/>
</linearGradient>
<linearGradient id="paint11_linear" x2="1" gradientUnits="userSpaceOnUse" gradientTransform="translate(0.119678 -11.6034) scale(107.164 107.009)">
<stop stop-color="#FFDD15"/>
<stop offset="1" stop-color="#FCB534"/>
</linearGradient>
<linearGradient id="paint12_linear" x2="1" gradientUnits="userSpaceOnUse" gradientTransform="matrix(-22.872 10.1244 -10.139 -22.8389 41.5748 17.8457)">
<stop stop-color="#5E1300"/>
<stop offset="0.3073" stop-color="#5E1300" stop-opacity="0.7152"/>
<stop offset="1" stop-color="#5E1300" stop-opacity="0"/>
</linearGradient>
<linearGradient id="paint13_linear" x2="1" gradientUnits="userSpaceOnUse" gradientTransform="matrix(-21.4385 -5.82028 5.82872 -21.4074 23.6986 28.8124)">
<stop stop-color="#5E1300"/>
<stop offset="0.3073" stop-color="#5E1300" stop-opacity="0.7152"/>
<stop offset="1" stop-color="#5E1300" stop-opacity="0"/>
</linearGradient>
<linearGradient id="paint14_linear" x2="1" gradientUnits="userSpaceOnUse" gradientTransform="matrix(-24.785 -0.543954 0.544742 -24.7492 30.0674 25.6912)">
<stop/>
<stop offset="0.0955597" stop-color="#050404" stop-opacity="0.9044"/>
<stop offset="0.6472" stop-color="#1B1819" stop-opacity="0.3528"/>
<stop offset="1" stop-color="#231F20" stop-opacity="0"/>
</linearGradient>
<linearGradient id="paint15_linear" x2="1" gradientUnits="userSpaceOnUse" gradientTransform="matrix(-3.24488 -60.8996 60.9879 -3.24018 55.5653 51.0965)">
<stop stop-color="#E9F2F7" stop-opacity="0"/>
<stop offset="1" stop-color="#E9F2F7"/>
</linearGradient>
<linearGradient id="paint16_linear" x2="1" gradientUnits="userSpaceOnUse" gradientTransform="matrix(104.112 46.788 -46.8558 103.961 -7.15666 -38.7687)">
<stop/>
<stop offset="0.5564" stop-color="#161414" stop-opacity="0.4436"/>
<stop offset="1" stop-color="#231F20" stop-opacity="0"/>
</linearGradient>
<linearGradient id="paint17_linear" x2="1" gradientUnits="userSpaceOnUse" gradientTransform="matrix(-47.3701 25.3019 -25.3386 -47.3015 71.58 18.9076)">
<stop/>
<stop offset="0.5564" stop-color="#161414" stop-opacity="0.4436"/>
<stop offset="1" stop-color="#231F20" stop-opacity="0"/>
</linearGradient>
<linearGradient id="paint18_linear" x2="1" gradientUnits="userSpaceOnUse" gradientTransform="matrix(-25.1686 10.955 -10.9709 -25.1322 41.1125 16.8654)">
<stop/>
<stop offset="0.5564" stop-color="#161414" stop-opacity="0.4436"/>
<stop offset="1" stop-color="#231F20" stop-opacity="0"/>
</linearGradient>
<linearGradient id="paint19_linear" x2="1" gradientUnits="userSpaceOnUse" gradientTransform="matrix(15.4021 -0.773374 0.774495 15.3798 -3.02476 5.57834)">
<stop stop-color="#78909C"/>
<stop offset="0.3073" stop-color="#78909C" stop-opacity="0.7152"/>
<stop offset="1" stop-color="#78909C" stop-opacity="0"/>
</linearGradient>
<linearGradient id="paint20_linear" x2="1" gradientUnits="userSpaceOnUse" gradientTransform="matrix(16.1673 6.20609 6.21508 -16.1439 -14.0958 13.7045)">
<stop stop-color="#78909C"/>
<stop offset="0.3073" stop-color="#78909C" stop-opacity="0.7152"/>
<stop offset="1" stop-color="#78909C" stop-opacity="0"/>
</linearGradient>
<linearGradient id="paint21_linear" x2="1" gradientUnits="userSpaceOnUse" gradientTransform="matrix(17.1184 -1.23663 -1.23843 -17.0937 -9.8434 18.7235)">
<stop/>
<stop offset="0.0955597" stop-color="#050404" stop-opacity="0.9044"/>
<stop offset="0.6472" stop-color="#1B1819" stop-opacity="0.3528"/>
<stop offset="1" stop-color="#231F20" stop-opacity="0"/>
</linearGradient>
<linearGradient id="paint22_linear" x2="1" gradientUnits="userSpaceOnUse" gradientTransform="matrix(0 53.7858 -53.8638 0 43.9209 4.63818)">
<stop stop-color="#D5E2E8"/>
<stop offset="0.2354" stop-color="#D5E2E8" stop-opacity="0.7152"/>
<stop offset="1" stop-color="#D5E2E8" stop-opacity="0"/>
</linearGradient>
<linearGradient id="paint23_linear" x2="1" gradientUnits="userSpaceOnUse" gradientTransform="matrix(0 25.8995 -25.937 0 29.9575 -5.73874)">
<stop stop-color="#D5E2E8"/>
<stop offset="0.2354" stop-color="#D5E2E8" stop-opacity="0.7152"/>
<stop offset="1" stop-color="#D5E2E8" stop-opacity="0"/>
</linearGradient>
<linearGradient id="paint24_linear" x2="1" gradientUnits="userSpaceOnUse" gradientTransform="matrix(19.1499 39.9069 -39.9647 19.1221 31.6597 -26.7264)">
<stop stop-color="#D5E2E8"/>
<stop offset="0.2354" stop-color="#D5E2E8" stop-opacity="0.7152"/>
<stop offset="1" stop-color="#D5E2E8" stop-opacity="0"/>
</linearGradient>
<linearGradient id="paint25_linear" x2="1" gradientUnits="userSpaceOnUse" gradientTransform="matrix(154.944 322.894 -323.362 154.72 85.4585 -151.327)">
<stop stop-color="#D5E2E8"/>
<stop offset="0.2354" stop-color="#D5E2E8" stop-opacity="0.7152"/>
<stop offset="1" stop-color="#D5E2E8" stop-opacity="0"/>
</linearGradient>
<linearGradient id="paint26_linear" x2="1" gradientUnits="userSpaceOnUse" gradientTransform="matrix(0 121.007 -121.183 0 78.3667 -78.8164)">
<stop offset="0.0107527" stop-color="#D5E2E8"/>
<stop offset="1" stop-color="#D5E2E8" stop-opacity="0"/>
</linearGradient>
<linearGradient id="paint27_linear" x2="1" gradientUnits="userSpaceOnUse" gradientTransform="matrix(0 139.243 -139.445 0 106.373 -31.5726)">
<stop offset="0.0107527" stop-color="#D5E2E8"/>
<stop offset="1" stop-color="#D5E2E8" stop-opacity="0"/>
</linearGradient>
<linearGradient id="paint28_linear" x2="1" gradientUnits="userSpaceOnUse" gradientTransform="matrix(0 147.963 -148.177 0 96.1543 -69.5506)">
<stop offset="0.0107527" stop-color="#D5E2E8"/>
<stop offset="1" stop-color="#D5E2E8" stop-opacity="0"/>
</linearGradient>
<linearGradient id="paint29_linear" x2="1" gradientUnits="userSpaceOnUse" gradientTransform="matrix(7.39254 -49.4384 55.7188 6.61872 41.1175 52.3667)">
<stop stop-color="#E9F2F7" stop-opacity="0"/>
<stop offset="1" stop-color="#E9F2F7"/>
</linearGradient>
<linearGradient id="paint30_linear" x2="1" gradientUnits="userSpaceOnUse" gradientTransform="matrix(17.0329 39.5702 -39.6275 17.0082 19.3945 -32.8457)">
<stop stop-color="#5E1300"/>
<stop offset="0.2552" stop-color="#5E1300" stop-opacity="0.7152"/>
<stop offset="1" stop-color="#5E1300" stop-opacity="0"/>
</linearGradient>

</defs>
</svg>

