<svg width="22" height="24" viewBox="0 0 22 24" version="1.1" xmlns="http://www.w3.org/2000/svg" xmlns:xlink="http://www.w3.org/1999/xlink">
<g id="Canvas" fill="none">
<g id="e">
<g id="Vector (Stroke)">
<path fill-rule="evenodd" clip-rule="evenodd" d="M 12.455 0.270363C 12.8155 -0.090121 13.3999 -0.090121 13.7604 0.270363L 18.1912 4.70113C 18.3643 4.87424 18.4615 5.10903 18.4615 5.35385C 18.4615 5.59866 18.3643 5.83345 18.1912 6.00656L 6.00656 18.1912C 5.83345 18.3643 5.59866 18.4615 5.35385 18.4615L 0.923077 18.4615C 0.413276 18.4615 0 18.0483 0 17.5385L 0 13.1077C 0 12.8629 0.0972524 12.6281 0.270363 12.455L 12.455 0.270363ZM 1.84615 13.49L 1.84615 16.6154L 4.97149 16.6154L 16.233 5.35385L 13.1077 2.2285L 1.84615 13.49Z" fill="#FEA729"/>
</g>
<g id="Vector (Stroke)_2">
<path fill-rule="evenodd" clip-rule="evenodd" d="M 0 0.923077C 0 0.413276 0.413276 0 0.923077 0L 20.8615 0C 21.3713 0 21.7846 0.413276 21.7846 0.923077C 21.7846 1.43288 21.3713 1.84615 20.8615 1.84615L 0.923077 1.84615C 0.413276 1.84615 0 1.43288 0 0.923077Z" transform="translate(0 22.1538)" fill="#FEA729"/>
</g>
</g>
</g>
</svg>

