<svg width="340" height="195" viewBox="0 0 340 195" version="1.1" xmlns="http://www.w3.org/2000/svg" xmlns:xlink="http://www.w3.org/1999/xlink">
<g id="Canvas" fill="none">
<g id="Group 18.3" filter="url(#filter0_d)">
<g id="Subtract">
<path fill-rule="evenodd" clip-rule="evenodd" d="M 6 0.5C 2.96243 0.5 0.5 2.96243 0.5 6L 0.5 148C 0.5 151.038 2.96243 153.5 6 153.5L 294 153.5C 297.038 153.5 299.5 151.038 299.5 148L 299.5 6C 299.5 2.96243 297.038 0.5 294 0.5L 6 0.5Z" transform="translate(20 16.8159)" fill="white"/>
<path fill-rule="evenodd" clip-rule="evenodd" d="M 6 0.5C 2.96243 0.5 0.5 2.96243 0.5 6L 0.5 148C 0.5 151.038 2.96243 153.5 6 153.5L 294 153.5C 297.038 153.5 299.5 151.038 299.5 148L 299.5 6C 299.5 2.96243 297.038 0.5 294 0.5L 6 0.5Z" stroke-miterlimit="8" transform="translate(20 16.8159)" stroke="#E9F2F7"/>
</g>
<g id="Group 17">
<g id="Rectangle 10.4">
<rect width="127.619" height="32" rx="6" transform="translate(175.583 118.816)" fill="#F7F7F7"/>
</g>
<g id="Rectangle 10.2">
<rect width="268" height="27" rx="6" transform="translate(36 55.8159)" fill="#F7F7F7"/>
</g>
<g id="Page time">
<path d="M 2.46777 9.10352L 2.46777 13L 1.15527 13L 1.15527 3.04688L 4.82617 3.04688C 5.91536 3.04688 6.76758 3.32487 7.38281 3.88086C 8.0026 4.43685 8.3125 5.17285 8.3125 6.08887C 8.3125 7.05501 8.00944 7.80013 7.40332 8.32422C 6.80176 8.84375 5.93815 9.10352 4.8125 9.10352L 2.46777 9.10352ZM 2.46777 8.03027L 4.82617 8.03027C 5.52799 8.03027 6.06576 7.86621 6.43945 7.53809C 6.81315 7.2054 7 6.72689 7 6.10254C 7 5.51009 6.81315 5.03613 6.43945 4.68066C 6.06576 4.3252 5.55306 4.14062 4.90137 4.12695L 2.46777 4.12695L 2.46777 8.03027ZM 14.2734 13C 14.2005 12.8542 14.1413 12.5944 14.0957 12.2207C 13.5078 12.8314 12.806 13.1367 11.9902 13.1367C 11.2611 13.1367 10.6618 12.9316 10.1924 12.5215C 9.72754 12.1068 9.49512 11.5827 9.49512 10.9492C 9.49512 10.179 9.78678 9.58203 10.3701 9.1582C 10.958 8.72982 11.7829 8.51562 12.8447 8.51562L 14.0752 8.51562L 14.0752 7.93457C 14.0752 7.49251 13.943 7.1416 13.6787 6.88184C 13.4144 6.61751 13.0247 6.48535 12.5098 6.48535C 12.0586 6.48535 11.6803 6.59928 11.375 6.82715C 11.0697 7.05501 10.917 7.33073 10.917 7.6543L 9.64551 7.6543C 9.64551 7.28516 9.77539 6.92969 10.0352 6.58789C 10.2995 6.24154 10.6549 5.9681 11.1016 5.76758C 11.5527 5.56706 12.0472 5.4668 12.585 5.4668C 13.4372 5.4668 14.1048 5.68099 14.5879 6.10938C 15.071 6.5332 15.3216 7.11882 15.3398 7.86621L 15.3398 11.2705C 15.3398 11.9495 15.4264 12.4896 15.5996 12.8906L 15.5996 13L 14.2734 13ZM 12.1748 12.0361C 12.5713 12.0361 12.9473 11.9336 13.3027 11.7285C 13.6582 11.5234 13.9157 11.2568 14.0752 10.9287L 14.0752 9.41113L 13.084 9.41113C 11.5345 9.41113 10.7598 9.86458 10.7598 10.7715C 10.7598 11.168 10.8919 11.4779 11.1562 11.7012C 11.4206 11.9245 11.7601 12.0361 12.1748 12.0361ZM 17.0215 9.24023C 17.0215 8.08724 17.2881 7.17122 17.8213 6.49219C 18.3545 5.80859 19.0609 5.4668 19.9404 5.4668C 20.8428 5.4668 21.5469 5.78581 22.0527 6.42383L 22.1143 5.60352L 23.2695 5.60352L 23.2695 12.8223C 23.2695 13.7793 22.9847 14.5335 22.415 15.085C 21.8499 15.6364 21.0889 15.9121 20.1318 15.9121C 19.5986 15.9121 19.0768 15.7982 18.5664 15.5703C 18.056 15.3424 17.6663 15.0303 17.3975 14.6338L 18.0537 13.875C 18.596 14.5449 19.2591 14.8799 20.043 14.8799C 20.6582 14.8799 21.1367 14.7067 21.4785 14.3604C 21.8249 14.014 21.998 13.5264 21.998 12.8975L 21.998 12.2617C 21.4922 12.8451 20.8018 13.1367 19.9268 13.1367C 19.0609 13.1367 18.359 12.7881 17.8213 12.0908C 17.2881 11.3936 17.0215 10.4434 17.0215 9.24023ZM 18.293 9.38379C 18.293 10.2178 18.4639 10.874 18.8057 11.3525C 19.1475 11.8265 19.626 12.0635 20.2412 12.0635C 21.0387 12.0635 21.6243 11.7012 21.998 10.9766L 21.998 7.59961C 21.6107 6.89323 21.0296 6.54004 20.2549 6.54004C 19.6396 6.54004 19.1589 6.7793 18.8125 7.25781C 18.4661 7.73633 18.293 8.44499 18.293 9.38379ZM 28.2529 13.1367C 27.2503 13.1367 26.4346 12.8086 25.8057 12.1523C 25.1768 11.4915 24.8623 10.6097 24.8623 9.50684L 24.8623 9.27441C 24.8623 8.54069 25.0013 7.88672 25.2793 7.3125C 25.5618 6.73372 25.9538 6.28255 26.4551 5.95898C 26.9609 5.63086 27.5078 5.4668 28.0957 5.4668C 29.0573 5.4668 29.8047 5.78353 30.3379 6.41699C 30.8711 7.05046 31.1377 7.95736 31.1377 9.1377L 31.1377 9.66406L 26.127 9.66406C 26.1452 10.3932 26.3571 10.9834 26.7627 11.4346C 27.1729 11.8812 27.6924 12.1045 28.3213 12.1045C 28.7679 12.1045 29.1462 12.0133 29.4561 11.8311C 29.766 11.6488 30.0371 11.4072 30.2695 11.1064L 31.042 11.708C 30.4222 12.6605 29.4925 13.1367 28.2529 13.1367ZM 28.0957 6.50586C 27.5853 6.50586 27.1569 6.69271 26.8105 7.06641C 26.4642 7.43555 26.25 7.95508 26.168 8.625L 29.873 8.625L 29.873 8.5293C 29.8366 7.88672 29.6634 7.38997 29.3535 7.03906C 29.0436 6.68359 28.6243 6.50586 28.0957 6.50586ZM 37.7959 3.8125L 37.7959 5.60352L 39.1768 5.60352L 39.1768 6.58105L 37.7959 6.58105L 37.7959 11.168C 37.7959 11.4642 37.8574 11.6875 37.9805 11.8379C 38.1035 11.9837 38.3132 12.0566 38.6094 12.0566C 38.7552 12.0566 38.9557 12.0293 39.2109 11.9746L 39.2109 13C 38.8783 13.0911 38.5547 13.1367 38.2402 13.1367C 37.6751 13.1367 37.249 12.9658 36.9619 12.624C 36.6748 12.2822 36.5312 11.7969 36.5312 11.168L 36.5312 6.58105L 35.1846 6.58105L 35.1846 5.60352L 36.5312 5.60352L 36.5312 3.8125L 37.7959 3.8125ZM 42.0342 13L 40.7695 13L 40.7695 5.60352L 42.0342 5.60352L 42.0342 13ZM 40.667 3.6416C 40.667 3.43652 40.7285 3.26335 40.8516 3.12207C 40.9792 2.98079 41.166 2.91016 41.4121 2.91016C 41.6582 2.91016 41.8451 2.98079 41.9727 3.12207C 42.1003 3.26335 42.1641 3.43652 42.1641 3.6416C 42.1641 3.84668 42.1003 4.01758 41.9727 4.1543C 41.8451 4.29102 41.6582 4.35938 41.4121 4.35938C 41.166 4.35938 40.9792 4.29102 40.8516 4.1543C 40.7285 4.01758 40.667 3.84668 40.667 3.6416ZM 45.2539 5.60352L 45.2881 6.42383C 45.8304 5.78581 46.5618 5.4668 47.4824 5.4668C 48.5169 5.4668 49.221 5.86328 49.5947 6.65625C 49.8408 6.30078 50.1598 6.01367 50.5518 5.79492C 50.9482 5.57617 51.4154 5.4668 51.9531 5.4668C 53.5755 5.4668 54.4004 6.32585 54.4277 8.04395L 54.4277 13L 53.1631 13L 53.1631 8.11914C 53.1631 7.59049 53.0423 7.19629 52.8008 6.93652C 52.5592 6.6722 52.1536 6.54004 51.584 6.54004C 51.1146 6.54004 50.7249 6.68132 50.415 6.96387C 50.1051 7.24186 49.9251 7.61784 49.875 8.0918L 49.875 13L 48.6035 13L 48.6035 8.15332C 48.6035 7.0778 48.0771 6.54004 47.0244 6.54004C 46.195 6.54004 45.6276 6.89323 45.3223 7.59961L 45.3223 13L 44.0576 13L 44.0576 5.60352L 45.2539 5.60352ZM 59.4111 13.1367C 58.4085 13.1367 57.5928 12.8086 56.9639 12.1523C 56.335 11.4915 56.0205 10.6097 56.0205 9.50684L 56.0205 9.27441C 56.0205 8.54069 56.1595 7.88672 56.4375 7.3125C 56.7201 6.73372 57.112 6.28255 57.6133 5.95898C 58.1191 5.63086 58.666 5.4668 59.2539 5.4668C 60.2155 5.4668 60.9629 5.78353 61.4961 6.41699C 62.0293 7.05046 62.2959 7.95736 62.2959 9.1377L 62.2959 9.66406L 57.2852 9.66406C 57.3034 10.3932 57.5153 10.9834 57.9209 11.4346C 58.3311 11.8812 58.8506 12.1045 59.4795 12.1045C 59.9261 12.1045 60.3044 12.0133 60.6143 11.8311C 60.9242 11.6488 61.1953 11.4072 61.4277 11.1064L 62.2002 11.708C 61.5804 12.6605 60.6507 13.1367 59.4111 13.1367ZM 59.2539 6.50586C 58.7435 6.50586 58.3151 6.69271 57.9688 7.06641C 57.6224 7.43555 57.4082 7.95508 57.3262 8.625L 61.0312 8.625L 61.0312 8.5293C 60.9948 7.88672 60.8216 7.38997 60.5117 7.03906C 60.2018 6.68359 59.7826 6.50586 59.2539 6.50586Z" transform="translate(48.7617 61.8159)" fill="#212D30"/>
</g>
<g id="If condition">
<path d="M 2.19727 10L 1.07227 10L 1.07227 1.46875L 2.19727 1.46875L 2.19727 10ZM 4.62305 10L 4.62305 4.49805L 3.62109 4.49805L 3.62109 3.66016L 4.62305 3.66016L 4.62305 3.00977C 4.62305 2.33008 4.80469 1.80469 5.16797 1.43359C 5.53125 1.0625 6.04492 0.876953 6.70898 0.876953C 6.95898 0.876953 7.20703 0.910156 7.45312 0.976562L 7.39453 1.85547C 7.21094 1.82031 7.01562 1.80273 6.80859 1.80273C 6.45703 1.80273 6.18555 1.90625 5.99414 2.11328C 5.80273 2.31641 5.70703 2.60938 5.70703 2.99219L 5.70703 3.66016L 7.06055 3.66016L 7.06055 4.49805L 5.70703 4.49805L 5.70703 10L 4.62305 10ZM 13.7812 9.23242C 14.168 9.23242 14.5059 9.11523 14.7949 8.88086C 15.084 8.64648 15.2441 8.35352 15.2754 8.00195L 16.3008 8.00195C 16.2812 8.36523 16.1562 8.71094 15.9258 9.03906C 15.6953 9.36719 15.3867 9.62891 15 9.82422C 14.6172 10.0195 14.2109 10.1172 13.7812 10.1172C 12.918 10.1172 12.2305 9.83008 11.7188 9.25586C 11.2109 8.67773 10.957 7.88867 10.957 6.88867L 10.957 6.70703C 10.957 6.08984 11.0703 5.54102 11.2969 5.06055C 11.5234 4.58008 11.8477 4.20703 12.2695 3.94141C 12.6953 3.67578 13.1973 3.54297 13.7754 3.54297C 14.4863 3.54297 15.0762 3.75586 15.5449 4.18164C 16.0176 4.60742 16.2695 5.16016 16.3008 5.83984L 15.2754 5.83984C 15.2441 5.42969 15.0879 5.09375 14.8066 4.83203C 14.5293 4.56641 14.1855 4.43359 13.7754 4.43359C 13.2246 4.43359 12.7969 4.63281 12.4922 5.03125C 12.1914 5.42578 12.041 5.99805 12.041 6.74805L 12.041 6.95312C 12.041 7.68359 12.1914 8.24609 12.4922 8.64062C 12.793 9.03516 13.2227 9.23242 13.7812 9.23242ZM 17.2324 6.77148C 17.2324 6.15039 17.3535 5.5918 17.5957 5.0957C 17.8418 4.59961 18.1816 4.2168 18.6152 3.94727C 19.0527 3.67773 19.5508 3.54297 20.1094 3.54297C 20.9727 3.54297 21.6699 3.8418 22.2012 4.43945C 22.7363 5.03711 23.0039 5.83203 23.0039 6.82422L 23.0039 6.90039C 23.0039 7.51758 22.8848 8.07227 22.6465 8.56445C 22.4121 9.05273 22.0742 9.43359 21.6328 9.70703C 21.1953 9.98047 20.6914 10.1172 20.1211 10.1172C 19.2617 10.1172 18.5645 9.81836 18.0293 9.2207C 17.498 8.62305 17.2324 7.83203 17.2324 6.84766L 17.2324 6.77148ZM 18.3223 6.90039C 18.3223 7.60352 18.4844 8.16797 18.8086 8.59375C 19.1367 9.01953 19.5742 9.23242 20.1211 9.23242C 20.6719 9.23242 21.1094 9.01758 21.4336 8.58789C 21.7578 8.1543 21.9199 7.54883 21.9199 6.77148C 21.9199 6.07617 21.7539 5.51367 21.4219 5.08398C 21.0938 4.65039 20.6562 4.43359 20.1094 4.43359C 19.5742 4.43359 19.1426 4.64648 18.8145 5.07227C 18.4863 5.49805 18.3223 6.10742 18.3223 6.90039ZM 25.3887 3.66016L 25.4238 4.45703C 25.9082 3.84766 26.541 3.54297 27.3223 3.54297C 28.6621 3.54297 29.3379 4.29883 29.3496 5.81055L 29.3496 10L 28.2656 10L 28.2656 5.80469C 28.2617 5.34766 28.1562 5.00977 27.9492 4.79102C 27.7461 4.57227 27.4277 4.46289 26.9941 4.46289C 26.6426 4.46289 26.334 4.55664 26.0684 4.74414C 25.8027 4.93164 25.5957 5.17773 25.4473 5.48242L 25.4473 10L 24.3633 10L 24.3633 3.66016L 25.3887 3.66016ZM 30.7207 6.77734C 30.7207 5.80469 30.9512 5.02344 31.4121 4.43359C 31.873 3.83984 32.4766 3.54297 33.2227 3.54297C 33.9648 3.54297 34.5527 3.79687 34.9863 4.30469L 34.9863 1L 36.0703 1L 36.0703 10L 35.0742 10L 35.0215 9.32031C 34.5879 9.85156 33.9844 10.1172 33.2109 10.1172C 32.4766 10.1172 31.877 9.81641 31.4121 9.21484C 30.9512 8.61328 30.7207 7.82812 30.7207 6.85938L 30.7207 6.77734ZM 31.8047 6.90039C 31.8047 7.61914 31.9531 8.18164 32.25 8.58789C 32.5469 8.99414 32.957 9.19727 33.4805 9.19727C 34.168 9.19727 34.6699 8.88867 34.9863 8.27148L 34.9863 5.35938C 34.6621 4.76172 34.1641 4.46289 33.4922 4.46289C 32.9609 4.46289 32.5469 4.66797 32.25 5.07812C 31.9531 5.48828 31.8047 6.0957 31.8047 6.90039ZM 38.9355 10L 37.8516 10L 37.8516 3.66016L 38.9355 3.66016L 38.9355 10ZM 37.7637 1.97852C 37.7637 1.80273 37.8164 1.6543 37.9219 1.5332C 38.0312 1.41211 38.1914 1.35156 38.4023 1.35156C 38.6133 1.35156 38.7734 1.41211 38.8828 1.5332C 38.9922 1.6543 39.0469 1.80273 39.0469 1.97852C 39.0469 2.1543 38.9922 2.30078 38.8828 2.41797C 38.7734 2.53516 38.6133 2.59375 38.4023 2.59375C 38.1914 2.59375 38.0312 2.53516 37.9219 2.41797C 37.8164 2.30078 37.7637 2.1543 37.7637 1.97852ZM 42.1465 2.125L 42.1465 3.66016L 43.3301 3.66016L 43.3301 4.49805L 42.1465 4.49805L 42.1465 8.42969C 42.1465 8.68359 42.1992 8.875 42.3047 9.00391C 42.4102 9.12891 42.5898 9.19141 42.8438 9.19141C 42.9688 9.19141 43.1406 9.16797 43.3594 9.12109L 43.3594 10C 43.0742 10.0781 42.7969 10.1172 42.5273 10.1172C 42.043 10.1172 41.6777 9.9707 41.4316 9.67773C 41.1855 9.38477 41.0625 8.96875 41.0625 8.42969L 41.0625 4.49805L 39.9082 4.49805L 39.9082 3.66016L 41.0625 3.66016L 41.0625 2.125L 42.1465 2.125ZM 45.7793 10L 44.6953 10L 44.6953 3.66016L 45.7793 3.66016L 45.7793 10ZM 44.6074 1.97852C 44.6074 1.80273 44.6602 1.6543 44.7656 1.5332C 44.875 1.41211 45.0352 1.35156 45.2461 1.35156C 45.457 1.35156 45.6172 1.41211 45.7266 1.5332C 45.8359 1.6543 45.8906 1.80273 45.8906 1.97852C 45.8906 2.1543 45.8359 2.30078 45.7266 2.41797C 45.6172 2.53516 45.457 2.59375 45.2461 2.59375C 45.0352 2.59375 44.875 2.53516 44.7656 2.41797C 44.6602 2.30078 44.6074 2.1543 44.6074 1.97852ZM 47.2324 6.77148C 47.2324 6.15039 47.3535 5.5918 47.5957 5.0957C 47.8418 4.59961 48.1816 4.2168 48.6152 3.94727C 49.0527 3.67773 49.5508 3.54297 50.1094 3.54297C 50.9727 3.54297 51.6699 3.8418 52.2012 4.43945C 52.7363 5.03711 53.0039 5.83203 53.0039 6.82422L 53.0039 6.90039C 53.0039 7.51758 52.8848 8.07227 52.6465 8.56445C 52.4121 9.05273 52.0742 9.43359 51.6328 9.70703C 51.1953 9.98047 50.6914 10.1172 50.1211 10.1172C 49.2617 10.1172 48.5645 9.81836 48.0293 9.2207C 47.498 8.62305 47.2324 7.83203 47.2324 6.84766L 47.2324 6.77148ZM 48.3223 6.90039C 48.3223 7.60352 48.4844 8.16797 48.8086 8.59375C 49.1367 9.01953 49.5742 9.23242 50.1211 9.23242C 50.6719 9.23242 51.1094 9.01758 51.4336 8.58789C 51.7578 8.1543 51.9199 7.54883 51.9199 6.77148C 51.9199 6.07617 51.7539 5.51367 51.4219 5.08398C 51.0938 4.65039 50.6562 4.43359 50.1094 4.43359C 49.5742 4.43359 49.1426 4.64648 48.8145 5.07227C 48.4863 5.49805 48.3223 6.10742 48.3223 6.90039ZM 55.3887 3.66016L 55.4238 4.45703C 55.9082 3.84766 56.541 3.54297 57.3223 3.54297C 58.6621 3.54297 59.3379 4.29883 59.3496 5.81055L 59.3496 10L 58.2656 10L 58.2656 5.80469C 58.2617 5.34766 58.1562 5.00977 57.9492 4.79102C 57.7461 4.57227 57.4277 4.46289 56.9941 4.46289C 56.6426 4.46289 56.334 4.55664 56.0684 4.74414C 55.8027 4.93164 55.5957 5.17773 55.4473 5.48242L 55.4473 10L 54.3633 10L 54.3633 3.66016L 55.3887 3.66016Z" transform="translate(36 36.8159)" fill="#78909C"/>
</g>
<g id="1 minute">
<path d="M 4.9834 13L 3.71191 13L 3.71191 4.57129L 1.16211 5.50781L 1.16211 4.35938L 4.78516 2.99902L 4.9834 2.99902L 4.9834 13ZM 13.4805 5.60352L 13.5146 6.42383C 14.057 5.78581 14.7884 5.4668 15.709 5.4668C 16.7435 5.4668 17.4476 5.86328 17.8213 6.65625C 18.0674 6.30078 18.3864 6.01367 18.7783 5.79492C 19.1748 5.57617 19.6419 5.4668 20.1797 5.4668C 21.8021 5.4668 22.627 6.32585 22.6543 8.04395L 22.6543 13L 21.3896 13L 21.3896 8.11914C 21.3896 7.59049 21.2689 7.19629 21.0273 6.93652C 20.7858 6.6722 20.3802 6.54004 19.8105 6.54004C 19.3411 6.54004 18.9515 6.68132 18.6416 6.96387C 18.3317 7.24186 18.1517 7.61784 18.1016 8.0918L 18.1016 13L 16.8301 13L 16.8301 8.15332C 16.8301 7.0778 16.3037 6.54004 15.251 6.54004C 14.4215 6.54004 13.8542 6.89323 13.5488 7.59961L 13.5488 13L 12.2842 13L 12.2842 5.60352L 13.4805 5.60352ZM 25.9424 13L 24.6777 13L 24.6777 5.60352L 25.9424 5.60352L 25.9424 13ZM 24.5752 3.6416C 24.5752 3.43652 24.6367 3.26335 24.7598 3.12207C 24.8874 2.98079 25.0742 2.91016 25.3203 2.91016C 25.5664 2.91016 25.7533 2.98079 25.8809 3.12207C 26.0085 3.26335 26.0723 3.43652 26.0723 3.6416C 26.0723 3.84668 26.0085 4.01758 25.8809 4.1543C 25.7533 4.29102 25.5664 4.35938 25.3203 4.35938C 25.0742 4.35938 24.8874 4.29102 24.7598 4.1543C 24.6367 4.01758 24.5752 3.84668 24.5752 3.6416ZM 29.1689 5.60352L 29.21 6.5332C 29.7751 5.82227 30.5133 5.4668 31.4248 5.4668C 32.988 5.4668 33.7764 6.34863 33.79 8.1123L 33.79 13L 32.5254 13L 32.5254 8.10547C 32.5208 7.57227 32.3978 7.17806 32.1562 6.92285C 31.9193 6.66764 31.5479 6.54004 31.042 6.54004C 30.6318 6.54004 30.2718 6.64941 29.9619 6.86816C 29.652 7.08691 29.4105 7.37402 29.2373 7.72949L 29.2373 13L 27.9727 13L 27.9727 5.60352L 29.1689 5.60352ZM 40.2637 12.2686C 39.7715 12.8473 39.0492 13.1367 38.0967 13.1367C 37.3083 13.1367 36.7067 12.9089 36.292 12.4531C 35.8818 11.9928 35.6745 11.3138 35.6699 10.416L 35.6699 5.60352L 36.9346 5.60352L 36.9346 10.3818C 36.9346 11.5029 37.3903 12.0635 38.3018 12.0635C 39.2679 12.0635 39.9105 11.7035 40.2295 10.9834L 40.2295 5.60352L 41.4941 5.60352L 41.4941 13L 40.291 13L 40.2637 12.2686ZM 45.1377 3.8125L 45.1377 5.60352L 46.5186 5.60352L 46.5186 6.58105L 45.1377 6.58105L 45.1377 11.168C 45.1377 11.4642 45.1992 11.6875 45.3223 11.8379C 45.4453 11.9837 45.6549 12.0566 45.9512 12.0566C 46.097 12.0566 46.2975 12.0293 46.5527 11.9746L 46.5527 13C 46.2201 13.0911 45.8965 13.1367 45.582 13.1367C 45.0169 13.1367 44.5908 12.9658 44.3037 12.624C 44.0166 12.2822 43.873 11.7969 43.873 11.168L 43.873 6.58105L 42.5264 6.58105L 42.5264 5.60352L 43.873 5.60352L 43.873 3.8125L 45.1377 3.8125ZM 51.0713 13.1367C 50.0687 13.1367 49.2529 12.8086 48.624 12.1523C 47.9951 11.4915 47.6807 10.6097 47.6807 9.50684L 47.6807 9.27441C 47.6807 8.54069 47.8197 7.88672 48.0977 7.3125C 48.3802 6.73372 48.7721 6.28255 49.2734 5.95898C 49.7793 5.63086 50.3262 5.4668 50.9141 5.4668C 51.8757 5.4668 52.623 5.78353 53.1562 6.41699C 53.6895 7.05046 53.9561 7.95736 53.9561 9.1377L 53.9561 9.66406L 48.9453 9.66406C 48.9635 10.3932 49.1755 10.9834 49.5811 11.4346C 49.9912 11.8812 50.5107 12.1045 51.1396 12.1045C 51.5863 12.1045 51.9645 12.0133 52.2744 11.8311C 52.5843 11.6488 52.8555 11.4072 53.0879 11.1064L 53.8604 11.708C 53.2406 12.6605 52.3109 13.1367 51.0713 13.1367ZM 50.9141 6.50586C 50.4036 6.50586 49.9753 6.69271 49.6289 7.06641C 49.2826 7.43555 49.0684 7.95508 48.9863 8.625L 52.6914 8.625L 52.6914 8.5293C 52.6549 7.88672 52.4818 7.38997 52.1719 7.03906C 51.862 6.68359 51.4427 6.50586 50.9141 6.50586Z" transform="translate(184.964 126.816)" fill="#212D30"/>
</g>
<g id="Value">
<path d="M 3.81445 8.50586L 6.25195 1.46875L 7.48242 1.46875L 4.31836 10L 3.32227 10L 0.164062 1.46875L 1.38867 1.46875L 3.81445 8.50586ZM 12.1055 10C 12.043 9.875 11.9922 9.65234 11.9531 9.33203C 11.4492 9.85547 10.8477 10.1172 10.1484 10.1172C 9.52344 10.1172 9.00977 9.94141 8.60742 9.58984C 8.20898 9.23438 8.00977 8.78516 8.00977 8.24219C 8.00977 7.58203 8.25977 7.07031 8.75977 6.70703C 9.26367 6.33984 9.9707 6.15625 10.8809 6.15625L 11.9355 6.15625L 11.9355 5.6582C 11.9355 5.2793 11.8223 4.97852 11.5957 4.75586C 11.3691 4.5293 11.0352 4.41602 10.5938 4.41602C 10.207 4.41602 9.88281 4.51367 9.62109 4.70898C 9.35938 4.9043 9.22852 5.14062 9.22852 5.41797L 8.13867 5.41797C 8.13867 5.10156 8.25 4.79688 8.47266 4.50391C 8.69922 4.20703 9.00391 3.97266 9.38672 3.80078C 9.77344 3.62891 10.1973 3.54297 10.6582 3.54297C 11.3887 3.54297 11.9609 3.72656 12.375 4.09375C 12.7891 4.45703 13.0039 4.95898 13.0195 5.59961L 13.0195 8.51758C 13.0195 9.09961 13.0938 9.5625 13.2422 9.90625L 13.2422 10L 12.1055 10ZM 10.3066 9.17383C 10.6465 9.17383 10.9688 9.08594 11.2734 8.91016C 11.5781 8.73438 11.7988 8.50586 11.9355 8.22461L 11.9355 6.92383L 11.0859 6.92383C 9.75781 6.92383 9.09375 7.3125 9.09375 8.08984C 9.09375 8.42969 9.20703 8.69531 9.43359 8.88672C 9.66016 9.07812 9.95117 9.17383 10.3066 9.17383ZM 15.8965 10L 14.8125 10L 14.8125 1L 15.8965 1L 15.8965 10ZM 21.5508 9.37305C 21.1289 9.86914 20.5098 10.1172 19.6934 10.1172C 19.0176 10.1172 18.502 9.92188 18.1465 9.53125C 17.7949 9.13672 17.6172 8.55469 17.6133 7.78516L 17.6133 3.66016L 18.6973 3.66016L 18.6973 7.75586C 18.6973 8.7168 19.0879 9.19727 19.8691 9.19727C 20.6973 9.19727 21.248 8.88867 21.5215 8.27148L 21.5215 3.66016L 22.6055 3.66016L 22.6055 10L 21.5742 10L 21.5508 9.37305ZM 26.8887 10.1172C 26.0293 10.1172 25.3301 9.83594 24.791 9.27344C 24.252 8.70703 23.9824 7.95117 23.9824 7.00586L 23.9824 6.80664C 23.9824 6.17773 24.1016 5.61719 24.3398 5.125C 24.582 4.62891 24.918 4.24219 25.3477 3.96484C 25.7812 3.68359 26.25 3.54297 26.7539 3.54297C 27.5781 3.54297 28.2188 3.81445 28.6758 4.35742C 29.1328 4.90039 29.3613 5.67773 29.3613 6.68945L 29.3613 7.14062L 25.0664 7.14062C 25.082 7.76562 25.2637 8.27148 25.6113 8.6582C 25.9629 9.04102 26.4082 9.23242 26.9473 9.23242C 27.3301 9.23242 27.6543 9.1543 27.9199 8.99805C 28.1855 8.8418 28.418 8.63477 28.6172 8.37695L 29.2793 8.89258C 28.748 9.70898 27.9512 10.1172 26.8887 10.1172ZM 26.7539 4.43359C 26.3164 4.43359 25.9492 4.59375 25.6523 4.91406C 25.3555 5.23047 25.1719 5.67578 25.1016 6.25L 28.2773 6.25L 28.2773 6.16797C 28.2461 5.61719 28.0977 5.19141 27.832 4.89062C 27.5664 4.58594 27.207 4.43359 26.7539 4.43359Z" transform="translate(175.583 101.816)" fill="#78909C"/>
</g>
<g id="Group 7.4">
<g id="Rectangle 10">
<rect width="127.619" height="32" rx="6" transform="translate(36 118.816)" fill="#F7F7F7"/>
</g>
<g id="Group 6">
<g id="plus-icon">
<g id="Group">
<g id="Rectangle 2.1">
<rect width="16" height="16" rx="4" transform="translate(43.1787 126.816)" fill="#D5E2E8"/>
</g>
<g id="Rectangle 3">
<rect width="2" height="8" rx="1" transform="matrix(0 -1 1 0 47.1787 137.816)" fill="#78909C"/>
</g>
<g id="Rectangle 3.1">
<rect width="2" height="8" rx="1" transform="matrix(0 -1 1 0 47.1787 133.816)" fill="#78909C"/>
</g>
</g>
</g>
</g>
<g id="Equal">
<path d="M 6.78125 8.39941L 2.46777 8.39941L 2.46777 11.9268L 7.47852 11.9268L 7.47852 13L 1.15527 13L 1.15527 3.04688L 7.41016 3.04688L 7.41016 4.12695L 2.46777 4.12695L 2.46777 7.32617L 6.78125 7.32617L 6.78125 8.39941ZM 8.46973 9.24023C 8.46973 8.07812 8.73633 7.15983 9.26953 6.48535C 9.80273 5.80632 10.5182 5.4668 11.416 5.4668C 12.291 5.4668 12.9814 5.76074 13.4873 6.34863L 13.542 5.60352L 14.7041 5.60352L 14.7041 15.8438L 13.4395 15.8438L 13.4395 12.3164C 12.929 12.8633 12.25 13.1367 11.4023 13.1367C 10.5091 13.1367 9.7959 12.7904 9.2627 12.0977C 8.73405 11.4004 8.46973 10.4775 8.46973 9.3291L 8.46973 9.24023ZM 9.73438 9.38379C 9.73438 10.2314 9.91211 10.8968 10.2676 11.3799C 10.6276 11.863 11.1107 12.1045 11.7168 12.1045C 12.4688 12.1045 13.043 11.7718 13.4395 11.1064L 13.4395 7.4834C 13.0384 6.83171 12.4688 6.50586 11.7305 6.50586C 11.1198 6.50586 10.6344 6.74967 10.2744 7.2373C 9.91439 7.72038 9.73438 8.43587 9.73438 9.38379ZM 21.3008 12.2686C 20.8086 12.8473 20.0863 13.1367 19.1338 13.1367C 18.3454 13.1367 17.7438 12.9089 17.3291 12.4531C 16.9189 11.9928 16.7116 11.3138 16.707 10.416L 16.707 5.60352L 17.9717 5.60352L 17.9717 10.3818C 17.9717 11.5029 18.4274 12.0635 19.3389 12.0635C 20.305 12.0635 20.9476 11.7035 21.2666 10.9834L 21.2666 5.60352L 22.5312 5.60352L 22.5312 13L 21.3281 13L 21.3008 12.2686ZM 29.0254 13C 28.9525 12.8542 28.8932 12.5944 28.8477 12.2207C 28.2598 12.8314 27.5579 13.1367 26.7422 13.1367C 26.013 13.1367 25.4137 12.9316 24.9443 12.5215C 24.4795 12.1068 24.2471 11.5827 24.2471 10.9492C 24.2471 10.179 24.5387 9.58203 25.1221 9.1582C 25.71 8.72982 26.5348 8.51562 27.5967 8.51562L 28.8271 8.51562L 28.8271 7.93457C 28.8271 7.49251 28.695 7.1416 28.4307 6.88184C 28.1663 6.61751 27.7767 6.48535 27.2617 6.48535C 26.8105 6.48535 26.4323 6.59928 26.127 6.82715C 25.8216 7.05501 25.6689 7.33073 25.6689 7.6543L 24.3975 7.6543C 24.3975 7.28516 24.5273 6.92969 24.7871 6.58789C 25.0514 6.24154 25.4069 5.9681 25.8535 5.76758C 26.3047 5.56706 26.7992 5.4668 27.3369 5.4668C 28.1891 5.4668 28.8568 5.68099 29.3398 6.10938C 29.8229 6.5332 30.0736 7.11882 30.0918 7.86621L 30.0918 11.2705C 30.0918 11.9495 30.1784 12.4896 30.3516 12.8906L 30.3516 13L 29.0254 13ZM 26.9268 12.0361C 27.3232 12.0361 27.6992 11.9336 28.0547 11.7285C 28.4102 11.5234 28.6676 11.2568 28.8271 10.9287L 28.8271 9.41113L 27.8359 9.41113C 26.2865 9.41113 25.5117 9.86458 25.5117 10.7715C 25.5117 11.168 25.6439 11.4779 25.9082 11.7012C 26.1725 11.9245 26.512 12.0361 26.9268 12.0361ZM 33.4482 13L 32.1836 13L 32.1836 2.5L 33.4482 2.5L 33.4482 13Z" transform="translate(65 126.816)" fill="#78909C"/>
</g>
<g id="Vector">
<path d="M 2.79167 4L 5.18452 0L 0 0L 2.79167 4Z" transform="translate(151.654 133.816)" fill="#78909C"/>
</g>
</g>
<g id="Is">
<path d="M 2.19727 10L 1.07227 10L 1.07227 1.46875L 2.19727 1.46875L 2.19727 10ZM 7.78125 8.31836C 7.78125 8.02539 7.66992 7.79883 7.44727 7.63867C 7.22852 7.47461 6.84375 7.33398 6.29297 7.2168C 5.74609 7.09961 5.31055 6.95898 4.98633 6.79492C 4.66602 6.63086 4.42773 6.43555 4.27148 6.20898C 4.11914 5.98242 4.04297 5.71289 4.04297 5.40039C 4.04297 4.88086 4.26172 4.44141 4.69922 4.08203C 5.14062 3.72266 5.70312 3.54297 6.38672 3.54297C 7.10547 3.54297 7.6875 3.72852 8.13281 4.09961C 8.58203 4.4707 8.80664 4.94531 8.80664 5.52344L 7.7168 5.52344C 7.7168 5.22656 7.58984 4.9707 7.33594 4.75586C 7.08594 4.54102 6.76953 4.43359 6.38672 4.43359C 5.99219 4.43359 5.68359 4.51953 5.46094 4.69141C 5.23828 4.86328 5.12695 5.08789 5.12695 5.36523C 5.12695 5.62695 5.23047 5.82422 5.4375 5.95703C 5.64453 6.08984 6.01758 6.2168 6.55664 6.33789C 7.09961 6.45898 7.53906 6.60352 7.875 6.77148C 8.21094 6.93945 8.45898 7.14258 8.61914 7.38086C 8.7832 7.61523 8.86523 7.90234 8.86523 8.24219C 8.86523 8.80859 8.63867 9.26367 8.18555 9.60742C 7.73242 9.94727 7.14453 10.1172 6.42188 10.1172C 5.91406 10.1172 5.46484 10.0273 5.07422 9.84766C 4.68359 9.66797 4.37695 9.41797 4.1543 9.09766C 3.93555 8.77344 3.82617 8.42383 3.82617 8.04883L 4.91016 8.04883C 4.92969 8.41211 5.07422 8.70117 5.34375 8.91602C 5.61719 9.12695 5.97656 9.23242 6.42188 9.23242C 6.83203 9.23242 7.16016 9.15039 7.40625 8.98633C 7.65625 8.81836 7.78125 8.5957 7.78125 8.31836Z" transform="translate(37.5957 102.816)" fill="#78909C"/>
</g>
</g>
</g>
</g>
<defs>
<filter id="filter0_d" x="0" y="0.815918" width="340" height="194" filterUnits="userSpaceOnUse" color-interpolation-filters="sRGB">
<feFlood flood-opacity="0" result="BackgroundImageFix"/>
<feColorMatrix in="SourceAlpha" type="matrix" values="0 0 0 0 0 0 0 0 0 0 0 0 0 0 0 0 0 0 255 0"/>
<feOffset dy="4"/>
<feGaussianBlur stdDeviation="10"/>
<feColorMatrix type="matrix" values="0 0 0 0 0 0 0 0 0 0 0 0 0 0 0 0 0 0 0.1 0"/>
<feBlend mode="normal" in2="BackgroundImageFix" result="effect1_dropShadow"/>
<feBlend mode="normal" in="SourceGraphic" in2="effect1_dropShadow" result="shape"/>
</filter>

</defs>
</svg>

