<svg width="19" height="24" viewBox="0 0 19 24" version="1.1" xmlns="http://www.w3.org/2000/svg" xmlns:xlink="http://www.w3.org/1999/xlink">
<g id="Canvas" fill="none">
<g id="Union">
<path fill-rule="evenodd" clip-rule="evenodd" d="M 17.5381 0C 18.0479 0 18.4609 0.41333 18.4609 0.923096L 18.4609 23.0769C 18.4609 23.5867 18.0479 24 17.5381 24C 17.0283 24 16.6152 23.5867 16.6152 23.0769L 16.6152 0.923096C 16.6152 0.41333 17.0283 0 17.5381 0ZM 9.23047 8.30774C 9.74023 8.30774 10.1533 8.72107 10.1533 9.23083L 10.1533 23.077C 10.1533 23.5868 9.74023 24 9.23047 24C 8.7207 24 8.30762 23.5868 8.30762 23.077L 8.30762 9.23083C 8.30762 8.72107 8.7207 8.30774 9.23047 8.30774ZM 1.8457 17.5385C 1.8457 17.0287 1.43262 16.6154 0.922852 16.6154C 0.413086 16.6154 0 17.0287 0 17.5385L 0 23.0769C 0 23.5867 0.413086 24 0.922852 24C 1.43262 24 1.8457 23.5867 1.8457 23.0769L 1.8457 17.5385Z" fill="#FEA729"/>
</g>
</g>
</svg>

