<svg width="340" height="195" viewBox="0 0 340 195" version="1.1" xmlns="http://www.w3.org/2000/svg" xmlns:xlink="http://www.w3.org/1999/xlink">
<g id="Canvas" fill="none">
<g id="Union" filter="url(#filter0_d)">
<path fill-rule="evenodd" clip-rule="evenodd" d="M 6 0.5C 2.96243 0.5 0.5 2.96243 0.5 6L 0.5 148C 0.5 151.038 2.96243 153.5 6 153.5L 294 153.5C 297.038 153.5 299.5 151.038 299.5 148L 299.5 6C 299.5 2.96243 297.038 0.5 294 0.5L 6 0.5Z" transform="translate(20 14.8159)" fill="white"/>
<path fill-rule="evenodd" clip-rule="evenodd" d="M 6 0.5C 2.96243 0.5 0.5 2.96243 0.5 6L 0.5 148C 0.5 151.038 2.96243 153.5 6 153.5L 294 153.5C 297.038 153.5 299.5 151.038 299.5 148L 299.5 6C 299.5 2.96243 297.038 0.5 294 0.5L 6 0.5Z" stroke-miterlimit="8" transform="translate(20 14.8159)" stroke="#D5E2E8"/>
</g>
</g>
<defs>
<filter id="filter0_d" x="0" y="0.815918" width="340" height="194" filterUnits="userSpaceOnUse" color-interpolation-filters="sRGB">
<feFlood flood-opacity="0" result="BackgroundImageFix"/>
<feColorMatrix in="SourceAlpha" type="matrix" values="0 0 0 0 0 0 0 0 0 0 0 0 0 0 0 0 0 0 255 0"/>
<feOffset dy="6"/>
<feGaussianBlur stdDeviation="10"/>
<feColorMatrix type="matrix" values="0 0 0 0 0 0 0 0 0 0 0 0 0 0 0 0 0 0 0.1 0"/>
<feBlend mode="normal" in2="BackgroundImageFix" result="effect1_dropShadow"/>
<feBlend mode="normal" in="SourceGraphic" in2="effect1_dropShadow" result="shape"/>
</filter>

</defs>
</svg>

