<svg width="29" height="24" viewBox="0 0 29 24" version="1.1" xmlns="http://www.w3.org/2000/svg" xmlns:xlink="http://www.w3.org/1999/xlink">
<g id="Canvas" fill="none">
<g id="sliders">
<g id="Vector (Stroke)">
<path fill-rule="evenodd" clip-rule="evenodd" d="M 0.923076 0C 1.43288 0 1.84615 0.413275 1.84615 0.923076L 1.84615 9.53846C 1.84615 10.0483 1.43288 10.4615 0.923076 10.4615C 0.413275 10.4615 0 10.0483 0 9.53846L 0 0.923076C 0 0.413275 0.413275 0 0.923076 0Z" transform="translate(3.625 13.5385)" fill="#FEA729"/>
</g>
<g id="Vector (Stroke)_2">
<path fill-rule="evenodd" clip-rule="evenodd" d="M 0.923076 0C 1.43288 0 1.84615 0.413275 1.84615 0.923076L 1.84615 9.53846C 1.84615 10.0483 1.43288 10.4615 0.923076 10.4615C 0.413275 10.4615 0 10.0483 0 9.53846L 0 0.923076C 0 0.413275 0.413275 0 0.923076 0Z" transform="translate(3.625 0)" fill="#FEA729"/>
</g>
<g id="Vector (Stroke)_3">
<path fill-rule="evenodd" clip-rule="evenodd" d="M 0.923076 0C 1.43288 0 1.84615 0.413275 1.84615 0.923076L 1.84615 12C 1.84615 12.5098 1.43288 12.9231 0.923076 12.9231C 0.413275 12.9231 0 12.5098 0 12L 0 0.923076C 0 0.413275 0.413275 0 0.923076 0Z" transform="translate(13.292 11.0768)" fill="#FEA729"/>
</g>
<g id="Vector (Stroke)_4">
<path fill-rule="evenodd" clip-rule="evenodd" d="M 0.923076 0C 1.43288 0 1.84615 0.413275 1.84615 0.923076L 1.84615 7.07692C 1.84615 7.58672 1.43288 7.99999 0.923076 7.99999C 0.413275 7.99999 0 7.58672 0 7.07692L 0 0.923076C 0 0.413275 0.413275 0 0.923076 0Z" transform="translate(13.292 0)" fill="#FEA729"/>
</g>
<g id="Vector (Stroke)_5">
<path fill-rule="evenodd" clip-rule="evenodd" d="M 0.923076 0C 1.43288 0 1.84615 0.413275 1.84615 0.923076L 1.84615 7.07692C 1.84615 7.58672 1.43288 7.99999 0.923076 7.99999C 0.413275 7.99999 0 7.58672 0 7.07692L 0 0.923076C 0 0.413275 0.413275 0 0.923076 0Z" transform="translate(22.959 16)" fill="#FEA729"/>
</g>
<g id="Vector (Stroke)_6">
<path fill-rule="evenodd" clip-rule="evenodd" d="M 0.923076 0C 1.43288 0 1.84615 0.413275 1.84615 0.923076L 1.84615 12C 1.84615 12.5098 1.43288 12.9231 0.923076 12.9231C 0.413275 12.9231 0 12.5098 0 12L 0 0.923076C 0 0.413275 0.413275 0 0.923076 0Z" transform="translate(22.959 0)" fill="#FEA729"/>
</g>
<g id="Vector (Stroke)_7">
<path fill-rule="evenodd" clip-rule="evenodd" d="M 0 0.923076C 0 0.413275 0.413275 0 0.923076 0L 8.17342 0C 8.68322 0 9.0965 0.413275 9.0965 0.923076C 9.0965 1.43288 8.68322 1.84615 8.17342 1.84615L 0.923076 1.84615C 0.413275 1.84615 0 1.43288 0 0.923076Z" transform="translate(0 13.5385)" fill="#FEA729"/>
</g>
<g id="Vector (Stroke)_8">
<path fill-rule="evenodd" clip-rule="evenodd" d="M 0 0.923076C 0 0.413275 0.413275 0 0.923076 0L 8.17342 0C 8.68322 0 9.0965 0.413275 9.0965 0.923076C 9.0965 1.43288 8.68322 1.84615 8.17342 1.84615L 0.923076 1.84615C 0.413275 1.84615 0 1.43288 0 0.923076Z" transform="translate(9.66699 6.15369)" fill="#FEA729"/>
</g>
<g id="Vector (Stroke)_9">
<path fill-rule="evenodd" clip-rule="evenodd" d="M 0 0.923076C 0 0.413275 0.413275 0 0.923076 0L 8.17342 0C 8.68322 0 9.0965 0.413275 9.0965 0.923076C 9.0965 1.43288 8.68322 1.84615 8.17342 1.84615L 0.923076 1.84615C 0.413275 1.84615 0 1.43288 0 0.923076Z" transform="translate(19.334 16)" fill="#FEA729"/>
</g>
</g>
</g>
</svg>

