<svg width="340" height="195" viewBox="0 0 340 195" version="1.1" xmlns="http://www.w3.org/2000/svg" xmlns:xlink="http://www.w3.org/1999/xlink">
<g id="Canvas" fill="none">
<g id="Group 11.3" filter="url(#filter0_d)">
<g id="Group 4">
<g id="Group">
<g id="Rectangle">
<rect width="300" height="154" rx="4" transform="translate(20 16.8159)" fill="#60DFBD"/>
</g>
<g id="Rectangle_2">
<rect width="300" height="152.122" rx="4" transform="translate(20 18.6941)" fill="white"/>
<rect x="0.5" y="0.5" width="299" height="151.122" rx="3.5" transform="translate(20 18.6941)" stroke="#D5E2E8"/>
</g>
</g>
<g id="50% discount on first purchases">
<path d="M 1.60938 9.29688L 2.1875 3.625L 8.01562 3.625L 8.01562 4.96094L 3.41406 4.96094L 3.07031 8.0625C 3.6276 7.73438 4.26042 7.57031 4.96875 7.57031C 6.00521 7.57031 6.82812 7.91406 7.4375 8.60156C 8.04688 9.28385 8.35156 10.2083 8.35156 11.375C 8.35156 12.5469 8.03385 13.4714 7.39844 14.1484C 6.76823 14.8203 5.88542 15.1562 4.75 15.1562C 3.74479 15.1562 2.92448 14.8776 2.28906 14.3203C 1.65365 13.763 1.29167 12.9922 1.20312 12.0078L 2.57031 12.0078C 2.65885 12.6589 2.89062 13.151 3.26562 13.4844C 3.64062 13.8125 4.13542 13.9766 4.75 13.9766C 5.42188 13.9766 5.94792 13.7474 6.32812 13.2891C 6.71354 12.8307 6.90625 12.1979 6.90625 11.3906C 6.90625 10.6302 6.69792 10.0208 6.28125 9.5625C 5.86979 9.09896 5.32031 8.86719 4.63281 8.86719C 4.0026 8.86719 3.50781 9.00521 3.14844 9.28125L 2.76562 9.59375L 1.60938 9.29688ZM 17.0625 10.1484C 17.0625 11.8411 16.7734 13.099 16.1953 13.9219C 15.6172 14.7448 14.7135 15.1562 13.4844 15.1562C 12.2708 15.1562 11.3724 14.7552 10.7891 13.9531C 10.2057 13.1458 9.90365 11.9427 9.88281 10.3438L 9.88281 8.41406C 9.88281 6.74219 10.1719 5.5 10.75 4.6875C 11.3281 3.875 12.2344 3.46875 13.4688 3.46875C 14.6927 3.46875 15.5938 3.86198 16.1719 4.64844C 16.75 5.42969 17.0469 6.63802 17.0625 8.27344L 17.0625 10.1484ZM 15.6172 8.17188C 15.6172 6.94792 15.4453 6.05729 15.1016 5.5C 14.7578 4.9375 14.2135 4.65625 13.4688 4.65625C 12.7292 4.65625 12.1901 4.9349 11.8516 5.49219C 11.513 6.04948 11.3385 6.90625 11.3281 8.0625L 11.3281 10.375C 11.3281 11.6042 11.5052 12.513 11.8594 13.1016C 12.2188 13.6849 12.7604 13.9766 13.4844 13.9766C 14.1979 13.9766 14.7266 13.7005 15.0703 13.1484C 15.4193 12.5964 15.6016 11.7266 15.6172 10.5391L 15.6172 8.17188ZM 18.7891 5.8125C 18.7891 5.13021 19.0052 4.56771 19.4375 4.125C 19.875 3.68229 20.4349 3.46094 21.1172 3.46094C 21.8099 3.46094 22.3698 3.6849 22.7969 4.13281C 23.2292 4.57552 23.4453 5.15104 23.4453 5.85938L 23.4453 6.41406C 23.4453 7.10156 23.2266 7.66406 22.7891 8.10156C 22.3568 8.53385 21.8047 8.75 21.1328 8.75C 20.4557 8.75 19.8958 8.53385 19.4531 8.10156C 19.0104 7.66406 18.7891 7.08333 18.7891 6.35938L 18.7891 5.8125ZM 19.8672 6.41406C 19.8672 6.82031 19.9818 7.15625 20.2109 7.42188C 20.4401 7.68229 20.7474 7.8125 21.1328 7.8125C 21.5026 7.8125 21.7995 7.6849 22.0234 7.42969C 22.2526 7.17448 22.3672 6.82552 22.3672 6.38281L 22.3672 5.8125C 22.3672 5.40625 22.2552 5.07031 22.0312 4.80469C 21.8073 4.53906 21.5026 4.40625 21.1172 4.40625C 20.7318 4.40625 20.4271 4.53906 20.2031 4.80469C 19.9792 5.07031 19.8672 5.41667 19.8672 5.84375L 19.8672 6.41406ZM 24.3281 12.2109C 24.3281 11.5286 24.5443 10.9688 24.9766 10.5312C 25.4141 10.0885 25.974 9.86719 26.6562 9.86719C 27.3385 9.86719 27.8984 10.0859 28.3359 10.5234C 28.7734 10.9609 28.9922 11.5417 28.9922 12.2656L 28.9922 12.8203C 28.9922 13.5026 28.7734 14.0651 28.3359 14.5078C 27.9036 14.9453 27.349 15.1641 26.6719 15.1641C 25.9948 15.1641 25.4349 14.9479 24.9922 14.5156C 24.5495 14.0781 24.3281 13.4974 24.3281 12.7734L 24.3281 12.2109ZM 25.4062 12.8203C 25.4062 13.2318 25.5208 13.5703 25.75 13.8359C 25.9792 14.0964 26.2865 14.2266 26.6719 14.2266C 27.0469 14.2266 27.3464 14.099 27.5703 13.8438C 27.7943 13.5833 27.9062 13.2318 27.9062 12.7891L 27.9062 12.2109C 27.9062 11.7995 27.7917 11.4635 27.5625 11.2031C 27.3385 10.9427 27.0365 10.8125 26.6562 10.8125C 26.2865 10.8125 25.9844 10.9427 25.75 11.2031C 25.5208 11.4583 25.4062 11.8047 25.4062 12.2422L 25.4062 12.8203ZM 21.4609 14.1406L 20.6406 13.625L 26.1953 4.73438L 27.0156 5.25L 21.4609 14.1406ZM 34.3984 10.7031C 34.3984 9.40625 34.7057 8.36458 35.3203 7.57812C 35.9349 6.78646 36.7396 6.39062 37.7344 6.39062C 38.724 6.39062 39.5078 6.72917 40.0859 7.40625L 40.0859 3L 41.5312 3L 41.5312 15L 40.2031 15L 40.1328 14.0938C 39.5547 14.8021 38.75 15.1562 37.7188 15.1562C 36.7396 15.1562 35.9401 14.7552 35.3203 13.9531C 34.7057 13.151 34.3984 12.1042 34.3984 10.8125L 34.3984 10.7031ZM 35.8438 10.8672C 35.8438 11.8255 36.0417 12.5755 36.4375 13.1172C 36.8333 13.6589 37.3802 13.9297 38.0781 13.9297C 38.9948 13.9297 39.6641 13.5182 40.0859 12.6953L 40.0859 8.8125C 39.6536 8.01562 38.9896 7.61719 38.0938 7.61719C 37.3854 7.61719 36.8333 7.89062 36.4375 8.4375C 36.0417 8.98438 35.8438 9.79427 35.8438 10.8672ZM 45.3516 15L 43.9062 15L 43.9062 6.54688L 45.3516 6.54688L 45.3516 15ZM 43.7891 4.30469C 43.7891 4.07031 43.8594 3.8724 44 3.71094C 44.1458 3.54948 44.3594 3.46875 44.6406 3.46875C 44.9219 3.46875 45.1354 3.54948 45.2812 3.71094C 45.4271 3.8724 45.5 4.07031 45.5 4.30469C 45.5 4.53906 45.4271 4.73438 45.2812 4.89062C 45.1354 5.04688 44.9219 5.125 44.6406 5.125C 44.3594 5.125 44.1458 5.04688 44 4.89062C 43.8594 4.73438 43.7891 4.53906 43.7891 4.30469ZM 52.5938 12.7578C 52.5938 12.3672 52.4453 12.0651 52.1484 11.8516C 51.8568 11.6328 51.3438 11.4453 50.6094 11.2891C 49.8802 11.1328 49.2995 10.9453 48.8672 10.7266C 48.4401 10.5078 48.1224 10.2474 47.9141 9.94531C 47.7109 9.64323 47.6094 9.28385 47.6094 8.86719C 47.6094 8.17448 47.901 7.58854 48.4844 7.10938C 49.0729 6.63021 49.8229 6.39062 50.7344 6.39062C 51.6927 6.39062 52.4688 6.63802 53.0625 7.13281C 53.6615 7.6276 53.9609 8.26042 53.9609 9.03125L 52.5078 9.03125C 52.5078 8.63542 52.3385 8.29427 52 8.00781C 51.6667 7.72135 51.2448 7.57812 50.7344 7.57812C 50.2083 7.57812 49.7969 7.69271 49.5 7.92188C 49.2031 8.15104 49.0547 8.45052 49.0547 8.82031C 49.0547 9.16927 49.1927 9.43229 49.4688 9.60938C 49.7448 9.78646 50.2422 9.95573 50.9609 10.1172C 51.6849 10.2786 52.2708 10.4714 52.7188 10.6953C 53.1667 10.9193 53.4974 11.1901 53.7109 11.5078C 53.9297 11.8203 54.0391 12.2031 54.0391 12.6562C 54.0391 13.4115 53.737 14.0182 53.1328 14.4766C 52.5286 14.9297 51.7448 15.1562 50.7812 15.1562C 50.1042 15.1562 49.5052 15.0365 48.9844 14.7969C 48.4635 14.5573 48.0547 14.224 47.7578 13.7969C 47.4661 13.3646 47.3203 12.8984 47.3203 12.3984L 48.7656 12.3984C 48.7917 12.8828 48.9844 13.2682 49.3438 13.5547C 49.7083 13.8359 50.1875 13.9766 50.7812 13.9766C 51.3281 13.9766 51.7656 13.8672 52.0938 13.6484C 52.4271 13.4245 52.5938 13.1276 52.5938 12.7578ZM 59.3125 13.9766C 59.8281 13.9766 60.2786 13.8203 60.6641 13.5078C 61.0495 13.1953 61.263 12.8047 61.3047 12.3359L 62.6719 12.3359C 62.6458 12.8203 62.4792 13.2812 62.1719 13.7188C 61.8646 14.1562 61.4531 14.5052 60.9375 14.7656C 60.4271 15.026 59.8854 15.1562 59.3125 15.1562C 58.1615 15.1562 57.2448 14.7734 56.5625 14.0078C 55.8854 13.237 55.5469 12.1849 55.5469 10.8516L 55.5469 10.6094C 55.5469 9.78646 55.6979 9.05469 56 8.41406C 56.3021 7.77344 56.7344 7.27604 57.2969 6.92188C 57.8646 6.56771 58.5339 6.39062 59.3047 6.39062C 60.2526 6.39062 61.0391 6.67448 61.6641 7.24219C 62.2943 7.8099 62.6302 8.54688 62.6719 9.45312L 61.3047 9.45312C 61.263 8.90625 61.0547 8.45833 60.6797 8.10938C 60.3099 7.75521 59.8516 7.57812 59.3047 7.57812C 58.5703 7.57812 58 7.84375 57.5938 8.375C 57.1927 8.90104 56.9922 9.66406 56.9922 10.6641L 56.9922 10.9375C 56.9922 11.9115 57.1927 12.6615 57.5938 13.1875C 57.9948 13.7135 58.5677 13.9766 59.3125 13.9766ZM 63.9141 10.6953C 63.9141 9.86719 64.0755 9.1224 64.3984 8.46094C 64.7266 7.79948 65.1797 7.28906 65.7578 6.92969C 66.3411 6.57031 67.0052 6.39062 67.75 6.39062C 68.901 6.39062 69.8307 6.78906 70.5391 7.58594C 71.2526 8.38281 71.6094 9.44271 71.6094 10.7656L 71.6094 10.8672C 71.6094 11.6901 71.4505 12.4297 71.1328 13.0859C 70.8203 13.737 70.3698 14.2448 69.7812 14.6094C 69.1979 14.974 68.526 15.1562 67.7656 15.1562C 66.6198 15.1562 65.6901 14.7578 64.9766 13.9609C 64.2682 13.1641 63.9141 12.1094 63.9141 10.7969L 63.9141 10.6953ZM 65.3672 10.8672C 65.3672 11.8047 65.5833 12.5573 66.0156 13.125C 66.4531 13.6927 67.0365 13.9766 67.7656 13.9766C 68.5 13.9766 69.0833 13.6901 69.5156 13.1172C 69.9479 12.5391 70.1641 11.7318 70.1641 10.6953C 70.1641 9.76823 69.9427 9.01823 69.5 8.44531C 69.0625 7.86719 68.4792 7.57812 67.75 7.57812C 67.0365 7.57812 66.4609 7.86198 66.0234 8.42969C 65.5859 8.9974 65.3672 9.8099 65.3672 10.8672ZM 78.6406 14.1641C 78.0781 14.8255 77.2526 15.1562 76.1641 15.1562C 75.263 15.1562 74.5755 14.8958 74.1016 14.375C 73.6328 13.849 73.3958 13.0729 73.3906 12.0469L 73.3906 6.54688L 74.8359 6.54688L 74.8359 12.0078C 74.8359 13.2891 75.3568 13.9297 76.3984 13.9297C 77.5026 13.9297 78.237 13.5182 78.6016 12.6953L 78.6016 6.54688L 80.0469 6.54688L 80.0469 15L 78.6719 15L 78.6406 14.1641ZM 83.6172 6.54688L 83.6641 7.60938C 84.3099 6.79688 85.1536 6.39062 86.1953 6.39062C 87.9818 6.39062 88.8828 7.39844 88.8984 9.41406L 88.8984 15L 87.4531 15L 87.4531 9.40625C 87.4479 8.79688 87.3073 8.34635 87.0312 8.05469C 86.7604 7.76302 86.3359 7.61719 85.7578 7.61719C 85.2891 7.61719 84.8776 7.74219 84.5234 7.99219C 84.1693 8.24219 83.8932 8.57031 83.6953 8.97656L 83.6953 15L 82.25 15L 82.25 6.54688L 83.6172 6.54688ZM 93.0391 4.5L 93.0391 6.54688L 94.6172 6.54688L 94.6172 7.66406L 93.0391 7.66406L 93.0391 12.9062C 93.0391 13.2448 93.1094 13.5 93.25 13.6719C 93.3906 13.8385 93.6302 13.9219 93.9688 13.9219C 94.1354 13.9219 94.3646 13.8906 94.6562 13.8281L 94.6562 15C 94.276 15.1042 93.9062 15.1562 93.5469 15.1562C 92.901 15.1562 92.4141 14.9609 92.0859 14.5703C 91.7578 14.1797 91.5938 13.625 91.5938 12.9062L 91.5938 7.66406L 90.0547 7.66406L 90.0547 6.54688L 91.5938 6.54688L 91.5938 4.5L 93.0391 4.5ZM 99.8984 10.6953C 99.8984 9.86719 100.06 9.1224 100.383 8.46094C 100.711 7.79948 101.164 7.28906 101.742 6.92969C 102.326 6.57031 102.99 6.39062 103.734 6.39062C 104.885 6.39062 105.815 6.78906 106.523 7.58594C 107.237 8.38281 107.594 9.44271 107.594 10.7656L 107.594 10.8672C 107.594 11.6901 107.435 12.4297 107.117 13.0859C 106.805 13.737 106.354 14.2448 105.766 14.6094C 105.182 14.974 104.51 15.1562 103.75 15.1562C 102.604 15.1562 101.674 14.7578 100.961 13.9609C 100.253 13.1641 99.8984 12.1094 99.8984 10.7969L 99.8984 10.6953ZM 101.352 10.8672C 101.352 11.8047 101.568 12.5573 102 13.125C 102.438 13.6927 103.021 13.9766 103.75 13.9766C 104.484 13.9766 105.068 13.6901 105.5 13.1172C 105.932 12.5391 106.148 11.7318 106.148 10.6953C 106.148 9.76823 105.927 9.01823 105.484 8.44531C 105.047 7.86719 104.464 7.57812 103.734 7.57812C 103.021 7.57812 102.445 7.86198 102.008 8.42969C 101.57 8.9974 101.352 9.8099 101.352 10.8672ZM 110.773 6.54688L 110.82 7.60938C 111.466 6.79688 112.31 6.39062 113.352 6.39062C 115.138 6.39062 116.039 7.39844 116.055 9.41406L 116.055 15L 114.609 15L 114.609 9.40625C 114.604 8.79688 114.464 8.34635 114.188 8.05469C 113.917 7.76302 113.492 7.61719 112.914 7.61719C 112.445 7.61719 112.034 7.74219 111.68 7.99219C 111.326 8.24219 111.049 8.57031 110.852 8.97656L 110.852 15L 109.406 15L 109.406 6.54688L 110.773 6.54688ZM 122.688 15L 122.688 7.66406L 121.352 7.66406L 121.352 6.54688L 122.688 6.54688L 122.688 5.82812C 122.688 4.88542 122.956 4.15104 123.492 3.625C 124.034 3.09896 124.797 2.83594 125.781 2.83594C 126.365 2.83594 127.102 2.99479 127.992 3.3125L 127.75 4.53125C 127.099 4.27083 126.479 4.14062 125.891 4.14062C 125.271 4.14062 124.823 4.28125 124.547 4.5625C 124.276 4.83854 124.141 5.25521 124.141 5.8125L 124.141 6.54688L 125.867 6.54688L 125.867 7.66406L 124.141 7.66406L 124.141 15L 122.688 15ZM 128.711 15L 127.258 15L 127.258 6.54688L 128.711 6.54688L 128.711 15ZM 135.148 7.84375C 134.93 7.80729 134.693 7.78906 134.438 7.78906C 133.49 7.78906 132.846 8.19271 132.508 9L 132.508 15L 131.062 15L 131.062 6.54688L 132.469 6.54688L 132.492 7.52344C 132.966 6.76823 133.638 6.39062 134.508 6.39062C 134.789 6.39062 135.003 6.42708 135.148 6.5L 135.148 7.84375ZM 141.406 12.7578C 141.406 12.3672 141.258 12.0651 140.961 11.8516C 140.669 11.6328 140.156 11.4453 139.422 11.2891C 138.693 11.1328 138.112 10.9453 137.68 10.7266C 137.253 10.5078 136.935 10.2474 136.727 9.94531C 136.523 9.64323 136.422 9.28385 136.422 8.86719C 136.422 8.17448 136.714 7.58854 137.297 7.10938C 137.885 6.63021 138.635 6.39062 139.547 6.39062C 140.505 6.39062 141.281 6.63802 141.875 7.13281C 142.474 7.6276 142.773 8.26042 142.773 9.03125L 141.32 9.03125C 141.32 8.63542 141.151 8.29427 140.812 8.00781C 140.479 7.72135 140.057 7.57812 139.547 7.57812C 139.021 7.57812 138.609 7.69271 138.312 7.92188C 138.016 8.15104 137.867 8.45052 137.867 8.82031C 137.867 9.16927 138.005 9.43229 138.281 9.60938C 138.557 9.78646 139.055 9.95573 139.773 10.1172C 140.497 10.2786 141.083 10.4714 141.531 10.6953C 141.979 10.9193 142.31 11.1901 142.523 11.5078C 142.742 11.8203 142.852 12.2031 142.852 12.6562C 142.852 13.4115 142.549 14.0182 141.945 14.4766C 141.341 14.9297 140.557 15.1562 139.594 15.1562C 138.917 15.1562 138.318 15.0365 137.797 14.7969C 137.276 14.5573 136.867 14.224 136.57 13.7969C 136.279 13.3646 136.133 12.8984 136.133 12.3984L 137.578 12.3984C 137.604 12.8828 137.797 13.2682 138.156 13.5547C 138.521 13.8359 139 13.9766 139.594 13.9766C 140.141 13.9766 140.578 13.8672 140.906 13.6484C 141.24 13.4245 141.406 13.1276 141.406 12.7578ZM 146.695 4.5L 146.695 6.54688L 148.273 6.54688L 148.273 7.66406L 146.695 7.66406L 146.695 12.9062C 146.695 13.2448 146.766 13.5 146.906 13.6719C 147.047 13.8385 147.286 13.9219 147.625 13.9219C 147.792 13.9219 148.021 13.8906 148.312 13.8281L 148.312 15C 147.932 15.1042 147.562 15.1562 147.203 15.1562C 146.557 15.1562 146.07 14.9609 145.742 14.5703C 145.414 14.1797 145.25 13.625 145.25 12.9062L 145.25 7.66406L 143.711 7.66406L 143.711 6.54688L 145.25 6.54688L 145.25 4.5L 146.695 4.5ZM 161.078 10.8672C 161.078 12.1536 160.784 13.1901 160.195 13.9766C 159.607 14.763 158.81 15.1562 157.805 15.1562C 156.779 15.1562 155.971 14.8307 155.383 14.1797L 155.383 18.25L 153.938 18.25L 153.938 6.54688L 155.258 6.54688L 155.328 7.48438C 155.917 6.75521 156.734 6.39062 157.781 6.39062C 158.797 6.39062 159.599 6.77344 160.188 7.53906C 160.781 8.30469 161.078 9.36979 161.078 10.7344L 161.078 10.8672ZM 159.633 10.7031C 159.633 9.75 159.43 8.9974 159.023 8.44531C 158.617 7.89323 158.06 7.61719 157.352 7.61719C 156.477 7.61719 155.82 8.00521 155.383 8.78125L 155.383 12.8203C 155.815 13.5911 156.477 13.9766 157.367 13.9766C 158.06 13.9766 158.609 13.7031 159.016 13.1562C 159.427 12.6042 159.633 11.7865 159.633 10.7031ZM 168.141 14.1641C 167.578 14.8255 166.753 15.1562 165.664 15.1562C 164.763 15.1562 164.076 14.8958 163.602 14.375C 163.133 13.849 162.896 13.0729 162.891 12.0469L 162.891 6.54688L 164.336 6.54688L 164.336 12.0078C 164.336 13.2891 164.857 13.9297 165.898 13.9297C 167.003 13.9297 167.737 13.5182 168.102 12.6953L 168.102 6.54688L 169.547 6.54688L 169.547 15L 168.172 15L 168.141 14.1641ZM 175.836 7.84375C 175.617 7.80729 175.38 7.78906 175.125 7.78906C 174.177 7.78906 173.534 8.19271 173.195 9L 173.195 15L 171.75 15L 171.75 6.54688L 173.156 6.54688L 173.18 7.52344C 173.654 6.76823 174.326 6.39062 175.195 6.39062C 175.477 6.39062 175.69 6.42708 175.836 6.5L 175.836 7.84375ZM 180.406 13.9766C 180.922 13.9766 181.372 13.8203 181.758 13.5078C 182.143 13.1953 182.357 12.8047 182.398 12.3359L 183.766 12.3359C 183.74 12.8203 183.573 13.2812 183.266 13.7188C 182.958 14.1562 182.547 14.5052 182.031 14.7656C 181.521 15.026 180.979 15.1562 180.406 15.1562C 179.255 15.1562 178.339 14.7734 177.656 14.0078C 176.979 13.237 176.641 12.1849 176.641 10.8516L 176.641 10.6094C 176.641 9.78646 176.792 9.05469 177.094 8.41406C 177.396 7.77344 177.828 7.27604 178.391 6.92188C 178.958 6.56771 179.628 6.39062 180.398 6.39062C 181.346 6.39062 182.133 6.67448 182.758 7.24219C 183.388 7.8099 183.724 8.54688 183.766 9.45312L 182.398 9.45312C 182.357 8.90625 182.148 8.45833 181.773 8.10938C 181.404 7.75521 180.945 7.57812 180.398 7.57812C 179.664 7.57812 179.094 7.84375 178.688 8.375C 178.286 8.90104 178.086 9.66406 178.086 10.6641L 178.086 10.9375C 178.086 11.9115 178.286 12.6615 178.688 13.1875C 179.089 13.7135 179.661 13.9766 180.406 13.9766ZM 186.836 7.57031C 187.477 6.78385 188.31 6.39062 189.336 6.39062C 191.122 6.39062 192.023 7.39844 192.039 9.41406L 192.039 15L 190.594 15L 190.594 9.40625C 190.589 8.79688 190.448 8.34635 190.172 8.05469C 189.901 7.76302 189.477 7.61719 188.898 7.61719C 188.43 7.61719 188.018 7.74219 187.664 7.99219C 187.31 8.24219 187.034 8.57031 186.836 8.97656L 186.836 15L 185.391 15L 185.391 3L 186.836 3L 186.836 7.57031ZM 199.422 15C 199.339 14.8333 199.271 14.5365 199.219 14.1094C 198.547 14.8073 197.745 15.1562 196.812 15.1562C 195.979 15.1562 195.294 14.9219 194.758 14.4531C 194.227 13.9792 193.961 13.3802 193.961 12.6562C 193.961 11.776 194.294 11.0938 194.961 10.6094C 195.633 10.1198 196.576 9.875 197.789 9.875L 199.195 9.875L 199.195 9.21094C 199.195 8.70573 199.044 8.30469 198.742 8.00781C 198.44 7.70573 197.995 7.55469 197.406 7.55469C 196.891 7.55469 196.458 7.6849 196.109 7.94531C 195.76 8.20573 195.586 8.52083 195.586 8.89062L 194.133 8.89062C 194.133 8.46875 194.281 8.0625 194.578 7.67188C 194.88 7.27604 195.286 6.96354 195.797 6.73438C 196.312 6.50521 196.878 6.39062 197.492 6.39062C 198.466 6.39062 199.229 6.63542 199.781 7.125C 200.333 7.60938 200.62 8.27865 200.641 9.13281L 200.641 13.0234C 200.641 13.7995 200.74 14.4167 200.938 14.875L 200.938 15L 199.422 15ZM 197.023 13.8984C 197.477 13.8984 197.906 13.7812 198.312 13.5469C 198.719 13.3125 199.013 13.0078 199.195 12.6328L 199.195 10.8984L 198.062 10.8984C 196.292 10.8984 195.406 11.4167 195.406 12.4531C 195.406 12.9062 195.557 13.2604 195.859 13.5156C 196.161 13.7708 196.549 13.8984 197.023 13.8984ZM 207.828 12.7578C 207.828 12.3672 207.68 12.0651 207.383 11.8516C 207.091 11.6328 206.578 11.4453 205.844 11.2891C 205.115 11.1328 204.534 10.9453 204.102 10.7266C 203.674 10.5078 203.357 10.2474 203.148 9.94531C 202.945 9.64323 202.844 9.28385 202.844 8.86719C 202.844 8.17448 203.135 7.58854 203.719 7.10938C 204.307 6.63021 205.057 6.39062 205.969 6.39062C 206.927 6.39062 207.703 6.63802 208.297 7.13281C 208.896 7.6276 209.195 8.26042 209.195 9.03125L 207.742 9.03125C 207.742 8.63542 207.573 8.29427 207.234 8.00781C 206.901 7.72135 206.479 7.57812 205.969 7.57812C 205.443 7.57812 205.031 7.69271 204.734 7.92188C 204.438 8.15104 204.289 8.45052 204.289 8.82031C 204.289 9.16927 204.427 9.43229 204.703 9.60938C 204.979 9.78646 205.477 9.95573 206.195 10.1172C 206.919 10.2786 207.505 10.4714 207.953 10.6953C 208.401 10.9193 208.732 11.1901 208.945 11.5078C 209.164 11.8203 209.273 12.2031 209.273 12.6562C 209.273 13.4115 208.971 14.0182 208.367 14.4766C 207.763 14.9297 206.979 15.1562 206.016 15.1562C 205.339 15.1562 204.74 15.0365 204.219 14.7969C 203.698 14.5573 203.289 14.224 202.992 13.7969C 202.701 13.3646 202.555 12.8984 202.555 12.3984L 204 12.3984C 204.026 12.8828 204.219 13.2682 204.578 13.5547C 204.943 13.8359 205.422 13.9766 206.016 13.9766C 206.562 13.9766 207 13.8672 207.328 13.6484C 207.661 13.4245 207.828 13.1276 207.828 12.7578ZM 214.664 15.1562C 213.518 15.1562 212.586 14.7812 211.867 14.0312C 211.148 13.276 210.789 12.2682 210.789 11.0078L 210.789 10.7422C 210.789 9.90365 210.948 9.15625 211.266 8.5C 211.589 7.83854 212.036 7.32292 212.609 6.95312C 213.188 6.57812 213.812 6.39062 214.484 6.39062C 215.583 6.39062 216.438 6.7526 217.047 7.47656C 217.656 8.20052 217.961 9.23698 217.961 10.5859L 217.961 11.1875L 212.234 11.1875C 212.255 12.0208 212.497 12.6953 212.961 13.2109C 213.43 13.7214 214.023 13.9766 214.742 13.9766C 215.253 13.9766 215.685 13.8724 216.039 13.6641C 216.393 13.4557 216.703 13.1797 216.969 12.8359L 217.852 13.5234C 217.143 14.612 216.081 15.1562 214.664 15.1562ZM 214.484 7.57812C 213.901 7.57812 213.411 7.79167 213.016 8.21875C 212.62 8.64062 212.375 9.23438 212.281 10L 216.516 10L 216.516 9.89062C 216.474 9.15625 216.276 8.58854 215.922 8.1875C 215.568 7.78125 215.089 7.57812 214.484 7.57812ZM 224.562 12.7578C 224.562 12.3672 224.414 12.0651 224.117 11.8516C 223.826 11.6328 223.312 11.4453 222.578 11.2891C 221.849 11.1328 221.268 10.9453 220.836 10.7266C 220.409 10.5078 220.091 10.2474 219.883 9.94531C 219.68 9.64323 219.578 9.28385 219.578 8.86719C 219.578 8.17448 219.87 7.58854 220.453 7.10938C 221.042 6.63021 221.792 6.39062 222.703 6.39062C 223.661 6.39062 224.438 6.63802 225.031 7.13281C 225.63 7.6276 225.93 8.26042 225.93 9.03125L 224.477 9.03125C 224.477 8.63542 224.307 8.29427 223.969 8.00781C 223.635 7.72135 223.214 7.57812 222.703 7.57812C 222.177 7.57812 221.766 7.69271 221.469 7.92188C 221.172 8.15104 221.023 8.45052 221.023 8.82031C 221.023 9.16927 221.161 9.43229 221.438 9.60938C 221.714 9.78646 222.211 9.95573 222.93 10.1172C 223.654 10.2786 224.24 10.4714 224.688 10.6953C 225.135 10.9193 225.466 11.1901 225.68 11.5078C 225.898 11.8203 226.008 12.2031 226.008 12.6562C 226.008 13.4115 225.706 14.0182 225.102 14.4766C 224.497 14.9297 223.714 15.1562 222.75 15.1562C 222.073 15.1562 221.474 15.0365 220.953 14.7969C 220.432 14.5573 220.023 14.224 219.727 13.7969C 219.435 13.3646 219.289 12.8984 219.289 12.3984L 220.734 12.3984C 220.76 12.8828 220.953 13.2682 221.312 13.5547C 221.677 13.8359 222.156 13.9766 222.75 13.9766C 223.297 13.9766 223.734 13.8672 224.062 13.6484C 224.396 13.4245 224.562 13.1276 224.562 12.7578Z" transform="translate(44 65)" fill="#212D30"/>
</g>
<g id="33%">
<path d="M 3.04688 8.60938L 4.13281 8.60938C 4.8151 8.59896 5.35156 8.41927 5.74219 8.07031C 6.13281 7.72135 6.32812 7.25 6.32812 6.65625C 6.32812 5.32292 5.66406 4.65625 4.33594 4.65625C 3.71094 4.65625 3.21094 4.83594 2.83594 5.19531C 2.46615 5.54948 2.28125 6.02083 2.28125 6.60938L 0.835938 6.60938C 0.835938 5.70833 1.16406 4.96094 1.82031 4.36719C 2.48177 3.76823 3.32031 3.46875 4.33594 3.46875C 5.40885 3.46875 6.25 3.7526 6.85938 4.32031C 7.46875 4.88802 7.77344 5.67708 7.77344 6.6875C 7.77344 7.18229 7.61198 7.66146 7.28906 8.125C 6.97135 8.58854 6.53646 8.9349 5.98438 9.16406C 6.60938 9.36198 7.09115 9.6901 7.42969 10.1484C 7.77344 10.6068 7.94531 11.1667 7.94531 11.8281C 7.94531 12.849 7.61198 13.6589 6.94531 14.2578C 6.27865 14.8568 5.41146 15.1562 4.34375 15.1562C 3.27604 15.1562 2.40625 14.8672 1.73438 14.2891C 1.06771 13.7109 0.734375 12.9479 0.734375 12L 2.1875 12C 2.1875 12.599 2.38281 13.0781 2.77344 13.4375C 3.16406 13.7969 3.6875 13.9766 4.34375 13.9766C 5.04167 13.9766 5.57552 13.7943 5.94531 13.4297C 6.3151 13.0651 6.5 12.5417 6.5 11.8594C 6.5 11.1979 6.29688 10.6901 5.89062 10.3359C 5.48438 9.98177 4.89844 9.79948 4.13281 9.78906L 3.04688 9.78906L 3.04688 8.60938ZM 12.0312 8.60938L 13.1172 8.60938C 13.7995 8.59896 14.3359 8.41927 14.7266 8.07031C 15.1172 7.72135 15.3125 7.25 15.3125 6.65625C 15.3125 5.32292 14.6484 4.65625 13.3203 4.65625C 12.6953 4.65625 12.1953 4.83594 11.8203 5.19531C 11.4505 5.54948 11.2656 6.02083 11.2656 6.60938L 9.82031 6.60938C 9.82031 5.70833 10.1484 4.96094 10.8047 4.36719C 11.4661 3.76823 12.3047 3.46875 13.3203 3.46875C 14.3932 3.46875 15.2344 3.7526 15.8438 4.32031C 16.4531 4.88802 16.7578 5.67708 16.7578 6.6875C 16.7578 7.18229 16.5964 7.66146 16.2734 8.125C 15.9557 8.58854 15.5208 8.9349 14.9688 9.16406C 15.5938 9.36198 16.0755 9.6901 16.4141 10.1484C 16.7578 10.6068 16.9297 11.1667 16.9297 11.8281C 16.9297 12.849 16.5964 13.6589 15.9297 14.2578C 15.263 14.8568 14.3958 15.1562 13.3281 15.1562C 12.2604 15.1562 11.3906 14.8672 10.7188 14.2891C 10.0521 13.7109 9.71875 12.9479 9.71875 12L 11.1719 12C 11.1719 12.599 11.3672 13.0781 11.7578 13.4375C 12.1484 13.7969 12.6719 13.9766 13.3281 13.9766C 14.026 13.9766 14.5599 13.7943 14.9297 13.4297C 15.2995 13.0651 15.4844 12.5417 15.4844 11.8594C 15.4844 11.1979 15.2812 10.6901 14.875 10.3359C 14.4688 9.98177 13.8828 9.79948 13.1172 9.78906L 12.0312 9.78906L 12.0312 8.60938ZM 18.7891 5.8125C 18.7891 5.13021 19.0052 4.56771 19.4375 4.125C 19.875 3.68229 20.4349 3.46094 21.1172 3.46094C 21.8099 3.46094 22.3698 3.6849 22.7969 4.13281C 23.2292 4.57552 23.4453 5.15104 23.4453 5.85938L 23.4453 6.41406C 23.4453 7.10156 23.2266 7.66406 22.7891 8.10156C 22.3568 8.53385 21.8047 8.75 21.1328 8.75C 20.4557 8.75 19.8958 8.53385 19.4531 8.10156C 19.0104 7.66406 18.7891 7.08333 18.7891 6.35938L 18.7891 5.8125ZM 19.8672 6.41406C 19.8672 6.82031 19.9818 7.15625 20.2109 7.42188C 20.4401 7.68229 20.7474 7.8125 21.1328 7.8125C 21.5026 7.8125 21.7995 7.6849 22.0234 7.42969C 22.2526 7.17448 22.3672 6.82552 22.3672 6.38281L 22.3672 5.8125C 22.3672 5.40625 22.2552 5.07031 22.0312 4.80469C 21.8073 4.53906 21.5026 4.40625 21.1172 4.40625C 20.7318 4.40625 20.4271 4.53906 20.2031 4.80469C 19.9792 5.07031 19.8672 5.41667 19.8672 5.84375L 19.8672 6.41406ZM 24.3281 12.2109C 24.3281 11.5286 24.5443 10.9688 24.9766 10.5312C 25.4141 10.0885 25.974 9.86719 26.6562 9.86719C 27.3385 9.86719 27.8984 10.0859 28.3359 10.5234C 28.7734 10.9609 28.9922 11.5417 28.9922 12.2656L 28.9922 12.8203C 28.9922 13.5026 28.7734 14.0651 28.3359 14.5078C 27.9036 14.9453 27.349 15.1641 26.6719 15.1641C 25.9948 15.1641 25.4349 14.9479 24.9922 14.5156C 24.5495 14.0781 24.3281 13.4974 24.3281 12.7734L 24.3281 12.2109ZM 25.4062 12.8203C 25.4062 13.2318 25.5208 13.5703 25.75 13.8359C 25.9792 14.0964 26.2865 14.2266 26.6719 14.2266C 27.0469 14.2266 27.3464 14.099 27.5703 13.8438C 27.7943 13.5833 27.9062 13.2318 27.9062 12.7891L 27.9062 12.2109C 27.9062 11.7995 27.7917 11.4635 27.5625 11.2031C 27.3385 10.9427 27.0365 10.8125 26.6562 10.8125C 26.2865 10.8125 25.9844 10.9427 25.75 11.2031C 25.5208 11.4583 25.4062 11.8047 25.4062 12.2422L 25.4062 12.8203ZM 21.4609 14.1406L 20.6406 13.625L 26.1953 4.73438L 27.0156 5.25L 21.4609 14.1406Z" transform="translate(266 105)" fill="#212D30"/>
</g>
<g id="3.275">
<path d="M 3.04688 8.60938L 4.13281 8.60938C 4.8151 8.59896 5.35156 8.41927 5.74219 8.07031C 6.13281 7.72135 6.32812 7.25 6.32812 6.65625C 6.32812 5.32292 5.66406 4.65625 4.33594 4.65625C 3.71094 4.65625 3.21094 4.83594 2.83594 5.19531C 2.46615 5.54948 2.28125 6.02083 2.28125 6.60938L 0.835938 6.60938C 0.835938 5.70833 1.16406 4.96094 1.82031 4.36719C 2.48177 3.76823 3.32031 3.46875 4.33594 3.46875C 5.40885 3.46875 6.25 3.7526 6.85938 4.32031C 7.46875 4.88802 7.77344 5.67708 7.77344 6.6875C 7.77344 7.18229 7.61198 7.66146 7.28906 8.125C 6.97135 8.58854 6.53646 8.9349 5.98438 9.16406C 6.60938 9.36198 7.09115 9.6901 7.42969 10.1484C 7.77344 10.6068 7.94531 11.1667 7.94531 11.8281C 7.94531 12.849 7.61198 13.6589 6.94531 14.2578C 6.27865 14.8568 5.41146 15.1562 4.34375 15.1562C 3.27604 15.1562 2.40625 14.8672 1.73438 14.2891C 1.06771 13.7109 0.734375 12.9479 0.734375 12L 2.1875 12C 2.1875 12.599 2.38281 13.0781 2.77344 13.4375C 3.16406 13.7969 3.6875 13.9766 4.34375 13.9766C 5.04167 13.9766 5.57552 13.7943 5.94531 13.4297C 6.3151 13.0651 6.5 12.5417 6.5 11.8594C 6.5 11.1979 6.29688 10.6901 5.89062 10.3359C 5.48438 9.98177 4.89844 9.79948 4.13281 9.78906L 3.04688 9.78906L 3.04688 8.60938ZM 10.1094 14.2422C 10.1094 13.9922 10.1823 13.7839 10.3281 13.6172C 10.4792 13.4505 10.7031 13.3672 11 13.3672C 11.2969 13.3672 11.5208 13.4505 11.6719 13.6172C 11.8281 13.7839 11.9062 13.9922 11.9062 14.2422C 11.9062 14.4818 11.8281 14.6823 11.6719 14.8438C 11.5208 15.0052 11.2969 15.0859 11 15.0859C 10.7031 15.0859 10.4792 15.0052 10.3281 14.8438C 10.1823 14.6823 10.1094 14.4818 10.1094 14.2422ZM 21.6016 15L 14.1484 15L 14.1484 13.9609L 18.0859 9.58594C 18.6693 8.92448 19.0703 8.38802 19.2891 7.97656C 19.513 7.5599 19.625 7.13021 19.625 6.6875C 19.625 6.09375 19.4453 5.60677 19.0859 5.22656C 18.7266 4.84635 18.2474 4.65625 17.6484 4.65625C 16.9297 4.65625 16.3698 4.86198 15.9688 5.27344C 15.5729 5.67969 15.375 6.2474 15.375 6.97656L 13.9297 6.97656C 13.9297 5.92969 14.2656 5.08333 14.9375 4.4375C 15.6146 3.79167 16.5182 3.46875 17.6484 3.46875C 18.7057 3.46875 19.5417 3.7474 20.1562 4.30469C 20.7708 4.85677 21.0781 5.59375 21.0781 6.51562C 21.0781 7.63542 20.3646 8.96875 18.9375 10.5156L 15.8906 13.8203L 21.6016 13.8203L 21.6016 15ZM 30.4766 4.4375L 25.7656 15L 24.25 15L 28.9453 4.8125L 22.7891 4.8125L 22.7891 3.625L 30.4766 3.625L 30.4766 4.4375ZM 32.7812 9.29688L 33.3594 3.625L 39.1875 3.625L 39.1875 4.96094L 34.5859 4.96094L 34.2422 8.0625C 34.7995 7.73438 35.4323 7.57031 36.1406 7.57031C 37.1771 7.57031 38 7.91406 38.6094 8.60156C 39.2188 9.28385 39.5234 10.2083 39.5234 11.375C 39.5234 12.5469 39.2057 13.4714 38.5703 14.1484C 37.9401 14.8203 37.0573 15.1562 35.9219 15.1562C 34.9167 15.1562 34.0964 14.8776 33.4609 14.3203C 32.8255 13.763 32.4635 12.9922 32.375 12.0078L 33.7422 12.0078C 33.8307 12.6589 34.0625 13.151 34.4375 13.4844C 34.8125 13.8125 35.3073 13.9766 35.9219 13.9766C 36.5938 13.9766 37.1198 13.7474 37.5 13.2891C 37.8854 12.8307 38.0781 12.1979 38.0781 11.3906C 38.0781 10.6302 37.8698 10.0208 37.4531 9.5625C 37.0417 9.09896 36.4922 8.86719 35.8047 8.86719C 35.1745 8.86719 34.6797 9.00521 34.3203 9.28125L 33.9375 9.59375L 32.7812 9.29688Z" transform="translate(150 104.816)" fill="#212D30"/>
</g>
<g id="9.875">
<path d="M 6.48438 10C 6.18229 10.3594 5.82031 10.6484 5.39844 10.8672C 4.98177 11.0859 4.52344 11.1953 4.02344 11.1953C 3.36719 11.1953 2.79427 11.0339 2.30469 10.7109C 1.82031 10.388 1.44531 9.9349 1.17969 9.35156C 0.914062 8.76302 0.78125 8.11458 0.78125 7.40625C 0.78125 6.64583 0.924479 5.96094 1.21094 5.35156C 1.5026 4.74219 1.91406 4.27604 2.44531 3.95312C 2.97656 3.63021 3.59635 3.46875 4.30469 3.46875C 5.42969 3.46875 6.3151 3.89062 6.96094 4.73438C 7.61198 5.57292 7.9375 6.71875 7.9375 8.17188L 7.9375 8.59375C 7.9375 10.8073 7.5 12.4245 6.625 13.4453C 5.75 14.4609 4.42969 14.9818 2.66406 15.0078L 2.38281 15.0078L 2.38281 13.7891L 2.6875 13.7891C 3.88021 13.7682 4.79688 13.4583 5.4375 12.8594C 6.07812 12.2552 6.42708 11.3021 6.48438 10ZM 4.25781 10C 4.74219 10 5.1875 9.85156 5.59375 9.55469C 6.00521 9.25781 6.30469 8.89062 6.49219 8.45312L 6.49219 7.875C 6.49219 6.92708 6.28646 6.15625 5.875 5.5625C 5.46354 4.96875 4.94271 4.67188 4.3125 4.67188C 3.67708 4.67188 3.16667 4.91667 2.78125 5.40625C 2.39583 5.89062 2.20312 6.53125 2.20312 7.32812C 2.20312 8.10417 2.38802 8.74479 2.75781 9.25C 3.13281 9.75 3.63281 10 4.25781 10ZM 10.1094 14.2422C 10.1094 13.9922 10.1823 13.7839 10.3281 13.6172C 10.4792 13.4505 10.7031 13.3672 11 13.3672C 11.2969 13.3672 11.5208 13.4505 11.6719 13.6172C 11.8281 13.7839 11.9062 13.9922 11.9062 14.2422C 11.9062 14.4818 11.8281 14.6823 11.6719 14.8438C 11.5208 15.0052 11.2969 15.0859 11 15.0859C 10.7031 15.0859 10.4792 15.0052 10.3281 14.8438C 10.1823 14.6823 10.1094 14.4818 10.1094 14.2422ZM 21.0469 6.59375C 21.0469 7.16146 20.8958 7.66667 20.5938 8.10938C 20.2969 8.55208 19.8932 8.89844 19.3828 9.14844C 19.9766 9.40365 20.4453 9.77604 20.7891 10.2656C 21.138 10.7552 21.3125 11.3099 21.3125 11.9297C 21.3125 12.9141 20.9792 13.6979 20.3125 14.2812C 19.651 14.8646 18.7786 15.1562 17.6953 15.1562C 16.6016 15.1562 15.724 14.8646 15.0625 14.2812C 14.4062 13.6927 14.0781 12.9089 14.0781 11.9297C 14.0781 11.3151 14.2448 10.7604 14.5781 10.2656C 14.9167 9.77083 15.3828 9.39583 15.9766 9.14062C 15.4714 8.89062 15.0729 8.54427 14.7812 8.10156C 14.4896 7.65885 14.3438 7.15625 14.3438 6.59375C 14.3438 5.63542 14.651 4.875 15.2656 4.3125C 15.8802 3.75 16.6901 3.46875 17.6953 3.46875C 18.6953 3.46875 19.5026 3.75 20.1172 4.3125C 20.737 4.875 21.0469 5.63542 21.0469 6.59375ZM 19.8672 11.8984C 19.8672 11.263 19.6641 10.7448 19.2578 10.3438C 18.8568 9.94271 18.3307 9.74219 17.6797 9.74219C 17.0286 9.74219 16.5052 9.9401 16.1094 10.3359C 15.7188 10.7318 15.5234 11.2526 15.5234 11.8984C 15.5234 12.5443 15.7135 13.0521 16.0938 13.4219C 16.4792 13.7917 17.013 13.9766 17.6953 13.9766C 18.3724 13.9766 18.9036 13.7917 19.2891 13.4219C 19.6745 13.0469 19.8672 12.5391 19.8672 11.8984ZM 17.6953 4.65625C 17.1276 4.65625 16.6667 4.83333 16.3125 5.1875C 15.9635 5.53646 15.7891 6.01302 15.7891 6.61719C 15.7891 7.19531 15.9609 7.66406 16.3047 8.02344C 16.6536 8.3776 17.1172 8.55469 17.6953 8.55469C 18.2734 8.55469 18.7344 8.3776 19.0781 8.02344C 19.4271 7.66406 19.6016 7.19531 19.6016 6.61719C 19.6016 6.03906 19.4219 5.56771 19.0625 5.20312C 18.7031 4.83854 18.2474 4.65625 17.6953 4.65625ZM 30.4766 4.4375L 25.7656 15L 24.25 15L 28.9453 4.8125L 22.7891 4.8125L 22.7891 3.625L 30.4766 3.625L 30.4766 4.4375ZM 32.7812 9.29688L 33.3594 3.625L 39.1875 3.625L 39.1875 4.96094L 34.5859 4.96094L 34.2422 8.0625C 34.7995 7.73438 35.4323 7.57031 36.1406 7.57031C 37.1771 7.57031 38 7.91406 38.6094 8.60156C 39.2188 9.28385 39.5234 10.2083 39.5234 11.375C 39.5234 12.5469 39.2057 13.4714 38.5703 14.1484C 37.9401 14.8203 37.0573 15.1562 35.9219 15.1562C 34.9167 15.1562 34.0964 14.8776 33.4609 14.3203C 32.8255 13.763 32.4635 12.9922 32.375 12.0078L 33.7422 12.0078C 33.8307 12.6589 34.0625 13.151 34.4375 13.4844C 34.8125 13.8125 35.3073 13.9766 35.9219 13.9766C 36.5938 13.9766 37.1198 13.7474 37.5 13.2891C 37.8854 12.8307 38.0781 12.1979 38.0781 11.3906C 38.0781 10.6302 37.8698 10.0208 37.4531 9.5625C 37.0417 9.09896 36.4922 8.86719 35.8047 8.86719C 35.1745 8.86719 34.6797 9.00521 34.3203 9.28125L 33.9375 9.59375L 32.7812 9.29688Z" transform="translate(44 104.816)" fill="#212D30"/>
</g>
<g id="badge">
<g id="Rectangle 7">
<rect width="48" height="16" rx="8" transform="translate(44 41)" fill="#60DFBD"/>
</g>
<g id="active">
<path d="M 8.36021 10C 8.29771 9.87891 8.24302 9.68164 8.19614 9.4082C 7.74302 9.88086 7.18833 10.1172 6.53208 10.1172C 5.89536 10.1172 5.37583 9.93555 4.97349 9.57227C 4.57114 9.20898 4.36997 8.75977 4.36997 8.22461C 4.36997 7.54883 4.61997 7.03125 5.11997 6.67188C 5.62388 6.30859 6.34263 6.12695 7.27622 6.12695L 8.14927 6.12695L 8.14927 5.71094C 8.14927 5.38281 8.05747 5.12109 7.87388 4.92578C 7.69028 4.72656 7.41099 4.62695 7.03599 4.62695C 6.71177 4.62695 6.44614 4.70898 6.23911 4.87305C 6.03208 5.0332 5.92857 5.23828 5.92857 5.48828L 4.50474 5.48828C 4.50474 5.14062 4.61997 4.81641 4.85044 4.51562C 5.08091 4.21094 5.39341 3.97266 5.78794 3.80078C 6.18638 3.62891 6.62974 3.54297 7.11802 3.54297C 7.86021 3.54297 8.452 3.73047 8.89341 4.10547C 9.33482 4.47656 9.56138 5 9.5731 5.67578L 9.5731 8.53516C 9.5731 9.10547 9.65318 9.56055 9.81333 9.90039L 9.81333 10L 8.36021 10ZM 6.79575 8.97461C 7.077 8.97461 7.34068 8.90625 7.58677 8.76953C 7.83677 8.63281 8.02427 8.44922 8.14927 8.21875L 8.14927 7.02344L 7.38169 7.02344C 6.85435 7.02344 6.45786 7.11523 6.19224 7.29883C 5.92661 7.48242 5.7938 7.74219 5.7938 8.07812C 5.7938 8.35156 5.88364 8.57031 6.06333 8.73438C 6.24693 8.89453 6.49107 8.97461 6.79575 8.97461ZM 13.6688 8.98047C 14.0243 8.98047 14.3192 8.87695 14.5536 8.66992C 14.7879 8.46289 14.9129 8.20703 14.9286 7.90234L 16.2704 7.90234C 16.2547 8.29688 16.1317 8.66602 15.9012 9.00977C 15.6708 9.34961 15.3583 9.61914 14.9637 9.81836C 14.5692 10.0176 14.1434 10.1172 13.6864 10.1172C 12.7997 10.1172 12.0965 9.83008 11.577 9.25586C 11.0575 8.68164 10.7977 7.88867 10.7977 6.87695L 10.7977 6.73047C 10.7977 5.76562 11.0555 4.99414 11.5711 4.41602C 12.0868 3.83398 12.7899 3.54297 13.6805 3.54297C 14.4344 3.54297 15.0477 3.76367 15.5204 4.20508C 15.9969 4.64258 16.2469 5.21875 16.2704 5.93359L 14.9286 5.93359C 14.9129 5.57031 14.7879 5.27148 14.5536 5.03711C 14.3231 4.80273 14.0282 4.68555 13.6688 4.68555C 13.2079 4.68555 12.8524 4.85352 12.6024 5.18945C 12.3524 5.52148 12.2254 6.02734 12.2215 6.70703L 12.2215 6.93555C 12.2215 7.62305 12.3446 8.13672 12.5907 8.47656C 12.8407 8.8125 13.2001 8.98047 13.6688 8.98047ZM 19.1297 2.11914L 19.1297 3.66016L 20.2489 3.66016L 20.2489 4.71484L 19.1297 4.71484L 19.1297 8.25391C 19.1297 8.49609 19.1766 8.67188 19.2704 8.78125C 19.368 8.88672 19.5399 8.93945 19.786 8.93945C 19.9501 8.93945 20.1161 8.91992 20.284 8.88086L 20.284 9.98242C 19.9598 10.0723 19.6473 10.1172 19.3465 10.1172C 18.2528 10.1172 17.7059 9.51367 17.7059 8.30664L 17.7059 4.71484L 16.6629 4.71484L 16.6629 3.66016L 17.7059 3.66016L 17.7059 2.11914L 19.1297 2.11914ZM 22.8563 10L 21.4325 10L 21.4325 3.66016L 22.8563 3.66016L 22.8563 10ZM 21.3446 2.01367C 21.3446 1.79492 21.4129 1.61328 21.5497 1.46875C 21.6903 1.32422 21.8895 1.25195 22.1473 1.25195C 22.4051 1.25195 22.6043 1.32422 22.745 1.46875C 22.8856 1.61328 22.9559 1.79492 22.9559 2.01367C 22.9559 2.22852 22.8856 2.4082 22.745 2.55273C 22.6043 2.69336 22.4051 2.76367 22.1473 2.76367C 21.8895 2.76367 21.6903 2.69336 21.5497 2.55273C 21.4129 2.4082 21.3446 2.22852 21.3446 2.01367ZM 26.6473 8.19531L 27.9891 3.66016L 29.4598 3.66016L 27.2626 10L 26.0262 10L 23.8114 3.66016L 25.2879 3.66016L 26.6473 8.19531ZM 33.0633 10.1172C 32.161 10.1172 31.4286 9.83398 30.8661 9.26758C 30.3075 8.69727 30.0282 7.93945 30.0282 6.99414L 30.0282 6.81836C 30.0282 6.18555 30.1493 5.62109 30.3915 5.125C 30.6376 4.625 30.9813 4.23633 31.4227 3.95898C 31.8641 3.68164 32.3563 3.54297 32.8993 3.54297C 33.7626 3.54297 34.4286 3.81836 34.8973 4.36914C 35.37 4.91992 35.6063 5.69922 35.6063 6.70703L 35.6063 7.28125L 31.4637 7.28125C 31.5067 7.80469 31.6805 8.21875 31.9852 8.52344C 32.2938 8.82812 32.6805 8.98047 33.1454 8.98047C 33.7977 8.98047 34.329 8.7168 34.7391 8.18945L 35.5067 8.92188C 35.2528 9.30078 34.9129 9.5957 34.4872 9.80664C 34.0653 10.0137 33.5907 10.1172 33.0633 10.1172ZM 32.8934 4.68555C 32.5028 4.68555 32.1864 4.82227 31.9442 5.0957C 31.7059 5.36914 31.5536 5.75 31.4872 6.23828L 34.2001 6.23828L 34.2001 6.13281C 34.1688 5.65625 34.0418 5.29688 33.8192 5.05469C 33.5965 4.80859 33.2879 4.68555 32.8934 4.68555Z" transform="translate(48.085 43)" fill="white"/>
</g>
</g>
<g id="Views">
<path d="M 3.81445 9.50586L 6.25195 2.46875L 7.48242 2.46875L 4.31836 11L 3.32227 11L 0.164062 2.46875L 1.38867 2.46875L 3.81445 9.50586ZM 9.63867 11L 8.55469 11L 8.55469 4.66016L 9.63867 4.66016L 9.63867 11ZM 8.4668 2.97852C 8.4668 2.80273 8.51953 2.6543 8.625 2.5332C 8.73438 2.41211 8.89453 2.35156 9.10547 2.35156C 9.31641 2.35156 9.47656 2.41211 9.58594 2.5332C 9.69531 2.6543 9.75 2.80273 9.75 2.97852C 9.75 3.1543 9.69531 3.30078 9.58594 3.41797C 9.47656 3.53516 9.31641 3.59375 9.10547 3.59375C 8.89453 3.59375 8.73438 3.53516 8.625 3.41797C 8.51953 3.30078 8.4668 3.1543 8.4668 2.97852ZM 14.0098 11.1172C 13.1504 11.1172 12.4512 10.8359 11.9121 10.2734C 11.373 9.70703 11.1035 8.95117 11.1035 8.00586L 11.1035 7.80664C 11.1035 7.17773 11.2227 6.61719 11.4609 6.125C 11.7031 5.62891 12.0391 5.24219 12.4688 4.96484C 12.9023 4.68359 13.3711 4.54297 13.875 4.54297C 14.6992 4.54297 15.3398 4.81445 15.7969 5.35742C 16.2539 5.90039 16.4824 6.67773 16.4824 7.68945L 16.4824 8.14062L 12.1875 8.14062C 12.2031 8.76562 12.3848 9.27148 12.7324 9.6582C 13.084 10.041 13.5293 10.2324 14.0684 10.2324C 14.4512 10.2324 14.7754 10.1543 15.041 9.99805C 15.3066 9.8418 15.5391 9.63477 15.7383 9.37695L 16.4004 9.89258C 15.8691 10.709 15.0723 11.1172 14.0098 11.1172ZM 13.875 5.43359C 13.4375 5.43359 13.0703 5.59375 12.7734 5.91406C 12.4766 6.23047 12.293 6.67578 12.2227 7.25L 15.3984 7.25L 15.3984 7.16797C 15.3672 6.61719 15.2188 6.19141 14.9531 5.89062C 14.6875 5.58594 14.3281 5.43359 13.875 5.43359ZM 23.3555 9.50586L 24.5742 4.66016L 25.6582 4.66016L 23.8125 11L 22.9336 11L 21.3926 6.19531L 19.8926 11L 19.0137 11L 17.1738 4.66016L 18.252 4.66016L 19.5 9.40625L 20.9766 4.66016L 21.8496 4.66016L 23.3555 9.50586ZM 30.457 9.31836C 30.457 9.02539 30.3457 8.79883 30.123 8.63867C 29.9043 8.47461 29.5195 8.33398 28.9688 8.2168C 28.4219 8.09961 27.9863 7.95898 27.6621 7.79492C 27.3418 7.63086 27.1035 7.43555 26.9473 7.20898C 26.7949 6.98242 26.7188 6.71289 26.7188 6.40039C 26.7188 5.88086 26.9375 5.44141 27.375 5.08203C 27.8164 4.72266 28.3789 4.54297 29.0625 4.54297C 29.7812 4.54297 30.3633 4.72852 30.8086 5.09961C 31.2578 5.4707 31.4824 5.94531 31.4824 6.52344L 30.3926 6.52344C 30.3926 6.22656 30.2656 5.9707 30.0117 5.75586C 29.7617 5.54102 29.4453 5.43359 29.0625 5.43359C 28.668 5.43359 28.3594 5.51953 28.1367 5.69141C 27.9141 5.86328 27.8027 6.08789 27.8027 6.36523C 27.8027 6.62695 27.9062 6.82422 28.1133 6.95703C 28.3203 7.08984 28.6934 7.2168 29.2324 7.33789C 29.7754 7.45898 30.2148 7.60352 30.5508 7.77148C 30.8867 7.93945 31.1348 8.14258 31.2949 8.38086C 31.459 8.61523 31.541 8.90234 31.541 9.24219C 31.541 9.80859 31.3145 10.2637 30.8613 10.6074C 30.4082 10.9473 29.8203 11.1172 29.0977 11.1172C 28.5898 11.1172 28.1406 11.0273 27.75 10.8477C 27.3594 10.668 27.0527 10.418 26.8301 10.0977C 26.6113 9.77344 26.502 9.42383 26.502 9.04883L 27.5859 9.04883C 27.6055 9.41211 27.75 9.70117 28.0195 9.91602C 28.293 10.127 28.6523 10.2324 29.0977 10.2324C 29.5078 10.2324 29.8359 10.1504 30.082 9.98633C 30.332 9.81836 30.457 9.5957 30.457 9.31836Z" transform="translate(44 124.816)" fill="#78909C"/>
</g>
<g id="Clicks">
<path d="M 7.26562 8.29297C 7.16016 9.19531 6.82617 9.89258 6.26367 10.3848C 5.70508 10.873 4.96094 11.1172 4.03125 11.1172C 3.02344 11.1172 2.21484 10.7559 1.60547 10.0332C 1 9.31055 0.697266 8.34375 0.697266 7.13281L 0.697266 6.3125C 0.697266 5.51953 0.837891 4.82227 1.11914 4.2207C 1.4043 3.61914 1.80664 3.1582 2.32617 2.83789C 2.8457 2.51367 3.44727 2.35156 4.13086 2.35156C 5.03711 2.35156 5.76367 2.60547 6.31055 3.11328C 6.85742 3.61719 7.17578 4.31641 7.26562 5.21094L 6.13477 5.21094C 6.03711 4.53125 5.82422 4.03906 5.49609 3.73438C 5.17188 3.42969 4.7168 3.27734 4.13086 3.27734C 3.41211 3.27734 2.84766 3.54297 2.4375 4.07422C 2.03125 4.60547 1.82812 5.36133 1.82812 6.3418L 1.82812 7.16797C 1.82812 8.09375 2.02148 8.83008 2.4082 9.37695C 2.79492 9.92383 3.33594 10.1973 4.03125 10.1973C 4.65625 10.1973 5.13477 10.0566 5.4668 9.77539C 5.80273 9.49023 6.02539 8.99609 6.13477 8.29297L 7.26562 8.29297ZM 9.81445 11L 8.73047 11L 8.73047 2L 9.81445 2L 9.81445 11ZM 12.7324 11L 11.6484 11L 11.6484 4.66016L 12.7324 4.66016L 12.7324 11ZM 11.5605 2.97852C 11.5605 2.80273 11.6133 2.6543 11.7188 2.5332C 11.8281 2.41211 11.9883 2.35156 12.1992 2.35156C 12.4102 2.35156 12.5703 2.41211 12.6797 2.5332C 12.7891 2.6543 12.8438 2.80273 12.8438 2.97852C 12.8438 3.1543 12.7891 3.30078 12.6797 3.41797C 12.5703 3.53516 12.4102 3.59375 12.1992 3.59375C 11.9883 3.59375 11.8281 3.53516 11.7188 3.41797C 11.6133 3.30078 11.5605 3.1543 11.5605 2.97852ZM 17.0156 10.2324C 17.4023 10.2324 17.7402 10.1152 18.0293 9.88086C 18.3184 9.64648 18.4785 9.35352 18.5098 9.00195L 19.5352 9.00195C 19.5156 9.36523 19.3906 9.71094 19.1602 10.0391C 18.9297 10.3672 18.6211 10.6289 18.2344 10.8242C 17.8516 11.0195 17.4453 11.1172 17.0156 11.1172C 16.1523 11.1172 15.4648 10.8301 14.9531 10.2559C 14.4453 9.67773 14.1914 8.88867 14.1914 7.88867L 14.1914 7.70703C 14.1914 7.08984 14.3047 6.54102 14.5312 6.06055C 14.7578 5.58008 15.082 5.20703 15.5039 4.94141C 15.9297 4.67578 16.4316 4.54297 17.0098 4.54297C 17.7207 4.54297 18.3105 4.75586 18.7793 5.18164C 19.252 5.60742 19.5039 6.16016 19.5352 6.83984L 18.5098 6.83984C 18.4785 6.42969 18.3223 6.09375 18.041 5.83203C 17.7637 5.56641 17.4199 5.43359 17.0098 5.43359C 16.459 5.43359 16.0312 5.63281 15.7266 6.03125C 15.4258 6.42578 15.2754 6.99805 15.2754 7.74805L 15.2754 7.95312C 15.2754 8.68359 15.4258 9.24609 15.7266 9.64062C 16.0273 10.0352 16.457 10.2324 17.0156 10.2324ZM 22.5234 8.06445L 21.8438 8.77344L 21.8438 11L 20.7598 11L 20.7598 2L 21.8438 2L 21.8438 7.44336L 22.4238 6.74609L 24.3984 4.66016L 25.7168 4.66016L 23.25 7.30859L 26.0039 11L 24.7324 11L 22.5234 8.06445ZM 30.5273 9.31836C 30.5273 9.02539 30.416 8.79883 30.1934 8.63867C 29.9746 8.47461 29.5898 8.33398 29.0391 8.2168C 28.4922 8.09961 28.0566 7.95898 27.7324 7.79492C 27.4121 7.63086 27.1738 7.43555 27.0176 7.20898C 26.8652 6.98242 26.7891 6.71289 26.7891 6.40039C 26.7891 5.88086 27.0078 5.44141 27.4453 5.08203C 27.8867 4.72266 28.4492 4.54297 29.1328 4.54297C 29.8516 4.54297 30.4336 4.72852 30.8789 5.09961C 31.3281 5.4707 31.5527 5.94531 31.5527 6.52344L 30.4629 6.52344C 30.4629 6.22656 30.3359 5.9707 30.082 5.75586C 29.832 5.54102 29.5156 5.43359 29.1328 5.43359C 28.7383 5.43359 28.4297 5.51953 28.207 5.69141C 27.9844 5.86328 27.873 6.08789 27.873 6.36523C 27.873 6.62695 27.9766 6.82422 28.1836 6.95703C 28.3906 7.08984 28.7637 7.2168 29.3027 7.33789C 29.8457 7.45898 30.2852 7.60352 30.6211 7.77148C 30.957 7.93945 31.2051 8.14258 31.3652 8.38086C 31.5293 8.61523 31.6113 8.90234 31.6113 9.24219C 31.6113 9.80859 31.3848 10.2637 30.9316 10.6074C 30.4785 10.9473 29.8906 11.1172 29.168 11.1172C 28.6602 11.1172 28.2109 11.0273 27.8203 10.8477C 27.4297 10.668 27.123 10.418 26.9004 10.0977C 26.6816 9.77344 26.5723 9.42383 26.5723 9.04883L 27.6562 9.04883C 27.6758 9.41211 27.8203 9.70117 28.0898 9.91602C 28.3633 10.127 28.7227 10.2324 29.168 10.2324C 29.5781 10.2324 29.9062 10.1504 30.1523 9.98633C 30.4023 9.81836 30.5273 9.5957 30.5273 9.31836Z" transform="translate(154 124.816)" fill="#78909C"/>
</g>
<g id="Top bar">
<path d="M 6.88477 3.39453L 4.14258 3.39453L 4.14258 11L 3.02344 11L 3.02344 3.39453L 0.287109 3.39453L 0.287109 2.46875L 6.88477 2.46875L 6.88477 3.39453ZM 7.10742 7.77148C 7.10742 7.15039 7.22852 6.5918 7.4707 6.0957C 7.7168 5.59961 8.05664 5.2168 8.49023 4.94727C 8.92773 4.67773 9.42578 4.54297 9.98438 4.54297C 10.8477 4.54297 11.5449 4.8418 12.0762 5.43945C 12.6113 6.03711 12.8789 6.83203 12.8789 7.82422L 12.8789 7.90039C 12.8789 8.51758 12.7598 9.07227 12.5215 9.56445C 12.2871 10.0527 11.9492 10.4336 11.5078 10.707C 11.0703 10.9805 10.5664 11.1172 9.99609 11.1172C 9.13672 11.1172 8.43945 10.8184 7.9043 10.2207C 7.37305 9.62305 7.10742 8.83203 7.10742 7.84766L 7.10742 7.77148ZM 8.19727 7.90039C 8.19727 8.60352 8.35938 9.16797 8.68359 9.59375C 9.01172 10.0195 9.44922 10.2324 9.99609 10.2324C 10.5469 10.2324 10.9844 10.0176 11.3086 9.58789C 11.6328 9.1543 11.7949 8.54883 11.7949 7.77148C 11.7949 7.07617 11.6289 6.51367 11.2969 6.08398C 10.9688 5.65039 10.5312 5.43359 9.98438 5.43359C 9.44922 5.43359 9.01758 5.64648 8.68945 6.07227C 8.36133 6.49805 8.19727 7.10742 8.19727 7.90039ZM 19.5938 7.90039C 19.5938 8.86523 19.373 9.64258 18.9316 10.2324C 18.4902 10.8223 17.8926 11.1172 17.1387 11.1172C 16.3691 11.1172 15.7637 10.873 15.3223 10.3848L 15.3223 13.4375L 14.2383 13.4375L 14.2383 4.66016L 15.2285 4.66016L 15.2812 5.36328C 15.7227 4.81641 16.3359 4.54297 17.1211 4.54297C 17.8828 4.54297 18.4844 4.83008 18.9258 5.4043C 19.3711 5.97852 19.5938 6.77734 19.5938 7.80078L 19.5938 7.90039ZM 18.5098 7.77734C 18.5098 7.0625 18.3574 6.49805 18.0527 6.08398C 17.748 5.66992 17.3301 5.46289 16.7988 5.46289C 16.1426 5.46289 15.6504 5.75391 15.3223 6.33594L 15.3223 9.36523C 15.6465 9.94336 16.1426 10.2324 16.8105 10.2324C 17.3301 10.2324 17.7422 10.0273 18.0469 9.61719C 18.3555 9.20312 18.5098 8.58984 18.5098 7.77734ZM 29.3203 7.90039C 29.3203 8.86914 29.0977 9.64844 28.6523 10.2383C 28.207 10.8242 27.6094 11.1172 26.8594 11.1172C 26.0586 11.1172 25.4395 10.834 25.002 10.2676L 24.9492 11L 23.9531 11L 23.9531 2L 25.0371 2L 25.0371 5.35742C 25.4746 4.81445 26.0781 4.54297 26.8477 4.54297C 27.6172 4.54297 28.2207 4.83398 28.6582 5.41602C 29.0996 5.99805 29.3203 6.79492 29.3203 7.80664L 29.3203 7.90039ZM 28.2363 7.77734C 28.2363 7.03906 28.0938 6.46875 27.8086 6.06641C 27.5234 5.66406 27.1133 5.46289 26.5781 5.46289C 25.8633 5.46289 25.3496 5.79492 25.0371 6.45898L 25.0371 9.20117C 25.3691 9.86523 25.8867 10.1973 26.5898 10.1973C 27.1094 10.1973 27.5137 9.99609 27.8027 9.59375C 28.0918 9.19141 28.2363 8.58594 28.2363 7.77734ZM 34.6055 11C 34.543 10.875 34.4922 10.6523 34.4531 10.332C 33.9492 10.8555 33.3477 11.1172 32.6484 11.1172C 32.0234 11.1172 31.5098 10.9414 31.1074 10.5898C 30.709 10.2344 30.5098 9.78516 30.5098 9.24219C 30.5098 8.58203 30.7598 8.07031 31.2598 7.70703C 31.7637 7.33984 32.4707 7.15625 33.3809 7.15625L 34.4355 7.15625L 34.4355 6.6582C 34.4355 6.2793 34.3223 5.97852 34.0957 5.75586C 33.8691 5.5293 33.5352 5.41602 33.0938 5.41602C 32.707 5.41602 32.3828 5.51367 32.1211 5.70898C 31.8594 5.9043 31.7285 6.14062 31.7285 6.41797L 30.6387 6.41797C 30.6387 6.10156 30.75 5.79688 30.9727 5.50391C 31.1992 5.20703 31.5039 4.97266 31.8867 4.80078C 32.2734 4.62891 32.6973 4.54297 33.1582 4.54297C 33.8887 4.54297 34.4609 4.72656 34.875 5.09375C 35.2891 5.45703 35.5039 5.95898 35.5195 6.59961L 35.5195 9.51758C 35.5195 10.0996 35.5938 10.5625 35.7422 10.9062L 35.7422 11L 34.6055 11ZM 32.8066 10.1738C 33.1465 10.1738 33.4688 10.0859 33.7734 9.91016C 34.0781 9.73438 34.2988 9.50586 34.4355 9.22461L 34.4355 7.92383L 33.5859 7.92383C 32.2578 7.92383 31.5938 8.3125 31.5938 9.08984C 31.5938 9.42969 31.707 9.69531 31.9336 9.88672C 32.1602 10.0781 32.4512 10.1738 32.8066 10.1738ZM 40.2832 5.63281C 40.1191 5.60547 39.9414 5.5918 39.75 5.5918C 39.0391 5.5918 38.5566 5.89453 38.3027 6.5L 38.3027 11L 37.2188 11L 37.2188 4.66016L 38.2734 4.66016L 38.291 5.39258C 38.6465 4.82617 39.1504 4.54297 39.8027 4.54297C 40.0137 4.54297 40.1738 4.57031 40.2832 4.625L 40.2832 5.63281Z" transform="translate(100 42.8159)" fill="#78909C"/>
</g>
<g id="Conversion">
<path d="M 8.25391 8.29297C 8.14844 9.19531 7.81445 9.89258 7.25195 10.3848C 6.69336 10.873 5.94922 11.1172 5.01953 11.1172C 4.01172 11.1172 3.20312 10.7559 2.59375 10.0332C 1.98828 9.31055 1.68555 8.34375 1.68555 7.13281L 1.68555 6.3125C 1.68555 5.51953 1.82617 4.82227 2.10742 4.2207C 2.39258 3.61914 2.79492 3.1582 3.31445 2.83789C 3.83398 2.51367 4.43555 2.35156 5.11914 2.35156C 6.02539 2.35156 6.75195 2.60547 7.29883 3.11328C 7.8457 3.61719 8.16406 4.31641 8.25391 5.21094L 7.12305 5.21094C 7.02539 4.53125 6.8125 4.03906 6.48438 3.73438C 6.16016 3.42969 5.70508 3.27734 5.11914 3.27734C 4.40039 3.27734 3.83594 3.54297 3.42578 4.07422C 3.01953 4.60547 2.81641 5.36133 2.81641 6.3418L 2.81641 7.16797C 2.81641 8.09375 3.00977 8.83008 3.39648 9.37695C 3.7832 9.92383 4.32422 10.1973 5.01953 10.1973C 5.64453 10.1973 6.12305 10.0566 6.45508 9.77539C 6.79102 9.49023 7.01367 8.99609 7.12305 8.29297L 8.25391 8.29297ZM 9.33789 7.77148C 9.33789 7.15039 9.45898 6.5918 9.70117 6.0957C 9.94727 5.59961 10.2871 5.2168 10.7207 4.94727C 11.1582 4.67773 11.6562 4.54297 12.2148 4.54297C 13.0781 4.54297 13.7754 4.8418 14.3066 5.43945C 14.8418 6.03711 15.1094 6.83203 15.1094 7.82422L 15.1094 7.90039C 15.1094 8.51758 14.9902 9.07227 14.752 9.56445C 14.5176 10.0527 14.1797 10.4336 13.7383 10.707C 13.3008 10.9805 12.7969 11.1172 12.2266 11.1172C 11.3672 11.1172 10.6699 10.8184 10.1348 10.2207C 9.60352 9.62305 9.33789 8.83203 9.33789 7.84766L 9.33789 7.77148ZM 10.4277 7.90039C 10.4277 8.60352 10.5898 9.16797 10.9141 9.59375C 11.2422 10.0195 11.6797 10.2324 12.2266 10.2324C 12.7773 10.2324 13.2148 10.0176 13.5391 9.58789C 13.8633 9.1543 14.0254 8.54883 14.0254 7.77148C 14.0254 7.07617 13.8594 6.51367 13.5273 6.08398C 13.1992 5.65039 12.7617 5.43359 12.2148 5.43359C 11.6797 5.43359 11.248 5.64648 10.9199 6.07227C 10.5918 6.49805 10.4277 7.10742 10.4277 7.90039ZM 17.4941 4.66016L 17.5293 5.45703C 18.0137 4.84766 18.6465 4.54297 19.4277 4.54297C 20.7676 4.54297 21.4434 5.29883 21.4551 6.81055L 21.4551 11L 20.3711 11L 20.3711 6.80469C 20.3672 6.34766 20.2617 6.00977 20.0547 5.79102C 19.8516 5.57227 19.5332 5.46289 19.0996 5.46289C 18.748 5.46289 18.4395 5.55664 18.1738 5.74414C 17.9082 5.93164 17.7012 6.17773 17.5527 6.48242L 17.5527 11L 16.4688 11L 16.4688 4.66016L 17.4941 4.66016ZM 25.1816 9.5293L 26.752 4.66016L 27.8594 4.66016L 25.5859 11L 24.7598 11L 22.4629 4.66016L 23.5703 4.66016L 25.1816 9.5293ZM 31.4512 11.1172C 30.5918 11.1172 29.8926 10.8359 29.3535 10.2734C 28.8145 9.70703 28.5449 8.95117 28.5449 8.00586L 28.5449 7.80664C 28.5449 7.17773 28.6641 6.61719 28.9023 6.125C 29.1445 5.62891 29.4805 5.24219 29.9102 4.96484C 30.3438 4.68359 30.8125 4.54297 31.3164 4.54297C 32.1406 4.54297 32.7812 4.81445 33.2383 5.35742C 33.6953 5.90039 33.9238 6.67773 33.9238 7.68945L 33.9238 8.14062L 29.6289 8.14062C 29.6445 8.76562 29.8262 9.27148 30.1738 9.6582C 30.5254 10.041 30.9707 10.2324 31.5098 10.2324C 31.8926 10.2324 32.2168 10.1543 32.4824 9.99805C 32.748 9.8418 32.9805 9.63477 33.1797 9.37695L 33.8418 9.89258C 33.3105 10.709 32.5137 11.1172 31.4512 11.1172ZM 31.3164 5.43359C 30.8789 5.43359 30.5117 5.59375 30.2148 5.91406C 29.918 6.23047 29.7344 6.67578 29.6641 7.25L 32.8398 7.25L 32.8398 7.16797C 32.8086 6.61719 32.6602 6.19141 32.3945 5.89062C 32.1289 5.58594 31.7695 5.43359 31.3164 5.43359ZM 38.248 5.63281C 38.084 5.60547 37.9062 5.5918 37.7148 5.5918C 37.0039 5.5918 36.5215 5.89453 36.2676 6.5L 36.2676 11L 35.1836 11L 35.1836 4.66016L 36.2383 4.66016L 36.2559 5.39258C 36.6113 4.82617 37.1152 4.54297 37.7676 4.54297C 37.9785 4.54297 38.1387 4.57031 38.248 4.625L 38.248 5.63281ZM 42.9414 9.31836C 42.9414 9.02539 42.8301 8.79883 42.6074 8.63867C 42.3887 8.47461 42.0039 8.33398 41.4531 8.2168C 40.9062 8.09961 40.4707 7.95898 40.1465 7.79492C 39.8262 7.63086 39.5879 7.43555 39.4316 7.20898C 39.2793 6.98242 39.2031 6.71289 39.2031 6.40039C 39.2031 5.88086 39.4219 5.44141 39.8594 5.08203C 40.3008 4.72266 40.8633 4.54297 41.5469 4.54297C 42.2656 4.54297 42.8477 4.72852 43.293 5.09961C 43.7422 5.4707 43.9668 5.94531 43.9668 6.52344L 42.877 6.52344C 42.877 6.22656 42.75 5.9707 42.4961 5.75586C 42.2461 5.54102 41.9297 5.43359 41.5469 5.43359C 41.1523 5.43359 40.8438 5.51953 40.6211 5.69141C 40.3984 5.86328 40.2871 6.08789 40.2871 6.36523C 40.2871 6.62695 40.3906 6.82422 40.5977 6.95703C 40.8047 7.08984 41.1777 7.2168 41.7168 7.33789C 42.2598 7.45898 42.6992 7.60352 43.0352 7.77148C 43.3711 7.93945 43.6191 8.14258 43.7793 8.38086C 43.9434 8.61523 44.0254 8.90234 44.0254 9.24219C 44.0254 9.80859 43.7988 10.2637 43.3457 10.6074C 42.8926 10.9473 42.3047 11.1172 41.582 11.1172C 41.0742 11.1172 40.625 11.0273 40.2344 10.8477C 39.8438 10.668 39.5371 10.418 39.3145 10.0977C 39.0957 9.77344 38.9863 9.42383 38.9863 9.04883L 40.0703 9.04883C 40.0898 9.41211 40.2344 9.70117 40.5039 9.91602C 40.7773 10.127 41.1367 10.2324 41.582 10.2324C 41.9922 10.2324 42.3203 10.1504 42.5664 9.98633C 42.8164 9.81836 42.9414 9.5957 42.9414 9.31836ZM 46.6152 11L 45.5312 11L 45.5312 4.66016L 46.6152 4.66016L 46.6152 11ZM 45.4434 2.97852C 45.4434 2.80273 45.4961 2.6543 45.6016 2.5332C 45.7109 2.41211 45.8711 2.35156 46.082 2.35156C 46.293 2.35156 46.4531 2.41211 46.5625 2.5332C 46.6719 2.6543 46.7266 2.80273 46.7266 2.97852C 46.7266 3.1543 46.6719 3.30078 46.5625 3.41797C 46.4531 3.53516 46.293 3.59375 46.082 3.59375C 45.8711 3.59375 45.7109 3.53516 45.6016 3.41797C 45.4961 3.30078 45.4434 3.1543 45.4434 2.97852ZM 48.0684 7.77148C 48.0684 7.15039 48.1895 6.5918 48.4316 6.0957C 48.6777 5.59961 49.0176 5.2168 49.4512 4.94727C 49.8887 4.67773 50.3867 4.54297 50.9453 4.54297C 51.8086 4.54297 52.5059 4.8418 53.0371 5.43945C 53.5723 6.03711 53.8398 6.83203 53.8398 7.82422L 53.8398 7.90039C 53.8398 8.51758 53.7207 9.07227 53.4824 9.56445C 53.248 10.0527 52.9102 10.4336 52.4688 10.707C 52.0312 10.9805 51.5273 11.1172 50.957 11.1172C 50.0977 11.1172 49.4004 10.8184 48.8652 10.2207C 48.334 9.62305 48.0684 8.83203 48.0684 7.84766L 48.0684 7.77148ZM 49.1582 7.90039C 49.1582 8.60352 49.3203 9.16797 49.6445 9.59375C 49.9727 10.0195 50.4102 10.2324 50.957 10.2324C 51.5078 10.2324 51.9453 10.0176 52.2695 9.58789C 52.5938 9.1543 52.7559 8.54883 52.7559 7.77148C 52.7559 7.07617 52.5898 6.51367 52.2578 6.08398C 51.9297 5.65039 51.4922 5.43359 50.9453 5.43359C 50.4102 5.43359 49.9785 5.64648 49.6504 6.07227C 49.3223 6.49805 49.1582 7.10742 49.1582 7.90039ZM 56.2246 4.66016L 56.2598 5.45703C 56.7441 4.84766 57.377 4.54297 58.1582 4.54297C 59.498 4.54297 60.1738 5.29883 60.1855 6.81055L 60.1855 11L 59.1016 11L 59.1016 6.80469C 59.0977 6.34766 58.9922 6.00977 58.7852 5.79102C 58.582 5.57227 58.2637 5.46289 57.8301 5.46289C 57.4785 5.46289 57.1699 5.55664 56.9043 5.74414C 56.6387 5.93164 56.4316 6.17773 56.2832 6.48242L 56.2832 11L 55.1992 11L 55.1992 4.66016L 56.2246 4.66016Z" transform="translate(235 124.816)" fill="#78909C"/>
</g>
</g>
</g>
</g>
<defs>
<filter id="filter0_d" x="0" y="0.815918" width="340" height="194" filterUnits="userSpaceOnUse" color-interpolation-filters="sRGB">
<feFlood flood-opacity="0" result="BackgroundImageFix"/>
<feColorMatrix in="SourceAlpha" type="matrix" values="0 0 0 0 0 0 0 0 0 0 0 0 0 0 0 0 0 0 255 0"/>
<feOffset dy="4"/>
<feGaussianBlur stdDeviation="10"/>
<feColorMatrix type="matrix" values="0 0 0 0 0 0 0 0 0 0 0 0 0 0 0 0 0 0 0.1 0"/>
<feBlend mode="normal" in2="BackgroundImageFix" result="effect1_dropShadow"/>
<feBlend mode="normal" in="SourceGraphic" in2="effect1_dropShadow" result="shape"/>
</filter>

</defs>
</svg>

