<svg width="32" height="32" viewBox="0 0 32 32" version="1.1" xmlns="http://www.w3.org/2000/svg" xmlns:xlink="http://www.w3.org/1999/xlink">
<g id="Canvas" fill="none">
<g id="chat (1)">
<g id="Group">
<g id="Group_2">
<g id="Vector">
<path d="M 17.8126 -2.36513e-07L 2.81249 -2.36513e-07C 1.26162 -2.36513e-07 3.73856e-07 1.26157 3.73856e-07 2.8124L 3.73856e-07 14.062C 3.73856e-07 15.6129 1.26162 16.8744 2.81249 16.8744L 9.92435 16.8744L 13.3997 20.3497C 13.9875 20.9375 15 20.5249 15 19.6868L 15 16.8744L 17.8125 16.8744C 19.3634 16.8744 20.625 15.6129 20.625 14.062L 20.625 2.81246C 20.6251 1.26163 19.3635 -2.36513e-07 17.8126 -2.36513e-07ZM 14.0626 4.68735C 14.5804 4.68735 15.0001 5.1071 15.0001 5.62479C 15.0001 6.14249 14.5803 6.56224 14.0626 6.56224C 13.5449 6.56224 13.1251 6.14249 13.1251 5.62479C 13.1251 5.1071 13.5448 4.68735 14.0626 4.68735ZM 6.56252 4.68735C 7.08029 4.68735 7.5 5.1071 7.5 5.62479C 7.5 6.14249 7.08023 6.56224 6.56252 6.56224C 6.04481 6.56224 5.62505 6.14261 5.62505 5.62485C 5.62505 5.1071 6.04481 4.68735 6.56252 4.68735ZM 14.9524 11.2021C 13.7146 12.4398 12.0676 13.1219 10.3126 13.1219C 8.55748 13.1219 6.91041 12.4398 5.67267 11.2021C 5.30647 10.8359 5.30647 10.2426 5.67267 9.87645C 6.03888 9.51026 6.63215 9.51026 6.99835 9.87645C 8.7653 11.6433 11.8598 11.6433 13.6268 9.87645C 13.993 9.51026 14.5863 9.51026 14.9525 9.87645C 15.3187 10.2426 15.3186 10.8359 14.9524 11.2021Z" transform="translate(11.375 11.3745)" fill="#A300BB"/>
</g>
</g>
</g>
<g id="Group_3">
<g id="Group_4">
<g id="Vector_2">
<path d="M 17.8126 0L 2.81249 0C 1.26161 0 0 1.26157 0 2.81238L 0 14.062C 0 15.6128 1.26161 16.8744 2.81249 16.8744L 5.62498 16.8744L 5.62498 19.6867C 5.62498 20.5227 6.63896 20.9359 7.2253 20.3496L 9.37501 18.1999L 9.37501 14.0619C 9.37501 11.4775 11.478 9.37459 14.0625 9.37459L 20.625 9.37459L 20.625 2.81238C 20.6251 1.26157 19.3634 0 17.8126 0ZM 6.56252 7.49977C 6.04475 7.49977 5.62505 7.08002 5.62505 6.56233C 5.62505 6.04464 6.04481 5.62489 6.56252 5.62489C 7.08023 5.62489 7.5 6.04464 7.5 6.56233C 7.5 7.08002 7.08023 7.49977 6.56252 7.49977ZM 10.3126 7.49977C 9.79478 7.49977 9.37508 7.08002 9.37508 6.56233C 9.37508 6.04464 9.79484 5.62489 10.3126 5.62489C 10.8303 5.62489 11.25 6.04464 11.25 6.56233C 11.25 7.08002 10.8302 7.49977 10.3126 7.49977ZM 14.0626 7.49977C 13.5448 7.49977 13.1251 7.08002 13.1251 6.56233C 13.1251 6.04464 13.5449 5.62489 14.0626 5.62489C 14.5803 5.62489 15.0001 6.04464 15.0001 6.56233C 15.0001 7.08002 14.5803 7.49977 14.0626 7.49977Z" fill="#A300BB"/>
</g>
</g>
</g>
</g>
</g>
</svg>

