<svg width="1813" height="503" viewBox="0 0 1813 503" version="1.1" xmlns="http://www.w3.org/2000/svg" xmlns:xlink="http://www.w3.org/1999/xlink">
<g id="Canvas" fill="none">
<g id="Group 2.16">
<g id="Group 2" style="mix-blend-mode:multiply">
<g id="Group">
<g id="Group_2">
<g id="Group_3">
<g id="Vector">
<path d="M 92.7132 -2.39843e-06L 4.81187e-06 -2.39843e-06L 4.81187e-06 138.322L 92.7132 138.322L 92.7132 -2.39843e-06Z" transform="translate(622.287 319.678)" fill="url(#paint0_linear)"/>
</g>
<g id="Vector_2">
<path d="M 35.6347 20.4339L 35.6347 0L 28.3816 0L 28.3816 20.4339L 0 20.4339L 0 212.198L 110.688 212.198L 110.688 20.4339L 35.6347 20.4339Z" transform="translate(487 237)" fill="url(#paint1_linear)"/>
</g>
</g>
<g id="Vector_3">
<path d="M 21.4439 0L 0 0L 0 9.11664L 21.4439 9.11664L 21.4439 0Z" transform="translate(500.877 273.152)" fill="white"/>
</g>
<g id="Vector_4">
<path d="M 21.4439 0L 0 0L 0 9.11664L 21.4439 9.11664L 21.4439 0Z" transform="translate(532.094 273.152)" fill="white"/>
</g>
<g id="Vector_5">
<path d="M 21.4439 0L 2.40594e-06 0L 2.40594e-06 9.11664L 21.4439 9.11664L 21.4439 0Z" transform="translate(563.316 273.152)" fill="white"/>
</g>
<g id="Vector_6">
<path d="M 21.4439 0L 0 0L 0 9.11664L 21.4439 9.11664L 21.4439 0Z" transform="translate(500.877 290.442)" fill="white"/>
</g>
<g id="Vector_7">
<path d="M 21.4439 0L 0 0L 0 9.11664L 21.4439 9.11664L 21.4439 0Z" transform="translate(532.094 290.442)" fill="white"/>
</g>
<g id="Vector_8">
<path d="M 21.4439 0L 2.40594e-06 0L 2.40594e-06 9.11664L 21.4439 9.11664L 21.4439 0Z" transform="translate(563.316 290.442)" fill="white"/>
</g>
<g id="Vector_9">
<path d="M 21.4439 0L 0 0L 0 9.11664L 21.4439 9.11664L 21.4439 0Z" transform="translate(500.877 307.418)" fill="white"/>
</g>
<g id="Vector_10">
<path d="M 21.4439 0L 0 0L 0 9.11664L 21.4439 9.11664L 21.4439 0Z" transform="translate(532.094 307.418)" fill="white"/>
</g>
<g id="Vector_11">
<path d="M 21.4439 0L 2.40594e-06 0L 2.40594e-06 9.11664L 21.4439 9.11664L 21.4439 0Z" transform="translate(563.316 307.418)" fill="white"/>
</g>
<g id="Vector_12">
<path d="M 21.4439 -2.39843e-06L 0 -2.39843e-06L 0 9.11665L 21.4439 9.11665L 21.4439 -2.39843e-06Z" transform="translate(500.877 324.394)" fill="white"/>
</g>
<g id="Vector_13">
<path d="M 21.4439 -2.39843e-06L 0 -2.39843e-06L 0 9.11665L 21.4439 9.11665L 21.4439 -2.39843e-06Z" transform="translate(532.094 324.394)" fill="white"/>
</g>
<g id="Vector_14">
<path d="M 21.4439 -2.39843e-06L 2.40594e-06 -2.39843e-06L 2.40594e-06 9.11665L 21.4439 9.11665L 21.4439 -2.39843e-06Z" transform="translate(563.316 324.394)" fill="white"/>
</g>
<g id="Vector_15">
<path d="M 21.4439 2.39843e-06L 0 2.39843e-06L 0 9.11664L 21.4439 9.11664L 21.4439 2.39843e-06Z" transform="translate(500.877 341.37)" fill="white"/>
</g>
<g id="Vector_16">
<path d="M 21.4439 2.39843e-06L 0 2.39843e-06L 0 9.11664L 21.4439 9.11664L 21.4439 2.39843e-06Z" transform="translate(532.094 341.37)" fill="white"/>
</g>
<g id="Vector_17">
<path d="M 21.4439 2.39843e-06L 2.40594e-06 2.39843e-06L 2.40594e-06 9.11664L 21.4439 9.11664L 21.4439 2.39843e-06Z" transform="translate(563.316 341.37)" fill="white"/>
</g>
<g id="Vector_18">
<path d="M 21.4439 -4.79686e-06L 0 -4.79686e-06L 0 9.11664L 21.4439 9.11664L 21.4439 -4.79686e-06Z" transform="translate(500.877 358.346)" fill="white"/>
</g>
<g id="Vector_19">
<path d="M 21.4439 -4.79686e-06L 0 -4.79686e-06L 0 9.11664L 21.4439 9.11664L 21.4439 -4.79686e-06Z" transform="translate(532.094 358.346)" fill="white"/>
</g>
<g id="Vector_20">
<path d="M 21.4439 -4.79686e-06L 2.40594e-06 -4.79686e-06L 2.40594e-06 9.11664L 21.4439 9.11664L 21.4439 -4.79686e-06Z" transform="translate(563.316 358.346)" fill="white"/>
</g>
<g id="Vector_21">
<path d="M 21.4439 0L 0 0L 0 9.11665L 21.4439 9.11665L 21.4439 0Z" transform="translate(500.877 375.322)" fill="white"/>
</g>
<g id="Vector_22">
<path d="M 21.4439 0L 0 0L 0 9.11665L 21.4439 9.11665L 21.4439 0Z" transform="translate(532.094 375.322)" fill="white"/>
</g>
<g id="Vector_23">
<path d="M 21.4439 0L 2.40594e-06 0L 2.40594e-06 9.11665L 21.4439 9.11665L 21.4439 0Z" transform="translate(563.316 375.322)" fill="white"/>
</g>
<g id="Vector_24">
<path d="M 21.4439 4.79686e-06L 0 4.79686e-06L 0 9.11664L 21.4439 9.11664L 21.4439 4.79686e-06Z" transform="translate(500.877 392.297)" fill="white"/>
</g>
<g id="Vector_25">
<path d="M 21.4439 4.79686e-06L 0 4.79686e-06L 0 9.11664L 21.4439 9.11664L 21.4439 4.79686e-06Z" transform="translate(532.094 392.297)" fill="white"/>
</g>
<g id="Vector_26">
<path d="M 21.4439 4.79686e-06L 2.40594e-06 4.79686e-06L 2.40594e-06 9.11664L 21.4439 9.11664L 21.4439 4.79686e-06Z" transform="translate(563.316 392.297)" fill="white"/>
</g>
<g id="Vector_27">
<path d="M 21.4439 4.79686e-06L 0 4.79686e-06L 0 9.11664L 21.4439 9.11664L 21.4439 4.79686e-06Z" transform="translate(500.877 409.587)" fill="white"/>
</g>
<g id="Vector_28">
<path d="M 21.4439 4.79686e-06L 0 4.79686e-06L 0 9.11664L 21.4439 9.11664L 21.4439 4.79686e-06Z" transform="translate(532.094 409.587)" fill="white"/>
</g>
<g id="Vector_29">
<path d="M 21.4439 4.79686e-06L 2.40594e-06 4.79686e-06L 2.40594e-06 9.11664L 21.4439 9.11664L 21.4439 4.79686e-06Z" transform="translate(563.316 409.587)" fill="white"/>
</g>
</g>
</g>
</g>
<g id="Group_4" style="mix-blend-mode:multiply">
<g id="Group_5">
<g id="Vector_30">
<path d="M 84.9286 0L 0 0L 0 156.065L 84.9286 156.065L 84.9286 0Z" transform="translate(1116 346.935)" fill="url(#paint2_linear)"/>
</g>
<g id="Vector_31">
<path d="M 22.9902 21.7512L 22.9902 0L 84.3877 0L 84.3877 21.7512L 105.485 21.7512L 105.485 225.94L -4.12709e-06 225.94L -4.12709e-06 21.7512L 22.9902 21.7512Z" transform="translate(1228.52 267)" fill="url(#paint3_linear)"/>
</g>
</g>
<g id="Vector_32">
<path d="M 74.3801 0L 2.06355e-06 0L 2.06355e-06 4.62212L 74.3801 4.62212L 74.3801 0Z" transform="translate(1245.02 304.521)" fill="white"/>
</g>
<g id="Vector_33">
<path d="M 74.3801 -2.07435e-06L 2.06355e-06 -2.07435e-06L 2.06355e-06 4.62212L 74.3801 4.62212L 74.3801 -2.07435e-06Z" transform="translate(1245.02 319.475)" fill="white"/>
</g>
<g id="Vector_34">
<path d="M 74.3801 -2.07435e-06L 2.06355e-06 -2.07435e-06L 2.06355e-06 4.62212L 74.3801 4.62212L 74.3801 -2.07435e-06Z" transform="translate(1245.02 334.429)" fill="white"/>
</g>
<g id="Vector_35">
<path d="M 74.3801 -2.07435e-06L 2.06355e-06 -2.07435e-06L 2.06355e-06 4.62212L 74.3801 4.62212L 74.3801 -2.07435e-06Z" transform="translate(1245.02 349.382)" fill="white"/>
</g>
<g id="Vector_36">
<path d="M 74.3801 -2.07435e-06L 2.06355e-06 -2.07435e-06L 2.06355e-06 4.62212L 74.3801 4.62212L 74.3801 -2.07435e-06Z" transform="translate(1245.02 364.336)" fill="white"/>
</g>
<g id="Vector_37">
<path d="M 74.3801 -2.07435e-06L 2.06355e-06 -2.07435e-06L 2.06355e-06 4.62212L 74.3801 4.62212L 74.3801 -2.07435e-06Z" transform="translate(1245.02 379.29)" fill="white"/>
</g>
<g id="Vector_38">
<path d="M 74.3801 -2.07435e-06L 2.06355e-06 -2.07435e-06L 2.06355e-06 4.62212L 74.3801 4.62212L 74.3801 -2.07435e-06Z" transform="translate(1245.02 394.244)" fill="white"/>
</g>
<g id="Vector_39">
<path d="M 74.3801 -2.07435e-06L 2.06355e-06 -2.07435e-06L 2.06355e-06 4.62212L 74.3801 4.62212L 74.3801 -2.07435e-06Z" transform="translate(1245.02 409.198)" fill="white"/>
</g>
<g id="Vector_40">
<path d="M 74.3801 -2.07435e-06L 2.06355e-06 -2.07435e-06L 2.06355e-06 4.62212L 74.3801 4.62212L 74.3801 -2.07435e-06Z" transform="translate(1245.02 424.152)" fill="white"/>
</g>
</g>
<g id="Group_6" style="mix-blend-mode:multiply">
<g id="Group_7">
<g id="Vector_41">
<path d="M 181.155 -2.21059e-06L 0 -2.21059e-06L 0 332.629L 181.155 332.629L 181.155 -2.21059e-06Z" transform="translate(1348 170.371)" fill="url(#paint4_linear)"/>
</g>
<g id="Vector_42">
<path d="M 49.0388 46.3595L 49.0388 0L 180.001 0L 180.001 46.3595L 225.001 46.3595L 225.001 481.559L -8.80321e-06 481.559L -8.80321e-06 46.3595L 49.0388 46.3595Z" transform="translate(1588 0)" fill="url(#paint5_linear)"/>
</g>
</g>
<g id="Vector_43">
<path d="M 158.655 0L 4.4016e-06 0L 4.4016e-06 9.85138L 158.655 9.85138L 158.655 0Z" transform="translate(1623.2 79.97)" fill="white"/>
</g>
<g id="Vector_44">
<path d="M 158.655 -4.42118e-06L 4.4016e-06 -4.42118e-06L 4.4016e-06 9.85138L 158.655 9.85138L 158.655 -4.42118e-06Z" transform="translate(1623.2 111.842)" fill="white"/>
</g>
<g id="Vector_45">
<path d="M 158.655 -4.42118e-06L 4.4016e-06 -4.42118e-06L 4.4016e-06 9.85138L 158.655 9.85138L 158.655 -4.42118e-06Z" transform="translate(1623.2 143.714)" fill="white"/>
</g>
<g id="Vector_46">
<path d="M 158.655 -4.42118e-06L 4.4016e-06 -4.42118e-06L 4.4016e-06 9.85138L 158.655 9.85138L 158.655 -4.42118e-06Z" transform="translate(1623.2 175.586)" fill="white"/>
</g>
<g id="Vector_47">
<path d="M 158.655 -4.42118e-06L 4.4016e-06 -4.42118e-06L 4.4016e-06 9.85138L 158.655 9.85138L 158.655 -4.42118e-06Z" transform="translate(1623.2 207.458)" fill="white"/>
</g>
<g id="Vector_48">
<path d="M 158.655 -4.42118e-06L 4.4016e-06 -4.42118e-06L 4.4016e-06 9.85138L 158.655 9.85138L 158.655 -4.42118e-06Z" transform="translate(1623.2 239.331)" fill="white"/>
</g>
<g id="Vector_49">
<path d="M 158.655 -4.42118e-06L 4.4016e-06 -4.42118e-06L 4.4016e-06 9.85138L 158.655 9.85138L 158.655 -4.42118e-06Z" transform="translate(1623.2 271.203)" fill="white"/>
</g>
<g id="Vector_50">
<path d="M 158.655 -4.42118e-06L 4.4016e-06 -4.42118e-06L 4.4016e-06 9.85138L 158.655 9.85138L 158.655 -4.42118e-06Z" transform="translate(1623.2 303.075)" fill="white"/>
</g>
<g id="Vector_51">
<path d="M 158.655 -4.42118e-06L 4.4016e-06 -4.42118e-06L 4.4016e-06 9.85138L 158.655 9.85138L 158.655 -4.42118e-06Z" transform="translate(1623.2 334.947)" fill="white"/>
</g>
</g>
<g id="Group_8" style="mix-blend-mode:multiply">
<g id="Group_9">
<g id="Vector_52">
<path d="M 101.681 0L 0 0L 0 187.145L 101.681 187.145L 101.681 0Z" transform="translate(261 189.855) scale(-1 1)" fill="url(#paint6_linear)"/>
</g>
<g id="Vector_53">
<path d="M 27.525 26.083L 27.525 0L 101.033 0L 101.033 26.083L 126.291 26.083L 126.291 270.937L -4.94116e-06 270.937L -4.94116e-06 26.083L 27.525 26.083Z" transform="translate(126.291 94) scale(-1 1)" fill="url(#paint7_linear)"/>
</g>
</g>
<g id="Vector_54">
<path d="M 89.0516 0L 2.47058e-06 0L 2.47058e-06 5.54263L 89.0516 5.54263L 89.0516 0Z" transform="translate(106.535 138.993) scale(-1 1)" fill="white"/>
</g>
<g id="Vector_55">
<path d="M 89.0516 -2.48746e-06L 2.47058e-06 -2.48746e-06L 2.47058e-06 5.54263L 89.0516 5.54263L 89.0516 -2.48746e-06Z" transform="translate(106.535 156.925) scale(-1 1)" fill="white"/>
</g>
<g id="Vector_56">
<path d="M 89.0516 -2.48746e-06L 2.47058e-06 -2.48746e-06L 2.47058e-06 5.54263L 89.0516 5.54263L 89.0516 -2.48746e-06Z" transform="translate(106.535 174.857) scale(-1 1)" fill="white"/>
</g>
<g id="Vector_57">
<path d="M 89.0516 -2.48746e-06L 2.47058e-06 -2.48746e-06L 2.47058e-06 5.54263L 89.0516 5.54263L 89.0516 -2.48746e-06Z" transform="translate(106.535 192.789) scale(-1 1)" fill="white"/>
</g>
<g id="Vector_58">
<path d="M 89.0516 -2.48746e-06L 2.47058e-06 -2.48746e-06L 2.47058e-06 5.54263L 89.0516 5.54263L 89.0516 -2.48746e-06Z" transform="translate(106.535 210.721) scale(-1 1)" fill="white"/>
</g>
<g id="Vector_59">
<path d="M 89.0516 -2.48746e-06L 2.47058e-06 -2.48746e-06L 2.47058e-06 5.54263L 89.0516 5.54263L 89.0516 -2.48746e-06Z" transform="translate(106.535 228.653) scale(-1 1)" fill="white"/>
</g>
<g id="Vector_60">
<path d="M 89.0516 -2.48746e-06L 2.47058e-06 -2.48746e-06L 2.47058e-06 5.54263L 89.0516 5.54263L 89.0516 -2.48746e-06Z" transform="translate(106.535 246.585) scale(-1 1)" fill="white"/>
</g>
<g id="Vector_61">
<path d="M 89.0516 -2.48746e-06L 2.47058e-06 -2.48746e-06L 2.47058e-06 5.54263L 89.0516 5.54263L 89.0516 -2.48746e-06Z" transform="translate(106.535 264.517) scale(-1 1)" fill="white"/>
</g>
<g id="Vector_62">
<path d="M 89.0516 -2.48746e-06L 2.47058e-06 -2.48746e-06L 2.47058e-06 5.54263L 89.0516 5.54263L 89.0516 -2.48746e-06Z" transform="translate(106.535 282.449) scale(-1 1)" fill="white"/>
</g>
</g>
<g id="Group_10" style="mix-blend-mode:multiply">
<g id="Group_11">
<g id="Vector_63">
<path d="M 59.2163 0L 0 0L 0 108.452L 59.2163 108.452L 59.2163 0Z" transform="translate(1083 373.548) scale(-1 1)" fill="url(#paint8_linear)"/>
</g>
<g id="Vector_64">
<path d="M 16.0299 15.1152L 16.0299 0L 58.8391 0L 58.8391 15.1152L 73.5489 15.1152L 73.5489 157.009L -2.87761e-06 157.009L -2.87761e-06 15.1152L 16.0299 15.1152Z" transform="translate(1004.55 318) scale(-1 1)" fill="url(#paint9_linear)"/>
</g>
</g>
<g id="Vector_65">
<path d="M 51.8614 0L 0 0L 0 3.21198L 51.8614 3.21198L 51.8614 0Z" transform="translate(993.044 344.074) scale(-1 1)" fill="white"/>
</g>
<g id="Vector_66">
<path d="M 51.8614 0L 0 0L 0 3.21198L 51.8614 3.21198L 51.8614 0Z" transform="translate(993.044 354.465) scale(-1 1)" fill="white"/>
</g>
<g id="Vector_67">
<path d="M 51.8614 0L 0 0L 0 3.21198L 51.8614 3.21198L 51.8614 0Z" transform="translate(993.044 364.857) scale(-1 1)" fill="white"/>
</g>
<g id="Vector_68">
<path d="M 51.8614 0L 0 0L 0 3.21198L 51.8614 3.21198L 51.8614 0Z" transform="translate(993.044 375.249) scale(-1 1)" fill="white"/>
</g>
<g id="Vector_69">
<path d="M 51.8614 0L 0 0L 0 3.21198L 51.8614 3.21198L 51.8614 0Z" transform="translate(993.044 385.641) scale(-1 1)" fill="white"/>
</g>
<g id="Vector_70">
<path d="M 51.8614 0L 0 0L 0 3.21198L 51.8614 3.21198L 51.8614 0Z" transform="translate(993.044 396.032) scale(-1 1)" fill="white"/>
</g>
<g id="Vector_71">
<path d="M 51.8614 0L 0 0L 0 3.21198L 51.8614 3.21198L 51.8614 0Z" transform="translate(993.044 406.424) scale(-1 1)" fill="white"/>
</g>
<g id="Vector_72">
<path d="M 51.8614 0L 0 0L 0 3.21198L 51.8614 3.21198L 51.8614 0Z" transform="translate(993.044 416.816) scale(-1 1)" fill="white"/>
</g>
<g id="Vector_73">
<path d="M 51.8614 0L 0 0L 0 3.21198L 51.8614 3.21198L 51.8614 0Z" transform="translate(993.044 427.207) scale(-1 1)" fill="white"/>
</g>
</g>
<g id="Group_12" style="mix-blend-mode:multiply">
<g id="Group_13">
<g id="Vector_74">
<path d="M 58.8266 0L 0 0L 0 107.79L 58.8266 107.79L 58.8266 0Z" transform="translate(896 347.187) scale(-1 1)" fill="url(#paint10_linear)"/>
</g>
<g id="Vector_75">
<path d="M 15.9244 0L 38.0654 0L 48.0654 1.90735e-06L 58.4519 0L 73.0649 0L 73.0649 141.029L 0 141.029L 0 0L 15.9244 0Z" transform="translate(818.065 307) scale(-1 1)" fill="url(#paint11_linear)"/>
</g>
</g>
<g id="Vector_76">
<path d="M 51.5201 0L 0 0L 0 3.1924L 51.5201 3.1924L 51.5201 0Z" transform="translate(806.635 317.892) scale(-1 1)" fill="white"/>
</g>
<g id="Vector_77">
<path d="M 51.5201 0L 0 0L 0 3.1924L 51.5201 3.1924L 51.5201 0Z" transform="translate(806.635 328.22) scale(-1 1)" fill="white"/>
</g>
<g id="Vector_78">
<path d="M 51.5201 0L 0 0L 0 3.1924L 51.5201 3.1924L 51.5201 0Z" transform="translate(806.635 338.548) scale(-1 1)" fill="white"/>
</g>
<g id="Vector_79">
<path d="M 51.5201 0L 0 0L 0 3.1924L 51.5201 3.1924L 51.5201 0Z" transform="translate(806.635 348.877) scale(-1 1)" fill="white"/>
</g>
<g id="Vector_80">
<path d="M 51.5201 0L 0 0L 0 3.1924L 51.5201 3.1924L 51.5201 0Z" transform="translate(806.635 359.205) scale(-1 1)" fill="white"/>
</g>
<g id="Vector_81">
<path d="M 51.5201 0L 0 0L 0 3.1924L 51.5201 3.1924L 51.5201 0Z" transform="translate(806.635 369.533) scale(-1 1)" fill="white"/>
</g>
<g id="Vector_82">
<path d="M 51.5201 0L 0 0L 0 3.1924L 51.5201 3.1924L 51.5201 0Z" transform="translate(806.635 379.862) scale(-1 1)" fill="white"/>
</g>
<g id="Vector_83">
<path d="M 51.5201 0L 0 0L 0 3.1924L 51.5201 3.1924L 51.5201 0Z" transform="translate(806.635 390.19) scale(-1 1)" fill="white"/>
</g>
<g id="Vector_84">
<path d="M 51.5201 0L 0 0L 0 3.1924L 51.5201 3.1924L 51.5201 0Z" transform="translate(806.635 400.518) scale(-1 1)" fill="white"/>
</g>
</g>
<g id="Group_14" style="mix-blend-mode:multiply">
<g id="Group_15">
<g id="Vector_85">
<path d="M 25.5165 38.6331L 7.22723 38.6331L -1.40662e-07 2.82325e-07L 33.9237 2.82325e-07L 25.5165 38.6331Z" transform="translate(1533.76 194.206) scale(-1 1)" fill="url(#paint12_linear)"/>
</g>
<g id="Vector_86">
<path d="M 18.5843 27.9757L 5.3098 27.9757L -2.81323e-07 2.82325e-07L 24.7791 2.82325e-07L 18.5843 27.9757Z" transform="translate(1529.19 194.206) scale(-1 1)" fill="white"/>
</g>
<g id="Vector_87">
<path d="M 8.40718 0L 26.6965 0L 33.9237 13.0257L -1.40662e-07 13.0257L 8.40718 0Z" transform="translate(1533.76 176) scale(-1 1)" fill="url(#paint13_linear)"/>
</g>
<g id="Vector_88">
<path d="M 42.3309 0L 0 0L 0 5.18068L 42.3309 5.18068L 42.3309 0Z" transform="translate(1538.33 189.026) scale(-1 1)" fill="url(#paint14_linear)"/>
</g>
<g id="Vector_89">
<path d="M 22.8616 2.2586e-06L 14.1595 2.2586e-06L 8.11219 2.2586e-06L -1.40662e-07 2.2586e-06L -1.40662e-07 3.70049L 5.3098 3.70049L 5.3098 7.10493L 8.11219 7.10493L 8.11219 235.647L 14.1595 235.647L 14.1595 7.10493L 17.5518 7.10493L 17.5518 3.70049L 22.8616 3.70049L 22.8616 2.2586e-06Z" transform="translate(1528.6 232.839) scale(-1 1)" fill="url(#paint15_linear)"/>
</g>
</g>
</g>
<g id="Group_16" style="mix-blend-mode:multiply">
<g id="Vector_90">
<path d="M 47.2439 2.39952C 32.2356 -7.35002 10.1723 13.945 14.4053 42.1674C 18.6384 70.1332 -7.14493 64.1038 1.96263 113.108C 12.4812 170.066 43.6522 174.043 63.4066 157.494C 76.4907 146.59 77.5169 123.371 73.4121 109.773C 69.3072 96.1747 99.452 71.1594 70.3334 54.226C 53.7859 44.4765 68.0245 15.9976 47.2439 2.39952Z" transform="translate(1506.43 252.97) scale(-1 1)" fill="url(#paint16_linear)"/>
</g>
<g id="Vector_91">
<path d="M 0 46.6952L 1.41103 45.4123L 16.6758 63.2437L 16.6758 9.78725e-07L 18.9848 9.78725e-07L 18.9848 49.774L 36.0454 35.5345L 37.3282 36.9456L 18.9848 52.3396L 18.9848 170.36L 16.6758 170.36L 16.6758 65.5528L 16.291 65.9377L 0 46.6952Z" transform="translate(1487.15 290.391) scale(-1 1)" fill="url(#paint17_linear)"/>
</g>
<g id="Vector_92">
<path d="M 52.0111 2.83242C 37.516 -7.68682 14.2981 12.4537 17.1202 40.8043C 19.814 69.0267 -5.45628 61.5862 1.08577 110.975C 8.65402 168.318 39.4401 173.963 60.0925 158.569C 73.6897 148.306 75.8704 125.215 72.6635 111.488C 69.4566 97.7622 89.7241 74.6712 61.6318 56.1983C 45.3408 45.6791 72.0221 17.585 52.0111 2.83242Z" transform="translate(1454.76 275.115) scale(-1 1)" fill="url(#paint18_linear)"/>
</g>
<g id="Vector_93">
<path d="M 9.78664e-07 27.1961L 1.41103 25.9133L 16.6758 43.7447L 16.6758 -3.9149e-06L 18.9848 -3.9149e-06L 18.9848 30.2749L 36.0454 16.0354L 37.1999 17.4466L 18.9848 32.8406L 18.9848 150.861L 16.6758 150.861L 16.6758 46.0538L 16.291 46.4386L 9.78664e-07 27.1961Z" transform="translate(1434.94 339.139) scale(-1 1)" fill="url(#paint19_linear)"/>
</g>
</g>
<g id="Subtract" style="mix-blend-mode:multiply">
<path fill-rule="evenodd" clip-rule="evenodd" d="M 109 27C 109 17.6368 100.507 10.0465 90.0302 10.0465C 85.1794 10.0465 80.754 11.6736 77.3999 14.3505C 74.0018 5.97221 65.166 0 54.8013 0C 44.6921 0 36.0373 5.68151 32.4639 13.7356C 29.1646 9.20483 23.9431 6.27908 18.0663 6.27908C 8.08856 6.27908 0 14.7128 0 25.1163C 0 25.752 0.0301514 26.3804 0.0891724 27L 109 27Z" transform="translate(1190 255) scale(-1 1)" fill="url(#paint20_linear)"/>
</g>
<g id="Group_17" style="mix-blend-mode:multiply">
<g id="Group_18">
<g id="Vector_94">
<path d="M 25.5165 38.6331L 7.22723 38.6331L -1.40662e-07 2.82325e-07L 33.9237 2.82325e-07L 25.5165 38.6331Z" transform="translate(390.242 194.206)" fill="url(#paint21_linear)"/>
</g>
<g id="Vector_95">
<path d="M 18.5843 27.9757L 5.3098 27.9757L -2.81323e-07 2.82325e-07L 24.7791 2.82325e-07L 18.5843 27.9757Z" transform="translate(394.813 194.206)" fill="white"/>
</g>
<g id="Vector_96">
<path d="M 8.40718 0L 26.6965 0L 33.9237 13.0257L -1.40662e-07 13.0257L 8.40718 0Z" transform="translate(390.242 176)" fill="url(#paint22_linear)"/>
</g>
<g id="Vector_97">
<path d="M 42.3309 0L 0 0L 0 5.18068L 42.3309 5.18068L 42.3309 0Z" transform="translate(385.669 189.026)" fill="url(#paint23_linear)"/>
</g>
<g id="Vector_98">
<path d="M 22.8616 2.2586e-06L 14.1595 2.2586e-06L 8.11219 2.2586e-06L -1.40662e-07 2.2586e-06L -1.40662e-07 3.70049L 5.3098 3.70049L 5.3098 7.10493L 8.11219 7.10493L 8.11219 235.647L 14.1595 235.647L 14.1595 7.10493L 17.5518 7.10493L 17.5518 3.70049L 22.8616 3.70049L 22.8616 2.2586e-06Z" transform="translate(395.404 232.839)" fill="url(#paint24_linear)"/>
</g>
</g>
</g>
<g id="Group_19" style="mix-blend-mode:multiply">
<g id="Vector_99">
<path d="M 47.2439 2.39952C 32.2356 -7.35002 10.1723 13.945 14.4053 42.1674C 18.6384 70.1332 -7.14493 64.1038 1.96263 113.108C 12.4812 170.066 43.6522 174.043 63.4066 157.494C 76.4907 146.59 77.5169 123.371 73.4121 109.773C 69.3072 96.1747 99.452 71.1594 70.3334 54.226C 53.7859 44.4765 68.0245 15.9976 47.2439 2.39952Z" transform="translate(242 252.97)" fill="url(#paint25_linear)"/>
</g>
<g id="Vector_100">
<path d="M 0 46.6952L 1.41103 45.4123L 16.6758 63.2437L 16.6758 9.78725e-07L 18.9848 9.78725e-07L 18.9848 49.774L 36.0454 35.5345L 37.3282 36.9456L 18.9848 52.3396L 18.9848 170.36L 16.6758 170.36L 16.6758 65.5528L 16.291 65.9377L 0 46.6952Z" transform="translate(261.28 290.391)" fill="url(#paint26_linear)"/>
</g>
<g id="Vector_101">
<path d="M 52.0111 2.83242C 37.516 -7.68682 14.2981 12.4537 17.1202 40.8043C 19.814 69.0267 -5.45628 61.5862 1.08577 110.975C 8.65402 168.318 39.4401 173.963 60.0925 158.569C 73.6897 148.306 75.8704 125.215 72.6635 111.488C 69.4566 97.7622 89.7241 74.6712 61.6318 56.1983C 45.3408 45.6791 72.0221 17.585 52.0111 2.83242Z" transform="translate(293.674 275.115)" fill="url(#paint27_linear)"/>
</g>
<g id="Vector_102">
<path d="M 9.78664e-07 27.1961L 1.41103 25.9133L 16.6758 43.7447L 16.6758 -3.9149e-06L 18.9848 -3.9149e-06L 18.9848 30.2749L 36.0454 16.0354L 37.1999 17.4466L 18.9848 32.8406L 18.9848 150.861L 16.6758 150.861L 16.6758 46.0538L 16.291 46.4386L 9.78664e-07 27.1961Z" transform="translate(313.489 339.139)" fill="url(#paint28_linear)"/>
</g>
</g>
</g>
</g>
<defs>

<linearGradient id="paint0_linear" x2="1" gradientUnits="userSpaceOnUse" gradientTransform="matrix(0 258.475 -259.284 0 176.121 -168.604)">
<stop offset="0.0107527" stop-color="#D5E2E8"/>
<stop offset="1" stop-color="#D5E2E8" stop-opacity="0"/>
</linearGradient>
<linearGradient id="paint1_linear" x2="1" gradientUnits="userSpaceOnUse" gradientTransform="matrix(0 313.894 -314.876 0 212.86 -147.596)">
<stop offset="0.0107527" stop-color="#D5E2E8"/>
<stop offset="1" stop-color="#D5E2E8" stop-opacity="0"/>
</linearGradient>
<linearGradient id="paint2_linear" x2="1" gradientUnits="userSpaceOnUse" gradientTransform="matrix(0 291.53 290.011 0 -102.532 -190.061)">
<stop offset="0.0107527" stop-color="#D5E2E8"/>
<stop offset="1" stop-color="#D5E2E8" stop-opacity="0"/>
</linearGradient>
<linearGradient id="paint3_linear" x2="1" gradientUnits="userSpaceOnUse" gradientTransform="matrix(0 334.48 332.738 0 -113.702 -157.276)">
<stop offset="0.0107527" stop-color="#D5E2E8"/>
<stop offset="1" stop-color="#D5E2E8" stop-opacity="0"/>
</linearGradient>
<linearGradient id="paint4_linear" x2="1" gradientUnits="userSpaceOnUse" gradientTransform="matrix(0 621.353 618.602 0 -218.703 -405.087)">
<stop offset="0.0107527" stop-color="#D5E2E8"/>
<stop offset="1" stop-color="#D5E2E8" stop-opacity="0"/>
</linearGradient>
<linearGradient id="paint5_linear" x2="1" gradientUnits="userSpaceOnUse" gradientTransform="matrix(0 712.897 709.74 0 -242.529 -335.211)">
<stop offset="0.0107527" stop-color="#D5E2E8"/>
<stop offset="1" stop-color="#D5E2E8" stop-opacity="0"/>
</linearGradient>
<linearGradient id="paint6_linear" x2="1" gradientUnits="userSpaceOnUse" gradientTransform="matrix(0 349.588 347.216 0 -122.756 -227.912)">
<stop offset="0.0107527" stop-color="#D5E2E8"/>
<stop offset="1" stop-color="#D5E2E8" stop-opacity="0"/>
</linearGradient>
<linearGradient id="paint7_linear" x2="1" gradientUnits="userSpaceOnUse" gradientTransform="matrix(0 401.093 398.37 0 -136.13 -188.598)">
<stop offset="0.0107527" stop-color="#D5E2E8"/>
<stop offset="1" stop-color="#D5E2E8" stop-opacity="0"/>
</linearGradient>
<linearGradient id="paint8_linear" x2="1" gradientUnits="userSpaceOnUse" gradientTransform="matrix(0 202.588 202.21 0 -71.4899 -132.076)">
<stop offset="0.0107527" stop-color="#D5E2E8"/>
<stop offset="1" stop-color="#D5E2E8" stop-opacity="0"/>
</linearGradient>
<linearGradient id="paint9_linear" x2="1" gradientUnits="userSpaceOnUse" gradientTransform="matrix(0 232.435 232.001 0 -79.2784 -109.293)">
<stop offset="0.0107527" stop-color="#D5E2E8"/>
<stop offset="1" stop-color="#D5E2E8" stop-opacity="0"/>
</linearGradient>
<linearGradient id="paint10_linear" x2="1" gradientUnits="userSpaceOnUse" gradientTransform="matrix(0 201.353 200.879 0 -71.0194 -131.271)">
<stop offset="0.0107527" stop-color="#D5E2E8"/>
<stop offset="1" stop-color="#D5E2E8" stop-opacity="0"/>
</linearGradient>
<linearGradient id="paint11_linear" x2="1" gradientUnits="userSpaceOnUse" gradientTransform="matrix(0 231.018 230.474 0 -78.7567 -123.65)">
<stop offset="0.0107527" stop-color="#D5E2E8"/>
<stop offset="1" stop-color="#D5E2E8" stop-opacity="0"/>
</linearGradient>
<linearGradient id="paint12_linear" x2="1" gradientUnits="userSpaceOnUse" gradientTransform="matrix(0 54.0947 -53.9029 0 43.9345 4.65299)">
<stop stop-color="#D5E2E8"/>
<stop offset="0.2354" stop-color="#D5E2E8" stop-opacity="0.7152"/>
<stop offset="1" stop-color="#D5E2E8" stop-opacity="0"/>
</linearGradient>
<linearGradient id="paint13_linear" x2="1" gradientUnits="userSpaceOnUse" gradientTransform="matrix(0 26.0483 -25.9559 0 29.9611 -5.78371)">
<stop stop-color="#D5E2E8"/>
<stop offset="0.2354" stop-color="#D5E2E8" stop-opacity="0.7152"/>
<stop offset="1" stop-color="#D5E2E8" stop-opacity="0"/>
</linearGradient>
<linearGradient id="paint14_linear" x2="1" gradientUnits="userSpaceOnUse" gradientTransform="matrix(19.1638 40.1362 -39.9938 19.232 31.6645 -26.8919)">
<stop stop-color="#D5E2E8"/>
<stop offset="0.2354" stop-color="#D5E2E8" stop-opacity="0.7152"/>
<stop offset="1" stop-color="#D5E2E8" stop-opacity="0"/>
</linearGradient>
<linearGradient id="paint15_linear" x2="1" gradientUnits="userSpaceOnUse" gradientTransform="matrix(182.215 381.627 -380.274 182.863 113.841 -165.836)">
<stop stop-color="#D5E2E8"/>
<stop offset="0.2354" stop-color="#D5E2E8" stop-opacity="0.7152"/>
<stop offset="1" stop-color="#D5E2E8" stop-opacity="0"/>
</linearGradient>
<linearGradient id="paint16_linear" x2="1" gradientUnits="userSpaceOnUse" gradientTransform="matrix(-36.4551 110.477 110.47 36.4574 2.88871 22.3537)">
<stop offset="0.0107527" stop-color="#D5E2E8"/>
<stop offset="1" stop-color="#D5E2E8" stop-opacity="0"/>
</linearGradient>
<linearGradient id="paint17_linear" x2="1" gradientUnits="userSpaceOnUse" gradientTransform="matrix(24.4312 150.084 150.074 -24.4327 -73.1294 -38.1531)">
<stop offset="0.0107527" stop-color="#D5E2E8"/>
<stop offset="1" stop-color="white"/>
</linearGradient>
<linearGradient id="paint18_linear" x2="1" gradientUnits="userSpaceOnUse" gradientTransform="matrix(-51.4287 134.033 -134.024 -51.4319 143.75 25.3475)">
<stop offset="0.0107527" stop-color="#D5E2E8"/>
<stop offset="1" stop-color="white"/>
</linearGradient>
<linearGradient id="paint19_linear" x2="1" gradientUnits="userSpaceOnUse" gradientTransform="matrix(21.6452 132.972 132.964 -21.6465 -60.5778 -34.216)">
<stop offset="0.0107527" stop-color="#D5E2E8"/>
<stop offset="1" stop-color="white"/>
</linearGradient>
<linearGradient id="paint20_linear" x2="1" gradientUnits="userSpaceOnUse" gradientTransform="matrix(0 67.186 -271.232 1.14308e-07 190.417 -35.1628)">
<stop stop-color="#A9BBC4"/>
<stop offset="1" stop-color="#C4C4C4" stop-opacity="0"/>
</linearGradient>
<linearGradient id="paint21_linear" x2="1" gradientUnits="userSpaceOnUse" gradientTransform="matrix(0 54.0947 -53.9029 0 43.9345 4.65299)">
<stop stop-color="#D5E2E8"/>
<stop offset="0.2354" stop-color="#D5E2E8" stop-opacity="0.7152"/>
<stop offset="1" stop-color="#D5E2E8" stop-opacity="0"/>
</linearGradient>
<linearGradient id="paint22_linear" x2="1" gradientUnits="userSpaceOnUse" gradientTransform="matrix(0 26.0483 -25.9559 0 29.9611 -5.78371)">
<stop stop-color="#D5E2E8"/>
<stop offset="0.2354" stop-color="#D5E2E8" stop-opacity="0.7152"/>
<stop offset="1" stop-color="#D5E2E8" stop-opacity="0"/>
</linearGradient>
<linearGradient id="paint23_linear" x2="1" gradientUnits="userSpaceOnUse" gradientTransform="matrix(19.1638 40.1362 -39.9938 19.232 31.6645 -26.8919)">
<stop stop-color="#D5E2E8"/>
<stop offset="0.2354" stop-color="#D5E2E8" stop-opacity="0.7152"/>
<stop offset="1" stop-color="#D5E2E8" stop-opacity="0"/>
</linearGradient>
<linearGradient id="paint24_linear" x2="1" gradientUnits="userSpaceOnUse" gradientTransform="matrix(182.215 381.627 -380.274 182.863 113.841 -165.836)">
<stop stop-color="#D5E2E8"/>
<stop offset="0.2354" stop-color="#D5E2E8" stop-opacity="0.7152"/>
<stop offset="1" stop-color="#D5E2E8" stop-opacity="0"/>
</linearGradient>
<linearGradient id="paint25_linear" x2="1" gradientUnits="userSpaceOnUse" gradientTransform="matrix(-36.4551 110.477 110.47 36.4574 2.88871 22.3537)">
<stop offset="0.0107527" stop-color="#D5E2E8"/>
<stop offset="1" stop-color="#D5E2E8" stop-opacity="0"/>
</linearGradient>
<linearGradient id="paint26_linear" x2="1" gradientUnits="userSpaceOnUse" gradientTransform="matrix(24.4312 150.084 150.074 -24.4327 -73.1294 -38.1531)">
<stop offset="0.0107527" stop-color="#D5E2E8"/>
<stop offset="1" stop-color="white"/>
</linearGradient>
<linearGradient id="paint27_linear" x2="1" gradientUnits="userSpaceOnUse" gradientTransform="matrix(-51.4287 134.033 -134.024 -51.4319 143.75 25.3475)">
<stop offset="0.0107527" stop-color="#D5E2E8"/>
<stop offset="1" stop-color="white"/>
</linearGradient>
<linearGradient id="paint28_linear" x2="1" gradientUnits="userSpaceOnUse" gradientTransform="matrix(21.6452 132.972 132.964 -21.6465 -60.5778 -34.216)">
<stop offset="0.0107527" stop-color="#D5E2E8"/>
<stop offset="1" stop-color="white"/>
</linearGradient>

</defs>
</svg>

