<svg width="711" height="536" viewBox="0 0 711 536" version="1.1" xmlns="http://www.w3.org/2000/svg" xmlns:xlink="http://www.w3.org/1999/xlink">
<g id="Canvas" fill="none">
<g id="Group 2">
<g id="Group">
<g id="Group_2" style="mix-blend-mode:multiply">
<g id="Group_3">
<g id="Vector">
<path d="M 63.4353 -3.28216e-06L 1.31693e-05 -3.28216e-06L 1.31693e-05 94.644L 63.4353 94.644L 63.4353 -3.28216e-06Z" transform="translate(146.564 159.356)" fill="url(#paint0_linear)"/>
</g>
<g id="Vector_2">
<path d="M 24.3816 13.7664L 24.3816 3.28216e-06L 19.419 3.28216e-06L 19.419 13.7664L -6.58466e-06 13.7664L -6.58466e-06 144.977L 75.7339 144.977L 75.7339 13.7664L 24.3816 13.7664Z" transform="translate(54 103)" fill="url(#paint1_linear)"/>
</g>
</g>
<g id="Vector_3">
<path d="M 14.6721 3.28216e-06L 1.31693e-05 3.28216e-06L 1.31693e-05 6.2379L 14.6721 6.2379L 14.6721 3.28216e-06Z" transform="translate(63.4932 127.737)" fill="white"/>
</g>
<g id="Vector_4">
<path d="M 14.6721 3.28216e-06L 0 3.28216e-06L 0 6.2379L 14.6721 6.2379L 14.6721 3.28216e-06Z" transform="translate(84.8535 127.737)" fill="white"/>
</g>
<g id="Vector_5">
<path d="M 14.6721 3.28216e-06L -1.31693e-05 3.28216e-06L -1.31693e-05 6.2379L 14.6721 6.2379L 14.6721 3.28216e-06Z" transform="translate(106.215 127.737)" fill="white"/>
</g>
<g id="Vector_6">
<path d="M 14.6721 6.56433e-06L 1.31693e-05 6.56433e-06L 1.31693e-05 6.23789L 14.6721 6.23789L 14.6721 6.56433e-06Z" transform="translate(63.4932 139.352)" fill="white"/>
</g>
<g id="Vector_7">
<path d="M 14.6721 6.56433e-06L 0 6.56433e-06L 0 6.23789L 14.6721 6.23789L 14.6721 6.56433e-06Z" transform="translate(84.8535 139.352)" fill="white"/>
</g>
<g id="Vector_8">
<path d="M 14.6721 6.56433e-06L -1.31693e-05 6.56433e-06L -1.31693e-05 6.23789L 14.6721 6.23789L 14.6721 6.56433e-06Z" transform="translate(106.215 139.352)" fill="white"/>
</g>
<g id="Vector_9">
<path d="M 14.6721 -6.56433e-06L 1.31693e-05 -6.56433e-06L 1.31693e-05 6.23789L 14.6721 6.23789L 14.6721 -6.56433e-06Z" transform="translate(63.4932 150.967)" fill="white"/>
</g>
<g id="Vector_10">
<path d="M 14.6721 -6.56433e-06L 0 -6.56433e-06L 0 6.23789L 14.6721 6.23789L 14.6721 -6.56433e-06Z" transform="translate(84.8535 150.967)" fill="white"/>
</g>
<g id="Vector_11">
<path d="M 14.6721 -6.56433e-06L -1.31693e-05 -6.56433e-06L -1.31693e-05 6.23789L 14.6721 6.23789L 14.6721 -6.56433e-06Z" transform="translate(106.215 150.967)" fill="white"/>
</g>
<g id="Vector_12">
<path d="M 14.6721 -6.56433e-06L 1.31693e-05 -6.56433e-06L 1.31693e-05 6.23789L 14.6721 6.23789L 14.6721 -6.56433e-06Z" transform="translate(63.4932 162.798)" fill="white"/>
</g>
<g id="Vector_13">
<path d="M 14.6721 -6.56433e-06L 0 -6.56433e-06L 0 6.23789L 14.6721 6.23789L 14.6721 -6.56433e-06Z" transform="translate(84.8535 162.798)" fill="white"/>
</g>
<g id="Vector_14">
<path d="M 14.6721 -6.56433e-06L -1.31693e-05 -6.56433e-06L -1.31693e-05 6.23789L 14.6721 6.23789L 14.6721 -6.56433e-06Z" transform="translate(106.215 162.798)" fill="white"/>
</g>
<g id="Vector_15">
<path d="M 14.6721 -3.28216e-06L 1.31693e-05 -3.28216e-06L 1.31693e-05 6.2379L 14.6721 6.2379L 14.6721 -3.28216e-06Z" transform="translate(63.4932 174.413)" fill="white"/>
</g>
<g id="Vector_16">
<path d="M 14.6721 -3.28216e-06L 0 -3.28216e-06L 0 6.2379L 14.6721 6.2379L 14.6721 -3.28216e-06Z" transform="translate(84.8535 174.413)" fill="white"/>
</g>
<g id="Vector_17">
<path d="M 14.6721 -3.28216e-06L -1.31693e-05 -3.28216e-06L -1.31693e-05 6.2379L 14.6721 6.2379L 14.6721 -3.28216e-06Z" transform="translate(106.215 174.413)" fill="white"/>
</g>
<g id="Vector_18">
<path d="M 14.6721 0L 1.31693e-05 0L 1.31693e-05 6.2379L 14.6721 6.2379L 14.6721 0Z" transform="translate(63.4932 186.028)" fill="white"/>
</g>
<g id="Vector_19">
<path d="M 14.6721 0L 0 0L 0 6.2379L 14.6721 6.2379L 14.6721 0Z" transform="translate(84.8535 186.028)" fill="white"/>
</g>
<g id="Vector_20">
<path d="M 14.6721 0L -1.31693e-05 0L -1.31693e-05 6.2379L 14.6721 6.2379L 14.6721 0Z" transform="translate(106.215 186.028)" fill="white"/>
</g>
<g id="Vector_21">
<path d="M 14.6721 3.28216e-06L 1.31693e-05 3.28216e-06L 1.31693e-05 6.2379L 14.6721 6.2379L 14.6721 3.28216e-06Z" transform="translate(63.4932 197.644)" fill="white"/>
</g>
<g id="Vector_22">
<path d="M 14.6721 3.28216e-06L 0 3.28216e-06L 0 6.2379L 14.6721 6.2379L 14.6721 3.28216e-06Z" transform="translate(84.8535 197.644)" fill="white"/>
</g>
<g id="Vector_23">
<path d="M 14.6721 3.28216e-06L -1.31693e-05 3.28216e-06L -1.31693e-05 6.2379L 14.6721 6.2379L 14.6721 3.28216e-06Z" transform="translate(106.215 197.644)" fill="white"/>
</g>
<g id="Vector_24">
<path d="M 14.6721 6.56433e-06L 1.31693e-05 6.56433e-06L 1.31693e-05 6.23789L 14.6721 6.23789L 14.6721 6.56433e-06Z" transform="translate(63.4932 209.259)" fill="white"/>
</g>
<g id="Vector_25">
<path d="M 14.6721 6.56433e-06L 0 6.56433e-06L 0 6.23789L 14.6721 6.23789L 14.6721 6.56433e-06Z" transform="translate(84.8535 209.259)" fill="white"/>
</g>
<g id="Vector_26">
<path d="M 14.6721 6.56433e-06L -1.31693e-05 6.56433e-06L -1.31693e-05 6.23789L 14.6721 6.23789L 14.6721 6.56433e-06Z" transform="translate(106.215 209.259)" fill="white"/>
</g>
<g id="Vector_27">
<path d="M 14.6721 -6.56433e-06L 1.31693e-05 -6.56433e-06L 1.31693e-05 6.23789L 14.6721 6.23789L 14.6721 -6.56433e-06Z" transform="translate(63.4932 220.875)" fill="white"/>
</g>
<g id="Vector_28">
<path d="M 14.6721 -6.56433e-06L 0 -6.56433e-06L 0 6.23789L 14.6721 6.23789L 14.6721 -6.56433e-06Z" transform="translate(84.8535 220.875)" fill="white"/>
</g>
<g id="Vector_29">
<path d="M 14.6721 -6.56433e-06L -1.31693e-05 -6.56433e-06L -1.31693e-05 6.23789L 14.6721 6.23789L 14.6721 -6.56433e-06Z" transform="translate(106.215 220.875)" fill="white"/>
</g>
</g>
<g id="Vector_30">
<path d="M 69 35C 107.108 35 138 27.165 138 17.5C 138 7.83501 107.108 8.68386e-06 69 8.68386e-06C 30.8924 8.68386e-06 5.48363e-06 7.83501 5.48363e-06 17.5C 5.48363e-06 27.165 30.8924 35 69 35Z" transform="translate(228 363)" fill="url(#paint2_linear)"/>
</g>
<g id="Group_4">
<g id="Vector_31">
<path d="M 6.68487 1.3788e-06L 126.876 1.3788e-06C 130.666 1.3788e-06 133.734 3.07228 133.553 6.86745L 133.553 37.5902C 133.553 41.3854 130.485 44.4577 126.695 44.277L 50.8993 44.277L 44.7634 51.5059C 43.8611 52.5902 42.5978 52.5902 41.8759 51.5059L 35.7401 44.277L 6.68487 44.277C 2.89506 44.277 -0.172904 41.2047 0.0075635 37.4095L 0.0075635 6.68672C -0.172904 3.07228 2.89506 1.3788e-06 6.68487 1.3788e-06Z" transform="translate(268.424 33.809)" fill="#D5E2E8"/>
</g>
<g id="Group_5">
<g id="Vector_32">
<path d="M 1.44375 2.89156L 140.223 2.89156C 140.945 2.89156 141.667 2.16867 141.667 1.44578C 141.667 0.722888 140.945 6.89401e-07 140.223 6.89401e-07L 1.44375 6.89401e-07C 0.721879 6.89401e-07 5.50742e-06 0.722888 5.50742e-06 1.44578C 5.50742e-06 2.16867 0.541412 2.89156 1.44375 2.89156Z" transform="translate(279.982 50.7969)" fill="white"/>
</g>
<g id="Vector_33">
<path d="M 1.44374 2.89155L 140.223 2.89155C 140.945 2.89155 141.667 2.16867 141.667 1.44578C 141.667 0.722888 140.945 0 140.223 0L 1.44374 0C 0.721868 0 -5.50742e-06 0.722888 -5.50742e-06 1.44578C -5.50742e-06 2.34939 0.721868 2.89155 1.44374 2.89155Z" transform="translate(279.802 58.7487)" fill="white"/>
</g>
</g>
<g id="Group_6">
<g id="Vector_34">
<path d="M 10.828 23.1325C 10.4671 23.8553 9.56478 24.0361 8.84291 23.6746L 0.72189 19.1566C 2.19974e-05 18.7951 -0.180478 17.8915 0.180456 17.1686L 9.20381 0.722892C 9.56474 2.74683e-06 10.4671 -0.180725 11.189 0.18072L 19.31 4.69878C 20.0318 5.06022 20.2123 5.96383 19.8514 6.68672L 10.828 23.1325Z" transform="translate(335.926 218.688)" fill="#8D7FFF"/>
</g>
<g id="Vector_35">
<path d="M 8.12833 16.9952C 7.7674 17.5374 7.22602 17.7181 6.68462 17.3567L 0.548691 14.1037C 0.00729018 13.7422 -0.173144 13.2001 0.18779 12.6579L 6.86504 0.549487C 7.22597 0.00731977 7.76741 -0.173397 8.30881 0.188048L 14.4447 3.44104C 14.9861 3.80249 15.1666 4.34466 14.8056 4.88682L 8.12833 16.9952Z" transform="translate(338.987 221.03)" fill="#E6E7E8"/>
</g>
<g id="Vector_36">
<path d="M 0.180489 5.51521e-06C 0.180489 5.51521e-06 9.56477 18.253 27.9724 32.7107C 27.9724 32.7107 28.6943 36.1445 24.5435 37.9517C 24.5435 37.9517 9.3843 29.0963 1.10148e-05 19.3373L 0.180489 5.51521e-06Z" transform="translate(310.3 191.218)" fill="url(#paint3_linear)"/>
</g>
<g id="Vector_37">
<path d="M 0.180489 5.51521e-06C 0.180489 5.51521e-06 9.56477 18.253 27.9724 32.7107C 27.9724 32.7107 28.6943 36.1445 24.5435 37.9517C 24.5435 37.9517 9.3843 29.0963 1.10148e-05 19.3373L 0.180489 5.51521e-06Z" transform="translate(310.3 191.218)" fill="url(#paint4_linear)"/>
</g>
<g id="Vector_38">
<path d="M 9.18584 0C 9.18584 0 5.21556 1.98794 3.23042 4.8795C 0.703882 8.49394 -2.00311 13.7349 2.14764 13.7349C 7.20071 13.7349 16.9459 7.40961 16.7655 0.361439L 9.18584 0Z" transform="translate(249.862 240.375)" fill="#B08874"/>
</g>
<g id="Vector_39">
<path d="M 0.721857 2.89157L 0 15.9036L 8.6624 15.9036L 8.84288 13.9156L 13.7155 15.9036L 36.8153 15.9036C 36.8153 15.9036 37.5372 11.5662 33.5669 9.93973C 29.5966 8.31322 14.2569 6.14456 11.0085 0C 10.828 0 8.84288 4.51807 0.721857 2.89157Z" transform="translate(315.533 357.844)" fill="#312D74"/>
</g>
<g id="Vector_40">
<path d="M 5.05308 -1.10304e-05C 5.05308 -1.10304e-05 2.16562 5.6024 1.08281 9.75901C 1.09718e-05 13.9156 0 19.518 0 19.518L 22.1975 19.518C 22.1975 19.518 23.0998 15.7228 19.6709 13.3735C 16.242 11.0241 12.9936 5.96384 14.2569 0.722895C 14.2569 0.542172 9.02336 2.89155 5.05308 -1.10304e-05Z" transform="translate(248.761 367.603)" fill="#312D74"/>
</g>
<g id="Vector_41">
<path d="M 49.1238 80.6021C 56.7034 78.7949 61.2151 76.9877 63.5612 75.3612C 57.9667 25.1204 49.8457 -5.51521e-06 35.4083 -5.51521e-06C 23.1366 -5.51521e-06 8.69918 10.6626 2.74377 41.9276C -3.21164 73.1925 2.38284 97.2286 2.38284 97.2286C 2.38284 97.2286 7.61638 99.578 9.96245 97.59C 9.96245 97.59 8.87967 61.2649 17.0007 43.0119C 17.0007 43.0119 21.3319 58.1926 21.8733 81.5058C 28.0092 82.2286 39.0177 82.7708 49.1238 80.6021Z" transform="translate(256.665 143.146)" fill="url(#paint5_linear)"/>
</g>
<g id="Vector_42">
<path d="M 67.3142 5.78311C 67.1338 3.79516 66.9533 1.80722 66.5924 0C 64.0658 1.44578 59.7346 3.43373 52.155 5.24095C 42.2293 7.59034 31.0403 6.86745 24.9045 6.32528C 25.0849 14.2771 25.0849 22.771 24.5435 32.8915C 22.5584 79.1564 -5.50742e-06 149.096 -5.50742e-06 149.096C -5.50742e-06 149.096 4.33122 152.53 9.20383 149.638C 18.949 127.409 41.1465 65.2408 48.3652 31.6264C 48.3652 31.6264 61.9002 66.6865 62.4416 142.228C 62.4416 142.228 68.397 144.759 72.9087 139.879C 73.0892 139.698 73.2696 59.9998 67.3142 5.78311Z" transform="translate(253.635 218.688)" fill="#4707FF"/>
</g>
<g id="Vector_43">
<path d="M 9.20381 3.37971C 9.20381 3.37971 3.24841 12.2351 5.50742e-06 21.6327C 5.50742e-06 21.6327 2.16562 28.6808 3.24842 38.0784C 4.33122 47.4759 13.1741 35.0061 13.7155 31.7531C 14.2569 28.5001 19.1295 15.8496 18.5881 12.958C 18.0467 10.0664 19.31 3.92188 18.5881 2.83754C 14.7983 -3.84918 9.20381 3.37971 9.20381 3.37971Z" transform="translate(273.665 164.706)" fill="url(#paint6_linear)"/>
</g>
<g id="Vector_44">
<path d="M 7.21869 5.99593C 7.21869 5.99593 2.52655 10.514 1.10148e-05 18.1043C 1.10148e-05 18.1043 3.60933 25.8754 5.9554 36.8994C 8.30147 47.9235 13.535 38.5259 13.535 38.5259C 13.535 38.5259 15.5202 24.4296 15.8811 21.7188C 16.242 18.8272 14.6178 0.754974 13.8959 0.0320852C 13.1741 -0.510082 7.21869 5.99593 7.21869 5.99593Z" transform="translate(302.179 232.029)" fill="url(#paint7_linear)"/>
</g>
<g id="Vector_45">
<path d="M 3.42889 1.09985C 3.42889 1.09985 6.67729 -1.24953 8.8429 0.919133C 9.9257 2.00347 9.20384 2.72635 10.828 4.89502C 11.5499 5.97935 12.9936 7.06369 11.0085 7.24441C 9.7452 7.42514 8.8429 6.52153 7.94056 5.25647C 6.49683 3.0878 5.05308 5.97935 5.05308 5.97935L 2.88745 10.136C 2.88745 10.136 2.20297e-05 9.05164 2.20297e-05 6.3408C 2.20297e-05 3.62997 3.42889 1.09985 3.42889 1.09985Z" transform="translate(334.845 223.01)" fill="#B08874"/>
</g>
<g id="Vector_46">
<path d="M 1.26327 0C 1.26327 0 6.85775 2.53012 10.828 1.08434L 9.20381 4.8795C 9.20381 4.8795 7.57961 6.68673 4.3312 6.32528C 1.44373 5.96384 5.50742e-06 4.51806 5.50742e-06 4.51806L 1.26327 0Z" transform="translate(253.813 363.266)" fill="#B08874"/>
</g>
<g id="Vector_47">
<path d="M -2.20297e-05 2.71083C -2.20297e-05 2.71083 6.31637 3.97589 10.6476 0L 10.6476 5.06023C 10.6476 5.06023 9.56473 7.4096 5.41399 7.95177C 1.26325 8.49394 0.180456 7.59033 0.180456 7.59033L -2.20297e-05 2.71083Z" transform="translate(316.074 353.326)" fill="#B08874"/>
</g>
<g id="Group_7">
<g id="Vector_48">
<path d="M 8.66241 17.3493C 13.4465 17.3493 17.3249 13.4656 17.3249 8.67467C 17.3249 3.88378 13.4465 0 8.66241 0C 3.87829 0 1.10148e-05 3.88378 1.10148e-05 8.67467C 1.10148e-05 13.4656 3.87829 17.3493 8.66241 17.3493Z" transform="translate(298.571 113.327)" fill="#FEA729"/>
</g>
<g id="Vector_49">
<path d="M 4.51167 0.0295598C 4.51167 0.0295598 5.59448 4.54761 2.88747 6.53556C 0.721868 8.16206 -1.10148e-05 2.74039 -1.10148e-05 2.74039C -1.10148e-05 2.74039 2.16559 -0.331885 4.51167 0.0295598Z" transform="translate(309.038 114.02)" fill="#312D74"/>
</g>
<g id="Vector_50">
<path d="M 29.2357 17.3493C 29.2357 25.4818 22.7388 31.9878 14.6178 31.9878C 6.4968 31.9878 5.50742e-06 25.4818 5.50742e-06 17.3493L 5.50742e-06 9.39755C 5.50742e-06 1.26505 6.4968 0 14.6178 0C 22.7388 0 29.2357 1.26505 29.2357 9.39755L 29.2357 17.3493Z" transform="translate(282.69 107.544)" fill="#B08874"/>
</g>
<g id="Group_8">
<g id="Vector_51">
<path d="M 0.72189 0.0803238L 1.44375 1.88755C 1.62421 2.42971 1.98515 2.97188 2.34608 3.51405C 2.52655 3.69477 2.70698 4.23694 2.70698 4.59838C 2.70698 5.14055 2.34606 5.32127 1.98513 5.50199C 1.26326 5.86344 0.541379 5.86343 -2.20297e-05 5.68271C -2.20297e-05 5.68271 -2.20297e-05 5.68271 -2.20297e-05 5.50199C -2.20297e-05 5.50199 -1.10121e-05 5.50199 0.180456 5.50199C 0.721857 5.50199 1.44371 5.32126 1.80465 4.95982C 2.16558 4.59838 2.16558 4.23693 1.80465 3.87549C 1.44371 3.33332 1.08278 2.61043 0.902313 2.06827C 0.721846 1.5261 0.541412 0.803213 0.541412 0.0803238C 0.360945 0.0803238 0.360956 -0.100399 0.72189 0.0803238C 0.541423 -0.100399 0.72189 0.0803238 0.72189 0.0803238Z" transform="translate(304.346 123.547)" fill="#312D74"/>
</g>
</g>
<g id="Vector_52">
<path d="M 12.2193 22.0481C 12.2193 22.0481 16.37 21.1445 16.37 18.4337C 16.37 15.7228 16.37 14.0963 16.37 14.0963C 16.37 14.0963 21.6036 16.8072 30.0855 16.8072C 38.5675 16.8072 40.7331 11.2048 40.7331 7.04817C 40.7331 2.89155 36.2214 1.3788e-06 30.0855 1.3788e-06C 24.6715 1.3788e-06 22.8669 5.06022 14.9263 5.06022C 6.98575 5.06022 4.45918 3.79517 1.39124 8.31322C -0.593897 11.5662 0.127977 15.1807 0.127977 15.1807C 0.127977 15.1807 8.42949 11.0241 12.2193 22.0481Z" transform="translate(276.606 99.7726)" fill="#312D74"/>
</g>
<g id="Vector_53">
<path d="M 7.94056 15.9036C 12.326 15.9036 15.8811 12.3434 15.8811 7.95178C 15.8811 3.56014 12.326 0 7.94056 0C 3.55511 0 -1.10148e-05 3.56014 -1.10148e-05 7.95178C -1.10148e-05 12.3434 3.55511 15.9036 7.94056 15.9036Z" transform="translate(272.944 113.869)" fill="#FEA729"/>
<path d="M 15.8811 7.95178C 15.8811 12.3434 12.326 15.9036 7.94056 15.9036C 3.55511 15.9036 -1.10148e-05 12.3434 -1.10148e-05 7.95178C -1.10148e-05 3.56014 3.55511 0 7.94056 0C 12.326 0 15.8811 3.56014 15.8811 7.95178Z" stroke-width="0.6441" stroke-miterlimit="10" transform="translate(272.944 113.869)" stroke="#FEA729"/>
</g>
<g id="Vector_54">
<path d="M 6.31634 14.8192C 9.80476 14.8192 12.6327 11.5018 12.6327 7.40962C 12.6327 3.3174 9.80476 0 6.31634 0C 2.82791 0 -1.10148e-05 3.3174 -1.10148e-05 7.40962C -1.10148e-05 11.5018 2.82791 14.8192 6.31634 14.8192Z" transform="translate(272.944 114.23)" fill="#FEC729"/>
</g>
<g id="Vector_55">
<path d="M 0.0736824 13.5384C 0.0736824 13.5384 -1.00911 7.03237 5.12677 2.33359C 11.2626 -2.18446 21.9102 1.24925 21.9102 1.24925C 21.9102 1.24925 19.2032 3.41793 16.4962 3.77937C 16.4962 3.77937 7.47282 3.59865 7.47282 15.1649C 7.65328 14.9842 5.30723 12.9962 0.0736824 13.5384Z" transform="translate(278.825 100.511)" fill="#FEA729"/>
</g>
<g id="Vector_56">
<path d="M 1.44374 2.53011C 1.44374 2.89156 1.08281 3.253 0.721879 3.253C 0.360945 3.253 2.20297e-05 2.89156 2.20297e-05 2.53011L 2.20297e-05 0.722889C 2.20297e-05 0.361445 0.360945 -2.7576e-06 0.721879 -2.7576e-06C 1.08281 -2.7576e-06 1.44374 0.361445 1.44374 0.722889L 1.44374 2.53011Z" transform="translate(299.652 120.375)" fill="#312D74"/>
</g>
<g id="Vector_57">
<path d="M 1.44374 2.53011C 1.44374 2.89156 1.08281 3.253 0.721879 3.253C 0.360945 3.253 2.20297e-05 2.89156 2.20297e-05 2.53011L 2.20297e-05 0.722889C 2.20297e-05 0.361445 0.360945 -2.7576e-06 0.721879 -2.7576e-06C 1.08281 -2.7576e-06 1.44374 0.361445 1.44374 0.722889L 1.44374 2.53011Z" transform="translate(307.774 120.375)" fill="#312D74"/>
</g>
<g id="Group_9">
<g id="Vector_58">
<path d="M 6.67728 1.6265C 5.59448 2.16866 4.33121 2.16867 3.06794 1.98795C 2.52654 1.80723 1.80468 1.6265 1.44375 1.26506C 0.902346 0.903614 0.360912 0.542172 -2.20297e-05 0.180728L -2.20297e-05 -5.51521e-06C -2.20297e-05 -5.51521e-06 -1.10121e-05 -5.51521e-06 0.180456 -5.51521e-06C 1.26326 0.542161 2.34609 1.08434 3.4289 1.26506C 4.5117 1.44578 5.59449 1.6265 6.85776 1.44578C 6.67729 1.44578 6.67728 1.44578 6.67728 1.6265Z" transform="translate(297.127 130.495)" fill="#312D74"/>
</g>
</g>
</g>
</g>
</g>
<g id="Group_10">
<g id="Vector_59">
<path d="M 6.86533 -2.7576e-06L 103.957 -2.7576e-06C 107.746 -2.7576e-06 110.814 3.07228 110.634 6.86745L 110.634 37.5902C 110.634 41.3854 107.566 44.4577 103.776 44.277L 52.8844 44.277L 46.7486 51.5059C 45.8462 52.5902 44.583 52.5902 43.8611 51.5059L 37.7252 44.277L 6.68486 44.277C 2.89505 44.277 -0.172915 41.2047 0.00755248 37.4095L 0.00755248 6.68672C 0.18802 3.07228 3.25599 -2.7576e-06 6.86533 -2.7576e-06Z" transform="translate(495.633 70.6763)" fill="#D5E2E8"/>
</g>
<g id="Group_11">
<g id="Vector_60">
<path d="M 1.44374 2.89156L 79.0446 2.89156C 79.7664 2.89156 80.4883 2.16867 80.4883 1.44578C 80.4883 0.722889 79.7664 1.3788e-06 79.0446 1.3788e-06L 1.44374 1.3788e-06C 0.721868 1.3788e-06 2.20297e-05 0.722889 2.20297e-05 1.44578C 2.20297e-05 2.16867 0.721868 2.89156 1.44374 2.89156Z" transform="translate(510.8 83.5076)" fill="white"/>
</g>
<g id="Vector_61">
<path d="M 1.44374 2.89156L 79.0446 2.89156C 79.7664 2.89156 80.4883 2.16867 80.4883 1.44578C 80.4883 0.722892 79.7664 -2.7576e-06 79.0446 -2.7576e-06L 1.44374 -2.7576e-06C 0.721868 -2.7576e-06 2.20297e-05 0.722892 2.20297e-05 1.44578C 2.20297e-05 2.34939 0.721868 2.89156 1.44374 2.89156Z" transform="translate(510.8 91.4594)" fill="white"/>
</g>
<g id="Vector_62">
<path d="M 1.44374 2.89156L 44.7558 2.89156C 45.4777 2.89156 46.1996 2.16867 46.1996 1.44578C 46.1996 0.722891 45.4777 2.7576e-06 44.7558 2.7576e-06L 1.44374 2.7576e-06C 0.721868 2.7576e-06 2.20297e-05 0.722891 2.20297e-05 1.44578C 2.20297e-05 2.16867 0.721868 2.89156 1.44374 2.89156Z" transform="translate(510.8 99.2302)" fill="white"/>
</g>
</g>
</g>
<g id="Group_12">
<g id="Vector_63">
<path d="M 5.05309 -6.89401e-07L 37.8981 0.180722C 40.6051 0.180722 42.7707 2.34939 42.7707 5.06023L 42.5902 26.9276C 42.5902 29.6385 40.4246 31.8071 37.7176 31.8071L 25.9873 31.8071L 21.656 37.0481C 21.1146 37.771 20.0319 37.771 19.4905 37.0481L 15.1593 31.8071L 4.87261 31.8071C 2.16561 31.8071 -2.20297e-05 29.6385 -2.20297e-05 26.9276L 0.180456 5.06023C 0.180456 2.16867 2.34608 -6.89401e-07 5.05309 -6.89401e-07Z" transform="translate(591.288 46.8208)" fill="#E9F2F7"/>
</g>
<g id="Vector_64">
<path d="M 13.8959 6.89401e-07C 12.4522 6.89401e-07 11.189 0.542165 10.1062 1.26505C 9.02338 0.361443 7.7601 6.89401e-07 6.31636 6.89401e-07C 2.88748 6.89401e-07 1.10148e-05 2.71083 1.10148e-05 6.32528C 1.10148e-05 13.012 8.66244 14.8192 10.1062 15.3614C 11.5499 14.8192 20.2123 11.9277 20.2123 6.32528C 20.0318 2.89155 17.3248 6.89401e-07 13.8959 6.89401e-07Z" transform="translate(602.657 56.2183)" fill="#FF0069"/>
</g>
</g>
<g id="Group 2_2">
<g id="Vector_65">
<path d="M 0.171463 5.48333C 0.171463 5.48333 -1.09181 11.0857 3.2394 13.7966C 6.48781 15.9652 7.2097 17.5917 7.2097 17.5917C 7.2097 17.5917 7.75109 20.8447 10.6386 21.0255C 13.1651 21.2062 15.1502 5.84479 4.86362 0.242398C 2.87848 -1.02266 -0.550405 2.95322 0.171463 5.48333Z" transform="translate(220.075 300.855)" fill="#ECC19C"/>
</g>
<g id="Group_13">
<g id="Group_14">
<g id="Vector_66">
<path d="M 6.68486 -1.3788e-06L 79.774 -1.3788e-06C 83.5638 -1.3788e-06 86.6318 3.07228 86.4513 6.86744L 86.4513 28.3734C 86.4513 32.1686 83.3834 35.2409 79.5936 35.0601L 50.8993 35.0601L 44.7634 42.289C 43.8611 43.3734 42.5978 43.3734 41.8759 42.289L 35.74 35.0601L 6.68486 35.0601C 2.89505 35.0601 -0.172882 31.9878 0.00758553 28.1927L 0.00758553 6.68673C -0.172882 3.07228 2.89505 -1.3788e-06 6.68486 -1.3788e-06Z" transform="translate(147.873 69.2303)" fill="#D5E2E8"/>
</g>
<g id="Group_15">
<g id="Vector_67">
<path d="M 0.902346 13.047C 0.902346 13.047 5.95542 9.07109 5.41402 5.63736C 5.05309 3.64942 4.33122 2.74581 3.97028 2.20364C 3.78981 2.02292 3.60934 1.8422 3.7898 1.66148C 3.97027 1.30003 4.33121 0.39642 5.23355 0.0349755C 6.67728 -0.326469 8.48195 2.20364 9.20382 3.4687C 9.92568 4.73375 10.1062 6.54098 10.1062 6.54098C 10.1062 6.54098 17.1444 4.01086 19.31 10.1554C 21.1147 15.3964 19.6709 18.1072 17.6858 19.9144C 16.242 21.3602 12.8132 22.4445 9.20382 22.4445C 7.03821 22.4445 2.88747 21.1795 2.88747 21.1795L 1.10148e-05 13.5891L 0.902346 13.047Z" transform="translate(229.092 53.292)" fill="url(#paint8_linear)"/>
</g>
<g id="Vector_68">
<path d="M 9.64375 11.2839C 10.0047 12.7297 9.10235 14.1754 7.47815 14.5369L 5.31255 15.0791C 3.86881 15.4405 2.42507 14.5369 2.06414 12.9104L 0.0789877 3.87428C -0.281946 2.4285 0.620411 0.982721 2.24461 0.621276L 4.41021 0.0791104C 5.85395 -0.282334 7.29769 0.621279 7.65863 2.24778L 9.64375 11.2839Z" transform="translate(225.042 63.1876)" fill="#FF0069"/>
</g>
</g>
<g id="Group_16">
<g id="Vector_69">
<path d="M 1.44373 2.89156L 61.3588 2.89156C 62.0807 2.89156 62.8025 2.16867 62.8025 1.44578C 62.8025 0.722892 62.0807 -2.7576e-06 61.3588 -2.7576e-06L 1.44373 -2.7576e-06C 0.721857 -2.7576e-06 1.10148e-05 0.722892 1.10148e-05 1.44578C 1.10148e-05 2.34939 0.721857 2.89156 1.44373 2.89156Z" transform="translate(159.609 80.616)" fill="#FAFAFA"/>
</g>
<g id="Vector_70">
<path d="M 1.44373 2.89156L 61.3588 2.89156C 62.0807 2.89156 62.8025 2.16867 62.8025 1.44578C 62.8025 0.722892 62.0807 -2.7576e-06 61.3588 -2.7576e-06L 1.44373 -2.7576e-06C 0.721857 -2.7576e-06 1.10148e-05 0.722892 1.10148e-05 1.44578C 1.10148e-05 2.16867 0.721857 2.89156 1.44373 2.89156Z" transform="translate(159.609 88.7484)" fill="#FAFAFA"/>
</g>
</g>
</g>
<g id="Group_17">
<g id="Vector_71">
<path d="M 78.5032 52.7709C 121.859 52.7709 157.006 40.9577 157.006 26.3854C 157.006 11.8131 121.859 2.20608e-05 78.5032 2.20608e-05C 35.1471 2.20608e-05 1.10148e-05 11.8131 1.10148e-05 26.3854C 1.10148e-05 40.9577 35.1471 52.7709 78.5032 52.7709Z" transform="translate(86 483)" fill="url(#paint9_linear)"/>
</g>
<g id="Vector_72">
<path d="M 64.4146 84.4179C 66.9412 85.683 70.0091 84.7794 71.4529 82.2492L 93.8308 39.5988C 95.2745 37.0687 94.1917 33.8157 91.6652 32.5506L 28.8626 0.562768C 26.3361 -0.702288 23.0877 0.201329 21.8244 2.91216L 0.529294 46.1048C -0.733976 48.6349 0.348832 51.7072 2.87537 52.9722L 64.4146 84.4179Z" transform="translate(82.9238 246.498)" fill="#8D7FFF"/>
</g>
<g id="Vector_73">
<path d="M 7.21869 14.4578C 11.2055 14.4578 14.4374 11.2213 14.4374 7.22889C 14.4374 3.23649 11.2055 0 7.21869 0C 3.23192 0 5.50742e-06 3.23649 5.50742e-06 7.22889C 5.50742e-06 11.2213 3.23192 14.4578 7.21869 14.4578Z" transform="translate(119.366 281.941)" fill="#E6E7E8"/>
</g>
<g id="Vector_74">
<path d="M 79.852 42.1083C 79.852 42.1083 77.6864 63.2528 55.8499 91.2648C 34.1939 119.277 9.65035 127.951 6.041 128.132C 2.43166 128.132 -3.16283 121.988 2.25118 118.192C 7.6652 114.397 34.0134 102.831 44.1196 63.9757C 54.2257 25.3011 53.1429 10.4819 50.9773 0C 50.9773 0 56.3913 10.3012 64.5123 20.9638C 72.8138 31.6264 75.7013 34.8794 79.852 42.1083Z" transform="translate(112.784 334.35)" fill="#312D74"/>
</g>
<g id="Vector_75">
<path d="M 75.8023 40.6625C 75.8023 40.6625 73.8171 64.1564 52.8829 91.2648C 31.9488 118.373 9.57085 126.686 5.96151 126.867C 2.35217 127.048 -3.06186 120.903 2.17169 117.289C 7.40523 113.494 31.2269 99.3973 40.9721 61.9877C 50.7173 24.5782 49.6345 10.1204 47.6494 -1.10304e-05C 47.6494 -1.10304e-05 52.8829 9.93974 60.8235 20.2409C 68.9445 30.5421 71.832 33.6143 75.8023 40.6625Z" transform="translate(116.652 333.266)" fill="url(#paint10_linear)"/>
</g>
<g id="Vector_76">
<path d="M 2.88746 1.10304e-05C 2.88746 1.10304e-05 11.0085 21.6867 29.5966 40.3011C 29.5966 40.3011 29.9575 44.0962 25.0849 45.7227C 25.0849 45.7227 9.38429 33.7951 5.50742e-06 21.6867L 2.88746 1.10304e-05Z" transform="translate(195.163 260.435)" fill="#FEA729"/>
</g>
<g id="Vector_77">
<path d="M 2.88746 1.10304e-05C 2.88746 1.10304e-05 11.0085 21.6867 29.5966 40.3011C 29.5966 40.3011 29.9575 44.0962 25.0849 45.7227C 25.0849 45.7227 9.38429 33.7951 5.50742e-06 21.6867L 2.88746 1.10304e-05Z" transform="translate(195.163 260.435)" fill="url(#paint11_linear)"/>
</g>
<g id="Vector_78">
<path d="M 13.5985 3.61445C 13.5985 3.61445 15.9446 9.39755 13.5985 16.0843C 11.6134 21.8674 15.5837 22.9517 15.5837 22.9517C 15.5837 22.9517 9.80875 26.9276 1.68773 16.6264C -3.90675 9.39756 6.19941 5.51521e-06 6.19941 5.51521e-06C 6.19941 5.51521e-06 11.7939 0.722895 13.5985 3.61445Z" transform="translate(108.655 296.037)" fill="#ECC19C"/>
</g>
<g id="Vector_79">
<path d="M 17.68 1.08436C 17.68 1.08436 28.3275 12.8313 43.3063 14.4578C 52.5101 15.3614 52.5101 19.1566 52.5101 23.4939L 21.4698 23.6746L 12.0855 19.8795L 11.905 23.8553L 0.174678 23.8553C -0.727658 9.39754 2.1598 1.10304e-05 2.1598 1.10304e-05C 2.1598 1.10304e-05 8.47616 5.42169 17.68 1.08436Z" transform="translate(155.826 497.181)" fill="#312D74"/>
</g>
<g id="Vector_80">
<path d="M 17.7251 9.22054C 17.7251 9.22054 17.3641 21.8711 31.4405 30.0036C 36.3132 32.8952 34.689 38.859 34.689 38.859C 34.689 38.859 25.3047 39.4011 17.7251 33.9795C 9.06265 27.6542 8.88217 23.8591 8.88217 23.8591L 7.43842 17.5338L 4.73142 19.341C 4.73142 19.341 -0.502111 15.5458 0.0392902 7.95546L 12.8524 0.00368912C 12.8524 -0.177033 9.06265 6.32898 17.7251 9.22054Z" transform="translate(102.184 452.719)" fill="#312D74"/>
</g>
<g id="Vector_81">
<path d="M 51.3032 7.95179C 51.8446 55.301 46.2501 123.253 36.5049 156.144C 23.6917 199.517 18.9995 208.915 18.9995 208.915C 18.9995 208.915 17.3754 210.541 13.4051 210.361C 10.5176 210.18 5.46451 209.096 3.65984 206.385C 3.65984 206.385 24.2331 149.457 21.887 102.65C 19.9019 65.9636 8.71294 47.53 2.57706 32.1686C -1.93462 20.9638 0.41145 11.3855 2.57706 -5.51521e-06C 26.2182 13.1927 43.7235 10.4819 51.3032 7.95179Z" transform="translate(154.688 290.435)" fill="#403C7E"/>
</g>
<g id="Vector_82">
<path d="M 57.7495 0.0488443C 78.8641 2.57896 83.0148 27.5186 89.1507 64.7474C 90.5945 73.7835 91.4968 86.7956 91.6773 101.976C 86.6242 105.049 67.3142 109.024 42.0488 98.0003C 42.9512 93.8437 44.5754 85.3498 45.1168 80.651C 45.8386 74.145 48.1847 54.0848 46.1996 43.0608C 28.1529 63.8438 7.94054 103.241 7.94054 103.241C 0.721857 103.241 0 99.8075 0 99.8075C 16.4225 46.8559 42.7707 -1.75838 57.7495 0.0488443Z" transform="translate(114.313 196.41)" fill="#FEA729"/>
</g>
<g id="Vector_83">
<path d="M 36.4544 14.9999L 7.21869 1.10304e-05L 1.10148e-05 61.9877L 9.38429 66.6865C 11.9108 67.9516 14.9788 67.048 16.4225 64.5179L 38.8004 21.8674C 40.0637 19.518 39.1614 16.4457 36.4544 14.9999Z" transform="translate(137.954 264.049)" fill="#8D7FFF"/>
</g>
<g id="Vector_84">
<path d="M 31.0403 16.265L 1.80468 1.26507L 1.10148e-05 -1.10304e-05L 28.8747 16.9879C 31.4013 18.253 32.4841 21.5059 31.0403 24.0361L 8.66241 66.6865C 8.30147 67.4094 7.57961 68.1323 6.85774 68.4938C 8.48194 68.313 9.9257 67.4094 10.828 65.7829L 33.2059 23.1324C 34.6497 20.7831 33.7473 17.7108 31.0403 16.265Z" transform="translate(143.368 262.784)" fill="#6A5FBF"/>
</g>
<g id="Vector_85">
<path d="M 2.53809 0C 2.53809 0 4.88414 4.15662 4.88414 8.31324C 4.88414 12.6506 6.86929 14.8192 6.86929 14.8192C 6.86929 14.8192 8.49349 16.4457 6.32788 16.4457C 2.89901 16.4457 0.192002 11.747 0.0115349 9.21685C -0.168932 6.50601 1.81622 0.542167 2.53809 0Z" transform="translate(120.077 300.917)" fill="#ECC19C"/>
</g>
<g id="Vector_86">
<path d="M 17.8662 5.51521e-06C 17.8662 5.51521e-06 7.76008 8.49395 0 18.4337C 0 18.4337 1.6242 26.024 0.360929 40.1203C -0.902341 54.036 36.6348 28.9156 36.6348 28.9156L 17.8662 5.51521e-06Z" transform="translate(160.333 221.037)" fill="url(#paint12_linear)"/>
</g>
<g id="Vector_87">
<path d="M 2.52655 2.20608e-05C 2.52655 2.20608e-05 8.30149 5.24096 17.6858 4.33735L 16.0616 8.67467C 16.0616 8.67467 14.4374 11.9276 7.03823 11.024C 0.360945 10.3011 -5.50742e-06 6.86745 -5.50742e-06 6.86745L 2.52655 2.20608e-05Z" transform="translate(157.987 490.133)" fill="#ECC19C"/>
</g>
<g id="Vector_88">
<path d="M 4.51167 -5.51521e-06L 0.721879 2.34939C 0.721879 2.34939 -0.902324 4.87949 0.721879 7.59033C 2.70702 11.2048 6.13589 12.1084 6.13589 12.1084C 6.13589 12.1084 10.2866 10.6626 11.7304 9.93972C 11.5499 10.1204 3.97027 7.77105 4.51167 -5.51521e-06Z" transform="translate(113.772 450.374)" fill="#ECC19C"/>
</g>
<g id="Group_18">
<g id="Vector_89">
<path d="M 47.1223 26.8355C 47.6637 39.6668 37.7381 50.6909 24.9249 51.233C 12.1117 51.7752 1.10325 41.8355 0.561846 29.0042L 0.0204397 16.1729C -0.520962 3.34163 9.76566 0.630806 22.5788 0.0886389C 35.392 -0.453528 46.0396 1.17297 46.581 14.0043L 47.1223 26.8355Z" transform="translate(152.733 134.202)" fill="#ECC19C"/>
</g>
<g id="Group_19">
<g id="Vector_90">
<path d="M 48.9765 20.5139C 65.5795 23.5862 61.7897 0.995901 52.2249 0.092289C 44.8258 -0.6306 41.0359 3.16457 34.7196 2.08023C 3.85973 -3.52216 6.92765 14.5501 6.92765 14.5501C 6.92765 14.5501 1.51364 16.8995 0.250372 24.1283C -1.19336 33.5259 3.85972 45.4536 8.9128 46.7186C 17.0338 48.8873 21.0041 40.3934 21.0041 40.3934C 13.6049 36.056 16.6729 27.3814 21.9064 26.6585C 28.4032 25.9356 29.486 34.0681 29.486 34.0681C 29.486 34.0681 34.3586 32.4416 34.3586 31.8994C 32.7344 25.032 28.0423 16.7187 48.9765 20.5139Z" transform="translate(145.646 123.355)" fill="#312D74"/>
</g>
</g>
<g id="Vector_91">
<path d="M 2.88747 4.69879C 2.88747 5.42167 2.34607 6.14456 1.44373 6.14456C 0.721863 6.14456 -1.10148e-05 5.6024 -1.10148e-05 4.69879L -1.10148e-05 1.44578C -1.10148e-05 0.722889 0.541396 -5.51521e-06 1.44373 -5.51521e-06C 2.1656 -5.51521e-06 2.88747 0.542167 2.88747 1.44578L 2.88747 4.69879Z" transform="translate(191.735 152.182)" fill="#312D74"/>
</g>
<g id="Group_20">
<g id="Vector_92">
<path d="M 10.2866 2.71083C 9.56477 3.43372 8.66243 3.79517 7.57963 3.97589C 6.67729 4.15662 5.59447 4.15662 4.51167 3.97589C 3.60933 3.79517 2.52653 3.253 1.80466 2.71083C 1.08279 2.16866 0.360923 1.26506 -1.10148e-05 0.361447C -1.10148e-05 0.180725 0 -5.51521e-06 0.180467 -5.51521e-06L 0.360945 -5.51521e-06C 1.26328 0.361439 1.98513 0.722895 2.707 1.08434C 3.42886 1.44578 4.15075 1.6265 4.87262 1.6265C 6.31636 1.98794 7.94055 1.98795 9.56475 1.98795C 9.74522 1.98795 10.1062 2.16866 10.1062 2.53011C 10.4671 2.53011 10.4671 2.53011 10.2866 2.71083Z" transform="translate(186.32 168.447)" fill="#312D74"/>
</g>
</g>
<g id="Vector_93">
<path d="M 2.56991 0.441148C 2.56991 0.441148 4.01363 4.77849 5.99877 6.58571C 7.80344 8.39293 5.2769 10.7423 2.75036 10.3809C 2.75036 10.3809 0.0433501 12.5495 0.0433501 8.57365C -0.317584 4.59776 1.66757 -1.72752 2.56991 0.441148Z" transform="translate(196.743 154.271)" fill="#ECC19C"/>
</g>
</g>
</g>
</g>
</g>
<g id="Group_21">
<g id="Vector_94">
<path d="M 126.876 -6.89401e-07L 6.68483 -6.89401e-07C 2.89503 -6.89401e-07 -0.172882 3.07228 0.00758553 6.86745L 0.00758553 37.5902C 0.00758553 41.3854 3.0755 44.4577 6.86531 44.277L 97.4598 44.277L 109.732 51.5059C 111.175 52.2288 112.619 51.8673 112.8 50.783L 112.8 44.277L 127.056 44.277C 130.846 44.277 133.914 41.2047 133.734 37.4095L 133.734 6.68673C 133.553 3.07228 130.666 -6.89401e-07 126.876 -6.89401e-07Z" transform="translate(304.879 25.1342)" fill="#E9F2F7"/>
</g>
<g id="Group_22">
<g id="Vector_95">
<path d="M 1.44374 2.89156L 76.3376 2.89156C 77.0594 2.89156 77.7813 2.16867 77.7813 1.44578C 77.7813 0.722888 77.0594 6.89401e-07 76.3376 6.89401e-07L 1.44374 6.89401e-07C 0.721868 6.89401e-07 2.20297e-05 0.722888 2.20297e-05 1.44578C 2.20297e-05 2.34939 0.541401 2.89156 1.44374 2.89156Z" transform="translate(346.573 40.8571)" fill="#A9BBC4"/>
</g>
<g id="Vector_96">
<path d="M 1.44373 2.89156L 76.3376 2.89156C 77.0594 2.89156 77.7813 2.16867 77.7813 1.44578C 77.7813 0.722888 77.0594 6.89401e-07 76.3376 6.89401e-07L 1.44373 6.89401e-07C 0.721857 6.89401e-07 1.10148e-05 0.722888 1.10148e-05 1.44578C 1.10148e-05 2.16867 0.721857 2.89156 1.44373 2.89156Z" transform="translate(346.393 48.9895)" fill="#A9BBC4"/>
</g>
</g>
<g id="Group_23">
<g id="Vector_97">
<path d="M 17.5053 15C 17.5053 16.265 16.4225 17.3493 15.1592 17.3493L 2.34609 17.3493C 1.08282 17.3493 -1.10148e-05 16.265 -1.10148e-05 15L -1.10148e-05 2.34939C -1.10148e-05 1.08434 1.08282 -6.89401e-07 2.34609 -6.89401e-07L 15.1592 -6.89401e-07C 16.4225 -6.89401e-07 17.5053 1.08434 17.5053 2.34939L 17.5053 15Z" transform="translate(318.962 38.6884)" fill="#D5E2E8"/>
</g>
<g id="Group_24">
<g id="Vector_98">
<path d="M 6.13587 15.7228L 0 8.49395L 4.15072 4.8795L 6.6773 7.77106L 16.0616 1.3788e-06L 19.6709 4.15661L 6.13587 15.7228Z" transform="translate(321.849 38.3269)" fill="#FEA729"/>
</g>
</g>
</g>
<g id="Group_25">
<g id="Vector_99">
<path d="M 76.5 36C 118.75 36 153 27.9411 153 18C 153 8.05887 118.75 -8.2604e-06 76.5 -8.2604e-06C 34.2502 -8.2604e-06 2.20765e-05 8.05887 2.20765e-05 18C 2.20765e-05 27.9411 34.2502 36 76.5 36Z" transform="translate(369 384)" fill="url(#paint13_linear)"/>
</g>
<g id="Vector_100">
<path d="M 39.8866 0.013753C 18.0501 -0.347692 0.183836 6.33903 0.00336881 29.11C -0.177098 43.2064 6.86114 51.3389 17.5087 55.4955L 17.3282 64.5316C 17.3282 67.2424 19.3133 68.3268 21.6594 66.881L 36.4577 58.9292C 37.3601 58.9292 38.2624 58.9292 39.1647 59.1099C 61.0013 59.4714 78.8675 52.7847 79.048 30.0137C 79.2284 7.24265 61.9036 0.375198 39.8866 0.013753Z" transform="translate(448.714 0)" fill="#E9F2F7"/>
</g>
<g id="Vector_101">
<path d="M 27.431 31.6264L 16.9639 27.2891L 6.67727 31.9878L 7.76008 20.7831L 2.20297e-05 12.4698L 11.0085 9.93973L 16.603 3.447e-07L 22.3779 9.57828L 33.5669 11.9277L 26.1677 20.4216L 27.431 31.6264Z" transform="translate(471.096 11.3993)" fill="#FEA729"/>
</g>
<g id="Group_26">
<g id="Vector_102">
<path d="M 18.0979 4.69877C 18.0979 4.69877 15.9323 9.57829 9.61595 13.1927C 3.2996 16.8072 -0.490184 18.0722 0.0512168 23.8553C 0.0512168 23.8553 7.81129 24.5782 16.1128 22.771C 24.4143 20.9638 29.2868 14.2771 29.2868 14.2771C 29.2868 14.2771 32.5353 13.5542 33.7985 11.747L 27.4822 5.51521e-06C 27.4822 0.180728 26.0385 4.51805 18.0979 4.69877Z" transform="translate(422.137 369.229)" fill="#312D74"/>
</g>
<g id="Vector_103">
<path d="M -1.10148e-05 0C -1.10148e-05 0 -1.10148e-05 5.24094 -1.10148e-05 13.9156C -1.10148e-05 24.0361 8.12101 23.4939 8.12101 23.4939L 24.5435 23.4939C 24.5435 23.4939 25.2654 17.7108 20.7537 14.4578C 14.4374 9.93973 11.9108 0 11.9108 0C 11.9108 0 5.59447 3.61445 -1.10148e-05 0Z" transform="translate(460.629 391.277)" fill="#312D74"/>
</g>
<g id="Vector_104">
<path d="M 0.0127854 13.1642C 0.0127854 13.1642 4.70494 32.5015 24.5563 40.9955L 24.5563 19.1281L 33.2187 33.4051C 33.2187 33.4051 29.2485 3.94739 22.7516 0.694389C 16.2548 -2.55861 -0.528616 6.2968 0.0127854 13.1642Z" transform="translate(415.498 258.475)" fill="#312D74"/>
</g>
<g id="Vector_105">
<path d="M 0.896676 3.12289C 0.896676 3.12289 -1.62986 14.1469 1.79901 18.3036C 4.32555 21.3758 7.21307 20.4722 8.83727 23.1831C 11.3638 27.3397 16.4169 30.7734 17.4997 22.2794C 18.5825 12.5204 11.1833 0.231325 11.1833 0.231325C 11.1833 0.231325 2.34041 -1.21444 0.896676 3.12289Z" transform="translate(497.45 241.95)" fill="#ECC19C"/>
</g>
<g id="Vector_106">
<path d="M 25.0556 12.7512C 21.6267 5.16084 25.7774 0.642783 23.7923 0.100616C 21.6267 -0.441551 19.2806 1.18495 18.5588 5.52228C 17.8369 10.5825 8.09165 0.462072 3.03857 2.99218C -2.0145 5.5223 -0.570757 13.4741 5.92606 16.5464C 12.6033 19.4379 18.1978 19.4379 18.1978 19.4379C 18.1978 19.4379 24.6946 19.4379 25.0556 12.7512Z" transform="translate(343.174 180.093)" fill="#ECC19C"/>
</g>
<g id="Vector_107">
<path d="M 3.24941 1.44577C 0.361937 36.6866 -1.80368 76.4455 2.1666 90.3611C 7.40014 108.614 30.8609 141.867 30.8609 141.867C 36.9967 141.867 40.7865 138.072 40.7865 138.072C 40.7865 138.072 21.1157 103.915 20.3938 84.9395C 19.6719 65.9636 26.5297 35.783 26.5297 35.783C 48.5466 95.0599 51.4341 159.216 51.4341 159.216C 56.6676 163.012 63.3449 159.216 63.3449 159.216C 63.3449 159.216 61.3598 76.9877 55.2239 26.5662C 54.1411 17.1686 53.4192 8.13249 53.2388 -1.10304e-05C 47.8247 2.16866 38.8014 4.51805 26.1687 4.15661C 15.3407 4.15661 7.94155 2.71083 3.24941 1.44577Z" transform="translate(409.193 232.061)" fill="#252257"/>
</g>
<g id="Vector_108">
<path d="M 62.6221 0.145402C 59.5541 9.72368 46.9214 36.1091 33.3864 39.0007C 18.2272 42.4344 6.85777 31.7718 6.85777 31.7718C 6.1359 38.4585 -1.10148e-05 38.6393 -1.10148e-05 38.6393C -1.10148e-05 38.6393 9.02335 48.579 27.2505 52.1934C 42.5902 55.4464 54.862 41.3501 54.862 41.3501C 54.6815 42.2537 56.6667 43.1573 56.4862 44.2416C 56.6667 43.6995 68.2166 -2.92688 62.6221 0.145402Z" transform="translate(361.372 160.892)" fill="#312D74"/>
</g>
<g id="Vector_109">
<path d="M 62.6221 0.145402C 59.5541 9.72368 46.9214 36.1091 33.3864 39.0007C 18.2272 42.4344 6.85777 31.7718 6.85777 31.7718C 6.1359 38.4585 -1.10148e-05 38.6393 -1.10148e-05 38.6393C -1.10148e-05 38.6393 9.02335 48.579 27.2505 52.1934C 42.5902 55.4464 54.862 41.3501 54.862 41.3501C 54.6815 42.2537 56.6667 43.1573 56.4862 44.2416C 56.6667 43.6995 68.2166 -2.92688 62.6221 0.145402Z" transform="translate(361.372 160.892)" fill="url(#paint14_linear)"/>
</g>
<g id="Vector_110">
<path d="M 81.5711 52.5902C 67.1337 21.506 51.9745 5.51521e-06 32.3036 5.51521e-06C 23.6412 5.51521e-06 15.8811 3.07228 11.1889 14.4578C 6.31633 26.2047 2.70701 57.8311 2.52654 58.3733C 1.80467 66.6865 0.902346 75.9034 1.10148e-05 85.4817C 4.87262 86.9274 12.0913 88.1925 22.7389 88.3732C 35.3716 88.5539 44.3949 86.3852 49.8089 84.2166C 48.9066 56.5661 51.794 37.9517 51.794 37.9517C 78.6836 64.1564 85.9024 97.0479 85.9024 97.0479C 91.8578 100.482 96.5499 95.0599 96.5499 95.0599C 96.5499 95.0599 96.0085 83.4937 81.5711 52.5902Z" transform="translate(412.264 147.845)" fill="#312D74"/>
</g>
<g id="Vector_111">
<path d="M 0 2.99789L 0 38.058L 21.1147 3.54005C 21.1147 3.54005 11.189 -4.05028 0 2.99789Z" transform="translate(434.641 146.654)" fill="#E9F2F7"/>
</g>
<g id="Vector_112">
<path d="M 6.06864 -1.10304e-05C 6.06864 -1.10304e-05 13.6483 1.98795 18.16 12.4698L 14.9116 29.6385C 14.9116 29.6385 1.19605 17.1686 0.113252 11.7469C -0.96955 6.14455 6.06864 -1.10304e-05 6.06864 -1.10304e-05Z" transform="translate(417.384 255.555)" fill="url(#paint15_linear)"/>
</g>
<g id="Vector_113">
<path d="M 5.95641 1.04991L 0.00102185 20.0258C 0.00102185 20.0258 -0.359912 23.4595 12.6337 27.6161C 25.8078 31.7727 33.3874 26.1703 33.3874 26.1703L 35.7335 10.9896C 27.7929 -0.395866 11.19 -1.29948 5.95641 1.04991Z" transform="translate(432.294 85.5299)" fill="url(#paint16_linear)"/>
</g>
<g id="Vector_114">
<path d="M 21.2951 0.93003C 8.3015 -2.32297 4.51165 4.00231 4.51165 4.00231L -2.20297e-05 17.7372C 5.23352 14.3035 25.6263 16.6529 30.6794 26.7733L 33.206 11.5926C 33.206 11.5926 32.4841 3.82159 21.2951 0.93003Z" transform="translate(436.987 72.6378)" fill="#312D74"/>
</g>
<g id="Vector_115">
<path d="M 0.404425 6.55839C 3.11143 -0.309055 16.466 -1.93555 30.5424 2.40178C 48.5891 8.00417 56.1687 20.1126 44.4384 24.4499C 36.1369 27.7029 -4.46819 18.6668 0.404425 6.55839Z" transform="translate(423.589 94.2985)" fill="#312D74"/>
</g>
<g id="Vector_116">
<path d="M 35.8824 26.8697C 33.5363 36.6287 23.6106 42.5925 13.8654 40.2431C 4.12013 37.8937 -1.83527 27.954 0.510801 18.195L 2.85685 8.43601C 5.20292 -1.323 13.6849 -0.961554 23.4301 1.38784C 33.1753 3.73723 40.7549 7.35167 38.2284 17.2914L 35.8824 26.8697Z" transform="translate(427.093 100.373)" fill="#ECC19C"/>
</g>
<g id="Vector_117">
<path d="M 7.21223 6.05308C 6.49036 8.94463 4.68572 10.029 2.33965 10.029C 0.354511 10.029 -0.367379 7.31814 0.174022 4.42659C 0.89589 1.53503 2.88104 -0.452919 4.86618 0.0892483C 6.85132 0.631415 8.11456 2.61935 7.21223 6.05308Z" transform="translate(459.732 116.31)" fill="#ECC19C"/>
</g>
<g id="Vector_118">
<path d="M 2.20297e-05 9.44837L 3.97026 3.48453C 3.97026 3.48453 13.3546 -0.491362 17.8663 0.0508051C 22.3779 0.592972 34.6497 10.352 34.6497 10.352L 35.1911 16.4965C 23.4607 3.48453 6.85775 4.20742 1.44374 8.00259C 0.721868 8.72548 2.20297e-05 9.44837 2.20297e-05 9.44837Z" transform="translate(429.588 96.6494)" fill="#312D74"/>
</g>
<g id="Vector_119">
<path d="M 8.66242 85.6624C 8.66242 85.6624 1.62423 86.2045 2.20297e-05 93.072C 2.20297e-05 93.072 1.08278 73.1925 2.88745 59.0962C 4.69212 44.9999 7.03821 21.5059 12.9936 9.93972C 12.9936 9.93972 15.7006 3.253 22.9193 -5.51521e-06L 22.9193 35.0601L 12.4522 55.8432L 8.66242 85.6624Z" transform="translate(411.542 149.471)" fill="#312D74"/>
</g>
<g id="Vector_120">
<path d="M 8.66242 85.6624C 8.66242 85.6624 1.62423 86.2045 2.20297e-05 93.072C 2.20297e-05 93.072 1.08278 73.1925 2.88745 59.0962C 4.69212 44.9999 7.03821 21.5059 12.9936 9.93972C 12.9936 9.93972 15.7006 3.253 22.9193 -5.51521e-06L 22.9193 35.0601L 12.4522 55.8432L 8.66242 85.6624Z" transform="translate(411.542 149.471)" fill="url(#paint17_linear)"/>
</g>
<g id="Vector_121">
<path d="M 29.2357 0L 14.2569 33.9758L 0 62.1685L 0.180478 86.9274C 0.180478 86.9274 38.0785 89.9997 42.9511 113.494L 47.6433 145.662C 47.6433 145.662 50.8917 137.168 52.3354 125.241C 53.7792 113.313 40.6051 86.0238 41.3269 52.2287C 41.8683 29.0963 49.9894 11.9277 40.6051 4.69878C 36.2739 1.44578 29.2357 0 29.2357 0Z" transform="translate(420.203 148.206)" fill="#312D74"/>
</g>
<g id="Vector_122">
<path d="M 8.48195 3.36826L 2.34608 0.115254C 2.34608 0.115254 -2.20297e-05 -0.788352 -2.20297e-05 2.46465C -2.20297e-05 8.24776 0.902313 8.97065 0.902313 8.97065C 0.902313 8.97065 2.16559 10.2357 3.7898 8.78993C 5.414 7.34415 8.48195 5.17548 8.48195 5.17548L 8.48195 3.36826Z" transform="translate(432.476 143.754)" fill="url(#paint18_linear)"/>
</g>
<g id="Vector_123">
<path d="M 0.180478 3.54116L 6.49683 0.10745C 6.49683 0.10745 8.84288 -0.796172 8.84288 2.63755C 8.84288 8.60139 7.76006 9.32428 7.76006 9.32428C 7.76006 9.32428 6.49683 10.5893 4.69215 9.14357C 2.88748 7.69779 0 5.34839 0 5.34839L 0 3.54116L 0.180478 3.54116Z" transform="translate(440.958 143.219)" fill="url(#paint19_linear)"/>
</g>
<g id="Vector_124">
<path d="M 4.69212 3.61445C 4.69212 4.87951 3.60934 5.96383 2.34607 5.96383C 1.0828 5.96383 2.20297e-05 4.87951 2.20297e-05 3.61445L 2.20297e-05 2.34939C 2.20297e-05 1.08433 1.0828 5.51521e-06 2.34607 5.51521e-06C 3.60934 5.51521e-06 4.69212 1.08433 4.69212 2.34939L 4.69212 3.61445Z" transform="translate(438.611 145.134)" fill="url(#paint20_linear)"/>
</g>
<g id="Vector_125">
<path d="M 1.80465 3.61444C 2.80134 3.61444 3.60932 2.80532 3.60932 1.80722C 3.60932 0.809116 2.80134 -5.51521e-06 1.80465 -5.51521e-06C 0.807957 -5.51521e-06 -2.20297e-05 0.809116 -2.20297e-05 1.80722C -2.20297e-05 2.80532 0.807957 3.61444 1.80465 3.61444Z" transform="translate(425.257 210.917)" fill="url(#paint21_linear)"/>
</g>
<g id="Vector_126">
<path d="M 1.80467 3.61444C 2.80136 3.61444 3.60934 2.80532 3.60934 1.80722C 3.60934 0.809116 2.80136 -5.51521e-06 1.80467 -5.51521e-06C 0.807979 -5.51521e-06 0 0.809116 0 1.80722C 0 2.80532 0.807979 3.61444 1.80467 3.61444Z" transform="translate(436.446 210.917)" fill="url(#paint22_linear)"/>
</g>
<g id="Vector_127">
<path d="M 1.80465 3.61444C 2.80134 3.61444 3.60932 2.80532 3.60932 1.80722C 3.60932 0.809116 2.80134 -5.51521e-06 1.80465 -5.51521e-06C 0.807957 -5.51521e-06 -2.20297e-05 0.809116 -2.20297e-05 1.80722C -2.20297e-05 2.80532 0.807957 3.61444 1.80465 3.61444Z" transform="translate(425.257 225.375)" fill="url(#paint23_linear)"/>
</g>
<g id="Vector_128">
<path d="M 1.80467 3.61444C 2.80136 3.61444 3.60934 2.80532 3.60934 1.80722C 3.60934 0.809116 2.80136 -5.51521e-06 1.80467 -5.51521e-06C 0.807979 -5.51521e-06 0 0.809116 0 1.80722C 0 2.80532 0.807979 3.61444 1.80467 3.61444Z" transform="translate(436.446 225.375)" fill="url(#paint24_linear)"/>
</g>
<g id="Vector_129">
<path d="M 1.06546 0.00924186C 1.06546 0.00924186 5.57716 4.88875 8.6451 7.96103C 8.6451 7.96103 7.0209 18.9851 6.84043 28.5634C 6.84043 28.5634 4.31387 30.5513 1.9678 20.2501C -0.378272 9.94896 -0.558739 -0.352203 1.06546 0.00924186Z" transform="translate(455.773 178.016)" fill="url(#paint25_linear)"/>
</g>
<g id="Vector_130">
<path d="M 1.70845 2.7576e-06C -0.998555 2.7576e-06 -0.0962192 3.61445 1.70845 6.506C 1.70845 6.506 5.31779 2.7576e-06 1.70845 2.7576e-06Z" transform="translate(437.083 129.953)" fill="#312D74"/>
</g>
<g id="Vector_131">
<path d="M 2.20101 3.83062C 2.20101 4.37279 1.47912 4.91495 0.937723 4.73422C 0.396322 4.73422 -0.145079 4.01134 0.035388 3.46917L 0.396344 0.939058C 0.396344 0.396891 1.11818 -0.145276 1.65958 0.0354464C 2.20098 0.0354464 2.74238 0.758337 2.56192 1.3005L 2.20101 3.83062Z" transform="translate(446.156 111.303)" fill="#312D74"/>
</g>
<g id="Vector_132">
<path d="M 2.20103 3.83062C 2.20103 4.37279 1.6596 4.91495 0.937734 4.73423C 0.396333 4.73423 -0.145068 4.19206 0.0353991 3.46917L 0.396355 0.939058C 0.396355 0.396891 0.937723 -0.145276 1.65959 0.0354464C 2.20099 0.0354464 2.74239 0.577615 2.56193 1.3005L 2.20103 3.83062Z" transform="translate(433.703 110.4)" fill="#312D74"/>
</g>
<g id="Vector_133">
<path d="M -2.20297e-05 0.361447C -2.20297e-05 0.361447 5.77493 1.44577 12.8132 -5.51521e-06C 12.8132 -5.51521e-06 12.4522 5.96383 4.87261 5.42166C 0.360934 5.06022 -2.20297e-05 0.361447 -2.20297e-05 0.361447Z" transform="translate(434.279 123.266)" fill="#E29721"/>
</g>
<g id="Vector_134">
<path d="M 0.0270701 4.15662C 0.0270701 3.07228 0.568471 1.6265 3.63641 1.98794C 8.14809 2.53011 10.3137 1.44578 11.3965 0C 11.3965 0 12.4793 7.59034 2.1927 6.32528C 0.568493 6.14456 -0.153397 5.06023 0.0270701 4.15662Z" transform="translate(439.126 119.29)" fill="#312D74"/>
</g>
<g id="Vector_135">
<path d="M 7.78014 5.06023C 7.9606 3.9759 7.78015 2.71084 5.25361 2.53011C 2.0052 2.53011 0.561431 1.26506 0.200497 0C 0.200497 0 -1.60417 5.96383 5.61451 6.68672C 6.87778 6.86744 7.59967 5.96384 7.78014 5.06023Z" transform="translate(429.568 118.387)" fill="#312D74"/>
</g>
<g id="Vector_136">
<path d="M 1.10148e-05 0.0136241C 1.10148e-05 0.0136241 1.08282 5.07385 2.8875 6.3389C 6.6773 8.68829 6.13588 12.4835 5.23355 17.0015C 5.05308 17.9051 3.42887 20.9774 5.23355 20.9774C 7.94055 20.9774 7.94057 20.9774 8.30151 16.0979C 8.84291 10.4955 13.1741 11.9413 14.0764 14.11C 14.0764 14.11 14.6178 10.6762 14.4374 10.3148C 14.2569 10.1341 15.8811 7.24251 11.7304 4.35096C 7.57963 1.4594 5.9554 -0.167098 5.05307 0.0136241C 4.15073 0.194346 1.10148e-05 0.0136241 1.10148e-05 0.0136241Z" transform="translate(452.87 104.277)" fill="#312D74"/>
</g>
<g id="Vector_137">
<path d="M 9.74524 13.1927L 5.77495 10.8433L 1.44375 11.9277L 2.52656 7.59034L -2.20297e-05 3.79516L 4.69213 3.43372L 7.39914 -2.7576e-06L 9.20381 4.15662L 13.3546 5.78312L 9.92567 8.67467L 9.74524 13.1927Z" transform="translate(441.498 170.977)" fill="url(#paint26_linear)"/>
</g>
<g id="Group_27">
<g id="Vector_138">
<path d="M 4.51168 0.135542C 4.33121 1.03915 3.97026 1.94277 3.42886 2.66566C 3.06793 3.56927 2.52653 4.29215 1.62419 5.01504C 0.902324 5.55721 0.902313 5.91865 1.44371 6.64154C 1.98512 7.18371 2.70701 7.54515 3.60934 7.72587C 3.60934 7.72587 3.78982 7.72588 3.78982 7.90661C 3.78982 7.90661 3.78981 8.08733 3.60934 8.08733C 2.70701 8.26805 1.62419 8.08732 0.721857 7.36443C 0.360923 7.00299 0 6.46082 0 5.73793C 0 5.01504 0.541401 4.47288 0.902335 4.29216C 1.44374 3.74999 1.98513 3.0271 2.52653 2.30421C 3.06793 1.58132 3.4289 0.858431 3.9703 0.135542C 3.9703 -0.0451806 4.15073 -0.0451806 4.3312 0.135542C 4.51167 -0.0451806 4.51168 0.135542 4.51168 0.135542Z" transform="translate(435.543 112.83)" fill="#312D74"/>
</g>
</g>
</g>
</g>
</g>
<g id="Group_28">
<g id="Vector_139">
<path d="M 31.2208 47.1685L 9.02336 47.1685L 5.50742e-06 6.89401e-07L 41.6879 6.89401e-07L 31.2208 47.1685Z" transform="translate(5.67236 29.1101)" fill="url(#paint27_linear)"/>
</g>
<g id="Vector_140">
<path d="M 22.5584 34.3372L 6.49681 34.3372L 0 6.89401e-07L 30.138 6.89401e-07L 22.5584 34.3372Z" transform="translate(11.4468 29.1101)" fill="white"/>
</g>
<g id="Vector_141">
<path d="M 10.4671 -8.61751e-08L 32.6645 -8.61751e-08L 41.6879 15.9036L 5.50742e-06 15.9036L 10.4671 -8.61751e-08Z" transform="translate(5.67236 6.88123)" fill="url(#paint28_linear)"/>
</g>
<g id="Vector_142">
<path d="M 51.7941 0L -5.50742e-06 0L -5.50742e-06 6.32528L 51.7941 6.32528L 51.7941 0Z" transform="translate(0.078125 22.7849)" fill="url(#paint29_linear)"/>
</g>
<g id="Vector_143">
<path d="M 27.9724 1.3788e-06L 17.5053 1.3788e-06L 10.1062 1.3788e-06L 5.50742e-06 1.3788e-06L 5.50742e-06 4.69878L 6.49682 4.69878L 6.49682 8.67467L 10.1062 8.67467L 10.1062 287.891L 17.5053 287.891L 17.5053 8.67467L 21.6561 8.67467L 21.6561 4.69878L 27.9724 4.69878L 27.9724 1.3788e-06Z" transform="translate(11.9883 76.2787)" fill="url(#paint30_linear)"/>
</g>
</g>
<g id="Group 2_3" style="mix-blend-mode:multiply">
<g id="Group_29">
<g id="Vector_144">
<path d="M 61.9428 6.04726e-06L -1.20404e-05 6.04726e-06L -1.20404e-05 113.742L 61.9428 113.742L 61.9428 6.04726e-06Z" transform="translate(552 157.258)" fill="url(#paint31_linear)"/>
</g>
<g id="Vector_145">
<path d="M 16.9652 15.8525L 16.9652 3.02363e-06L 61.7455 3.02363e-06L 61.7455 15.8525L 77.1326 15.8525L 77.1326 164.668L -1.20404e-05 164.668L -1.20404e-05 15.8525L 16.9652 15.8525Z" transform="translate(633.868 99)" fill="url(#paint32_linear)"/>
</g>
</g>
<g id="Vector_146">
<path d="M 54.2493 -3.02363e-06L 1.20404e-05 -3.02363e-06L 1.20404e-05 3.36867L 54.2493 3.36867L 54.2493 -3.02363e-06Z" transform="translate(646.099 126.148)" fill="white"/>
</g>
<g id="Vector_147">
<path d="M 54.2493 -3.02363e-06L 1.20404e-05 -3.02363e-06L 1.20404e-05 3.36867L 54.2493 3.36867L 54.2493 -3.02363e-06Z" transform="translate(646.099 137.046)" fill="white"/>
</g>
<g id="Vector_148">
<path d="M 54.2493 -3.02363e-06L 1.20404e-05 -3.02363e-06L 1.20404e-05 3.36867L 54.2493 3.36867L 54.2493 -3.02363e-06Z" transform="translate(646.099 147.945)" fill="white"/>
</g>
<g id="Vector_149">
<path d="M 54.2493 -3.02363e-06L 1.20404e-05 -3.02363e-06L 1.20404e-05 3.36867L 54.2493 3.36867L 54.2493 -3.02363e-06Z" transform="translate(646.099 158.844)" fill="white"/>
</g>
<g id="Vector_150">
<path d="M 54.2493 -6.04726e-06L 1.20404e-05 -6.04726e-06L 1.20404e-05 3.36867L 54.2493 3.36867L 54.2493 -6.04726e-06Z" transform="translate(646.099 169.94)" fill="white"/>
</g>
<g id="Vector_151">
<path d="M 54.2493 -6.04726e-06L 1.20404e-05 -6.04726e-06L 1.20404e-05 3.36867L 54.2493 3.36867L 54.2493 -6.04726e-06Z" transform="translate(646.099 180.839)" fill="white"/>
</g>
<g id="Vector_152">
<path d="M 54.2493 -6.04726e-06L 1.20404e-05 -6.04726e-06L 1.20404e-05 3.36867L 54.2493 3.36867L 54.2493 -6.04726e-06Z" transform="translate(646.099 191.737)" fill="white"/>
</g>
<g id="Vector_153">
<path d="M 54.2493 -6.04726e-06L 1.20404e-05 -6.04726e-06L 1.20404e-05 3.36867L 54.2493 3.36867L 54.2493 -6.04726e-06Z" transform="translate(646.099 202.636)" fill="white"/>
</g>
<g id="Vector_154">
<path d="M 54.2493 -6.04726e-06L 1.20404e-05 -6.04726e-06L 1.20404e-05 3.36867L 54.2493 3.36867L 54.2493 -6.04726e-06Z" transform="translate(646.099 213.535)" fill="white"/>
</g>
</g>
</g>
<g id="Group_30">
<g id="Vector_155">
<path d="M 25.7868 0C 14.4173 0 5.03302 8.13251 2.86741 18.7951C 2.68694 19.3373 2.68694 20.6023 2.86741 22.2288C 2.68694 23.3132 2.326 25.1204 0.882261 26.3855C -0.922409 28.012 0.160415 29.277 3.04789 29.9999C 3.04789 29.9999 3.0479 29.9999 3.22837 29.9999C 3.76977 42.289 13.8759 49.1565 26.5086 49.1565C 39.3218 49.1565 49.067 36.3252 49.067 23.4939C 49.067 10.4819 38.5999 0 25.7868 0Z" transform="translate(553.559 126.823)" fill="#ECC19C"/>
</g>
<g id="Vector_156">
<path d="M 149.993 24.9996C 149.272 37.3585 115.202 46.2457 73.7406 44.8571C 32.2793 43.4684 -0.709467 32.3593 0.011599 20.0004C 0.732665 7.64155 34.8031 -1.24573 76.2644 0.142913C 117.545 1.53155 150.534 12.6407 149.993 24.9996Z" transform="translate(506 446)" fill="url(#paint33_linear)"/>
</g>
<g id="Vector_157">
<path d="M 24.1768 5.78312C 24.1768 5.78312 20.0261 9.75902 11.5441 11.2048C 3.06217 12.6506 -0.908087 13.3734 0.174716 17.8915C 1.25752 22.4095 29.9518 20.2409 36.0877 17.8915C 42.0431 15.3614 36.0877 -1.10304e-05 36.0877 -1.10304e-05C 36.0877 -1.10304e-05 25.4401 4.87951 24.1768 5.78312Z" transform="translate(549.574 434.774)" fill="#312D74"/>
</g>
<g id="Vector_158">
<path d="M 0 -1.10304e-05C 0 -1.10304e-05 10.828 35.6023 12.6327 61.807C 12.6327 61.807 18.0467 64.5179 22.5584 61.807L 19.8514 -1.10304e-05L 0 -1.10304e-05Z" transform="translate(561.118 378.75)" fill="#ECC19C"/>
</g>
<g id="Vector_159">
<path d="M 0 -1.10304e-05C 0 -1.10304e-05 10.828 35.6023 12.6327 61.807C 12.6327 61.807 18.0467 64.5179 22.5584 61.807L 19.8514 -1.10304e-05L 0 -1.10304e-05Z" transform="translate(561.118 378.75)" fill="url(#paint34_linear)"/>
</g>
<g id="Vector_160">
<path d="M 0 1.10304e-05C 0 1.10304e-05 8.12102 54.2167 8.12102 84.9395C 8.12102 84.9395 14.6178 88.5539 19.8514 84.9395L 19.8514 1.80723L 0 1.10304e-05Z" transform="translate(575.555 371.882)" fill="#ECC19C"/>
</g>
<g id="Vector_161">
<path d="M 92.3894 182.881C 97.8034 176.737 107.729 180.893 109.353 167.881C 110.978 155.05 86.0731 150.171 81.9223 148.183C 71.0943 142.761 66.5826 140.05 67.485 134.628C 67.485 134.628 75.606 136.255 78.313 129.93C 78.313 129.93 71.9967 62.1589 65.6803 34.1469C 59.364 6.13494 42.9414 -1.27466 38.6102 0.171116C 26.8799 3.78556 8.83319 26.918 1.97544 81.6769C -3.43857 125.592 3.41915 185.411 8.83317 189.568C 22.5487 200.411 46.9117 205.291 68.3873 202.399C 87.3363 199.508 87.1559 188.664 92.3894 182.881Z" transform="translate(540.554 183.399)" fill="#31E8B7"/>
</g>
<g id="Vector_162">
<path d="M 16.8067 2.34937C 16.8067 2.34937 15.1825 9.03613 8.68569 14.6385C 0.745143 21.506 -0.879071 25.3011 0.384198 27.6505C 1.64747 30.1806 9.04664 29.8192 16.0849 24.3975C 23.1231 18.9758 29.0785 14.8192 29.0785 10.4819C 29.0785 0.903589 28.7176 0 28.7176 0C 23.3035 6.14456 16.8067 2.34937 16.8067 2.34937Z" transform="translate(566.869 453.027)" fill="#312D74"/>
</g>
<g id="Group_31">
<g id="Vector_163">
<path d="M 1.10148e-05 -5.51521e-06C 2.52655 3.07227 4.69213 6.506 6.85774 9.93972C 9.02334 13.3734 10.828 16.9879 12.6327 20.6024C 16.242 27.8312 19.31 35.4216 21.8365 43.1926L 23.8216 48.9757L 25.6263 54.7589C 26.8896 58.554 27.7919 62.5299 28.6943 66.5058C 29.5966 70.4817 30.3184 74.4576 31.0403 78.4335C 31.7622 82.4094 32.3036 86.3853 32.6646 90.5419L 30.4989 90.9033C 29.5966 86.9274 28.6943 82.9515 27.9724 79.1564L 25.2654 67.4094C 23.4607 59.6384 21.6561 51.6866 19.1295 44.0962C 16.7835 36.5059 14.0765 28.9156 11.0085 21.506C 7.94057 14.0964 4.51169 6.68672 1.10148e-05 -5.51521e-06Z" transform="translate(577.539 224.774)" fill="#31CEB7"/>
</g>
</g>
<g id="Vector_164">
<path d="M 1.05426 2.3494C 1.05426 2.3494 -2.01366 7.04817 2.31755 13.9156C 5.74643 19.3373 13.6869 20.0602 17.8377 18.0722C 21.0861 16.4457 21.4471 13.9156 19.4619 13.3734C 16.9354 12.6506 13.8674 11.5662 14.0479 9.759C 14.5893 2.89155 12.0628 5.51521e-06 12.0628 5.51521e-06C 12.0628 5.51521e-06 9.53621 5.06024 1.05426 2.3494Z" transform="translate(606.985 312.606)" fill="#ECC19C"/>
</g>
<g id="Vector_165">
<path d="M 7.5669 18.5661C 7.5669 18.5661 3.77708 28.6866 16.4098 31.2167C 16.4098 31.2167 20.1996 22.1806 27.9597 27.783C 34.2761 32.301 29.0425 42.6022 23.2676 43.8672C 23.2676 43.8672 5.76225 67.1804 33.1932 82.3611C 48.7134 91.0358 57.5563 83.9876 59.9024 109.108C 61.707 130.253 82.0998 136.036 90.4013 132.963C 98.7028 130.072 97.62 119.048 88.7771 112.361C 81.1975 106.759 86.2506 97.9032 87.1529 86.6984C 88.4162 72.0599 82.8217 65.5539 74.1592 59.0479C 65.6773 52.5419 63.5117 48.7467 63.5117 35.7347C 63.5117 17.3011 53.4056 -3.48199 25.9746 0.493899C 2.69431 3.92762 -2.35875 19.6505 0.889654 29.4095C 0.889654 29.4095 3.59663 21.4577 7.5669 18.5661Z" transform="translate(556.077 114.401)" fill="#312D74"/>
</g>
<g id="Group_32">
<g id="Vector_166">
<path d="M 0.341695 2.95674C -0.0192394 2.41458 -0.199707 1.69168 0.341695 0.788067C 0.883096 0.0651774 1.78545 -0.115534 2.50732 0.0651884C 3.22919 0.0651884 3.95106 0.426633 4.31199 0.9688C 4.67293 1.51097 4.85337 2.05313 4.85337 2.77602C 4.85337 2.95675 4.67289 2.95674 4.67289 2.95674L 4.49242 2.95674C 4.13148 2.5953 3.77059 2.23385 3.40966 2.05313C 3.04872 1.87241 2.86826 1.87241 2.50732 1.87241C 2.14639 1.87241 1.96588 1.87241 1.78541 2.05313C 1.60494 2.05313 1.4245 2.41458 1.24403 2.95674C 1.24403 3.13746 1.06354 3.31818 0.883074 3.31818C 0.341673 3.13746 0.341695 2.95674 0.341695 2.95674Z" transform="translate(558.971 145.372)" fill="#312D74"/>
</g>
</g>
<g id="Vector_167">
<path d="M 7.57963 3.79517C 7.57963 5.96384 5.77495 5.96383 3.78981 5.96383C 1.80467 5.96383 -1.10148e-05 5.96384 -1.10148e-05 3.79517C -1.10148e-05 1.6265 1.80467 5.51521e-06 3.78981 5.51521e-06C 5.77495 5.51521e-06 7.57963 1.6265 7.57963 3.79517Z" transform="translate(560.035 150.859)" fill="#E0A8A3"/>
</g>
<mask id="mask0" mask-type="alpha" maskUnits="userSpaceOnUse" x="556" y="126" width="47" height="50">
<g id="SVGID 14">
<g id="Group_33">
<g id="Vector_168">
<path d="M 46.1432 23.3132C 46.1432 36.1445 36.398 48.9757 23.5848 48.9757C 10.7716 48.9757 0.304549 41.9276 0.304549 28.9156C 0.304549 27.4698 -0.236863 20.2409 0.124071 18.7951C 2.28968 8.13251 11.674 0 23.0434 0C 35.6761 0 46.1432 10.4819 46.1432 23.3132Z" transform="translate(556.482 126.823)" fill="white"/>
</g>
</g>
</g>
</mask>
<g mask="url(#mask0)">
<g id="Group_34">
<g id="Vector_169">
<path d="M 1.0828 0.0803155C 1.6242 0.261038 1.98512 0.441766 2.52652 0.622488C 3.06792 0.622488 3.60936 0.803207 4.15076 0.803207C 4.69217 0.803207 5.23356 0.803207 5.77496 0.803207C 6.31636 0.803207 6.85775 0.622493 7.39915 0.261049C 7.57962 0.261049 7.76011 0.261049 7.76011 0.261049L 7.76011 0.441768C 7.57964 1.34538 7.03821 2.06827 6.31634 2.42971C 5.59447 2.79116 4.87262 2.97188 3.97029 2.97188C 3.24842 2.97188 2.34605 2.79116 1.62418 2.42971C 0.902313 2.06827 0.180456 1.34538 -1.10148e-05 0.441768C -1.10148e-05 0.261046 0.180478 0.0803155 0.360945 0.0803155C 0.721879 -0.100407 0.902336 0.0803155 1.0828 0.0803155Z" transform="translate(553.719 159.634)" fill="#312D74"/>
</g>
</g>
<g id="Vector_170">
<path d="M 3.06794 6.14456C 4.76232 6.14456 6.1359 4.76905 6.1359 3.07228C 6.1359 1.3755 4.76232 2.7576e-06 3.06794 2.7576e-06C 1.37356 2.7576e-06 -2.20297e-05 1.3755 -2.20297e-05 3.07228C -2.20297e-05 4.76905 1.37356 6.14456 3.06794 6.14456Z" transform="translate(574.292 154.654)" fill="#F1F2F2"/>
</g>
</g>
</g>
</g>
</g>
<defs>

<linearGradient id="paint0_linear" x2="1" gradientUnits="userSpaceOnUse" gradientTransform="matrix(0 176.857 -177.405 0 120.445 -115.234)">
<stop offset="0.0107527" stop-color="#D5E2E8"/>
<stop offset="1" stop-color="#D5E2E8" stop-opacity="0"/>
</linearGradient>
<linearGradient id="paint1_linear" x2="1" gradientUnits="userSpaceOnUse" gradientTransform="matrix(0 214.776 -215.441 0 145.582 -101.074)">
<stop offset="0.0107527" stop-color="#D5E2E8"/>
<stop offset="1" stop-color="#D5E2E8" stop-opacity="0"/>
</linearGradient>
<linearGradient id="paint2_linear" x2="1" gradientUnits="userSpaceOnUse" gradientTransform="matrix(0 -30.2329 38.1825 0 49.8685 33.3257)">
<stop stop-color="#E9F2F7" stop-opacity="0"/>
<stop offset="1" stop-color="#E9F2F7"/>
</linearGradient>
<linearGradient id="paint3_linear" x2="1" gradientUnits="userSpaceOnUse" gradientTransform="translate(-0.104671 5.03763) scale(28.1085 28.1482)">
<stop stop-color="#FFDD15"/>
<stop offset="1" stop-color="#FCB534"/>
</linearGradient>
<linearGradient id="paint4_linear" x2="1" gradientUnits="userSpaceOnUse" gradientTransform="matrix(19.0479 8.17497 -8.16343 19.0749 1.89247 3.34336)">
<stop stop-color="#5E1300"/>
<stop offset="0.2552" stop-color="#5E1300" stop-opacity="0.7152"/>
<stop offset="1" stop-color="#5E1300" stop-opacity="0"/>
</linearGradient>
<linearGradient id="paint5_linear" x2="1" gradientUnits="userSpaceOnUse" gradientTransform="matrix(63.8252 3.72714 -3.72187 63.9155 3.00574 16.1055)">
<stop stop-color="#FFDD15"/>
<stop offset="1" stop-color="#FCB534"/>
</linearGradient>
<linearGradient id="paint6_linear" x2="1" gradientUnits="userSpaceOnUse" gradientTransform="matrix(28.8159 3.20619 -3.20167 28.8567 -17.8062 3.08676)">
<stop stop-color="#5E1300"/>
<stop offset="0.2552" stop-color="#5E1300" stop-opacity="0.7152"/>
<stop offset="1" stop-color="#5E1300" stop-opacity="0"/>
</linearGradient>
<linearGradient id="paint7_linear" x2="1" gradientUnits="userSpaceOnUse" gradientTransform="matrix(19.5076 1.19602 -1.19433 19.5352 -13.0063 9.93938)">
<stop/>
<stop offset="0.5564" stop-color="#161414" stop-opacity="0.4436"/>
<stop offset="1" stop-color="#231F20" stop-opacity="0"/>
</linearGradient>
<linearGradient id="paint8_linear" x2="1" gradientUnits="userSpaceOnUse" gradientTransform="matrix(20.1408 -0.509627 0.508907 20.1692 -0.181063 1.63956)">
<stop stop-color="#FFDD15"/>
<stop offset="1" stop-color="#FCB534"/>
</linearGradient>
<linearGradient id="paint9_linear" x2="1" gradientUnits="userSpaceOnUse" gradientTransform="matrix(0 -42.8543 42.7938 0 57.1725 46.1586)">
<stop stop-color="#E9F2F7" stop-opacity="0"/>
<stop offset="1" stop-color="#E9F2F7"/>
</linearGradient>
<linearGradient id="paint10_linear" x2="1" gradientUnits="userSpaceOnUse" gradientTransform="matrix(-87.918 71.9818 -71.8801 -88.0423 139.264 48.4181)">
<stop/>
<stop offset="0.5564" stop-color="#161414" stop-opacity="0.4436"/>
<stop offset="1" stop-color="#231F20" stop-opacity="0"/>
</linearGradient>
<linearGradient id="paint11_linear" x2="1" gradientUnits="userSpaceOnUse" gradientTransform="matrix(20.217 11.6582 -11.6418 20.2456 4.38623 3.9318)">
<stop/>
<stop offset="0.5564" stop-color="#161414" stop-opacity="0.4436"/>
<stop offset="1" stop-color="#231F20" stop-opacity="0"/>
</linearGradient>
<linearGradient id="paint12_linear" x2="1" gradientUnits="userSpaceOnUse" gradientTransform="matrix(19.8606 8.16885 -8.15731 19.8887 -6.94359 3.32881)">
<stop/>
<stop offset="0.5564" stop-color="#161414" stop-opacity="0.4436"/>
<stop offset="1" stop-color="#231F20" stop-opacity="0"/>
</linearGradient>
<linearGradient id="paint13_linear" x2="1" gradientUnits="userSpaceOnUse" gradientTransform="matrix(0 -33.596 44.8939 0 54.0509 29.9086)">
<stop stop-color="#E9F2F7" stop-opacity="0"/>
<stop offset="1" stop-color="#E9F2F7"/>
</linearGradient>
<linearGradient id="paint14_linear" x2="1" gradientUnits="userSpaceOnUse" gradientTransform="matrix(-68.6556 -4.95522 4.94823 -68.7527 103.301 64.9869)">
<stop/>
<stop offset="0.5564" stop-color="#161414" stop-opacity="0.4436"/>
<stop offset="1" stop-color="#231F20" stop-opacity="0"/>
</linearGradient>
<linearGradient id="paint15_linear" x2="1" gradientUnits="userSpaceOnUse" gradientTransform="matrix(-22.5629 5.51095 -5.50316 -22.5948 35.0549 20.7636)">
<stop/>
<stop offset="0.5564" stop-color="#161414" stop-opacity="0.4436"/>
<stop offset="1" stop-color="#231F20" stop-opacity="0"/>
</linearGradient>
<linearGradient id="paint16_linear" x2="1" gradientUnits="userSpaceOnUse" gradientTransform="translate(-0.0950087 -3.44357) scale(35.8501 35.9008)">
<stop stop-color="#FF0068"/>
<stop offset="1" stop-color="#FEA729"/>
</linearGradient>
<linearGradient id="paint17_linear" x2="1" gradientUnits="userSpaceOnUse" gradientTransform="matrix(-22.859 -7.53016 7.51952 -22.8914 29.0982 65.0709)">
<stop/>
<stop offset="0.5564" stop-color="#161414" stop-opacity="0.4436"/>
<stop offset="1" stop-color="#231F20" stop-opacity="0"/>
</linearGradient>
<linearGradient id="paint18_linear" x2="1" gradientUnits="userSpaceOnUse" gradientTransform="translate(-0.0835563 0.494864) scale(8.47961 8.4916)">
<stop stop-color="#FF0068"/>
<stop offset="1" stop-color="#FEA729"/>
</linearGradient>
<linearGradient id="paint19_linear" x2="1" gradientUnits="userSpaceOnUse" gradientTransform="translate(8.90912 0.495636) scale(-8.79849 8.81094)">
<stop stop-color="#FF0068"/>
<stop offset="1" stop-color="#FEA729"/>
</linearGradient>
<linearGradient id="paint20_linear" x2="1" gradientUnits="userSpaceOnUse" gradientTransform="matrix(0 -3.5183 3.51333 0 0.43655 2.83915)">
<stop stop-color="#FF0068"/>
<stop offset="1" stop-color="#FEA729"/>
</linearGradient>
<linearGradient id="paint21_linear" x2="1" gradientUnits="userSpaceOnUse" gradientTransform="translate(0.0967304 0.0841262) scale(3.59617 3.60125)">
<stop stop-color="#FFDD15"/>
<stop offset="1" stop-color="#FCB534"/>
</linearGradient>
<linearGradient id="paint22_linear" x2="1" gradientUnits="userSpaceOnUse" gradientTransform="translate(-0.00685775 0.0842166) scale(3.59599 3.60107)">
<stop stop-color="#FFDD15"/>
<stop offset="1" stop-color="#FCB534"/>
</linearGradient>
<linearGradient id="paint23_linear" x2="1" gradientUnits="userSpaceOnUse" gradientTransform="translate(0.0967304 0.00243975) scale(3.59617 3.60125)">
<stop stop-color="#FFDD15"/>
<stop offset="1" stop-color="#FCB534"/>
</linearGradient>
<linearGradient id="paint24_linear" x2="1" gradientUnits="userSpaceOnUse" gradientTransform="translate(-0.00685775 0.00253011) scale(3.59599 3.60107)">
<stop stop-color="#FFDD15"/>
<stop offset="1" stop-color="#FCB534"/>
</linearGradient>
<linearGradient id="paint25_linear" x2="1" gradientUnits="userSpaceOnUse" gradientTransform="matrix(-11.5506 3.38529 -3.38051 -11.567 18.2667 16.3644)">
<stop/>
<stop offset="0.5564" stop-color="#161414" stop-opacity="0.4436"/>
<stop offset="1" stop-color="#231F20" stop-opacity="0"/>
</linearGradient>
<linearGradient id="paint26_linear" x2="1" gradientUnits="userSpaceOnUse" gradientTransform="translate(0.0626221 -0.0988551) scale(13.3383 13.3572)">
<stop stop-color="#FFDD15"/>
<stop offset="1" stop-color="#FCB534"/>
</linearGradient>
<linearGradient id="paint27_linear" x2="1" gradientUnits="userSpaceOnUse" gradientTransform="matrix(0 66.0464 -65.9531 0 53.8147 5.71516)">
<stop stop-color="#D5E2E8"/>
<stop offset="0.2354" stop-color="#D5E2E8" stop-opacity="0.7152"/>
<stop offset="1" stop-color="#D5E2E8" stop-opacity="0"/>
</linearGradient>
<linearGradient id="paint28_linear" x2="1" gradientUnits="userSpaceOnUse" gradientTransform="matrix(0 31.8034 -31.7585 0 36.7174 -7.0273)">
<stop stop-color="#D5E2E8"/>
<stop offset="0.2354" stop-color="#D5E2E8" stop-opacity="0.7152"/>
<stop offset="1" stop-color="#D5E2E8" stop-opacity="0"/>
</linearGradient>
<linearGradient id="paint29_linear" x2="1" gradientUnits="userSpaceOnUse" gradientTransform="matrix(23.4479 49.0038 -48.9346 23.4811 38.8018 -32.7992)">
<stop stop-color="#D5E2E8"/>
<stop offset="0.2354" stop-color="#D5E2E8" stop-opacity="0.7152"/>
<stop offset="1" stop-color="#D5E2E8" stop-opacity="0"/>
</linearGradient>
<linearGradient id="paint30_linear" x2="1" gradientUnits="userSpaceOnUse" gradientTransform="matrix(222.949 465.943 -465.285 223.265 139.349 -202.441)">
<stop stop-color="#D5E2E8"/>
<stop offset="0.2354" stop-color="#D5E2E8" stop-opacity="0.7152"/>
<stop offset="1" stop-color="#D5E2E8" stop-opacity="0"/>
</linearGradient>
<linearGradient id="paint31_linear" x2="1" gradientUnits="userSpaceOnUse" gradientTransform="matrix(0 212.471 211.52 0 -74.802 -138.536)">
<stop offset="0.0107527" stop-color="#D5E2E8"/>
<stop offset="1" stop-color="#D5E2E8" stop-opacity="0"/>
</linearGradient>
<linearGradient id="paint32_linear" x2="1" gradientUnits="userSpaceOnUse" gradientTransform="matrix(0 243.774 242.683 0 -82.7528 -114.642)">
<stop offset="0.0107527" stop-color="#D5E2E8"/>
<stop offset="1" stop-color="#D5E2E8" stop-opacity="0"/>
</linearGradient>
<linearGradient id="paint33_linear" x2="1" gradientUnits="userSpaceOnUse" gradientTransform="matrix(0 -31.4759 40.8605 0 54.5187 34.2394)">
<stop stop-color="#E9F2F7" stop-opacity="0"/>
<stop offset="1" stop-color="#E9F2F7"/>
</linearGradient>
<linearGradient id="paint34_linear" x2="1" gradientUnits="userSpaceOnUse" gradientTransform="matrix(-36.9221 24.8621 -24.827 -36.9743 58.7466 25.7766)">
<stop stop-color="#5E1300"/>
<stop offset="0.2552" stop-color="#5E1300" stop-opacity="0.7152"/>
<stop offset="1" stop-color="#5E1300" stop-opacity="0"/>
</linearGradient>

</defs>
</svg>

