<svg width="741" height="600" viewBox="0 0 741 600" version="1.1" xmlns="http://www.w3.org/2000/svg" xmlns:xlink="http://www.w3.org/1999/xlink">
<g id="Canvas" fill="none">
<g id="Group">
<g id="Group_2">
<g id="Vector">
<path d="M 0 2.32744e-06L 0 61.0125L 42.8487 18.1512C 31.7172 7.47403 16.621 0.610128 0 2.32744e-06Z" transform="translate(290.555 70.0117)" fill="url(#paint0_linear)"/>
</g>
<g id="Vector_2">
<path d="M 58.2498 41.641L 16.621 1.16372e-06C 6.7094 11.1348 0.457469 25.6253 9.30704e-06 41.641L 58.2498 41.641Z" transform="translate(222.851 91.8237)" fill="url(#paint1_linear)"/>
</g>
<g id="Vector_3">
<path d="M 9.30704e-06 18.4563L 43.1537 61.6227L 43.1537 2.32744e-06C 26.3802 0.610128 11.284 7.47404 9.30704e-06 18.4563Z" transform="translate(242.674 70.0117)" fill="url(#paint2_linear)"/>
</g>
<g id="Vector_4">
<path d="M 63.1294 4.65489e-06L 0 4.65489e-06L 0 168.7C 0 204.087 28.0575 232.763 62.9769 234.136L 62.9769 4.65489e-06L 63.1294 4.65489e-06Z" transform="translate(222.698 142.312)" fill="url(#paint3_linear)"/>
</g>
<g id="Vector_5">
<path d="M 0 4.65489e-06L 0 234.136C 35.0719 232.915 62.9769 204.087 62.9769 168.7L 62.9769 4.65489e-06L 0 4.65489e-06Z" transform="translate(290.555 142.312)" fill="url(#paint4_linear)"/>
</g>
<g id="Vector_6">
<path d="M 41.9338 -2.32744e-06L 4.65352e-06 41.7936L 58.7073 41.7936C 58.2498 25.7778 51.9979 11.1348 41.9338 -2.32744e-06Z" transform="translate(294.824 91.6709)" fill="url(#paint5_linear)"/>
</g>
</g>
<g id="Group_3" opacity="0.5">
<g id="Vector_7" opacity="0.5">
<path d="M 24.5503 11.8974C 38.1091 11.8974 49.1006 9.23411 49.1006 5.94873C 49.1006 2.66334 38.1091 -9.30977e-06 24.5503 -9.30977e-06C 10.9915 -9.30977e-06 -1.86141e-05 2.66334 -1.86141e-05 5.94873C -1.86141e-05 9.23411 10.9915 11.8974 24.5503 11.8974Z" transform="translate(400.803 372.024)" fill="url(#paint6_linear)"/>
</g>
<g id="Vector_8" opacity="0.5">
<path d="M 51.4542 0.129906C 38.9503 -3.83591 -14.42 83.8696 3.72592 143.967C 21.7193 204.064 59.536 202.539 82.104 185.913C 104.672 169.287 85.0012 146.56 79.5117 132.222C 74.0222 117.884 89.1183 112.698 80.2741 100.496C 71.4299 88.293 63.3481 90.581 51.3017 73.4975C 39.2553 56.414 85.0012 10.9596 51.4542 0.129906Z" transform="translate(382.591 169.333)" fill="url(#paint7_linear)"/>
</g>
<g id="Vector_9" opacity="0.5">
<path d="M 24.5503 5.94872C 10.979 5.94872 -1.86141e-05 3.35569 -1.86141e-05 4.65489e-06L 6.40443 34.7772C 25.6177 45.3018 44.831 34.7772 44.831 34.7772L 48.9482 4.65489e-06C 49.1006 3.20316 38.1216 5.94872 24.5503 5.94872Z" transform="translate(400.803 377.973)" fill="url(#paint8_linear)"/>
</g>
<g id="Vector_10" opacity="0.5">
<path d="M 52.036 93.9593C 51.5786 93.5017 50.6636 93.5017 50.2062 93.9593L 24.8934 120.347C 23.9785 115.466 23.0636 110.433 21.8437 105.094C 20.3188 98.5352 19.0989 91.8239 18.0315 85.265L 38.4647 62.0803C 38.9222 61.6227 38.9222 60.7075 38.3122 60.2499C 37.8548 59.7923 36.9398 59.7923 36.4824 60.4024L 17.5741 82.0619C 13.4569 53.5385 13.4569 26.0829 18.0315 2.8981C 18.184 1.98291 18.3365 1.52531 18.3365 1.37278C 18.3365 0.610125 17.8791 9.30977e-06 17.1166 9.30977e-06C 16.3542 9.30977e-06 15.7442 0.457585 15.7442 1.22024C 15.7442 1.37277 15.5918 1.83037 15.4393 2.4405C 11.9321 20.5917 11.0171 41.336 12.6945 63.148L 2.17292 52.1657C 1.71546 51.7081 0.800573 51.7081 0.343113 52.1657C -0.114346 52.6233 -0.114346 53.5385 0.343113 53.9961L 12.9995 67.2663C 13.6094 73.215 14.2194 79.1637 15.2868 85.1125C 16.2017 91.0612 17.2691 97.0099 18.6415 102.959L 3.69779 94.2644C 3.08784 93.9593 2.3254 94.1118 2.02043 94.722C 1.71545 95.3321 1.86797 96.0947 2.47791 96.3998L 19.4039 106.162C 27.9432 144.6 27.9431 173.581 27.9431 173.886C 27.9431 174.648 28.5531 175.106 29.163 175.106C 29.9255 175.106 30.3829 174.496 30.3829 173.886C 30.3829 173.581 30.3829 152.989 25.1984 123.398L 51.8835 95.7897C 52.4935 95.3321 52.4935 94.5694 52.036 93.9593Z" transform="translate(397.257 227.424)" fill="#D5E2E8"/>
</g>
</g>
<g id="Vector_11">
<path d="M 9.30704e-06 10.8297L 3.20223 198.901L 50.473 206.527L 45.8984 2.32744e-06L 9.30704e-06 10.8297Z" transform="translate(651.338 153.904)" fill="url(#paint9_linear)"/>
</g>
<g id="Vector_12">
<path d="M 182.679 257.778L 182.679 -1.16372e-06L -9.30704e-06 -1.16372e-06L 3.65966 288.589L 182.679 257.778Z" transform="translate(471.861 95.0271)" fill="url(#paint10_linear)"/>
</g>
<g id="Vector_13">
<path d="M 58.5548 37.5227C 90.8937 37.5227 117.11 29.123 117.11 18.7614C 117.11 8.39976 90.8937 -9.30977e-06 58.5548 -9.30977e-06C 26.2159 -9.30977e-06 9.30704e-06 8.39976 9.30704e-06 18.7614C 9.30704e-06 29.123 26.2159 37.5227 58.5548 37.5227Z" transform="translate(278.508 452.103)" fill="url(#paint11_linear)"/>
</g>
<g id="Vector_14">
<path d="M 0.609946 2.44051L 9.30704e-06 13.4227L 7.31934 13.4227L 7.47184 11.7449L 11.589 13.4227L 31.1072 13.4227C 31.1072 13.4227 31.7172 9.762 28.3625 8.38922C 25.0078 7.01644 12.0464 5.18607 9.30167 0C 9.14918 0 7.47184 3.66076 0.609946 2.44051Z" transform="translate(349.414 446.154)" fill="#312D74"/>
</g>
<g id="Vector_15">
<path d="M 3.04972 -9.30977e-06C 3.04972 -9.30977e-06 1.82984 4.88098 0.914919 8.23667C 0 11.5924 -9.30704e-06 16.4734 -9.30704e-06 16.4734L 14.7912 16.4734C 14.7912 16.4734 15.5536 13.5753 13.4188 11.4398C 11.589 9.60946 10.8265 5.79621 10.979 0.457613C 10.8265 0.457613 6.55691 2.28796 3.04972 -9.30977e-06Z" transform="translate(308.7 454.391)" fill="#312D74"/>
</g>
<g id="Vector_16">
<path d="M 42.2388 4.88101C 42.0863 3.20317 41.9338 1.5253 41.6288 -9.30977e-06C 39.494 1.22024 35.8343 2.8981 29.4299 4.42341C 21.0431 6.40632 11.589 5.79618 6.40444 5.33859C 6.55693 12.05 6.86188 19.0664 6.86188 27.6082C 6.40442 90.4511 -9.30704e-06 125.991 -9.30704e-06 125.991C -9.30704e-06 125.991 3.65968 128.889 7.77681 126.448C 18.1459 87.553 20.2807 55.2163 26.3802 26.8455C 26.3802 26.8455 37.8167 56.4366 38.2741 120.195C 38.2741 120.195 43.3062 122.33 47.1183 118.212C 47.1183 117.907 47.2708 50.6404 42.2388 4.88101Z" transform="translate(311.75 328.552)" fill="#4707FF"/>
</g>
<g id="Vector_17">
<path d="M 6.09945 5.06063C 6.09945 5.06063 2.13481 8.87391 -4.65352e-06 15.2802C -4.65352e-06 15.2802 3.04973 21.8391 5.03205 31.1435C 7.01438 40.4479 11.4365 32.5163 11.4365 32.5163C 11.4365 32.5163 13.1138 20.6188 13.4188 18.3309C 13.7238 15.8904 12.3514 0.637219 11.7415 0.0270942C 11.1315 -0.4305 6.09945 5.06063 6.09945 5.06063Z" transform="translate(338.131 339.812)" fill="url(#paint12_linear)"/>
</g>
<g id="Vector_18">
<path d="M 141.979 19.4658C 142.588 31.9734 111.329 43.8708 72.1397 45.7012C 32.9507 47.5316 0.776028 38.9898 0.0135959 26.4822C -0.748837 13.9747 30.6634 2.07721 69.8524 0.246838C 109.041 -1.58354 141.216 6.95822 141.979 19.4658Z" transform="translate(169.772 554.052)" fill="url(#paint13_linear)"/>
</g>
<g id="Vector_19">
<path d="M 9.04129 1.52533C 9.04129 1.52533 12.8535 4.42341 20.1728 5.03353C 27.3397 5.64366 30.8469 5.94873 30.3894 9.76201C 29.9319 13.5753 8.27886 14.643 3.09432 13.1177C -2.09022 11.5924 0.807025 1.86195e-05 0.807025 1.86195e-05C 0.807025 1.86195e-05 7.97388 0.915206 9.04129 1.52533Z" transform="translate(221.892 547.13)" fill="#312D74"/>
</g>
<g id="Vector_20">
<path d="M 16.621 0C 16.621 0 10.3691 30.8113 10.979 52.9284C 10.979 52.9284 5.33703 55.6739 2.2873 52.4708L 4.65352e-06 1.52531L 16.621 0Z" transform="translate(220.106 495.727)" fill="#ECC19C"/>
</g>
<g id="Vector_21">
<path d="M 16.621 0C 16.621 0 10.3691 30.8113 10.979 52.9284C 10.979 52.9284 6.40444 49.5727 2.2873 47.5898L 4.65352e-06 1.52531L 16.621 0Z" transform="translate(220.106 495.727)" fill="url(#paint14_linear)"/>
</g>
<g id="Vector_22">
<path d="M 0.286297 18.3038C -0.323649 13.1177 -0.171168 9.15187 2.87856 6.55884C 4.40343 5.33859 5.77582 4.57595 6.84322 4.11836C 8.2156 3.50823 9.13052 3.20316 9.13052 3.20316C 9.13052 3.20316 11.2653 -9.30977e-06 13.8576 -9.30977e-06C 16.4499 -9.30977e-06 18.2797 2.89809 15.6874 10.6772C 13.0952 18.4563 8.97802 23.3373 5.92829 23.3373C 2.87856 23.3373 0.286297 18.3038 0.286297 18.3038Z" transform="translate(289.048 347.619)" fill="#ECC19C"/>
</g>
<g id="Vector_23">
<path d="M 0.286297 18.3038C -0.323649 13.1177 -0.171168 9.15187 2.87856 6.55884C 4.40343 5.33859 5.77582 4.57595 6.84322 4.11836C 8.2156 3.50823 9.13052 3.20316 9.13052 3.20316C 9.13052 3.20316 11.2653 -9.30977e-06 13.8576 -9.30977e-06C 16.4499 -9.30977e-06 18.2797 2.89809 15.6874 10.6772C 13.0952 18.4563 8.97802 23.3373 5.92829 23.3373C 2.87856 23.3373 0.286297 18.3038 0.286297 18.3038Z" transform="translate(289.048 347.619)" fill="url(#paint15_linear)"/>
</g>
<g id="Vector_24">
<path d="M 7.27666 4.65489e-06C 7.27666 4.65489e-06 7.42914 5.18607 18.5607 3.81329C 21.7629 36.9126 49.2104 16.7785 52.2602 14.4905C 54.8524 12.5076 59.2745 17.5411 58.6646 19.6765C 57.2922 23.9474 41.2811 41.4885 19.3231 33.0993C -2.63497 24.5575 0.1098 2.13543 0.1098 2.13543" transform="translate(237.227 350.517)" fill="url(#paint16_linear)"/>
</g>
<g id="Vector_25">
<path d="M 7.27666 4.65489e-06C 7.27666 4.65489e-06 7.42914 5.18607 18.5607 3.81329C 21.7629 36.9126 49.2104 16.7785 52.2602 14.4905C 54.8524 12.5076 59.2745 17.5411 58.6646 19.6765C 57.2922 23.9474 41.2811 41.4885 19.3231 33.0993C -2.63497 24.5575 0.1098 2.13543 0.1098 2.13543" transform="translate(237.227 350.517)" fill="#31CEB7"/>
</g>
<g id="Vector_26">
<path d="M 16.621 0C 16.621 0 14.0288 46.217 16.4685 71.9948C 16.4685 71.9948 11.284 75.503 6.55692 72.91L 0 3.05063L 16.621 0Z" transform="translate(228.799 491.151)" fill="#ECC19C"/>
</g>
<g id="Vector_27">
<path d="M 10.2768 1.06771C 10.2768 1.06771 12.1067 6.55883 18.0536 10.8297C 25.2205 16.0158 27.0503 18.9139 26.1354 21.0493C 25.2205 23.1848 18.9686 23.6424 12.5641 19.524C 6.15971 15.4057 0.975151 12.5076 0.517692 8.84682C -0.244741 0.915189 0.0602509 1.86195e-05 0.0602509 1.86195e-05C 5.0923 4.72849 10.2768 1.06771 10.2768 1.06771Z" transform="translate(234.99 560.857)" fill="#312D74"/>
</g>
<g id="Vector_28">
<path d="M 3.48323 26.2876C 3.48323 26.2876 -0.786388 19.8813 0.128531 15.7629C 1.04345 11.6446 2.26333 8.2889 2.26333 5.8484C 2.26333 3.56043 6.07549 5.84839 5.61803 9.96674C 5.61803 9.96674 6.22799 0.66233 8.82026 0.0522045C 12.6324 -1.01551 19.6468 14.5427 13.8523 24.1522C 7.90534 33.6091 6.07549 31.0161 6.07549 31.0161L 3.48323 26.2876Z" transform="translate(298.509 346.652)" fill="#ECC19C"/>
</g>
<g id="Vector_29">
<path d="M 57.7842 99.5249C 53.5146 84.1192 53.667 74.6622 52.9046 60.7819C 57.1742 63.5275 63.5787 64.9003 68.4582 65.0528C 94.5334 65.8155 103.53 39.7326 103.53 34.8516C 103.53 29.9706 96.6682 28.5978 94.2284 31.9535C 91.7887 35.1566 74.5577 64.9003 59.004 31.4959C 43.4504 -1.90845 37.9609 1.44722 37.9609 1.44722C 35.3687 -0.0780969 32.9289 -0.23061 31.709 0.226984C 21.7974 3.27761 7.46363 19.5985 1.66914 65.6629C -2.90545 102.728 2.88904 153.216 7.46363 156.724C 19.0526 165.876 39.6383 170.299 57.7842 167.554C 73.6428 165.266 73.4903 156.114 77.9124 151.08C 82.487 145.894 94.2284 144.827 94.2284 133.844C 94.076 121.032 64.0361 122.405 57.7842 99.5249Z" transform="translate(207.001 338.545)" fill="#31E8B7"/>
</g>
<g id="Vector_30">
<path d="M 19.6707 39.3531C 30.5346 39.3531 39.3415 30.5436 39.3415 19.6765C 39.3415 8.80948 30.5346 0 19.6707 0C 8.80689 0 0 8.80948 0 19.6765C 0 30.5436 8.80689 39.3531 19.6707 39.3531Z" transform="translate(229.562 296.673)" fill="#ECC19C"/>
</g>
<g id="Group_4">
<g id="Vector_31">
<path d="M 0 19.6766C 0 30.5063 8.23427 41.336 19.0608 41.336C 29.8874 41.336 38.7316 35.3873 38.7316 24.405C 38.7316 23.1848 39.189 17.0835 38.8841 15.8633C 37.0542 6.86392 29.1249 -4.65489e-06 19.5183 -4.65489e-06C 8.84422 -4.65489e-06 0 8.84683 0 19.6766Z" transform="translate(229.562 296.216)" fill="#ECC19C"/>
</g>
<g id="Group_5">
<g id="Vector_32">
<path d="M 3.04973 2.4405L 3.04973 2.28796C 3.04973 2.13543 2.89725 1.9829 2.89725 1.9829C 2.74477 1.83037 2.74475 1.83039 2.59226 1.83039L 2.43979 1.83039L 2.28729 1.83039C 2.43978 1.83039 2.28729 1.83039 2.28729 1.83039L 2.13482 1.83039C 1.98233 1.83039 1.82983 1.83039 1.82983 1.83039C 1.67734 1.83039 1.67735 1.83039 1.52486 1.83039C 1.37237 1.83039 1.2199 1.98291 0.914924 2.13544C 0.609951 2.44051 0.304964 2.59304 0.304964 2.59304C 0.152477 2.74557 0.152482 2.74557 -4.65352e-06 2.59304L -4.65352e-06 2.4405C -4.65352e-06 2.4405 -4.65352e-06 2.28797 -4.65352e-06 2.13544C -4.65352e-06 1.98291 -4.65352e-06 1.98292 -4.65352e-06 1.83039C -4.65352e-06 1.67785 4.6467e-06 1.52532 0.152491 1.37279C 0.304978 1.06772 0.457455 0.762652 0.762428 0.457589C 0.914914 0.305058 1.06741 0.152531 1.37239 0.152531C 1.67736 0 1.82984 -9.30977e-06 1.98232 -9.30977e-06L 2.13482 -9.30977e-06C 2.13482 -9.30977e-06 2.13481 -9.30977e-06 2.28729 -9.30977e-06L 2.43979 -9.30977e-06C 2.59228 -9.30977e-06 2.59227 -9.30977e-06 2.74476 -9.30977e-06C 3.04973 -9.30977e-06 3.20221 0.152541 3.35469 0.305072C 3.81215 0.610135 3.96464 1.06772 4.11713 1.37279C 4.11713 1.67785 3.96465 1.98291 3.96465 2.13544C 3.81217 2.28797 3.81216 2.28796 3.81216 2.28796L 3.65969 2.28796C 3.35471 2.74555 3.20221 2.74556 3.04973 2.4405C 3.04973 2.59303 3.04973 2.59303 3.04973 2.4405Z" transform="translate(262.65 311.774)" fill="#312D74"/>
</g>
</g>
<g id="Vector_33">
<path d="M 0 3.20315C 0 5.03353 1.52487 5.03352 3.20223 5.03352C 4.87958 5.03352 6.40443 5.03353 6.40443 3.20315C 6.40443 1.37278 4.87958 9.30977e-06 3.20223 9.30977e-06C 1.52487 9.30977e-06 0 1.37278 0 3.20315Z" transform="translate(259.295 316.655)" fill="#E0A8A3"/>
</g>
<g id="Group_6">
<g id="Group_7">
<g id="Vector_34">
<path d="M 6.40443 0.457599C 6.40443 0.61013 6.40442 0.762657 6.25194 0.762657C 6.09945 0.915188 5.94697 1.37278 5.642 1.52531C 5.48951 1.67784 5.33702 1.83037 5.18454 1.83037C 5.03205 1.9829 4.72709 2.13543 4.5746 2.13543C 4.42211 2.13543 4.11714 2.28797 3.81217 2.28797C 3.50719 2.28797 3.35471 2.28797 3.04973 2.28797L 2.43977 2.28797C 2.28729 2.28797 1.98232 2.13543 1.67734 2.13543C 1.37237 2.13543 1.21989 1.9829 1.06741 1.83037C 0.914919 1.67784 0.762428 1.5253 0.609941 1.37277C 0.304968 1.06771 0.152477 0.762647 0.152477 0.610116C -9.30476e-06 0.457585 4.65352e-06 0.305058 4.65352e-06 0.305058C 4.65352e-06 0.152527 -9.30476e-06 0 0.152477 0C 0.304964 0 0.457469 9.3075e-06 0.457469 0.152541C 0.457469 0.152541 0.762428 0.457599 1.37237 0.457599C 1.67735 0.457599 1.98233 0.610116 2.2873 0.610116C 2.43979 0.610116 2.59228 0.610116 2.74477 0.610116L 3.3547 0.610116C 3.3547 0.610116 3.65968 0.610116 3.81217 0.610116C 3.96465 0.610116 4.11714 0.610116 4.26963 0.610116C 4.5746 0.610116 4.87956 0.457599 5.18454 0.457599C 5.48951 0.457599 5.64201 0.305058 5.7945 0.305058C 5.94698 0.305058 5.94697 0.152541 5.94697 0.152541C 6.09945 9.3075e-06 6.25195 9.3075e-06 6.40443 0.152541C 6.40443 0.305072 6.40443 0.305067 6.40443 0.457599Z" transform="translate(263.565 323.366)" fill="#312D74"/>
</g>
</g>
</g>
<g id="Vector_35">
<path d="M 1.48675 9.30977e-06C 1.48675 9.30977e-06 1.48674 2.59304 3.16409 4.11835C 4.68895 5.49113 3.77404 6.55885 1.33426 7.16898C -0.800554 7.62657 0.266856 1.67784 0.266856 1.67784L 1.48675 9.30977e-06Z" transform="translate(267.11 314.367)" fill="#ECC19C"/>
</g>
</g>
<g id="Vector_36">
<path d="M 74.7712 15.1577C 74.7712 15.1577 77.9734 23.6995 67.2994 25.8349C 67.2994 25.8349 64.0972 18.2084 57.5402 22.9369C 52.2032 26.7501 56.6253 35.4444 61.5049 36.5121C 61.5049 36.5121 76.2961 56.1887 53.1181 69.0013C 40.0043 76.3228 32.5325 70.3741 30.5501 91.576C 29.0253 109.422 11.7943 114.303 4.77991 111.71C -2.23447 109.27 -1.31955 99.9652 6.15229 94.3215C 12.5567 89.593 8.28711 82.119 7.52467 72.6621C 6.45727 60.307 11.1843 54.8159 18.5037 49.3248C 25.6706 43.8337 27.5004 40.6305 27.5004 29.6482C 27.5004 14.09 38.4794 -2.68842 60.7424 0.362211C 80.4132 3.10778 83.158 16.0729 80.4132 24.3096C 80.5657 24.3096 78.1259 17.5982 74.7712 15.1577Z" transform="translate(187.727 286.702)" fill="#312D74"/>
</g>
<g id="Vector_37">
<path d="M 20.8136 12.8126C 20.8136 12.8126 12.2743 8.84681 6.78483 -9.30977e-06C 6.78483 -9.30977e-06 -6.93895 16.0158 4.65002 31.879C 11.2069 40.8784 18.6788 45.9119 21.576 44.3866C 23.8633 43.1664 22.3384 36.1499 22.3384 36.1499C 22.3384 36.1499 20.9661 21.5069 20.8136 12.8126Z" transform="translate(239.091 386.514)" fill="url(#paint17_linear)"/>
</g>
<g id="Vector_38">
<path d="M 2.51501 4.65489e-06C 2.51501 4.65489e-06 5.8697 16.6259 18.6786 16.3209C 27.0653 16.1683 30.725 9.91454 30.725 9.91454C 30.725 9.91454 34.6896 10.9823 35.1471 14.3379C 35.6046 17.5411 26.7604 26.2354 16.8487 25.3202C 9.37689 24.7101 4.64982 23.4898 1.29512 15.8633C -2.21207 8.23669 2.51501 4.65489e-06 2.51501 4.65489e-06Z" transform="translate(340.8 281.115)" fill="url(#paint18_linear)"/>
</g>
<g id="Vector_39">
<path d="M 0.0270863 11.5282C 0.0270863 11.5282 0.0270722 8.32501 1.70442 5.27438C 3.22929 2.68135 5.36411 2.83389 5.36411 2.83389C 5.36411 2.83389 7.34644 -0.979383 9.63374 0.240867C 13.7509 2.37631 12.531 9.39274 10.0912 13.0535C 7.6514 16.7142 5.05914 17.3244 5.05914 17.3244C 5.05914 17.3244 -0.430373 16.8668 0.0270863 11.5282Z" transform="translate(369.517 281.332)" fill="#B08874"/>
</g>
<g id="Vector_40">
<path d="M 0.0270863 11.5282C 0.0270863 11.5282 0.0270722 8.32501 1.70442 5.27438C 3.22929 2.68135 5.36411 2.83389 5.36411 2.83389C 5.36411 2.83389 7.34644 -0.979383 9.63374 0.240867C 13.7509 2.37631 12.531 9.39274 10.0912 13.0535C 7.6514 16.7142 5.05914 17.3244 5.05914 17.3244C 5.05914 17.3244 -0.430373 16.8668 0.0270863 11.5282Z" transform="translate(369.517 281.332)" fill="url(#paint19_linear)"/>
</g>
<g id="Vector_41">
<path d="M 27.8822 68.029C 34.2866 66.5037 38.0988 64.9784 40.0811 63.6056C 35.3541 21.2019 28.4922 9.30977e-06 16.2933 9.30977e-06C 5.92417 9.30977e-06 -2.3101 7.93163 0.587143 28.0658C 1.0446 30.8113 4.24681 49.1151 4.70427 68.7916C 10.0413 69.5543 19.343 70.0119 27.8822 68.029Z" transform="translate(313.299 264.795)" fill="url(#paint20_linear)"/>
</g>
<g id="Vector_42">
<path d="M 4.71271 0.171366C 4.71271 0.171366 -1.99669 7.34034 0.595576 16.9498C 3.18785 26.5593 14.3194 29.3049 21.4862 26.5593C 28.6531 23.8137 28.0431 21.3732 28.0431 21.3732C 28.0431 21.3732 25.1459 8.56058 24.231 5.35742C 23.3161 2.15426 5.9326 -0.743822 4.71271 0.171366Z" transform="translate(321.981 281.707)" fill="url(#paint21_linear)"/>
</g>
<g id="Vector_43">
<path d="M 27.4346 45.7915C 33.8391 44.2662 37.6512 42.7409 39.6335 41.3681C 34.9065 -1.03562 39.1761 23.5219 27.1297 23.5219C 16.7606 23.5219 -2.60521 -14.3058 0.292032 5.98083C 0.749491 8.72639 3.95173 27.0301 4.40919 46.7067C 9.59373 47.3168 18.8954 47.7744 27.4346 45.7915Z" transform="translate(313.745 287.032)" fill="url(#paint22_radial)"/>
</g>
<g id="Vector_44">
<path d="M 0.17688 10.5071C 0.17688 10.5071 0.634344 7.15145 2.92164 4.40588C 4.90397 1.96538 7.03877 2.42297 7.03877 2.42297C 7.03877 2.42297 9.78354 -1.23779 11.7659 0.440057C 14.6631 3.03309 12.5283 9.897 9.47856 13.4052C 6.42883 16.7609 4.44651 17.371 4.44651 17.371C 4.44651 17.371 -1.04301 15.8457 0.17688 10.5071Z" transform="translate(359.303 286.929)" fill="#B08874"/>
</g>
<g id="Vector_45">
<path d="M 15.9471 9.49084C 14.5747 14.6769 8.93274 27.7946 23.7239 33.1332C 33.0256 36.4889 48.4267 26.5743 48.4267 26.5743C 53.4588 27.6421 52.6964 33.1332 52.6964 33.1332C 52.6964 33.1332 34.5505 54.1825 12.4399 42.1325C -10.738 29.3199 5.57802 0.338959 5.57802 0.338959C 5.57802 0.338959 19.1493 -2.71167 15.9471 9.49084Z" transform="translate(311.205 271.167)" fill="url(#paint23_linear)"/>
</g>
<g id="Vector_46">
<path d="M 122.767 16.0934C 123.53 26.9231 96.5398 37.6003 62.6878 39.7357C 28.8358 41.8711 0.778281 34.8547 0.0158482 24.025C -0.746584 13.1953 26.091 2.51808 60.0955 0.382644C 94.1 -1.75279 122.005 5.26363 122.767 16.0934Z" transform="translate(83.3105 472.464)" fill="url(#paint24_linear)"/>
</g>
<g id="Vector_47">
<path d="M 2.63284 2.59302C 2.63284 2.59302 0.498017 5.49112 0.193044 8.38922C -0.264416 11.8974 -0.111925 16.931 2.9378 15.2531C 6.44499 13.2702 11.0196 4.881 8.27483 -4.65489e-06L 2.63284 2.59302Z" transform="translate(109.971 363.329)" fill="#ECC19C"/>
</g>
<g id="Vector_48">
<path d="M 0.609946 2.4405L -2.32676e-06 13.4228L 7.31935 13.4228L 7.47184 11.7449L 11.589 13.4228L 31.1072 13.4228C 31.1072 13.4228 31.7172 9.762 28.3625 8.38921C 25.0078 7.01643 12.0464 5.18606 9.30167 -9.30977e-06C 9.30167 -9.30977e-06 7.47184 3.81328 0.609946 2.4405Z" transform="translate(160.331 465.068)" fill="#312D74"/>
</g>
<g id="Vector_49">
<path d="M 4.26962 -1.86195e-05C 4.26962 -1.86195e-05 1.82983 4.72849 0.914914 8.23671C -4.72623e-06 11.5924 -2.32676e-06 16.4734 -2.32676e-06 16.4734L 18.7558 16.4734C 18.7558 16.4734 19.5183 13.2702 16.621 11.2873C 13.7238 9.30443 10.979 5.03355 12.0464 0.610144C 12.0464 0.457613 7.77681 2.44048 4.26962 -1.86195e-05Z" transform="translate(103.911 473.305)" fill="#312D74"/>
</g>
<g id="Vector_50">
<path d="M 56.8775 4.881C 56.725 3.20316 56.5725 1.52532 56.2675 4.65489e-06C 54.1327 1.22026 50.473 2.89809 44.0686 4.4234C 35.6818 6.40631 26.2277 5.7962 21.0431 5.3386C 21.1956 12.05 21.1956 19.2189 20.7382 27.7607C 19.0608 66.8087 4.65352e-06 125.838 4.65352e-06 125.838C 4.65352e-06 125.838 3.65968 128.736 7.77681 126.296C 16.0111 107.535 34.7669 55.0638 40.8664 26.693C 40.8664 26.693 52.3029 56.2841 52.7603 120.042C 52.7603 120.042 57.7924 122.178 61.6045 118.059C 61.757 118.059 61.9095 50.7929 56.8775 4.881Z" transform="translate(108.028 347.467)" fill="#403C7E"/>
</g>
<g id="Vector_51">
<path d="M 6.09945 5.06063C 6.09945 5.06063 2.13481 8.87391 -4.65352e-06 15.2802C -4.65352e-06 15.2802 3.04973 21.8391 5.03205 31.1435C 7.01438 40.4479 11.4365 32.5163 11.4365 32.5163C 11.4365 32.5163 13.1138 20.6188 13.4188 18.3309C 13.7238 15.8904 12.3514 0.637219 11.7415 0.0270942C 11.1315 -0.4305 6.09945 5.06063 6.09945 5.06063Z" transform="translate(149.048 358.879)" fill="url(#paint25_linear)"/>
</g>
<g id="Vector_52">
<path d="M 2.51501 -4.65489e-06C 2.51501 -4.65489e-06 5.86971 16.6259 18.6786 16.3208C 27.0653 16.1683 30.725 9.91453 30.725 9.91453C 30.725 9.91453 34.6896 10.9823 35.1471 14.338C 35.6046 17.5411 26.7603 26.2354 16.8487 25.3202C 9.37689 24.7101 4.64981 23.4898 1.29511 15.8633C -2.21208 8.38923 2.51501 -4.65489e-06 2.51501 -4.65489e-06Z" transform="translate(154.31 306.13)" fill="#FE9029"/>
</g>
<g id="Vector_53">
<path d="M 2.51501 -4.65489e-06C 2.51501 -4.65489e-06 5.86971 16.6259 18.6786 16.3208C 27.0653 16.1683 30.725 9.91453 30.725 9.91453C 30.725 9.91453 34.6896 10.9823 35.1471 14.338C 35.6046 17.5411 26.7603 26.2354 16.8487 25.3202C 9.37689 24.7101 4.64981 23.4898 1.29511 15.8633C -2.21208 8.38923 2.51501 -4.65489e-06 2.51501 -4.65489e-06Z" transform="translate(154.31 306.13)" fill="url(#paint26_linear)"/>
</g>
<g id="Vector_54">
<path d="M 0.0257326 11.1952C 0.0257326 11.1952 0.0257258 6.31419 2.00805 3.11103C 2.92297 1.58572 3.6854 3.41608 3.53291 4.78886C 2.92297 8.60215 4.9053 6.00912 4.9053 6.00912C 4.9053 6.00912 5.9727 -0.70225 9.02243 0.060407C 13.4445 1.12813 12.8346 8.75468 10.3948 12.4154C 7.95502 16.0762 5.36276 16.6863 5.36276 16.6863C 5.36276 16.6863 -0.431727 16.3813 0.0257326 11.1952Z" transform="translate(182.722 306.985)" fill="#ECC19C"/>
</g>
<g id="Vector_55">
<path d="M 41.5074 68.029C 47.9118 66.5037 51.724 64.9784 53.7063 63.6056C 48.9792 21.2019 42.1173 9.30977e-06 29.9184 9.30977e-06C 19.5493 9.30977e-06 7.35042 8.99935 2.31837 35.3873C -2.71369 61.7752 2.0134 82.0619 2.0134 82.0619C 2.0134 82.0619 6.4355 84.0448 8.41783 82.3669C 8.41783 82.3669 7.50291 51.7081 14.3648 36.3024C 14.3648 36.3024 18.0245 49.1151 18.4819 68.7916C 23.6665 69.4018 33.1206 69.8594 41.5074 68.029Z" transform="translate(110.59 283.861)" fill="#FEA729"/>
</g>
<g id="Vector_56">
<path d="M 7.77681 2.8525C 7.77681 2.8525 2.74476 10.3265 0 18.2582C 0 18.2582 1.82984 24.2069 2.74476 32.1385C 3.65968 40.0702 11.1315 29.5455 11.589 26.7999C 12.0464 24.0544 16.1636 13.3772 15.7061 10.9367C 15.2487 8.49617 16.3161 3.31011 15.7061 2.39493C 12.3514 -3.24873 7.77681 2.8525 7.77681 2.8525Z" transform="translate(125.107 302.058)" fill="url(#paint27_linear)"/>
</g>
<g id="Vector_57">
<path d="M 9.3196e-06 0.515633C 9.3196e-06 0.362847 0.152711 0.21008 0.152711 0.0572946C 0.152711 -0.095491 0.152702 0.0572759 9.3196e-06 0.515633Z" transform="translate(669.636 436.182)" fill="url(#paint28_linear)"/>
</g>
<g id="Vector_58">
<path d="M -1.86141e-05 1.86195e-05L 307.413 98.5352L 307.413 199.816L -1.86141e-05 63.453L -1.86141e-05 1.86195e-05Z" transform="translate(433.588 390.785)" fill="url(#paint29_linear)"/>
</g>
<g id="Vector_59">
<path d="M -1.86141e-05 37.9803L 220.953 4.65489e-06L 268.224 7.62657L 268.224 124.008L -1.86141e-05 37.9803Z" transform="translate(433.588 352.805)" fill="url(#paint30_linear)"/>
</g>
<g id="Vector_60">
<path d="M 17.8409 4.65489e-06C 9.45418 3.05063 0 8.99934 0 19.9816L 0 178.004C 0 178.004 14.1812 188.224 21.1956 172.971C 18.2984 149.938 11.1315 83.4346 17.8409 4.65489e-06Z" transform="translate(456.766 214.001)" fill="url(#paint31_linear)"/>
</g>
<g id="Vector_61">
<path d="M 20.4661 134.99C 17.4164 116.076 10.2495 39.3531 15.4341 -4.65489e-06C 15.4341 -4.65489e-06 9.48712 0.61013 2.77771 3.20316C -3.93169 86.7903 3.23515 153.141 6.28488 176.326C 6.28488 176.326 13.4517 182.427 23.5158 176.326C 33.7324 170.072 23.5158 153.904 20.4661 134.99Z" transform="translate(471.828 210.798)" fill="url(#paint32_linear)"/>
</g>
<g id="Vector_62">
<path d="M 23.9049 1.34908C 18.5679 -0.633823 12.9259 -0.786373 8.50379 3.33197C 8.50379 3.33197 9.11372 10.806 9.87616 23.161C 9.87616 23.161 19.6353 157.694 0.421976 225.265C 0.421976 225.418 0.269527 225.57 0.269527 225.723C -0.187932 227.248 -0.797897 232.434 5.30156 236.095C 12.7734 240.671 21.3126 236.4 21.3126 236.4C 32.2917 156.321 26.3447 39.6344 23.9049 1.34908Z" transform="translate(669.521 210.822)" fill="url(#paint33_linear)"/>
</g>
<g id="Vector_63">
<path d="M 2.74478 9.30977e-06C 5.18456 38.2854 11.1315 154.972 -9.30704e-06 235.051C -9.30704e-06 235.051 1.21989 242.982 12.3514 244.813C 22.263 246.491 22.4155 238.864 22.4155 238.864L 22.4155 14.1854C 22.4155 14.1854 12.8089 3.81329 2.74478 9.30977e-06Z" transform="translate(690.679 212.171)" fill="url(#paint34_linear)"/>
</g>
<g id="Vector_64">
<path d="M 0.00416972 67.4188C 0.00416972 67.4188 8.8484 150.548 148.221 191.122L 148.221 0C 148.374 0 -0.910749 17.9987 0.00416972 67.4188Z" transform="translate(564.721 35.0823)" fill="url(#paint35_linear)"/>
</g>
<g id="Vector_65">
<path d="M 0.0036783 36.4304C 0.0036783 36.4304 5.95066 127.797 116.808 190.945L 116.808 2.2634C 116.961 2.2634 -0.758754 -13.1423 0.0036783 36.4304Z" transform="translate(596.134 32.8188)" fill="url(#paint36_linear)"/>
</g>
<g id="Vector_66">
<path d="M 0.00720413 33.5718C 0.00720413 33.5718 -2.12761 126.768 67.1012 207.305L 67.1012 3.98068C 67.2537 3.98068 -0.755228 -16.0009 0.00720413 33.5718Z" transform="translate(645.841 16.6108)" fill="url(#paint37_linear)"/>
</g>
<g id="Vector_67">
<path d="M 9.30704e-06 18.3114L 9.30704e-06 139.269C 9.30704e-06 139.269 84.935 113.949 89.662 15.2608C 89.662 15.2608 86.3073 -1.82274 61.452 0.160168C 36.5967 1.99054 9.30704e-06 18.3114 9.30704e-06 18.3114Z" transform="translate(456.917 95.1721)" fill="url(#paint38_linear)"/>
</g>
<g id="Vector_68">
<path d="M 9.30704e-06 21.078L 9.30704e-06 141.578C 9.30704e-06 141.578 58.0973 111.682 62.9769 13.1463C 62.9769 13.1463 67.8565 -1.80173 43.0012 0.181173C 17.9934 2.01155 9.30704e-06 21.078 9.30704e-06 21.078Z" transform="translate(456.917 92.4053)" fill="url(#paint39_linear)"/>
</g>
<g id="Vector_69">
<path d="M 0.00661237 18.4065L 0.00661237 138.906C 0.00661237 138.906 26.8442 107.18 31.7238 8.49198C 31.7238 8.49198 48.8023 -1.72762 23.947 0.255285C -1.06082 2.08566 0.00661237 18.4065 0.00661237 18.4065Z" transform="translate(456.911 95.0767)" fill="url(#paint40_linear)"/>
</g>
<g id="Vector_70">
<path d="M 0.0465745 102.654C 0.504034 114.093 9.34826 123.398 20.7847 123.398C 29.9339 123.398 37.7107 117.449 40.4555 109.212C 45.3351 113.026 51.4345 115.314 58.1439 115.314C 73.3926 115.314 85.744 103.569 86.8114 88.7732C 93.6733 97.315 104.195 102.654 115.936 102.654C 129.965 102.654 142.164 94.8745 148.568 83.4346C 154.973 88.0106 162.902 90.7561 171.441 90.7561C 191.417 90.7561 207.886 75.8081 210.478 56.4366C 216.577 64.2157 226.032 69.0967 236.553 69.0967C 254.852 69.0967 265.678 54.1486 265.678 35.8449C 265.678 33.7094 265.678 0 265.678 0L 3.70629 87.0954C -0.105875 89.6884 -0.105912 100.061 0.0465745 102.654Z" transform="translate(447.265 0)" fill="url(#paint41_linear)"/>
</g>
<g id="Vector_71">
<path d="M 37.2067 77.4859C 57.7554 77.4859 74.4134 60.1401 74.4134 38.743C 74.4134 17.3458 57.7554 0 37.2067 0C 16.658 0 0 17.3458 0 38.743C 0 60.1401 16.658 77.4859 37.2067 77.4859Z" transform="translate(507.848 37.2175)" fill="#312D74"/>
</g>
<g id="Vector_72">
<path d="M 34.4619 35.6923L 20.7382 32.7942L 9.45417 41.0309L 8.0818 27.1506L -9.30704e-06 19.3715L 9.45417 13.1177L 13.8763 2.32744e-06L 23.178 10.2196L 37.2067 10.3721L 30.1923 22.4221L 34.4619 35.6923Z" transform="translate(518.369 53.9961)" fill="url(#paint42_linear)"/>
</g>
<g id="Vector_73">
<path d="M 20.8737 0.826159C 20.8737 0.826159 19.0439 5.24957 9.89469 6.92741C 2.88031 8.14766 0.897995 8.91032 0.135562 11.5034C -0.169411 12.5711 0.135562 13.9438 0.135562 13.9438L 29.7179 13.9438C 29.7179 13.9438 31.2428 5.40207 31.3953 1.89385C 31.7003 -1.61437 20.8737 0.826159 20.8737 0.826159Z" transform="translate(570.538 395.298)" fill="#312D74"/>
</g>
<g id="Vector_74">
<path d="M 20.8737 0.826159C 20.8737 0.826159 19.0439 5.24957 9.89469 6.92741C 2.88031 8.14766 0.897995 8.91032 0.135562 11.5034C -0.169411 12.5711 0.135562 13.9438 0.135562 13.9438L 29.7179 13.9438C 29.7179 13.9438 31.2428 5.40207 31.3953 1.89385C 31.7003 -1.61437 20.8737 0.826159 20.8737 0.826159Z" transform="translate(570.538 395.298)" fill="url(#paint43_linear)"/>
</g>
<g id="Vector_75">
<path d="M 11.1315 0.719828C 11.1315 0.719828 12.0464 8.04136 6.09944 13.38C 0.152468 19.0236 -1.86141e-05 20.3964 -1.86141e-05 23.5995C -1.86141e-05 23.5995 2.13482 24.6673 11.1315 24.6673C 20.5857 24.6673 20.5857 21.1591 20.5857 21.1591C 20.5857 21.1591 20.5857 13.38 22.263 5.14327C 23.9404 -2.63582 11.1315 0.719828 11.1315 0.719828Z" transform="translate(589.887 398.607)" fill="#312D74"/>
</g>
<g id="Vector_76">
<path d="M 68.314 18.0235C 67.2466 9.63427 58.0974 3.68552 33.0896 0.939961C 7.31935 -1.95813 -1.86141e-05 2.77036 -1.86141e-05 2.77036C 6.09944 2.16023 13.2663 0.939975 28.3625 10.702C 29.8873 11.7697 32.6321 14.3627 34.157 15.4304C 34.9194 15.2779 35.3769 15.2779 35.3769 15.2779C 35.3769 15.2779 43.3062 13.7526 51.3879 17.5659C 59.3172 21.3792 51.3879 30.0735 51.3879 30.0735C 51.3879 30.0735 51.083 30.226 50.778 30.5311C 53.2178 33.2766 54.5902 35.107 54.5902 35.107C 54.5902 35.107 69.0764 24.8874 68.314 18.0235Z" transform="translate(554.052 230.755)" fill="#312D74"/>
</g>
<g id="Vector_77">
<path d="M 68.314 18.0235C 67.2466 9.63427 58.0974 3.68552 33.0896 0.939961C 7.31935 -1.95813 -1.86141e-05 2.77036 -1.86141e-05 2.77036C 6.09944 2.16023 13.2663 0.939975 28.3625 10.702C 29.8873 11.7697 32.6321 14.3627 34.157 15.4304C 34.9194 15.2779 35.3769 15.2779 35.3769 15.2779C 35.3769 15.2779 43.3062 13.7526 51.3879 17.5659C 59.3172 21.3792 51.3879 30.0735 51.3879 30.0735C 51.3879 30.0735 51.083 30.226 50.778 30.5311C 53.2178 33.2766 54.5902 35.107 54.5902 35.107C 54.5902 35.107 69.0764 24.8874 68.314 18.0235Z" transform="translate(554.052 230.755)" fill="url(#paint44_linear)"/>
</g>
<g id="Vector_78">
<path d="M 4.06223 4.65489e-06C 4.06223 4.65489e-06 1.77493 10.3721 0.250065 23.3373C -1.2748 36.455 4.67216 45.9119 4.67216 45.9119C 4.67216 45.9119 8.9418 34.6246 11.6866 29.8961C 11.6866 29.8961 11.6866 11.2873 4.06223 4.65489e-06Z" transform="translate(585.975 300.182)" fill="#312D74"/>
</g>
<g id="Vector_79">
<path d="M 39.6401 8.65462C 39.6401 8.65462 84.0137 35.3476 84.0137 83.395C 84.0137 131.442 69.2225 171.1 69.2225 171.1C 69.2225 171.1 60.3783 171.558 58.091 166.372C 58.091 166.372 49.5517 168.507 48.4843 163.169C 48.4843 163.169 59.0059 121.375 53.6689 86.2931C 48.3318 51.2109 11.8876 32.4495 11.8876 32.4495C 11.8876 32.4495 -5.80086 22.9926 1.97595 8.34957C 11.1251 -8.12382 33.3881 4.07869 39.6401 8.65462Z" transform="translate(542.774 232.802)" fill="#252257"/>
</g>
<g id="Vector_80">
<path d="M 17.536 15.3545C 17.536 15.3545 14.9437 6.81271 12.3514 1.47412C 9.9116 -3.86448 2.89726 6.66018 2.28732 11.3887C 2.28732 11.5412 2.28731 11.6937 2.13482 11.9988C 3.5072 15.6595 4.5746 19.4728 5.18455 23.5912C 10.3691 58.6734 1.86141e-05 100.467 1.86141e-05 100.467C 1.06742 105.653 9.60665 103.67 9.60665 103.67C 9.60665 103.67 19.6708 62.3341 17.536 15.3545Z" transform="translate(591.259 295.962)" fill="url(#paint45_linear)"/>
</g>
<g id="Vector_81">
<path d="M 9.81475 9.30977e-06C 9.81475 9.30977e-06 -0.859292 6.86392 0.0556265 14.4905C 0.970545 22.1171 29.0281 33.2518 30.0955 33.2518C 31.1629 33.2518 34.2126 31.7265 33.4502 29.4385C 32.6877 27.1506 20.7938 2.74557 20.1839 1.83038C 19.5739 0.915193 9.81475 9.30977e-06 9.81475 9.30977e-06Z" transform="translate(541.339 234.288)" fill="#E9F2F7"/>
</g>
<g id="Vector_82">
<path d="M 7.01438 4.65489e-06C 7.01438 4.65489e-06 11.7415 6.25377 23.9404 9.3044L 45.136 24.5575L 58.0974 40.2683C 58.0974 40.2683 44.0686 58.267 42.0863 80.2315C 42.0863 80.2315 40.4089 66.9613 43.1537 54.7587C 45.8985 42.5562 41.7813 41.336 41.7813 41.336C 41.7813 41.336 32.9371 28.2183 17.231 18.3038C 4.7271 10.3721 2.89722 7.77909 2.89722 7.77909L -9.30704e-06 2.74557L 7.01438 4.65489e-06Z" transform="translate(544.292 252.134)" fill="#312D74"/>
</g>
<g id="Vector_83">
<path d="M 7.62432 4.65489e-06C 7.62432 4.65489e-06 11.7415 5.49113 23.9404 8.69429L 45.136 23.9474L 58.0974 39.6581C 58.0974 39.6581 44.0686 57.6568 42.0863 79.6214C 42.0863 79.6214 40.4089 66.3511 43.1537 54.1486C 45.8985 41.9461 41.7813 40.7259 41.7813 40.7259C 41.7813 40.7259 32.9371 27.6082 17.231 17.6936C 4.7271 9.762 2.89722 7.16897 2.89722 7.16897L -9.30704e-06 2.13543L 7.62432 4.65489e-06Z" transform="translate(544.292 252.897)" fill="url(#paint46_linear)"/>
</g>
<g id="Vector_84">
<path d="M 4.57403 10.2876C 4.57403 10.2876 9.75858 18.8293 13.8757 29.0489C 17.8404 39.2685 20.8901 44.4546 20.8901 44.4546L 35.5288 58.7926C 35.5288 58.7926 60.3841 58.1824 65.8736 64.1311C 71.2106 69.9273 72.278 74.3508 72.4305 81.0621C 72.583 87.7735 72.278 96.3153 72.278 96.3153C 72.278 96.3153 75.6328 91.7393 76.5477 84.5704C 77.4626 77.5539 68.1609 52.2337 59.9266 40.0312C 51.5398 27.8287 42.0857 17.4566 30.6492 9.37241C 19.2127 1.28825 7.31878 -0.999712 1.5243 0.37307C -3.20279 1.59332 4.57403 10.2876 4.57403 10.2876Z" transform="translate(554.357 232.39)" fill="#312D74"/>
</g>
<g id="Vector_85">
<path d="M 4.57403 10.2876C 4.57403 10.2876 9.75858 18.8293 13.8757 29.0489C 17.8404 39.2685 20.8901 44.4546 20.8901 44.4546L 35.5288 58.7926C 35.5288 58.7926 60.3841 58.1824 65.8736 64.1311C 71.2106 69.9273 72.278 74.3508 72.4305 81.0621C 72.583 87.7735 72.278 96.3153 72.278 96.3153C 72.278 96.3153 75.6328 91.7393 76.5477 84.5704C 77.4626 77.5539 68.1609 52.2337 59.9266 40.0312C 51.5398 27.8287 42.0857 17.4566 30.6492 9.37241C 19.2127 1.28825 7.31878 -0.999712 1.5243 0.37307C -3.20279 1.59332 4.57403 10.2876 4.57403 10.2876Z" transform="translate(554.357 232.39)" fill="url(#paint47_linear)"/>
</g>
<g id="Group_8">
<g id="Vector_86">
<path d="M 7.39089 0.152527L 1.29143 9.30977e-06C 1.29143 9.30977e-06 -0.843391 0.152522 0.376501 2.74555C 2.6638 7.16896 3.73122 7.3215 3.73122 7.3215C 3.73122 7.3215 5.10359 7.77911 5.86602 6.10126C 6.62846 4.42342 8.00082 1.52532 8.00082 1.52532L 7.39089 0.152527Z" transform="translate(548.491 247.253)" fill="url(#paint48_linear)"/>
</g>
<g id="Vector_87">
<path d="M 1.86141e-05 6.86114L 2.89725 0.759885C 2.89725 0.759885 4.11715 -1.22302 6.09948 1.21748C 9.30169 5.64089 8.99671 6.86114 8.99671 6.86114C 8.99671 6.86114 8.69174 8.53898 6.70941 8.38645C 4.5746 8.23392 1.0674 8.23393 1.0674 8.23393L 1.86141e-05 6.86114Z" transform="translate(556.188 240.545)" fill="url(#paint49_linear)"/>
</g>
<g id="Vector_88">
<path d="M 4.47549 2.18882C 4.93295 3.25653 4.62796 4.4768 3.56056 5.08692C 2.49315 5.54452 1.27327 5.23945 0.663326 4.17173L 0.205838 3.10401C -0.251621 2.03629 0.0533609 0.816052 1.12077 0.205927C 2.18817 -0.251667 3.40805 0.0533814 4.018 1.1211L 4.47549 2.18882Z" transform="translate(553.846 245.522)" fill="url(#paint50_linear)"/>
</g>
</g>
<g id="Vector_89">
<path d="M 24.6637 5.64622L 8.19517 0.00256931C 8.19517 0.00256931 5.29793 -0.455015 1.48577 10.8323C -2.32639 22.1196 2.4007 28.9835 2.4007 28.9835L 15.5145 31.2715C 25.4262 24.7126 26.4936 10.2222 24.6637 5.64622Z" transform="translate(605.327 275.621)" fill="url(#paint51_linear)"/>
</g>
<g id="Vector_90">
<path d="M 22.4155 18.7614C 25.4653 7.62657 20.1282 4.11834 20.1282 4.11834L 8.38676 -4.65489e-06C 11.1315 4.57593 8.84422 22.2696 0 26.3879L 13.1138 28.9809C 13.1138 28.9809 19.8233 28.5234 22.4155 18.7614Z" transform="translate(618.401 280.2)" fill="#312D74"/>
</g>
<g id="Vector_91">
<path d="M 16.8349 0.360622C 22.7819 2.80112 23.8493 14.3935 19.8847 26.7485C 14.7001 42.4592 4.02606 48.713 0.518868 38.3409C -2.22589 31.0194 6.31337 -3.91026 16.8349 0.360622Z" transform="translate(601.108 268.247)" fill="#312D74"/>
</g>
<g id="Vector_92">
<path d="M 10.8263 0.232166C 14.6384 1.75748 15.4009 9.23151 12.6561 17.0106C 9.30143 26.9251 2.59202 31.0435 0.30472 24.4846C -1.37263 19.9087 4.11687 -2.5134 10.8263 0.232166Z" transform="translate(604.982 276.002)" fill="url(#paint52_linear)"/>
</g>
<g id="Vector_93">
<path d="M 1.42306 4.65489e-06C 1.42306 4.65489e-06 -2.84658 16.1683 3.40536 33.4044C 9.65731 50.6404 23.2286 60.5549 53.5735 51.2505C 53.5735 51.2505 51.4386 47.7423 53.5735 43.1664C 53.5735 43.1664 38.1723 47.7423 26.7358 43.1664C 15.2993 38.5904 15.4518 24.1 15.1468 19.8291C 15.1468 19.8291 3.55787 8.2367 1.42306 4.65489e-06Z" transform="translate(541.496 246.796)" fill="#312D74"/>
</g>
<g id="Vector_94">
<path d="M 1.42306 4.65489e-06C 1.42306 4.65489e-06 -2.84658 16.1683 3.40536 33.4044C 9.65731 50.6404 23.2286 60.5549 53.5735 51.2505C 53.5735 51.2505 51.4386 47.7423 53.5735 43.1664C 53.5735 43.1664 38.1723 47.7423 26.7358 43.1664C 15.2993 38.5904 15.4518 24.7101 15.1468 20.5917C 15.1468 20.5917 0.508137 11.1348 1.42306 4.65489e-06Z" transform="translate(541.496 246.796)" fill="url(#paint53_linear)"/>
</g>
<g id="Vector_95">
<path d="M 1.08434 4.89599C 1.08434 4.89599 2.9142 0.32005 8.40372 0.0149873C 14.0457 -0.290075 16.7905 4.13332 16.028 7.03141C 15.2656 9.92951 11.9109 9.47192 9.01365 9.47192C 9.01365 9.47192 6.42137 13.5903 1.08434 12.37C 1.08434 12.37 -1.35544 8.09914 1.08434 4.89599Z" transform="translate(593.528 285.371)" fill="#ECC19C"/>
</g>
<g id="Vector_96">
<path d="M 35.4401 15.9601C 39.2523 24.9594 34.9827 35.3316 25.986 39.1448C 16.9893 42.9581 6.62017 38.6872 2.80801 29.6879L 1.28314 25.8746C -1.76659 17.943 0.520727 7.87592 9.21246 3.14745C 14.8545 -0.0557114 28.1208 -3.25888 31.7804 6.80819L 35.4401 15.9601Z" transform="translate(522.576 217.26)" fill="#ECC19C"/>
</g>
<g id="Vector_97">
<path d="M 1.2199 2.44051C 1.89363 2.44051 2.43977 1.89418 2.43977 1.22025C 2.43977 0.546325 1.89363 -4.65489e-06 1.2199 -4.65489e-06C 0.546174 -4.65489e-06 -1.86141e-05 0.546325 -1.86141e-05 1.22025C -1.86141e-05 1.89418 0.546174 2.44051 1.2199 2.44051Z" transform="translate(580.737 274.099)" fill="#FFDE17"/>
</g>
<g id="Vector_98">
<path d="M 1.21991 2.4405C 1.89364 2.4405 2.43978 1.89417 2.43978 1.22024C 2.43978 0.546315 1.89364 9.30977e-06 1.21991 9.30977e-06C 0.546183 9.30977e-06 -9.30704e-06 0.546315 -9.30704e-06 1.22024C -9.30704e-06 1.89417 0.546183 2.4405 1.21991 2.4405Z" transform="translate(586.988 269.37)" fill="#FFDE17"/>
</g>
<g id="Vector_99">
<path d="M 1.21991 2.4405C 1.89364 2.4405 2.43978 1.89417 2.43978 1.22024C 2.43978 0.546315 1.89364 9.30977e-06 1.21991 9.30977e-06C 0.546183 9.30977e-06 -9.30704e-06 0.546315 -9.30704e-06 1.22024C -9.30704e-06 1.89417 0.546183 2.4405 1.21991 2.4405Z" transform="translate(588.513 282.336)" fill="#FFDE17"/>
</g>
<g id="Vector_100">
<path d="M 1.2199 2.44049C 1.89363 2.44049 2.43977 1.89419 2.43977 1.22026C 2.43977 0.546334 1.89363 4.65489e-06 1.2199 4.65489e-06C 0.546174 4.65489e-06 -1.86141e-05 0.546334 -1.86141e-05 1.22026C -1.86141e-05 1.89419 0.546174 2.44049 1.2199 2.44049Z" transform="translate(595.223 276.539)" fill="#FFDE17"/>
</g>
<g id="Vector_101">
<path d="M 8.7826 0.0335413C 8.7826 0.0335413 11.0699 4.15188 5.12293 9.49048C 1.76823 12.5411 -0.824061 14.0664 0.243344 16.5069C 1.61572 19.5575 4.51298 18.0322 5.88536 18.7949C 7.25774 19.5575 8.17266 22.7607 8.17266 25.8113C 8.17266 27.0316 11.5274 26.4214 11.8323 24.8961C 12.4423 22.1506 11.3749 19.7101 10.9174 17.5746C 10.4599 15.4392 11.0699 13.9139 13.3572 13.9139C 15.6445 13.9139 16.8644 18.1848 15.9495 20.6253C 15.9495 20.6253 16.102 21.9981 16.8644 22.1506C 16.8644 22.1506 18.5417 17.7272 15.9495 8.88034C 12.5948 -1.0342 8.7826 0.0335413 8.7826 0.0335413Z" transform="translate(542.372 219.764)" fill="#312D74"/>
</g>
<g id="Vector_102">
<path d="M 1.00984 0.154554C -1.27746 1.06974 0.70486 3.66277 3.14464 5.34061C 2.99216 5.34061 3.90709 -1.0657 1.00984 0.154554Z" transform="translate(536.726 254.268)" fill="#312D74"/>
</g>
<g id="Vector_103">
<path d="M 0.138531 7.01644C -0.166442 6.10125 -0.166451 4.72848 2.27333 4.11835C 6.08549 3.05064 7.45785 1.5253 7.9153 -9.30977e-06C 7.9153 -9.30977e-06 11.27 5.64365 2.57828 8.08416C 1.2059 8.38922 0.291018 7.7791 0.138531 7.01644Z" transform="translate(536.226 244.66)" fill="#312D74"/>
</g>
<g id="Vector_104">
<path d="M 7.62431 1.52531C 7.47182 0.610125 6.86189 -0.457599 4.87957 0.305058C 2.13481 1.37278 0.762414 0.762657 -1.86141e-05 0C -1.86141e-05 0 0.457468 5.49113 6.55693 3.50823C 7.47185 3.20316 7.77679 2.28797 7.62431 1.52531Z" transform="translate(527.366 250.914)" fill="#312D74"/>
</g>
<g id="Group_9">
<g id="Vector_105">
<path d="M 4.43587 1.93057C 3.52095 1.6255 2.91101 1.47296 2.30107 1.77803C 1.99609 1.93056 1.69112 1.93058 1.53863 2.08311C 1.38615 2.23564 1.08117 2.5407 0.776201 3.15082C 0.776201 3.30335 0.623696 3.30334 0.471209 3.30334C 0.471209 3.30334 0.318713 3.30335 0.318713 3.15082C 0.0137404 2.69323 -0.138755 2.08311 0.166218 1.32045C 0.471191 0.557794 1.08114 0.252727 1.69108 0.100196C 2.30103 -0.0523358 3.06349 -0.0523498 3.67343 0.252713C 4.28338 0.557776 4.74082 1.01538 4.89331 1.62551C 4.89331 1.77804 4.89334 1.93058 4.58836 2.08311L 4.43587 1.93057Z" transform="translate(536.35 241.357)" fill="#312D74"/>
</g>
</g>
<g id="Group_10">
<g id="Vector_106">
<path d="M 3.37828 1.92161C 2.92082 1.76907 2.61584 1.61654 2.46336 1.46401C 2.15838 1.46401 2.0059 1.46401 1.85342 1.46401C 1.54845 1.61654 1.39597 1.61653 1.24348 1.76907C 1.091 1.9216 0.786031 2.22667 0.633545 2.68426C 0.633545 2.83679 0.48104 2.83678 0.328553 2.83678C 0.328553 2.83678 0.328544 2.83679 0.176058 2.68426C 0.0235711 2.22667 -0.128915 1.76907 0.176058 1.15895C 0.481031 0.548824 0.938527 0.243766 1.54847 0.0912347C 2.00593 -0.0612967 2.76833 -0.0613013 3.22579 0.396293C 3.68325 0.701355 3.98822 1.15895 3.98822 1.61655C 3.98822 1.76908 3.83576 1.92161 3.68327 1.92161C 3.53079 1.92161 3.53077 1.92161 3.37828 1.92161Z" transform="translate(526.429 244.874)" fill="#312D74"/>
</g>
</g>
<g id="Vector_107">
<path d="M 11.7414 7.62657L 7.77683 8.08417L 5.64198 11.4399L 3.81217 7.93163L 9.30704e-06 6.71137L 2.89724 3.96581L 2.74475 4.65489e-06L 6.25197 1.83038L 9.91163 0.610121L 9.30169 4.4234L 11.7414 7.62657Z" transform="translate(568.995 247.558)" fill="url(#paint54_linear)"/>
</g>
<g id="Vector_108">
<path d="M 19.901 -9.30977e-06C 21.1209 23.6423 22.3408 65.1309 18.5286 106.772C 12.8866 170.225 2.67006 183.8 2.67006 183.8C 2.67006 183.8 -6.93659 194.935 10.2944 201.951C 29.6602 134.685 19.901 -9.30977e-06 19.901 -9.30977e-06Z" transform="translate(659.495 233.983)" fill="url(#paint55_linear)"/>
</g>
<g id="Group_11">
<g id="Group_12">
<g id="Vector_109">
<path d="M 16.5284 2.44051C 16.5284 2.44051 16.2234 2.44051 15.7659 2.44051C 15.4609 2.44051 15.156 2.44051 14.851 2.44051C 14.546 2.44051 14.0886 2.4405 13.6311 2.59303C 13.1737 2.59303 12.8687 2.74555 12.4112 2.89809C 11.9538 2.89809 11.4963 3.20315 11.0389 3.35568C 10.5814 3.50822 9.97145 3.66076 9.51399 3.96582C 9.05653 4.27089 8.44658 4.42342 7.98912 4.72848C 7.53166 5.03354 7.07419 5.33859 6.61673 5.64365C 6.15927 5.94872 5.70183 6.25379 5.39686 6.55885C 4.9394 6.86391 4.63441 7.16897 4.32943 7.62657C 4.02446 7.93163 3.7195 8.38922 3.41453 8.69428C 2.80458 9.30441 2.4996 9.91454 2.19463 10.3721C 1.88966 10.8297 1.73717 10.9823 1.73717 10.9823L 1.5847 11.1348C 1.27972 11.5924 0.669772 11.5924 0.364799 11.2873C 0.0598258 10.9822 -0.092656 10.5247 0.0598305 10.0671C 0.0598305 10.0671 0.212298 9.76201 0.517271 9.30442C 0.669758 8.99936 0.822249 8.69429 0.974735 8.38922C 1.12722 8.08416 1.43219 7.62657 1.73717 7.32151C 2.04214 6.86391 2.34712 6.55885 2.6521 6.10125C 2.95707 5.64366 3.41453 5.33859 3.87199 4.881C 4.32945 4.4234 4.7869 3.96581 5.24436 3.66074C 5.70182 3.35568 6.31177 2.89809 6.76923 2.59303C 7.37917 2.28797 7.98913 1.98292 8.44659 1.67785C 9.05653 1.37279 9.66646 1.22026 10.1239 0.915197C 10.7339 0.762666 11.1913 0.457599 11.8013 0.457599C 12.4112 0.305067 12.8687 0.305072 13.4786 0.152541C 14.546 9.3075e-06 15.156 0 15.7659 0C 16.2234 0 16.5284 0 16.5284 0C 17.2908 0 17.9007 0.610116 17.9007 1.37277C 17.9007 1.83037 17.2908 2.44051 16.5284 2.44051Z" transform="translate(356.216 269.218)" fill="#D5E2E8"/>
</g>
</g>
<g id="Group_13">
<g id="Vector_110">
<path d="M 11.0389 2.59302C 11.0389 2.59302 10.8864 2.59302 10.5814 2.59302C 10.4289 2.59302 10.2764 2.59302 9.97145 2.59302C 9.66648 2.59302 9.51399 2.59302 9.20902 2.59302C 9.05653 2.59302 8.75156 2.74556 8.44659 2.74556C 8.14161 2.74556 7.83664 2.89809 7.68415 3.05062C 7.37918 3.20315 7.0742 3.20315 6.76923 3.35568C 6.46425 3.50821 6.15927 3.66075 5.8543 3.81328C 5.54933 3.96581 5.24437 4.11835 4.93939 4.27088C 4.63442 4.42341 4.32945 4.57593 4.17696 4.88099C 3.87199 5.03352 3.7195 5.18607 3.41453 5.49113C 3.26204 5.64366 2.95706 5.94872 2.80457 6.10125C 2.34711 6.40631 2.19462 6.86391 2.04214 7.01645C 1.88965 7.32151 1.73717 7.3215 1.73717 7.3215L 1.5847 7.47404C 1.27972 7.93164 0.669772 7.93162 0.364799 7.62656C 0.0598258 7.3215 -0.092656 6.86391 0.0598305 6.55885C 0.0598305 6.55885 0.212312 6.40631 0.364799 6.10125C 0.517285 5.79619 0.669772 5.3386 1.12723 4.72848C 1.27972 4.42341 1.58468 4.27088 1.73717 3.96582C 1.88965 3.66076 2.19463 3.35569 2.4996 3.20316C 2.95706 2.59304 3.7195 2.13544 4.48193 1.67785C 4.7869 1.52532 5.24436 1.22024 5.54933 1.06771C 5.8543 0.915179 6.31176 0.762666 6.61673 0.610135C 7.07419 0.457603 7.37918 0.305053 7.68415 0.305053C 8.14161 0.305053 8.44658 0.152536 8.75156 0.152536C 9.3615 4.64807e-06 9.81895 -4.65489e-06 10.1239 -4.65489e-06C 10.4289 -4.65489e-06 10.5814 -4.65489e-06 10.5814 -4.65489e-06C 11.3438 -4.65489e-06 11.9538 0.610135 11.9538 1.37279C 12.4112 1.98292 11.8013 2.59302 11.0389 2.59302Z" transform="translate(361.554 275.624)" fill="#D5E2E8"/>
</g>
</g>
</g>
<g id="Group_14">
<g id="Group_15">
<g id="Vector_111">
<path d="M 0.677722 14.7955C 0.677722 14.7955 0.982695 14.643 1.44015 14.3379C 1.74513 14.1854 1.89761 14.0329 2.20259 13.8803C 2.50756 13.7278 2.96501 13.5753 3.26999 13.2702C 3.57496 12.9652 3.87993 12.8126 4.33739 12.5076C 4.79485 12.2025 5.09982 11.8974 5.40479 11.5924C 5.70976 11.2873 6.16724 10.8297 6.47221 10.5247C 6.77719 10.0671 7.23464 9.60948 7.53961 9.15188C 7.84459 8.69429 8.14955 8.23668 8.45452 7.77909C 8.75949 7.32149 8.91198 6.86391 9.21695 6.40632C 9.36944 5.94872 9.6744 5.49114 9.82689 5.03354C 9.97937 4.57595 10.1319 4.11834 10.1319 3.66075C 10.4369 2.89809 10.4368 2.13543 10.5893 1.67784C 10.7418 1.22024 10.7418 0.915179 10.7418 0.915179L 10.7418 0.762661C 10.8943 0.305067 11.3518 4.65489e-06 11.8092 4.65489e-06C 12.2667 0.152536 12.5717 0.457585 12.5717 0.915179C 12.5717 0.915179 12.5717 1.22025 12.5717 1.83038C 12.5717 2.13544 12.5717 2.4405 12.5717 2.89809C 12.5717 3.35568 12.5717 3.66076 12.4192 4.27089C 12.2667 4.72848 12.2667 5.18607 12.1142 5.7962C 11.9617 6.40632 11.8092 6.8639 11.5042 7.47403C 11.3518 8.08416 11.0468 8.69429 10.7418 9.15188C 10.4368 9.76201 10.1319 10.3721 9.82689 10.8297C 9.36943 11.2873 9.06448 11.8974 8.75951 12.355C 8.45454 12.9652 7.84459 13.2702 7.53961 13.7278C 7.08215 14.1854 6.77717 14.643 6.16722 14.9481C 5.70976 15.2531 5.25231 15.5582 4.79485 15.8633C 4.03242 16.4734 3.26998 16.7784 2.81252 16.931C 2.35506 17.236 2.05009 17.3886 2.05009 17.3886C 1.28766 17.6936 0.525231 17.5411 0.220258 16.7785C -0.237201 16.0158 0.0677764 15.2531 0.677722 14.7955Z" transform="translate(381.827 294.081)" fill="#D5E2E8"/>
</g>
</g>
<g id="Group_16">
<g id="Vector_112">
<path d="M 0.8013 9.03902C 0.8013 9.03902 0.953768 8.88649 1.25874 8.73396C 1.41123 8.58143 1.56372 8.58144 1.71621 8.42891C 1.86869 8.27637 2.17368 8.27638 2.32617 8.12385C 2.47865 7.97132 2.63113 7.81878 2.9361 7.66625C 3.08859 7.51372 3.39355 7.36117 3.54604 7.05611C 3.69853 6.90358 4.00351 6.59853 4.156 6.44599C 4.30849 6.14093 4.61345 5.9884 4.76594 5.68334C 4.91842 5.37827 5.07091 5.07321 5.2234 4.92068C 5.37589 4.61562 5.52838 4.31055 5.68086 4.00548C 5.83335 3.70042 5.98583 3.39536 5.98583 3.24283C 6.13832 2.93776 6.13831 2.6327 6.2908 2.48017C 6.44329 2.02258 6.44328 1.565 6.59577 1.25994C 6.59577 0.954875 6.74826 0.802339 6.74826 0.802339L 6.74826 0.649799C 6.90075 0.192205 7.35821 -0.112849 7.81566 0.0396826C 8.27312 0.192214 8.42561 0.497263 8.5781 0.954856C 8.5781 0.954856 8.5781 1.1074 8.5781 1.565C 8.5781 1.87006 8.57811 2.48018 8.42562 3.09031C 8.42562 3.39537 8.27313 3.70043 8.27313 4.15802C 8.27313 4.46309 8.12065 4.92068 7.96816 5.22574C 7.81567 5.98839 7.35822 6.75105 6.90076 7.51371C 6.59579 7.81877 6.4433 8.27636 6.13833 8.58142C 5.98584 8.88649 5.52838 9.19156 5.3759 9.49662C 5.07092 9.80168 4.91843 10.1067 4.46097 10.2593C 4.15599 10.5643 3.85101 10.7169 3.54604 10.8694C 2.93609 11.327 2.63114 11.4795 2.32617 11.632C 2.02119 11.7846 1.8687 11.9371 1.8687 11.9371C 1.10627 12.2422 0.343841 11.9371 0.038868 11.327C -0.113618 10.1067 0.191355 9.34408 0.8013 9.03902Z" transform="translate(379.11 294.041)" fill="#D5E2E8"/>
</g>
</g>
</g>
<g id="Group_17">
<g id="Group_18">
<g id="Vector_113">
<path d="M 16.2234 2.89809C 16.2234 2.89809 15.9184 2.8981 15.461 3.05063C 15.156 3.05063 14.851 3.05064 14.546 3.20317C 14.2411 3.20317 13.7836 3.20315 13.3261 3.35568C 12.8687 3.50822 12.5637 3.50821 12.1062 3.66074C 11.6488 3.66074 11.1913 3.96581 10.7339 4.11834C 10.2764 4.27087 9.66647 4.42342 9.20901 4.72848C 8.75155 5.03354 8.29409 5.33861 7.68414 5.49114C 7.22669 5.7962 6.76924 6.10125 6.31178 6.40631C 5.85432 6.71137 5.39685 7.16896 5.09188 7.47403C 4.78691 7.77909 4.32945 8.2367 4.02448 8.54176C 3.71951 8.84683 3.41452 9.30442 3.10955 9.60948C 2.4996 10.2196 2.19464 10.9822 2.04215 11.2873C 1.73718 11.7449 1.58469 11.8974 1.58469 11.8974L 1.58469 12.05C 1.27971 12.5076 0.669762 12.6601 0.364789 12.355C 0.0598165 12.05 -0.0926653 11.5924 0.0598212 11.2873C 0.0598212 11.2873 0.212303 10.9822 0.364789 10.5247C 0.517276 10.2196 0.669767 9.91454 0.822254 9.60948C 0.97474 9.30442 1.12722 8.84682 1.43219 8.38922C 1.73716 7.93163 2.04215 7.62656 2.34712 7.16897C 2.65209 6.71137 3.10955 6.25379 3.41452 5.7962C 3.87198 5.3386 4.17697 4.88099 4.78691 4.4234C 5.24437 3.96581 5.70183 3.66076 6.31178 3.20317C 6.92172 2.8981 7.37917 2.59302 7.98911 2.13543C 8.44657 1.83037 9.05653 1.5253 9.66647 1.37277C 10.2764 1.22024 10.7339 0.915188 11.3438 0.762657C 11.9538 0.610125 12.4112 0.457589 12.8687 0.305058C 13.9361 -4.65943e-06 14.546 0 15.156 0C 15.6134 0 15.9184 0 15.9184 0C 16.6808 0 17.4433 0.457599 17.4433 1.22026C 17.5958 2.13544 16.9858 2.89809 16.2234 2.89809Z" transform="translate(282.871 330.993)" fill="#D5E2E8"/>
</g>
</g>
<g id="Group_19">
<g id="Vector_114">
<path d="M 10.5814 2.89809C 10.5814 2.89809 10.4289 2.89809 10.1239 2.89809C 9.97144 2.89809 9.81896 2.89809 9.51399 2.89809C 9.20902 2.89809 9.05653 2.8981 8.75156 3.05063C 8.59907 3.05063 8.2941 3.20315 7.98913 3.20315C 7.68415 3.20315 7.53167 3.3557 7.22669 3.50823C 6.92172 3.66076 6.61674 3.66076 6.31177 3.81329C 6.00679 3.96582 5.70181 4.11836 5.39684 4.27089C 5.09187 4.42342 4.78689 4.72847 4.63441 4.881C 4.32943 5.03353 4.17695 5.33859 3.87197 5.49112C 3.71949 5.64365 3.41452 5.94873 3.26204 6.10126C 3.10955 6.25379 2.95706 6.55884 2.80457 6.71137C 2.4996 7.01644 2.34711 7.47403 2.04214 7.77909C 1.88965 8.08415 1.73717 8.23669 1.73717 8.23669L 1.58468 8.38923C 1.2797 8.84682 0.669776 8.84681 0.364803 8.54175C 0.0598305 8.23668 -0.0926746 7.77909 0.0598119 7.47403C 0.0598119 7.47403 0.0598212 7.32149 0.212308 7.01643C 0.364794 6.71137 0.517271 6.25378 0.822244 5.64366C 0.974731 5.3386 1.12723 5.03352 1.4322 4.72846C 1.58469 4.4234 1.88966 4.11835 2.19464 3.81329C 2.6521 3.20316 3.41452 2.59303 4.02447 2.13543C 4.32944 1.9829 4.7869 1.67785 5.09187 1.52532C 5.39684 1.22026 5.8543 1.22024 6.15927 0.915179C 6.46424 0.762647 6.92172 0.610135 7.22669 0.457603C 7.53167 0.305072 7.98912 0.305053 8.2941 0.152522C 8.90404 -9.3075e-06 9.36149 4.65489e-06 9.66646 4.65489e-06C 9.97144 4.65489e-06 10.1239 4.65489e-06 10.1239 4.65489e-06C 10.8864 4.65489e-06 11.6488 0.457603 11.6488 1.22026C 11.8013 2.13545 11.1913 2.74556 10.5814 2.89809Z" transform="translate(288.819 337.552)" fill="#D5E2E8"/>
</g>
</g>
</g>
<g id="Vector_115">
<path d="M 1.21989 9.30977e-06C 1.21989 9.30977e-06 1.98232 1.22024 5.18454 1.22024C 8.38675 1.22024 9.30168 0.610125 9.30168 0.610125L 7.77681 4.42341C 7.77681 4.42341 6.86189 5.03352 3.96465 5.03352C 1.21989 5.03352 4.65352e-06 3.66075 4.65352e-06 3.66075L 1.21989 9.30977e-06Z" transform="translate(108.028 469.949)" fill="#ECC19C"/>
</g>
<g id="Vector_116">
<path d="M 0 2.59305C 0 2.59305 3.3547 3.20317 6.25194 1.67785C 9.14919 0.152541 8.99671 0 8.99671 0L 8.99671 3.96582C 8.99671 3.96582 8.08179 6.10123 5.03206 6.55883C 1.98233 7.01642 0.152484 5.94871 0.152484 5.94871L 0 2.59305Z" transform="translate(160.941 461.407)" fill="#ECC19C"/>
</g>
<g id="Vector_117">
<path d="M 0.609951 -1.86195e-05C 0.609951 -1.86195e-05 1.82985 1.0677 4.87958 1.52529C 7.92931 1.98289 8.69174 1.22026 8.69174 1.22026L 7.77681 4.881C 7.77681 4.881 6.25195 6.10127 3.96465 5.94874C 1.52486 5.79621 -9.30704e-06 4.42343 -9.30704e-06 4.42343L 0.609951 -1.86195e-05Z" transform="translate(311.75 450.425)" fill="#B08874"/>
</g>
<g id="Vector_118">
<path d="M -9.30704e-06 1.98875L -9.30704e-06 5.95457C -9.30704e-06 5.95457 0.914928 6.56467 4.11714 6.2596C 7.31936 5.95454 8.99671 3.97163 8.99671 3.97163L 8.84421 0.00581075C 8.9967 -0.146721 5.64199 2.7514 -9.30704e-06 1.98875Z" transform="translate(349.872 442.792)" fill="#B08874"/>
</g>
<g id="Vector_119">
<path d="M 2.59228 5.18606C 4.02395 5.18606 5.18455 4.02513 5.18455 2.59303C 5.18455 1.16094 4.02395 4.65489e-06 2.59228 4.65489e-06C 1.16061 4.65489e-06 -9.30704e-06 1.16094 -9.30704e-06 2.59303C -9.30704e-06 4.02513 1.16061 5.18606 2.59228 5.18606Z" transform="translate(248.468 320.011)" fill="#F1F2F2"/>
</g>
<g id="Group_20">
<g id="Vector_120">
<path d="M 3.96464 0.0214443C 3.96464 0.0214443 5.18454 4.13979 2.89724 6.1227C 0.914914 7.80054 4.65352e-06 2.76701 4.65352e-06 2.76701C 4.65352e-06 2.76701 1.82983 -0.283618 3.96464 0.0214443Z" transform="translate(343.62 237.927)" fill="#312D74"/>
</g>
<g id="Vector_121">
<path d="M 27.3204 15.2064C 27.7779 22.6805 22.2884 29.0868 14.8165 29.5444C 7.34468 30.002 0.940257 24.5108 0.482797 17.0368L 0.0253331 9.7153C -0.432126 2.24127 5.36235 0.715973 12.8342 0.105847C 20.306 -0.351747 26.253 0.410909 26.863 7.73241L 27.3204 15.2064Z" transform="translate(319.502 232.657)" fill="#B08874"/>
</g>
<g id="Group_21">
<g id="Vector_122">
<path d="M 0.525227 0.152541C 0.525227 0.152541 0.677718 0.610121 0.982691 1.06771C 1.13518 1.37278 1.28767 1.67785 1.44015 1.98291C 1.59264 2.28797 1.8976 2.59302 2.05009 2.89809C 2.20258 3.20315 2.35506 3.20316 2.35506 3.50823C 2.50755 3.81329 2.35507 4.11834 2.20259 4.4234C 1.89761 4.88099 1.44016 5.03352 1.13519 5.18606C 0.9827 5.18606 0.830209 5.18606 0.677722 5.18606C 0.525236 5.18606 0.372754 5.18606 0.372754 5.18606C 0.220268 5.18606 0.0677625 5.03354 0.0677625 5.03354C 0.0677625 5.03354 -0.084724 5.03353 0.0677625 4.881C 0.0677625 4.881 0.0677718 4.881 0.220258 4.881C 0.220258 4.881 0.37274 4.881 0.525227 4.881C 0.677713 4.881 0.677708 4.881 0.830195 4.881C 0.982681 4.881 1.13519 4.88101 1.13519 4.72848C 1.28767 4.72848 1.44015 4.57593 1.44015 4.4234C 1.59264 4.27087 1.59264 4.27087 1.74512 4.11834C 1.74512 3.96581 1.74512 3.81328 1.74512 3.81328L 1.44015 3.35568C 1.13518 2.89809 0.830209 2.59302 0.677722 2.13543C 0.525236 1.67784 0.372745 1.37278 0.220258 1.06771C 0.0677718 0.457589 0.0677625 0 0.0677625 0C 0.220249 0.152531 0.220254 9.3075e-06 0.525227 0.152541C 0.37274 9.3075e-06 0.525227 9.3075e-06 0.525227 0.152541Z" transform="translate(339.894 247.101)" fill="#312D74"/>
</g>
</g>
<g id="Vector_123">
<path d="M 1.52487 2.28797C 1.52487 2.74557 1.21988 3.05063 0.91491 3.05063C 0.45745 3.05063 0.152477 2.74555 0.152477 2.44049L 4.65352e-06 0.762661C 4.65352e-06 0.305067 0.304968 4.65489e-06 0.609941 4.65489e-06C 1.0674 4.65489e-06 1.37237 0.305058 1.37237 0.610121L 1.52487 2.28797Z" transform="translate(335.233 244.508)" fill="#312D74"/>
</g>
<g id="Vector_124">
<path d="M 1.52487 2.28796C 1.52487 2.74555 1.21989 3.05062 0.914914 3.05062C 0.457455 3.05062 0.152482 2.74556 0.152482 2.4405L 9.30704e-06 0.762647C 9.30704e-06 0.305053 0.304973 -9.30977e-06 0.609946 -9.30977e-06C 1.06741 -9.30977e-06 1.37238 0.305067 1.37238 0.61013L 1.52487 2.28796Z" transform="translate(342.553 243.898)" fill="#312D74"/>
</g>
<g id="Group_22">
<g id="Vector_125">
<path d="M 6.25195 0.915193C 6.25195 0.915193 6.09947 0.915179 5.94698 1.06771C 5.7945 1.22024 5.48952 1.22026 5.18455 1.37279C 5.03206 1.37279 4.87957 1.37278 4.72709 1.52531C 4.5746 1.52531 4.4221 1.67784 4.11713 1.52531C 3.96464 1.52531 3.65968 1.52531 3.50719 1.52531C 3.3547 1.52531 3.04974 1.52531 2.89725 1.52531L 2.28729 1.37279C 2.13481 1.37279 1.82984 1.22025 1.67736 1.22025C 1.37238 1.06772 0.914914 0.915183 0.762428 0.762652C 0.304968 0.457589 -4.65352e-06 0.152536 -4.65352e-06 0.152536L -4.65352e-06 -4.65489e-06C -4.65352e-06 -4.65489e-06 4.6467e-06 -4.65489e-06 0.152491 -4.65489e-06C 0.152491 -4.65489e-06 0.609937 0.152522 1.0674 0.305053C 1.37237 0.457585 1.67735 0.457603 1.98232 0.610135C 2.13481 0.610135 2.28729 0.762652 2.59226 0.762652L 3.20222 0.762652C 3.35471 0.762652 3.50718 0.915193 3.81216 0.915193C 3.96464 0.915193 4.11714 0.915193 4.42212 0.915193C 4.72709 0.915193 5.18455 0.915193 5.48952 0.915193C 6.09946 0.915193 6.40442 0.762652 6.40442 0.762652C 6.25194 0.610121 6.25195 0.61013 6.25195 0.915193C 6.25195 0.762661 6.25195 0.915193 6.25195 0.915193Z" transform="translate(333.557 254.27)" fill="#312D74"/>
</g>
</g>
<g id="Vector_126">
<path d="M 10.4267 22.1183C 10.4267 22.1183 14.5438 20.7455 14.2388 18.305C 13.9339 15.8645 13.6289 14.4918 13.6289 14.4918C 13.6289 14.4918 18.5085 16.1696 26.2853 15.1019C 33.9096 14.0341 35.1295 8.69555 34.5195 5.18733C 34.0621 1.52658 29.64 -0.60884 24.1505 0.153817C 19.2709 0.763942 20.0333 4.27214 13.0189 5.18733C 6.00455 6.10252 2.03992 7.62785 0.667541 11.8987C -2.2297 21.2031 5.24214 25.7791 5.24214 25.7791C 5.24214 25.7791 3.41229 20.4405 6.30954 19.0677C 8.29186 18 10.2742 18.4576 10.4267 22.1183Z" transform="translate(315.506 224.982)" fill="#312D74"/>
</g>
</g>
<g id="Group_23">
<g id="Group_24">
<g id="Vector_127">
<path d="M 3.81217 9.30977e-06C 3.81217 9.30977e-06 6.25194 5.18607 3.50719 9.45695C 0.76243 13.7278 4.65352e-06 0.457585 4.65352e-06 0.457585L 3.81217 9.30977e-06Z" transform="translate(152.249 250.304)" fill="#312D74"/>
</g>
<g id="Vector_128">
<path d="M 29.7014 15.8093C 30.7688 23.741 25.1268 30.9099 17.1975 31.8251C 9.26822 32.8928 2.10136 27.2492 1.18644 19.3175L 0.119037 11.3859C -0.948368 3.45427 5.30358 1.31884 13.2329 0.403649C 21.1622 -0.66407 27.7191 -0.05394 28.634 7.72516L 29.7014 15.8093Z" transform="translate(126.208 247.46)" fill="#ECC19C"/>
</g>
<g id="Group_25">
<g id="Vector_129">
<path d="M 25.3585 12.6786C 37.2525 14.6615 38.4724 2.45903 33.8978 0.476126C 30.3906 -1.20172 27.4933 2.15396 23.6812 1.3913C 1.72313 -3.64223 4.16292 10.6957 4.16292 10.6957C 4.16292 10.6957 0.503232 11.916 0.045773 16.3394C -0.411687 22.1356 2.63805 27.0166 5.68778 27.7792C 7.51762 28.2368 7.82258 24.5761 7.82258 24.5761C 3.0955 22.2881 4.3154 17.2546 7.51761 16.6444C 11.4823 15.8818 11.7872 21.2204 11.7872 21.2204C 11.7872 21.2204 14.532 20.1527 14.3795 19.6951C 13.0071 15.4242 12.3972 10.3907 25.3585 12.6786Z" transform="translate(122.163 241.439)" fill="#312D74"/>
</g>
</g>
<g id="Group_26">
<g id="Vector_130">
<path d="M 7.9293 1.22025C 7.9293 1.22025 7.77681 1.37278 7.62433 1.52531C 7.47184 1.67784 7.16686 1.83038 6.7094 1.98291C 6.55691 2.13544 6.25195 2.13545 6.09946 2.13545C 5.94698 2.13545 5.642 2.28797 5.33703 2.28797C 5.03206 2.28797 4.87957 2.28797 4.5746 2.28797C 4.26963 2.28797 3.96465 2.28797 3.81217 2.28797C 3.50719 2.28797 3.20222 2.13545 3.04973 2.13545C 2.74476 2.13545 2.59227 1.9829 2.2873 1.83037C 1.82984 1.67784 1.37238 1.52531 1.06741 1.22025C 0.457459 0.762657 4.65352e-06 0.305053 4.65352e-06 0.305053C 4.65352e-06 0.152522 4.65352e-06 0.152527 4.65352e-06 -4.65489e-06L 0.152489 -4.65489e-06C 0.152489 -4.65489e-06 0.609941 -9.31886e-06 1.37237 0.305053C 1.67735 0.457585 2.13481 0.457603 2.59227 0.610135C 2.74476 0.610135 3.04973 0.762652 3.20222 0.762652L 3.81217 0.762652C 3.96465 0.762652 4.26962 0.915183 4.4221 0.762652C 4.57459 0.762652 4.87957 0.762652 5.03205 0.762652C 5.18454 0.762652 5.48951 0.762652 5.642 0.762652C 5.79449 0.762652 6.09946 0.762652 6.25195 0.762652C 6.55692 0.762652 6.86189 0.762652 7.16686 0.762652C 7.31935 0.762652 7.47183 0.762652 7.47183 0.762652C 7.62432 0.762652 7.77681 0.915179 7.77681 1.06771C 7.9293 1.06771 7.9293 1.06772 7.9293 1.22025Z" transform="translate(141.576 270.285)" fill="#312D74"/>
</g>
</g>
<g id="Group_27">
<g id="Vector_131">
<path d="M 1.28767 0.114398C 1.28767 0.114398 1.44015 0.571988 1.74512 1.18211C 1.89761 1.48718 2.0501 1.94477 2.20258 2.24983C 2.35507 2.70742 2.66005 3.01249 2.81253 3.47008C 2.96502 3.92768 3.1175 3.92768 3.1175 4.23274C 3.26999 4.69033 2.96502 4.99539 2.81253 5.30045C 2.35507 5.75805 1.89761 5.91059 1.44015 5.91059C 1.28767 5.91059 0.982691 5.91059 0.830204 5.91059C 0.677718 5.91059 0.525227 5.91058 0.37274 5.75805C 0.220254 5.60552 0.0677718 5.60554 0.0677718 5.60554C 0.0677718 5.60554 -0.0847147 5.45299 0.0677718 5.45299C 0.0677718 5.45299 0.0677694 5.45299 0.220256 5.45299C 0.220256 5.45299 0.372749 5.45299 0.525236 5.45299C 0.677722 5.45299 0.677718 5.45299 0.830204 5.45299C 0.982691 5.45299 1.13518 5.45299 1.28767 5.30045C 1.44015 5.30045 1.59263 5.14794 1.74512 5.14794C 1.89761 4.99541 1.89761 4.99541 2.0501 4.84288C 2.0501 4.69035 2.0501 4.5378 2.0501 4.5378L 1.74512 4.08022C 1.59263 3.62263 1.13517 3.16502 1.13517 2.70743C 0.982686 2.24983 0.830204 1.79223 0.830204 1.48717C 0.677718 0.724514 0.67772 0.266939 0.67772 0.266939C 0.67772 0.114408 0.830204 0.114398 0.830204 0.114398C 1.13518 -0.0381328 1.13518 -0.0381328 1.28767 0.114398Z" transform="translate(147.912 262.24)" fill="#312D74"/>
</g>
</g>
</g>
<g id="Group_28">
<g id="Vector_132">
<path d="M 2.59227 1.98292C 2.59227 1.98292 2.59227 1.98291 2.59227 1.83038C 2.59227 1.67784 2.43978 1.67785 2.43978 1.52532C 2.43978 1.37279 2.2873 1.37278 2.13481 1.37278L 1.98233 1.37278L 1.82983 1.37278C 1.98232 1.37278 1.82983 1.37278 1.82983 1.37278L 1.67735 1.37278C 1.52486 1.37278 1.52487 1.37278 1.37238 1.37278L 1.2199 1.37278C 1.06741 1.37278 0.914919 1.5253 0.762432 1.67784C 0.457459 1.83037 0.304968 2.13543 0.304968 2.13543C 0.304968 2.13543 0.152487 2.13543 0 2.13543C 0 2.13543 0 2.13545 0 1.98292C 0 1.98292 0 1.98291 0 1.83038C 0 1.67784 -2.32903e-06 1.52532 0.152484 1.22026C 0.304971 1.06773 0.457462 0.762666 0.609948 0.457603C 0.762435 0.305072 0.914914 0.305053 1.0674 0.152522C 1.21989 0.152522 1.52486 4.65489e-06 1.52486 4.65489e-06L 1.67735 4.65489e-06L 1.82983 4.65489e-06L 2.13481 4.65489e-06C 2.2873 4.65489e-06 2.43979 0.152522 2.74476 0.152522C 3.04973 0.305053 3.20221 0.762657 3.3547 1.06772C 3.3547 1.37278 3.3547 1.67784 3.20221 1.67784C 3.20221 1.83037 3.04973 1.83038 3.04973 1.83038C 2.89724 2.13544 2.74475 2.13545 2.59227 1.98292Z" transform="translate(141.88 260.524)" fill="#312D74"/>
</g>
</g>
<g id="Group_29">
<g id="Vector_133">
<path d="M 2.13481 1.83037C 2.13481 1.83037 2.13481 1.83039 2.13481 1.67785C 2.13481 1.52532 1.98233 1.5253 1.98233 1.37277C 1.98233 1.22024 1.82983 1.22026 1.82983 1.22026L 1.67735 1.22026L 1.52486 1.22026C 1.37238 1.22026 1.37238 1.22026 1.2199 1.22026L 1.0674 1.22026C 0.914914 1.22026 0.762435 1.37277 0.609948 1.37277C 0.304975 1.5253 0.152484 1.67785 0.152484 1.67785L 0 1.67785C 0 1.67785 0 1.67784 0 1.52531C 0 1.52531 -2.32903e-06 1.22026 0.152484 0.915197C 0.304971 0.762666 0.304975 0.457589 0.609948 0.305058C 0.762435 0.152527 0.914914 0.152541 1.0674 0.152541C 1.21989 0.152541 1.37238 0 1.52486 0L 1.67735 0C 1.67735 0 1.67735 0 1.82983 0L 2.13481 0C 2.2873 0 2.43978 0.152541 2.59227 0.152541C 2.89724 0.305072 3.04973 0.762666 3.04973 0.915197C 3.04973 1.22026 3.04973 1.37278 2.89725 1.52531C 2.89725 1.67784 2.74476 1.67785 2.74476 1.67785C 2.43979 1.98292 2.2873 1.9829 2.13481 1.83037Z" transform="translate(151.029 259.303)" fill="#312D74"/>
</g>
</g>
</g>
<g id="Group_30" opacity="0.6">
<g id="Vector_134" opacity="0.6">
<path d="M 0.00141353 6.86968C 0.00141353 10.5304 12.3528 13.4285 27.2965 13.276C 42.2402 13.1234 54.5916 10.0728 54.5916 6.41206C 54.5916 2.75131 42.2402 -0.146757 27.2965 0.00577481C 12.0478 0.158306 -0.151073 3.20893 0.00141353 6.86968Z" transform="translate(19.7363 407.558)" fill="url(#paint56_linear)"/>
</g>
<g id="Vector_135" opacity="0.6">
<path d="M 34.8351 2.9344C 52.981 -8.96305 79.6661 16.9673 74.4816 50.9818C 69.2971 84.8437 100.404 77.5222 89.4253 136.857C 76.6164 205.649 39.1047 210.53 15.1644 190.548C -0.694241 177.278 -1.91413 149.212 2.96543 132.891C 7.845 116.418 -15.1805 87.2842 19.8914 66.845C 40.1721 55.1001 9.67484 19.4078 34.8351 2.9344Z" transform="translate(0 197.492)" fill="url(#paint57_linear)"/>
</g>
<g id="Vector_136" opacity="0.6">
<path d="M 53.3226 106.49C 54.085 106.033 54.2375 104.965 53.7801 104.202C 53.3226 103.44 52.2552 103.287 51.4928 103.745L 36.2441 114.269C 38.074 100.847 38.9889 87.5763 39.1414 74.7637L 52.1027 58.9005C 52.7127 58.1378 52.5602 57.0701 51.7977 56.4599C 51.0353 55.8498 49.9679 56.0023 49.358 56.765L 39.1414 69.2726C 39.1414 45.1726 36.2441 22.4455 30.7546 2.76893C 30.6021 2.00627 30.4496 1.54866 30.4496 1.39613C 30.2972 0.480944 29.5347 -0.129172 28.4673 0.0233592C 27.5524 0.175891 26.9425 1.09108 27.0949 2.00627C 27.0949 2.1588 27.2474 2.76892 27.5524 3.83664C 34.5668 29.0043 37.159 59.358 35.0242 91.3896L 17.3358 76.1365C 16.5734 75.5264 15.506 75.6789 14.896 76.289C 14.2861 77.0517 14.4386 78.1194 15.0485 78.7295L 34.7193 95.6605C 34.1093 102.982 33.3469 110.456 32.2795 117.778C 31.517 122.811 30.9071 127.54 30.4496 132.268L 2.54462 113.507C 1.78219 113.049 0.714781 113.202 0.257322 113.964C -0.200138 114.727 -0.0476526 115.795 0.71478 116.252L 29.9922 136.081C 26.6375 170.706 28.4673 194.958 28.4673 195.111C 28.4673 196.026 29.2298 196.636 30.1447 196.636L 30.2972 196.636C 31.2121 196.484 31.9745 195.721 31.822 194.806C 31.822 194.501 29.2297 162.317 35.3292 118.998L 53.3226 106.49Z" transform="translate(17.499 242.501)" fill="url(#paint58_linear)"/>
</g>
<g id="Vector_137" opacity="0.6">
<path d="M 27.2951 6.86389C 42.3912 6.71136 54.5902 3.66073 54.5902 -1.86195e-05L 47.8808 38.8955C 26.5326 50.7929 5.03205 39.3531 5.03205 39.3531L -5.8169e-07 0.610144C -5.8169e-07 4.2709 12.1989 7.01642 27.2951 6.86389Z" transform="translate(19.7383 413.817)" fill="url(#paint59_linear)"/>
</g>
</g>
</g>
</g>
<defs>

<linearGradient id="paint0_linear" x2="1" gradientUnits="userSpaceOnUse" gradientTransform="matrix(0 256.331 -256.256 0 149.563 -40.0061)">
<stop offset="0.0107527" stop-color="#D5E2E8"/>
<stop offset="1" stop-color="#D5E2E8" stop-opacity="0"/>
</linearGradient>
<linearGradient id="paint1_linear" x2="1" gradientUnits="userSpaceOnUse" gradientTransform="matrix(0 256.331 -256.256 0 157.205 -61.818)">
<stop offset="0.0107527" stop-color="#D5E2E8"/>
<stop offset="1" stop-color="#D5E2E8" stop-opacity="0"/>
</linearGradient>
<linearGradient id="paint2_linear" x2="1" gradientUnits="userSpaceOnUse" gradientTransform="matrix(0 256.331 -256.256 0 149.706 -40.0061)">
<stop offset="0.0107527" stop-color="#D5E2E8"/>
<stop offset="1" stop-color="#D5E2E8" stop-opacity="0"/>
</linearGradient>
<linearGradient id="paint3_linear" x2="1" gradientUnits="userSpaceOnUse" gradientTransform="matrix(0 256.331 -256.256 0 159.703 -112.306)">
<stop offset="0.0107527" stop-color="#D5E2E8"/>
<stop offset="1" stop-color="#D5E2E8" stop-opacity="0"/>
</linearGradient>
<linearGradient id="paint4_linear" x2="1" gradientUnits="userSpaceOnUse" gradientTransform="matrix(0 256.331 -256.256 0 159.643 -112.306)">
<stop offset="0.0107527" stop-color="#D5E2E8"/>
<stop offset="1" stop-color="#D5E2E8" stop-opacity="0"/>
</linearGradient>
<linearGradient id="paint5_linear" x2="1" gradientUnits="userSpaceOnUse" gradientTransform="matrix(0 256.331 -256.256 0 157.521 -61.6655)">
<stop offset="0.0107527" stop-color="#D5E2E8"/>
<stop offset="1" stop-color="#D5E2E8" stop-opacity="0"/>
</linearGradient>
<linearGradient id="paint6_linear" x2="1" gradientUnits="userSpaceOnUse" gradientTransform="translate(0.132358 -18.5342) scale(48.9546 48.969)">
<stop stop-color="#FAFAFA"/>
<stop offset="0.9892" stop-color="#D5E2E8"/>
</linearGradient>
<linearGradient id="paint7_linear" x2="1" gradientUnits="userSpaceOnUse" gradientTransform="matrix(-33.0665 138.379 -138.338 -33.0762 132.583 80.2711)">
<stop offset="0.0107527" stop-color="#D5E2E8"/>
<stop offset="1" stop-color="#D5E2E8" stop-opacity="0"/>
</linearGradient>
<linearGradient id="paint8_linear" x2="1" gradientUnits="userSpaceOnUse" gradientTransform="translate(0.132358 -4.75372) scale(48.9544 48.9688)">
<stop offset="0.0107527" stop-color="#D5E2E8"/>
<stop offset="1" stop-color="#FAFAFA"/>
</linearGradient>
<linearGradient id="paint9_linear" x2="1" gradientUnits="userSpaceOnUse" gradientTransform="matrix(-43.5036 -87.0327 87.0071 -43.5164 28.8061 216.738)">
<stop stop-color="#D5E2E8"/>
<stop offset="0.2354" stop-color="#D5E2E8" stop-opacity="0.7152"/>
<stop offset="1" stop-color="#D5E2E8" stop-opacity="0"/>
</linearGradient>
<linearGradient id="paint10_linear" x2="1" gradientUnits="userSpaceOnUse" gradientTransform="matrix(-68.765 -137.57 137.53 -68.7852 79.543 288.895)">
<stop stop-color="#D5E2E8"/>
<stop offset="0.2354" stop-color="#D5E2E8" stop-opacity="0.7152"/>
<stop offset="1" stop-color="#D5E2E8" stop-opacity="0"/>
</linearGradient>
<linearGradient id="paint11_linear" x2="1" gradientUnits="userSpaceOnUse" gradientTransform="matrix(0 -33.5915 33.5816 0 41.7454 32.5394)">
<stop stop-color="#E9F2F7" stop-opacity="0"/>
<stop offset="1" stop-color="#E9F2F7"/>
</linearGradient>
<linearGradient id="paint12_linear" x2="1" gradientUnits="userSpaceOnUse" gradientTransform="matrix(16.483 1.00945 -1.00916 16.4879 -11.0016 8.44903)">
<stop/>
<stop offset="0.5564" stop-color="#161414" stop-opacity="0.4436"/>
<stop offset="1" stop-color="#231F20" stop-opacity="0"/>
</linearGradient>
<linearGradient id="paint13_linear" x2="1" gradientUnits="userSpaceOnUse" gradientTransform="matrix(0 -38.9254 38.9139 0 51.5289 41.9759)">
<stop stop-color="#E9F2F7" stop-opacity="0"/>
<stop offset="1" stop-color="#E9F2F7"/>
</linearGradient>
<linearGradient id="paint14_linear" x2="1" gradientUnits="userSpaceOnUse" gradientTransform="matrix(-31.9105 41.7414 -41.7291 -31.9199 50.6289 11.357)">
<stop stop-color="#5E1300"/>
<stop offset="0.2552" stop-color="#5E1300" stop-opacity="0.7152"/>
<stop offset="1" stop-color="#5E1300" stop-opacity="0"/>
</linearGradient>
<linearGradient id="paint15_linear" x2="1" gradientUnits="userSpaceOnUse" gradientTransform="matrix(-23.8896 -16.0158 16.0111 -23.8966 22.6971 37.4982)">
<stop stop-color="#5E1300"/>
<stop offset="0.2552" stop-color="#5E1300" stop-opacity="0.7152"/>
<stop offset="1" stop-color="#5E1300" stop-opacity="0"/>
</linearGradient>
<linearGradient id="paint16_linear" x2="1" gradientUnits="userSpaceOnUse" gradientTransform="matrix(57.5643 20.2517 -20.2457 57.5812 7.48806 -18.9041)">
<stop stop-color="#FF0068"/>
<stop offset="1" stop-color="#FEA729"/>
</linearGradient>
<linearGradient id="paint17_linear" x2="1" gradientUnits="userSpaceOnUse" gradientTransform="matrix(-29.8524 11.8726 -11.8691 -29.8612 48.0118 25.9501)">
<stop stop-color="#5E1300"/>
<stop offset="0.2552" stop-color="#5E1300" stop-opacity="0.7152"/>
<stop offset="1" stop-color="#5E1300" stop-opacity="0"/>
</linearGradient>
<linearGradient id="paint18_linear" x2="1" gradientUnits="userSpaceOnUse" gradientTransform="translate(0.0229168 -4.85622) scale(35.18 35.1903)">
<stop stop-color="#FFDD15"/>
<stop offset="1" stop-color="#FCB534"/>
</linearGradient>
<linearGradient id="paint19_linear" x2="1" gradientUnits="userSpaceOnUse" gradientTransform="matrix(16.465 -1.14566 1.14533 16.4699 -10.5613 1.7214)">
<stop stop-color="#5E1300"/>
<stop offset="0.2246" stop-color="#5E1300" stop-opacity="0.7152"/>
<stop offset="1" stop-color="#5E1300" stop-opacity="0"/>
</linearGradient>
<linearGradient id="paint20_linear" x2="1" gradientUnits="userSpaceOnUse" gradientTransform="matrix(42.4104 2.47383 -2.4731 42.4228 0.517168 12.6902)">
<stop stop-color="#FFDD15"/>
<stop offset="1" stop-color="#FCB534"/>
</linearGradient>
<linearGradient id="paint21_linear" x2="1" gradientUnits="userSpaceOnUse" gradientTransform="matrix(14.8394 -22.9543 22.9475 14.8437 -10.2377 26.9704)">
<stop stop-color="#5E1300"/>
<stop offset="0.2246" stop-color="#5E1300" stop-opacity="0.7152"/>
<stop offset="1" stop-color="#5E1300" stop-opacity="0"/>
</linearGradient>
<radialGradient id="paint22_radial" cx="0.5" cy="0.5" r="0.5" gradientUnits="userSpaceOnUse" gradientTransform="matrix(50.3935 3.63673 -1.88294 26.1088 -2.67316 7.59948)">
<stop stop-color="#5E1300"/>
<stop offset="0.2246" stop-color="#5E1300" stop-opacity="0.7152"/>
<stop offset="1" stop-color="#5E1300" stop-opacity="0"/>
</radialGradient>
<linearGradient id="paint23_linear" x2="1" gradientUnits="userSpaceOnUse" gradientTransform="matrix(53.176 2.59459 -2.59382 53.1916 1.22796 -4.62654)">
<stop stop-color="#FFDD15"/>
<stop offset="1" stop-color="#FCB534"/>
</linearGradient>
<linearGradient id="paint24_linear" x2="1" gradientUnits="userSpaceOnUse" gradientTransform="matrix(0 -34.1806 34.1705 0 44.2385 35.7142)">
<stop stop-color="#E9F2F7" stop-opacity="0"/>
<stop offset="1" stop-color="#E9F2F7"/>
</linearGradient>
<linearGradient id="paint25_linear" x2="1" gradientUnits="userSpaceOnUse" gradientTransform="matrix(16.483 1.00945 -1.00916 16.4879 -10.9472 8.36865)">
<stop/>
<stop offset="0.5564" stop-color="#161414" stop-opacity="0.4436"/>
<stop offset="1" stop-color="#231F20" stop-opacity="0"/>
</linearGradient>
<linearGradient id="paint26_linear" x2="1" gradientUnits="userSpaceOnUse" gradientTransform="matrix(27.8288 1.52531 -1.52486 27.837 -15.6679 -2.56619)">
<stop stop-color="#5E1300"/>
<stop offset="0.2552" stop-color="#5E1300" stop-opacity="0.7152"/>
<stop offset="1" stop-color="#5E1300" stop-opacity="0"/>
</linearGradient>
<linearGradient id="paint27_linear" x2="1" gradientUnits="userSpaceOnUse" gradientTransform="matrix(24.3481 2.70606 -2.70526 24.3553 -15.1554 2.58497)">
<stop stop-color="#5E1300"/>
<stop offset="0.2552" stop-color="#5E1300" stop-opacity="0.7152"/>
<stop offset="1" stop-color="#5E1300" stop-opacity="0"/>
</linearGradient>
<linearGradient id="paint28_linear" x2="1" gradientUnits="userSpaceOnUse" gradientTransform="matrix(-43.9024 166.673 -166.571 -43.9292 128.185 -147.791)">
<stop stop-color="#FF0068"/>
<stop offset="1" stop-color="#FEA729"/>
</linearGradient>
<linearGradient id="paint29_linear" x2="1" gradientUnits="userSpaceOnUse" gradientTransform="matrix(76.7957 272.783 -272.703 76.8183 233.522 -158.212)">
<stop stop-color="#D5E2E8"/>
<stop offset="0.3593" stop-color="#D5E2E8"/>
<stop offset="0.6173" stop-color="#E7EFF2"/>
<stop offset="1" stop-color="white"/>
</linearGradient>
<linearGradient id="paint30_linear" x2="1" gradientUnits="userSpaceOnUse" gradientTransform="matrix(-1.33761 74.9211 -74.8991 -1.338 173.316 -15.2135)">
<stop stop-color="#D5E2E8"/>
<stop offset="0.2354" stop-color="#D5E2E8"/>
<stop offset="0.3984" stop-color="#E1EAEF"/>
<stop offset="0.7643" stop-color="#F7F9FB"/>
<stop offset="1" stop-color="white"/>
</linearGradient>
<linearGradient id="paint31_linear" x2="1" gradientUnits="userSpaceOnUse" gradientTransform="translate(14.8578 98.2732) scale(-15.1965 -15.201)">
<stop stop-color="#A9BBC4"/>
<stop offset="1" stop-color="#D5E2E8"/>
</linearGradient>
<linearGradient id="paint32_linear" x2="1" gradientUnits="userSpaceOnUse" gradientTransform="matrix(-19.8043 1.86485 -1.8643 -19.8102 21.2702 98.8919)">
<stop stop-color="#A9BBC4"/>
<stop offset="1" stop-color="#D5E2E8"/>
</linearGradient>
<linearGradient id="paint33_linear" x2="1" gradientUnits="userSpaceOnUse" gradientTransform="matrix(-21.5566 -1.32016 1.31977 -21.5629 33.0205 131.013)">
<stop stop-color="#A9BBC4"/>
<stop offset="1" stop-color="#D5E2E8"/>
</linearGradient>
<linearGradient id="paint34_linear" x2="1" gradientUnits="userSpaceOnUse" gradientTransform="translate(26.6734 134.82) scale(-24.636 -24.6433)">
<stop stop-color="#A9BBC4"/>
<stop offset="1" stop-color="#D5E2E8"/>
</linearGradient>
<linearGradient id="paint35_linear" x2="1" gradientUnits="userSpaceOnUse" gradientTransform="matrix(-22.1288 36.8923 -36.8814 -22.1353 101.684 121.608)">
<stop stop-color="#A9BBC4"/>
<stop offset="1" stop-color="#D5E2E8"/>
</linearGradient>
<linearGradient id="paint36_linear" x2="1" gradientUnits="userSpaceOnUse" gradientTransform="matrix(-44.2577 39.106 -39.0945 -44.2707 101.519 108.931)">
<stop stop-color="#A9BBC4"/>
<stop offset="1" stop-color="#D5E2E8"/>
</linearGradient>
<linearGradient id="paint37_linear" x2="1" gradientUnits="userSpaceOnUse" gradientTransform="matrix(-81.1428 37.8253 -37.8142 -81.1667 109.85 123.386)">
<stop stop-color="#A9BBC4"/>
<stop offset="1" stop-color="#D5E2E8"/>
</linearGradient>
<linearGradient id="paint38_linear" x2="1" gradientUnits="userSpaceOnUse" gradientTransform="matrix(36.8816 47.2222 -47.2083 36.8924 54.2202 39.4136)">
<stop stop-color="#A9BBC4"/>
<stop offset="1" stop-color="#D5E2E8"/>
</linearGradient>
<linearGradient id="paint39_linear" x2="1" gradientUnits="userSpaceOnUse" gradientTransform="matrix(63.5914 49.8565 -49.8419 63.6101 17.5284 11.3073)">
<stop stop-color="#A9BBC4"/>
<stop offset="1" stop-color="#D5E2E8"/>
</linearGradient>
<linearGradient id="paint40_linear" x2="1" gradientUnits="userSpaceOnUse" gradientTransform="matrix(34.3064 12.0108 -12.0072 34.3165 -2.70773 43.3818)">
<stop stop-color="#A9BBC4"/>
<stop offset="1" stop-color="#D5E2E8"/>
</linearGradient>
<linearGradient id="paint41_linear" x2="1" gradientUnits="userSpaceOnUse" gradientTransform="matrix(9.32165 53.2821 -53.2664 9.32439 156.203 28.1195)">
<stop stop-color="#A9BBC4"/>
<stop offset="1" stop-color="#D5E2E8"/>
</linearGradient>
<linearGradient id="paint42_linear" x2="1" gradientUnits="userSpaceOnUse" gradientTransform="matrix(35.5661 -13.383 13.3791 35.5765 -4.22049 8.16985)">
<stop stop-color="#FFDD15"/>
<stop offset="1" stop-color="#FCB534"/>
</linearGradient>
<linearGradient id="paint43_linear" x2="1" gradientUnits="userSpaceOnUse" gradientTransform="matrix(-18.1939 -2.311 2.31032 -18.1993 36.5912 19.0069)">
<stop/>
<stop offset="0.5564" stop-color="#161414" stop-opacity="0.4436"/>
<stop offset="1" stop-color="#231F20" stop-opacity="0"/>
</linearGradient>
<linearGradient id="paint44_linear" x2="1" gradientUnits="userSpaceOnUse" gradientTransform="matrix(14.6851 -19.1163 19.1107 14.6894 12.2838 20.8102)">
<stop/>
<stop offset="0.5564" stop-color="#161414" stop-opacity="0.4436"/>
<stop offset="1" stop-color="#231F20" stop-opacity="0"/>
</linearGradient>
<linearGradient id="paint45_linear" x2="1" gradientUnits="userSpaceOnUse" gradientTransform="matrix(-42.1627 5.87429 -5.87256 -42.1751 45.086 68.2619)">
<stop stop-color="#1C1A07"/>
<stop offset="0.2552" stop-color="#1C1A41" stop-opacity="0.72"/>
<stop offset="1" stop-color="#1C1A41" stop-opacity="0.7"/>
</linearGradient>
<linearGradient id="paint46_linear" x2="1" gradientUnits="userSpaceOnUse" gradientTransform="matrix(-27.5494 19.7694 -19.7636 -27.5575 62.0779 32.1789)">
<stop/>
<stop offset="0.5564" stop-color="#161414" stop-opacity="0.4436"/>
<stop offset="1" stop-color="#231F20" stop-opacity="0"/>
</linearGradient>
<linearGradient id="paint47_linear" x2="1" gradientUnits="userSpaceOnUse" gradientTransform="matrix(33.4558 42.1177 -42.1053 33.4657 62.7837 27.1309)">
<stop stop-color="#231F20" stop-opacity="0"/>
<stop offset="0.6022"/>
<stop offset="0.8235" stop-color="#161414" stop-opacity="0.4436"/>
<stop offset="1" stop-color="#231F20" stop-opacity="0"/>
</linearGradient>
<linearGradient id="paint48_linear" x2="1" gradientUnits="userSpaceOnUse" gradientTransform="matrix(6.55377 -3.35703 3.35604 6.5557 -0.329553 1.14269)">
<stop stop-color="#FF0068"/>
<stop offset="1" stop-color="#FEA729"/>
</linearGradient>
<linearGradient id="paint49_linear" x2="1" gradientUnits="userSpaceOnUse" gradientTransform="matrix(-6.55566 4.8511 4.84967 6.55759 5.10954 -0.236545)">
<stop stop-color="#FF0068"/>
<stop offset="1" stop-color="#FEA729"/>
</linearGradient>
<linearGradient id="paint50_linear" x2="1" gradientUnits="userSpaceOnUse" gradientTransform="matrix(-1.39055 -2.71631 2.71551 -1.39096 0.93164 3.12883)">
<stop stop-color="#FF0068"/>
<stop offset="1" stop-color="#FEA729"/>
</linearGradient>
<linearGradient id="paint51_linear" x2="1" gradientUnits="userSpaceOnUse" gradientTransform="matrix(-4.45977 22.8626 -22.8559 -4.46108 25.4777 10.9759)">
<stop stop-color="#FF0068"/>
<stop offset="1" stop-color="#FEA729"/>
</linearGradient>
<linearGradient id="paint52_linear" x2="1" gradientUnits="userSpaceOnUse" gradientTransform="matrix(-17.5533 -5.92874 5.927 -17.5585 12.0284 25.4839)">
<stop/>
<stop offset="0.5564" stop-color="#161414" stop-opacity="0.4436"/>
<stop offset="1" stop-color="#231F20" stop-opacity="0"/>
</linearGradient>
<linearGradient id="paint53_linear" x2="1" gradientUnits="userSpaceOnUse" gradientTransform="matrix(-20.4548 76.1333 -76.1109 -20.4609 77.4071 -8.60033)">
<stop/>
<stop offset="0.5564" stop-color="#161414" stop-opacity="0.4436"/>
<stop offset="1" stop-color="#231F20" stop-opacity="0"/>
</linearGradient>
<linearGradient id="paint54_linear" x2="1" gradientUnits="userSpaceOnUse" gradientTransform="matrix(8.78955 -7.54439 7.54217 8.79213 -2.20337 4.33374)">
<stop stop-color="#FFDD15"/>
<stop offset="1" stop-color="#FCB534"/>
</linearGradient>
<linearGradient id="paint55_linear" x2="1" gradientUnits="userSpaceOnUse" gradientTransform="matrix(-15.8376 -2.64032 2.63954 -15.8422 31.6577 111.975)">
<stop stop-color="#A9BBC4"/>
<stop offset="1" stop-color="#D5E2E8"/>
</linearGradient>
<linearGradient id="paint56_linear" x2="1" gradientUnits="userSpaceOnUse" gradientTransform="matrix(-54.5944 0.487984 0.487841 54.6105 54.1098 -20.9641)">
<stop stop-color="#FAFAFA"/>
<stop offset="0.9892" stop-color="#D5E2E8"/>
</linearGradient>
<linearGradient id="paint57_linear" x2="1" gradientUnits="userSpaceOnUse" gradientTransform="matrix(44.2528 136.511 136.471 -44.2658 -40.287 89.1443)">
<stop offset="0.0107527" stop-color="#D5E2E8"/>
<stop offset="1" stop-color="white"/>
</linearGradient>
<linearGradient id="paint58_linear" x2="1" gradientUnits="userSpaceOnUse" gradientTransform="matrix(0 142.32 -142.278 0 98.1597 71.9074)">
<stop offset="0.0107527" stop-color="#D5E2E8"/>
<stop offset="0.4661" stop-color="#E6EDF0"/>
<stop offset="1" stop-color="#FAFAFA"/>
</linearGradient>
<linearGradient id="paint59_linear" x2="1" gradientUnits="userSpaceOnUse" gradientTransform="matrix(-54.5935 0.487976 0.487832 54.6096 54.3045 -5.22112)">
<stop offset="0.0107527" stop-color="#D5E2E8"/>
<stop offset="1" stop-color="#FAFAFA"/>
</linearGradient>

</defs>
</svg>

