<svg width="16" height="16" viewBox="0 0 16 16" version="1.1" xmlns="http://www.w3.org/2000/svg" xmlns:xlink="http://www.w3.org/1999/xlink">
<g id="Canvas" fill="none">
<g id="Group">
<g id="Vector">
<path d="M 14 13.3391C 15.2414 11.9222 16 10.0562 16 8.01728C 16 5.90929 15.1724 3.97408 13.8276 2.52268C 12.4138 1.03672 10.4483 0.0691145 8.27586 0L 8.10345 0C 8.06896 0 8.03448 0 7.96552 0C 7.93103 0 7.89655 0 7.82759 0L 7.65517 0C 5.48276 0.0691145 3.51724 1.03672 2.10345 2.52268C 0.827586 3.97408 0 5.90929 0 8.01728C 0 10.0562 0.758621 11.9222 2 13.3391C 2 13.3391 2 13.3391 2.03448 13.3391C 3.44828 14.9287 5.44828 15.9309 7.72414 16L 7.89655 16C 7.93103 16 7.96552 16 8.03448 16C 8.06896 16 8.10345 16 8.17241 16L 8.31034 16C 10.5517 15.9654 12.5517 14.9287 14 13.3391C 13.9655 13.3391 13.9655 13.3391 14 13.3391C 13.9655 13.3391 13.9655 13.3391 14 13.3391ZM 0.551724 8.29374L 3.86207 8.29374C 3.89655 9.46868 4.13793 10.6091 4.51724 11.6803C 3.72414 11.9568 2.96552 12.3369 2.27586 12.8207C 1.27586 11.5767 0.62069 10.0216 0.551724 8.29374ZM 2.44828 3.04104C 3.13793 3.49028 3.86207 3.83585 4.62069 4.11231C 4.13793 5.2527 3.89655 6.4622 3.86207 7.74082L 0.551724 7.74082C 0.62069 5.94384 1.31034 4.31965 2.44828 3.04104ZM 15.4483 7.74082L 12.1379 7.74082C 12.1034 6.49676 11.8621 5.2527 11.3793 4.11231C 12.1379 3.83585 12.8621 3.49028 13.5517 3.04104C 14.6897 4.31965 15.3793 5.94384 15.4483 7.74082ZM 7.72414 4.14687C 6.93103 4.11231 6.13793 4.00864 5.37931 3.8013C 5.93103 2.66091 6.72414 1.62419 7.72414 0.760259L 7.72414 4.14687ZM 7.72414 4.69978L 7.72414 7.74082L 4.41379 7.74082C 4.44828 6.53132 4.68965 5.35637 5.13793 4.2851C 6 4.527 6.86207 4.66523 7.72414 4.69978ZM 8.27586 4.69978C 9.13793 4.66523 10 4.527 10.8276 4.31965C 11.2759 5.39093 11.5172 6.56588 11.5517 7.77538L 8.27586 7.77538L 8.27586 4.69978ZM 8.27586 4.14687L 8.27586 0.725702C 9.27586 1.58963 10.069 2.62635 10.6207 3.76674C 9.86207 4.00864 9.06896 4.11231 8.27586 4.14687ZM 11.1379 3.62851C 10.6207 2.52268 9.86207 1.48596 8.96552 0.62203C 10.5862 0.829374 12.0345 1.55508 13.1379 2.66091C 12.5172 3.04104 11.8621 3.38661 11.1379 3.62851ZM 4.86207 3.62851C 4.17241 3.38661 3.48276 3.07559 2.86207 2.66091C 3.96552 1.58963 5.44828 0.863931 7.03448 0.62203C 6.10345 1.48596 5.37931 2.48812 4.86207 3.62851ZM 4.41379 8.29374L 7.72414 8.29374L 7.72414 11.0583C 6.82759 11.0929 5.93103 11.2311 5.06897 11.473C 4.65517 10.4708 4.44828 9.39957 4.41379 8.29374ZM 7.72414 11.6112L 7.72414 15.3089C 6.65517 14.3758 5.82759 13.27 5.27586 12.0259C 6.06897 11.784 6.89655 11.6458 7.72414 11.6112ZM 8.27586 15.3089L 8.27586 11.6112C 9.10345 11.6458 9.93103 11.7495 10.7241 11.9914C 10.1724 13.27 9.34483 14.3758 8.27586 15.3089ZM 8.27586 11.0583L 8.27586 8.29374L 11.5862 8.29374C 11.5517 9.39957 11.3448 10.4708 10.931 11.5076C 10.069 11.2311 9.17241 11.0929 8.27586 11.0583ZM 12.1379 8.29374L 15.4483 8.29374C 15.3793 10.0216 14.7586 11.5767 13.7241 12.8207C 13.0345 12.3369 12.2759 11.9568 11.4828 11.6803C 11.8621 10.6091 12.1034 9.46868 12.1379 8.29374ZM 2.68966 13.2354C 3.34483 12.7862 4.03448 12.4406 4.75862 12.1987C 5.31034 13.4082 6.06897 14.514 7.03448 15.4471C 5.34483 15.2052 3.82759 14.4104 2.68966 13.2354ZM 8.96552 15.4125C 9.93103 14.4795 10.7241 13.3737 11.2414 12.1641C 11.9655 12.4406 12.6552 12.7862 13.3103 13.2009C 12.1724 14.4104 10.6552 15.2052 8.96552 15.4125Z" fill="white"/>
</g>
</g>
</g>
</svg>

