<svg width="882" height="333" viewBox="0 0 882 333" version="1.1" xmlns="http://www.w3.org/2000/svg" xmlns:xlink="http://www.w3.org/1999/xlink">
<g id="Canvas" fill="none">
<g id="Group 3">
<g id="Rectangle 12.1">
<path d="M 702 32L 702 10C 702 4.47715 697.523 0 692 0L 10 0C 4.47715 0 0 4.47715 0 10L 0 32" stroke-width="3" transform="translate(88 40.5)" stroke="#D5E2E8"/>
</g>
<g id="Rectangle 12.2">
<path d="M 175 64L 175 10C 175 4.47715 170.523 0 165 0L 10 0C 4.47715 0 0 4.47715 0 10L 0 64" stroke-width="3" transform="translate(2 81)" stroke="#D5E2E8"/>
</g>
<g id="Ellipse 2">
<circle cx="24" cy="24" r="24" transform="translate(64 59)" fill="#E9F2F7"/>
</g>
<g id="Rectangle 12.3">
<path d="M 246.249 166L 246.249 10C 246.249 4.47715 241.771 0 236.249 0L 10.0001 0C 4.47719 0 2.72399e-05 4.47719 6.08419e-05 10.0001L 0.000404596 66.5" stroke-width="3" transform="translate(317.751 166.5)" stroke="#D5E2E8"/>
</g>
<g id="Rectangle 12.5">
<path d="M 161 87L 161 10C 161 4.47715 156.523 0 151 0L 11.5766 0C 6.13344 0 1.68998 4.35352 1.5787 9.79556L 0 87" stroke-width="3" transform="translate(237 233)" stroke="#D5E2E8"/>
</g>
<g id="Line">
<path d="M 0 0L 146.5 0" stroke-width="2" transform="matrix(0 -1 1 0 439 157.5)" stroke="#D5E2E8"/>
</g>
<g id="Rectangle 12.4">
<path d="M 179 106L 179 10C 179 4.47715 174.523 0 169 0L 10 0C 4.47715 0 0 4.47715 0 10L 0 106" stroke-width="3" transform="translate(701 81)" stroke="#D5E2E8"/>
</g>
<g id="Vector 27">
<path d="M 0 0L 0 166.5L 115 166.5C 120.523 166.5 125 170.977 125 176.5L 125 330" stroke-width="3" transform="translate(439 0)" stroke="url(#paint0_linear)"/>
</g>
<g id="Ellipse 2.2">
<circle cx="24" cy="24" r="24" transform="translate(766 59)" fill="#E9F2F7"/>
</g>
<g id="Ellipse 2.1">
<circle cx="24" cy="24" r="24" transform="translate(415 57)" fill="#FEA729"/>
</g>
<g id="settings">
<g id="Vector">
<path d="M 6.54545 3.27273C 6.54545 5.0802 5.0802 6.54545 3.27273 6.54545C 1.46525 6.54545 0 5.0802 0 3.27273C 0 1.46525 1.46525 0 3.27273 0C 5.0802 0 6.54545 1.46525 6.54545 3.27273Z" stroke-width="2" stroke-linecap="round" stroke-linejoin="round" transform="translate(84.7275 79.7273)" stroke="#A9BBC4"/>
</g>
<g id="Vector_2">
<path d="M 20.0727 15.2727C 19.9275 15.6018 19.8842 15.9668 19.9484 16.3206C 20.0125 16.6745 20.1812 17.0011 20.4327 17.2582L 20.4982 17.3236C 20.701 17.5263 20.862 17.7669 20.9718 18.0318C 21.0816 18.2966 21.1381 18.5805 21.1381 18.8673C 21.1381 19.154 21.0816 19.4379 20.9718 19.7028C 20.862 19.9676 20.701 20.2083 20.4982 20.4109C 20.2956 20.6138 20.0549 20.7747 19.7901 20.8845C 19.5252 20.9943 19.2413 21.0508 18.9545 21.0508C 18.6678 21.0508 18.3839 20.9943 18.119 20.8845C 17.8542 20.7747 17.6135 20.6138 17.4109 20.4109L 17.3455 20.3455C 17.0883 20.094 16.7618 19.9253 16.4079 19.8611C 16.054 19.7969 15.689 19.8402 15.36 19.9855C 15.0373 20.1237 14.7622 20.3534 14.5683 20.646C 14.3745 20.9387 14.2705 21.2817 14.2691 21.6327L 14.2691 21.8182C 14.2691 22.3968 14.0392 22.9518 13.6301 23.361C 13.2209 23.7701 12.6659 24 12.0873 24C 11.5086 24 10.9537 23.7701 10.5445 23.361C 10.1353 22.9518 9.90545 22.3968 9.90545 21.8182L 9.90545 21.72C 9.89701 21.3589 9.78013 21.0087 9.57001 20.7149C 9.35989 20.4212 9.06626 20.1974 8.72727 20.0727C 8.39824 19.9275 8.03324 19.8842 7.67936 19.9484C 7.32547 20.0125 6.99892 20.1812 6.74182 20.4327L 6.67636 20.4982C 6.47373 20.701 6.2331 20.862 5.96823 20.9718C 5.70336 21.0816 5.41945 21.1381 5.13273 21.1381C 4.846 21.1381 4.56209 21.0816 4.29722 20.9718C 4.03235 20.862 3.79172 20.701 3.58909 20.4982C 3.38623 20.2956 3.2253 20.0549 3.11551 19.7901C 3.00571 19.5252 2.94919 19.2413 2.94919 18.9545C 2.94919 18.6678 3.00571 18.3839 3.11551 18.119C 3.2253 17.8542 3.38623 17.6135 3.58909 17.4109L 3.65455 17.3455C 3.90604 17.0883 4.07475 16.7618 4.13891 16.4079C 4.20308 16.054 4.15976 15.689 4.01455 15.36C 3.87626 15.0373 3.64664 14.7622 3.35396 14.5683C 3.06128 14.3745 2.71831 14.2705 2.36727 14.2691L 2.18182 14.2691C 1.60316 14.2691 1.04821 14.0392 0.63904 13.6301C 0.22987 13.2209 0 12.6659 0 12.0873C 0 11.5086 0.22987 10.9537 0.63904 10.5445C 1.04821 10.1353 1.60316 9.90545 2.18182 9.90545L 2.28 9.90545C 2.64108 9.89701 2.99128 9.78013 3.28505 9.57001C 3.57883 9.35989 3.8026 9.06626 3.92727 8.72727C 4.07249 8.39824 4.11581 8.03324 4.05164 7.67936C 3.98748 7.32547 3.81877 6.99892 3.56727 6.74182L 3.50182 6.67636C 3.29896 6.47373 3.13803 6.2331 3.02823 5.96823C 2.91843 5.70336 2.86192 5.41945 2.86192 5.13273C 2.86192 4.846 2.91843 4.56209 3.02823 4.29722C 3.13803 4.03235 3.29896 3.79172 3.50182 3.58909C 3.70445 3.38623 3.94508 3.2253 4.20995 3.11551C 4.47482 3.00571 4.75873 2.94919 5.04545 2.94919C 5.33218 2.94919 5.61609 3.00571 5.88096 3.11551C 6.14583 3.2253 6.38646 3.38623 6.58909 3.58909L 6.65455 3.65455C 6.91165 3.90604 7.2382 4.07475 7.59208 4.13891C 7.94597 4.20308 8.31096 4.15976 8.64 4.01455L 8.72727 4.01455C 9.04993 3.87626 9.32511 3.64664 9.51894 3.35396C 9.71277 3.06128 9.81678 2.71831 9.81818 2.36727L 9.81818 2.18182C 9.81818 1.60316 10.0481 1.04821 10.4572 0.63904C 10.8664 0.22987 11.4213 0 12 0C 12.5787 0 13.1336 0.22987 13.5428 0.63904C 13.9519 1.04821 14.1818 1.60316 14.1818 2.18182L 14.1818 2.28C 14.1832 2.63104 14.2872 2.97401 14.4811 3.26669C 14.6749 3.55937 14.9501 3.78899 15.2727 3.92727C 15.6018 4.07249 15.9668 4.11581 16.3206 4.05164C 16.6745 3.98748 17.0011 3.81877 17.2582 3.56727L 17.3236 3.50182C 17.5263 3.29896 17.7669 3.13803 18.0318 3.02823C 18.2966 2.91843 18.5805 2.86192 18.8673 2.86192C 19.154 2.86192 19.4379 2.91843 19.7028 3.02823C 19.9676 3.13803 20.2083 3.29896 20.4109 3.50182C 20.6138 3.70445 20.7747 3.94508 20.8845 4.20995C 20.9943 4.47482 21.0508 4.75873 21.0508 5.04545C 21.0508 5.33218 20.9943 5.61609 20.8845 5.88096C 20.7747 6.14583 20.6138 6.38646 20.4109 6.58909L 20.3455 6.65455C 20.094 6.91165 19.9253 7.2382 19.8611 7.59208C 19.7969 7.94597 19.8402 8.31096 19.9855 8.64L 19.9855 8.72727C 20.1237 9.04993 20.3534 9.32511 20.646 9.51894C 20.9387 9.71277 21.2817 9.81678 21.6327 9.81818L 21.8182 9.81818C 22.3968 9.81818 22.9518 10.0481 23.361 10.4572C 23.7701 10.8664 24 11.4213 24 12C 24 12.5787 23.7701 13.1336 23.361 13.5428C 22.9518 13.9519 22.3968 14.1818 21.8182 14.1818L 21.72 14.1818C 21.369 14.1832 21.026 14.2872 20.7333 14.4811C 20.4406 14.6749 20.211 14.9501 20.0727 15.2727L 20.0727 15.2727Z" stroke-width="2" stroke-linecap="round" stroke-linejoin="round" transform="translate(76 71)" stroke="#A9BBC4"/>
</g>
</g>
<g id="dollar-sign">
<g id="Vector_3">
<path d="M 0 0L 0 24" stroke-width="2" stroke-linecap="round" stroke-linejoin="round" transform="translate(438.546 69)" stroke="white"/>
</g>
<g id="Vector_4">
<path d="M 12 0L 3.81818 0C 2.80554 0 1.83437 0.402272 1.11832 1.11832C 0.402272 1.83437 0 2.80554 0 3.81818C 0 4.83083 0.402272 5.802 1.11832 6.51804C 1.83437 7.23409 2.80554 7.63636 3.81818 7.63636L 9.27273 7.63636C 10.2854 7.63636 11.2565 8.03864 11.9726 8.75468C 12.6886 9.47073 13.0909 10.4419 13.0909 11.4545C 13.0909 12.4672 12.6886 13.4384 11.9726 14.1544C 11.2565 14.8705 10.2854 15.2727 9.27273 15.2727L 0 15.2727" stroke-width="2" stroke-linecap="round" stroke-linejoin="round" transform="translate(432 73.3635)" stroke="white"/>
</g>
</g>
<g id="Ellipse 2.4">
<circle cx="23" cy="23" r="23" transform="translate(295 209.5)" fill="#D5E2E8"/>
</g>
<g id="dollar-sign_2">
<g id="Vector_5">
<path d="M 0 0L 0 22" stroke-width="2" stroke-linecap="round" stroke-linejoin="round" transform="translate(318 221.5)" stroke="#A9BBC4"/>
</g>
<g id="Vector_6">
<path d="M 11 0L 3.5 0C 2.57174 0 1.6815 0.368749 1.02513 1.02513C 0.368749 1.6815 0 2.57174 0 3.5C 0 4.42826 0.368749 5.3185 1.02513 5.97487C 1.6815 6.63125 2.57174 7 3.5 7L 8.5 7C 9.42826 7 10.3185 7.36875 10.9749 8.02513C 11.6313 8.6815 12 9.57174 12 10.5C 12 11.4283 11.6313 12.3185 10.9749 12.9749C 10.3185 13.6313 9.42826 14 8.5 14L 0 14" stroke-width="2" stroke-linecap="round" stroke-linejoin="round" transform="translate(312 225.5)" stroke="#A9BBC4"/>
</g>
</g>
<g id="Ellipse 2.5">
<circle cx="24" cy="24" r="24" transform="translate(540 210)" fill="#FFB11C"/>
</g>
<g id="dollar-sign_3">
<g id="Vector_7">
<path d="M 0 0L 0 24" stroke-width="2" stroke-linecap="round" stroke-linejoin="round" transform="translate(563.546 222)" stroke="#FFECD1"/>
</g>
<g id="Vector_8">
<path d="M 12 0L 3.81818 0C 2.80554 0 1.83437 0.402272 1.11832 1.11832C 0.402272 1.83437 0 2.80554 0 3.81818C 0 4.83083 0.402272 5.802 1.11832 6.51804C 1.83437 7.23409 2.80554 7.63636 3.81818 7.63636L 9.27273 7.63636C 10.2854 7.63636 11.2565 8.03864 11.9726 8.75468C 12.6886 9.47073 13.0909 10.4419 13.0909 11.4545C 13.0909 12.4672 12.6886 13.4384 11.9726 14.1544C 11.2565 14.8705 10.2854 15.2727 9.27273 15.2727L 0 15.2727" stroke-width="2" stroke-linecap="round" stroke-linejoin="round" transform="translate(557 226.364)" stroke="#FFECD1"/>
</g>
</g>
<g id="shopping-bag">
<g id="Vector_9">
<path d="M 3.6 0L 0 4.8L 0 21.6C 0 22.2365 0.252856 22.847 0.702944 23.2971C 1.15303 23.7471 1.76348 24 2.4 24L 19.2 24C 19.8365 24 20.447 23.7471 20.8971 23.2971C 21.3471 22.847 21.6 22.2365 21.6 21.6L 21.6 4.8L 18 0L 3.6 0Z" stroke-width="2" stroke-linecap="round" stroke-linejoin="round" transform="translate(779 71)" stroke="#A9BBC4"/>
</g>
<g id="Vector_10">
<path d="M 0 0L 21.6 0" stroke-width="2" stroke-linecap="round" stroke-linejoin="round" transform="translate(779 75.8)" stroke="#A9BBC4"/>
</g>
<g id="Vector_11">
<path d="M 9.6 0C 9.6 1.27304 9.09429 2.49394 8.19411 3.39411C 7.29394 4.29429 6.07304 4.8 4.8 4.8C 3.52696 4.8 2.30606 4.29429 1.40589 3.39411C 0.505713 2.49394 0 1.27304 0 0" stroke-width="2" stroke-linecap="round" stroke-linejoin="round" transform="translate(785 80.6001)" stroke="#A9BBC4"/>
</g>
</g>
<g id="Vector_12">
<path d="M 0 0L 13.5 13.5L 0 27" stroke-width="3" stroke-linecap="round" stroke-linejoin="round" transform="translate(514 153)" stroke="#FFC775"/>
</g>
</g>
</g>
<defs>

<linearGradient id="paint0_linear" x2="1" gradientUnits="userSpaceOnUse" gradientTransform="matrix(0 285 -285 0 205 11)">
<stop stop-color="#D5E2E8"/>
<stop offset="0.254144" stop-color="#FFE9C8"/>
<stop offset="1" stop-color="#FEA729"/>
</linearGradient>

</defs>
</svg>

