<svg width="173" height="24" viewBox="0 0 173 24" version="1.1" xmlns="http://www.w3.org/2000/svg" xmlns:xlink="http://www.w3.org/1999/xlink">
<g id="Canvas" fill="none">
<g id="Group">
<g id="Group_2">
<g id="Group_3">
<g id="Vector">
<path d="M 2.39784 4.79111C 3.72214 4.79111 4.79569 3.71858 4.79569 2.39555C 4.79569 1.07253 3.72214 0 2.39784 0C 1.07355 0 0 1.07253 0 2.39555C 0 3.71858 1.07355 4.79111 2.39784 4.79111Z" transform="translate(4.7959 9.62699)" fill="white"/>
</g>
<g id="Vector_2">
<path d="M 2.39784 4.79111L 12.0336 4.79111C 13.3658 4.79111 14.4315 3.72642 14.4315 2.39555C 14.4315 1.06469 13.3658 3.38456e-07 12.0336 3.38456e-07L 2.39784 3.38456e-07C 1.06571 3.38456e-07 0 1.06469 0 2.39555C 0 3.72642 1.06571 4.79111 2.39784 4.79111Z" transform="translate(14.4316 9.62699)" fill="white"/>
</g>
<g id="Vector_3">
<path d="M 2.39784 4.79111C 3.72213 4.79111 4.79569 3.71858 4.79569 2.39555C 4.79569 1.07253 3.72213 0 2.39784 0C 1.07355 0 0 1.07253 0 2.39555C 0 3.71858 1.07355 4.79111 2.39784 4.79111Z" transform="translate(33.6582 9.62699)" fill="white"/>
</g>
<g id="Vector_4">
<path d="M 2.39785 4.79111C 3.72214 4.79111 4.79569 3.71858 4.79569 2.39555C 4.79569 1.07253 3.72214 0 2.39785 0C 1.07355 0 0 1.07253 0 2.39555C 0 3.71858 1.07355 4.79111 2.39785 4.79111Z" transform="translate(43.25 9.62695)" fill="white"/>
</g>
<g id="Vector_5">
<path d="M 2.39784 4.7911C 3.72214 4.7911 4.79569 3.71858 4.79569 2.39555C 4.79569 1.07253 3.72214 0 2.39784 0C 1.07355 0 0 1.07253 0 2.39555C 0 3.71858 1.07355 4.7911 2.39784 4.7911Z" transform="translate(14.4316 19.209)" fill="white"/>
</g>
<g id="Vector_6">
<path d="M 12.0336 -3.38456e-07L 2.39784 -3.38456e-07C 1.06571 -3.38456e-07 -6.77559e-07 1.06469 -6.77559e-07 2.39555C -6.77559e-07 3.72642 1.06571 4.7911 2.39784 4.7911L 12.0336 4.7911C 13.3658 4.7911 14.4315 3.72642 14.4315 2.39555C 14.4315 1.06469 13.3658 -3.38456e-07 12.0336 -3.38456e-07Z" transform="translate(24.0225 19.209)" fill="white"/>
</g>
<g id="Vector_7">
<path d="M 12.0336 0L 2.39784 0C 1.06571 0 0 1.06469 0 2.39555C 0 3.72642 1.06571 4.79111 2.39784 4.79111L 12.0336 4.79111C 13.3658 4.79111 14.4315 3.72642 14.4315 2.39555C 14.4315 1.06469 13.3658 0 12.0336 0Z" fill="white"/>
</g>
<g id="Vector_8">
<path d="M 2.39784 4.79111L 12.0336 4.79111C 13.3658 4.79111 14.4315 3.72642 14.4315 2.39555C 14.4315 1.06469 13.3658 0 12.0336 0L 2.39784 0C 1.06571 0 -3.3878e-07 1.06469 -3.3878e-07 2.39555C -3.3878e-07 3.72642 1.06571 4.79111 2.39784 4.79111Z" transform="translate(19.2266 7.62939e-05)" fill="white"/>
</g>
<g id="Vector_9">
<path d="M 12.0336 0L 2.39784 0C 1.06571 0 -6.77559e-07 1.06469 -6.77559e-07 2.39555C -6.77559e-07 3.72642 1.06571 4.79111 2.39784 4.79111L 12.0336 4.79111C 13.3658 4.79111 14.4315 3.72642 14.4315 2.39555C 14.4315 1.06469 13.3658 0 12.0336 0Z" transform="translate(38.4541 0)" fill="white"/>
</g>
</g>
<g id="Group_4">
<g id="Vector_10">
<path d="M 17.0069 19.2088L 13.0993 19.2088L 13.0993 11.3123L 3.9076 11.3123L 3.9076 19.2088L 0 19.2088L 0 -4.2307e-08L 3.9076 -4.2307e-08L 3.9076 7.80773L 13.0993 7.80773L 13.0993 -4.2307e-08L 17.0069 -4.2307e-08L 17.0069 19.2088Z" transform="translate(62.3887 2.48447)" fill="white"/>
</g>
<g id="Vector_11">
<path d="M 16.6961 10.6025C 16.6961 13.3086 15.9412 15.4824 14.4315 17.1238C 12.9217 18.7652 10.9235 19.608 8.43686 19.608C 5.9058 19.608 3.86319 18.7652 2.30904 17.1238C 0.754878 15.4824 2.71024e-06 13.3086 2.71024e-06 10.6025L 2.71024e-06 -4.2307e-08L 3.90759 -4.2307e-08L 3.90759 10.6025C 3.90759 12.1996 4.30724 13.4861 5.15092 14.462C 5.99461 15.438 7.10472 15.926 8.48126 15.926C 9.76899 15.926 10.8347 15.438 11.634 14.462C 12.4333 13.4861 12.8329 12.1996 12.8329 10.6025L 12.8329 -4.2307e-08L 16.7405 -4.2307e-08L 16.7405 10.6025L 16.6961 10.6025Z" transform="translate(85.5234 2.48447)" fill="white"/>
</g>
<g id="Vector_12">
<path d="M 19.8503 8.25437C 19.9391 8.9198 19.9391 9.45214 19.9835 9.89577C 20.0279 12.7793 19.1843 15.1749 17.3637 17.0824C 15.5875 18.99 13.2785 20.0103 10.4366 20.0547C 7.55028 20.099 5.15244 19.2118 3.10983 17.3042C 1.11163 15.3967 0.0903242 13.0455 0.00151515 10.2507C -0.0428894 7.45585 0.889607 5.0603 2.799 3.064C 4.7084 1.06771 7.06183 0.0917446 9.90372 0.00302045C 12.0351 -0.0413416 13.9445 0.402279 15.6319 1.37825C 17.3193 2.35421 18.5182 3.72944 19.2287 5.59264L 15.7651 6.87914C 14.5662 4.66104 12.6124 3.59635 9.94813 3.64071C 8.21635 3.68507 6.7954 4.30614 5.64089 5.54828C 4.48637 6.79042 3.90911 8.29873 3.95351 10.1176C 3.99792 11.9364 4.61958 13.4447 5.86291 14.6425C 7.10624 15.8403 8.61598 16.417 10.4366 16.3726C 11.9019 16.3283 13.1008 15.929 14.1222 15.1305C 15.1435 14.332 15.8095 13.2229 16.0759 11.8477L 9.41527 12.0251L 9.32646 8.47618L 19.8503 8.25437Z" transform="translate(107.369 1.86041)" fill="white"/>
</g>
<g id="Vector_13">
<path d="M 19.8488 8.4288C 19.8932 9.09423 19.9376 9.67093 19.9376 10.0702C 19.9376 12.9537 19.0051 15.3049 17.1845 17.2125C 15.364 19.1201 13.0105 20.0517 10.1686 20.0517C 7.28235 20.0517 4.88449 19.0757 2.9307 17.1681C 0.976896 15.2606 -5.42047e-06 12.865 -5.42047e-06 10.0258C -5.42047e-06 7.23102 0.976896 4.83547 2.9307 2.9279C 4.88449 0.975966 7.28234 -4.2307e-08 10.0798 -4.2307e-08C 12.2112 -4.2307e-08 14.1206 0.487983 15.7636 1.50831C 17.451 2.48428 18.6055 3.94823 19.2716 5.81143L 15.7636 7.05357C 14.6091 4.83547 12.6997 3.68205 10.0354 3.68205C 8.30364 3.68205 6.8827 4.30312 5.68378 5.5009C 4.48486 6.74304 3.9076 8.25135 3.9076 10.0258C 3.9076 11.8447 4.52927 13.353 5.72819 14.5951C 6.97151 15.8373 8.48126 16.414 10.2574 16.414C 11.7228 16.414 12.9661 16.0147 13.9874 15.2162C 15.0087 14.4177 15.7192 13.353 16.03 11.9778L 9.28055 11.9778L 9.28055 8.4288L 19.8488 8.4288Z" transform="translate(131.793 2.04111)" fill="white"/>
</g>
<g id="Vector_14">
<path d="M 11.5008 19.2088L 7.59317 19.2088L 7.59317 13.1312L -5.42047e-06 -4.2307e-08L 4.30724 -4.2307e-08L 9.54697 9.04986L 14.7423 -4.2307e-08L 19.2272 -4.2307e-08L 11.5008 13.0425L 11.5008 19.2088Z" transform="translate(153.773 2.48444)" fill="white"/>
</g>
</g>
</g>
</g>
</g>
</svg>

