<svg width="162" height="113" viewBox="0 0 162 113" version="1.1" xmlns="http://www.w3.org/2000/svg" xmlns:xlink="http://www.w3.org/1999/xlink">
<g id="Canvas" fill="none">
<g id="Group 2.16">
<g id="Group">
<g id="Vector">
<path d="M 146.441 50.9885L 114.239 59.8586L 89.7869 66.5929C 89.7869 66.5929 89.7675 66.5929 89.7481 66.6121C 89.7481 66.6121 89.7481 66.6121 89.7287 66.6121L 89.7094 66.6121L 89.69 66.6121C 89.69 66.6121 89.6706 66.6121 89.6512 66.6121L 89.6319 66.6121C 89.6125 66.6121 89.6125 66.6121 89.5931 66.6314L 89.5737 66.6314C 89.5544 66.6314 89.535 66.6314 89.535 66.6506C 89.5156 66.6506 89.5156 66.6506 89.4962 66.6506C 89.4769 66.6506 89.4575 66.6506 89.4575 66.6699C 89.4381 66.6699 89.4187 66.6699 89.4187 66.6891C 89.3994 66.6891 89.38 66.6891 89.38 66.7084C 89.3606 66.7084 89.3412 66.7083 89.3412 66.7276C 89.3219 66.7276 89.3025 66.7468 89.2831 66.7468C 89.2637 66.7468 89.2637 66.7468 89.2444 66.7661C 89.225 66.7661 89.1862 66.7853 89.1668 66.7853C 89.1475 66.7853 89.1475 66.7853 89.1281 66.8046C 89.1087 66.8046 89.07 66.8238 89.0506 66.8238C 89.0312 66.8238 89.0118 66.843 88.9925 66.843C 88.9537 66.843 88.9343 66.8623 88.8956 66.8623C 88.8762 66.8623 88.8762 66.8623 88.8568 66.8815C 88.8181 66.9008 88.7793 66.9008 88.76 66.92C 88.7406 66.92 88.7212 66.92 88.7212 66.9392C 88.6825 66.9585 88.6437 66.9585 88.605 66.9777C 88.5856 66.9777 88.5662 66.997 88.5468 66.997C 88.5081 67.0162 88.4693 67.0162 88.4306 67.0354C 88.4306 67.0354 88.4112 67.0354 88.3918 67.0354C 88.3531 67.0547 88.2949 67.0547 88.2368 67.0739L 88.2174 67.0739C 88.0431 67.1124 87.8687 67.1701 87.6943 67.2086L 87.6749 67.2086C 87.6362 67.2279 87.578 67.2279 87.5199 67.2471C 87.5005 67.2471 87.4812 67.2663 87.4424 67.2663C 87.4037 67.2856 87.3455 67.2856 87.3068 67.3048C 87.2874 67.3048 87.2487 67.3241 87.2293 67.3241C 87.1712 67.3433 87.1324 67.3433 87.0743 67.3625C 87.0549 67.3625 87.0162 67.3818 86.9968 67.3818C 86.9386 67.401 86.8999 67.401 86.8418 67.4203C 86.803 67.4203 86.7836 67.4395 86.7449 67.4395C 86.6868 67.4587 86.648 67.4587 86.5899 67.478C 86.5705 67.478 86.5318 67.4972 86.5124 67.4972C 86.4543 67.5165 86.3961 67.5165 86.338 67.5357C 86.2992 67.5357 86.2799 67.555 86.2411 67.555C 86.183 67.5742 86.1249 67.5742 86.0667 67.5934C 86.028 67.5934 85.9892 67.6127 85.9699 67.6127C 85.9117 67.6319 85.8536 67.6319 85.7955 67.6512C 85.7567 67.6512 85.7374 67.6704 85.6986 67.6704C 85.6405 67.6896 85.5824 67.7089 85.5242 67.7089C 85.4855 67.7089 85.4467 67.7281 85.4273 67.7281C 85.3692 67.7474 85.3111 67.7666 85.253 67.7666C 85.2142 67.7666 85.1755 67.7858 85.1367 67.7858C 85.0786 67.8051 85.0011 67.8243 84.943 67.8243C 84.9042 67.8243 84.8848 67.8436 84.8461 67.8436C 84.7686 67.8628 84.7104 67.882 84.6329 67.882C 84.5942 67.882 84.5748 67.9013 84.5361 67.9013C 84.4586 67.9205 84.4004 67.9398 84.3229 67.959C 84.2842 67.959 84.2648 67.9782 84.2261 67.9782C 84.1486 67.9975 84.071 68.0167 83.9935 68.036C 83.9742 68.036 83.9548 68.0552 83.916 68.0552C 83.8385 68.0745 83.7417 68.0937 83.6642 68.1129C 83.6642 68.1129 83.6642 68.1129 83.6448 68.1129C 83.2185 68.2091 82.7923 68.3053 82.3272 68.4016L 82.3079 68.4016C 82.211 68.4208 82.1141 68.44 82.0366 68.4593C 82.0172 68.4593 81.9785 68.4785 81.9591 68.4785C 81.8622 68.4978 81.7847 68.517 81.6878 68.5362C 81.6491 68.5362 81.6297 68.5555 81.591 68.5555C 81.4941 68.5747 81.4166 68.594 81.3197 68.6132C 81.281 68.6132 81.2616 68.6324 81.2228 68.6324C 81.1259 68.6517 81.0484 68.6709 80.9516 68.6902C 80.9128 68.6902 80.8741 68.7094 80.8353 68.7094C 80.7384 68.7286 80.6609 68.7479 80.5641 68.7671C 80.5253 68.7671 80.4865 68.7864 80.4478 68.7864C 80.3509 68.8056 80.2734 68.8249 80.1765 68.8441C 80.1378 68.8441 80.099 68.8633 80.0409 68.8633C 79.944 68.8826 79.8665 68.9018 79.7696 68.9211C 79.7309 68.9211 79.6921 68.9403 79.634 68.9403C 79.5371 68.9595 79.4596 68.9788 79.3628 68.998C 79.324 68.998 79.2853 69.0173 79.2465 69.0173C 79.1496 69.0365 79.0527 69.0557 78.9752 69.075C 78.9365 69.075 78.8977 69.0942 78.8396 69.0942C 78.7427 69.1135 78.6459 69.1327 78.549 69.1327C 78.5102 69.1327 78.4715 69.1519 78.4327 69.1519C 78.3359 69.1712 78.239 69.1904 78.1421 69.2097C 78.1033 69.2097 78.0646 69.2289 78.0258 69.2289C 77.929 69.2482 77.8321 69.2674 77.7158 69.2866C 77.6771 69.2866 77.6383 69.3059 77.5996 69.3059C 77.5027 69.3251 77.3864 69.3444 77.2896 69.3636C 77.2508 69.3636 77.2314 69.3636 77.1927 69.3828C 77.0764 69.4021 76.9602 69.4213 76.8439 69.4406L 76.8245 69.4406C 76.127 69.5368 75.4295 69.6522 74.6932 69.7292L 74.6739 69.7292C 74.5576 69.7484 74.422 69.7677 74.3057 69.7677C 74.2863 69.7677 74.2476 69.7677 74.2282 69.7869C 74.112 69.8061 73.9957 69.8061 73.8794 69.8254C 73.8407 69.8254 73.8019 69.8254 73.7632 69.8446C 73.6469 69.8639 73.5307 69.8639 73.4338 69.8831C 73.3951 69.8831 73.3563 69.8831 73.2982 69.9023C 73.1819 69.9216 73.085 69.9216 72.9688 69.9408C 72.93 69.9408 72.8719 69.9601 72.8332 69.9601C 72.7169 69.9793 72.62 69.9793 72.5038 69.9986C 72.465 69.9986 72.4069 70.0178 72.3681 70.0178C 72.2519 70.037 72.155 70.037 72.0388 70.0563C 71.9806 70.0563 71.9419 70.0563 71.8838 70.0755C 71.7675 70.0948 71.6706 70.0948 71.5544 70.114C 71.5156 70.114 71.4575 70.114 71.4187 70.1332C 71.3025 70.1332 71.2056 70.1525 71.0893 70.1525C 71.0312 70.1525 70.9925 70.1525 70.9343 70.1717C 70.8181 70.1717 70.7212 70.191 70.605 70.191C 70.5662 70.191 70.5081 70.191 70.4693 70.2102C 70.3531 70.2102 70.2368 70.2294 70.1206 70.2294C 70.0818 70.2294 70.0237 70.2294 69.9849 70.2294C 69.8687 70.2294 69.7524 70.2487 69.6362 70.2487C 69.5974 70.2487 69.5587 70.2487 69.5199 70.2487C 69.4037 70.2487 69.2874 70.2679 69.1518 70.2679C 69.113 70.2679 69.0937 70.2679 69.0549 70.2679C 68.9193 70.2679 68.803 70.2872 68.6674 70.2872C 68.648 70.2872 68.6286 70.2872 68.6093 70.2872C 67.6792 70.3256 66.7492 70.3641 65.8192 70.3834C 65.7998 70.3834 65.7804 70.3834 65.761 70.3834C 65.6254 70.3834 65.4898 70.3834 65.3735 70.3834C 65.3348 70.3834 65.296 70.3834 65.2766 70.3834C 65.1604 70.3834 65.0248 70.3834 64.9085 70.3834C 64.8698 70.3834 64.831 70.3834 64.7729 70.3834C 64.6566 70.3834 64.5404 70.3834 64.4241 70.3834C 64.3854 70.3834 64.3272 70.3834 64.2885 70.3834C 64.1722 70.3834 64.056 70.3834 63.9397 70.3834C 63.8816 70.3834 63.8428 70.3834 63.7847 70.3834C 63.6685 70.3834 63.5522 70.3834 63.436 70.3834C 63.3778 70.3834 63.3391 70.3834 63.2809 70.3834C 63.1647 70.3834 63.0484 70.3834 62.9322 70.3641C 62.8741 70.3641 62.8353 70.3641 62.7772 70.3641C 62.6609 70.3641 62.5447 70.3641 62.4284 70.3449C 62.3703 70.3449 62.3315 70.3449 62.2734 70.3449C 62.1572 70.3449 62.0409 70.3256 61.9247 70.3256C 61.8665 70.3256 61.8278 70.3256 61.7696 70.3256C 61.6534 70.3256 61.5371 70.3064 61.4209 70.3064C 61.3821 70.3064 61.324 70.3064 61.2853 70.3064C 61.169 70.3064 61.0527 70.2872 60.9365 70.2872C 60.8977 70.2872 60.8396 70.2872 60.8009 70.2679C 60.6846 70.2679 60.5684 70.2487 60.4327 70.2487C 60.394 70.2487 60.3552 70.2487 60.3165 70.2294C 60.2002 70.2102 60.0646 70.2102 59.9483 70.191C 59.9096 70.191 59.8902 70.191 59.8515 70.191C 59.7158 70.1717 59.5802 70.1717 59.4446 70.1525C 59.4252 70.1525 59.4252 70.1525 59.4058 70.1525C 58.6308 70.0755 57.8364 69.9793 57.0807 69.8446C 57.0614 69.8446 57.0614 69.8446 57.042 69.8446C 56.9064 69.8254 56.7901 69.8061 56.6545 69.7869C 56.6157 69.7869 56.5963 69.7677 56.5576 69.7677C 56.4413 69.7484 56.3251 69.7292 56.2088 69.7099C 56.1701 69.7099 56.1313 69.6907 56.0732 69.6907C 55.957 69.6715 55.8407 69.6522 55.7244 69.633C 55.6857 69.633 55.6276 69.6137 55.5888 69.6137C 55.4726 69.5945 55.3757 69.5752 55.2594 69.556C 55.2013 69.5368 55.1625 69.5368 55.1044 69.5175C 54.9882 69.4983 54.8913 69.479 54.775 69.4406C 54.7169 69.4213 54.6782 69.4213 54.62 69.4021C 54.5231 69.3828 54.4069 69.3636 54.31 69.3251C 54.2519 69.3059 54.2131 69.3059 54.155 69.2866C 54.0581 69.2674 53.9419 69.2289 53.845 69.2097C 53.7869 69.1904 53.7481 69.1904 53.69 69.1712C 53.5931 69.1519 53.4769 69.1135 53.38 69.0942C 53.3219 69.075 53.2831 69.075 53.225 69.0557C 53.1281 69.0365 53.0118 68.998 52.915 68.9788C 52.8568 68.9595 52.8181 68.9595 52.76 68.9403C 52.6631 68.9018 52.5468 68.8826 52.45 68.8441C 52.4112 68.8249 52.3531 68.8249 52.3143 68.8056C 52.2174 68.7671 52.1012 68.7479 52.0043 68.7094C 51.9656 68.6902 51.9074 68.6902 51.8687 68.6709C 51.7524 68.6324 51.6555 68.594 51.5393 68.5747C 51.5005 68.5555 51.4618 68.5555 51.423 68.5362C 51.3068 68.4978 51.1905 68.4593 51.0937 68.4208C 51.0743 68.4016 51.0355 68.4016 51.0162 68.3823C 50.8999 68.3438 50.7643 68.3054 50.648 68.2476C 50.648 68.2476 50.648 68.2476 50.6286 68.2476C 50.0667 68.036 49.5048 67.8243 48.9429 67.5742C 48.9429 67.5742 48.9236 67.5742 48.9236 67.555C 48.8073 67.4972 48.6911 67.4587 48.5942 67.401C 48.5554 67.3818 48.5361 67.3818 48.4973 67.3625C 48.4004 67.3241 48.3036 67.2663 48.1873 67.2279C 48.1485 67.2086 48.1098 67.1894 48.071 67.1701C 47.9742 67.1317 47.8773 67.0739 47.7804 67.0354C 47.7417 67.0162 47.6835 66.997 47.6448 66.9585C 47.5479 66.92 47.4704 66.8623 47.3735 66.8238C 47.3348 66.8046 47.2766 66.7661 47.2379 66.7468C 47.141 66.7084 47.0635 66.6506 46.9666 66.6121C 46.9085 66.5929 46.8698 66.5544 46.8116 66.5352C 46.7341 66.4967 46.6372 66.439 46.5597 66.3813C 46.5016 66.362 46.4629 66.3235 46.4047 66.3043C 46.3272 66.2466 46.2304 66.2081 46.1529 66.1504C 46.0947 66.1119 46.056 66.0926 45.9978 66.0542C 45.9203 65.9964 45.8235 65.958 45.746 65.9002C 45.6878 65.8617 45.6491 65.8425 45.6103 65.804C 45.5328 65.7463 45.4553 65.7078 45.3584 65.6501C 45.3197 65.6116 45.2616 65.5924 45.2228 65.5539C 45.1453 65.4962 45.0678 65.4384 44.9903 65.3807C 44.9516 65.3422 44.8934 65.323 44.8547 65.2845C 44.7772 65.2268 44.6997 65.1691 44.6222 65.1114C 44.5834 65.0729 44.5253 65.0536 44.4865 65.0151C 44.409 64.9574 44.3315 64.8997 44.254 64.842C 44.2153 64.8035 44.1765 64.7843 44.1378 64.7458C 44.0603 64.688 43.9828 64.6111 43.8859 64.5534C 43.8471 64.5149 43.8084 64.4956 43.7696 64.4572C 43.6921 64.3802 43.5953 64.3225 43.5178 64.2455C 43.4984 64.2263 43.4596 64.1878 43.4403 64.1685C 43.3434 64.0916 43.2659 64.0146 43.169 63.9377C 47.5285 60.6859 52.605 59.1082 52.605 59.1082L 88.1399 49.6609L 119.877 41.2333L 119.877 19.5488L 103.989 0L 72.2713 8.54298C 70.4112 9.04324 68.5511 9.54351 66.6911 10.0438C 66.2842 10.1592 65.8773 10.2747 65.451 10.3709C 64.4241 10.6402 63.3972 10.9289 62.3897 11.1982C 61.9828 11.3137 61.5759 11.4099 61.1884 11.5253C 60.1808 11.7947 59.1927 12.0641 58.2239 12.3334C 57.4489 12.5451 56.6738 12.7567 55.9182 12.9684C 55.3563 13.1223 54.7944 13.2763 54.2325 13.4302C 53.6706 13.5841 53.1281 13.738 52.5856 13.8727C 52.4112 13.9304 52.2174 13.9689 52.0431 14.0266C 51.3262 14.2191 50.6286 14.4115 49.9505 14.6039C 49.098 14.8348 48.2842 15.0657 47.4898 15.2773C 47.1798 15.3735 46.8504 15.4505 46.5597 15.5274C 46.4047 15.5659 46.2497 15.6044 46.0947 15.6621C 45.7847 15.7391 45.4941 15.8353 45.2034 15.9123C 44.1765 16.2009 43.2271 16.451 42.3552 16.7011C 41.2314 17.009 40.2239 17.2976 39.3714 17.5285C 36 18.4713 32.803 19.4911 29.7998 20.5878C 25.2853 22.2618 21.1776 24.1281 17.535 26.3216C 16.9343 26.6872 16.3337 27.0528 15.7524 27.4376C 15.4618 27.63 15.1712 27.8224 14.8805 28.0148C 12.3229 29.7657 10.0366 31.6898 8.0409 33.8256C 7.82777 34.0565 7.61464 34.2874 7.42088 34.5182C 7.36276 34.5952 7.28525 34.6722 7.22713 34.7491C 7.0915 34.9031 6.95587 35.057 6.82024 35.2109C 6.74273 35.2879 6.68461 35.3841 6.60711 35.4611C 6.49085 35.615 6.35522 35.7497 6.23897 35.9036C 6.16146 35.9806 6.10334 36.0768 6.04521 36.1537C 5.92896 36.3077 5.79333 36.4616 5.67707 36.6155C 5.61895 36.6925 5.56082 36.7694 5.50269 36.8272C 5.32831 37.0581 5.17331 37.2889 4.99892 37.5198C 4.99892 37.5391 4.97955 37.5391 4.97955 37.5583C 4.82454 37.77 4.68891 38.0009 4.53391 38.2125C 4.47578 38.2895 4.43703 38.3664 4.3789 38.4434C 4.28202 38.5973 4.18515 38.7513 4.08827 38.9052C 4.03014 38.9822 3.97201 39.0784 3.93326 39.1553C 3.83638 39.3092 3.75888 39.4439 3.68138 39.5979C 3.62325 39.6748 3.5845 39.771 3.52637 39.848C 3.42949 40.0019 3.35199 40.1558 3.27449 40.3098C 3.23574 40.3867 3.19699 40.4637 3.15824 40.5214C 3.04198 40.7523 2.92573 40.964 2.80947 41.1949C 2.7901 41.2141 2.7901 41.2526 2.77072 41.2718C 2.67384 41.4642 2.57696 41.6759 2.48009 41.8683C 2.44133 41.9453 2.40258 42.0222 2.36383 42.0992C 2.30571 42.2531 2.2282 42.3878 2.17008 42.5417C 2.13132 42.6379 2.09257 42.7149 2.05382 42.8111C 1.99569 42.9458 1.93757 43.0805 1.87944 43.2152C 1.84069 43.3114 1.80194 43.3883 1.78256 43.4653C 1.72443 43.6192 1.66631 43.7539 1.60818 43.9078C 1.58881 43.9848 1.55005 44.0618 1.53068 44.1387C 1.45318 44.3504 1.37567 44.562 1.29817 44.7737C 1.27879 44.8122 1.27879 44.8506 1.25942 44.8891C 1.20129 45.0623 1.14316 45.2355 1.08504 45.4086C 1.06566 45.4856 1.04629 45.5818 1.00753 45.6588C 0.968784 45.7934 0.930032 45.9281 0.891281 46.0628C 0.871905 46.159 0.85253 46.236 0.813778 46.3322C 0.775027 46.4669 0.755651 46.5823 0.7169 46.717C 0.697524 46.8132 0.678149 46.8902 0.658773 46.9864C 0.620022 47.1211 0.600646 47.2558 0.561895 47.3904C 0.542519 47.4674 0.523143 47.5444 0.503768 47.6213C 0.465016 47.833 0.426265 48.0254 0.387513 48.2178C 0.368138 48.2755 0.368138 48.3332 0.348762 48.391C 0.329386 48.5449 0.290635 48.6796 0.271259 48.8335C 0.251884 48.9297 0.251884 49.0067 0.232508 49.0836C 0.213132 49.1991 0.193757 49.3145 0.193757 49.43C 0.174381 49.5262 0.174381 49.6031 0.155005 49.6994C 0.13563 49.8148 0.13563 49.9302 0.116254 50.0457C 0.116254 50.1419 0.0968784 50.2189 0.0968784 50.3151C 0.0775027 50.4305 0.0775027 50.546 0.0775027 50.6614C 0.0775027 50.7384 0.058127 50.8346 0.058127 50.9115C 0.0387513 51.0847 0.0387513 51.2579 0.0387513 51.4118C 0.0387513 51.508 0.0387513 51.585 0.0193757 51.6812C 0.0193757 51.7966 0.0193757 51.9121 -5.77443e-10 52.0467C -5.77443e-10 52.143 -5.77443e-10 52.2199 -5.77443e-10 52.3161C -5.77443e-10 52.3738 -5.77443e-10 52.4508 -5.77443e-10 52.5085C -5.77443e-10 52.5278 -5.77443e-10 52.5663 -5.77443e-10 52.5855C -5.77443e-10 52.6047 -5.77443e-10 52.6432 -5.77443e-10 52.6625C -5.77443e-10 52.6817 -5.77443e-10 52.7202 -5.77443e-10 52.7394C -5.77443e-10 52.7587 -5.77443e-10 52.7971 -5.77443e-10 52.8164C -5.77443e-10 52.8356 -5.77443e-10 52.8741 -5.77443e-10 52.8934C -5.77443e-10 52.9126 -5.77443e-10 52.9511 -5.77443e-10 52.9703C -5.77443e-10 52.9896 -5.77443e-10 53.028 -5.77443e-10 53.0473C -5.77443e-10 53.0665 -5.77443e-10 53.105 -5.77443e-10 53.1242C -5.77443e-10 53.1435 -5.77443e-10 53.182 -5.77443e-10 53.2012C -5.77443e-10 53.2204 -5.77443e-10 53.2589 -5.77443e-10 53.2782C -5.77443e-10 53.2974 -5.77443e-10 53.3359 -5.77443e-10 53.3551C -5.77443e-10 53.3744 -5.77443e-10 53.4129 -5.77443e-10 53.4321C -5.77443e-10 53.4513 -5.77443e-10 53.4898 -5.77443e-10 53.5091C -5.77443e-10 53.5283 -5.77443e-10 53.5668 -5.77443e-10 53.586C -5.77443e-10 53.6053 -5.77443e-10 53.6437 -5.77443e-10 53.663C -5.77443e-10 53.6822 -5.77443e-10 53.7207 -5.77443e-10 53.74C -5.77443e-10 53.7592 -5.77443e-10 53.7977 -5.77443e-10 53.8169C -5.77443e-10 53.8362 -5.77443e-10 53.8746 -5.77443e-10 53.8939C -5.77443e-10 53.9131 -5.77443e-10 53.9516 -5.77443e-10 53.9708C -5.77443e-10 53.9901 -5.77443e-10 54.0286 -5.77443e-10 54.0478C -5.77443e-10 54.067 -5.77443e-10 54.1055 -5.77443e-10 54.1248C -5.77443e-10 54.144 -5.77443e-10 54.1825 -5.77443e-10 54.2017C -5.77443e-10 54.221 -5.77443e-10 54.2595 -5.77443e-10 54.2787C -5.77443e-10 54.2979 -5.77443e-10 54.3364 -5.77443e-10 54.3557C -5.77443e-10 54.3749 -5.77443e-10 54.4134 -5.77443e-10 54.4326C -5.77443e-10 54.4519 -5.77443e-10 54.4903 -5.77443e-10 54.5096C -5.77443e-10 54.5288 -5.77443e-10 54.5673 -5.77443e-10 54.5866C -5.77443e-10 54.6058 -5.77443e-10 54.6443 -5.77443e-10 54.6635C -5.77443e-10 54.6828 -5.77443e-10 54.7212 -5.77443e-10 54.7405C -5.77443e-10 54.7597 -5.77443e-10 54.7982 -5.77443e-10 54.8174C -5.77443e-10 54.8367 -5.77443e-10 54.8752 -5.77443e-10 54.8944C -5.77443e-10 54.9137 -5.77443e-10 54.9521 -5.77443e-10 54.9714C -5.77443e-10 54.9906 -5.77443e-10 55.0291 -5.77443e-10 55.0483C -5.77443e-10 55.0676 -5.77443e-10 55.1061 -5.77443e-10 55.1253C -5.77443e-10 55.1445 -5.77443e-10 55.183 -5.77443e-10 55.2023C -5.77443e-10 55.2215 -5.77443e-10 55.26 -5.77443e-10 55.2792C -5.77443e-10 55.2985 -5.77443e-10 55.337 -5.77443e-10 55.3562C -5.77443e-10 55.3754 -5.77443e-10 55.4139 -5.77443e-10 55.4332C -5.77443e-10 55.4524 -5.77443e-10 55.4909 -5.77443e-10 55.5101C -5.77443e-10 55.5294 -5.77443e-10 55.5678 -5.77443e-10 55.5871C -5.77443e-10 55.6063 -5.77443e-10 55.6448 -5.77443e-10 55.664C -5.77443e-10 55.6833 -5.77443e-10 55.7218 -5.77443e-10 55.741C -5.77443e-10 55.7603 -5.77443e-10 55.7987 -5.77443e-10 55.818C -5.77443e-10 55.8372 -5.77443e-10 55.8757 -5.77443e-10 55.8949C -5.77443e-10 55.9142 -5.77443e-10 55.9527 -5.77443e-10 55.9719C -5.77443e-10 55.9911 -5.77443e-10 56.0296 -5.77443e-10 56.0489C -5.77443e-10 56.0681 -5.77443e-10 56.1066 -5.77443e-10 56.1258C -5.77443e-10 56.1451 -5.77443e-10 56.1836 -5.77443e-10 56.2028C -5.77443e-10 56.222 -5.77443e-10 56.2605 -5.77443e-10 56.2798C -5.77443e-10 56.299 -5.77443e-10 56.3375 -5.77443e-10 56.3567C -5.77443e-10 56.376 -5.77443e-10 56.4144 -5.77443e-10 56.4337C -5.77443e-10 56.4529 -5.77443e-10 56.4914 -5.77443e-10 56.5107C -5.77443e-10 56.5299 -5.77443e-10 56.5684 -5.77443e-10 56.5876C -5.77443e-10 56.6069 -5.77443e-10 56.6453 -5.77443e-10 56.6646C -5.77443e-10 56.6838 -5.77443e-10 56.7223 -5.77443e-10 56.7415C -5.77443e-10 56.7608 -5.77443e-10 56.7993 -5.77443e-10 56.8185C -5.77443e-10 56.8377 -5.77443e-10 56.8762 -5.77443e-10 56.8955C -5.77443e-10 56.9147 -5.77443e-10 56.9532 -5.77443e-10 56.9724C -5.77443e-10 56.9917 -5.77443e-10 57.0302 -5.77443e-10 57.0494C -5.77443e-10 57.0686 -5.77443e-10 57.1071 -5.77443e-10 57.1264C -5.77443e-10 57.1456 -5.77443e-10 57.1841 -5.77443e-10 57.2033C -5.77443e-10 57.2226 -5.77443e-10 57.261 -5.77443e-10 57.2803C -5.77443e-10 57.2995 -5.77443e-10 57.338 -5.77443e-10 57.3573C -5.77443e-10 57.3765 -5.77443e-10 57.415 -5.77443e-10 57.4342C -5.77443e-10 57.4535 -5.77443e-10 57.4919 -5.77443e-10 57.5112C -5.77443e-10 57.5304 -5.77443e-10 57.5689 -5.77443e-10 57.5881C -5.77443e-10 57.6074 -5.77443e-10 57.6459 -5.77443e-10 57.6651C -5.77443e-10 57.6843 -5.77443e-10 57.7228 -5.77443e-10 57.7421C -5.77443e-10 57.7613 -5.77443e-10 57.7998 -5.77443e-10 57.819C -5.77443e-10 57.8383 -5.77443e-10 57.8768 -5.77443e-10 57.896C -5.77443e-10 57.9152 -5.77443e-10 57.9537 -5.77443e-10 57.973C -5.77443e-10 57.9922 -5.77443e-10 58.0307 -5.77443e-10 58.0499C -5.77443e-10 58.0692 -5.77443e-10 58.1076 -5.77443e-10 58.1269C -5.77443e-10 58.1461 -5.77443e-10 58.1846 -5.77443e-10 58.2039C -5.77443e-10 58.2231 -5.77443e-10 58.2616 -5.77443e-10 58.2808C -5.77443e-10 58.3001 -5.77443e-10 58.3385 -5.77443e-10 58.3578C -5.77443e-10 58.377 -5.77443e-10 58.4155 -5.77443e-10 58.4347C -5.77443e-10 58.454 -5.77443e-10 58.4925 -5.77443e-10 58.5117C -5.77443e-10 58.5309 -5.77443e-10 58.5694 -5.77443e-10 58.5887C -5.77443e-10 58.6079 -5.77443e-10 58.6464 -5.77443e-10 58.6656C -5.77443e-10 58.6849 -5.77443e-10 58.7234 -5.77443e-10 58.7426C -5.77443e-10 58.7618 -5.77443e-10 58.8003 -5.77443e-10 58.8196C -5.77443e-10 58.8388 -5.77443e-10 58.8773 -5.77443e-10 58.8965C -5.77443e-10 58.9158 -5.77443e-10 58.9543 -5.77443e-10 58.9735C -5.77443e-10 58.9927 -5.77443e-10 59.0312 -5.77443e-10 59.0505C -5.77443e-10 59.0697 -5.77443e-10 59.1082 -5.77443e-10 59.1274C -5.77443e-10 59.1467 -5.77443e-10 59.1851 -5.77443e-10 59.2044C -5.77443e-10 59.2236 -5.77443e-10 59.2621 -5.77443e-10 59.2813C -5.77443e-10 59.3006 -5.77443e-10 59.3391 -5.77443e-10 59.3583C -5.77443e-10 59.3775 -5.77443e-10 59.416 -5.77443e-10 59.4353C -5.77443e-10 59.4545 -5.77443e-10 59.493 -5.77443e-10 59.5122C -5.77443e-10 59.5315 -5.77443e-10 59.57 -5.77443e-10 59.5892C -5.77443e-10 59.6084 -5.77443e-10 59.6469 -5.77443e-10 59.6662C -5.77443e-10 59.6854 -5.77443e-10 59.7239 -5.77443e-10 59.7431C -5.77443e-10 59.7624 -5.77443e-10 59.8008 -5.77443e-10 59.8201C -5.77443e-10 59.8393 -5.77443e-10 59.8778 -5.77443e-10 59.8971C -5.77443e-10 59.9163 -5.77443e-10 59.9548 -5.77443e-10 59.974C -5.77443e-10 59.9933 -5.77443e-10 60.0317 -5.77443e-10 60.051C -5.77443e-10 60.0702 -5.77443e-10 60.1087 -5.77443e-10 60.1279C -5.77443e-10 60.1472 -5.77443e-10 60.1857 -5.77443e-10 60.2049C -5.77443e-10 60.2242 -5.77443e-10 60.2626 -5.77443e-10 60.2819C -5.77443e-10 60.3011 -5.77443e-10 60.3396 -5.77443e-10 60.3588C -5.77443e-10 60.3781 -5.77443e-10 60.4166 -5.77443e-10 60.4358C -5.77443e-10 60.455 -5.77443e-10 60.4935 -5.77443e-10 60.5128C -5.77443e-10 60.532 -5.77443e-10 60.5705 -5.77443e-10 60.5897C -5.77443e-10 60.609 -5.77443e-10 60.6474 -5.77443e-10 60.6667C -5.77443e-10 60.6859 -5.77443e-10 60.7244 -5.77443e-10 60.7437C -5.77443e-10 60.7629 -5.77443e-10 60.8014 -5.77443e-10 60.8206C -5.77443e-10 60.8399 -5.77443e-10 60.8783 -5.77443e-10 60.8976C -5.77443e-10 60.9168 -5.77443e-10 60.9553 -5.77443e-10 60.9745C -5.77443e-10 60.9938 -5.77443e-10 61.0323 -5.77443e-10 61.0515C -5.77443e-10 61.0708 -5.77443e-10 61.1092 -5.77443e-10 61.1285C -5.77443e-10 61.1477 -5.77443e-10 61.1862 -5.77443e-10 61.2054C -5.77443e-10 61.2247 -5.77443e-10 61.2632 -5.77443e-10 61.2824C -5.77443e-10 61.3016 -5.77443e-10 61.3401 -5.77443e-10 61.3594C -5.77443e-10 61.3786 -5.77443e-10 61.4171 -5.77443e-10 61.4363C -5.77443e-10 61.4556 -5.77443e-10 61.4941 -5.77443e-10 61.5133C -5.77443e-10 61.5325 -5.77443e-10 61.571 -5.77443e-10 61.5903C -5.77443e-10 61.6095 -5.77443e-10 61.648 -5.77443e-10 61.6672C -5.77443e-10 61.6865 -5.77443e-10 61.7249 -5.77443e-10 61.7442C -5.77443e-10 61.7634 -5.77443e-10 61.8019 -5.77443e-10 61.8211C -5.77443e-10 61.8404 -5.77443e-10 61.8789 -5.77443e-10 61.8981C -5.77443e-10 61.9174 -5.77443e-10 61.9558 -5.77443e-10 61.9751C -5.77443e-10 61.9943 -5.77443e-10 62.0328 -5.77443e-10 62.052C -5.77443e-10 62.0713 -5.77443e-10 62.1098 -5.77443e-10 62.129C -5.77443e-10 62.1482 -5.77443e-10 62.1867 -5.77443e-10 62.206C -5.77443e-10 62.2252 -5.77443e-10 62.2637 -5.77443e-10 62.2829C -5.77443e-10 62.3022 -5.77443e-10 62.3407 -5.77443e-10 62.3599C -5.77443e-10 62.3791 -5.77443e-10 62.4176 -5.77443e-10 62.4369C -5.77443e-10 62.4561 -5.77443e-10 62.4946 -5.77443e-10 62.5138C -5.77443e-10 62.5331 -5.77443e-10 62.5715 -5.77443e-10 62.5908C -5.77443e-10 62.61 -5.77443e-10 62.6485 -5.77443e-10 62.6678C -5.77443e-10 62.687 -5.77443e-10 62.7255 -5.77443e-10 62.7447C -5.77443e-10 62.764 -5.77443e-10 62.8024 -5.77443e-10 62.8217C -5.77443e-10 62.8409 -5.77443e-10 62.8794 -5.77443e-10 62.8986C -5.77443e-10 62.9179 -5.77443e-10 62.9564 -5.77443e-10 62.9756C -5.77443e-10 62.9948 -5.77443e-10 63.0333 -5.77443e-10 63.0526C -5.77443e-10 63.0718 -5.77443e-10 63.1103 -5.77443e-10 63.1295C -5.77443e-10 63.1488 -5.77443e-10 63.1873 -5.77443e-10 63.2065C -5.77443e-10 63.2257 -5.77443e-10 63.2642 -5.77443e-10 63.2835C -5.77443e-10 63.3027 -5.77443e-10 63.3412 -5.77443e-10 63.3604C -5.77443e-10 63.3797 -5.77443e-10 63.4182 -5.77443e-10 63.4374C -5.77443e-10 63.4566 -5.77443e-10 63.4951 -5.77443e-10 63.5144C -5.77443e-10 63.5336 -5.77443e-10 63.5721 -5.77443e-10 63.5913C -5.77443e-10 63.6106 -5.77443e-10 63.649 -5.77443e-10 63.6683C -5.77443e-10 63.6875 -5.77443e-10 63.726 -5.77443e-10 63.7452C -5.77443e-10 63.7645 -5.77443e-10 63.803 -5.77443e-10 63.8222C -5.77443e-10 63.8414 -5.77443e-10 63.8799 -5.77443e-10 63.8992C -5.77443e-10 63.9184 -5.77443e-10 63.9569 -5.77443e-10 63.9761C -5.77443e-10 63.9954 -5.77443e-10 64.0339 -5.77443e-10 64.0531C -5.77443e-10 64.0723 -5.77443e-10 64.1108 -5.77443e-10 64.1301C -5.77443e-10 64.1493 -5.77443e-10 64.1878 -5.77443e-10 64.207C -5.77443e-10 64.2263 -5.77443e-10 64.2647 -5.77443e-10 64.284C -5.77443e-10 64.3032 -5.77443e-10 64.3417 -5.77443e-10 64.361C -5.77443e-10 64.3802 -5.77443e-10 64.4187 -5.77443e-10 64.4379C -5.77443e-10 64.4572 -5.77443e-10 64.4956 -5.77443e-10 64.5149C -5.77443e-10 64.5341 -5.77443e-10 64.5726 -5.77443e-10 64.5919C -5.77443e-10 64.6111 -5.77443e-10 64.6496 -5.77443e-10 64.6688C -5.77443e-10 64.688 -5.77443e-10 64.7265 -5.77443e-10 64.7458C -5.77443e-10 64.765 -5.77443e-10 64.8035 -5.77443e-10 64.8227C -5.77443e-10 64.842 -5.77443e-10 64.8805 -5.77443e-10 64.8997C -5.77443e-10 64.9189 -5.77443e-10 64.9574 -5.77443e-10 64.9767C -5.77443e-10 64.9959 -5.77443e-10 65.0344 -5.77443e-10 65.0536C -5.77443e-10 65.0729 -5.77443e-10 65.1114 -5.77443e-10 65.1306C -5.77443e-10 65.1498 -5.77443e-10 65.1883 -5.77443e-10 65.2076C -5.77443e-10 65.2268 -5.77443e-10 65.2653 -5.77443e-10 65.2845C -5.77443e-10 65.3038 -5.77443e-10 65.3422 -5.77443e-10 65.3615C -5.77443e-10 65.3807 -5.77443e-10 65.4192 -5.77443e-10 65.4384C -5.77443e-10 65.4577 -5.77443e-10 65.4962 -5.77443e-10 65.5154C -5.77443e-10 65.5347 -5.77443e-10 65.5731 -5.77443e-10 65.5924C -5.77443e-10 65.6116 -5.77443e-10 65.6501 -5.77443e-10 65.6693C -5.77443e-10 65.6886 -5.77443e-10 65.7271 -5.77443e-10 65.7463C -5.77443e-10 65.7655 -5.77443e-10 65.804 -5.77443e-10 65.8233C -5.77443e-10 65.8425 -5.77443e-10 65.881 -5.77443e-10 65.9002C -5.77443e-10 65.9195 -5.77443e-10 65.958 -5.77443e-10 65.9772C -5.77443e-10 65.9964 -5.77443e-10 66.0349 -5.77443e-10 66.0542C -5.77443e-10 66.0734 -5.77443e-10 66.1119 -5.77443e-10 66.1311C -5.77443e-10 66.1504 -5.77443e-10 66.1888 -5.77443e-10 66.2081C -5.77443e-10 66.2273 -5.77443e-10 66.2658 -5.77443e-10 66.285C -5.77443e-10 66.3043 -5.77443e-10 66.3428 -5.77443e-10 66.362C -5.77443e-10 66.3812 -5.77443e-10 66.4197 -5.77443e-10 66.439C -5.77443e-10 66.4582 -5.77443e-10 66.4967 -5.77443e-10 66.5159C -5.77443e-10 66.5352 -5.77443e-10 66.5737 -5.77443e-10 66.5929C -5.77443e-10 66.6121 -5.77443e-10 66.6506 -5.77443e-10 66.6699C -5.77443e-10 66.6891 -5.77443e-10 66.7276 -5.77443e-10 66.7468C -5.77443e-10 66.7661 -5.77443e-10 66.8046 -5.77443e-10 66.8238C -5.77443e-10 66.843 -5.77443e-10 66.8815 -5.77443e-10 66.9008C -5.77443e-10 66.92 -5.77443e-10 66.9585 -5.77443e-10 66.9777C -5.77443e-10 66.997 -5.77443e-10 67.0354 -5.77443e-10 67.0547C -5.77443e-10 67.0739 -5.77443e-10 67.1124 -5.77443e-10 67.1316C -5.77443e-10 67.1509 -5.77443e-10 67.1894 -5.77443e-10 67.2086C -5.77443e-10 67.2279 -5.77443e-10 67.2663 -5.77443e-10 67.2856C -5.77443e-10 67.3048 -5.77443e-10 67.3433 -5.77443e-10 67.3625C -5.77443e-10 67.3818 -5.77443e-10 67.4203 -5.77443e-10 67.4395C -5.77443e-10 67.4587 -5.77443e-10 67.4972 -5.77443e-10 67.5165C -5.77443e-10 67.5357 -5.77443e-10 67.5742 -5.77443e-10 67.5934C -5.77443e-10 67.6127 -5.77443e-10 67.6512 -5.77443e-10 67.6704C -5.77443e-10 67.6896 -5.77443e-10 67.7281 -5.77443e-10 67.7474C -5.77443e-10 67.7666 -5.77443e-10 67.8051 -5.77443e-10 67.8243C -5.77443e-10 67.8436 -5.77443e-10 67.882 -5.77443e-10 67.9013C -5.77443e-10 67.9205 -5.77443e-10 67.959 -5.77443e-10 67.9782C -5.77443e-10 67.9975 -5.77443e-10 68.036 -5.77443e-10 68.0552C -5.77443e-10 68.0745 -5.77443e-10 68.1129 -5.77443e-10 68.1322C -5.77443e-10 68.1514 -5.77443e-10 68.1899 -5.77443e-10 68.2091C -5.77443e-10 68.2284 -5.77443e-10 68.2669 -5.77443e-10 68.2861C -5.77443e-10 68.3053 -5.77443e-10 68.3438 -5.77443e-10 68.3631C -5.77443e-10 68.3823 -5.77443e-10 68.4208 -5.77443e-10 68.44C -5.77443e-10 68.4593 -5.77443e-10 68.4978 -5.77443e-10 68.517C -5.77443e-10 68.5362 -5.77443e-10 68.5747 -5.77443e-10 68.594C -5.77443e-10 68.6132 -5.77443e-10 68.6517 -5.77443e-10 68.6709C -5.77443e-10 68.6902 -5.77443e-10 68.7286 -5.77443e-10 68.7479C -5.77443e-10 68.7671 -5.77443e-10 68.8056 -5.77443e-10 68.8249C -5.77443e-10 68.8441 -5.77443e-10 68.8826 -5.77443e-10 68.9018C -5.77443e-10 68.9211 -5.77443e-10 68.9595 -5.77443e-10 68.9788C -5.77443e-10 68.998 -5.77443e-10 69.0365 -5.77443e-10 69.0557C -5.77443e-10 69.075 -5.77443e-10 69.1135 -5.77443e-10 69.1327C -5.77443e-10 69.1519 -5.77443e-10 69.1904 -5.77443e-10 69.2097C -5.77443e-10 69.2289 -5.77443e-10 69.2674 -5.77443e-10 69.2866C -5.77443e-10 69.3059 -5.77443e-10 69.3444 -5.77443e-10 69.3636C -5.77443e-10 69.3828 -5.77443e-10 69.4213 -5.77443e-10 69.4406C -5.77443e-10 69.4598 -5.77443e-10 69.4983 -5.77443e-10 69.5175C -5.77443e-10 69.5368 -5.77443e-10 69.5752 -5.77443e-10 69.5945C -5.77443e-10 69.6137 -5.77443e-10 69.6522 -5.77443e-10 69.6715C -5.77443e-10 69.6907 -5.77443e-10 69.7292 -5.77443e-10 69.7484C -5.77443e-10 69.7677 -5.77443e-10 69.8061 -5.77443e-10 69.8254C -5.77443e-10 69.8446 -5.77443e-10 69.8831 -5.77443e-10 69.9023C -5.77443e-10 69.9216 -5.77443e-10 69.9601 -5.77443e-10 69.9793C -5.77443e-10 69.9986 -5.77443e-10 70.037 -5.77443e-10 70.0563C -5.77443e-10 70.0755 -5.77443e-10 70.114 -5.77443e-10 70.1332C -5.77443e-10 70.1525 -5.77443e-10 70.191 -5.77443e-10 70.2102C -5.77443e-10 70.2294 -5.77443e-10 70.2679 -5.77443e-10 70.2872C -5.77443e-10 70.3064 -5.77443e-10 70.3449 -5.77443e-10 70.3641C -5.77443e-10 70.3834 -5.77443e-10 70.4219 -5.77443e-10 70.4411C -5.77443e-10 70.4603 -5.77443e-10 70.4988 -5.77443e-10 70.5181C -5.77443e-10 70.5373 -5.77443e-10 70.5758 -5.77443e-10 70.595C -5.77443e-10 70.6143 -5.77443e-10 70.6527 -5.77443e-10 70.672C -5.77443e-10 70.6912 -5.77443e-10 70.7297 -5.77443e-10 70.7489C -5.77443e-10 70.7682 -5.77443e-10 70.8067 -5.77443e-10 70.8259C -5.77443e-10 70.8452 -5.77443e-10 70.8836 -5.77443e-10 70.9029C -5.77443e-10 70.9221 -5.77443e-10 70.9606 -5.77443e-10 70.9798C -5.77443e-10 70.9991 -5.77443e-10 71.0376 -5.77443e-10 71.0568C -5.77443e-10 71.076 -5.77443e-10 71.1145 -5.77443e-10 71.1338C -5.77443e-10 71.153 -5.77443e-10 71.1915 -5.77443e-10 71.2107C -5.77443e-10 71.23 -5.77443e-10 71.2685 -5.77443e-10 71.2877C -5.77443e-10 71.3069 -5.77443e-10 71.3454 -5.77443e-10 71.3647C -5.77443e-10 71.3839 -5.77443e-10 71.4224 -5.77443e-10 71.4416C -5.77443e-10 71.4609 -5.77443e-10 71.4993 -5.77443e-10 71.5186C -5.77443e-10 71.5378 -5.77443e-10 71.5763 -5.77443e-10 71.5956C -5.77443e-10 71.6148 -5.77443e-10 71.6533 -5.77443e-10 71.6725C -5.77443e-10 71.6917 -5.77443e-10 71.7302 -5.77443e-10 71.7495C -5.77443e-10 71.7687 -5.77443e-10 71.8072 -5.77443e-10 71.8264C -5.77443e-10 71.8457 -5.77443e-10 71.8842 -5.77443e-10 71.9034C -5.77443e-10 71.9226 -5.77443e-10 71.9611 -5.77443e-10 71.9804C -5.77443e-10 71.9996 -5.77443e-10 72.0381 -5.77443e-10 72.0573C -5.77443e-10 72.0766 -5.77443e-10 72.1151 -5.77443e-10 72.1343C -5.77443e-10 72.1535 -5.77443e-10 72.192 -5.77443e-10 72.2113C -5.77446e-10 81.851 3.54575 87.3539 3.54575 87.3539C 3.54575 87.3539 7.55651 98.8407 34.2562 108.307C 46.0947 112.502 60.3746 113.233 71.5737 112.944C 81.2616 112.694 90.8719 111.27 100.23 108.75L 129.933 100.726L 162 92.0679L 162 70.4026L 146.441 50.9885Z" fill="#FEA729"/>
</g>
<g id="Vector_2">
<path d="M 3.8045 33.537C 4.50202 34.422 5.27705 35.2302 6.1102 35.9613C 10.4697 32.7096 15.5462 31.1318 15.5462 31.1318L 51.0811 21.6845L 51.0811 0L 15.5462 9.4473C 15.5655 9.4473 -9.27408 17.1629 3.8045 33.537Z" transform="translate(37.0781 27.9956)" fill="#C58220"/>
</g>
<g id="Vector_3">
<path d="M 129.896 48.4487L 129.896 26.7642L 100.193 34.7876C 90.8344 37.3082 81.2241 38.732 71.5362 38.9822C 60.3371 39.2708 46.0572 38.5396 34.2187 34.3451C 7.519 24.8593 3.50824 13.3725 3.50824 13.3725C 3.50824 13.3725 -0.0762638 7.81182 0.00123893 -2.34875e-06C 0.00123893 0.0577205 0.00123893 0.134685 0.00123893 0.211649C 0.00123893 0.23089 0.00123893 0.269371 0.00123893 0.288612C 0.00123893 0.307853 0.00123893 0.346339 0.00123893 0.36558C 0.00123893 0.384821 0.00123893 0.423302 0.00123893 0.442543C 0.00123893 0.461784 0.00123893 0.500265 0.00123893 0.519506C 0.00123893 0.538746 0.00123893 0.577227 0.00123893 0.596468C 0.00123893 0.615709 0.00123893 0.65419 0.00123893 0.673431C 0.00123893 0.692672 0.00123893 0.731158 0.00123893 0.750399C 0.00123893 0.76964 0.00123893 0.808121 0.00123893 0.827362C 0.00123893 0.846603 0.00123893 0.885083 0.00123893 0.904324C 0.00123893 0.923565 0.00123893 0.962046 0.00123893 0.981287C 0.00123893 1.00053 0.00123893 1.03901 0.00123893 1.05825C 0.00123893 1.07749 0.00123893 1.11598 0.00123893 1.13522C 0.00123893 1.15446 0.00123893 1.19294 0.00123893 1.21218C 0.00123893 1.23142 0.00123893 1.2699 0.00123893 1.28914C 0.00123893 1.30838 0.00123893 1.34686 0.00123893 1.36611C 0.00123893 1.38535 0.00123893 1.42383 0.00123893 1.44307C 0.00123893 1.46231 0.00123893 1.5008 0.00123893 1.52004C 0.00123893 1.53928 0.00123893 1.57776 0.00123893 1.597C 0.00123893 1.61624 0.00123893 1.65472 0.00123893 1.67396C 0.00123893 1.6932 0.00123893 1.73168 0.00123893 1.75092C 0.00123893 1.77017 0.00123893 1.80865 0.00123893 1.82789C 0.00123893 1.84713 0.00123893 1.88561 0.00123893 1.90486C 0.00123893 1.9241 0.00123893 1.96258 0.00123893 1.98182C 0.00123893 2.00106 0.00123893 2.03954 0.00123893 2.05878C 0.00123893 2.07802 0.00123893 2.1165 0.00123893 2.13574C 0.00123893 2.15498 0.00123893 2.19347 0.00123893 2.21271C 0.00123893 2.23195 0.00123893 2.27043 0.00123893 2.28967C 0.00123893 2.30892 0.00123893 2.3474 0.00123893 2.36664C 0.00123893 2.38588 0.00123893 2.42436 0.00123893 2.4436C 0.00123893 2.46284 0.00123893 2.50132 0.00123893 2.52056C 0.00123893 2.5398 0.00123893 2.57828 0.00123893 2.59752C 0.00123893 2.61677 0.00123893 2.65525 0.00123893 2.67449C 0.00123893 2.69373 0.00123893 2.73222 0.00123893 2.75146C 0.00123893 2.7707 0.00123893 2.80918 0.00123893 2.82842C 0.00123893 2.84766 0.00123893 2.88614 0.00123893 2.90538C 0.00123893 2.92462 0.00123893 2.9631 0.00123893 2.98234C 0.00123893 3.00158 0.00123893 3.04007 0.00123893 3.05931C 0.00123893 3.07855 0.00123893 3.11703 0.00123893 3.13628C 0.00123893 3.15552 0.00123893 3.194 0.00123893 3.21324C 0.00123893 3.23248 0.00123893 3.27096 0.00123893 3.2902C 0.00123893 3.30944 0.00123893 3.34792 0.00123893 3.36716C 0.00123893 3.3864 0.00123893 3.42489 0.00123893 3.44413C 0.00123893 3.46337 0.00123893 3.50185 0.00123893 3.52109C 0.00123893 3.54033 0.00123893 3.57882 0.00123893 3.59806C 0.00123893 3.6173 0.00123893 3.65578 0.00123893 3.67502C 0.00123893 3.69426 0.00123893 3.73274 0.00123893 3.75198C 0.00123893 3.77122 0.00123893 3.80971 0.00123893 3.82895C 0.00123893 3.84819 0.00123893 3.88667 0.00123893 3.90591C 0.00123893 3.92515 0.00123893 3.96363 0.00123893 3.98288C 0.00123893 4.00212 0.00123893 4.0406 0.00123893 4.05984C 0.00123893 4.07908 0.00123893 4.11756 0.00123893 4.1368C 0.00123893 4.15604 0.00123893 4.19453 0.00123893 4.21377C 0.00123893 4.23301 0.00123893 4.27149 0.00123893 4.29073C 0.00123893 4.30997 0.00123893 4.34845 0.00123893 4.36769C 0.00123893 4.38694 0.00123893 4.42542 0.00123893 4.44466C 0.00123893 4.4639 0.00123893 4.50238 0.00123893 4.52162C 0.00123893 4.54086 0.00123893 4.57935 0.00123893 4.59859C 0.00123893 4.61783 0.00123893 4.65631 0.00123893 4.67555C 0.00123893 4.69479 0.00123893 4.73327 0.00123893 4.75251C 0.00123893 4.77175 0.00123893 4.81024 0.00123893 4.82948C 0.00123893 4.84872 0.00123893 4.8872 0.00123893 4.90644C 0.00123893 4.92568 0.00123893 4.96417 0.00123893 4.98341C 0.00123893 5.00265 0.00123893 5.04113 0.00123893 5.06037C 0.00123893 5.07961 0.00123893 5.11809 0.00123893 5.13733C 0.00123893 5.15657 0.00123893 5.19505 0.00123893 5.21429C 0.00123893 5.23354 0.00123893 5.27202 0.00123893 5.29126C 0.00123893 5.3105 0.00123893 5.34898 0.00123893 5.36823C 0.00123893 5.38747 0.00123893 5.42595 0.00123893 5.44519C 0.00123893 5.46443 0.00123893 5.50291 0.00123893 5.52215C 0.00123893 5.54139 0.00123893 5.57987 0.00123893 5.59911C 0.00123893 5.61835 0.00123893 5.65684 0.00123893 5.67608C 0.00123893 5.69532 0.00123893 5.7338 0.00123893 5.75304C 0.00123893 5.77229 0.00123893 5.81077 0.00123893 5.83001C 0.00123893 5.84925 0.00123893 5.88773 0.00123893 5.90697C 0.00123893 5.92621 0.00123893 5.96469 0.00123893 5.98393C 0.00123893 6.00317 0.00123893 6.04165 0.00123893 6.06089C 0.00123893 6.08014 0.00123893 6.11862 0.00123893 6.13786C 0.00123893 6.1571 0.00123893 6.19559 0.00123893 6.21483C 0.00123893 6.23407 0.00123893 6.27255 0.00123893 6.29179C 0.00123893 6.31103 0.00123893 6.34951 0.00123893 6.36875C 0.00123893 6.38799 0.00123893 6.42647 0.00123893 6.44571C 0.00123893 6.46495 0.00123893 6.50344 0.00123893 6.52268C 0.00123893 6.54192 0.00123893 6.5804 0.00123893 6.59964C 0.00123893 6.61889 0.00123893 6.65737 0.00123893 6.67661C 0.00123893 6.69585 0.00123893 6.73433 0.00123893 6.75357C 0.00123893 6.77281 0.00123893 6.81129 0.00123893 6.83053C 0.00123893 6.84977 0.00123893 6.88826 0.00123893 6.9075C 0.00123893 6.92674 0.00123893 6.96522 0.00123893 6.98446C 0.00123893 7.0037 0.00123893 7.04219 0.00123893 7.06143C 0.00123893 7.08067 0.00123893 7.11915 0.00123893 7.13839C 0.00123893 7.15763 0.00123893 7.19611 0.00123893 7.21535C 0.00123893 7.23459 0.00123893 7.27308 0.00123893 7.29232C 0.00123893 7.31156 0.00123893 7.35004 0.00123893 7.36928C 0.00123893 7.38852 0.00123893 7.427 0.00123893 7.44625C 0.00123893 7.46549 0.00123893 7.50397 0.00123893 7.52321C 0.00123893 7.54245 0.00123893 7.58093 0.00123893 7.60017C 0.00123893 7.61941 0.00123893 7.6579 0.00123893 7.67714C 0.00123893 7.69638 0.00123893 7.73486 0.00123893 7.7541C 0.00123893 7.77334 0.00123893 7.81182 0.00123893 7.83106C 0.00123893 7.85031 0.00123893 7.88879 0.00123893 7.90803C 0.00123893 7.92727 0.00123893 7.96575 0.00123893 7.98499C 0.00123893 8.00423 0.00123893 8.04272 0.00123893 8.06196C 0.00123893 8.0812 0.00123893 8.11968 0.00123893 8.13892C 0.00123893 8.15816 0.00123893 8.19664 0.00123893 8.21588C 0.00123893 8.23512 0.00123893 8.2736 0.00123893 8.29285C 0.00123893 8.31209 0.00123893 8.35057 0.00123893 8.36981C 0.00123893 8.38905 0.00123893 8.42754 0.00123893 8.44678C 0.00123893 8.46602 0.00123893 8.5045 0.00123893 8.52374C 0.00123893 8.54298 0.00123893 8.58146 0.00123893 8.6007C 0.00123893 8.61994 0.00123893 8.65842 0.00123893 8.67766C 0.00123893 8.69691 0.00123893 8.73539 0.00123893 8.75463C 0.00123893 8.77387 0.00123893 8.81235 0.00123893 8.8316C 0.00123893 8.85084 0.00123893 8.88932 0.00123893 8.90856C 0.00123893 8.9278 0.00123893 8.96628 0.00123893 8.98552C 0.00123893 9.00476 0.00123893 9.04324 0.00123893 9.06248C 0.00123893 9.08172 0.00123893 9.1202 0.00123893 9.13945C 0.00123893 9.15869 0.00123893 9.19717 0.00123893 9.21641C 0.00123893 9.23566 0.00123893 9.27414 0.00123893 9.29338C 0.00123893 9.31262 0.00123893 9.3511 0.00123893 9.37034C 0.00123893 9.38958 0.00123893 9.42806 0.00123893 9.4473C 0.00123893 9.46654 0.00123893 9.50502 0.00123893 9.52426C 0.00123893 9.54351 0.00123893 9.58199 0.00123893 9.60123C 0.00123893 9.62047 0.00123893 9.65895 0.00123893 9.6782C 0.00123893 9.69744 0.00123893 9.73592 0.00123893 9.75516C 0.00123893 9.7744 0.00123893 9.81288 0.00123893 9.83212C 0.00123893 9.85136 0.00123893 9.88984 0.00123893 9.90908C 0.00123893 9.92832 0.00123893 9.96681 0.00123893 9.98605C 0.00123893 10.0053 0.00123893 10.0438 0.00123893 10.063C 0.00123893 10.0823 0.00123893 10.1207 0.00123893 10.14C 0.00123893 10.1592 0.00123893 10.1977 0.00123893 10.2169C 0.00123893 10.2362 0.00123893 10.2747 0.00123893 10.2939C 0.00123893 10.3131 0.00123893 10.3516 0.00123893 10.3709C 0.00123893 10.3901 0.00123893 10.4286 0.00123893 10.4478C 0.00123893 10.4671 0.00123893 10.5056 0.00123893 10.5248C 0.00123893 10.544 0.00123893 10.5825 0.00123893 10.6018C 0.00123893 10.621 0.00123893 10.6595 0.00123893 10.6787C 0.00123893 10.698 0.00123893 10.7364 0.00123893 10.7557C 0.00123893 10.7749 0.00123893 10.8134 0.00123893 10.8327C 0.00123893 10.8519 0.00123893 10.8904 0.00123893 10.9096C 0.00123893 10.9289 0.00123893 10.9673 0.00123893 10.9866C 0.00123893 11.0058 0.00123893 11.0443 0.00123893 11.0635C 0.00123893 11.0828 0.00123893 11.1213 0.00123893 11.1405C 0.00123893 11.1597 0.00123893 11.1982 0.00123893 11.2175C 0.00123893 11.2367 0.00123893 11.2752 0.00123893 11.2944C 0.00123893 11.3137 0.00123893 11.3522 0.00123893 11.3714C 0.00123893 11.3906 0.00123893 11.4291 0.00123893 11.4484C 0.00123893 11.4676 0.00123893 11.5061 0.00123893 11.5253C 0.00123893 11.5446 0.00123893 11.583 0.00123893 11.6023C 0.00123893 11.6215 0.00123893 11.66 0.00123893 11.6793C 0.00123893 11.6985 0.00123893 11.737 0.00123893 11.7562C 0.00123893 11.7755 0.00123893 11.8139 0.00123893 11.8332C 0.00123893 11.8524 0.00123893 11.8909 0.00123893 11.9101C 0.00123893 11.9294 0.00123893 11.9679 0.00123893 11.9871C 0.00123893 12.0063 0.00123893 12.0448 0.00123893 12.0641C 0.00123893 12.0833 0.00123893 12.1218 0.00123893 12.141C 0.00123893 12.1603 0.00123893 12.1988 0.00123893 12.218C 0.00123893 12.2372 0.00123893 12.2757 0.00123893 12.295C 0.00123893 12.3142 0.00123893 12.3527 0.00123893 12.3719C 0.00123893 12.3912 0.00123893 12.4296 0.00123893 12.4489C 0.00123893 12.4681 0.00123893 12.5066 0.00123893 12.5259C 0.00123893 12.5451 0.00123893 12.5836 0.00123893 12.6028C 0.00123893 12.6221 0.00123893 12.6605 0.00123893 12.6798C 0.00123893 12.699 0.00123893 12.7375 0.00123893 12.7567C 0.00123893 12.776 0.00123893 12.8145 0.00123893 12.8337C 0.00123893 12.8529 0.00123893 12.8914 0.00123893 12.9107C 0.00123893 12.9299 0.00123893 12.9684 0.00123893 12.9876C 0.00123893 13.0069 0.00123893 13.0454 0.00123893 13.0646C 0.00123893 13.0838 0.00123893 13.1223 0.00123893 13.1416C 0.00123893 13.1608 0.00123893 13.1993 0.00123893 13.2185C 0.00123893 13.2378 0.00123893 13.2762 0.00123893 13.2955C 0.00123893 13.3147 0.00123893 13.3532 0.00123893 13.3725C 0.00123893 13.3917 0.00123893 13.4302 0.00123893 13.4494C 0.00123893 13.4687 0.00123893 13.5071 0.00123893 13.5264C 0.00123893 13.5456 0.00123893 13.5841 0.00123893 13.6033C 0.00123893 13.6226 0.00123893 13.6611 0.00123893 13.6803C 0.00123893 13.6995 0.00123893 13.738 0.00123893 13.7573C 0.00123893 13.7765 0.00123893 13.815 0.00123893 13.8342C 0.00123893 13.8535 0.00123893 13.892 0.00123893 13.9112C 0.00123893 13.9304 0.00123893 13.9689 0.00123893 13.9882C 0.00123893 14.0074 0.00123893 14.0459 0.00123893 14.0651C 0.00123893 14.0844 0.00123893 14.1228 0.00123893 14.1421C 0.00123893 14.1613 0.00123893 14.1998 0.00123893 14.2191C 0.00123893 14.2383 0.00123893 14.2768 0.00123893 14.296C 0.00123893 14.3153 0.00123893 14.3537 0.00123893 14.373C 0.00123893 14.3922 0.00123893 14.4307 0.00123893 14.4499C 0.00123893 14.4692 0.00123893 14.5077 0.00123893 14.5269C 0.00123893 14.5462 0.00123893 14.5846 0.00123893 14.6039C 0.00123893 14.6231 0.00123893 14.6616 0.00123893 14.6808C 0.00123893 14.7001 0.00123893 14.7386 0.00123893 14.7578C 0.00123893 14.777 0.00123893 14.8155 0.00123893 14.8348C 0.00123893 14.854 0.00123893 14.8925 0.00123893 14.9117C 0.00123893 14.931 0.00123893 14.9695 0.00123893 14.9887C 0.00123893 15.0079 0.00123893 15.0464 0.00123893 15.0657C 0.00123893 15.0849 0.00123893 15.1234 0.00123893 15.1426C 0.00123893 15.1619 0.00123893 15.2003 0.00123893 15.2196C 0.00123893 15.2388 0.00123893 15.2773 0.00123893 15.2965C 0.00123893 15.3158 0.00123893 15.3543 0.00123893 15.3735C 0.00123893 15.3928 0.00123893 15.4312 0.00123893 15.4505C 0.00123893 15.4697 0.00123893 15.5082 0.00123893 15.5274C 0.00123893 15.5467 0.00123893 15.5852 0.00123893 15.6044C 0.00123893 15.6236 0.00123893 15.6621 0.00123893 15.6814C 0.00123893 15.7006 0.00123893 15.7391 0.00123893 15.7583C 0.00123893 15.7776 0.00123893 15.8161 0.00123893 15.8353C 0.00123893 15.8545 0.00123893 15.893 0.00123893 15.9123C 0.00123893 15.9315 0.00123893 15.97 0.00123893 15.9892C 0.00123893 16.0085 0.00123893 16.0469 0.00123893 16.0662C 0.00123893 16.0854 0.00123893 16.1239 0.00123893 16.1432C 0.00123893 16.1624 0.00123893 16.2009 0.00123893 16.2201C 0.00123893 16.2394 0.00123893 16.2778 0.00123893 16.2971C 0.00123893 16.3163 0.00123893 16.3548 0.00123893 16.374C 0.00123893 16.3933 0.00123893 16.4318 0.00123893 16.451C 0.00123893 16.4702 0.00123893 16.5087 0.00123893 16.528C 0.00123893 16.5472 0.00123893 16.5857 0.00123893 16.6049C 0.00123893 16.6242 0.00123893 16.6627 0.00123893 16.6819C 0.00123893 16.7011 0.00123893 16.7396 0.00123893 16.7589C 0.00123893 16.7781 0.00123893 16.8166 0.00123893 16.8358C 0.00123893 16.8551 0.00123893 16.8936 0.00123893 16.9128C 0.00123893 16.932 0.00123893 16.9705 0.00123893 16.9898C 0.00123893 17.009 0.00123893 17.0475 0.00123893 17.0667C 0.00123893 17.086 0.00123893 17.1244 0.00123893 17.1437C 0.00123893 17.1629 0.00123893 17.2014 0.00123893 17.2206C 0.00123893 17.2399 0.00123893 17.2784 0.00123893 17.2976C 0.00123893 17.3169 0.00123893 17.3553 0.00123893 17.3746C 0.00123893 17.3938 0.00123893 17.4323 0.00123893 17.4515C 0.00123893 17.4708 0.00123893 17.5093 0.00123893 17.5285C 0.00123893 17.5477 0.00123893 17.5862 0.00123893 17.6055C 0.00123893 17.6247 0.00123893 17.6632 0.00123893 17.6824C 0.00123893 17.7017 0.00123893 17.7402 0.00123893 17.7594C 0.00123893 17.7786 0.00123893 17.8171 0.00123893 17.8364C 0.00123893 17.8556 0.00123893 17.8941 0.00123893 17.9133C 0.00123893 17.9326 0.00123893 17.971 0.00123893 17.9903C 0.00123893 18.0095 0.00123893 18.048 0.00123893 18.0672C 0.00123893 18.0865 0.00123893 18.125 0.00123893 18.1442C 0.00123893 18.1635 0.00123893 18.2019 0.00123893 18.2212C 0.00123893 18.2404 0.00123893 18.2789 0.00123893 18.2981C 0.00123893 18.3174 0.00123893 18.3559 0.00123893 18.3751C 0.00123893 18.3943 0.00123893 18.4328 0.00123893 18.4521C 0.00123893 18.4713 0.00123893 18.5098 0.00123893 18.529C 0.00123893 18.5483 0.00123893 18.5868 0.00123893 18.606C 0.00123893 18.6252 0.00123893 18.6637 0.00123893 18.683C 0.00123893 18.7022 0.00123893 18.7407 0.00123893 18.7599C 0.00123893 18.7792 0.00123893 18.8176 0.00123893 18.8369C 0.00123893 18.8561 0.00123893 18.8946 0.00123893 18.9138C 0.00123893 18.9331 0.00123893 18.9716 0.00123893 18.9908C 0.00123893 19.0101 0.00123893 19.0485 0.00123893 19.0678C 0.00123893 19.087 0.00123893 19.1255 0.00123893 19.1447C 0.00123893 19.164 0.00123893 19.2025 0.00123893 19.2217C 0.00123893 19.2409 0.00123893 19.2794 0.00123893 19.2987C 0.00123893 19.3179 0.00123893 19.3564 0.00123893 19.3756C 0.00123893 19.3949 0.00123893 19.4334 0.00123893 19.4526C 0.00123893 19.4718 0.00123893 19.5103 0.00123893 19.5296C 0.00123893 19.5488 0.00123893 19.5873 0.00123893 19.6065C 0.00123893 19.6258 0.00123893 19.6642 0.00123893 19.6835C 0.00123893 19.7027 0.00123893 19.7412 0.00123893 19.7604C 0.00123893 19.7797 0.00123893 19.8182 0.00123893 19.8374C 0.00123893 19.8567 0.00123893 19.8951 0.00123893 19.9144C -0.0375124 29.5541 3.50824 35.057 3.50824 35.057C 3.50824 35.057 7.519 46.5438 34.2187 56.0104C 46.0572 60.2049 60.3371 60.9361 71.5362 60.6475C 81.2241 60.3973 90.8344 58.9735 100.193 56.4529L 129.896 48.4487Z" transform="translate(0.0380859 52.2969)" fill="#C58220"/>
</g>
<g id="Vector_4">
<path d="M 15.6943 49.7571L 15.6943 28.0725L 4.73039e-06 8.87008L 32.2024 0L 47.7417 19.4141L 47.7417 41.0987L 15.6943 49.7571Z" transform="translate(114.239 50.9885)" fill="#D5E1E8"/>
</g>
<g id="Vector_5">
<path d="M 32.0474 -1.17437e-06L 4.73039e-06 8.65842L 4.73039e-06 30.343L 32.0474 21.6845L 32.0474 -1.17437e-06Z" transform="translate(129.934 70.4027)" fill="#A8BAC3"/>
</g>
<g id="Vector_6">
<path d="M -2.36519e-06 8.54298L 15.9074 27.9956L 15.9074 49.6801L 47.6448 41.2333L 47.6448 19.5488L 31.718 0L -2.36519e-06 8.54298Z" transform="translate(72.2715 0)" fill="#D5E1E8"/>
</g>
<g id="Vector_7">
<path d="M 31.7374 -2.93594e-07L -1.1826e-06 8.44677L -1.1826e-06 30.1313L 31.7374 21.6845L 31.7374 -2.93594e-07Z" transform="translate(88.1787 19.5487)" fill="#A8BAC3"/>
</g>
</g>
</g>
</g>
</svg>

