<svg width="31" height="32" viewBox="0 0 31 32" version="1.1" xmlns="http://www.w3.org/2000/svg" xmlns:xlink="http://www.w3.org/1999/xlink">
<g id="Canvas" fill="none">
<g id="Vector">
<path d="M 24.3534 10.3414L 29.5057 10.3422C 30.2536 10.2609 30.8352 9.69101 30.9181 8.95824L 31 1.38615C 30.9168 0.653351 30.335 0.0833157 29.5871 0.00177658L 24.4348 0.0009598L 24.3534 10.3414Z" fill="#FEA729"/>
<path d="M 24.3574 31.9992L 29.5096 32C 30.2575 31.9187 30.8391 31.3488 30.9221 30.6161L 30.9208 22.9625C 30.8376 22.2297 30.2558 21.6597 29.5079 21.5782L 24.3557 21.5774L 24.3574 31.9992Z" fill="#FEA729"/>
<path d="M 23.3601 31.9994L 23.3584 21.7404L 15.8794 21.7393C 12.6385 21.4945 10.3112 18.7258 10.56 15.5505C 10.8088 12.7008 13.0521 10.5028 15.8775 10.3404L 23.3566 10.3416L 23.2718 0.00115891L 15.9589 0C 6.9841 0.161418 -0.244434 7.4067 0.00633308 16.2816C 0.173958 24.9122 7.23863 31.834 16.0473 31.9983L 23.3601 31.9994Z" fill="#FEA729"/>
</g>
</g>
</svg>

