<svg width="196" height="150" viewBox="0 0 196 150" version="1.1" xmlns="http://www.w3.org/2000/svg" xmlns:xlink="http://www.w3.org/1999/xlink">
<g id="Canvas" fill="none">
<g id="Group 3" filter="url(#filter0_d)">
<g id="Group 2.11">
<g id="Group 2.2">
<g id="Vector">
<path d="M 154.957 45.4609C 155.15 43.7143 154.087 41.9677 151.767 40.6092L 85.0667 1.89218C 80.8133 -0.630728 73.8533 -0.630728 69.6 1.89218L 3.19 40.6092C 1.06333 41.8706 0 43.4232 0 45.0728L 0 64.8679C 0 66.5175 1.06333 68.1671 3.19 69.4286L 69.89 108.146C 70.3733 108.437 70.8567 108.631 71.34 108.825L 71.4367 108.825C 71.4367 108.825 71.4367 108.825 71.5333 108.825C 71.92 109.019 72.3067 109.116 72.6933 109.213L 72.79 109.213C 72.8867 109.213 72.9833 109.213 73.08 109.31C 73.2733 109.407 73.5633 109.407 73.7567 109.504C 73.8533 109.504 73.8533 109.504 73.95 109.504C 74.0467 109.504 74.1433 109.504 74.24 109.504C 74.4333 109.504 74.6267 109.601 74.82 109.601C 74.9167 109.601 75.0133 109.601 75.0133 109.601C 75.11 109.601 75.2067 109.601 75.3033 109.601C 75.4967 109.601 75.69 109.601 75.8833 109.698C 75.98 109.698 76.0767 109.698 76.1733 109.698C 76.27 109.698 76.3667 109.698 76.4633 109.698C 76.6567 109.698 76.85 109.698 77.0433 109.698C 77.14 109.698 77.2367 109.698 77.3333 109.698C 77.43 109.698 77.5267 109.698 77.5267 109.698C 77.72 109.698 77.9133 109.698 78.1067 109.698C 78.2033 109.698 78.3 109.698 78.3967 109.698C 78.4933 109.698 78.4933 109.698 78.59 109.698C 78.88 109.698 79.0733 109.698 79.3633 109.601C 79.46 109.601 79.5567 109.601 79.6533 109.601L 79.75 109.601C 80.1367 109.601 80.62 109.504 81.0067 109.407C 81.0067 109.407 81.0067 109.407 81.1033 109.407C 81.2 109.407 81.2967 109.31 81.49 109.31C 81.6833 109.31 81.8767 109.213 82.07 109.213C 82.2633 109.213 82.36 109.116 82.4567 109.116C 82.65 109.019 82.8433 109.019 83.0367 108.922L 83.1333 108.922C 83.23 108.922 83.23 108.825 83.3267 108.825C 83.6167 108.728 83.9067 108.631 84.1967 108.534C 84.2933 108.534 84.39 108.437 84.4867 108.437C 84.8733 108.243 85.1633 108.146 85.55 107.951L 151.767 69.4286L 151.863 69.3315C 151.96 69.2345 152.057 69.2345 152.153 69.1375C 152.25 69.0404 152.443 68.9434 152.54 68.8464C 152.637 68.7493 152.733 68.6523 152.83 68.5553C 152.927 68.4582 153.023 68.3612 153.12 68.2642C 153.12 68.2642 153.12 68.2642 153.217 68.1671L 153.313 68.0701C 153.507 67.876 153.603 67.779 153.797 67.5849L 153.893 67.4879C 153.893 67.4879 153.893 67.3908 153.99 67.3908C 154.087 67.2938 154.183 67.0997 154.28 67.0027C 154.28 66.9057 154.377 66.9057 154.377 66.8086L 154.377 66.7116C 154.473 66.6145 154.473 66.5175 154.57 66.3235C 154.57 66.2264 154.667 66.2264 154.667 66.1294C 154.667 66.1294 154.667 66.1294 154.667 66.0323C 154.667 65.9353 154.763 65.8383 154.763 65.7412C 154.763 65.6442 154.86 65.5472 154.86 65.5472C 154.86 65.5472 154.86 65.5472 154.86 65.4501C 154.86 65.3531 154.86 65.2561 154.86 65.062C 154.86 64.965 154.86 64.8679 154.86 64.8679L 154.86 64.7709L 154.957 44.9757C 155.053 45.2668 154.957 45.3639 154.957 45.4609ZM 0.0966667 45.3639C 0.0966667 45.4609 0.0966667 45.5579 0.0966667 45.655C 0.0966667 45.5579 0.0966667 45.4609 0.0966667 45.3639Z" transform="translate(20 0)" fill="url(#paint0_linear)"/>
</g>
<g id="Group">
<g id="Group_2">
<g id="Group_3">
<g id="Vector_2">
<path d="M 151.622 40.6092C 155.875 43.1321 155.972 47.1105 151.719 49.6334L 85.4054 88.2534C 81.1521 90.7763 74.1921 90.7763 69.9387 88.2534L 3.23875 49.5364C -1.01459 47.0135 -1.11125 43.035 3.14208 40.5121L 69.3587 1.89218C 73.6121 -0.630728 80.5721 -0.630728 84.8254 1.89218L 151.622 40.6092Z" transform="translate(20.1445 0)" fill="url(#paint1_linear)"/>
</g>
</g>
</g>
</g>
</g>
</g>
<g id="Group 3_2">
<g id="Group_4">
<g id="Group_5">
<g id="Group_6">
<g id="Vector_3">
<path d="M 4.19868 0.309372C 4.64299 0.566611 4.80961 0.842226 4.69853 1.13621C 4.58745 1.44858 4.25422 1.76094 3.66182 2.09168C 3.08792 2.42242 2.51403 2.62453 1.97716 2.67965C 1.44029 2.73478 0.977472 2.64291 0.533166 2.38567C 0.0888611 2.12843 -0.0777529 1.85281 0.0333235 1.55882C 0.1444 1.24646 0.49614 0.934098 1.07003 0.603361C 1.64393 0.272624 2.21782 0.0705077 2.73618 0.0153848C 3.29156 -0.039738 3.75438 0.0521317 4.19868 0.309372Z" transform="translate(104.62 46.6619)" fill="white"/>
</g>
</g>
<g id="Group_7">
<g id="Vector_4">
<path d="M 2.53624 0.291117C 2.98055 0.548357 3.11014 0.823972 2.99906 1.11796C 2.92501 1.32008 2.72137 1.52219 2.42517 1.70594L -1.12993e-06 0.309493C 0.370253 0.144124 0.721998 0.0522519 1.07374 0.0155033C 1.5921 -0.0396195 2.07343 0.0522519 2.53624 0.291117Z" transform="translate(119.852 54.4148)" fill="white"/>
</g>
</g>
<g id="Group_8">
<g id="Group_9">
<g id="Vector_5">
<path d="M 68.7748 23.4272C 75.7541 27.4144 75.7356 33.9373 68.7563 37.9613C 61.777 41.9852 50.4472 42.022 43.4679 38.0164C 42.6163 37.5203 41.8758 37.0058 41.2278 36.4546C 36.8403 37.1712 31.9345 36.5281 28.4726 34.5436C 27.0286 33.7168 25.9919 32.743 25.3624 31.6956C 20.0123 32.9451 13.6439 32.3204 9.2934 29.8215C 4.75778 27.2307 3.73958 23.3721 6.25731 20.2117C 5.47978 19.9177 4.72076 19.5686 4.03579 19.1827C -1.35142 16.0959 -1.35142 11.0429 4.07281 7.91931C 7.7013 5.82465 12.8478 5.12642 17.4575 5.82465C 18.235 4.68544 19.4199 3.61973 21.0119 2.70102C 27.2507 -0.90034 37.3957 -0.90034 43.6715 2.70102C 47.3556 4.81406 48.8921 7.69882 48.2812 10.4366C 52.1318 10.3998 55.964 11.1899 58.8705 12.862C 62.7396 15.0853 63.9615 18.2457 62.5915 21.112C 64.8316 21.6082 66.9605 22.3799 68.7748 23.4272ZM 45.1525 23.4456L 45.9856 23.1148C 46.0597 23.0781 46.0782 23.0413 45.9856 22.9862L 44.8934 22.3615C 44.9304 22.3431 45.3562 22.1594 45.8375 22.0308C 46.0411 21.9756 46.2633 21.9573 46.4299 21.9573C 46.5965 21.9573 46.7446 21.9756 46.8927 22.0124C 47.0408 22.0491 47.1704 22.1226 47.3 22.1961C 47.3926 22.2512 47.4851 22.3247 47.5592 22.3799C 47.6332 22.4534 47.6703 22.4901 47.6888 22.5085C 47.7073 22.5269 47.7258 22.5452 47.7443 22.5636C 47.7813 22.582 47.8369 22.582 47.8739 22.5636L 48.8366 22.3064C 48.9476 22.2696 48.9106 22.2145 48.8921 22.1961C 48.8181 22.1226 48.744 22.0491 48.6329 21.9573C 48.5219 21.8654 48.3738 21.7735 48.2071 21.6816C 47.5962 21.3325 46.9298 21.1488 46.2633 21.1488C 45.5783 21.1488 44.8378 21.3142 44.0603 21.6449L 43.7826 21.7551L 43.0051 21.3142C 42.9866 21.3142 42.9125 21.259 42.8014 21.3142L 41.9683 21.6449C 41.8943 21.6816 41.8758 21.7184 41.9683 21.7735L 42.7274 22.1961L 37.766 24.1622C 37.3587 24.3275 37.0255 24.4378 36.7292 24.5297C 36.4516 24.6032 36.2109 24.6583 36.0073 24.6767C 35.8036 24.695 35.6555 24.695 35.4519 24.6399C 35.3038 24.6032 35.1372 24.5297 34.9891 24.4378C 34.915 24.3827 34.8039 24.3275 34.7484 24.2724C 34.6743 24.2173 34.6558 24.1805 34.6188 24.1254C 34.6188 24.1254 34.6003 24.1071 34.5818 24.1071C 34.5448 24.0887 34.5077 24.0703 34.4337 24.0887C 34.3411 24.1071 33.5821 24.3092 33.4895 24.3459C 33.397 24.3643 33.3784 24.4194 33.4155 24.4562C 33.471 24.5297 33.5266 24.5848 33.6376 24.6767C 33.7857 24.8053 33.9338 24.8971 34.0819 24.989C 34.3966 25.1728 34.7299 25.3014 35.0446 25.3932C 35.3593 25.4851 35.7296 25.5035 36.0998 25.5035C 36.5071 25.4851 36.8588 25.43 37.3031 25.3198C 37.7289 25.2095 38.2103 25.0441 38.7286 24.842L 43.8011 22.8025L 44.9119 23.4456C 44.9674 23.4456 45.0415 23.4823 45.1525 23.4456ZM 47.2445 27.9473C 47.6703 27.8187 48.0775 27.6349 48.4663 27.4144C 48.8551 27.1939 49.1513 26.9551 49.3919 26.7162C 49.6326 26.4773 49.7622 26.2201 49.7992 25.9629C 49.8363 25.7056 49.7807 25.4484 49.6141 25.1911C 49.4475 24.9339 49.1698 24.6767 48.7625 24.4562C 48.3552 24.2173 47.9109 24.0519 47.4666 23.9601C 47.0223 23.8682 46.5595 23.8314 46.1152 23.8498C 45.6709 23.8682 45.2266 23.9601 44.8008 24.0887C 44.375 24.2173 43.9677 24.401 43.579 24.6215C 43.1902 24.842 42.894 25.0809 42.6533 25.3198C 42.4127 25.5586 42.2831 25.8159 42.246 26.0731C 42.209 26.3303 42.2646 26.5876 42.4312 26.8448C 42.5978 27.1021 42.894 27.3409 43.3013 27.5798C 43.7085 27.8187 44.1343 27.984 44.5786 28.0759C 45.0229 28.1678 45.4858 28.2045 45.9301 28.1861C 46.3559 28.1678 46.8002 28.0943 47.2445 27.9473ZM 61.5733 35.1684C 61.6104 35.15 62.3879 34.8376 62.9248 34.268C 63.1654 34.0292 63.2765 33.7352 63.2765 33.5698C 63.295 33.3126 63.2395 33.0921 63.1284 32.9267C 62.9618 32.7062 62.7211 32.4674 62.3509 32.2652C 61.9251 32.0264 61.4808 31.8426 61.0179 31.7508C 60.5551 31.6589 60.0923 31.6221 59.648 31.6405C 59.2037 31.6589 58.7409 31.7508 58.3151 31.8794C 57.8893 32.008 57.4635 32.1917 57.0932 32.4122C 56.7045 32.6327 56.3898 32.8716 56.1676 33.1288C 55.9455 33.3861 55.8159 33.6433 55.7974 33.9005C 55.7788 34.1762 55.8714 34.4334 56.0936 34.709C 56.2972 34.9846 56.6304 35.2419 57.1118 35.5175C 57.1118 35.5175 57.1303 35.5175 57.1303 35.5359C 58.1114 36.1055 58.852 36.2708 59.1852 36.3259C 59.2407 36.3443 59.3148 36.3259 59.3703 36.2524L 59.7591 35.7747C 59.7961 35.738 59.7591 35.7012 59.7406 35.6828C 59.7221 35.6645 59.7035 35.6645 59.7035 35.6645C 59.3703 35.5726 58.8705 35.4807 58.0744 35.0214C 58.0744 35.0214 58.0559 35.0214 58.0559 35.003C 57.5376 34.709 57.2969 34.3966 57.2969 34.1027C 57.2969 33.8087 57.5375 33.5331 58.0189 33.2207L 61.4067 35.1684C 61.4067 35.1684 61.4808 35.2051 61.5733 35.1684ZM 34.3966 19.587C 34.4337 19.5686 35.2112 19.2562 35.7481 18.6866C 35.9887 18.4478 36.0998 18.1538 36.0998 17.9884C 36.1183 17.7312 36.0628 17.5107 35.9517 17.3453C 35.7851 17.1248 35.5444 16.886 35.1742 16.6838C 34.7484 16.445 34.3041 16.2612 33.8413 16.1694C 33.3784 16.0775 32.9156 16.0407 32.4713 16.0591C 32.027 16.0775 31.5642 16.1694 31.1384 16.298C 30.7126 16.4266 30.2868 16.6103 29.9166 16.8308C 29.5278 17.0513 29.2131 17.2902 28.9909 17.5474C 28.7688 17.8047 28.6392 18.0619 28.6207 18.3192C 28.6022 18.5948 28.6947 18.852 28.9169 19.1276C 29.1205 19.4032 29.4538 19.6605 29.9351 19.9361C 29.9351 19.9361 29.9536 19.9361 29.9536 19.9545C 30.9348 20.5057 31.6753 20.6894 32.0085 20.7446C 32.064 20.7629 32.1381 20.7446 32.1936 20.6711L 32.5824 20.1933C 32.6194 20.1566 32.5824 20.1198 32.5639 20.1015C 32.5454 20.0831 32.5269 20.0831 32.5269 20.0831C 32.1936 19.9912 31.6938 19.8993 30.8977 19.44C 30.8977 19.44 30.8792 19.44 30.8792 19.4216C 30.3609 19.1276 30.1202 18.8153 30.1202 18.5213C 30.1202 18.2273 30.3609 17.9517 30.8422 17.6577L 34.23 19.6054C 34.2115 19.587 34.3041 19.6421 34.3966 19.587ZM 24.2702 16.3347C 24.3813 16.3715 24.4553 16.3164 24.4553 16.3164L 27.5284 14.5341C 28.2134 14.1482 28.5281 13.744 28.4726 13.3581C 28.417 12.9722 28.0653 12.5864 27.3803 12.2005C 27.1211 12.0535 26.6768 11.833 26.3806 11.7228C 26.3436 11.7044 25.492 11.3737 24.9552 11.3369C 24.9552 11.3369 24.8441 11.3186 24.7885 11.3921L 24.3813 11.9065C 24.3442 11.9433 24.3813 11.98 24.3998 11.98C 24.4183 11.9984 24.4368 11.9984 24.4368 11.9984C 24.4368 11.9984 24.4738 11.9984 24.5294 12.0168C 25.492 12.1821 26.2696 12.6231 26.3436 12.6599C 26.7139 12.8804 26.9175 13.0825 26.973 13.2662C 27.0101 13.45 26.899 13.6337 26.4547 13.891L 26.3066 13.9645C 26.0474 13.7807 25.8253 13.6153 25.8067 13.597C 25.6772 13.5051 25.5105 13.4132 25.2884 13.2846C 24.9922 13.1192 24.6775 12.9722 24.3442 12.862C 24.011 12.7517 23.6593 12.6783 23.3075 12.6415C 22.9558 12.6048 22.604 12.6231 22.2523 12.6783C 21.9006 12.7334 21.5858 12.862 21.2896 13.0274C 20.9934 13.1927 20.7898 13.3765 20.6787 13.5602C 20.5676 13.744 20.5306 13.9277 20.5862 14.1114C 20.6417 14.2952 20.7713 14.4973 20.9749 14.681C 21.1786 14.8648 21.4563 15.0669 21.7895 15.2507C 22.1412 15.4528 22.5115 15.6365 22.9002 15.7835C 23.289 15.9489 23.7889 16.1326 23.9184 16.1694C 24.1221 16.298 24.2702 16.3347 24.2702 16.3347ZM 54.2793 33.6066C 54.2793 33.6066 54.3904 33.6249 54.4459 33.5698L 54.8717 33.0369C 54.9087 33.0002 54.8902 32.9635 54.8532 32.9451C 54.8347 32.9267 54.7977 32.9267 54.7977 32.9267C 54.594 32.8716 54.3904 32.8165 54.2053 32.743C 54.0201 32.6695 53.8165 32.5592 53.6129 32.449C 53.1315 32.1734 52.8909 31.861 52.8909 31.5486C 52.8909 31.2179 53.2056 30.8688 53.8165 30.5197C 54.3904 30.1889 54.9458 30.0236 55.5197 29.9868C 56.0936 29.9501 56.6304 30.0603 57.1118 30.3359C 57.519 30.5748 57.7967 30.7769 58.0189 31.0342C 58.0189 31.0342 58.0189 31.0525 58.0374 31.0525C 58.0559 31.0709 58.1114 31.0893 58.204 31.0525C 58.5372 30.9607 58.7779 30.9055 59.1296 30.7953C 59.2407 30.7585 59.2037 30.7034 59.1852 30.685C 59.1111 30.5748 58.889 30.3543 58.6853 30.2073C 58.5002 30.0603 58.2595 29.9133 57.9819 29.748C 57.5561 29.5091 57.1118 29.3253 56.6489 29.2335C 56.1861 29.1232 55.7233 29.0865 55.2605 29.1049C 54.7977 29.1232 54.3534 29.1967 53.9091 29.3253C 53.4648 29.454 53.0575 29.6377 52.6687 29.8582C 51.8356 30.3359 51.3913 30.8504 51.3543 31.3833C 51.2988 31.9161 51.7246 32.449 52.5947 32.9451C 53.1315 33.2207 53.761 33.4596 54.2793 33.6066ZM 34.6743 22.6739C 35.8777 23.3537 37.2661 23.4272 38.2843 22.8392L 38.3028 22.8209C 39.247 22.2696 38.7471 21.5898 38.2103 21.0018L 38.1362 20.9283C 37.7289 20.4689 37.3772 20.0831 37.766 19.8626L 37.7845 19.8442C 38.1177 19.6605 38.6731 19.6789 39.1359 19.9545C 39.6543 20.2485 40.0986 20.7078 40.2652 21.0569C 40.2652 21.0569 40.2837 21.0937 40.3207 21.112C 40.3577 21.1304 40.3948 21.1488 40.4688 21.1304C 40.5614 21.112 41.2834 20.9099 41.3574 20.8916C 41.45 20.8732 41.45 20.8181 41.4315 20.7813C 41.2464 20.3587 40.8206 19.8993 40.1726 19.5319L 40.043 19.4584C 38.9508 18.8336 37.5068 18.7601 36.5626 19.3114L 36.5441 19.3297C 35.5444 19.8993 36.0628 20.5792 36.6367 21.1672L 36.7292 21.259C 37.1365 21.7 37.4698 22.0675 37.081 22.3064L 37.0625 22.3247C 36.6922 22.5452 36.0998 22.5085 35.563 22.2145C 35.3593 22.1043 34.7114 21.7184 34.4522 21.0753C 34.4152 21.0018 34.3966 20.9467 34.3781 20.8916C 34.3781 20.8732 34.3596 20.8548 34.3226 20.8364C 34.2856 20.8181 34.23 20.7997 34.156 20.8181L 33.2674 21.0569C 33.1378 21.0937 33.1563 21.1304 33.1563 21.1488C 33.1933 21.259 33.2489 21.3509 33.2859 21.4612C 33.6006 21.9573 34.0819 22.3431 34.6743 22.6739ZM 20.6787 12.7517L 20.6972 12.7334C 21.6414 12.1821 21.1415 11.5023 20.6047 10.9143L 20.5491 10.8408C 20.1419 10.3815 19.7901 9.99561 20.1789 9.77512L 20.1974 9.75674C 20.5306 9.573 21.0675 9.59137 21.5488 9.86699C 22.0672 10.161 22.5115 10.6203 22.6781 10.9694C 22.6781 10.9694 22.6966 11.0062 22.7336 11.0246C 22.7707 11.0429 22.8077 11.0613 22.8817 11.0429C 22.9743 11.0246 23.6963 10.8224 23.7703 10.8041C 23.8629 10.7857 23.8629 10.7306 23.8444 10.6938C 23.6593 10.2712 23.2335 9.81186 22.5855 9.44438L 22.4559 9.37088C 21.3637 8.74616 19.9197 8.67266 18.9756 9.22389L 18.957 9.24226C 17.9574 9.81186 18.4757 10.4917 19.0496 11.0797L 19.1422 11.1716C 19.5494 11.6125 19.8827 11.98 19.4939 12.2189L 19.4754 12.2373C 19.1051 12.4578 18.5127 12.421 17.9759 12.127C 17.7722 12.0168 17.1243 11.6309 16.8651 10.9878C 16.8281 10.9143 16.8096 10.8592 16.791 10.8041C 16.791 10.7857 16.7725 10.7673 16.7355 10.749C 16.6985 10.7306 16.6429 10.7122 16.5689 10.749L 15.6803 10.9878C 15.5507 11.0246 15.5692 11.0613 15.5692 11.0797C 15.6062 11.1899 15.6618 11.2818 15.6988 11.3921C 15.9765 11.9065 16.4578 12.2924 17.0502 12.6231C 18.2906 13.2846 19.6605 13.3397 20.6787 12.7517ZM 54.9643 28.3331C 55.0568 28.2964 55.0568 28.2596 55.0383 28.2413C 55.0013 28.2045 54.7792 28.0024 54.557 27.8554C 54.5015 27.8187 54.4459 27.7819 54.3904 27.7635C 54.0757 27.5798 53.798 27.5063 53.5388 27.4512C 53.2426 27.3777 52.8538 27.3409 52.5391 27.3593L 52.9464 27.1204C 53.0019 27.0837 53.0019 27.0469 52.9464 27.0102L 52.0763 26.5141C 52.0208 26.4773 51.9282 26.4773 51.8727 26.5141L 46.8557 29.3988C 46.8002 29.4356 46.8002 29.4907 46.8557 29.5091L 47.7443 30.0236C 47.7999 30.0603 47.8924 30.0603 47.948 30.0236L 50.4657 28.572C 50.7989 28.3699 51.1692 28.2045 51.4654 28.131C 51.7431 28.0575 52.0208 28.0208 52.2614 28.0208C 52.5021 28.0208 52.7242 28.0575 52.9279 28.1126C 53.1315 28.1678 53.3167 28.2596 53.4462 28.3331C 53.6314 28.4434 53.761 28.572 53.7795 28.572C 53.7795 28.572 53.7795 28.572 53.798 28.572C 53.8535 28.6087 53.9276 28.6088 54.0016 28.5904C 54.2053 28.5353 54.8347 28.3699 54.9643 28.3331ZM 26.4547 17.6944L 33.6561 13.5418C 33.7117 13.5051 33.7117 13.4683 33.6561 13.4316L 32.749 12.9171C 32.6935 12.8804 32.6009 12.8804 32.5454 12.9171L 25.3624 17.0697C 25.3069 17.1065 25.3069 17.1432 25.3624 17.1799L 26.2696 17.6944C 26.3251 17.7312 26.3992 17.7312 26.4547 17.6944Z" transform="translate(61 22)" fill="white"/>
</g>
</g>
<g id="Group_10">
<g id="Vector_6">
<path d="M 2.53624 0.300114C 2.98055 0.557354 3.11014 0.832968 2.99906 1.12696C 2.92501 1.32907 2.72137 1.53119 2.42517 1.71493L 0 0.318488C 0.370254 0.153119 0.721997 0.0612481 1.07374 0.0244996C 1.61061 -0.0489975 2.09194 0.0428739 2.53624 0.300114Z" transform="translate(92.6567 38.8435)" fill="white"/>
</g>
</g>
</g>
<g id="Group_11">
<g id="Vector_7">
<path d="M 2.50208 0.413508C 2.52059 0.413508 2.5206 0.431882 2.53911 0.431882C 3.02044 0.707496 3.37218 0.983111 3.39069 1.00149L 1.85413 1.88345C 1.83562 1.86508 1.33578 1.68133 0.817424 1.42409C 0.761886 1.38734 0.706348 1.36897 0.65081 1.33222C 0.354606 1.16685 0.206504 1.01986 0.11394 0.909614C 0.0213766 0.799369 0.0213766 0.744245 0.0213766 0.744245C -0.0156488 0.615626 0.00286393 0.578876 0.0213766 0.523753C 0.0584021 0.431882 0.169479 0.321637 0.354606 0.211391C 0.65081 0.0460226 0.965525 -0.0274742 1.31727 0.00927431C 1.31727 0.00927431 1.83562 0.027648 2.50208 0.413508Z" transform="translate(83.1016 35.478)" fill="white"/>
</g>
</g>
</g>
</g>
</g>
</g>
</g>
<defs>
<filter id="filter0_d" x="0" y="0" width="195.005" height="149.698" filterUnits="userSpaceOnUse" color-interpolation-filters="sRGB">
<feFlood flood-opacity="0" result="BackgroundImageFix"/>
<feColorMatrix in="SourceAlpha" type="matrix" values="0 0 0 0 0 0 0 0 0 0 0 0 0 0 0 0 0 0 255 0"/>
<feOffset dy="20"/>
<feGaussianBlur stdDeviation="10"/>
<feColorMatrix type="matrix" values="0 0 0 0 0 0 0 0 0 0 0 0 0 0 0 0 0 0 0.14 0"/>
<feBlend mode="normal" in2="BackgroundImageFix" result="effect1_dropShadow"/>
<feBlend mode="normal" in="SourceGraphic" in2="effect1_dropShadow" result="shape"/>
</filter>

<linearGradient id="paint0_linear" x2="1" gradientUnits="userSpaceOnUse" gradientTransform="matrix(0 109.698 -155 0 155 0)">
<stop stop-color="#0199EC"/>
<stop offset="1" stop-color="#018BEC"/>
</linearGradient>
<linearGradient id="paint1_linear" x2="1" gradientUnits="userSpaceOnUse" gradientTransform="matrix(0 90.1456 -154.861 0 154.861 0)">
<stop stop-color="#139CD8"/>
<stop offset="1" stop-color="#01A8EC"/>
</linearGradient>

</defs>
</svg>

