<svg width="1920" height="268" viewBox="0 0 1920 268" version="1.1" xmlns="http://www.w3.org/2000/svg" xmlns:xlink="http://www.w3.org/1999/xlink">
<g id="Canvas" fill="none">
<g id="Mask Group">
<mask id="mask0" mask-type="alpha" maskUnits="userSpaceOnUse" x="0" y="-306" width="1920" height="574">
<g id="Rectangle 5">
<rect width="1920" height="574" transform="translate(0 -306)" fill="white"/>
</g>
</mask>
<g mask="url(#mask0)">
<g id="Vector">
<path d="M 1313.05 250.707L 1313.05 250.706L 1378.88 212.528L 1378.89 212.527C 1380.91 211.337 1381.78 209.876 1381.76 208.516C 1381.74 207.152 1380.81 205.684 1378.79 204.491L 1378.79 204.49L 1312.58 166.313L 1312.57 166.31C 1310.56 165.122 1307.87 164.514 1305.15 164.514C 1302.43 164.514 1299.74 165.122 1297.72 166.31L 1297.72 166.312L 1231.89 204.49L 1231.89 204.491C 1229.87 205.681 1229 207.142 1229.02 208.501C 1229.04 209.866 1229.96 211.333 1231.99 212.526L 1231.99 212.528L 1298.2 250.707C 1300.22 251.895 1302.91 252.504 1305.63 252.504C 1308.35 252.504 1311.04 251.895 1313.05 250.707ZM 1408.03 195.695L 1408.04 195.693L 1473.86 157.515L 1473.87 157.515C 1475.89 156.324 1476.76 154.863 1476.74 153.504C 1476.72 152.14 1475.79 150.672 1473.77 149.479L 1473.77 149.478L 1407.56 111.3L 1407.55 111.298C 1405.54 110.11 1402.85 109.501 1400.13 109.501C 1397.41 109.501 1394.72 110.11 1392.71 111.298L 1392.7 111.3L 1326.87 149.478L 1326.87 149.479C 1324.85 150.669 1323.98 152.13 1324 153.489C 1324.02 154.854 1324.94 156.321 1326.97 157.514L 1326.97 157.515L 1393.18 195.693L 1393.19 195.695C 1395.2 196.883 1397.89 197.492 1400.61 197.492C 1403.33 197.492 1406.02 196.883 1408.03 195.695ZM 1407.96 305.438L 1407.96 305.437L 1473.79 267.259L 1473.8 267.258C 1475.82 266.068 1476.69 264.607 1476.67 263.247C 1476.65 261.883 1475.72 260.415 1473.7 259.222L 1473.7 259.221L 1407.49 221.044L 1407.48 221.041C 1405.47 219.853 1402.78 219.244 1400.06 219.244C 1397.34 219.244 1394.65 219.853 1392.64 221.041L 1392.63 221.043L 1326.8 259.221L 1326.8 259.222C 1324.78 260.412 1323.91 261.873 1323.93 263.232C 1323.95 264.597 1324.87 266.064 1326.9 267.257L 1326.9 267.259L 1393.11 305.436L 1393.11 305.438C 1395.13 306.626 1397.82 307.235 1400.54 307.235C 1403.26 307.235 1405.95 306.626 1407.96 305.438ZM 1219.03 304.961L 1219.04 304.96L 1284.86 266.781L 1284.87 266.781C 1286.89 265.591 1287.76 264.129 1287.74 262.77C 1287.72 261.406 1286.79 259.938 1284.77 258.745L 1284.77 258.744L 1218.56 220.567L 1218.55 220.564C 1216.54 219.376 1213.85 218.767 1211.13 218.767C 1208.41 218.767 1205.72 219.376 1203.71 220.564L 1203.7 220.566L 1137.87 258.744L 1137.87 258.745C 1135.85 259.935 1134.98 261.396 1135 262.755C 1135.02 264.12 1135.94 265.587 1137.97 266.78L 1137.97 266.781L 1204.18 304.959L 1204.19 304.961C 1206.2 306.149 1208.89 306.758 1211.61 306.758C 1214.33 306.758 1217.02 306.149 1219.03 304.961ZM 1597.03 305.695L 1597.04 305.693L 1662.86 267.515L 1662.87 267.515C 1664.89 266.324 1665.76 264.863 1665.74 263.504C 1665.72 262.14 1664.79 260.672 1662.77 259.479L 1662.77 259.478L 1596.56 221.3L 1596.55 221.298C 1594.54 220.11 1591.85 219.501 1589.13 219.501C 1586.41 219.501 1583.72 220.11 1581.71 221.298L 1581.7 221.3L 1515.87 259.478L 1515.87 259.479C 1513.85 260.669 1512.98 262.13 1513 263.489C 1513.02 264.854 1513.94 266.321 1515.97 267.514L 1515.97 267.515L 1582.18 305.693L 1582.19 305.695C 1584.2 306.883 1586.89 307.492 1589.61 307.492C 1592.33 307.492 1595.02 306.883 1597.03 305.695ZM 1502.03 250.695L 1502.04 250.693L 1567.86 212.515L 1567.87 212.515C 1569.89 211.324 1570.76 209.863 1570.74 208.504C 1570.72 207.14 1569.79 205.672 1567.77 204.479L 1567.77 204.478L 1501.56 166.3L 1501.55 166.298C 1499.54 165.11 1496.85 164.501 1494.13 164.501C 1491.41 164.501 1488.72 165.11 1486.71 166.298L 1486.7 166.3L 1420.87 204.478L 1420.87 204.479C 1418.85 205.669 1417.98 207.13 1418 208.489C 1418.02 209.854 1418.94 211.321 1420.97 212.514L 1420.97 212.515L 1487.18 250.693L 1487.19 250.695C 1489.2 251.883 1491.89 252.492 1494.61 252.492C 1497.33 252.492 1500.02 251.883 1502.03 250.695ZM 1597.1 195.695L 1597.11 195.693L 1662.93 157.515L 1662.94 157.515C 1664.96 156.324 1665.83 154.863 1665.81 153.504C 1665.79 152.14 1664.86 150.672 1662.84 149.479L 1662.84 149.478L 1596.63 111.3L 1596.62 111.298C 1594.61 110.11 1591.92 109.501 1589.2 109.501C 1586.48 109.501 1583.79 110.11 1581.78 111.298L 1581.77 111.3L 1515.94 149.478L 1515.94 149.479C 1513.92 150.669 1513.05 152.13 1513.07 153.489C 1513.09 154.854 1514.01 156.321 1516.04 157.514L 1516.04 157.515L 1582.25 195.693L 1582.26 195.695C 1584.27 196.883 1586.96 197.492 1589.68 197.492C 1592.4 197.492 1595.09 196.883 1597.1 195.695ZM 1502.03 140.695L 1502.04 140.693L 1567.86 102.515L 1567.87 102.514C 1569.89 101.324 1570.76 99.8632 1570.74 98.504C 1570.72 97.1394 1569.79 95.6718 1567.77 94.4787L 1567.77 94.4778L 1501.56 56.3003L 1501.55 56.2979C 1499.54 55.11 1496.85 54.5012 1494.13 54.5012C 1491.41 54.5012 1488.72 55.11 1486.71 56.2979L 1486.7 56.2996L 1420.87 94.4778L 1420.87 94.4786C 1418.85 95.6688 1417.98 97.1298 1418 98.489C 1418.02 99.8535 1418.94 101.321 1420.97 102.514L 1420.97 102.515L 1487.18 140.693L 1487.19 140.695C 1489.2 141.883 1491.89 142.492 1494.61 142.492C 1497.33 142.492 1500.02 141.883 1502.03 140.695ZM 274.099 195.419L 274.102 195.417L 339.931 157.239L 339.933 157.238C 341.952 156.048 342.824 154.587 342.804 153.228C 342.784 151.863 341.861 150.396 339.837 149.203L 339.835 149.202L 273.623 111.024L 273.619 111.022C 271.603 109.834 268.913 109.225 266.196 109.225C 263.478 109.225 260.788 109.834 258.772 111.022L 258.769 111.024L 192.94 149.202L 192.938 149.203C 190.919 150.393 190.046 151.854 190.067 153.213C 190.087 154.577 191.01 156.045 193.034 157.238L 193.035 157.239L 259.248 195.417L 259.252 195.419C 261.268 196.607 263.958 197.216 266.676 197.216C 269.393 197.216 272.083 196.607 274.099 195.419ZM 274.033 305.162L 274.035 305.16L 339.865 266.982L 339.867 266.982C 341.886 265.791 342.758 264.33 342.738 262.971C 342.718 261.607 341.795 260.139 339.771 258.946L 339.769 258.945L 273.557 220.767L 273.553 220.765C 271.537 219.577 268.847 218.968 266.129 218.968C 263.412 218.968 260.722 219.577 258.706 220.765L 258.703 220.767L 192.873 258.945L 192.872 258.946C 190.852 260.136 189.98 261.597 190 262.956C 190.021 264.321 190.943 265.788 192.967 266.981L 192.969 266.982L 259.181 305.16L 259.186 305.162C 261.202 306.35 263.891 306.959 266.609 306.959C 269.327 306.959 272.017 306.35 274.033 305.162ZM 463.099 305.419L 463.102 305.417L 528.931 267.239L 528.933 267.238C 530.952 266.048 531.824 264.587 531.804 263.228C 531.784 261.863 530.861 260.396 528.837 259.203L 528.835 259.202L 462.623 221.024L 462.619 221.022C 460.603 219.834 457.913 219.225 455.196 219.225C 452.478 219.225 449.788 219.834 447.772 221.022L 447.769 221.024L 381.94 259.202L 381.938 259.203C 379.919 260.393 379.046 261.854 379.067 263.213C 379.087 264.578 380.01 266.045 382.034 267.238L 382.035 267.239L 448.248 305.417L 448.252 305.419C 450.268 306.607 452.958 307.216 455.675 307.216C 458.393 307.216 461.083 306.607 463.099 305.419ZM 368.165 250.419L 368.168 250.417L 433.998 212.239L 434 212.238C 436.019 211.048 436.891 209.587 436.871 208.228C 436.851 206.863 435.928 205.396 433.904 204.203L 433.902 204.202L 367.69 166.024L 367.686 166.022C 365.67 164.834 362.98 164.225 360.262 164.225C 357.544 164.225 354.855 164.834 352.839 166.022L 352.836 166.024L 287.006 204.202L 287.004 204.203C 284.985 205.393 284.113 206.854 284.133 208.213C 284.154 209.577 285.076 211.045 287.1 212.238L 287.102 212.239L 353.314 250.417L 353.319 250.419C 355.335 251.607 358.024 252.216 360.742 252.216C 363.46 252.216 366.149 251.607 368.165 250.419ZM 368.165 360.419L 368.168 360.417L 433.998 322.239L 434 322.238C 436.019 321.048 436.891 319.587 436.871 318.228C 436.851 316.863 435.928 315.396 433.904 314.203L 433.902 314.202L 367.69 276.024L 367.686 276.022C 365.67 274.834 362.98 274.225 360.262 274.225C 357.544 274.225 354.855 274.834 352.839 276.022L 352.836 276.024L 287.006 314.202L 287.004 314.203C 284.985 315.393 284.113 316.854 284.133 318.213C 284.154 319.578 285.076 321.045 287.1 322.238L 287.102 322.239L 353.314 360.417L 353.319 360.419C 355.335 361.607 358.024 362.216 360.742 362.216C 363.46 362.216 366.149 361.607 368.165 360.419ZM 179.122 360.419L 179.125 360.417L 244.955 322.239L 244.957 322.238C 246.976 321.048 247.848 319.587 247.828 318.228C 247.808 316.863 246.885 315.396 244.861 314.203L 244.859 314.202L 178.647 276.024L 178.643 276.022C 176.627 274.834 173.937 274.225 171.219 274.225C 168.501 274.225 165.812 274.834 163.796 276.022L 163.793 276.024L 97.9629 314.202L 97.9615 314.203C 95.9422 315.393 95.0698 316.854 95.0902 318.213C 95.1106 319.578 96.033 321.045 98.057 322.238L 98.0589 322.239L 164.271 360.417L 164.276 360.419C 166.292 361.607 168.981 362.216 171.699 362.216C 174.417 362.216 177.106 361.607 179.122 360.419ZM 463.165 195.419L 463.168 195.417L 528.998 157.239L 529 157.238C 531.019 156.048 531.891 154.587 531.871 153.228C 531.851 151.863 530.928 150.396 528.904 149.203L 528.902 149.202L 462.69 111.024L 462.685 111.022C 460.669 109.834 457.98 109.225 455.262 109.225C 452.544 109.225 449.855 109.834 447.839 111.022L 447.836 111.024L 382.006 149.202L 382.004 149.203C 379.985 150.393 379.113 151.854 379.133 153.213C 379.154 154.577 380.076 156.045 382.1 157.238L 382.102 157.239L 448.314 195.417L 448.318 195.419C 450.334 196.607 453.024 197.216 455.742 197.216C 458.46 197.216 461.149 196.607 463.165 195.419ZM 368.165 140.419L 368.168 140.417L 433.998 102.239L 434 102.238C 436.019 101.048 436.891 99.587 436.871 98.2278C 436.851 96.8632 435.928 95.3956 433.904 94.2025L 433.902 94.2016L 367.69 56.0241L 367.686 56.0218C 365.67 54.8339 362.98 54.2251 360.262 54.2251C 357.544 54.2251 354.855 54.8339 352.839 56.0218L 352.836 56.0235L 287.006 94.2016L 287.004 94.2024C 284.985 95.3926 284.113 96.8536 284.133 98.2128C 284.154 99.5773 285.076 101.045 287.1 102.238L 287.102 102.239L 353.314 140.417L 353.319 140.419C 355.335 141.607 358.024 142.216 360.742 142.216C 363.46 142.216 366.149 141.607 368.165 140.419ZM 557.122 250.419L 557.125 250.417L 622.955 212.239L 622.957 212.238C 624.976 211.048 625.848 209.587 625.828 208.228C 625.808 206.863 624.885 205.396 622.861 204.203L 622.859 204.202L 556.647 166.024L 556.642 166.022C 554.626 164.834 551.937 164.225 549.219 164.225C 546.501 164.225 543.812 164.834 541.796 166.022L 541.793 166.024L 475.963 204.202L 475.961 204.203C 473.942 205.393 473.07 206.854 473.09 208.213C 473.111 209.577 474.033 211.045 476.057 212.238L 476.059 212.239L 542.271 250.417L 542.276 250.419C 544.292 251.607 546.981 252.216 549.699 252.216C 552.417 252.216 555.106 251.607 557.122 250.419ZM 557.122 360.419L 557.125 360.417L 622.955 322.239L 622.957 322.238C 624.976 321.048 625.848 319.587 625.828 318.228C 625.808 316.863 624.885 315.396 622.861 314.203L 622.859 314.202L 556.647 276.024L 556.642 276.022C 554.626 274.834 551.937 274.225 549.219 274.225C 546.501 274.225 543.812 274.834 541.796 276.022L 541.793 276.024L 475.963 314.202L 475.961 314.203C 473.942 315.393 473.07 316.854 473.09 318.213C 473.111 319.578 474.033 321.045 476.057 322.238L 476.059 322.239L 542.271 360.417L 542.276 360.419C 544.292 361.607 546.981 362.216 549.699 362.216C 552.417 362.216 555.106 361.607 557.122 360.419ZM 652.099 305.419L 652.102 305.417L 717.931 267.239L 717.933 267.238C 719.952 266.048 720.824 264.587 720.804 263.228C 720.784 261.863 719.861 260.396 717.837 259.203L 717.835 259.202L 651.623 221.024L 651.619 221.022C 649.603 219.834 646.913 219.225 644.196 219.225C 641.478 219.225 638.788 219.834 636.772 221.022L 636.769 221.024L 570.939 259.202L 570.938 259.203C 568.919 260.393 568.046 261.854 568.067 263.213C 568.087 264.578 569.01 266.045 571.034 267.238L 571.035 267.239L 637.248 305.417L 637.252 305.419C 639.268 306.607 641.958 307.216 644.675 307.216C 647.393 307.216 650.083 306.607 652.099 305.419ZM 746.914 360.151L 746.917 360.149L 812.75 321.969L 812.751 321.969C 814.822 320.776 815.714 319.313 815.704 317.956C 815.694 316.595 814.774 315.128 812.749 313.935L 812.747 313.934L 746.439 275.756L 746.434 275.754C 744.418 274.566 741.729 273.957 739.011 273.957C 736.293 273.957 733.604 274.566 731.588 275.754L 731.585 275.756L 665.755 313.934L 665.753 313.935C 663.734 315.125 662.862 316.586 662.882 317.945C 662.903 319.309 663.825 320.777 665.849 321.97L 665.851 321.971L 732.063 360.149L 732.067 360.151C 734.083 361.339 736.773 361.948 739.491 361.948C 742.209 361.948 744.898 361.339 746.914 360.151ZM 179.099 250.419L 179.102 250.417L 244.931 212.239L 244.933 212.238C 246.952 211.048 247.824 209.587 247.804 208.228C 247.784 206.863 246.861 205.396 244.837 204.203L 244.835 204.202L 178.623 166.024L 178.619 166.022C 176.603 164.834 173.913 164.225 171.196 164.225C 168.478 164.225 165.788 164.834 163.772 166.022L 163.769 166.024L 97.9395 204.202L 97.938 204.203C 95.9188 205.393 95.0464 206.854 95.0667 208.213C 95.0871 209.577 96.0096 211.045 98.0335 212.238L 98.0355 212.239L 164.248 250.417L 164.252 250.419C 166.268 251.607 168.958 252.216 171.676 252.216C 174.393 252.216 177.083 251.607 179.099 250.419ZM 1691.03 250.963L 1691.04 250.961L 1756.86 212.783L 1756.87 212.783C 1758.89 211.592 1759.76 210.131 1759.74 208.772C 1759.72 207.408 1758.79 205.94 1756.77 204.747L 1756.77 204.746L 1690.56 166.568L 1690.55 166.566C 1688.54 165.378 1685.85 164.769 1683.13 164.769C 1680.41 164.769 1677.72 165.378 1675.71 166.566L 1675.7 166.568L 1609.87 204.746L 1609.87 204.747C 1607.85 205.937 1606.98 207.398 1607 208.757C 1607.02 210.122 1607.94 211.589 1609.97 212.782L 1609.97 212.783L 1676.18 250.961L 1676.19 250.963C 1678.2 252.151 1680.89 252.76 1683.61 252.76C 1686.33 252.76 1689.02 252.151 1691.03 250.963ZM 1880.03 250.695L 1880.04 250.693L 1945.87 212.514L 1945.87 212.513C 1947.94 211.32 1948.83 209.857 1948.82 208.5C 1948.81 207.139 1947.89 205.672 1945.87 204.479L 1945.86 204.478L 1879.56 166.301L 1879.55 166.298C 1877.54 165.11 1874.85 164.501 1872.13 164.501C 1869.41 164.501 1866.72 165.11 1864.71 166.298L 1864.7 166.3L 1798.87 204.478L 1798.87 204.479C 1796.85 205.669 1795.98 207.13 1796 208.489C 1796.02 209.854 1796.94 211.321 1798.97 212.514L 1798.97 212.515L 1865.18 250.693L 1865.19 250.695C 1867.2 251.883 1869.89 252.492 1872.61 252.492C 1875.33 252.492 1878.02 251.883 1880.03 250.695ZM 1786.03 305.695L 1786.04 305.693L 1851.86 267.515L 1851.87 267.515C 1853.89 266.324 1854.76 264.863 1854.74 263.504C 1854.72 262.14 1853.79 260.672 1851.77 259.479L 1851.77 259.478L 1785.56 221.3L 1785.55 221.298C 1783.54 220.11 1780.85 219.501 1778.13 219.501C 1775.41 219.501 1772.72 220.11 1770.71 221.298L 1770.7 221.3L 1704.87 259.478L 1704.87 259.479C 1702.85 260.669 1701.98 262.13 1702 263.489C 1702.02 264.854 1702.94 266.321 1704.97 267.514L 1704.97 267.515L 1771.18 305.693L 1771.19 305.695C 1773.2 306.883 1775.89 307.492 1778.61 307.492C 1781.33 307.492 1784.02 306.883 1786.03 305.695ZM 1880.85 360.427L 1880.86 360.425L 1946.69 322.246L 1946.69 322.245C 1948.76 321.052 1949.65 319.589 1949.64 318.232C 1949.63 316.871 1948.71 315.404 1946.69 314.211L 1946.69 314.21L 1880.38 276.033L 1880.37 276.03C 1878.36 274.842 1875.67 274.233 1872.95 274.233C 1870.23 274.233 1867.54 274.842 1865.53 276.03L 1865.52 276.032L 1799.69 314.21L 1799.69 314.211C 1797.67 315.401 1796.8 316.862 1796.82 318.221C 1796.84 319.586 1797.76 321.053 1799.79 322.246L 1799.79 322.247L 1866 360.425L 1866.01 360.427C 1868.02 361.615 1870.71 362.224 1873.43 362.224C 1876.15 362.224 1878.84 361.615 1880.85 360.427ZM 1880.03 140.695L 1880.04 140.693L 1945.87 102.513L 1945.87 102.513C 1947.94 101.32 1948.83 99.8571 1948.82 98.5002C 1948.81 97.1387 1947.89 95.6723 1945.87 94.4787L 1945.86 94.4777L 1879.56 56.3004L 1879.55 56.2979C 1877.54 55.11 1874.85 54.5012 1872.13 54.5012C 1869.41 54.5012 1866.72 55.11 1864.71 56.2979L 1864.7 56.2996L 1798.87 94.4777L 1798.87 94.4786C 1796.85 95.6688 1795.98 97.1298 1796 98.489C 1796.02 99.8535 1796.94 101.321 1798.97 102.514L 1798.97 102.515L 1865.18 140.693L 1865.19 140.695C 1867.2 141.883 1869.89 142.492 1872.61 142.492C 1875.33 142.492 1878.02 141.883 1880.03 140.695ZM 1786.03 195.695L 1786.04 195.693L 1851.86 157.515L 1851.87 157.515C 1853.89 156.324 1854.76 154.863 1854.74 153.504C 1854.72 152.14 1853.79 150.672 1851.77 149.479L 1851.77 149.478L 1785.56 111.3L 1785.55 111.298C 1783.54 110.11 1780.85 109.501 1778.13 109.501C 1775.41 109.501 1772.72 110.11 1770.71 111.298L 1770.7 111.3L 1704.87 149.478L 1704.87 149.479C 1702.85 150.669 1701.98 152.13 1702 153.489C 1702.02 154.854 1702.94 156.321 1704.97 157.514L 1704.97 157.515L 1771.18 195.693L 1771.19 195.695C 1773.2 196.883 1775.89 197.492 1778.61 197.492C 1781.33 197.492 1784.02 196.883 1786.03 195.695ZM 1596.95 86.1939L 1596.95 86.1921L 1662.78 48.0123L 1662.78 48.0116C 1664.86 46.819 1665.75 45.3559 1665.74 43.999C 1665.73 42.6375 1664.81 41.1711 1662.78 39.9775L 1662.78 39.9765L 1596.47 1.79925L 1596.47 1.79674C 1594.45 0.608866 1591.76 0 1589.04 0C 1586.33 0 1583.64 0.608866 1581.62 1.79672L 1581.62 1.79847L 1515.79 39.9765L 1515.79 39.9774C 1513.77 41.1676 1512.9 42.6286 1512.92 43.9878C 1512.94 45.3523 1513.86 46.8198 1515.88 48.0129L 1515.88 48.014L 1582.1 86.1915L 1582.1 86.1939C 1584.12 87.3817 1586.81 87.9906 1589.52 87.9906C 1592.24 87.9906 1594.93 87.3817 1596.95 86.1939ZM 84.099 195.419L 84.1019 195.417L 149.931 157.239L 149.933 157.238C 151.952 156.048 152.824 154.587 152.804 153.228C 152.784 151.863 151.861 150.396 149.837 149.203L 149.835 149.202L 83.6232 111.024L 83.6191 111.022C 81.6031 109.834 78.9134 109.225 76.1957 109.225C 73.478 109.225 70.7883 109.834 68.7722 111.022L 68.7693 111.024L 2.93953 149.202L 2.93805 149.203C 0.918786 150.393 0.0464064 151.854 0.0667534 153.213C 0.0871794 154.577 1.0096 156.045 3.03358 157.238L 3.03549 157.239L 69.248 195.417L 69.2521 195.419C 71.2681 196.607 73.9578 197.216 76.6755 197.216C 79.3932 197.216 82.0829 196.607 84.099 195.419ZM 84.0325 305.162L 84.0355 305.16L 149.865 266.982L 149.867 266.982C 151.886 265.791 152.758 264.33 152.738 262.971C 152.718 261.607 151.795 260.139 149.771 258.946L 149.769 258.945L 83.5568 220.767L 83.5527 220.765C 81.5367 219.577 78.847 218.968 76.1292 218.968C 73.4115 218.968 70.7218 219.577 68.7058 220.765L 68.7028 220.767L 2.87313 258.945L 2.87165 258.946C 0.852395 260.136 -0.0199928 261.597 0.000347197 262.956C 0.0207672 264.321 0.943195 265.788 2.96717 266.981L 2.96907 266.982L 69.1815 305.16L 69.1856 305.162C 71.2017 306.35 73.8914 306.959 76.6091 306.959C 79.3268 306.959 82.0165 306.35 84.0325 305.162Z" stroke-miterlimit="8" transform="translate(-16 0.776123)" stroke="white" stroke-opacity="0.2"/>
</g>
</g>
</g>
</g>
</svg>

