<svg width="176" height="130" viewBox="0 0 176 130" version="1.1" xmlns="http://www.w3.org/2000/svg" xmlns:xlink="http://www.w3.org/1999/xlink">
<g id="Canvas" fill="none">
<g id="Group 3" filter="url(#filter0_d)">
<g id="Group 2.7">
<g id="Vector">
<path d="M 154.957 45.4609C 155.15 43.7143 154.087 41.9677 151.767 40.6092L 85.0667 1.89218C 80.8133 -0.630728 73.8533 -0.630728 69.6 1.89218L 3.19 40.6092C 1.06333 41.8706 0 43.4232 0 45.0728L 0 64.8679C 0 66.5175 1.06333 68.1671 3.19 69.4286L 69.89 108.146C 70.3733 108.437 70.8567 108.631 71.34 108.825L 71.4367 108.825C 71.4367 108.825 71.4367 108.825 71.5333 108.825C 71.92 109.019 72.3067 109.116 72.6933 109.213L 72.79 109.213C 72.8867 109.213 72.9833 109.213 73.08 109.31C 73.2733 109.407 73.5633 109.407 73.7567 109.504C 73.8533 109.504 73.8533 109.504 73.95 109.504C 74.0467 109.504 74.1433 109.504 74.24 109.504C 74.4333 109.504 74.6267 109.601 74.82 109.601C 74.9167 109.601 75.0133 109.601 75.0133 109.601C 75.11 109.601 75.2067 109.601 75.3033 109.601C 75.4967 109.601 75.69 109.601 75.8833 109.698C 75.98 109.698 76.0767 109.698 76.1733 109.698C 76.27 109.698 76.3667 109.698 76.4633 109.698C 76.6567 109.698 76.85 109.698 77.0433 109.698C 77.14 109.698 77.2367 109.698 77.3333 109.698C 77.43 109.698 77.5267 109.698 77.5267 109.698C 77.72 109.698 77.9133 109.698 78.1067 109.698C 78.2033 109.698 78.3 109.698 78.3967 109.698C 78.4933 109.698 78.4933 109.698 78.59 109.698C 78.88 109.698 79.0733 109.698 79.3633 109.601C 79.46 109.601 79.5567 109.601 79.6533 109.601L 79.75 109.601C 80.1367 109.601 80.62 109.504 81.0067 109.407C 81.0067 109.407 81.0067 109.407 81.1033 109.407C 81.2 109.407 81.2967 109.31 81.49 109.31C 81.6833 109.31 81.8767 109.213 82.07 109.213C 82.2633 109.213 82.36 109.116 82.4567 109.116C 82.65 109.019 82.8433 109.019 83.0367 108.922L 83.1333 108.922C 83.23 108.922 83.23 108.825 83.3267 108.825C 83.6167 108.728 83.9067 108.631 84.1967 108.534C 84.2933 108.534 84.39 108.437 84.4867 108.437C 84.8733 108.243 85.1633 108.146 85.55 107.951L 151.767 69.4286L 151.863 69.3315C 151.96 69.2345 152.057 69.2345 152.153 69.1375C 152.25 69.0404 152.443 68.9434 152.54 68.8464C 152.637 68.7493 152.733 68.6523 152.83 68.5553C 152.927 68.4582 153.023 68.3612 153.12 68.2642C 153.12 68.2642 153.12 68.2641 153.217 68.1671L 153.313 68.0701C 153.507 67.876 153.603 67.779 153.797 67.5849L 153.893 67.4879C 153.893 67.4879 153.893 67.3908 153.99 67.3908C 154.087 67.2938 154.183 67.0997 154.28 67.0027C 154.28 66.9057 154.377 66.9057 154.377 66.8086L 154.377 66.7116C 154.473 66.6146 154.473 66.5175 154.57 66.3235C 154.57 66.2264 154.667 66.2264 154.667 66.1294C 154.667 66.1294 154.667 66.1294 154.667 66.0323C 154.667 65.9353 154.763 65.8383 154.763 65.7412C 154.763 65.6442 154.86 65.5472 154.86 65.5472C 154.86 65.5472 154.86 65.5472 154.86 65.4501C 154.86 65.3531 154.86 65.2561 154.86 65.062C 154.86 64.965 154.86 64.8679 154.86 64.8679L 154.86 64.7709L 154.957 44.9757C 155.053 45.2668 154.957 45.3639 154.957 45.4609ZM 0.0966667 45.3639C 0.0966667 45.4609 0.0966667 45.5579 0.0966667 45.655C 0.0966667 45.5579 0.0966667 45.4609 0.0966667 45.3639Z" transform="translate(10 6)" fill="url(#paint0_linear)"/>
</g>
<g id="Group">
<g id="Group_2">
<g id="Group_3">
<g id="Vector_2">
<path d="M 151.622 40.6092C 155.875 43.1321 155.972 47.1105 151.719 49.6334L 85.4054 88.2534C 81.1521 90.7763 74.1921 90.7763 69.9387 88.2534L 3.23875 49.5364C -1.01459 47.0135 -1.11125 43.035 3.14208 40.5121L 69.3587 1.89218C 73.6121 -0.630728 80.5721 -0.630728 84.8254 1.89218L 151.622 40.6092Z" transform="translate(10.1445 6)" fill="url(#paint1_linear)"/>
</g>
</g>
</g>
</g>
</g>
<g id="Group_4">
<g id="Group_5">
<g id="Vector_3">
<path d="M 56.0785 37.5062C 55.2608 39.2646 53.7114 40.7657 51.4734 42.0524C 49.0633 43.4677 46.3089 44.2826 43.2532 44.7115C 40.1975 45.1404 37.1418 45.0975 34.043 44.5399C 31.1165 44.0253 28.6203 43.1675 26.4684 41.9237L 26.1241 41.7093C 24.1873 40.5942 22.8532 39.3504 21.9063 38.0208C 21.4329 37.3346 21.0886 36.6913 20.8734 36.0051L 10.6734 36.0051C 10.4152 36.3053 10.0709 36.5626 9.68354 36.82C 8.60759 37.4204 7.18734 37.7635 5.68101 37.7635C 4.17468 37.7635 2.75443 37.4204 1.67848 36.82C 0.602532 36.2195 0 35.4046 0 34.504C 0 33.6462 0.559494 32.8313 1.63544 32.188C 2.71139 31.5875 4.13165 31.2444 5.63797 31.2444C 7.1443 31.2444 8.56456 31.5875 9.64051 32.188C 10.1139 32.4453 10.5013 32.7884 10.7595 33.1315L 20.6152 33.1315C 20.7873 32.1022 21.2608 31.0729 22.0354 30.0864C 22.8962 28.9713 24.1013 27.942 25.6937 27.0413L 26.1671 26.784C 28.4051 25.4973 31.2025 24.7253 34.2582 24.2965C 35.7646 24.082 37.3139 24.0391 38.8203 24.082L 34.6025 9.3283L 34.3443 8.21319C 33.0962 8.04163 31.8911 7.69852 30.9443 7.09808C 27.9747 5.5112 27.9747 2.8521 30.8152 1.22233C 33.6557 -0.407443 38.3038 -0.407443 41.1443 1.22233C 44.0278 2.8521 44.0278 5.55409 41.1873 7.18386C 40.7139 7.44119 40.1544 7.65564 39.5949 7.82719C 40.843 13.0167 42.9949 21.8947 43.6835 24.5967C 45.6633 24.9827 47.5139 25.5402 49.1063 26.2264L 55.2177 22.6667C 54.2278 21.2514 54.8304 19.7503 56.7241 18.6351C 59.3063 17.134 63.481 17.1769 66.0633 18.6351C 68.6456 20.0934 68.6456 22.538 66.0633 23.9962C 64.1696 25.0685 61.5013 25.4116 59.0481 24.854L 52.9367 28.4138C 54.443 29.5289 55.4329 30.7298 56.0354 32.1022C 56.8101 33.9464 56.8532 35.7477 56.0785 37.5062ZM 39.1646 40.0795C 41.7038 39.9937 43.7266 39.5219 45.319 38.6213C 45.5342 38.4926 45.7924 38.3211 46.0076 38.1924C 47.0405 37.4633 47.7291 36.6055 48.0734 35.7049C 48.4177 34.7613 48.3316 33.8606 47.8152 32.9171C 47.2987 32.0593 46.481 31.2873 45.362 30.644L 45.2329 30.5582C 43.9848 29.8291 42.5215 29.4002 40.8 29.1858C 39.0354 28.9713 37.357 29.0142 35.6785 29.3144C 34.0861 29.5718 32.7949 30.0864 31.6759 30.7298L 31.3316 30.9442C 30.1696 31.6304 29.481 32.4882 29.1797 33.4746C 28.8354 34.4611 28.8785 35.4046 29.438 36.3911C 29.9114 37.2488 30.643 37.978 31.6759 38.5784L 31.9772 38.75C 33.7418 39.7793 36.281 40.1653 39.1646 40.0795Z" transform="translate(51 22)" fill="white"/>
</g>
</g>
</g>
</g>
</g>
<defs>
<filter id="filter0_d" x="0" y="0" width="175.005" height="129.698" filterUnits="userSpaceOnUse" color-interpolation-filters="sRGB">
<feFlood flood-opacity="0" result="BackgroundImageFix"/>
<feColorMatrix in="SourceAlpha" type="matrix" values="0 0 0 0 0 0 0 0 0 0 0 0 0 0 0 0 0 0 255 0"/>
<feOffset dy="4"/>
<feGaussianBlur stdDeviation="5"/>
<feColorMatrix type="matrix" values="0 0 0 0 0 0 0 0 0 0 0 0 0 0 0 0 0 0 0.1 0"/>
<feBlend mode="normal" in2="BackgroundImageFix" result="effect1_dropShadow"/>
<feBlend mode="normal" in="SourceGraphic" in2="effect1_dropShadow" result="shape"/>
</filter>

<linearGradient id="paint0_linear" x2="1" gradientUnits="userSpaceOnUse" gradientTransform="matrix(0 109.698 -155 0 155 0)">
<stop stop-color="#F96D1F"/>
<stop offset="1" stop-color="#FA6C05"/>
</linearGradient>
<linearGradient id="paint1_linear" x2="1" gradientUnits="userSpaceOnUse" gradientTransform="matrix(0 90.1456 -154.861 0 154.861 0)">
<stop stop-color="#F8941F"/>
<stop offset="1" stop-color="#F8761F"/>
</linearGradient>

</defs>
</svg>

