<svg width="156" height="110" viewBox="0 0 156 110" version="1.1" xmlns="http://www.w3.org/2000/svg" xmlns:xlink="http://www.w3.org/1999/xlink">
<g id="Canvas" fill="none">
<g id="Group 2.13">
<g id="Group 3">
<g id="Vector">
<path d="M 154.957 45.4609C 155.15 43.7143 154.087 41.9677 151.767 40.6092L 85.0667 1.89218C 80.8133 -0.630728 73.8533 -0.630728 69.6 1.89218L 3.19 40.6092C 1.06333 41.8706 0 43.4232 0 45.0728L 0 64.8679C 0 66.5175 1.06333 68.1671 3.19 69.4286L 69.89 108.146C 70.3733 108.437 70.8567 108.631 71.34 108.825L 71.4367 108.825C 71.4367 108.825 71.4367 108.825 71.5333 108.825C 71.92 109.019 72.3067 109.116 72.6933 109.213L 72.79 109.213C 72.8867 109.213 72.9833 109.213 73.08 109.31C 73.2733 109.407 73.5633 109.407 73.7567 109.504C 73.8533 109.504 73.8533 109.504 73.95 109.504C 74.0467 109.504 74.1433 109.504 74.24 109.504C 74.4333 109.504 74.6267 109.601 74.82 109.601C 74.9167 109.601 75.0133 109.601 75.0133 109.601C 75.11 109.601 75.2067 109.601 75.3033 109.601C 75.4967 109.601 75.69 109.601 75.8833 109.698C 75.98 109.698 76.0767 109.698 76.1733 109.698C 76.27 109.698 76.3667 109.698 76.4633 109.698C 76.6567 109.698 76.85 109.698 77.0433 109.698C 77.14 109.698 77.2367 109.698 77.3333 109.698C 77.43 109.698 77.5267 109.698 77.5267 109.698C 77.72 109.698 77.9133 109.698 78.1067 109.698C 78.2033 109.698 78.3 109.698 78.3967 109.698C 78.4933 109.698 78.4933 109.698 78.59 109.698C 78.88 109.698 79.0733 109.698 79.3633 109.601C 79.46 109.601 79.5567 109.601 79.6533 109.601L 79.75 109.601C 80.1367 109.601 80.62 109.504 81.0067 109.407C 81.0067 109.407 81.0067 109.407 81.1033 109.407C 81.2 109.407 81.2967 109.31 81.49 109.31C 81.6833 109.31 81.8767 109.213 82.07 109.213C 82.2633 109.213 82.36 109.116 82.4567 109.116C 82.65 109.019 82.8433 109.019 83.0367 108.922L 83.1333 108.922C 83.23 108.922 83.23 108.825 83.3267 108.825C 83.6167 108.728 83.9067 108.631 84.1967 108.534C 84.2933 108.534 84.39 108.437 84.4867 108.437C 84.8733 108.243 85.1633 108.146 85.55 107.951L 151.767 69.4286L 151.863 69.3315C 151.96 69.2345 152.057 69.2345 152.153 69.1375C 152.25 69.0404 152.443 68.9434 152.54 68.8464C 152.637 68.7493 152.733 68.6523 152.83 68.5553C 152.927 68.4582 153.023 68.3612 153.12 68.2642C 153.12 68.2642 153.12 68.2641 153.217 68.1671L 153.313 68.0701C 153.507 67.876 153.603 67.779 153.797 67.5849L 153.893 67.4879C 153.893 67.4879 153.893 67.3908 153.99 67.3908C 154.087 67.2938 154.183 67.0997 154.28 67.0027C 154.28 66.9057 154.377 66.9057 154.377 66.8086L 154.377 66.7116C 154.473 66.6146 154.473 66.5175 154.57 66.3235C 154.57 66.2264 154.667 66.2264 154.667 66.1294C 154.667 66.1294 154.667 66.1294 154.667 66.0323C 154.667 65.9353 154.763 65.8383 154.763 65.7412C 154.763 65.6442 154.86 65.5472 154.86 65.5472C 154.86 65.5472 154.86 65.5472 154.86 65.4501C 154.86 65.3531 154.86 65.2561 154.86 65.062C 154.86 64.965 154.86 64.8679 154.86 64.8679L 154.86 64.7709L 154.957 44.9757C 155.053 45.2668 154.957 45.3639 154.957 45.4609ZM 0.0966667 45.3639C 0.0966667 45.4609 0.0966667 45.5579 0.0966667 45.655C 0.0966667 45.5579 0.0966667 45.4609 0.0966667 45.3639Z" fill="url(#paint0_linear)"/>
</g>
<g id="Group">
<g id="Group_2">
<g id="Group_3">
<g id="Vector_2">
<path d="M 151.622 40.6092C 155.875 43.1321 155.972 47.1105 151.719 49.6334L 85.4054 88.2534C 81.1521 90.7763 74.1921 90.7763 69.9387 88.2534L 3.23875 49.5364C -1.01459 47.0135 -1.11125 43.035 3.14208 40.5121L 69.3587 1.89218C 73.6121 -0.630728 80.5721 -0.630728 84.8254 1.89218L 151.622 40.6092Z" transform="translate(0.144531 0)" fill="url(#paint1_linear)"/>
</g>
</g>
</g>
</g>
</g>
<g id="Group_4">
<g id="Group_5">
<g id="Group_6">
<g id="Vector_3">
<path d="M 23.8444 15.8821L 35.3167 22.5491L 28.7932 26.356L 0 9.64713C 1.75868 8.20671 4.64209 6.23129 8.11855 4.19412C 12.413 1.68368 16.0735 0.304999 19.7749 0.037493C 22.8628 -0.168281 25.8689 0.469619 28.5478 2.0335C 32.2697 4.19412 32.2084 7.219 30.6133 9.19443L 30.736 9.27674C 33.5785 8.57711 36.6459 9.05039 40.0611 10.1821C 44.2533 11.5608 48.9567 13.2482 50.654 13.5774L 43.9465 17.4871C 42.6377 17.2813 39.5703 16.3142 35.1327 14.7297C 30.7155 13.063 28.4865 13.2276 25.7871 14.7503L 23.8444 15.8821ZM 19.0592 13.1453L 21.6358 11.6431C 24.9078 9.72944 25.1941 7.65112 22.6379 6.16955C 19.959 4.60567 16.8097 4.89375 13.7627 6.62225C 12.1676 7.54824 11.3905 8.16556 11.002 8.4948L 19.0592 13.1453Z" transform="translate(42 39.6433)" fill="white"/>
</g>
</g>
<g id="Group_7">
<g id="Vector_4">
<path d="M 46.1142 13.2947C 45.6029 16.5665 42.1878 19.9824 36.5028 23.3159C 33.1081 25.3119 30.4701 26.5877 28.6296 27.4108L 3.12038e-07 10.7637C 2.02453 9.13812 4.94884 7.16269 8.2617 5.22841C 13.7627 2.01834 18.323 0.516193 23.2309 0.104645C 28.4865 -0.348057 33.967 0.639657 39.1204 3.62338C 44.7032 6.8746 46.5436 10.2904 46.1142 13.2947ZM 30.3679 20.7643C 31.0632 20.5174 31.963 19.9824 32.7809 19.5091C 38.7523 16.0521 39.3249 11.8955 32.372 7.84174C 32.3311 7.82116 32.2902 7.80059 32.2697 7.78001C 26.2779 4.30243 19.6113 4.52878 14.0081 7.80059C 12.5561 8.64426 11.7382 9.28216 11.3087 9.6937L 30.3679 20.7643Z" transform="translate(66.8262 24)" fill="white"/>
</g>
</g>
</g>
</g>
</g>
</g>
<defs>

<linearGradient id="paint0_linear" x2="1" gradientUnits="userSpaceOnUse" gradientTransform="matrix(0 109.698 -155 0 155 0)">
<stop stop-color="#4A5B7D"/>
<stop offset="1" stop-color="#445475"/>
</linearGradient>
<linearGradient id="paint1_linear" x2="1" gradientUnits="userSpaceOnUse" gradientTransform="matrix(0 90.1456 -154.861 0 154.861 0)">
<stop stop-color="#52658C"/>
<stop offset="1" stop-color="#4B5C7F"/>
</linearGradient>

</defs>
</svg>

