<svg width="155" height="110" viewBox="0 0 155 110" version="1.1" xmlns="http://www.w3.org/2000/svg" xmlns:xlink="http://www.w3.org/1999/xlink">
<g id="Canvas" fill="none">
<g id="Group 2.2">
<g id="Vector">
<path d="M 154.957 45.4609C 155.15 43.7143 154.087 41.9677 151.767 40.6092L 85.0667 1.89218C 80.8133 -0.630728 73.8533 -0.630728 69.6 1.89218L 3.19 40.6092C 1.06333 41.8706 0 43.4232 0 45.0728L 0 64.8679C 0 66.5175 1.06333 68.1671 3.19 69.4286L 69.89 108.146C 70.3733 108.437 70.8567 108.631 71.34 108.825L 71.4367 108.825C 71.4367 108.825 71.4367 108.825 71.5333 108.825C 71.92 109.019 72.3067 109.116 72.6933 109.213L 72.79 109.213C 72.8867 109.213 72.9833 109.213 73.08 109.31C 73.2733 109.407 73.5633 109.407 73.7567 109.504C 73.8533 109.504 73.8533 109.504 73.95 109.504C 74.0467 109.504 74.1433 109.504 74.24 109.504C 74.4333 109.504 74.6267 109.601 74.82 109.601C 74.9167 109.601 75.0133 109.601 75.0133 109.601C 75.11 109.601 75.2067 109.601 75.3033 109.601C 75.4967 109.601 75.69 109.601 75.8833 109.698C 75.98 109.698 76.0767 109.698 76.1733 109.698C 76.27 109.698 76.3667 109.698 76.4633 109.698C 76.6567 109.698 76.85 109.698 77.0433 109.698C 77.14 109.698 77.2367 109.698 77.3333 109.698C 77.43 109.698 77.5267 109.698 77.5267 109.698C 77.72 109.698 77.9133 109.698 78.1067 109.698C 78.2033 109.698 78.3 109.698 78.3967 109.698C 78.4933 109.698 78.4933 109.698 78.59 109.698C 78.88 109.698 79.0733 109.698 79.3633 109.601C 79.46 109.601 79.5567 109.601 79.6533 109.601L 79.75 109.601C 80.1367 109.601 80.62 109.504 81.0067 109.407C 81.0067 109.407 81.0067 109.407 81.1033 109.407C 81.2 109.407 81.2967 109.31 81.49 109.31C 81.6833 109.31 81.8767 109.213 82.07 109.213C 82.2633 109.213 82.36 109.116 82.4567 109.116C 82.65 109.019 82.8433 109.019 83.0367 108.922L 83.1333 108.922C 83.23 108.922 83.23 108.825 83.3267 108.825C 83.6167 108.728 83.9067 108.631 84.1967 108.534C 84.2933 108.534 84.39 108.437 84.4867 108.437C 84.8733 108.243 85.1633 108.146 85.55 107.951L 151.767 69.4286L 151.863 69.3315C 151.96 69.2345 152.057 69.2345 152.153 69.1375C 152.25 69.0404 152.443 68.9434 152.54 68.8464C 152.637 68.7493 152.733 68.6523 152.83 68.5553C 152.927 68.4582 153.023 68.3612 153.12 68.2642C 153.12 68.2642 153.12 68.2641 153.217 68.1671L 153.313 68.0701C 153.507 67.876 153.603 67.779 153.797 67.5849L 153.893 67.4879C 153.893 67.4879 153.893 67.3908 153.99 67.3908C 154.087 67.2938 154.183 67.0997 154.28 67.0027C 154.28 66.9057 154.377 66.9057 154.377 66.8086L 154.377 66.7116C 154.473 66.6146 154.473 66.5175 154.57 66.3235C 154.57 66.2264 154.667 66.2264 154.667 66.1294C 154.667 66.1294 154.667 66.1294 154.667 66.0323C 154.667 65.9353 154.763 65.8383 154.763 65.7412C 154.763 65.6442 154.86 65.5472 154.86 65.5472C 154.86 65.5472 154.86 65.5472 154.86 65.4501C 154.86 65.3531 154.86 65.2561 154.86 65.062C 154.86 64.965 154.86 64.8679 154.86 64.8679L 154.86 64.7709L 154.957 44.9757C 155.053 45.2668 154.957 45.3639 154.957 45.4609ZM 0.0966667 45.3639C 0.0966667 45.4609 0.0966667 45.5579 0.0966667 45.655C 0.0966667 45.5579 0.0966667 45.4609 0.0966667 45.3639Z" fill="url(#paint0_linear)"/>
</g>
<g id="Group">
<g id="Group_2">
<g id="Group_3">
<g id="Vector_2">
<path d="M 151.622 40.6092C 155.875 43.1321 155.972 47.1105 151.719 49.6334L 85.4054 88.2534C 81.1521 90.7763 74.1921 90.7763 69.9387 88.2534L 3.23875 49.5364C -1.01459 47.0135 -1.11125 43.035 3.14208 40.5121L 69.3587 1.89218C 73.6121 -0.630728 80.5721 -0.630728 84.8254 1.89218L 151.622 40.6092Z" fill="url(#paint1_linear)"/>
</g>
</g>
</g>
</g>
<g id="Group_4">
<g id="Group_5">
<g id="Group_6">
<g id="Group_7">
<g id="Vector_3">
<path d="M 4.26439 14.9779C 6.61954 14.9779 8.52877 11.625 8.52877 7.48894C 8.52877 3.35291 6.61954 0 4.26439 0C 1.90923 0 0 3.35291 0 7.48894C 0 11.625 1.90923 14.9779 4.26439 14.9779Z" transform="matrix(0.00288201 -1 1 0.00278474 70.54 56.9302)" fill="white"/>
</g>
</g>
<g id="Group_8">
<g id="Group_9">
<g id="Vector_4">
<path d="M 12.7633 1.2426C 15.6938 2.90882 15.7129 5.61054 12.8016 7.27676C 9.89033 8.94297 5.14032 8.94297 2.20986 7.27676C -0.72059 5.61054 -0.739743 2.90882 2.17156 1.2426C 5.09243 -0.414201 9.83287 -0.414201 12.7633 1.2426Z" transform="translate(70.4756 34.0454)" fill="white"/>
</g>
</g>
<g id="Group_10">
<g id="Vector_5">
<path d="M 12.7633 1.24966C 15.6938 2.91588 15.7129 5.6176 12.8016 7.28382C 9.89033 8.95003 5.14032 8.95003 2.20987 7.28382C -0.720589 5.6176 -0.739744 2.91588 2.17156 1.24966C 5.09243 -0.416555 9.83288 -0.416555 12.7633 1.24966Z" transform="translate(83.1455 41.2307)" fill="white"/>
</g>
</g>
<g id="Group_11">
<g id="Vector_6">
<path d="M 12.7633 1.24966C 15.6938 2.91588 15.7129 5.6176 12.8016 7.28382C 9.89033 8.95003 5.14032 8.95003 2.20986 7.28382C -0.72059 5.6176 -0.739742 2.91588 2.17156 1.24966C 5.08286 -0.416555 9.83287 -0.416555 12.7633 1.24966Z" transform="translate(57.8916 41.2307)" fill="white"/>
</g>
</g>
<g id="Group_12">
<g id="Vector_7">
<path d="M 61.3781 6.00474C 75.4749 14.0063 75.5516 26.9972 61.5409 34.9988C 47.5303 43.0004 24.7187 43.0004 10.6219 34.9988C -3.47493 26.9972 -3.55155 14.0063 10.4591 6.00474C 24.4697 -1.99687 47.2813 -2.00628 61.3781 6.00474ZM 17.3255 31.1674C 27.7449 37.0792 44.4466 37.0792 54.8085 31.1674C 65.1609 25.2557 65.1034 15.7385 54.684 9.82668C 44.2646 3.9149 27.563 3.9149 17.201 9.82668C 6.84869 15.7385 6.90615 25.2557 17.3255 31.1674Z" transform="translate(42 25.0007)" fill="white"/>
</g>
</g>
</g>
</g>
</g>
</g>
</g>
</g>
<defs>

<linearGradient id="paint0_linear" x2="1" gradientUnits="userSpaceOnUse" gradientTransform="matrix(0 109.698 -155 0 155 0)">
<stop stop-color="#D9293D"/>
<stop offset="1" stop-color="#D1263A"/>
</linearGradient>
<linearGradient id="paint1_linear" x2="1" gradientUnits="userSpaceOnUse" gradientTransform="matrix(0 90.1456 -154.861 0 154.861 0)">
<stop stop-color="#FF4E63"/>
<stop offset="1" stop-color="#F43148"/>
</linearGradient>

</defs>
</svg>

