<svg width="156" height="110" viewBox="0 0 156 110" version="1.1" xmlns="http://www.w3.org/2000/svg" xmlns:xlink="http://www.w3.org/1999/xlink">
<g id="Canvas" fill="none">
<g id="Group 2.4">
<g id="Vector">
<path d="M 154.957 45.4609C 155.15 43.7143 154.087 41.9677 151.767 40.6092L 85.0667 1.89218C 80.8133 -0.630728 73.8533 -0.630728 69.6 1.89218L 3.19 40.6092C 1.06333 41.8706 0 43.4232 0 45.0728L 0 64.8679C 0 66.5175 1.06333 68.1671 3.19 69.4286L 69.89 108.146C 70.3733 108.437 70.8567 108.631 71.34 108.825L 71.4367 108.825C 71.4367 108.825 71.4367 108.825 71.5333 108.825C 71.92 109.019 72.3067 109.116 72.6933 109.213L 72.79 109.213C 72.8867 109.213 72.9833 109.213 73.08 109.31C 73.2733 109.407 73.5633 109.407 73.7567 109.504C 73.8533 109.504 73.8533 109.504 73.95 109.504C 74.0467 109.504 74.1433 109.504 74.24 109.504C 74.4333 109.504 74.6267 109.601 74.82 109.601C 74.9167 109.601 75.0133 109.601 75.0133 109.601C 75.11 109.601 75.2067 109.601 75.3033 109.601C 75.4967 109.601 75.69 109.601 75.8833 109.698C 75.98 109.698 76.0767 109.698 76.1733 109.698C 76.27 109.698 76.3667 109.698 76.4633 109.698C 76.6567 109.698 76.85 109.698 77.0433 109.698C 77.14 109.698 77.2367 109.698 77.3333 109.698C 77.43 109.698 77.5267 109.698 77.5267 109.698C 77.72 109.698 77.9133 109.698 78.1067 109.698C 78.2033 109.698 78.3 109.698 78.3967 109.698C 78.4933 109.698 78.4933 109.698 78.59 109.698C 78.88 109.698 79.0733 109.698 79.3633 109.601C 79.46 109.601 79.5567 109.601 79.6533 109.601L 79.75 109.601C 80.1367 109.601 80.62 109.504 81.0067 109.407C 81.0067 109.407 81.0067 109.407 81.1033 109.407C 81.2 109.407 81.2967 109.31 81.49 109.31C 81.6833 109.31 81.8767 109.213 82.07 109.213C 82.2633 109.213 82.36 109.116 82.4567 109.116C 82.65 109.019 82.8433 109.019 83.0367 108.922L 83.1333 108.922C 83.23 108.922 83.23 108.825 83.3267 108.825C 83.6167 108.728 83.9067 108.631 84.1967 108.534C 84.2933 108.534 84.39 108.437 84.4867 108.437C 84.8733 108.243 85.1633 108.146 85.55 107.951L 151.767 69.4286L 151.863 69.3315C 151.96 69.2345 152.057 69.2345 152.153 69.1375C 152.25 69.0404 152.443 68.9434 152.54 68.8464C 152.637 68.7493 152.733 68.6523 152.83 68.5553C 152.927 68.4582 153.023 68.3612 153.12 68.2642C 153.12 68.2642 153.12 68.2642 153.217 68.1671L 153.313 68.0701C 153.507 67.876 153.603 67.779 153.797 67.5849L 153.893 67.4879C 153.893 67.4879 153.893 67.3908 153.99 67.3908C 154.087 67.2938 154.183 67.0997 154.28 67.0027C 154.28 66.9057 154.377 66.9057 154.377 66.8086L 154.377 66.7116C 154.473 66.6145 154.473 66.5175 154.57 66.3235C 154.57 66.2264 154.667 66.2264 154.667 66.1294C 154.667 66.1294 154.667 66.1294 154.667 66.0323C 154.667 65.9353 154.763 65.8383 154.763 65.7412C 154.763 65.6442 154.86 65.5472 154.86 65.5472C 154.86 65.5472 154.86 65.5472 154.86 65.4501C 154.86 65.3531 154.86 65.2561 154.86 65.062C 154.86 64.965 154.86 64.8679 154.86 64.8679L 154.86 64.7709L 154.957 44.9757C 155.053 45.2668 154.957 45.3639 154.957 45.4609ZM 0.0966667 45.3639C 0.0966667 45.4609 0.0966667 45.5579 0.0966667 45.655C 0.0966667 45.5579 0.0966667 45.4609 0.0966667 45.3639Z" fill="url(#paint0_linear)"/>
</g>
<g id="Group">
<g id="Group_2">
<g id="Group_3">
<g id="Vector_2">
<path d="M 151.622 40.6092C 155.875 43.1321 155.972 47.1105 151.719 49.6334L 85.4054 88.2534C 81.1521 90.7763 74.1921 90.7763 69.9387 88.2534L 3.23875 49.5364C -1.01459 47.0135 -1.11125 43.035 3.14208 40.5121L 69.3587 1.89218C 73.6121 -0.630728 80.5721 -0.630728 84.8254 1.89218L 151.622 40.6092Z" transform="translate(0.144531 0)" fill="url(#paint1_linear)"/>
</g>
</g>
</g>
<g id="Group_4">
<g id="Group_5">
<g id="Group_6">
<g id="Vector_3">
<path d="M 2.06081e-06 0.187096C 0.0337664 0.119061 0.0675277 0.0510252 0.118174 -1.03813e-06C 0.0675277 0.0510252 0.0337664 0.119061 2.06081e-06 0.187096Z" transform="translate(89.3965 48.2205)" fill="#F5DCBA"/>
</g>
</g>
<g id="Group_7">
<g id="Vector_4">
<path d="M 0.371409 0C 0.253234 0 0.135056 0 -1.03041e-06 0C 0.118174 0 0.253234 0 0.371409 0Z" transform="translate(73.7305 47.9824)" fill="#F5DCBA"/>
</g>
</g>
<g id="Group_8">
<g id="Vector_5">
<path d="M -1.03041e-06 0C 0.0168811 0 0.0168832 0 0.0337654 0C 0.0168832 0 0.0168811 0 -1.03041e-06 0Z" transform="translate(71.2822 47.8123)" fill="#F5DCBA"/>
</g>
</g>
<g id="Group_9">
<g id="Group_10">
<g id="Vector_6">
<path d="M 3.01769 5.0516C 3.00081 5.10262 1.22818 10.4944 1.22818 14.4234C 1.22818 16.5665 2.74757 26.0234 2.74757 26.0234C 1.53206 23.7442 1.16065 22.5026 0.586655 19.6791C 0.265894 18.0803 0.0633077 16.4815 0.0126611 14.9167C -0.00422106 14.3894 -0.00422106 13.8621 0.0126611 13.3519C 0.0126611 13.2838 -0.00422106 12.7055 0.097072 11.7871C 0.130836 11.4299 0.181483 11.0897 0.249012 10.7155C 0.316541 10.3583 0.38407 9.98413 0.485363 9.57592C 0.552891 9.26976 0.637302 8.96361 0.721713 8.64044C 0.77236 8.47035 0.823007 8.28326 0.873653 8.11317C 0.958064 7.84103 1.04247 7.56889 1.14377 7.29675C 1.26194 6.97358 1.397 6.65042 1.53206 6.31024C 1.88658 5.49382 2.30864 4.62638 2.84887 3.75893C 3.70986 2.39823 4.82408 1.05454 6.29283 -6.48832e-08C 5.04355 1.19061 3.91244 2.84046 3.01769 5.0516Z" transform="translate(48.0225 23.5579)" fill="white"/>
</g>
</g>
<g id="Group_11">
<g id="Vector_7">
<path d="M 2.57602e-07 5.19066e-07L 1.06358 0.374192L 1.13111 0.408209L 2.57602e-07 5.19066e-07Z" transform="translate(43.5957 32.0449)" fill="#0788BF"/>
</g>
</g>
<g id="Group_12">
<g id="Vector_8">
<path d="M 3.54526 5.19066e-07C 3.46085 0.323167 3.37644 0.629324 3.30891 0.935481L 2.57602e-07 1.10557L 3.54526 5.19066e-07Z" transform="translate(45.1992 32.2151)" fill="#122030"/>
</g>
</g>
<g id="Group_13">
<g id="Vector_9">
<path d="M 0.0291877 0.604874C -0.0552232 0.383761 0.0460657 0.179655 0.299298 0.0776021C 0.636942 -0.0754765 1.17717 0.00956743 1.56546 0.230681C 1.63299 0.264699 1.68364 0.298717 1.73428 0.349743C 2.13946 0.672909 2.13946 1.06411 1.73428 1.2342C 1.5317 1.31924 1.27847 1.33625 1.02524 1.28522C 0.822649 1.25121 0.636942 1.18317 0.46812 1.08112C 0.417474 1.0471 0.349945 1.01308 0.299298 0.962058C 0.164241 0.825988 0.062952 0.706927 0.0291877 0.604874Z" transform="translate(86.0752 36.1177)" fill="#9C7356"/>
</g>
</g>
<g id="Group_14">
<g id="Vector_10">
<path d="M 6.38146 8.02813C 6.21264 8.86156 5.92564 9.66096 5.52047 10.4264C 2.80244 11.1407 0.135055 10.9196 -2.06081e-06 10.9196C 0.0675266 10.8516 1.28304 9.69498 2.38039 7.70496C 3.71408 5.28972 4.25431 2.61935 3.66343 -2.59533e-07C 3.6972 0.051026 4.3556 0.629324 5.04777 1.66686C 5.94253 3.01055 6.87104 5.10262 6.43211 7.773C 6.41523 7.82402 6.39835 7.92607 6.38146 8.02813Z" transform="translate(106.38 37.624)" fill="#EABE8D"/>
</g>
</g>
<g id="Group_15">
<g id="Vector_11">
<path d="M 1.8665 14.6721C 0.617218 15.4885 0.667861 16.475 1.47821 17.2914C 1.25874 17.2574 1.02239 17.1724 0.802919 17.0363C 0.465275 16.8492 0.178279 16.5601 0.060104 16.1859C -0.615183 14.1278 4.55076 12.9712 7.97784 6.93312C 9.09207 4.96011 9.80112 3.41231 8.88948 1.45631C 8.63625 0.929035 8.28172 0.673904 8.26484 0.435782C 9.19336 -0.0914894 10.2907 -0.108499 10.8478 0.214667C 11.0335 0.31672 11.1686 0.469798 11.2023 0.656894C 12.0127 5.79353 8.72066 10.4029 2.69372 14.1618C 2.42361 14.3319 1.8665 14.6721 1.8665 14.6721Z" transform="translate(88.374 32.885)" fill="#EABE8D"/>
</g>
</g>
<g id="Group_16">
<g id="Vector_12">
<path d="M 0.270114 0.153078C 0.202585 0.119061 0.118176 0.068035 0.0506476 0.0340175C 0.0337654 0.0170087 0.0168801 0.0170093 -2.06081e-06 5.19066e-07C 0.0168801 0.0170093 0.0337664 0.0340175 0.0675308 0.0340175C 0.135059 0.068035 0.185702 0.102053 0.253231 0.136071L 0.270114 0.153078Z" transform="translate(91.8613 50.0742)" fill="#F5DCBA"/>
</g>
</g>
<g id="Group_17">
<g id="Vector_13">
<path d="M 16.2774 2.34721C 15.9904 4.37125 14.6399 10.1202 7.76882 13.9132C 7.71818 13.9302 6.87407 14.4234 5.84426 14.7976C 4.49368 15.2909 3.19375 15.495 1.79253 15.0527C 2.56911 14.7296 3.51451 14.2873 4.49368 13.709C 10.031 10.4604 11.6855 6.68444 11.4154 6.53136C 11.3478 6.54837 11.331 6.56537 11.3141 6.58238C 10.7907 7.07564 6.53643 12.7566 0.712075 14.5255C 0.779603 14.5765 0.864014 14.6275 0.965307 14.6785C 1.01595 14.7126 1.0666 14.7296 1.11725 14.7636C 1.0666 14.7466 1.01595 14.7126 0.965307 14.6785C 0.914661 14.6445 0.880893 14.6275 0.830247 14.5935C 0.813365 14.5765 0.796485 14.5765 0.779602 14.5595C 0.76272 14.5425 0.74584 14.5255 0.728958 14.5255C 0.593901 14.4234 0.475725 14.3384 0.391315 14.2533C -0.537205 13.2498 0.340664 12.9437 1.42112 12.2633C 5.32091 9.83105 7.54936 7.33077 8.81552 5.22168C 10.1661 2.97653 10.5544 0.884454 10.4531 -5.19066e-07C 12.9516 0.374192 14.8593 1.47976 14.9606 1.5478C 15.1126 1.63284 15.2307 1.70087 15.3489 1.76891C 15.7203 1.97301 15.9567 2.12609 16.2774 2.34721Z" transform="translate(90.9463 35.4297)" fill="white"/>
</g>
</g>
<g id="Group_18">
<g id="Vector_14">
<path d="M 33.0275 14.7339C 30.4783 19.5474 23.7423 22.745 18.9816 22.9151C 15.9596 22.9662 13.326 22.1837 13.191 22.1497C 13.2416 22.1837 14.2039 22.9321 14.626 23.2213C 11.9079 22.8131 9.78077 21.6565 9.22366 21.3333C 9.12237 21.2823 9.0886 21.2483 9.0886 21.2483C 9.12237 21.2993 9.62883 22.3028 10.0002 22.8471C 8.48085 22.4559 7.28221 21.8776 6.4381 21.4013C 5.56023 20.8911 5.12129 20.4999 5.08753 20.4829L 5.42517 21.4864C 5.39141 21.4694 4.85118 21.2313 4.10836 20.789C 3.19672 20.2618 2.01497 19.4624 1.30592 18.5439C -0.0784179 16.758 -0.0784168 14.853 0.0566406 14.5468C 0.292991 12.7779 1.62668 11.3662 2.97725 10.3797C 3.33178 9.49523 3.75384 8.59377 4.27718 7.64128C 4.09148 7.55623 3.92266 7.47119 3.75384 7.38614C 1.8968 6.29758 1.82927 4.30756 3.72007 2.98088C 3.75383 2.96387 3.7876 2.92985 3.82136 2.91285C 3.95642 2.8278 4.07459 2.75977 4.20965 2.67472C 4.74988 2.38557 5.35764 2.18147 5.99916 2.0454C 6.79263 1.90933 7.58609 1.92634 8.31202 1.99437C 8.53149 1.73924 8.78472 1.4671 9.07172 1.16094C 9.54442 1.10992 10.1859 0.905813 11.3677 0.6847C 13.039 0.361534 14.8117 -0.0466763 17.7492 0.00434993C 17.7829 0.242472 18.1374 0.497603 18.3907 1.02487C 19.3023 2.98088 18.5933 4.52868 17.479 6.50169C 14.052 12.5398 8.88602 13.6964 9.5613 15.7544C 9.67948 16.1116 9.98336 16.4008 10.3041 16.6049C 10.5236 16.741 10.7768 16.826 10.9794 16.86C 10.9456 16.826 10.9288 16.792 10.895 16.775C 11.1313 17.0301 11.4352 17.2682 11.7898 17.4893C 12.6001 17.9656 13.6974 18.2887 14.9298 18.3738C 17.1752 18.5099 19.5049 17.6254 21.0749 16.7069C 28.0304 12.7779 30.0225 5.95741 28.5369 3.71226C 28.52 3.69525 28.4356 3.55918 28.4356 3.55918C 28.4356 3.55918 28.4525 3.64422 28.4356 3.71226C 28.4187 3.7973 28.2668 11.3662 19.8594 16.0096C 19.8088 16.0266 18.9647 16.5198 17.9349 16.894C 16.5843 17.3873 15.2675 17.5914 13.8494 17.1322C 15.2844 17.5744 16.5843 17.3703 17.918 16.894C 18.9478 16.5198 19.7919 16.0436 19.8425 16.0096C 26.6967 12.2166 28.0642 6.46767 28.3512 4.44363C 28.0304 4.23953 27.7941 4.06944 27.4395 3.86533C 27.3214 3.7973 27.2032 3.72926 27.0512 3.64422C 27.0512 3.64422 27.2876 3.35507 27.7603 3.08293C 28.655 2.55566 29.6004 2.55566 30.2757 2.94686C 30.7484 3.219 31.0692 3.67824 31.1705 4.27355C 31.7614 6.89289 31.2211 9.58027 29.8874 11.9955C 28.7901 13.9855 27.5746 15.1421 27.5071 15.2102C 27.6421 15.2272 30.3095 15.4483 33.0275 14.7339ZM 6.7251 6.21254C 7.45103 6.09348 7.92373 5.7363 7.75491 5.43014C 7.72114 5.3621 7.65362 5.29407 7.55233 5.24304C 7.50168 5.20903 7.45103 5.19202 7.40039 5.17501C 7.45103 4.7668 7.75491 4.3756 8.22761 4.08645C 8.48085 4.13747 8.73407 4.12047 8.93666 4.03542C 9.32495 3.86533 9.32495 3.47413 8.93666 3.15097C 8.88601 3.11695 8.83537 3.06592 8.76784 3.03191C 8.37955 2.81079 7.83932 2.72575 7.50168 2.87883C 7.24844 2.98088 7.16404 3.20199 7.23156 3.4061C 7.16404 3.28704 7.16404 3.16798 7.21468 3.04891C 5.57711 3.20199 4.5473 4.44363 5.32388 5.31108C 5.71217 5.10697 6.30305 4.98791 6.80951 5.03894C 6.60692 5.02193 6.38745 5.03894 6.16798 5.07296C 5.44205 5.19202 4.98623 5.5492 5.13817 5.85536C 5.17194 5.92339 5.23947 5.99143 5.34076 6.04245C 5.62776 6.24656 6.16799 6.31459 6.7251 6.21254Z" transform="translate(78.873 33.2993)" fill="#F5DCBA"/>
</g>
</g>
<g id="Group_19">
<g id="Vector_15">
<path d="M 0.263789 2.26216C -0.512791 1.41173 0.517023 0.170087 2.15459 -2.59533e-07C 2.10395 0.119061 2.12083 0.238122 2.17148 0.357183C 2.22212 0.476244 2.30653 0.595305 2.44159 0.697358C 2.49223 0.731375 2.54288 0.782402 2.61041 0.81642C 2.77923 0.918472 2.98182 0.986507 3.16752 1.02052C 2.69482 1.30967 2.39095 1.70087 2.3403 2.10908C 2.17148 2.04105 1.96889 2.00703 1.73254 1.99002C 1.24296 1.939 0.652079 2.05806 0.263789 2.26216Z" transform="translate(83.9326 36.3484)" fill="#EABE8D"/>
</g>
</g>
<g id="Group_20">
<g id="Vector_16">
<path d="M 1.63299 1.14626C 1.07588 1.24831 0.535649 1.18028 0.23177 1.01019C 0.130477 0.959162 0.0629515 0.891128 0.0291871 0.823093C -0.122752 0.516935 0.333062 0.159751 1.059 0.0406896C 1.27846 0.00667209 1.49794 -0.0103361 1.70052 0.00667261C 1.93687 0.0236814 2.13946 0.0576983 2.30828 0.125733C 2.35893 0.142742 2.40957 0.17676 2.46022 0.193769C 2.56151 0.244795 2.62904 0.312829 2.6628 0.380864C 2.83162 0.670013 2.35893 1.0272 1.63299 1.14626Z" transform="translate(83.9648 38.3657)" fill="#9C7356"/>
</g>
</g>
<g id="Group_21">
<g id="Vector_17">
<path d="M 5.15333 0.638061C 3.26253 1.14832 2.18207 1.6926 1.08473 3.12134C 0.814615 3.47852 0.62891 3.75066 0.443206 3.8357C 0.358796 3.86972 0.291266 3.86972 0.223738 3.8357C 0.0549159 3.73365 -0.0463766 3.41049 0.0211521 2.96826C 0.24062 1.81166 1.47302 0.757122 3.24565 0.280877C 4.02223 0.0767724 5.06892 -0.0592975 5.89615 0.0257462C 6.11562 0.0427549 6.26756 0.0937809 6.33508 0.127798C 6.36885 0.144807 6.38573 0.161816 6.38573 0.178825C 6.4195 0.331904 5.89615 0.450964 5.15333 0.638061Z" transform="translate(73.3877 40.8301)" fill="#9C7356"/>
</g>
</g>
<g id="Group_22">
<g id="Vector_18">
<path d="M 1.56909 13.017C 1.77168 13.9865 2.44696 14.7179 3.52742 15.4493C 3.61183 15.5003 3.71313 15.5513 3.79754 15.5853C 3.57807 15.4833 3.37548 15.3642 3.15601 15.2282C 2.63267 14.922 2.10932 14.5818 1.6535 14.2076C -0.895707 12.1666 -0.389244 9.58126 2.43008 7.94842C 5.43511 6.21353 8.06873 5.41412 8.23755 2.60767C 8.27131 2.01237 8.27131 1.51911 8.84531 0.991843C 8.91284 0.940817 9.01413 0.770729 9.4193 0.549616C 9.82447 0.311493 10.2972 0.141406 10.8712 0.056362C 11.327 -0.011673 11.7997 -0.0116731 12.2724 0.0223444C 11.9854 0.0393531 11.614 0.0733709 11.3101 0.260467C 10.8205 0.515598 10.7868 1.1109 10.8036 1.4851C 11.1919 2.70973 11.175 3.64521 10.4153 4.90385C 9.62189 6.14549 8.4739 7.09798 6.98827 7.9144C 5.90781 8.50971 4.79359 8.95193 3.88195 9.47921C 2.19373 10.4317 1.28209 11.6053 1.56909 13.017Z" transform="translate(64.5137 30.4919)" fill="#F5DCBA"/>
</g>
</g>
<g id="Group_23">
<g id="Vector_19">
<path d="M 0 -1.03813e-06C 0.0168822 -1.03813e-06 0.0168817 0 0.0337638 0.0170087C 0.0168817 0 0 -1.03813e-06 0 -1.03813e-06Z" transform="translate(70.1172 46.8599)" fill="#F5DCBA"/>
</g>
</g>
<g id="Group_24">
<g id="Vector_20">
<path d="M 0.185704 -5.19066e-07C 0.15194 -5.19066e-07 0.0844104 0.0170093 -5.15203e-07 0.0170093C 0.0675282 0.0170093 0.135058 0.0170082 0.185704 -5.19066e-07Z" transform="translate(75.2998 47.9312)" fill="#F5DCBA"/>
</g>
</g>
<g id="Group_25">
<g id="Vector_21">
<path d="M 0.0337649 0C 0.0168827 0 0.0168832 0 1.03041e-06 0C 1.03041e-06 0 0.0168827 0 0.0337649 0Z" transform="translate(74.1016 47.9824)" fill="#F5DCBA"/>
</g>
</g>
<g id="Group_26">
<g id="Vector_22">
<path d="M 2.77053 0.482918C 2.02771 0.857111 1.31866 1.28233 0.727782 2.13277C 0.542078 2.3879 0.440785 2.55798 0.305728 2.55798C 0.271963 2.55798 0.238198 2.55798 0.204434 2.52397C 0.0862584 2.45593 -0.0150367 2.28584 0.00184547 2.03071C 0.0187276 1.74156 0.136906 1.52045 0.305728 1.26532C 0.339492 1.2313 0.356375 1.18028 0.407022 1.14626C 0.508315 1.04421 0.592725 0.942153 0.727782 0.8401C 1.31866 0.346847 2.21341 0.0576994 2.87182 0.00667313C 3.10817 -0.0103356 3.27699 0.00667261 3.34452 0.0406901C 3.3614 0.0406901 3.3614 0.0576983 3.37828 0.0747071C 3.37828 0.17676 3.12505 0.295822 2.77053 0.482918Z" transform="translate(77.5938 41.8184)" fill="#9C7356"/>
</g>
</g>
<g id="Group_27">
<g id="Vector_23">
<path d="M 15.8371 13.1307C 14.4696 14.1173 13.1528 15.529 12.8996 17.2979C 11.262 17.7911 8.71281 17.9612 8.71281 17.9612C 8.74658 17.9442 9.32057 17.6551 9.62445 17.3659C 9.62445 17.3659 9.59068 17.3659 9.52316 17.3829C 9.42186 17.3829 9.35433 17.3999 9.30369 17.3999C 8.24011 17.468 4.79615 17.57 2.14564 16.4475C 2.44952 16.4645 2.80405 16.4645 3.14169 16.4475C 3.71569 16.4134 4.20527 16.3624 4.22215 16.3624C 4.18839 16.3624 4.17151 16.3454 4.13774 16.3454C 4.10398 16.3284 3.69881 16.2093 3.05728 15.9372C 2.83781 15.8351 2.63523 15.7501 2.43264 15.648C 2.382 15.631 2.33135 15.597 2.2807 15.563C 2.19629 15.512 2.11188 15.478 2.01059 15.4269C 0.947012 14.6956 0.254842 13.9642 0.0522554 12.9947C -0.234742 11.583 0.676896 10.4264 2.382 9.45686C 3.29363 8.92959 4.39097 8.48736 5.48832 7.89206C 6.97395 7.07564 8.12193 6.12315 8.9154 4.88151C 9.67509 3.63987 9.6751 2.68738 9.30369 1.46275C 9.26992 1.08856 9.30369 0.493254 9.81015 0.238123C 10.114 0.0510265 10.4854 0.0170087 10.7724 0C 10.9244 0.0170087 11.0763 0.0340174 11.2283 0.0510261C 11.2958 0.0680348 11.3295 0.0680352 11.3802 0.0680352C 13.2879 0.578297 13.3048 0.578297 13.3216 0.595306C 13.4061 0.629323 13.4398 0.646333 13.4736 0.646333C 13.5411 0.663341 13.5749 0.680349 13.6255 0.697358C 14.3008 0.952489 14.9255 1.24164 15.4826 1.49677C 15.5332 1.51378 15.567 1.53079 15.6007 1.5478C 19.8382 3.58884 20.6823 4.06509 21.8134 3.94603C 21.8471 3.94603 21.8809 3.94603 21.9147 3.94603C 21.6277 4.25218 21.3744 4.54133 21.155 4.77946C 20.429 4.71142 19.6356 4.69441 18.8421 4.83048C 17.1539 3.91201 14.3683 3.38474 13.9125 3.94603C 13.6424 4.25218 14.2333 4.69441 14.6891 4.96655C 14.706 4.98356 14.7397 5.00057 14.7566 5.00057C 15.3137 5.30673 15.8877 5.54485 16.5968 5.74896C 14.706 7.05863 14.7735 9.06566 16.6306 10.1542C 16.7825 10.2393 16.9682 10.3413 17.1539 10.4093C 16.6137 11.3448 16.1916 12.2633 15.8371 13.1307ZM 7.80117 14.1173C 7.96999 14.0322 8.17258 13.7771 8.4427 13.4029C 9.55692 11.9571 10.6374 11.4129 12.5113 10.9196C 13.2541 10.7325 13.7775 10.6135 13.7606 10.4774C 13.7606 10.4604 13.7437 10.4434 13.7099 10.4264C 13.6424 10.3923 13.4905 10.3413 13.271 10.3243C 12.4438 10.2393 11.3971 10.3583 10.6205 10.5794C 8.84787 11.0557 7.59859 12.0932 7.396 13.2668C 7.32847 13.692 7.42977 14.0322 7.59859 14.1343C 7.66612 14.1513 7.73364 14.1513 7.80117 14.1173ZM 11.8867 13.8451C 12.0386 13.8281 12.1399 13.658 12.3087 13.4199C 12.8996 12.5695 13.6255 12.1442 14.3515 11.77C 14.706 11.583 14.9423 11.4639 14.9086 11.3788C 14.9086 11.3618 14.8917 11.3618 14.8748 11.3448C 14.8073 11.3108 14.6385 11.2938 14.4021 11.3108C 13.7437 11.3618 12.8489 11.651 12.2581 12.1442C 12.123 12.2463 12.0386 12.3483 11.9373 12.4504C 11.9035 12.4844 11.8698 12.5184 11.836 12.5695C 11.6672 12.8246 11.549 13.0457 11.5321 13.3349C 11.5321 13.59 11.6334 13.7601 11.7347 13.8281C 11.8023 13.8281 11.836 13.8451 11.8867 13.8451Z" transform="translate(66.0127 30.5483)" fill="#EABE8D"/>
</g>
</g>
<g id="Group_28">
<g id="Vector_24">
<path d="M 0.185703 0.0850432C 0.135056 0.0510257 0.0675266 0.034017 -2.06081e-06 -5.19066e-07C 0.0337623 0.0170082 0.0675287 0.0340175 0.118175 0.0510262C 0.15194 0.068035 0.168821 0.0680345 0.185703 0.0850432Z" transform="translate(92.1143 50.2273)" fill="#F5DCBA"/>
</g>
</g>
<g id="Group_29">
<g id="Vector_25">
<path d="M 0.0337664 0.0170098C 0.0168842 0.0170098 0 0 0 0C 0.0506465 0.0340175 0.118175 0.068035 0.168822 0.0850437C 0.135057 0.068035 0.0844088 0.0510257 0.0506445 0.034017L 0.0337664 0.0170098Z" transform="translate(92.0645 50.1936)" fill="white"/>
</g>
</g>
<g id="Group_30">
<g id="Vector_26">
<path d="M 0.171362 3.04456C -0.250693 6.2252 0.103833 9.83105 1.2687 13.3008C 0.103833 9.83105 -0.250693 6.2252 0.171362 3.04456C 0.289537 2.17712 0.62718 0.918473 0.897294 5.19066e-07C 0.62718 0.901464 0.272655 2.17712 0.171362 3.04456Z" transform="translate(46.8848 36.4673)" fill="#684C46"/>
</g>
</g>
<g id="Group_31">
<g id="Vector_27">
<path d="M 6.43128 36.5242L 6.36375 36.6772C 1.28221 31.3705 -0.608591 23.9037 0.167989 17.9166C 0.353693 16.5389 1.11339 14.1236 1.23157 13.7495C 1.13027 14.6679 1.14715 15.2462 1.14715 15.3143C 1.13027 15.8245 1.13027 16.3518 1.14715 16.8791C 1.1978 18.4439 1.40039 20.0597 1.72115 21.6415C 2.29514 24.448 2.66655 25.7066 3.88207 27.9858C 3.88207 27.9858 2.36267 18.5289 2.36267 16.3858C 2.36267 12.4738 4.1353 7.06501 4.15218 7.01399C 5.04694 4.80285 6.17804 3.153 7.42732 1.99641C 7.71432 1.7923 8.0182 1.5882 8.32208 1.4011C 11.7154 -0.588919 14.6191 -0.231736 16.8138 1.06093C 17.9449 1.72427 18.8903 2.62573 19.6331 3.57822C 20.5617 4.73482 21.0681 5.78936 21.5577 6.94595C 21.5408 6.94595 21.4058 6.91194 21.372 6.89493C 19.6163 6.52074 17.4722 6.80988 15.9697 7.28613C 16.3918 7.28613 17.067 7.33716 17.4216 7.40519C 15.9359 7.57528 14.2308 7.93246 12.7621 8.51076C 12.779 8.51076 13.0153 8.49375 13.066 8.49375C 13.5387 8.47674 14.214 8.51076 14.6698 8.61281C 13.0322 9.02102 11.2933 9.73539 10.2804 10.6198C 10.2635 10.6369 10.1622 10.7219 10.1622 10.7389C 10.1791 10.7389 10.3648 10.6709 10.4155 10.6539C 10.9557 10.4838 11.8167 10.2797 12.4244 10.3307C 9.95965 11.3342 8.06885 12.933 7.52862 14.0556C 7.68056 13.9536 7.68056 13.9536 7.81561 13.8855C 8.28831 13.6304 9.26748 13.1201 9.90901 13.0351C 8.86231 13.9706 7.5455 15.4333 7.41044 16.5559C 7.57926 16.4368 8.47402 15.7565 8.9636 15.5524C 6.56633 20.7741 8.79478 24.9242 8.91296 25.1453C 9.57136 27.9347 11.0908 30.35 12.779 32.6121C 9.65577 33.3435 8.05196 34.6022 7.08968 35.6397C 7.02215 35.7077 6.97151 35.7758 6.90398 35.8438C 6.81957 35.9629 6.76892 36.0139 6.73516 36.0649C 6.71827 36.0989 6.70139 36.1159 6.68451 36.15C 6.65074 36.201 6.61698 36.252 6.58322 36.303C 6.56633 36.3371 6.54945 36.3711 6.53257 36.4051C 6.4988 36.4391 6.46504 36.4731 6.43128 36.5242Z" transform="translate(46.8877 21.5952)" fill="#122030"/>
</g>
</g>
<g id="Group_32">
<g id="Vector_28">
<path d="M 14.7248 1.46275C 18.1687 3.46978 18.4389 6.70144 15.0793 8.65745C 11.7704 10.5964 6.23305 10.5114 2.73844 8.47036C -0.773056 6.42931 -0.924994 3.19764 2.38391 1.25865C 3.2449 0.748385 4.25783 0.391202 5.33829 0.153079C 5.43959 0.13607 7.26286 -0.221113 10.6731 1.34369C 10.0991 0.561289 9.52507 0.0340164 9.49131 -1.03813e-06C 10.9769 0.442226 12.3782 1.00351 13.5599 1.70087C 13.7625 1.81993 13.9482 1.939 14.1508 2.05806C 14.0326 1.58181 13.543 0.867446 13.5093 0.833429C 13.9482 1.03753 14.3534 1.24164 14.7248 1.46275ZM 12.1418 6.8035C 12.3106 6.90555 13.256 6.90555 14.0495 6.4123C 14.8936 5.90203 15.0962 5.01758 14.404 4.2862C 14.3871 4.2692 14.2014 4.06509 13.9651 3.91201C 13.9144 3.87799 13.8638 3.84398 13.8131 3.80996C 13.6781 3.72492 13.5261 3.65688 13.3573 3.58884C 11.8717 2.99354 10.3861 3.57184 9.54195 3.62286C 9.3056 3.63987 9.17055 3.62286 9.00173 3.57183C 8.91731 3.53782 8.84979 3.5038 8.79914 3.48679C 8.66408 3.40175 8.61343 3.3167 8.6472 3.16363C 8.69785 3.01055 8.76537 2.90849 8.69785 2.85747C 8.56279 2.77242 7.90438 3.01055 7.90438 3.43577C 7.92127 3.62286 8.05632 3.80996 8.32644 3.98005C 8.30956 3.98005 8.30956 3.96304 8.29267 3.96304C 8.25891 3.94603 8.24203 3.92902 8.20826 3.91201C 7.49921 3.45277 7.95503 2.94251 8.44461 2.80644C 8.4615 2.78943 8.9342 2.63635 9.66013 2.68738C 9.76142 2.7214 9.84583 2.75542 9.93024 2.75542C 10.0147 2.75542 10.0991 2.7214 10.1497 2.67037C 10.251 2.51729 10.0484 2.31319 9.8796 2.17712C 9.84583 2.16011 9.81207 2.12609 9.77831 2.10908C 9.32249 1.85395 8.59655 1.70087 7.93815 1.68387C 7.49921 1.66686 7.00963 1.70087 6.50316 1.76891C 5.9967 1.85395 5.49023 1.99002 5.01753 2.19413C 4.20719 2.55131 3.65008 3.02756 3.51502 3.18064C 3.44749 3.24867 3.3462 3.35072 3.27867 3.43577C 2.56962 4.37125 2.65403 5.30673 3.41372 6.14016C 3.70072 6.46332 4.07213 6.71845 4.44354 6.93957C 4.7643 7.12666 5.10194 7.27974 5.4227 7.3988C 5.96293 7.60291 6.67198 7.77299 7.31351 7.79C 7.98879 7.80701 8.34332 7.60291 8.10697 7.46684C 8.05632 7.43282 7.98879 7.41581 7.8875 7.3988C 7.73556 7.36478 7.06028 7.24572 6.21617 6.78649C 6.16552 6.75247 6.09799 6.71845 6.04734 6.68443C 5.57464 6.41229 5.16947 6.08913 4.88248 5.71494C 4.71365 5.49382 4.59548 5.2557 4.54483 5.00057C 4.51107 4.84749 4.52795 4.71142 4.54483 4.59236C 4.67989 4.94954 4.98377 5.23869 5.40582 5.49382C 7.27974 6.58238 11.5003 6.66743 13.5093 5.28972C 13.4924 4.93254 13.2223 4.60937 12.8002 4.35424C 12.8171 4.35424 12.834 4.37125 12.8509 4.37125C 12.8846 4.38826 12.9015 4.40526 12.9184 4.42227C 13.0534 4.50732 13.2054 4.64339 13.2054 4.64339C 13.7625 5.15365 13.7794 5.97007 12.4795 6.51435C 12.2431 6.6164 12.0743 6.68444 12.108 6.73546C 12.1249 6.78649 12.1249 6.8035 12.1418 6.8035Z" transform="translate(55.7129 55.3643)" fill="#F5DCBA"/>
</g>
</g>
<g id="Group_33">
<g id="Vector_29">
<path d="M 78.6096 17.0797C 78.5927 17.0117 78.1875 15.8041 76.7694 14.9877C 76.4149 14.7836 75.9928 14.5965 75.5032 14.4774C 74.2202 14.2053 72.8359 14.3073 71.6203 14.7495C 69.7971 14.0692 68.5984 13.8991 68.4465 13.8651C 68.4296 13.644 68.3958 13.4399 68.379 13.3888C 68.2608 12.8105 67.8387 12.3173 67.2141 11.9601C 65.8804 11.1947 63.6688 10.9736 61.6599 11.688C 59.0431 11.722 57.2536 12.0622 55.768 12.3513C 54.3499 12.6234 54.907 12.5214 53.6239 12.7935C 52.2227 12.2492 49.454 10.7355 47.1918 9.85102C 45.1491 9.0516 43.2414 8.72844 41.3844 8.88152C 40.0507 8.59237 38.5482 8.40527 37.1638 8.42228C 36.0665 5.42874 34.0913 2.99649 31.5758 1.53374C 30.0058 0.59826 28.1825 0.0539798 26.2411 0.00295357C 23.9957 -0.0480727 21.8517 0.564242 19.9609 1.66981C 17.2766 3.23461 15.0819 5.80293 13.7989 8.93254C 13.5794 8.96656 9.86534 9.18767 9.78093 9.20468C -4.40009 10.1912 -1.91842 35.2791 9.29135 41.8104C 11.2159 42.933 13.3937 43.4943 15.7741 43.3072L 19.9946 42.984C 20.5855 43.7154 21.379 44.3618 22.3244 44.906C 25.7346 46.879 31.0862 47.6444 35.7288 46.3858C 37.0456 46.0286 38.2612 45.5183 39.2741 44.855C 40.2701 45.0251 59.2626 48.2908 74.0851 39.6163C 91.2205 29.5641 78.7109 17.1988 78.6096 17.0797ZM 19.9609 37.2181C 19.8934 37.2861 19.8427 37.3542 19.7245 37.5072C 19.6908 37.5583 19.6401 37.6093 19.5557 37.7453C 19.5219 37.7964 19.4882 37.8474 19.4544 37.8984C 19.4375 37.9324 19.4207 37.9665 19.4038 38.0005C 19.37 38.0515 19.3531 38.1025 19.3025 38.1876L 19.2518 38.2896C 19.2518 38.2896 18.4246 39.7354 19.0999 41.4192C 19.0661 41.4362 15.1832 41.7764 14.3222 41.6404C 13.2755 41.4873 12.2964 41.1131 11.3847 40.5858C 7.95766 38.5958 5.67856 34.4286 4.56434 31.6222C 1.72813 24.4445 2.79171 16.5014 6.25256 12.8446C 6.72526 12.3343 7.24861 11.9261 7.8226 11.5859C 8.12648 11.3988 8.46412 11.2457 8.80177 11.1267L 9.54458 10.1572L 15.5715 9.86802C 15.926 9.0516 16.3481 8.18416 16.8883 7.31671C 17.7493 5.95601 18.8635 4.61232 20.3154 3.57479C 20.6024 3.37068 20.9063 3.16658 21.2102 2.97948C 24.6035 0.989461 27.5072 1.34664 29.7019 2.63931C 30.833 3.30265 31.7784 4.20411 32.5212 5.1566C 33.4497 6.3132 33.9562 7.36774 34.4458 8.52433C 30.5291 8.83049 24.5697 12.8786 22.3244 19.1038C 21.2946 21.9612 21.2439 24.4445 21.7504 26.7067C 22.4088 29.4961 23.9282 31.9114 25.6164 34.1735C 22.527 34.9219 20.9232 36.1635 19.9609 37.2181ZM 36.7924 44.0386C 33.4835 45.9776 27.9462 45.8925 24.4515 43.8515C 20.94 41.8104 20.7881 38.5788 24.097 36.6398C 24.958 36.1295 25.9709 35.7723 27.0514 35.5342C 27.1527 35.5172 28.976 35.16 32.3862 36.7248C 31.8122 35.9424 31.2382 35.4152 31.2044 35.3811C 32.69 35.8234 34.0913 36.3847 35.273 37.082C 35.4756 37.2011 35.6613 37.3201 35.8639 37.4392C 35.7457 36.963 35.2561 36.2486 35.2224 36.2146C 35.6613 36.4017 36.0834 36.6058 36.4548 36.8269C 39.8819 38.8339 40.152 42.0656 36.7924 44.0386ZM 78.8121 25.363C 78.7953 25.448 78.7784 25.5501 78.7615 25.6521C 77.5291 31.7923 69.3581 36.0275 63.8377 36.2146C 60.8157 36.2656 58.1821 35.4832 58.0471 35.4492C 58.0977 35.4832 59.0431 36.2316 59.4821 36.5207C 56.764 36.1125 54.6369 34.9559 54.0798 34.6328C 53.9953 34.5817 53.9447 34.5477 53.9447 34.5477C 53.9785 34.5987 54.4849 35.6022 54.8732 36.1465C 53.3538 35.7553 52.1552 35.177 51.3111 34.7008C 50.4332 34.1905 49.9943 33.7993 49.9605 33.7823L 50.2981 34.7858C 50.2644 34.7688 49.7242 34.5307 48.9813 34.0885C 48.0697 33.5612 46.888 32.7618 46.1789 31.8433C 44.7946 30.0574 44.7946 28.1524 44.9127 27.8463C 43.2752 28.3395 40.726 28.5096 40.726 28.5096C 40.7597 28.4926 41.3337 28.2034 41.5025 27.9313C 40.7428 27.9823 36.995 28.1864 34.1419 26.9788C 34.4458 26.9958 34.8003 26.9958 35.138 26.9788C 35.6951 26.9448 36.1847 26.8938 36.1509 26.8598C 35.847 26.7747 35.4756 26.6216 35.0367 26.4345C 34.851 26.3495 34.6653 26.2645 34.4627 26.1624C 34.412 26.1454 34.3614 26.1114 34.3107 26.0774C 34.0913 25.9753 33.8887 25.8562 33.6692 25.7202C 33.1459 25.414 32.6225 25.0738 32.1498 24.6996C 29.6006 22.6586 30.1071 20.0733 32.9264 18.4574C 35.9314 16.7225 38.565 15.9231 38.7339 13.1167C 38.7676 12.5214 38.7676 12.0281 39.3416 11.5009C 39.4091 11.4498 39.5104 11.2797 39.9156 11.0586C 40.3208 10.8205 40.7935 10.6504 41.3675 10.5654C 41.8233 10.4973 42.296 10.4973 42.7687 10.5314C 42.9206 10.5484 43.0726 10.5654 45.4867 11.1947C 45.5374 11.2117 45.5711 11.2287 45.6218 11.2457C 46.2802 11.5009 46.9048 11.79 47.6308 12.1302C 51.8175 14.1542 52.6785 14.6135 53.8096 14.5114C 54.3836 14.4604 55.0252 14.2563 56.19 14.0352C 57.8614 13.712 59.634 13.3038 62.6221 13.3548C 63.5338 12.8446 64.6311 12.8275 65.1882 13.1507C 65.3739 13.2528 65.509 13.4058 65.5427 13.5929C 66.3531 18.7296 63.0611 23.3389 57.0341 27.0979C 56.7809 27.251 56.2238 27.5911 56.1394 27.6422C 54.6369 28.6287 55.1433 29.9553 56.6458 30.8398C 57.4562 31.316 58.5535 31.6392 59.7859 31.7243C 62.0313 31.8603 64.361 30.9759 65.9479 30.0404C 72.8865 26.1284 74.8786 19.3079 73.393 17.0627C 73.3761 17.0457 73.2917 16.9096 73.2917 16.9096C 73.2917 16.9096 73.3086 16.9947 73.2917 17.0627C 73.2748 17.1478 73.1228 24.7167 64.7155 29.36C 64.6649 29.3771 63.8208 29.8703 62.791 30.2445C 61.4404 30.7378 60.1236 30.9419 58.7055 30.4826C 58.6717 30.4826 58.6211 30.4656 58.5704 30.4486C 58.486 30.4146 58.4016 30.3806 58.3003 30.3465C 58.3003 30.3465 58.3003 30.3465 58.2834 30.3465C 58.2665 30.3295 58.2497 30.3295 58.2159 30.3125C 58.1821 30.2955 58.1484 30.2785 58.1146 30.2615C 58.0471 30.2275 57.9627 30.1765 57.8951 30.1424C 57.8276 30.1084 57.7601 30.0574 57.625 29.9724C 57.5068 29.8873 57.4055 29.8023 57.3211 29.7172C 56.3926 28.7137 57.2705 28.4076 58.3509 27.7272C 62.2507 25.295 64.4792 22.7947 65.7453 20.6856C 67.0959 18.4404 67.4842 16.3484 67.3829 15.4639C 69.8815 15.8381 71.8904 17.0117 71.8904 17.0117C 71.8904 17.0117 72.1268 16.7225 72.5995 16.4504C 73.4943 15.9231 74.4397 15.9231 75.1149 16.3143C 75.5876 16.5865 75.9084 17.0457 76.0097 17.641C 76.0435 17.692 76.7019 18.2874 77.394 19.3079C 78.3394 20.6005 79.2511 22.6926 78.8121 25.363Z" transform="translate(34 20)" fill="#684C46"/>
</g>
</g>
<g id="Group_34">
<g id="Vector_30">
<path d="M -2.57602e-07 0.13607L 2.43103 -1.29766e-07C 2.32974 0.27214 2.24533 0.544279 2.16092 0.816419L -2.57602e-07 0.13607Z" transform="translate(46.752 30.8542)" fill="#122030"/>
</g>
</g>
<g id="Group_35">
<g id="Vector_31">
<path d="M 3.00503 0.986508L 1.94145 1.30967L 1.85704 1.27566L 0.793463 0.901464L 0.253233 0.289148L 1.28801e-07 0L 3.00503 0.986508Z" transform="translate(42.8018 31.1438)" fill="#122030"/>
</g>
</g>
<g id="Group_36">
<g id="Vector_32">
<path d="M 2.57602e-07 0.442227L 7.88398 2.59533e-07C 7.81645 0.374193 7.7658 0.714367 7.73204 1.02052L 1.85704 1.24164L 1.84016 1.24164L 0.219468 0.527271L 2.57602e-07 0.442227Z" transform="translate(40.3877 34.2734)" fill="#122030"/>
</g>
</g>
<g id="Group_37">
<g id="Vector_33">
<path d="M 9.1839 0C 9.04885 0.340175 8.91379 0.663341 8.79561 0.986507L 6.36458 1.10557L 8.50862 1.80293C 8.45797 1.99002 8.40732 2.16011 8.35668 2.3302L 4.81142 3.43577L 8.12033 3.26568C 8.01903 3.67389 7.9515 4.04808 7.88398 4.40526L 2.57602e-07 4.84749L 0.202586 4.93254L 2.57602e-07 4.84749L 0.709051 3.67389C 0.793462 3.63987 4.18678 2.63635 4.32184 2.58533L 4.27119 2.55131L 4.3556 2.58533L 5.41918 2.26216L 2.41415 1.27566L 2.68427 1.58181L 2.41415 1.27566L 3.15697 0.306157L 9.1839 0Z" transform="translate(40.3877 29.8682)" fill="#FFD14F"/>
</g>
</g>
<g id="Group_38">
<g id="Vector_34">
<path d="M 0 0.238123C 0.118175 0.153079 0.253231 0.0850437 0.388288 0C 0.253231 0.0850437 0.135057 0.153079 0 0.238123Z" transform="translate(82.6943 35.9912)" fill="#EABE8D"/>
</g>
</g>
<g id="Group_39">
<g id="Vector_35">
<path d="M 5.01452 1.11211C 4.373 1.23117 3.78212 1.45228 3.25878 1.72442C 3.25878 1.72442 3.24189 1.72442 3.24189 1.74143C 3.10683 1.80946 2.97178 1.89451 2.8536 1.97955C 2.81984 1.99656 2.78607 2.01357 2.75231 2.04759C 2.04326 1.84348 1.46927 1.60536 0.912154 1.2992C 0.895272 1.28219 0.861509 1.26518 0.844627 1.26518C 0.388808 1.01005 -0.202069 0.567826 0.0680455 0.24466C 0.540746 -0.333637 3.3263 0.176625 5.01452 1.11211Z" transform="translate(79.8408 34.2668)" fill="#684C46"/>
</g>
</g>
<g id="Group_40">
<g id="Vector_36">
<path d="M 1.45187 5.61288C 1.7051 3.18063 0.844111 1.25865 2.06081e-06 -5.19066e-07C 0.844111 1.25865 1.72198 3.18063 1.45187 5.61288Z" transform="translate(111.428 39.2568)" fill="#F5DCBA"/>
</g>
</g>
<g id="Group_41">
<g id="Vector_37">
<path d="M -2.06081e-06 0.595307C 0.0506445 0.391202 0.101295 0.204105 0.151942 5.19066e-07C 0.101295 0.187097 0.0506445 0.391202 -2.06081e-06 0.595307Z" transform="translate(112.626 45.6519)" fill="#F5DCBA"/>
</g>
</g>
<g id="Group_42">
<g id="Vector_38">
<path d="M 0.236351 0.102053C 0.168823 0.068036 0.0844104 0.0340175 -5.15203e-07 0C 0.0844104 0.0340175 0.168823 0.068036 0.236351 0.102053Z" transform="translate(69.0537 46.4517)" fill="#F5DCBA"/>
</g>
</g>
<g id="Group_43">
<g id="Vector_39">
<path d="M 2.06081e-06 0.442227C 0.0506486 0.306157 0.101293 0.15308 0.135057 1.03813e-06C 0.0844109 0.15308 0.0506486 0.306157 2.06081e-06 0.442227Z" transform="translate(112.44 46.3835)" fill="#F5DCBA"/>
</g>
</g>
<g id="Group_44">
<g id="Vector_40">
<path d="M 2.07651 10.8221C 1.04669 13.6796 0.996048 16.1628 1.50251 18.425C 1.38434 18.2039 -0.844108 14.0538 1.55316 8.83208C 1.06358 9.03618 0.168821 9.71653 -2.57602e-07 9.8356C 0.135057 8.71302 1.45187 7.25027 2.49856 6.31479C 1.85704 6.39983 0.877873 6.89308 0.405172 7.16522C 0.270115 7.25027 0.270115 7.23326 0.118176 7.33531C 0.658405 6.19572 2.54921 4.61391 5.01401 3.6104C 4.40625 3.55937 3.54526 3.76347 3.00503 3.93356C 2.95438 3.95057 2.76868 4.01861 2.75179 4.01861C 2.75179 4.01861 2.85309 3.91655 2.86997 3.89954C 3.8829 3.01509 5.62177 2.30072 7.25934 1.89251C 6.8204 1.79046 6.12823 1.77345 5.65553 1.77345C 5.60488 1.77345 5.36853 1.79046 5.35165 1.79046C 6.8204 1.22917 8.5255 0.854979 10.0111 0.684892C 9.6566 0.616857 8.96444 0.56583 8.55926 0.56583C 10.0618 0.0725767 12.2058 -0.199563 13.9616 0.174629C 13.9953 0.174629 14.1304 0.225655 14.1473 0.225655C 10.2812 0.531813 4.32184 4.57989 2.07651 10.8221Z" transform="translate(54.2646 28.2988)" fill="#9C7356"/>
</g>
</g>
<g id="Group_45">
<g id="Vector_41">
<path d="M 1.03041e-06 1.03813e-06C 0.30388 0.136071 0.573993 0.238121 0.810343 0.306156L 0.793463 0.306156C 0.793463 0.289148 0.506466 0.221115 1.03041e-06 1.03813e-06Z" transform="translate(69.29 46.5535)" fill="#F5DCBA"/>
</g>
</g>
<g id="Group_46">
<g id="Vector_42">
<path d="M 1.08046 1.03813e-06C 1.06358 1.03813e-06 0.573993 0.068036 -5.15203e-07 0.0850447C 0.557111 0.068036 1.0467 1.03813e-06 1.08046 1.03813e-06Z" transform="translate(69.1377 46.8938)" fill="#F5DCBA"/>
</g>
</g>
<g id="Group_47">
<g id="Vector_43">
<path d="M 5.15203e-07 -5.19066e-07C 0.168822 0.0680344 0.320761 0.13607 0.489583 0.187097C 0.320761 0.119062 0.15194 0.0680344 5.15203e-07 -5.19066e-07Z" transform="translate(68.1416 46.9958)" fill="#F5DCBA"/>
</g>
</g>
<g id="Group_48">
<g id="Vector_44">
<path d="M -2.06081e-06 0.374193C 0.0506445 0.255132 0.101295 0.11906 0.151942 -1.03813e-06C 0.101295 0.11906 0.0506445 0.255132 -2.06081e-06 0.374193Z" transform="translate(112.204 47.03)" fill="#F5DCBA"/>
</g>
</g>
<g id="Group_49">
<g id="Vector_45">
<path d="M 2.06081e-06 0.204105C 0.0337664 0.13607 0.0675266 0.068036 0.101291 1.03813e-06C 0.0675266 0.068036 0.0337664 0.13607 2.06081e-06 0.204105Z" transform="translate(112.104 47.4041)" fill="#F5DCBA"/>
</g>
</g>
<g id="Group_50">
<g id="Vector_46">
<path d="M 0 -1.03813e-06C 0.15194 0.0510252 0.320762 0.0850432 0.472701 0.136069C 0.320762 0.0850432 0.15194 0.0340164 0 -1.03813e-06Z" transform="translate(69.1885 47.3701)" fill="#F5DCBA"/>
</g>
</g>
<g id="Group_51">
<g id="Vector_47">
<path d="M -2.06081e-06 0.170088C 0.0675266 0.119062 0.151942 0.0510268 0.236353 5.19066e-07C 0.151942 0.0510268 0.0844088 0.119062 -2.06081e-06 0.170088Z" transform="translate(89.9199 47.6079)" fill="#F5DCBA"/>
</g>
</g>
<g id="Group_52">
<g id="Vector_48">
<path d="M 0 0.0510273C 0.0168822 0.0340185 0.0337633 0.0170093 0.0675277 5.19066e-07C 0.0337633 0.0170093 0.0168822 0.0340185 0 0.0510273Z" transform="translate(89.8691 47.7781)" fill="#F5DCBA"/>
</g>
</g>
<g id="Group_53">
<g id="Vector_49">
<path d="M 0.0337664 -1.03813e-06C 0.0168842 0.0340164 0.0168822 0.0510252 0 0.0850427C 0.0168822 0.0510252 0.0337664 0.0170077 0.0337664 -1.03813e-06Z" transform="translate(111.9 47.9653)" fill="#F5DCBA"/>
</g>
</g>
<g id="Group_54">
<g id="Vector_50">
<path d="M 1.03041e-06 0.0170082C 0.0675297 0.0170082 0.101293 1.03813e-06 0.101293 1.03813e-06C 0.0844104 0.0170098 0.0506476 0.0170082 1.03041e-06 0.0170082Z" transform="translate(75.5361 47.9143)" fill="#F5DCBA"/>
</g>
</g>
<g id="Group_55">
<g id="Vector_51">
<path d="M -2.06081e-06 0.0510257C 0.0168801 0.034017 0.0337654 0.0170077 0.0506476 -1.03813e-06C 0.0337654 0.0170077 0.0168801 0.034017 -2.06081e-06 0.0510257Z" transform="translate(89.667 47.9653)" fill="#F5DCBA"/>
</g>
</g>
<g id="Group_56">
<g id="Vector_52">
<path d="M -1.03041e-06 0.0340175C 0.337642 0.0340175 0.62464 0.0170093 0.810344 5.19066e-07C 0.607758 0.0170093 0.337642 0.0340175 -1.03041e-06 0.0340175Z" transform="translate(74.4893 47.9482)" fill="#F5DCBA"/>
</g>
</g>
<g id="Group_57">
<g id="Vector_53">
<path d="M 5.15203e-07 0C 0.118176 0 0.236351 0 0.337644 0C 0.219469 0 0.118176 0 5.15203e-07 0Z" transform="translate(74.1348 47.9824)" fill="#F5DCBA"/>
</g>
</g>
<g id="Group_58">
<g id="Vector_54">
<path d="M 1.03041e-06 0.15308C 0.0337654 0.102053 0.0844088 0.0510257 0.118173 -5.19066e-07C 0.0844088 0.0510257 0.0337654 0.102053 1.03041e-06 0.15308Z" transform="translate(89.5488 48.0164)" fill="#F5DCBA"/>
</g>
</g>
<g id="Group_59">
<g id="Vector_55">
<path d="M 2.06081e-06 0.0170098C 2.06081e-06 0.0170098 -2.06157e-06 0 0.0168801 0C -2.06157e-06 0 2.06081e-06 1.03788e-06 2.06081e-06 0.0170098Z" transform="translate(89.3965 48.4075)" fill="#F5DCBA"/>
</g>
</g>
<g id="Group_60">
<g id="Vector_56">
<path d="M 1.18175 1.03753L 0.928518 1.1736L -2.06081e-06 0.629322L 0.388291 0.408211L 1.09734 0.629322L 0.725935 0.221114L 1.09734 -5.19066e-07L 2.04275 0.527272L 1.78951 0.680349L 1.11422 0.289148L 1.58693 0.79941L 1.38434 0.918473L 0.506463 0.646332L 1.18175 1.03753Z" transform="translate(118.957 47.3359)" fill="#684C46"/>
</g>
</g>
<g id="Group_61">
<g id="Vector_57">
<path d="M 2.06081e-06 0.0510252C 2.06081e-06 0.0340164 0.0168801 0.0170098 0.0168801 1.03813e-06C -2.06157e-06 0.0170098 2.06081e-06 0.0340164 2.06081e-06 0.0510252Z" transform="translate(89.3125 48.5947)" fill="#F5DCBA"/>
</g>
</g>
<g id="Group_62">
<g id="Vector_58">
<path d="M 0.489582 0.459235L 0.219466 0.612315L 0 0.476245L 0.810342 -5.19066e-07L 1.0467 0.13607L 0.759698 0.289148L 1.46875 0.697359L 1.19864 0.867446L 0.489582 0.459235Z" transform="translate(118.062 48.0164)" fill="#684C46"/>
</g>
</g>
<g id="Group_63">
<g id="Vector_59">
<path d="M 0.0168832 0.0340185C 0.0168832 0.0170098 0.0168822 0.0170077 0 -1.03813e-06C 0.0168822 0.0170077 0.0168832 0.0170098 0.0168832 0.0340185Z" transform="translate(89.2783 49.241)" fill="#F5DCBA"/>
</g>
</g>
<g id="Group_64">
<g id="Vector_60">
<path d="M 0.0506455 0.153079C 0.0337633 0.102052 0.0168832 0.0510273 1.03041e-06 1.03813e-06C 0.0168832 0.0510273 0.0337633 0.102052 0.0506455 0.153079Z" transform="translate(89.2949 49.2749)" fill="#F5DCBA"/>
</g>
</g>
<g id="Group_65">
<g id="Vector_61">
<path d="M 0.0168822 0.0510267C 0.0168822 0.034018 -1.03041e-06 0.0170087 -1.03041e-06 0C -1.03041e-06 0.0170087 0.0168822 0.034018 0.0168822 0.0510267Z" transform="translate(89.3457 49.4282)" fill="#F5DCBA"/>
</g>
</g>
<g id="Group_66">
<g id="Vector_62">
<path d="M 0.0168832 0.0340175C 0.0168832 0.0170087 0 5.19066e-07 0 5.19066e-07C 0 5.19066e-07 1.03015e-06 0.0170087 0.0168832 0.0340175Z" transform="translate(89.4473 49.6489)" fill="#F5DCBA"/>
</g>
</g>
<g id="Group_67">
<g id="Vector_63">
<path d="M 10.7033 0.0127576C 10.9734 0.165836 9.31896 3.94178 3.78161 7.19045C 2.80244 7.76874 1.87392 8.21097 1.06358 8.51713C 1.01293 8.50012 0.979167 8.50012 0.928521 8.48311C 0.84411 8.44909 0.759699 8.41508 0.675288 8.38106C 0.641524 8.36405 0.624642 8.34704 0.590877 8.34704C 0.472702 8.29601 0.354527 8.22798 0.253234 8.15994C 0.151941 8.10892 0.0675297 8.04088 1.03041e-06 8.00687C 5.80747 6.23796 10.0787 0.557035 10.602 0.0637817C 10.6189 0.046773 10.6358 0.0297663 10.6527 0.0127576C 10.6695 -0.00425115 10.6864 -0.00425115 10.7033 0.0127576Z" transform="translate(91.6592 41.9485)" fill="#EABE8D"/>
</g>
</g>
<g id="Group_68">
<g id="Vector_64">
<path d="M -1.03041e-06 5.19066e-07C 0.0506455 0.034018 0.0844129 0.0510267 0.135059 0.0850442C 0.101295 0.0680355 0.0844129 0.0510262 0.0506486 0.0340175C 0.0506486 0.0170087 0.0337633 5.19066e-07 -1.03041e-06 5.19066e-07Z" transform="translate(91.71 49.9893)" fill="#F5DCBA"/>
</g>
</g>
<g id="Group_69">
<g id="Vector_65">
<path d="M 0.0337633 0.0340164C 0.0168811 0.0170077 0.0168842 0.0170082 2.06081e-06 -5.19066e-07C 0.0168842 0.0170082 0.0168811 0.0340164 0.0337633 0.0340164Z" transform="translate(89.7344 50.0574)" fill="#F5DCBA"/>
</g>
</g>
<g id="Group_70">
<g id="Vector_66">
<path d="M 0.00750319 -3.05176e-06C 0.00750319 -3.05176e-06 -0.00937899 -3.05176e-06 0.00750319 -3.05176e-06C -0.00937899 -3.05176e-06 0.00750319 -3.05176e-06 0.00750319 -3.05176e-06Z" transform="translate(92.3096 50.3125)" fill="#F5DCBA"/>
</g>
</g>
<g id="Group_71">
<g id="Vector_67">
<path d="M 1.03041e-06 5.19066e-07C 0.0506476 0.0170093 0.101292 0.0340175 0.135056 0.0340175C 0.0844098 0.0340175 0.0506476 0.034018 1.03041e-06 5.19066e-07Z" transform="translate(92.5869 50.4143)" fill="#F5DCBA"/>
</g>
</g>
<g id="Group_72">
<g id="Vector_68">
<path d="M 5.85063 0L 6.12075 0.306158L 6.66098 0.918472L 7.79208 1.32668C 7.64014 1.37771 4.26371 2.38122 4.1793 2.41524L 3.47025 3.58884L 3.67283 3.67389L 5.29352 4.38826L 9.10889 6.0211C 9.05825 6.19118 6.88045 12.3143 9.88547 19.9172L 1.68073 20.4955C -1.223 13.2838 -0.159423 5.35775 3.30142 1.70087C 3.77412 1.19061 4.29747 0.782402 4.87147 0.442227C 5.19223 0.27214 5.51299 0.119061 5.85063 0Z" transform="translate(36.9512 31.1438)" fill="#46B8E3"/>
</g>
</g>
<g id="Group_73">
<g id="Vector_69">
<path d="M 14.6875 22.9788C 14.6875 22.9788 13.8603 24.4246 14.5356 26.1084C 14.5018 26.1254 10.6189 26.4656 9.7579 26.3295C 8.7112 26.1765 7.73204 25.8023 6.8204 25.275C 3.39332 23.285 1.11422 19.1178 6.44004e-08 16.3284L 8.2385 15.7501C 5.23347 8.13018 7.41128 2.02404 7.46192 1.85395L 3.68031 0.221113L 9.55531 2.59533e-07C 9.43714 0.40821 8.66056 2.82345 8.47485 4.21817C 7.71515 10.2052 9.60596 17.6721 14.6875 22.9788Z" transform="translate(38.5645 35.2939)" fill="#0788BF"/>
</g>
</g>
<g id="Group_74">
<g id="Vector_70">
<path d="M 8.96444 2.85163C 6.95546 4.22934 2.73491 4.1443 0.860991 3.05574C 0.438937 2.8006 0.118175 2.51146 -5.15203e-07 2.15427C 0.050646 1.84812 0.185703 1.64401 0.202585 1.59299C 0.236349 1.52495 0.286998 1.47392 0.320762 1.40589C 0.337645 1.38888 0.354526 1.35486 0.38829 1.32084C 0.557112 1.13375 0.455819 1.2358 0.641523 1.06571C 1.36746 0.419382 2.38039 0.0792072 3.39332 0.0111723C 3.6972 -0.00583648 3.96731 -0.00583544 4.20366 0.028182C 4.69325 0.0792083 4.92959 0.181259 5.1153 0.249294C 4.38937 0.181259 3.91667 0.351348 3.89978 0.368357C 3.4102 0.487418 2.95438 0.99768 3.66343 1.47393C 3.68031 1.49093 3.71408 1.50794 3.74784 1.52495C 3.76472 1.52495 3.76473 1.54196 3.78161 1.54196C 3.79849 1.54196 3.79849 1.55897 3.81537 1.55897C 4.10237 1.72906 4.49066 1.84812 5.014 1.84812C 6.16199 1.88213 7.15804 1.45692 8.03592 1.8141C 8.12033 1.84812 8.20474 1.88213 8.27227 1.93316C 8.67744 2.17128 8.93067 2.49445 8.96444 2.85163Z" transform="translate(60.2744 57.8362)" fill="#EABE8D"/>
</g>
</g>
<g id="Group_75">
<g id="Vector_71">
<path d="M 6.5334 1.44584C 7.24245 2.17722 7.02298 3.06167 6.17888 3.57194C 5.38541 4.06519 4.44001 4.06519 4.27119 3.96314C 4.25431 3.96314 4.25431 3.94613 4.23743 3.92912C 4.22054 3.87809 4.37248 3.81006 4.60884 3.708C 5.90876 3.14672 5.90876 2.34731 5.33477 1.83704C 5.31788 1.83704 5.18283 1.70098 5.04777 1.61593C 5.01401 1.59892 4.99712 1.58191 4.96336 1.5649C 4.94648 1.5479 4.92959 1.5479 4.91271 1.53089C 4.8283 1.49687 4.74389 1.44584 4.67636 1.41182C 3.79849 1.05464 2.80244 1.47986 1.65445 1.44584C 1.14799 1.42884 0.742816 1.30977 0.455819 1.15669C 0.438937 1.15669 0.438937 1.13969 0.422055 1.13969C 0.168822 0.986607 0.0168827 0.782503 5.15203e-07 0.595407C 5.15203e-07 0.170188 0.658405 -0.0679357 0.793462 0.017108C 0.860991 0.0511255 0.793462 0.170187 0.742815 0.323266C 0.692169 0.476345 0.742817 0.561387 0.894756 0.646431C 0.945403 0.680448 1.01293 0.714466 1.09734 0.731475C 1.26616 0.782501 1.4181 0.79951 1.63757 0.782501C 2.4648 0.731475 3.96731 0.153179 5.45294 0.748484C 5.62177 0.816519 5.7737 0.884555 5.90876 0.969599C 5.95941 1.00362 6.01005 1.03763 6.0607 1.07165C 6.31393 1.24174 6.51652 1.44584 6.5334 1.44584Z" transform="translate(63.584 58.2046)" fill="#9C7356"/>
</g>
</g>
<g id="Group_76">
<g id="Vector_72">
<path d="M 5.30787 5.79601C 5.54422 5.93208 5.1897 6.13618 4.51441 6.11917C 3.87289 6.10217 3.16384 5.93208 2.62361 5.72797C 2.30284 5.60891 1.9652 5.45583 1.64444 5.26874C 1.27303 5.04762 0.918504 4.79249 0.614625 4.46933C -0.145073 3.6359 -0.212599 2.70042 0.47957 1.76494C 0.547098 1.67989 0.631508 1.59485 0.715919 1.5098C 0.850977 1.35673 1.40809 0.88048 2.21843 0.523297C 2.69113 0.319192 3.1976 0.183122 3.70406 0.0980783C 4.21053 0.0130346 4.70011 -0.0209829 5.13905 0.0130346C 5.79745 0.0300433 6.52339 0.183122 6.97921 0.438253C 7.01297 0.455262 7.04673 0.489281 7.0805 0.50629C 7.2662 0.625351 7.46879 0.846463 7.35061 0.999542C 7.31685 1.05057 7.23244 1.08459 7.13115 1.08459C 7.02985 1.08459 6.96232 1.05057 6.86103 1.01655C 6.67533 0.948517 6.43898 0.846464 5.94939 0.795438C 5.71304 0.778429 5.44293 0.761419 5.13905 0.778428C 4.12612 0.846463 3.11319 1.18664 2.38725 1.83297C 2.20155 2.00306 2.30284 1.90101 2.13402 2.0881C 2.10026 2.12212 2.08338 2.13913 2.06649 2.17315C 2.03273 2.24118 1.98208 2.29221 1.94832 2.36024C 1.93144 2.39426 1.79638 2.61537 1.74573 2.92153C 1.72885 3.04059 1.72885 3.19367 1.74573 3.32974C 1.79638 3.58487 1.91455 3.82299 2.08338 4.04411C 2.35349 4.40129 2.77554 4.72446 3.24825 5.01361C 3.29889 5.04762 3.36642 5.08164 3.41707 5.11566C 4.26118 5.57489 4.93646 5.69395 5.0884 5.72797C 5.18969 5.74498 5.25722 5.76199 5.30787 5.79601Z" transform="translate(58.5117 57.0518)" fill="#9C7356"/>
</g>
</g>
</g>
</g>
</g>
</g>
</g>
</g>
<defs>

<linearGradient id="paint0_linear" x2="1" gradientUnits="userSpaceOnUse" gradientTransform="matrix(0 109.698 -155 0 155 0)">
<stop stop-color="#01A6EB"/>
<stop offset="1" stop-color="#0189EB"/>
</linearGradient>
<linearGradient id="paint1_linear" x2="1" gradientUnits="userSpaceOnUse" gradientTransform="matrix(0 90.1456 -154.861 0 154.861 0)">
<stop stop-color="#01BEEB"/>
<stop offset="1" stop-color="#01A6EB"/>
</linearGradient>

</defs>
</svg>

