<svg width="155" height="110" viewBox="0 0 155 110" version="1.1" xmlns="http://www.w3.org/2000/svg" xmlns:xlink="http://www.w3.org/1999/xlink">
<g id="Canvas" fill="none">
<g id="Group 2.8">
<g id="Vector">
<path d="M 154.957 45.4609C 155.15 43.7143 154.087 41.9677 151.767 40.6092L 85.0667 1.89218C 80.8133 -0.630728 73.8533 -0.630728 69.6 1.89218L 3.19 40.6092C 1.06333 41.8706 0 43.4232 0 45.0728L 0 64.8679C 0 66.5175 1.06333 68.1671 3.19 69.4286L 69.89 108.146C 70.3733 108.437 70.8567 108.631 71.34 108.825L 71.4367 108.825C 71.4367 108.825 71.4367 108.825 71.5333 108.825C 71.92 109.019 72.3067 109.116 72.6933 109.213L 72.79 109.213C 72.8867 109.213 72.9833 109.213 73.08 109.31C 73.2733 109.407 73.5633 109.407 73.7567 109.504C 73.8533 109.504 73.8533 109.504 73.95 109.504C 74.0467 109.504 74.1433 109.504 74.24 109.504C 74.4333 109.504 74.6267 109.601 74.82 109.601C 74.9167 109.601 75.0133 109.601 75.0133 109.601C 75.11 109.601 75.2067 109.601 75.3033 109.601C 75.4967 109.601 75.69 109.601 75.8833 109.698C 75.98 109.698 76.0767 109.698 76.1733 109.698C 76.27 109.698 76.3667 109.698 76.4633 109.698C 76.6567 109.698 76.85 109.698 77.0433 109.698C 77.14 109.698 77.2367 109.698 77.3333 109.698C 77.43 109.698 77.5267 109.698 77.5267 109.698C 77.72 109.698 77.9133 109.698 78.1067 109.698C 78.2033 109.698 78.3 109.698 78.3967 109.698C 78.4933 109.698 78.4933 109.698 78.59 109.698C 78.88 109.698 79.0733 109.698 79.3633 109.601C 79.46 109.601 79.5567 109.601 79.6533 109.601L 79.75 109.601C 80.1367 109.601 80.62 109.504 81.0067 109.407C 81.0067 109.407 81.0067 109.407 81.1033 109.407C 81.2 109.407 81.2967 109.31 81.49 109.31C 81.6833 109.31 81.8767 109.213 82.07 109.213C 82.2633 109.213 82.36 109.116 82.4567 109.116C 82.65 109.019 82.8433 109.019 83.0367 108.922L 83.1333 108.922C 83.23 108.922 83.23 108.825 83.3267 108.825C 83.6167 108.728 83.9067 108.631 84.1967 108.534C 84.2933 108.534 84.39 108.437 84.4867 108.437C 84.8733 108.243 85.1633 108.146 85.55 107.951L 151.767 69.4286L 151.863 69.3315C 151.96 69.2345 152.057 69.2345 152.153 69.1375C 152.25 69.0404 152.443 68.9434 152.54 68.8464C 152.637 68.7493 152.733 68.6523 152.83 68.5553C 152.927 68.4582 153.023 68.3612 153.12 68.2642C 153.12 68.2642 153.12 68.2641 153.217 68.1671L 153.313 68.0701C 153.507 67.876 153.603 67.779 153.797 67.5849L 153.893 67.4879C 153.893 67.4879 153.893 67.3908 153.99 67.3908C 154.087 67.2938 154.183 67.0997 154.28 67.0027C 154.28 66.9057 154.377 66.9057 154.377 66.8086L 154.377 66.7116C 154.473 66.6146 154.473 66.5175 154.57 66.3235C 154.57 66.2264 154.667 66.2264 154.667 66.1294C 154.667 66.1294 154.667 66.1294 154.667 66.0323C 154.667 65.9353 154.763 65.8383 154.763 65.7412C 154.763 65.6442 154.86 65.5472 154.86 65.5472C 154.86 65.5472 154.86 65.5472 154.86 65.4501C 154.86 65.3531 154.86 65.2561 154.86 65.062C 154.86 64.965 154.86 64.8679 154.86 64.8679L 154.86 64.7709L 154.957 44.9757C 155.053 45.2668 154.957 45.3639 154.957 45.4609ZM 0.0966667 45.3639C 0.0966667 45.4609 0.0966667 45.5579 0.0966667 45.655C 0.0966667 45.5579 0.0966667 45.4609 0.0966667 45.3639Z" fill="url(#paint0_linear)"/>
</g>
<g id="Group">
<g id="Group_2">
<g id="Group_3">
<g id="Vector_2">
<path d="M 151.622 40.6092C 155.875 43.1321 155.972 47.1105 151.719 49.6334L 85.4054 88.2534C 81.1521 90.7763 74.1921 90.7763 69.9387 88.2534L 3.23875 49.5364C -1.01459 47.0135 -1.11125 43.035 3.14208 40.5121L 69.3587 1.89218C 73.6121 -0.630728 80.5721 -0.630728 84.8254 1.89218L 151.622 40.6092Z" fill="url(#paint1_linear)"/>
</g>
</g>
</g>
</g>
<g id="Group_4">
<g id="Group_5">
<g id="Group_6">
<g id="Group_7">
<g id="Group_8">
<g id="Vector_3">
<path d="M 14.495 0.0167746L 14.457 0.0167746C 10.0058 0.884858 4.94581 1.86617 5.80516e-07 2.80974L 14.495 0.0167746C 14.457 -0.0209681 14.457 0.0167746 14.495 0.0167746Z" transform="translate(59.4404 30.4866)" fill="#A8AAA5"/>
</g>
</g>
<g id="Group_9">
<g id="Vector_4">
<path d="M 18.6039 1.69008C 23.9301 4.74724 21.5333 8.48377 20.2778 10.8238C 20.0115 11.2767 19.7452 11.8051 19.4028 12.409C 18.0712 9.95574 15.8646 8.14409 14.0765 6.93632C 13.2776 6.37018 12.5548 5.95501 12.0221 5.61532C 11.9841 5.57758 11.908 5.53984 11.8319 5.5021C 9.85358 4.36981 3.19576 1.76556 1.16103e-06 1.31265C 4.29905 0.444568 13.2776 -1.32934 18.6039 1.69008Z" transform="translate(85.084 27.0007)" fill="#FFFFFD"/>
</g>
</g>
<g id="Group_10">
<g id="Vector_5">
<path d="M 14.0385 5.62367C 15.4081 8.5676 16.4353 12.6438 15.7125 17.7391L 15.6364 17.8523C 15.6744 17.8146 15.6744 17.7768 15.7125 17.7391C 13.5439 14.3422 10.8047 11.5493 7.49481 9.24697C 5.89693 5.58593 3.50011 2.15134 0 3.59943e-08C 3.19576 0.452913 9.85358 3.05716 11.8319 4.18944C 11.908 4.22719 11.946 4.26493 12.0221 4.30267C 12.5167 4.64236 13.2396 5.09527 14.0385 5.62367Z" transform="translate(85.1592 28.2766)" fill="#A8AAA5"/>
</g>
</g>
<g id="Group_11">
<g id="Vector_6">
<path d="M 0.0296103 0C -0.00987009 0 -0.00987009 0 0.0296103 0C -0.00987009 0 0.0296103 0 0.0296103 0Z" transform="translate(95.9736 54.355)" fill="#A8AAA5"/>
</g>
</g>
<g id="Group_12">
<g id="Vector_7">
<path d="M 31.6912 6.07658C 32.2239 6.41627 32.7184 6.71821 33.213 7.09563C 36.561 9.43569 39.2621 12.2286 41.4307 15.5878C 41.3926 15.6255 41.3926 15.6632 41.3546 15.701C 39.8709 18.3052 38.1588 21.1359 36.5229 23.8912C 33.8217 18.9846 30.2075 15.0216 25.528 11.7757C 25.0334 11.4361 24.5008 11.0964 23.9682 10.7567C 23.8921 10.7189 23.816 10.6435 23.7399 10.6057C 23.6258 10.5302 23.5116 10.4925 23.3975 10.417L 23.0931 10.2283C 22.979 10.1528 22.8268 10.0773 22.6746 10.0018C 16.7777 6.90692 9.39704 4.52913 5.80516e-07 2.83071C 4.90777 1.84939 9.96772 0.905826 14.4189 -7.19886e-08C 21.1148 1.43422 26.4411 3.24588 30.7782 5.54818C 30.8543 5.58593 30.9303 5.62367 31.0064 5.66141L 31.2347 5.77464C 31.4249 5.92561 31.5391 6.0011 31.6912 6.07658Z" transform="translate(59.4404 30.4658)" fill="#FFFFFD"/>
</g>
</g>
<g id="Group_13">
<g id="Vector_8">
<path d="M 25.566 8.90729C 29.6368 14.4177 33.1369 21.1737 32.5663 27.7032C 30.2455 22.5324 24.3486 16.72 16.169 12.0399C 15.332 11.5493 14.457 11.0964 13.582 10.6435C 10.196 6.98241 5.7828 3.32136 5.80516e-07 -2.87954e-07C 9.359 1.69842 16.7397 4.07622 22.6746 7.17112C 22.7888 7.24661 22.941 7.32209 23.0931 7.39758L 23.3975 7.58629C 23.5116 7.62404 23.6258 7.69952 23.7399 7.77501C 23.816 7.81275 23.8921 7.88823 23.9682 7.92598C 24.5388 8.22792 25.0334 8.5676 25.566 8.90729Z" transform="translate(59.4404 33.3318)" fill="#A8AAA5"/>
</g>
</g>
<g id="Group_14">
<g id="Vector_9">
<path d="M 49.6483 9.39794C 57.828 14.078 63.6869 19.8904 66.0456 25.0612L 57.9041 37.0634C 56.6486 30.2319 51.056 21.3246 39.8709 14.9461C 27.5824 7.92598 12.6689 4.03847 0 3.92524L 20.5822 2.87954e-07C 29.3325 0.981312 38.7295 3.73653 47.0233 8.00146C 47.8983 8.45438 48.7733 8.90729 49.6483 9.39794Z" transform="translate(26 35.9373)" fill="#FFFFFD"/>
</g>
</g>
</g>
</g>
</g>
</g>
</g>
</g>
<defs>

<linearGradient id="paint0_linear" x2="1" gradientUnits="userSpaceOnUse" gradientTransform="matrix(0 109.698 -155 0 155 0)">
<stop stop-color="#D9293D"/>
<stop offset="1" stop-color="#D1263A"/>
</linearGradient>
<linearGradient id="paint1_linear" x2="1" gradientUnits="userSpaceOnUse" gradientTransform="matrix(0 90.1456 -154.861 0 154.861 0)">
<stop stop-color="#FF4E63"/>
<stop offset="1" stop-color="#F43148"/>
</linearGradient>

</defs>
</svg>

