<svg width="164" height="122" viewBox="0 0 164 122" version="1.1" xmlns="http://www.w3.org/2000/svg" xmlns:xlink="http://www.w3.org/1999/xlink">
<g id="Canvas" fill="none">
<g id="Group 2.12" filter="url(#filter0_d)">
<g id="Vector">
<path d="M 154.957 45.4609C 155.15 43.7143 154.087 41.9677 151.767 40.6092L 85.0667 1.89218C 80.8133 -0.630728 73.8533 -0.630728 69.6 1.89218L 3.19 40.6092C 1.06333 41.8706 0 43.4232 0 45.0728L 0 64.8679C 0 66.5175 1.06333 68.1671 3.19 69.4286L 69.89 108.146C 70.3733 108.437 70.8567 108.631 71.34 108.825L 71.4367 108.825C 71.4367 108.825 71.4367 108.825 71.5333 108.825C 71.92 109.019 72.3067 109.116 72.6933 109.213L 72.79 109.213C 72.8867 109.213 72.9833 109.213 73.08 109.31C 73.2733 109.407 73.5633 109.407 73.7567 109.504C 73.8533 109.504 73.8533 109.504 73.95 109.504C 74.0467 109.504 74.1433 109.504 74.24 109.504C 74.4333 109.504 74.6267 109.601 74.82 109.601C 74.9167 109.601 75.0133 109.601 75.0133 109.601C 75.11 109.601 75.2067 109.601 75.3033 109.601C 75.4967 109.601 75.69 109.601 75.8833 109.698C 75.98 109.698 76.0767 109.698 76.1733 109.698C 76.27 109.698 76.3667 109.698 76.4633 109.698C 76.6567 109.698 76.85 109.698 77.0433 109.698C 77.14 109.698 77.2367 109.698 77.3333 109.698C 77.43 109.698 77.5267 109.698 77.5267 109.698C 77.72 109.698 77.9133 109.698 78.1067 109.698C 78.2033 109.698 78.3 109.698 78.3967 109.698C 78.4933 109.698 78.4933 109.698 78.59 109.698C 78.88 109.698 79.0733 109.698 79.3633 109.601C 79.46 109.601 79.5567 109.601 79.6533 109.601L 79.75 109.601C 80.1367 109.601 80.62 109.504 81.0067 109.407C 81.0067 109.407 81.0067 109.407 81.1033 109.407C 81.2 109.407 81.2967 109.31 81.49 109.31C 81.6833 109.31 81.8767 109.213 82.07 109.213C 82.2633 109.213 82.36 109.116 82.4567 109.116C 82.65 109.019 82.8433 109.019 83.0367 108.922L 83.1333 108.922C 83.23 108.922 83.23 108.825 83.3267 108.825C 83.6167 108.728 83.9067 108.631 84.1967 108.534C 84.2933 108.534 84.39 108.437 84.4867 108.437C 84.8733 108.243 85.1633 108.146 85.55 107.951L 151.767 69.4286L 151.863 69.3315C 151.96 69.2345 152.057 69.2345 152.153 69.1375C 152.25 69.0404 152.443 68.9434 152.54 68.8464C 152.637 68.7493 152.733 68.6523 152.83 68.5553C 152.927 68.4582 153.023 68.3612 153.12 68.2642C 153.12 68.2642 153.12 68.2641 153.217 68.1671L 153.313 68.0701C 153.507 67.876 153.603 67.779 153.797 67.5849L 153.893 67.4879C 153.893 67.4879 153.893 67.3908 153.99 67.3908C 154.087 67.2938 154.183 67.0997 154.28 67.0027C 154.28 66.9057 154.377 66.9057 154.377 66.8086L 154.377 66.7116C 154.473 66.6146 154.473 66.5175 154.57 66.3235C 154.57 66.2264 154.667 66.2264 154.667 66.1294C 154.667 66.1294 154.667 66.1294 154.667 66.0323C 154.667 65.9353 154.763 65.8383 154.763 65.7412C 154.763 65.6442 154.86 65.5472 154.86 65.5472C 154.86 65.5472 154.86 65.5472 154.86 65.4501C 154.86 65.3531 154.86 65.2561 154.86 65.062C 154.86 64.965 154.86 64.8679 154.86 64.8679L 154.86 64.7709L 154.957 44.9757C 155.053 45.2668 154.957 45.3639 154.957 45.4609ZM 0.0966667 45.3639C 0.0966667 45.4609 0.0966667 45.5579 0.0966667 45.655C 0.0966667 45.5579 0.0966667 45.4609 0.0966667 45.3639Z" transform="translate(4 0)" fill="url(#paint0_linear)"/>
</g>
<g id="Group">
<g id="Group_2">
<g id="Vector_2">
<path d="M 151.622 40.6092C 155.875 43.1321 155.972 47.1105 151.719 49.6334L 85.4054 88.2534C 81.1521 90.7763 74.1921 90.7763 69.9387 88.2534L 3.23875 49.5364C -1.01459 47.0135 -1.11125 43.035 3.14208 40.5121L 69.3587 1.89218C 73.6121 -0.630728 80.5721 -0.630728 84.8254 1.89218L 151.622 40.6092Z" transform="translate(4.14453 0)" fill="url(#paint1_linear)"/>
</g>
</g>
</g>
<g id="Group_3">
<g id="Group_4">
<g id="Vector_3">
<path d="M 61.2109 7.23378C 63.5773 8.58483 63.6058 10.7803 61.2394 12.1314L 55.68 15.312C 53.3137 16.663 49.4648 16.663 47.0985 15.312L 36.7494 9.4011C 36.4928 9.26036 36.1222 9.17592 35.7515 9.17592L 27.7403 9.48554C 27.4266 9.48554 27.113 9.56998 26.9135 9.71071L 17.2201 15.2557C 16.992 15.3683 16.878 15.5371 16.8494 15.7342L 16.2507 20.4629C 16.2222 20.688 16.3648 20.8851 16.6214 21.0539L 26.885 26.9085C 29.2513 28.2596 29.2798 30.455 26.9135 31.8061L 21.354 34.9867C 18.9877 36.3378 15.1674 36.3378 12.7725 34.9867L 3.99146 29.9765C 1.62513 28.6255 1.59662 26.43 3.96295 25.079L 11.8602 20.5473C 12.0883 20.4347 12.2023 20.2658 12.2308 20.0688L 12.7725 15.7342C 12.801 15.509 12.6585 15.312 12.4019 15.1431L 1.76768 9.09148C -0.570134 7.76857 -0.598644 5.5731 1.73917 4.22205L 7.35563 1.01329C 9.69345 -0.337764 13.5138 -0.337764 15.8801 1.01329L 26.3433 6.98045C 26.5999 7.12119 26.9705 7.20563 27.3411 7.20563L 35.2099 6.92416C 35.5235 6.92416 35.8086 6.83972 36.0366 6.69898L 43.8199 2.22361C 46.1862 0.872557 50.035 0.872557 52.4014 2.22361L 61.2109 7.23378Z" transform="translate(57 29)" fill="white"/>
</g>
</g>
</g>
</g>
</g>
<defs>
<filter id="filter0_d" x="0" y="0" width="163.005" height="121.698" filterUnits="userSpaceOnUse" color-interpolation-filters="sRGB">
<feFlood flood-opacity="0" result="BackgroundImageFix"/>
<feColorMatrix in="SourceAlpha" type="matrix" values="0 0 0 0 0 0 0 0 0 0 0 0 0 0 0 0 0 0 255 0"/>
<feOffset dy="8"/>
<feGaussianBlur stdDeviation="2"/>
<feColorMatrix type="matrix" values="0 0 0 0 0 0 0 0 0 0 0 0 0 0 0 0 0 0 0.1 0"/>
<feBlend mode="normal" in2="BackgroundImageFix" result="effect1_dropShadow"/>
<feBlend mode="normal" in="SourceGraphic" in2="effect1_dropShadow" result="shape"/>
</filter>

<linearGradient id="paint0_linear" x2="1" gradientUnits="userSpaceOnUse" gradientTransform="matrix(0 109.698 -155 0 155 0)">
<stop stop-color="#4B5E85"/>
<stop offset="1" stop-color="#314163"/>
</linearGradient>
<linearGradient id="paint1_linear" x2="1" gradientUnits="userSpaceOnUse" gradientTransform="matrix(0 90.1456 -154.861 0 154.861 0)">
<stop stop-color="#52658C"/>
<stop offset="1" stop-color="#3D4F75"/>
</linearGradient>

</defs>
</svg>

