<svg width="419" height="529" viewBox="0 0 419 529" version="1.1" xmlns="http://www.w3.org/2000/svg" xmlns:xlink="http://www.w3.org/1999/xlink">
<g id="Canvas" fill="none">
<g id="Group">
<g id="Group_2">
<g id="Vector">
<path d="M 299.052 179.537L 296.421 239.039C 296.421 239.039 287.694 271.356 216.082 248.887C 188.934 240.287 166.356 222.811 166.356 222.811L 171.896 121.144C 171.896 121.144 148.903 159.425 120.23 161.506C 92.9431 163.448 0 121.283 0 121.283C 0 121.283 26.8718 108.106 33.382 109.909C 46.2638 113.654 122.031 114.486 122.031 114.486C 122.031 114.486 135.606 93.9589 157.906 49.4363C 176.19 12.9582 178.822 5.6071 227.718 1.03001C 284.924 -4.37928 299.468 11.1551 317.198 56.2325C 335.759 103.807 340.607 149.578 334.928 173.434C 330.495 192.297 298.221 179.953 298.221 179.953" transform="translate(80.916 175.674)" fill="url(#paint0_linear)"/>
</g>
<g id="Group_3">
<g id="Vector_2">
<path d="M 2.92345 64.7579C 4.58562 93.0527 27.9281 114.412 56.0465 112.748C 84.3035 111.084 105.635 86.6725 103.973 58.5164L 102.172 30.2216C 100.51 1.92687 77.2392 -1.40193 49.1208 0.401168C 20.8639 2.06557 -1.57543 8.30706 0.0867434 36.4631L 2.92345 64.7579Z" transform="translate(249.539 54.1079)" fill="url(#paint1_linear)"/>
</g>
<g id="Group_4">
<g id="Vector_3">
<path d="M 43.9894 51.562C 3.95872 66.5416 -8.7846 24.6543 5.89792 14.2518C 17.2561 6.20718 29.1683 16.1936 42.0502 10.5069C 115.601 -21.5328 116.709 29.9249 116.709 29.9249C 116.709 29.9249 130.422 31.4505 134.578 47.1236C 139.98 67.0964 132.777 86.237 122.388 90.6754C 116.432 93.3107 112.97 81.1051 112.97 81.1051C 128.068 70.1478 120.588 53.3651 108.953 53.2264C 94.5471 53.0877 96.9019 71.8122 96.9019 71.8122C 96.9019 71.8122 86.6518 70.0091 86.6518 68.4834C 88.7295 53.2264 87.4829 35.1954 43.9894 51.562Z" transform="translate(230.984 29.3)" fill="url(#paint2_linear)"/>
</g>
</g>
</g>
<g id="Vector_4" style="mix-blend-mode:color-burn" opacity="0.3">
<path d="M 93.4972 70.1821C 93.2201 67.9629 92.8046 65.605 92.3891 63.1084C 85.4634 25.5208 65.3788 4.23278e-06 65.3788 4.23278e-06L 4.22712e-06 29.127C 4.22712e-06 29.127 81.0309 84.8843 91.9735 81.9716C 95.2979 81.2781 94.3283 76.9784 93.4972 70.1821Z" transform="translate(282.869 228.577)" fill="url(#paint3_linear)"/>
</g>
<g id="Vector_5" style="mix-blend-mode:color-burn" opacity="0.3">
<path d="M 126.913 86.4838C 126.913 86.4838 91.1758 80.5197 15.547 7.5636C 15.547 7.5636 6.68207 -6.5838 3.77327 3.81869C 0.725953 6.17658 0.310414 24.0689 0.033385 27.259C -0.382158 31.2813 3.21922 101.602 3.21922 101.602L 7.9287 92.3092C 12.3612 106.318 19.2869 112.975 19.2869 112.975L 124.696 139.051L 126.913 86.4838Z" transform="translate(253.056 269.281)" fill="url(#paint4_linear)" fill-opacity="0.6"/>
</g>
</g>
<g id="Group_5">
<g id="Vector_6">
<path d="M 3.22969 0C 4.232 2.03458 4.73315 4.57782 5.73546 6.61239C 6.73776 8.64697 7.7401 10.6816 8.74241 12.2075C 9.24356 13.2248 10.2458 14.7507 10.2458 16.2766C 9.74465 17.8025 8.74235 19.3285 7.74004 19.8372C 5.23427 21.3631 2.7285 21.3631 0.222735 20.3458C 0.222735 20.3458 -0.278419 19.8372 0.222735 19.8372C 0.222735 19.8372 0.222766 19.8372 0.723919 19.8372C 2.72853 19.8372 4.7787 19.1246 6.28216 18.1073C 7.78562 16.5814 8.24129 15.768 6.73782 14.2421C 5.23436 12.2075 4.23203 9.66424 3.73087 7.62967C 3.22972 5.08644 2.7285 3.0519 2.7285 0.508676C 2.7285 3.1054e-05 2.72853 0 3.22969 0Z" transform="matrix(-0.998875 0.0474141 0.047507 0.998871 278.861 111.115)" fill="#312D74"/>
</g>
</g>
<g id="Vector_7">
<path d="M 5.61102 9.76399C 5.61102 11.2899 4.10753 12.8159 2.60407 12.3072C 1.10061 12.3072 -0.402851 10.7813 0.0983025 9.25539L 0.0983025 2.64299C 0.0983025 1.11706 1.60179 -0.408873 3.10525 0.0997719C 4.60872 0.0997719 6.11218 1.62566 5.61102 3.15159L 5.61102 9.76399Z" transform="matrix(-0.998875 0.0474141 0.047507 0.998871 294.671 98.0442)" fill="#312D74"/>
</g>
<g id="Vector_8">
<path d="M 5.61099 9.764C 5.61099 11.2899 4.1075 12.8159 2.60404 12.3072C 1.10058 12.3072 -0.402882 10.7813 0.0982719 9.2554L 0.0982719 2.64301C 0.0982719 1.11708 1.60176 -0.408857 3.10522 0.0997874C 4.60868 0.0997874 6.11214 1.62567 5.61099 3.15161L 5.61099 9.764Z" transform="matrix(-0.998875 0.0474141 0.047507 0.998871 265.64 99.4229)" fill="#312D74"/>
</g>
<g id="Group_6">
<g id="Vector_9">
<path d="M 25.0584 5.59494C 23.0537 6.6122 20.5478 7.1208 18.5431 7.62943C 16.0373 7.62943 14.0327 7.62947 11.5268 7.12084C 9.52215 6.61221 7.01637 5.59495 5.0117 4.57769C 3.00703 3.56043 1.50353 2.03452 3.05888e-05 0.508631L 3.05888e-05 -3.10443e-05L 0.501228 -3.10443e-05C 4.51057 2.03449 8.01868 3.56043 12.028 4.57769C 16.0374 5.59495 20.0467 5.59491 24.056 5.08627C 24.5572 5.08627 24.5572 5.08631 24.5572 5.59494C 25.5595 5.08631 25.0584 5.59494 25.0584 5.59494Z" transform="matrix(-0.974464 0.224544 0.224446 0.974486 305.445 134.148)" fill="#312D74"/>
</g>
</g>
<g id="Vector_10">
<path d="M 157.352 84.0521C 158.737 52.1512 158.876 33.4267 159.43 9.8477C 150.011 15.3957 94.1897 17.3375 67.1794 11.5121C 51.5273 8.18332 41.4158 4.85453 35.5982 2.63533C 32.8279 1.94183 30.7502 1.1096 29.365 0C 29.365 0 14.2667 114.166 12.0505 158.827C 10.1113 197.802 0 361.036 0 361.036C 22.1623 362.7 33.5205 344.253 33.5205 344.253C 28.1184 287.386 56.2366 222.49 67.1792 158.688C 73.5509 122.072 86.1559 62.1376 86.1559 62.1376C 114.136 156.731 112.058 391.411 112.058 391.411C 121.2 397.236 133.805 393.075 133.805 393.075C 133.805 393.075 151.119 226.497 157.352 84.0521Z" transform="translate(218.184 398.485)" fill="url(#paint5_linear)"/>
</g>
<g id="Vector_11">
<path d="M 26.4562 14.9796L 18.0069 17.8923L 14.4055 26.0756L 9.00343 18.8632L -1.05678e-06 18.031L 5.26355 10.6799L 3.18583 1.9418L 11.7737 4.57709L 19.5305 0L 19.669 9.01549L 26.4562 14.9796Z" transform="translate(40.4043 0)" fill="#FEA729"/>
</g>
<g id="Vector_12">
<path d="M 26.0407 12.2056L 18.6994 17.4762L 17.7298 26.4917L 10.5271 21.0824L 1.66217 22.8855L 4.43246 14.4248L -2.11356e-06 6.51889L 9.00343 6.51889L 15.0981 0L 17.8684 8.46069L 26.0407 12.2056Z" transform="translate(83.7598 23.5789)" fill="#FEA729"/>
</g>
<g id="Group_7">
<g id="Vector_13">
<path d="M 13.3519 56.5053L 0.193073 21.8303C -0.0839557 20.9981 -0.0839578 20.1659 0.331585 19.3337C 0.747128 18.6402 1.57821 18.0854 2.4093 17.9467L 63.3556 9.486L 69.8658 2.96711C 70.2813 2.55101 70.8354 2.27361 71.3895 2.13491L 85.9335 0.0544105C 86.4875 -0.0842893 87.0416 0.0544116 87.5956 0.331811L 91.0585 1.99621C 92.4436 2.68971 93.1362 4.35411 92.4436 5.74111C 91.7511 7.12811 90.0889 7.8216 88.7038 7.12811L 85.9335 5.8798L 74.1598 7.5442L 71.528 18.0854L 63.6327 50.4025C 63.3556 51.3734 62.8016 52.0669 61.832 52.3443C 61.6935 52.483 61.4164 52.483 61.1394 52.483L 16.1222 58.3083C 15.0141 58.447 13.7675 57.6149 13.3519 56.5053Z" transform="translate(51.1543 52.0967)" fill="#E6E7E8"/>
</g>
<g id="Vector_14">
<path d="M 4.95109 0.519315C 8.82949 -1.00638 13.2619 0.935421 14.7856 4.95772C 16.3093 8.84131 14.3701 13.2797 10.3531 14.8054C 6.47475 16.3311 2.04228 14.3893 0.518624 10.367C -1.00503 6.48342 0.934168 2.04501 4.95109 0.519315Z" transform="translate(98.7549 112.105)" fill="#E6E7E8"/>
</g>
<g id="Vector_15">
<path d="M 4.95109 0.519324C 8.82949 -1.00637 13.2619 0.935419 14.7856 4.95771C 16.3093 8.84131 14.3701 13.2797 10.3531 14.8054C 6.47475 16.3311 2.04228 14.3893 0.518624 10.367C -1.00503 6.34472 0.934168 2.04502 4.95109 0.519324Z" transform="translate(67.5889 116.405)" fill="#E6E7E8"/>
</g>
</g>
<g id="Vector_16">
<path d="M 25.9022 26.4917L 16.3447 23.7177L 7.89532 28.8496L 7.61829 19.0019L 2.11356e-06 12.483L 9.41898 9.15419L 13.1589 1.0582e-06L 19.2535 7.76719L 29.2265 8.59939L 23.5474 16.7827L 25.9022 26.4917Z" transform="translate(71.0176 69.6274)" fill="#FEA729"/>
</g>
<g id="Vector_17">
<path d="M 17.3206 -8.46557e-06C 17.3206 -8.46557e-06 16.2125 21.7759 15.3814 34.675C 15.3814 34.675 8.17863 46.4645 0.975882 53.2607C -2.76401 56.8669 4.57726 14.7022 17.3206 -8.46557e-06Z" transform="translate(237.708 262.004)" fill="url(#paint6_linear)"/>
</g>
<g id="Vector_18">
<path d="M 55.908 6.78761C 55.908 6.78761 36.6545 -5.27926 19.6172 2.76533C 2.57992 10.8099 -0.605915 23.8477 0.0866565 28.7022C 0.779228 33.5567 12.5529 26.8991 16.2928 26.3443C 20.0327 25.7895 30.8368 36.7468 41.641 25.9282C 51.614 15.8031 55.908 6.78761 55.908 6.78761Z" transform="translate(226.962 251.056)" fill="#ECC19C"/>
</g>
<g id="Group_8">
<g id="Vector_19">
<path d="M 93.3587 3.6062L 91.558 4.5771C 89.6188 5.6867 87.5411 6.24148 85.3248 6.10278L 3.8784 4.85449L 2.11356e-06 1.1096L 9.97304 0L 93.3587 3.6062Z" transform="translate(173.582 285.722)" fill="#7571C6"/>
</g>
<g id="Vector_20">
<path d="M 5.40206 0.00616578L 90.8654 1.94796L 90.4499 7.77337L -2.11356e-06 6.52505L 0.13851 4.86066C 0.277024 2.08666 2.63177 -0.132534 5.40206 0.00616578Z" transform="translate(176.631 281.555)" fill="#8D7FFF"/>
</g>
<g id="Vector_21">
<path d="M 128.981 0.0190481L 4.45649 7.78624C 1.27065 7.92494 -0.807061 11.115 0.301054 14.1664L 38.3925 122.491C 39.5006 125.542 42.2709 127.762 45.5952 127.9L 175.66 134.142C 178.569 134.281 180.647 131.507 179.816 128.732L 139.231 6.95404C 137.569 2.51565 133.413 -0.258352 128.981 0.0190481Z" transform="translate(0.693359 156.573)" fill="#7E79E2"/>
</g>
<g id="Vector_22">
<path d="M 179.623 128.594L 139.038 6.81535C 137.653 2.51565 133.498 -0.258336 129.065 0.0190636L 4.54084 7.78625C 3.57124 7.78625 2.60164 8.20235 1.90907 8.75715C 0.385414 10.0054 -0.445672 12.0859 0.246899 14.1664L 38.3383 122.491C 39.4465 125.542 42.2168 127.762 45.5411 127.9L 175.606 134.142C 176.714 134.142 177.684 133.864 178.376 133.171C 179.623 132.061 180.177 130.397 179.623 128.594Z" transform="translate(0.608398 156.435)" fill="#7E79E2"/>
</g>
<g id="Vector_23">
<path d="M 128.981 0.0190502L 4.45649 7.78624C 1.27065 7.92494 -0.807061 11.115 0.301054 14.1664L 38.3925 122.491C 39.5006 125.542 42.2709 127.762 45.5952 127.9L 175.66 134.142C 178.569 134.281 180.647 131.507 179.816 128.733L 139.231 6.95404C 137.569 2.51565 133.413 -0.25835 128.981 0.0190502Z" transform="translate(0 157.129)" fill="url(#paint7_linear)"/>
</g>
<g id="Vector_24" style="mix-blend-mode:lighten">
<path d="M 24.0782 10.2924C 21.4465 2.6639 14.1052 -1.63579 7.73354 0.583405C 1.36188 2.8026 -1.68544 10.7085 0.946334 18.337C 3.57811 25.9655 11.889 29.9878 17.291 28.046C 23.5242 25.6881 26.5715 17.7822 24.0782 10.2924Z" transform="translate(67.5049 207.744)" fill="#E6E7E8"/>
</g>
</g>
<g id="Vector_25">
<path d="M 38.5246 22.571C 36.7239 22.8484 35.2003 21.6001 34.7847 17.1617C 33.3996 3.56909 3.48048 -6.00119 0.71019 4.4013C -2.0601 14.8038 3.20345 23.2645 17.7475 34.7766C 32.1529 46.4273 49.0517 37.5505 49.0517 37.5505C 54.0382 31.8639 54.7308 27.0094 53.8997 23.2645L 38.5246 22.571Z" transform="translate(55.5498 264.677)" fill="#ECC19C"/>
</g>
</g>
</g>
<defs>

<linearGradient id="paint0_linear" x2="1" gradientUnits="userSpaceOnUse" gradientTransform="matrix(-246.054 174.667 -229.3 -323.38 406.181 168.977)">
<stop stop-color="#FEA729"/>
<stop offset="0.9999" stop-color="#FF9700"/>
<stop offset="1" stop-color="#FEA729"/>
</linearGradient>
<linearGradient id="paint1_linear" x2="1" gradientUnits="userSpaceOnUse" gradientTransform="matrix(22.3656 113.044 -104.252 20.6496 81.7923 -10.5298)">
<stop stop-color="#ECC19C"/>
<stop offset="1" stop-color="#EFC7A3"/>
</linearGradient>
<linearGradient id="paint2_linear" x2="1" gradientUnits="userSpaceOnUse" gradientTransform="matrix(0 91.048 -136.42 0 136.42 0)">
<stop stop-color="#2D287E"/>
<stop offset="1" stop-color="#2C2963"/>
</linearGradient>
<linearGradient id="paint3_linear" x2="1" gradientUnits="userSpaceOnUse" gradientTransform="matrix(-13.5 -109.5 109.365 -13.5606 13.9471 136.703)">
<stop/>
<stop offset="0.4222" stop-color="#131112" stop-opacity="0.5049"/>
<stop offset="1" stop-color="#231F20" stop-opacity="0"/>
</linearGradient>
<linearGradient id="paint4_linear" x2="1" gradientUnits="userSpaceOnUse" gradientTransform="matrix(-41.6305 74.1046 -74.0055 -41.6862 114.516 68.2195)">
<stop/>
<stop offset="0.3644" stop-color="#131112" stop-opacity="0.5049"/>
<stop offset="0.736" stop-color="#231F20" stop-opacity="0"/>
</linearGradient>
<linearGradient id="paint5_linear" x2="1" gradientUnits="userSpaceOnUse" gradientTransform="matrix(0 394.515 -159.43 0 159.43 0)">
<stop stop-color="#3E3992"/>
<stop offset="1" stop-color="#413D7F"/>
</linearGradient>
<linearGradient id="paint6_linear" x2="1" gradientUnits="userSpaceOnUse" gradientTransform="matrix(-27.3758 -7.4529 7.44293 -27.4125 33.2948 48.1481)">
<stop stop-color="#5E1300"/>
<stop offset="0.3073" stop-color="#5E1300" stop-opacity="0.7152"/>
<stop offset="1" stop-color="#5E1300" stop-opacity="0"/>
</linearGradient>
<linearGradient id="paint7_linear" x2="1" gradientUnits="userSpaceOnUse" gradientTransform="matrix(-113.962 116.618 -156.479 -153.089 235.714 94.0832)">
<stop stop-color="#7872F0"/>
<stop offset="1" stop-color="#7571C6"/>
</linearGradient>

</defs>
</svg>

