<svg width="115" height="130" viewBox="0 0 115 130" version="1.1" xmlns="http://www.w3.org/2000/svg" xmlns:xlink="http://www.w3.org/1999/xlink">
<g id="Canvas" fill="none">
<g id="Group 2">
<g id="Group">
<g id="Group_2">
<g id="Vector">
<path d="M 66.1078 23.4537L 57.982 22.4877L 57.982 21.9357C 59.2216 11.1714 51.509 1.37306 40.7665 0.131023C 30.024 -1.11102 20.2455 6.61722 19.006 17.3816L 19.006 17.9336L 10.8802 16.9675L 0 69.6852L 64.7305 77.1374L 66.1078 23.4537ZM 40.491 2.6151C 47.515 3.44312 53.1617 8.54928 55.0898 15.0355C 52.3353 9.51531 46.8263 5.51319 40.3533 4.68516C 33.7425 3.99514 27.5449 6.61722 23.5509 11.3094C 26.8563 5.51319 33.4671 1.78707 40.491 2.6151ZM 22.5868 18.4856C 25.0659 11.3094 32.2275 6.61722 39.9401 7.44525C 47.6527 8.27327 53.5749 14.6215 54.4012 22.0737L 22.5868 18.4856Z" transform="translate(0 52.8628)" fill="#E6E7E8"/>
</g>
</g>
<g id="Vector_2">
<path d="M 20.6587 28.8429L 12.3952 23.5987L 2.89222 26.0828L 5.37126 16.5605L 0 8.14225L 9.91617 7.72824L 16.1138 0L 19.6946 9.24628L 28.9222 12.8344L 21.2096 19.0446L 20.6587 28.8429Z" transform="translate(22.0361 86.9426)" fill="#FEA729"/>
</g>
<g id="Vector_3">
<path d="M 0 14.9045L 8.4012 17.8025L 11.982 25.9448L 17.3533 18.7686L 26.1677 17.9406L 21.0719 10.6263L 23 1.93206L 14.4611 4.55414L 6.74851 0L 6.61078 8.97028L 0 14.9045Z" transform="translate(88.832 0)" fill="#FEA729"/>
</g>
<g id="Vector_4">
<path d="M 0 12.1444L 7.16168 17.3885L 8.26347 26.3588L 15.4252 20.9766L 24.2395 22.7707L 21.3473 14.3524L 25.7545 6.4862L 16.8024 6.4862L 10.7425 0L 8.12575 8.41826L 0 12.1444Z" transform="translate(46.1377 23.4607)" fill="#FEA729"/>
</g>
</g>
</g>
</g>
</svg>

