<svg width="335" height="497" viewBox="0 0 335 497" version="1.1" xmlns="http://www.w3.org/2000/svg" xmlns:xlink="http://www.w3.org/1999/xlink">
<g id="Canvas" fill="none">
<g id="Group 2.22">
<g id="Group">
<g id="Group_2">
<g id="Vector">
<path d="M 38.5251 12.9606C 38.5251 12.9606 21.8517 72.5501 21.9489 134.381C 21.9489 134.381 7.12278 141.446 4.06033 128.29C 3.08812 119.52 -3.13401 31.5244 2.01869 -1.18955e-05C 2.01869 -1.18955e-05 14.2199 12.7657 38.5251 12.9606Z" transform="translate(197.298 484.873)" fill="#ECC19C"/>
</g>
<g id="Vector_2">
<path d="M 207.442 0.653129C 167.387 -4.268 144.734 19.3144 136.665 48.0129C 129.082 74.8598 117.172 100.586 99.4781 105.702C 87.1796 109.308 68.8049 117.25 57.819 129.918C 57.819 129.918 47.2219 138.25 44.6942 159.299C 42.1178 180.347 43.5275 187.217 17.9585 198.132C -10.1869 210.167 -8.14526 259.573 44.9372 257.283C 81.2978 255.723 171.276 215.624 193.782 182.735C 205.108 179.763 215.9 174.062 230.045 164.561C 254.788 147.946 263.732 111.111 266.6 87.6255C 275.448 15.3191 235.636 4.11254 207.442 0.653129Z" transform="translate(13.748 0)" fill="#312D74"/>
</g>
<g id="Vector_3">
<path d="M 100.859 67.6718C 97.4564 95.4932 72.2276 115.275 44.4711 111.864C 16.7146 108.454 -3.02119 83.166 0.381535 55.3446L 3.78426 27.5719C 7.18698 -0.249557 30.2283 -2.14979 57.9848 1.26089C 85.7413 4.67157 107.616 12.0776 104.262 39.8503L 100.859 67.6718Z" transform="translate(170.936 25.8979)" fill="#ECC19C"/>
</g>
<g id="Vector_4">
<path d="M 5.93388e-06 48.4326C 4.37494 56.5695 26.3954 55.6438 44.7701 50.7714C 82.7834 40.7342 92.943 12.9615 92.943 12.9615C 92.943 12.9615 61.2004 -1.31462 36.555 0.0983728C 11.9095 1.51137 5.93388e-06 48.4326 5.93388e-06 48.4326Z" transform="translate(163.442 12.3459)" fill="#312D74"/>
</g>
<g id="Vector_5">
<path d="M 32.8163 43.0757C -1.11376 36.2544 0.00427985 11.6974 0.00427985 11.6974C 0.00427985 11.6974 6.56668 -0.239941 13.2263 0.00367879C 24.5039 0.442195 35.0037 14.1336 37.0454 25.6812C 38.6981 35.1824 32.8163 43.0757 32.8163 43.0757Z" transform="translate(243.158 25.3525)" fill="#312D74"/>
</g>
<g id="Group_3">
<g id="Vector_6">
<path d="M 1.78086 0.309921L 2.89891 1.13823C 3.28779 1.43057 3.62806 1.67419 4.01694 1.96654C 4.7461 2.5025 5.52387 2.94102 6.30164 3.33081C 7.80856 4.11039 9.31548 4.64636 10.9196 4.9387C 11.3085 5.03615 11.6974 5.08487 12.1349 5.1336C 12.5724 5.18232 13.0099 5.23105 13.4473 5.27977C 14.3223 5.37722 15.1487 5.42595 16.0237 5.42595C 16.8987 5.42595 17.7737 5.42594 18.6487 5.37722C 19.0862 5.32849 19.5236 5.27977 20.0097 5.18232C 20.4472 5.1336 20.982 4.98743 21.3708 4.9387L 21.6139 4.88998C 21.9542 4.84125 22.3431 5.03615 22.3917 5.42595C 22.4403 5.57212 22.3917 5.71829 22.3431 5.86446C 22.0514 6.44915 21.7111 6.93639 21.2736 7.37491C 21.0792 7.61853 20.8361 7.76469 20.6417 8.00831C 20.3986 8.20321 20.2042 8.39811 19.9125 8.54428C 18.9403 9.22642 17.8709 9.71366 16.7529 10.006C 15.6348 10.3471 14.4682 10.4932 13.3501 10.542C 13.0585 10.542 12.7668 10.542 12.4751 10.542L 11.6488 10.4932C 11.1141 10.4932 10.4821 10.3958 9.8988 10.2496C 7.5655 9.81111 5.28082 8.69045 3.57945 7.08256C 2.70447 6.30297 1.97531 5.37722 1.34337 4.40274C 1.05171 3.9155 0.760046 3.42825 0.565605 2.89229C 0.322553 2.35632 0.176734 1.86909 0.0309027 1.23567C -0.114928 0.69971 0.273943 0.115022 0.808657 0.0175738C 1.10032 -0.0311503 1.4406 0.0175708 1.63504 0.212467L 1.78086 0.309921Z" transform="translate(217.126 103.784)" fill="#312D74"/>
</g>
</g>
<g id="Vector_7">
<path d="M 19.7572 11.1285C 19.0766 16.5856 14.6531 16.2446 9.20872 15.6111C 3.76436 14.9777 -0.610564 14.1981 0.0699814 8.74106C 0.750526 3.28396 5.66016 -0.565236 11.1045 0.0681764C 16.5489 0.701589 20.3891 5.72016 19.7572 11.1285Z" transform="translate(184.517 85.3162)" fill="#E0A8A3"/>
</g>
<g id="Mask Group">
<mask id="mask0" mask-type="alpha" maskUnits="userSpaceOnUse" x="170" y="25" width="106" height="114">
<g id="Vector_8">
<path d="M 100.859 67.6718C 97.4564 95.4932 72.2276 115.275 44.4711 111.864C 16.7146 108.454 -3.02119 83.166 0.381535 55.3446L 3.78426 27.5719C 7.18698 -0.249557 30.2283 -2.14979 57.9848 1.26089C 85.7413 4.67157 107.616 12.0776 104.262 39.8503L 100.859 67.6718Z" transform="translate(170.936 25.8979)" fill="white"/>
</g>
</mask>
<g mask="url(#mask0)">
<g id="Vector_9">
<path d="M 17.8015 10.0624C 17.2181 14.9835 13.0863 15.4707 8.22522 14.8373C 3.31558 14.2526 -0.524633 12.7909 0.0586908 7.86977C 0.642015 2.94864 5.11417 -0.559486 10.0238 0.0739264C 14.9335 0.707339 18.4334 5.14123 17.8015 10.0624Z" transform="translate(254.43 94.1294)" fill="#E0A8A3"/>
</g>
</g>
</g>
<g id="Vector_10">
<path d="M 12.0076 27.2836C 18.6392 27.2836 24.0152 21.1759 24.0152 13.6418C 24.0152 6.10764 18.6392 2.97367e-06 12.0076 2.97367e-06C 5.37599 2.97367e-06 0 6.10764 0 13.6418C 0 21.1759 5.37599 27.2836 12.0076 27.2836Z" transform="matrix(0.984932 -0.172691 0.17191 0.985068 151.454 64.7073)" fill="#ECC19C"/>
</g>
<g id="Vector_11">
<path d="M 4.37493 8.77033C 6.79114 8.77033 8.74986 6.80702 8.74986 4.38516C 8.74986 1.9633 6.79114 0 4.37493 0C 1.95872 0 -2.96694e-06 1.9633 -2.96694e-06 4.38516C -2.96694e-06 6.80702 1.95872 8.77033 4.37493 8.77033Z" transform="translate(164.025 84.166)" fill="#E6E7E8"/>
</g>
<g id="Group_4">
<g id="Vector_12">
<path d="M 5.10606 0.468583C 5.34911 2.36882 5.83521 4.26905 6.51575 6.02312C 6.85603 6.90015 7.24491 7.72847 7.73101 8.50805C 7.97406 8.89784 8.21712 9.28763 8.46017 9.67742C 8.606 9.87232 8.70323 10.0672 8.84906 10.2621L 9.0435 10.5545L 9.33516 10.9443C 9.67544 11.4802 10.0157 12.1623 10.0643 12.9419C 10.1615 13.7215 9.9671 14.5498 9.57821 15.1832C 9.23794 15.8167 8.70322 16.3039 8.21712 16.6937C 7.6824 17.0835 7.14769 17.3271 6.61298 17.522C 5.49494 17.9118 4.3283 18.0092 3.25887 17.9118C 2.14083 17.8143 1.07139 17.4733 0.147795 16.8886C 0.00196367 16.7911 -0.0466378 16.5475 0.0505829 16.4013C 0.147804 16.3039 0.245015 16.2064 0.390847 16.2552C 1.36305 16.4013 2.28666 16.4013 3.21026 16.2552C 4.13385 16.109 4.96022 15.8167 5.73799 15.4269C 6.46714 15.0371 7.09908 14.4524 7.29352 13.9651C 7.39074 13.7215 7.43936 13.5266 7.39075 13.283C 7.34214 13.0394 7.24491 12.7958 7.05047 12.5034L 6.90465 12.3085L 6.66159 11.9675C 6.51576 11.7726 6.32132 11.5289 6.17549 11.2853C 5.88383 10.8468 5.59216 10.3596 5.34911 9.87232C 4.86301 8.89784 4.47413 7.87464 4.18246 6.80271C 3.8908 5.73078 3.79358 4.65885 3.74497 3.58692C 3.74497 2.51499 3.84219 1.44307 4.13385 0.371136C 4.23107 0.0787919 4.52273 -0.0673861 4.81439 0.0300619C 4.96022 0.0300619 5.10606 0.224963 5.10606 0.468583Z" transform="translate(229.939 83.7463)" fill="#312D74"/>
</g>
</g>
<g id="Vector_13">
<path d="M 0.796271 2.99072C 0.990713 1.18793 2.59487 -0.176338 4.39345 0.0185577C 6.19203 0.213454 7.55311 1.82134 7.35867 3.62413L 6.58091 11.2251C 6.38647 13.0279 4.78232 14.3921 2.98374 14.1973C 1.18515 14.0024 -0.175924 12.3945 0.0185174 10.5917L 0.796271 2.99072Z" transform="translate(247.033 74.8413)" fill="#312D74"/>
</g>
<g id="Vector_14">
<path d="M 0.796271 2.99072C 0.990713 1.18793 2.59487 -0.176338 4.39345 0.0185577C 6.19203 0.213454 7.55311 1.82134 7.35867 3.62413L 6.58091 11.2251C 6.38647 13.0279 4.78232 14.3921 2.98374 14.1973C 1.18515 14.0024 -0.175924 12.3945 0.0185174 10.5917L 0.796271 2.99072Z" transform="translate(212.52 72.405)" fill="#312D74"/>
</g>
<g id="Vector_15">
<path d="M 319.286 57.3969L 302.37 61.8308L 299.94 81.2717C 282.975 32.4015 263.822 15.6404 254.829 10.1833C 234.704 -0.730858 203.302 0.0974451 203.302 0.0974451L 203.497 5.94776e-06C 175.303 5.94776e-06 150.609 11.1091 119.158 45.9955C 79.1999 90.3344 77.0124 117.035 84.0609 126.536C 94.3177 140.325 128.782 131.896 138.893 125.562C 138.893 125.562 131.31 162.056 104.963 223.448C 77.4986 287.374 45.5616 282.697 23.4925 290.347C -4.55572 300.043 -4.60433 322.943 8.32602 339.119C 21.2078 355.296 67.4848 360.119 83.8179 365.966C 100.151 371.813 110.505 409.818 168.4 397.539C 226.295 385.261 236.552 390.864 256.433 271.685C 260.128 249.613 261.732 171.509 260.322 131.311C 260.03 123.418 259.01 104.805 258.767 100.566C 258.572 99.8356 258.572 99.4945 258.718 99.6894C 260.225 101.541 275.44 121.664 289.391 134.186C 289.634 134.381 289.829 134.576 290.072 134.771C 290.704 135.307 291.335 135.891 291.967 136.427C 304.46 146.659 324.536 148.072 328.571 136.817C 328.717 136.427 328.814 136.038 328.96 135.648C 334.696 112.406 319.286 57.3969 319.286 57.3969ZM 146.817 87.752L 121.831 98.6175C 121.831 98.6175 130.484 79.0304 149.15 63.5849C 149.296 69.9677 148.275 78.6893 146.817 87.752Z" transform="translate(0 142.635)" fill="#31E8B7"/>
</g>
<g id="Vector_16" style="mix-blend-mode:multiply" opacity="0.15">
<path d="M 109.033 0C 109.033 0 100.672 0.8283 95.0817 0.58468C 89.4915 0.341059 77.7764 8.96522 77.7764 8.96522C 77.7764 8.96522 48.8047 33.8145 19.8329 48.5779C 19.8329 48.5779 15.6524 68.7983 2.62482 104.367C 1.74983 106.949 0.972065 108.996 0.437351 110.214C 0.388741 110.36 0.291516 110.555 0.242906 110.701C -2.91677 120.592 25.5203 91.0165 40.6867 67.6777C 50.0199 53.3041 56.8254 45.9955 71.7487 43.3157C 73.7418 41.9514 80.693 44.2414 82.6861 40.5384C 83.2694 39.6126 83.8527 38.6382 84.3874 37.615C 96.7831 17.5894 109.033 0 109.033 0Z" transform="translate(119.061 219.619)" fill="url(#paint0_linear)"/>
</g>
<g id="Group_5">
<g id="Vector_17">
<path d="M 27.6593 44.8748C 25.4718 41.0744 23.2358 37.2739 20.9997 33.5221C 18.7636 29.7217 16.4789 25.9699 14.1942 22.2182C 11.9095 18.4664 9.57625 14.7147 7.24295 11.0116C 4.86104 7.30861 2.47912 3.60558 -5.93388e-06 -2.97388e-06C 3.01384 3.21578 5.88185 6.57774 8.74986 9.9397C 11.6179 13.3017 14.4373 16.7124 17.2567 20.123C 20.0761 23.5337 22.8469 26.9444 25.6177 30.4038C 28.3884 33.8632 31.1592 37.2739 33.8814 40.782L 27.6593 44.8748Z" transform="translate(242.482 186.584)" fill="#31CCB7"/>
</g>
</g>
<g id="Vector_18">
<path d="M 0 12.4305C 0 12.4305 12.0554 -1.84569 27.4162 0.200716C 42.7771 2.24713 48.5131 11.6509 49.1937 15.6462C 49.8742 19.6903 38.9855 17.3029 35.923 17.8388C 32.9092 18.3748 27.1246 29.5813 15.9928 23.7831C 5.68741 18.3748 0 12.4305 0 12.4305Z" transform="translate(178.899 203.973)" fill="#ECC19C"/>
</g>
<g id="Vector_19" style="mix-blend-mode:multiply" opacity="0.5">
<path d="M 0 29.17L 32.0828 15.1862C 32.0828 15.1862 18.958 -7.76283 5.1527 2.76156C 4.18049 3.49243 3.25689 4.27201 2.33329 5.00287C 2.47912 11.3857 1.45831 20.1073 0 29.17Z" transform="translate(146.816 201.217)" fill="url(#paint1_linear)"/>
</g>
<g id="Vector_20" opacity="0.26">
<path d="M 0 36.2406L 8.50681 50.7117C 8.50681 50.7117 14.8262 20.9413 9.96512 3.64423C 5.10409 -13.6528 0 36.2406 0 36.2406Z" transform="translate(289.975 197.557)" fill="url(#paint2_linear)"/>
</g>
<g id="Group_6">
<g id="Vector_21">
<path d="M 1.3891 119.725C 1.34049 119.725 1.34049 119.725 1.3891 119.725C 1.34049 119.725 1.34049 119.725 1.3891 119.725C 1.34049 119.725 1.34049 119.676 1.3891 119.725C 1.34049 119.676 1.34049 119.676 1.3891 119.725C 1.34049 119.676 1.34048 119.676 1.34048 119.676C -0.0692162 118.02 -0.506718 115.632 0.708541 113.488L 60.5965 7.26999C 63.3187 2.44631 68.8117 -0.184789 74.6935 0.010107L 125.977 2.73866C 129.04 2.8361 131.568 3.85931 133.22 5.85699C 135.311 8.43937 135.845 12.0449 133.998 15.2607L 74.5477 118.751C 72.8949 121.625 69.6866 123.379 66.1867 123.379L 6.20152 121.918C 4.2085 121.918 2.50714 121.041 1.3891 119.725Z" transform="translate(199.482 149.593)" fill="#7571C6"/>
</g>
<g id="Vector_22">
<path d="M 125.977 2.73758L 74.6929 0.0090339C 68.811 -0.185862 63.318 2.78631 60.5959 7.60999L 0.707909 113.828C -1.43095 117.629 1.53428 122.16 6.15226 122.16L 66.1375 123.622C 69.6374 123.622 72.8457 121.819 74.4984 118.993L 133.997 15.552C 137.303 9.85129 132.977 2.93248 125.977 2.73758Z" transform="translate(199.872 149.35)" fill="#8D7FFF"/>
</g>
<g id="Vector_23">
<path d="M 10.5644 18.2927C 16.3989 18.2927 21.1287 14.1977 21.1287 9.14634C 21.1287 4.09496 16.3989 2.96941e-06 10.5644 2.96941e-06C 4.72984 2.96941e-06 5.94283e-06 4.09496 5.94283e-06 9.14634C 5.94283e-06 14.1977 4.72984 18.2927 10.5644 18.2927Z" transform="matrix(0.595202 -0.803566 0.802233 0.596998 258.322 214.696)" fill="#E6E7E8"/>
</g>
<g id="Vector_24">
<path d="M 2.43409 3.69759C 3.7784 3.69759 4.86819 2.86986 4.86819 1.8488C 4.86819 0.82774 3.7784 -2.96951e-06 2.43409 -2.96951e-06C 1.08978 -2.96951e-06 -5.94262e-06 0.82774 -5.94262e-06 1.8488C -5.94262e-06 2.86986 1.08978 3.69759 2.43409 3.69759Z" transform="matrix(0.608005 -0.793986 0.792612 0.609795 267.508 159.733)" fill="#E6E7E8"/>
</g>
</g>
<g id="Vector_25">
<path d="M 2.68274 37.9152C 2.68274 37.9152 9.39099 38.841 17.5575 27.7806C 25.7241 16.7202 25.5296 8.63206 21.5922 5.70862C 17.6547 2.78517 9.19653 -1.59999 3.99523 0.592592C -1.20608 2.78517 -2.51856 21.4952 7.39795 29.8757L 2.68274 37.9152Z" transform="translate(301.292 178.829)" fill="#ECC19C"/>
</g>
</g>
</g>
</g>
</g>
<defs>

<linearGradient id="paint0_linear" x2="1" gradientUnits="userSpaceOnUse" gradientTransform="matrix(27.5855 27.6502 -27.5856 27.6501 47.2012 21.1898)">
<stop/>
<stop offset="0.3594" stop-color="#131112" stop-opacity="0.5049"/>
<stop offset="0.7259" stop-color="#231F20" stop-opacity="0"/>
</linearGradient>
<linearGradient id="paint1_linear" x2="1" gradientUnits="userSpaceOnUse" gradientTransform="translate(-47.7599 -25.4622) scale(79.8507 80.0375)">
<stop/>
<stop offset="0.4222" stop-color="#131112" stop-opacity="0.5049"/>
<stop offset="0.8528" stop-color="#231F20" stop-opacity="0"/>
</linearGradient>
<linearGradient id="paint2_linear" x2="1" gradientUnits="userSpaceOnUse" gradientTransform="matrix(-8.62829 49.0478 -48.9333 -8.64847 35.849 4.93136)">
<stop/>
<stop offset="0.4951" stop-color="#131112" stop-opacity="0.5049"/>
<stop offset="1" stop-color="#231F20" stop-opacity="0"/>
</linearGradient>

</defs>
</svg>

