<svg width="35" height="32" viewBox="0 0 35 32" version="1.1" xmlns="http://www.w3.org/2000/svg" xmlns:xlink="http://www.w3.org/1999/xlink">
<g id="Canvas" fill="none">
<g id="Vector">
<path d="M 32.3233 4.3544L 32.2398 4.3067C 30.6413 3.39367 28.5051 2.73423 26.1923 2.43194C 25.7729 2.37398 25.349 2.33719 24.9276 2.30973L 24.9226 2.29107C 24.4598 0.644736 22.7565 -0.320292 21.0814 0.0970656L 12.9116 2.15901C 11.8326 2.42718 10.8997 3.12631 10.3397 4.08582L 0.39019 21.1625C -0.411705 22.5366 0.0623284 24.3 1.44611 25.0904L 12.8742 31.6179C 14.258 32.4083 16.0386 31.9327 16.8405 30.5586L 26.8088 13.4769C 27.0992 12.9793 27.2709 12.4535 27.3333 11.8969C 28.8021 11.9146 30.1832 11.7557 31.3514 11.4437C 34.2386 10.6526 34.8635 9.14579 34.9737 8.31638C 35.0934 7.48445 34.9006 5.86599 32.3233 4.3544ZM 17.561 16.4867C 17.2858 16.7402 17.0156 17.0123 16.7405 17.2658C 16.4722 17.5074 16.3586 17.4978 16.1577 17.2015C 15.7466 16.6113 15.2193 16.1521 14.5757 15.824C 14.4112 15.738 14.2304 15.6663 14.0433 15.6462C 13.3563 15.5697 12.9271 16.1143 13.1781 16.7473C 13.3035 17.0638 13.4924 17.3533 13.7071 17.626C 14.0667 18.0999 14.4452 18.5688 14.7534 19.0765C 15.7361 20.7039 15.0696 22.7319 13.3367 23.3847C 12.7017 23.6143 12.0542 23.6472 11.4037 23.4809C 11.1211 23.4064 10.9352 23.4661 10.8045 23.731C 10.6712 23.9865 10.5141 24.2285 10.3664 24.4679C 10.242 24.6811 10.0561 24.7408 9.83196 24.6207C 9.5601 24.4733 9.28572 24.3166 9.02328 24.1667C 8.79412 24.0279 8.75087 23.8294 8.89164 23.6018C 8.99533 23.4242 9.09652 23.2371 9.20963 23.0569C 9.44467 22.6542 9.43715 22.6262 9.08056 22.3514C 8.63043 21.9917 8.21298 21.6032 7.88159 21.1217C 7.62992 20.7489 7.64002 20.6362 7.95917 20.321C 8.19916 20.0869 8.42973 19.8554 8.68165 19.6281C 8.96624 19.3721 9.07991 19.3817 9.28576 19.6967C 9.6347 20.2435 10.0886 20.6923 10.6077 21.0836C 10.938 21.3354 11.3141 21.4949 11.731 21.5436C 12.5129 21.6348 13.03 20.9667 12.754 20.2404C 12.6674 19.9935 12.5243 19.7618 12.358 19.5562C 11.9475 19.0059 11.488 18.4986 11.1548 17.8976C 10.6101 16.9231 10.4767 15.9388 11.124 14.966C 11.8592 13.8696 12.9276 13.5243 14.208 13.7423C 14.7367 13.8311 14.7392 13.8404 15.0019 13.3903C 15.0918 13.2363 15.1816 13.0823 15.274 12.9376C 15.4864 12.6009 15.5712 12.5783 15.9241 12.764L 16.2342 12.9412C 16.9619 13.3568 16.9619 13.3568 16.5402 14.0794C 16.243 14.5888 16.243 14.5888 16.7075 14.9647C 17.0666 15.2488 17.3767 15.5759 17.6378 15.9462C 17.747 16.127 17.745 16.3075 17.561 16.4867ZM 32.5567 8.00194C 32.4653 8.6763 29.8668 9.94028 25.26 9.33068C 23.8999 9.15396 22.6013 8.8308 21.4975 8.40563C 21.4792 8.4505 21.4516 8.49788 21.4334 8.54275C 20.7697 9.67995 19.2906 10.075 18.1454 9.42087C 17.0002 8.76675 16.6064 7.30198 17.2701 6.16477C 17.9337 5.02757 19.4128 4.63255 20.558 5.28666C 21.2499 5.68185 21.6528 6.35422 21.7442 7.06979C 22.7978 7.45837 24.0273 7.74998 25.2927 7.91202C 25.7429 7.97177 26.1693 8.01789 26.5787 8.03853L 25.6613 4.81368C 25.7348 4.82405 25.8083 4.83443 25.8817 4.84481C 27.8579 5.09699 29.721 5.67939 31.0307 6.41956L 31.0903 6.45363C 32.3146 7.17662 32.5863 7.77403 32.5567 8.00194Z" fill="#31E8B7"/>
</g>
</g>
</svg>

