<svg width="234" height="240" viewBox="0 0 234 240" version="1.1" xmlns="http://www.w3.org/2000/svg" xmlns:xlink="http://www.w3.org/1999/xlink">
<g id="Canvas" fill="none">
<g id="Group 2">
<g id="Group 2_2">
<g id="Group 2_3">
<g id="Vector">
<path d="M 175.43 34.1807C 175.43 34.1807 188.745 16.7706 173.211 11.6294C 157.677 6.48814 131.981 27.9879 116.447 41.7757C 100.913 55.5636 87.8317 55.0962 87.8317 49.3707C 87.8317 43.2947 96.9419 41.4252 105.468 35.6997C 116.213 28.5721 121.119 17.4717 119.717 7.65658C 118.433 -1.80798 111.191 -2.15851 105.935 4.73542C 100.679 11.6294 85.4958 16.7706 67.3922 18.5233C 49.2886 20.276 34.6888 23.6645 17.9868 40.023C 8.40939 49.3707 2.91995 64.7944 1.42575e-05 76.3622C 9.11022 83.2562 12.6141 96.3429 12.6141 108.962C 12.6141 122.283 18.3372 143.315 7.94223 154.883C 18.6876 157.22 39.9447 159.907 66.5746 152.78C 105.235 142.497 142.143 116.441 157.326 99.7315C 174.963 80.2182 165.619 69.702 165.619 69.702C 189.095 43.4116 175.43 34.1807 175.43 34.1807Z" transform="translate(0.264648 0.987671)" fill="url(#paint0_linear)"/>
</g>
<g id="Vector_2">
<path d="M 58.8659 0C 58.8659 0 52.7924 7.36133 40.2951 19.9807C 19.8556 40.312 0 54.8009 0 54.8009C 0 54.8009 34.2217 34.8202 59.2163 7.3613C 63.0706 3.15484 58.8659 0 58.8659 0Z" transform="translate(116.828 35.1684)" fill="url(#paint1_linear)"/>
</g>
<g id="Vector_3">
<path d="M 35.3897 -7.13173e-06C 35.3897 -7.13173e-06 30.2505 7.01077 21.8411 15.0732C 15.8844 20.6818 -2.8515e-05 35.1707 -2.8515e-05 35.1707C -2.8515e-05 35.1707 23.5931 19.1628 28.7322 14.3721C 35.9736 7.59503 35.8568 4.08961 35.3897 -7.13173e-06Z" transform="translate(130.377 70.6896)" fill="url(#paint2_linear)"/>
</g>
</g>
<g id="Vector_4">
<path d="M 126.375 7.94556C 128.944 5.14124 130.93 2.45376 132.448 -1.42635e-05C 102.081 3.03799 74.6336 17.527 51.6245 20.9155C 27.9146 24.4209 18.9212 19.0459 12.0301 19.9807C 5.13909 20.9155 0.583972 32.2496 18.8044 42.2984C 37.0248 52.3471 60.1507 52.3472 60.1507 52.3472C 60.1507 52.3472 45.551 53.5156 27.7978 57.3715C 18.8044 59.3579 8.99342 62.0454 1.42575e-05 65.6676C 10.0446 65.7845 22.1915 64.7329 35.6232 61.1106C 74.2832 50.7113 111.191 24.6546 126.375 7.94556Z" transform="translate(31.2158 92.7736)" fill="url(#paint3_linear)"/>
</g>
</g>
<g id="Group">
<g id="Vector_5">
<path d="M 207.634 18.9781C 207.634 18.9781 190.115 -3.22272 156.711 0.399511C 123.306 4.02175 100.531 18.7444 77.1715 24.4699C 53.812 30.0785 44.4682 25.5215 37.694 27.1573C 30.9197 28.7932 25.1966 45.0348 44.3514 53.3309C 63.3893 61.627 86.5153 59.5238 86.5153 59.5238C 86.5153 59.5238 29.2845 69.222 6.6258 93.2923C -12.9962 114.091 16.32 121.219 25.547 120.401C 25.547 120.401 36.2924 137.11 73.2003 133.955C 73.2003 133.955 89.7856 145.756 113.846 146.457C 129.38 146.925 163.134 140.381 186.377 125.659C 209.503 110.936 215.576 102.757 217.679 98.5504C 219.781 94.344 241.506 62.6786 207.634 18.9781Z" transform="translate(6.60352 92.6078)" fill="url(#paint4_linear)"/>
</g>
<g id="Vector_6">
<path d="M -1.42575e-05 12.8531C -1.42575e-05 12.8531 23.7099 7.71186 47.0693 3.97278C 68.5601 0.584239 93.7883 1.42635e-05 93.7883 1.42635e-05C 93.7883 1.42635e-05 60.8515 6.89393 39.0104 12.0352C 24.1771 15.6574 10.0446 21.1492 -1.42575e-05 12.8531Z" transform="translate(31.917 200.155)" fill="url(#paint5_linear)"/>
</g>
<g id="Vector_7">
<path d="M -2.8515e-05 7.47815C -2.8515e-05 7.47815 11.6797 7.94554 33.1705 4.55699C 57.114 0.81791 71.9472 -7.13173e-06 71.9472 -7.13173e-06C 71.9472 -7.13173e-06 58.1651 3.85593 33.5209 10.0488C 18.8044 13.7879 10.9789 14.8395 -2.8515e-05 7.47815Z" transform="translate(79.5693 219.085)" fill="url(#paint6_linear)"/>
</g>
<g id="Vector_8">
<path d="M 31.8857 1.98639C 31.8857 1.98639 50.3397 1.63584 57.4643 -7.13173e-06C 57.4643 -7.13173e-06 48.3542 7.12761 29.6666 9.23084C 10.979 11.2172 -1.42575e-05 10.0488 -1.42575e-05 10.0488C -1.42575e-05 10.0488 18.6876 4.32332 31.8857 1.98639Z" transform="translate(61.1162 150.145)" fill="url(#paint7_linear)"/>
</g>
</g>
</g>
</g>
<defs>

<linearGradient id="paint0_linear" x2="1" gradientUnits="userSpaceOnUse" gradientTransform="matrix(60.0771 99.4419 -99.4004 60.1022 103.481 -10.5809)">
<stop stop-color="#FFDD15"/>
<stop offset="1" stop-color="#FCB534"/>
</linearGradient>
<linearGradient id="paint1_linear" x2="1" gradientUnits="userSpaceOnUse" gradientTransform="matrix(8.45076 6.14857 -6.146 8.4543 34.8268 24.9028)">
<stop stop-color="#F24729"/>
<stop offset="1" stop-color="#FCB534" stop-opacity="0"/>
</linearGradient>
<linearGradient id="paint2_linear" x2="1" gradientUnits="userSpaceOnUse" gradientTransform="matrix(11.6636 4.74022 -4.73824 11.6685 21.6808 12.3648)">
<stop stop-color="#F24729"/>
<stop offset="1" stop-color="#FCB534" stop-opacity="0"/>
</linearGradient>
<linearGradient id="paint3_linear" x2="1" gradientUnits="userSpaceOnUse" gradientTransform="translate(-0.0476534 -33.4607) scale(132.445 132.5)">
<stop stop-color="#FCB534" stop-opacity="0"/>
<stop offset="0.1184" stop-color="#F99631" stop-opacity="0.1184"/>
<stop offset="0.2563" stop-color="#F7792E" stop-opacity="0.2563"/>
<stop offset="0.4042" stop-color="#F5632C" stop-opacity="0.4042"/>
<stop offset="0.5648" stop-color="#F3532A" stop-opacity="0.5648"/>
<stop offset="0.7474" stop-color="#F24A29" stop-opacity="0.7474"/>
<stop offset="1" stop-color="#F24729"/>
</linearGradient>
<linearGradient id="paint4_linear" x2="1" gradientUnits="userSpaceOnUse" gradientTransform="matrix(16.1518 90.5813 -90.5434 16.1585 142.408 -13.4612)">
<stop stop-color="#FFDD15"/>
<stop offset="1" stop-color="#FCB534"/>
</linearGradient>
<linearGradient id="paint5_linear" x2="1" gradientUnits="userSpaceOnUse" gradientTransform="matrix(-2.40977 20.0163 -20.0079 -2.41078 57.2495 5.27146)">
<stop stop-color="#F24729"/>
<stop offset="1" stop-color="#FCB534" stop-opacity="0"/>
</linearGradient>
<linearGradient id="paint6_linear" x2="1" gradientUnits="userSpaceOnUse" gradientTransform="matrix(-0.16553 10.2364 -10.2322 -0.165599 41.1611 4.61155)">
<stop stop-color="#F24729"/>
<stop offset="1" stop-color="#FCB534" stop-opacity="0"/>
</linearGradient>
<linearGradient id="paint7_linear" x2="1" gradientUnits="userSpaceOnUse" gradientTransform="matrix(-1.66563 11.8211 -11.8161 -1.66633 35.624 -0.602302)">
<stop stop-color="#F24729"/>
<stop offset="1" stop-color="#FCB534" stop-opacity="0"/>
</linearGradient>

</defs>
</svg>

