<svg width="145" height="141" viewBox="0 0 145 141" version="1.1" xmlns="http://www.w3.org/2000/svg" xmlns:xlink="http://www.w3.org/1999/xlink">
<g id="Canvas" fill="none">
<g id="Group">
<g id="Group_2">
<g id="Vector">
<path d="M 2.25177 -7.13173e-06L 19.1874 -7.13173e-06C 20.589 -7.13173e-06 21.6401 1.16846 21.6401 2.45377L 21.6401 13.671C 21.6401 15.0732 20.4722 16.1248 19.1874 16.1248L 13.2307 16.1248L 11.0116 18.8123C 10.6612 19.1628 10.194 19.1628 9.96038 18.8123L 7.7412 16.1248L 2.48531 16.1248C 1.08374 16.1248 0.0325932 14.9563 0.0325932 13.671L 0.0325932 2.45377C -0.201002 1.05162 0.850204 -7.13173e-06 2.25177 -7.13173e-06Z" transform="translate(31.9697 0.885803)" fill="#E9F2F7"/>
</g>
<g id="Group_3">
<g id="Vector_2">
<path d="M 1.28479 -3.56587e-06C 0.584001 -3.56587e-06 -2.8515e-05 0.584235 -2.8515e-05 1.28531C -2.8515e-05 1.98639 0.584001 2.57061 1.28479 2.57061C 1.98557 2.57061 2.56953 1.98639 2.56953 1.28531C 2.56953 0.584235 1.98557 -3.56587e-06 1.28479 -3.56587e-06Z" transform="translate(36.207 7.66287)" fill="#A9BBC4"/>
</g>
<g id="Vector_3">
<path d="M 1.28477 3.56587e-06C 0.583987 3.56587e-06 2.8515e-05 0.584225 2.8515e-05 1.2853C 2.8515e-05 1.98638 0.583987 2.57062 1.28477 2.57062C 1.98556 2.57062 2.56952 1.98638 2.56952 1.2853C 2.56952 0.467378 1.98556 3.56587e-06 1.28477 3.56587e-06Z" transform="translate(41.2295 7.77966)" fill="#A9BBC4"/>
</g>
</g>
<g id="Group_4">
<g id="Vector_4">
<path d="M 1.28476 3.56587e-06C 0.583973 3.56587e-06 1.42575e-05 0.584225 1.42575e-05 1.2853C 1.42575e-05 1.98638 0.583973 2.57062 1.28476 2.57062C 1.98554 2.57062 2.56957 1.98638 2.56957 1.2853C 2.56957 0.584225 1.98554 3.56587e-06 1.28476 3.56587e-06Z" transform="translate(46.251 7.77975)" fill="#A9BBC4"/>
</g>
</g>
</g>
<g id="Group_5">
<g id="Vector_5">
<path d="M 72.064 18.6954C 111.864 18.6954 144.128 14.5103 144.128 9.3477C 144.128 4.1851 111.864 -7.13173e-06 72.064 -7.13173e-06C 32.2641 -7.13173e-06 -2.8515e-05 4.1851 -2.8515e-05 9.3477C -2.8515e-05 14.5103 32.2641 18.6954 72.064 18.6954Z" transform="translate(0 121.822)" fill="url(#paint0_linear)"/>
</g>
<g id="Vector_6">
<path d="M 11.2228 0.316097C 11.2228 0.316097 6.43413 1.83511 3.047 2.76988C -0.340124 3.82149 0.0102972 6.50897 0.0102972 6.50897L 16.4787 6.50897L 16.4787 0.199279C 16.5955 0.316125 13.0916 -0.384981 11.2228 0.316097Z" transform="translate(72.2881 125.478)" fill="#252257"/>
</g>
<g id="Vector_7">
<path d="M -2.8515e-05 8.81712C -2.8515e-05 8.81712 1.63516 15.8279 3.38713 29.9663C 5.13909 44.1047 4.08788 61.5148 4.08788 61.5148C 4.08788 61.5148 8.75978 62.4496 9.34377 61.5148C 9.92775 60.58 12.8477 17.9311 13.1981 4.96119C 13.6653 -8.1256 -2.8515e-05 8.81712 -2.8515e-05 8.81712Z" transform="translate(79.4219 64.2797)" fill="url(#paint1_linear)"/>
</g>
<g id="Vector_8">
<path d="M -2.8515e-05 8.81712C -2.8515e-05 8.81712 1.63516 15.8279 3.38713 29.9663C 5.13909 44.1047 4.08788 61.5148 4.08788 61.5148C 4.08788 61.5148 8.75978 62.4496 9.34377 61.5148C 9.92775 60.58 12.8477 17.9311 13.1981 4.96119C 13.6653 -8.1256 -2.8515e-05 8.81712 -2.8515e-05 8.81712Z" transform="translate(79.4219 64.2797)" fill="#252257"/>
</g>
<g id="Vector_9">
<path d="M 31.6521 4.32331C 31.6521 4.32331 27.4474 8.2961 18.2204 7.36132C 8.99343 6.42655 4.67188 3.56587e-06 4.67188 3.56587e-06C 4.67188 3.56587e-06 2.91992 1.7527 -1.42575e-05 1.16847C -1.42575e-05 1.16847 3.85433 9.69824 14.4829 12.3857C 25.1115 15.0732 33.0536 12.3857 33.0536 12.3857L 33.7545 1.86953L 31.6521 4.32331Z" transform="translate(37.6094 39.9125)" fill="#8B0095"/>
</g>
<g id="Vector_10">
<path d="M 19.4687 -3.56587e-06L 21.2206 2.45378L 16.6655 5.72548L 15.4975 4.08962L 1.83223 13.3205C 1.24824 13.671 0.547502 13.5542 0.19711 12.9699C -0.153282 12.3857 -0.0364992 11.6846 0.547488 11.3341L 16.6655 0.350539L 17.4831 1.519L 19.4687 -3.56587e-06Z" transform="translate(77.5908 97.0504)" fill="#52636B"/>
</g>
<g id="Group_6">
<g id="Vector_11">
<path d="M 25.8123 49.3091C 25.4619 49.3091 24.9947 49.3091 24.6443 49.3091C 18.1036 49.3091 11.9133 46.7385 7.24143 42.0647C 2.56953 37.3908 -2.8515e-05 31.198 -2.8515e-05 24.6546C -2.8515e-05 11.1004 10.979 3.56587e-06 24.6443 3.56587e-06C 38.1928 3.56587e-06 49.2885 11.1004 49.2885 24.6546C 49.2885 37.8582 38.8936 48.6081 25.8123 49.3091ZM 23.7099 4.79069C 13.0813 5.25808 4.78871 14.0216 4.78871 24.6546C 4.78871 29.9127 6.89106 34.937 10.6286 38.6761C 14.3661 42.4152 19.3884 44.5184 24.6443 44.5184C 35.6232 44.5184 44.4998 35.6381 44.4998 24.6546C 44.4998 13.671 35.6232 4.79069 24.6443 4.79069C 24.2939 4.79069 24.0603 4.79069 23.7099 4.79069Z" transform="translate(94.6055 83.1456)" fill="#312D74"/>
</g>
</g>
<g id="Group_7">
<g id="Vector_12">
<path d="M 25.8123 49.3091C 25.4619 49.3091 24.9947 49.3091 24.6443 49.3091C 11.0958 49.3091 -2.8515e-05 38.2087 -2.8515e-05 24.6546C -2.8515e-05 11.1004 10.979 -3.56587e-06 24.6443 -3.56587e-06C 31.1849 -3.56587e-06 37.3752 2.57061 42.0471 7.24446C 46.719 11.9183 49.2885 18.1112 49.2885 24.6546C 49.2885 37.8582 39.0104 48.7249 25.8123 49.3091ZM 23.7099 4.7907C 13.0813 5.25809 4.78871 14.0215 4.78871 24.6546C 4.78871 35.6381 13.6653 44.5184 24.6443 44.5184C 35.6232 44.5184 44.4998 35.6381 44.4998 24.6546C 44.4998 19.3965 42.3975 14.3721 38.66 10.633C 34.9225 6.89394 29.9002 4.7907 24.6443 4.7907C 24.2939 4.7907 24.0603 4.7907 23.7099 4.7907Z" transform="translate(0 83.0288)" fill="#312D74"/>
</g>
</g>
<g id="Vector_13">
<path d="M 33.3521 0.0997012C 33.3521 0.0997012 31.2498 0.45024 28.3299 3.60509C 25.4099 6.75994 19.2197 15.6403 0.415308 20.431C 0.415308 20.431 -0.519071 23.1184 0.415308 24.2869C 0.415308 24.2869 13.9638 24.17 22.49 19.8467C 31.0162 15.4066 35.9217 10.7327 37.0897 9.56424C 38.2576 8.39578 39.5424 -1.06876 33.3521 0.0997012Z" transform="translate(42.5664 38.6443)" fill="#BF00BE"/>
</g>
<g id="Vector_14">
<path d="M 7.35827 12.0352L 6.30706 0.701078C 6.30706 0.701078 6.30708 0.233693 5.95668 0.116846C 5.60629 0 0.46719 -7.13173e-06 0.46719 -7.13173e-06C 0.46719 -7.13173e-06 -2.8515e-05 -7.1387e-06 -2.8515e-05 0.584224C -2.8515e-05 1.16846 1.5184 13.0868 1.5184 13.0868C 1.5184 13.0868 1.51837 13.5542 2.21915 13.4373C 3.27033 13.2036 7.35827 12.6194 7.35827 12.6194C 7.35827 12.6194 7.35827 12.6194 7.35827 12.0352Z" transform="translate(35.0391 27.1763)" fill="#8D7FFF"/>
</g>
<g id="Vector_15">
<path d="M 5.60626 10.0488L 4.6719 0.584239C 4.6719 0.584239 4.67191 0.233689 4.32152 0.116843C 3.97113 -3.56935e-06 0.350378 7.13173e-06 0.350378 7.13173e-06C 0.350378 7.13173e-06 0 0 0 0.467385C 0 0.934771 1.16797 10.8667 1.16797 10.8667C 1.16797 10.8667 1.16797 11.2173 1.75196 11.1004C 2.56954 10.9836 5.37265 10.5162 5.37265 10.5162C 5.37265 10.5162 5.60626 10.5162 5.60626 10.0488Z" transform="translate(36.0908 27.9942)" fill="#E6E7E8"/>
</g>
<g id="Vector_16">
<path d="M 11.8003 2.39322C 11.8003 2.39322 7.01156 -0.761625 3.97483 0.173145C 0.938098 1.10792 -1.04749 3.67853 0.587676 6.24915C 2.22284 8.81977 5.3764 5.54807 8.64673 6.24915L 11.917 6.24915C 11.8002 6.24915 11.5667 4.02907 11.8003 2.39322Z" transform="translate(31.1816 56.6821)" fill="#DFB28B"/>
</g>
<g id="Vector_17">
<path d="M 4.14194 8.14262C 4.14194 8.14262 6.71149 6.15623 4.72593 2.53399C 2.74037 -1.08825 1.22203 -0.0366219 0.521249 0.898149C -0.179536 1.94977 -1.11394 7.20784 4.72593 9.54477C 4.72593 9.54477 7.17865 10.129 8.34662 8.72685C 9.5146 7.32469 9.86503 3.93615 9.63144 2.3003C 9.39784 0.664452 8.22982 -0.153468 7.17865 0.898149C 6.12747 1.94977 7.41224 3.46875 8.34662 4.16983L 8.58023 6.8573C 8.58023 6.8573 8.46342 7.20785 8.34662 7.3247C 7.64584 7.55839 5.8939 8.02577 4.14194 8.14262Z" transform="translate(33.7002 32.3542)" fill="#DFB28B"/>
</g>
<g id="Vector_18">
<path d="M 4.13079 0.425726C -0.30751 1.94473 -1.59228 5.6838 2.37883 13.9799C 7.05073 23.795 6.93396 28.9362 6.93396 29.6373C 12.4234 28.1183 18.9641 27.7678 22.1176 27.6509C 21.3 22.0423 19.3145 15.4989 17.0954 10.3577C 13.0074 0.776265 8.5691 -0.97643 4.13079 0.425726Z" transform="translate(71.7871 38.3184)" fill="#BF00BE"/>
</g>
<g id="Vector_19">
<path d="M 52.9093 53.3988C 54.194 54.6841 55.946 55.502 57.9315 55.502C 61.5522 55.502 64.4722 52.8145 64.9394 49.3091L 94.8395 48.1407C 95.4235 49.6597 96.8251 50.7113 98.4603 50.7113C 100.563 50.7113 102.315 48.9586 102.315 46.8554C 102.315 44.7521 100.563 42.9995 98.4603 42.9995C 97.9931 42.9995 97.5259 43.1163 97.0587 43.2331L 77.3199 19.1628L 81.7582 11.9183L 78.9551 11.9183L 75.3344 17.8775L 23.0091 12.7362L 25.4619 7.12762L 26.6298 7.59501L 27.5642 5.37492L 16.5852 0.817924L 16.4684 0.934778C 16.0013 0.350546 15.4173 3.56587e-06 14.7165 3.56587e-06C 13.4317 3.56587e-06 12.3805 1.05162 12.3805 2.33693C 12.3805 3.62224 13.4317 4.67386 14.7165 4.67386C 15.6509 4.67386 16.3517 4.20646 16.702 3.38854L 23.1259 6.07601L 8.29262 40.4288L 5.60629 43.1163C 5.1391 42.8826 4.43832 42.6489 3.85433 42.6489C 1.75198 42.6489 2.8515e-05 44.4016 2.8515e-05 46.5048C 2.8515e-05 48.6081 1.75198 50.3608 3.85433 50.3608C 5.95668 50.3608 7.70863 48.6081 7.70863 46.5048C 7.70863 45.9206 7.59181 45.3364 7.24141 44.7521L 10.1613 41.831C 10.2781 41.7141 10.395 41.5973 10.395 41.4804L 21.7243 15.19L 51.9749 44.1679C 51.1573 45.3364 50.8069 46.6217 50.8069 48.1407C 50.8069 49.1923 51.0405 50.2439 51.5077 51.0618L 52.9093 53.3988ZM 57.9315 41.3636C 56.4132 41.3636 54.8948 41.831 53.7269 42.7657L 25.1115 15.4237L 73.816 20.2144L 60.5011 41.9478C 59.6835 41.4805 58.8659 41.3636 57.9315 41.3636ZM 94.7227 45.8038L 64.8226 46.9722C 64.4722 45.4532 63.6546 44.1679 62.6034 43.1163L 76.0351 21.266L 95.1899 44.7521C 94.9564 45.1027 94.8395 45.4532 94.7227 45.8038Z" transform="translate(20.79 60.9449)" fill="#31E8B7"/>
</g>
<g id="Vector_20">
<path d="M -1.42575e-05 4.85977C -1.42575e-05 4.85977 5.02226 0.770144 5.60625 0.0690656C 6.19024 -0.632012 10.6286 4.15869 10.979 7.43039C 11.3294 10.7021 3.62075 14.9085 3.62075 14.9085C 3.62075 14.9085 1.75195 8.59885 -1.42575e-05 4.85977Z" transform="translate(74.4004 47.9058)" fill="url(#paint2_linear)"/>
</g>
<g id="Vector_21">
<path d="M 7.00785 14.0216C 10.8782 14.0216 14.0157 10.8827 14.0157 7.01079C 14.0157 3.13885 10.8782 1.42635e-05 7.00785 1.42635e-05C 3.13752 1.42635e-05 0 3.13885 0 7.01079C 0 10.8827 3.13752 14.0216 7.00785 14.0216Z" transform="translate(71.7139 102.308)" fill="#A9BBC4"/>
</g>
<g id="Vector_22">
<path d="M 5.48951 0.584224C 5.48951 0.584224 6.07348 2.92114 2.33596 6.89392C -1.40156 10.8667 0.467161 12.7362 0.467161 12.7362L 13.6653 5.72546L 11.4461 -7.13173e-06L 5.48951 0.584224Z" transform="translate(49.1709 110.721)" fill="#252257"/>
</g>
<g id="Vector_23">
<path d="M 25.4079 2.10323C 25.4079 2.10323 8.93954 8.76347 3.09967 17.2933C -2.74021 25.823 1.46447 45.2195 1.46447 45.2195L 7.42111 44.5184C 7.42111 44.5184 6.83713 27.1083 11.509 23.7198C 19.2177 18.1112 31.8318 18.3449 39.0733 11.1004C 41.0588 9.11401 41.2924 4.90754 40.5916 -3.56587e-06C 37.4381 0.116843 30.8974 0.467385 25.4079 2.10323C 25.4079 2.10323 25.4079 1.98639 25.4079 2.10323Z" transform="translate(53.3135 66.0861)" fill="#312D74"/>
</g>
<g id="Vector_24">
<path d="M 10.0446 7.01078L 16.3516 7.01078C 16.702 7.01078 16.9356 6.89394 17.1692 6.5434C 18.5708 4.90755 20.0892 2.68747 19.3884 1.16846C 19.1548 0.701078 18.6876 0 17.4028 0C 16.702 0 16.0013 0 15.3005 0C 9.81101 0.233693 4.43829 1.51901 1.16796 3.2717C 0.116783 3.85593 -1.42575e-05 5.14124 -1.42575e-05 5.60863C -1.42575e-05 5.95917 0.116769 6.30971 0.350364 6.5434C 0.583959 6.77709 0.934365 6.89393 1.16796 6.89393L 7.24144 6.89393L 10.0446 7.01078Z" transform="translate(92.5039 65.8524)" fill="#312D74"/>
</g>
<g id="Vector_25">
<path d="M 1.75195 13.5177L -1.42575e-05 11.1807L 4.55511 7.90904L 5.72309 9.54488L 19.2716 0.197178C 19.8556 -0.153361 20.5564 -0.0365288 20.9068 0.547703C 21.2572 1.13193 21.1404 1.83304 20.5564 2.18358L 4.43827 13.284L 3.62075 12.1155L 1.75195 13.5177Z" transform="translate(58.6328 108.304)" fill="#52636B"/>
</g>
<g id="Group_8">
<g id="Vector_26">
<path d="M 8.75984 14.8395C 3.97114 14.8395 2.8515e-05 10.9836 2.8515e-05 6.07601L 2.8515e-05 3.56587e-06L 17.4028 3.56587e-06L 17.4028 6.07601C 17.5196 10.9836 13.5485 14.8395 8.75984 14.8395Z" transform="translate(63.4209 21.8013)" fill="#ECC19C"/>
</g>
<g id="Vector_27">
<path d="M 1.75198 3.5054C 2.71956 3.5054 3.50394 2.72069 3.50394 1.7527C 3.50394 0.784715 2.71956 7.13173e-06 1.75198 7.13173e-06C 0.784394 7.13173e-06 1.42575e-05 0.784715 1.42575e-05 1.7527C 1.42575e-05 2.72069 0.784394 3.5054 1.75198 3.5054Z" transform="translate(66.6924 28.5784)" fill="#ECC19C"/>
</g>
<g id="Vector_28">
<path d="M 1.168 1.5494C 1.168 1.89994 0.934408 2.13363 0.584016 2.01678C 0.233623 2.01678 2.8515e-05 1.78309 2.8515e-05 1.43255L 2.8515e-05 0.497777C 2.8515e-05 0.147238 0.233623 -0.0864476 0.584016 0.0303987C 0.934408 0.0303987 1.168 0.264091 1.168 0.61463L 1.168 1.5494Z" transform="translate(65.1729 25.2763)" fill="#312D74"/>
</g>
<g id="Vector_29">
<path d="M 1.58864 -7.13173e-06C 1.58864 -7.13173e-06 1.12148 1.75269 0.303895 2.45377C -0.630484 3.15485 0.771085 4.32332 2.05586 3.97278C 3.34063 3.62224 1.58864 -7.13173e-06 1.58864 -7.13173e-06Z" transform="translate(62.0654 26.0078)" fill="#ECC19C"/>
</g>
<g id="Vector_30">
<path d="M 1.13839 2.10323C 1.13839 2.10323 -0.730384 4.32331 0.320793 4.90754C 1.37197 5.49177 6.86148 3.15486 9.54782 5.14125C 12.2342 7.12763 10.8326 1.75269 10.8326 1.75269L 5.81029 -3.56587e-06L 1.13839 2.10323Z" transform="translate(62.0498 18.7633)" fill="#061179"/>
</g>
<g id="Vector_31">
<path d="M 8.20734 12.6355C 8.20734 12.6355 11.1273 16.1409 13.2296 16.024C 15.332 15.9072 18.4855 9.24695 15.4488 7.26056C 15.4488 7.26056 15.4487 0.366633 6.57214 0.0160945C -2.30446 -0.334444 0.381892 5.15732 0.381892 5.15732C 0.381892 5.15732 6.22176 4.22256 5.63778 6.44264C 5.05379 8.66272 4.82018 8.66271 4.82018 8.66271L 6.22176 9.83118C 6.22176 9.83118 7.62338 8.42903 9.25854 8.77957C 11.5945 9.24695 10.0761 10.1817 9.9593 10.8828C 10.0761 11.467 9.49211 12.4018 8.20734 12.6355Z" transform="translate(66.4258 16.1766)" fill="#061179"/>
</g>
<g id="Vector_32">
<path d="M 0.467204 0.817931C 0.467204 0.817931 2.68637 4.7907 2.45277 8.0624C 2.21918 11.3341 -1.42575e-05 13.2036 -1.42575e-05 13.2036C -1.42575e-05 13.2036 0.817582 13.5542 1.98556 13.5542C 4.08791 11.5678 8.2926 7.24447 8.17581 0.934767L 6.65745 -7.13173e-06C 6.65745 -7.13173e-06 6.65743 4.67386 3.85429 8.64663C 3.85429 8.64663 4.32152 4.55701 2.21917 0.467389L 0.467204 0.817931Z" transform="translate(69.1445 23.0867)" fill="#312D74"/>
</g>
<g id="Vector_33">
<path d="M 2.21918 4.44015C 3.44478 4.44015 4.43829 3.4462 4.43829 2.22008C 4.43829 0.993964 3.44478 7.13173e-06 2.21918 7.13173e-06C 0.993576 7.13173e-06 0 0.993964 0 2.22008C 0 3.4462 0.993576 4.44015 2.21918 4.44015Z" transform="translate(72.8818 24.4888)" fill="#ECC19C"/>
</g>
<g id="Vector_34">
<path d="M -1.42575e-05 7.82123C -1.42575e-05 7.82123 4.55509 8.98971 14.5997 9.69078C 24.6442 10.3919 23.8267 9.45708 23.8267 9.45708C 23.8267 9.45708 24.6443 0.927295 15.3005 0.109371C 12.8477 -0.124322 8.75978 -0.00747557 7.35821 0.693602C 5.72305 1.51153 3.15353 6.06854 3.15353 6.06854L 0.233595 7.00331L -1.42575e-05 7.82123Z" transform="translate(59.8008 14.798)" fill="#312D74"/>
</g>
</g>
</g>
</g>
</g>
<defs>

<linearGradient id="paint0_linear" x2="1" gradientUnits="userSpaceOnUse" gradientTransform="translate(0.00642386 -62.8228) scale(144.224 144.285)">
<stop stop-color="#E9F2F7" stop-opacity="0"/>
<stop offset="1" stop-color="#E9F2F7"/>
</linearGradient>
<linearGradient id="paint1_linear" x2="1" gradientUnits="userSpaceOnUse" gradientTransform="matrix(5.40148 17.5585 -17.5511 5.40374 10.9045 8.16489)">
<stop stop-color="#312D74"/>
<stop offset="0.3252" stop-color="#312D74" stop-opacity="0.7152"/>
<stop offset="1" stop-color="#312D74" stop-opacity="0"/>
</linearGradient>
<linearGradient id="paint2_linear" x2="1" gradientUnits="userSpaceOnUse" gradientTransform="matrix(13.7104 1.4072 -1.40661 13.7161 -7.82123 -0.755236)">
<stop stop-color="#312D74"/>
<stop offset="0.3252" stop-color="#312D74" stop-opacity="0.7152"/>
<stop offset="0.8741" stop-color="#312D74" stop-opacity="0.0677136"/>
<stop offset="1" stop-color="#312D74" stop-opacity="0"/>
</linearGradient>

</defs>
</svg>

