<svg width="304" height="221" viewBox="0 0 304 221" version="1.1" xmlns="http://www.w3.org/2000/svg" xmlns:xlink="http://www.w3.org/1999/xlink">
<g id="Canvas" fill="none">
<g id="Group 2">
<g id="Vector">
<path d="M 21.8412 -3.56587e-06C 9.81101 -3.56587e-06 1.42575e-05 3.97278 1.42575e-05 17.0596C 1.42575e-05 25.122 3.97113 29.7958 9.9278 32.2496L 9.9278 37.5077C 9.9278 39.0267 10.979 39.6109 12.2637 38.9098L 20.3227 34.236C 20.7899 34.236 21.374 34.236 21.8412 34.236C 33.9881 34.236 43.6822 30.2632 43.6822 17.1764C 43.6822 3.97277 33.8713 -3.56587e-06 21.8412 -3.56587e-06Z" transform="translate(187.086 14.9749)" fill="#E9F2F7"/>
</g>
<g id="Vector_2">
<path d="M 21.7185 2.42373C 36.5517 -2.13327 49.9834 -1.31535 54.7721 14.1084C 57.6921 23.5729 54.6554 30.5837 48.2315 35.6081L 50.1002 41.8009C 50.6842 43.5536 49.5163 44.7221 47.6475 44.3716L 36.0845 41.9178C 35.5005 42.1515 34.7998 42.3852 34.2158 42.502C 19.3825 47.059 5.95076 46.2411 1.16207 30.8174C -3.62663 15.3937 7.00198 6.98074 21.7185 2.42373Z" transform="translate(13.5312 107.781)" fill="#E9F2F7"/>
</g>
<g id="Vector_3">
<path d="M 8.52623 7.13173e-06L 2.8515e-05 15.6574L 4.67193 14.4889L 3.50395 25.4725L 11.4462 10.2825L 7.12464 11.2173L 8.52623 7.13173e-06Z" transform="translate(36.6514 115.93)" fill="#A9BBC4"/>
</g>
<g id="Group">
<g id="Vector_4">
<path d="M 14.8333 29.679C 23.0255 29.679 29.6666 23.0351 29.6666 14.8395C 29.6666 6.64388 23.0255 0 14.8333 0C 6.64108 0 -1.42575e-05 6.64388 -1.42575e-05 14.8395C -1.42575e-05 23.0351 6.64108 29.679 14.8333 29.679Z" transform="translate(0.910156 128.666)" fill="url(#paint0_linear)"/>
</g>
<g id="Vector_5">
<path d="M 16.9357 2.68745C 16.9357 2.68745 15.3006 9.11401 7.59195 8.17924C -0.116682 7.24447 0.000115293 0 0.000115293 0C 0.000115293 0 2.56965 1.86953 7.94233 2.68745C 13.315 3.50538 16.9357 2.68745 16.9357 2.68745Z" transform="translate(7.2168 144.441)" fill="#E29721"/>
</g>
<g id="Vector_6">
<path d="M 2.47065 2.82222C 2.35385 3.5233 1.76985 3.99068 1.06906 3.87383C 0.368279 3.75698 -0.0989392 3.17274 0.0178583 2.47166L 0.134698 1.06953C 0.251496 0.368447 0.835497 -0.0989663 1.53628 0.01788C 2.23707 0.134726 2.70421 0.718972 2.58742 1.42005L 2.47065 2.82222Z" transform="translate(10.5859 137.762)" fill="#E29721"/>
</g>
<g id="Vector_7">
<path d="M 2.47065 2.82221C 2.35385 3.52329 1.76985 3.99067 1.06906 3.87382C 0.368279 3.75698 -0.0989392 3.17273 0.0178583 2.47165L 0.134698 1.06952C 0.251496 0.36844 0.835497 -0.0989378 1.53628 0.0179085C 2.23707 0.134755 2.70421 0.718965 2.58742 1.42004L 2.47065 2.82221Z" transform="translate(19.3457 138.814)" fill="#E29721"/>
</g>
</g>
<g id="Group_2">
<g id="Vector_8">
<path d="M 4.71009 9.61957L 79.8108 0.0381763C 82.7308 -0.312363 85.5339 1.79087 85.8843 4.71203L 88.921 29.1329C 89.2714 32.0541 87.1691 34.8584 84.2491 35.2089L 32.7415 41.7523L 28.5367 48.1789C 27.9527 49.1136 26.9016 49.2305 26.2008 48.5294L 20.5945 43.3882L 9.14838 44.7903C 6.22844 45.1409 3.42529 43.0376 3.07489 40.1165L 0.0381888 15.6956C -0.312204 12.6576 1.79015 9.97011 4.71009 9.61957Z" transform="translate(44.7881 0.097229)" fill="#E9F2F7"/>
</g>
<g id="Vector_9">
<path d="M 8.17579 16.3585C 12.6912 16.3585 16.3516 12.6965 16.3516 8.17923C 16.3516 3.66196 12.6912 -7.13173e-06 8.17579 -7.13173e-06C 3.66041 -7.13173e-06 -2.8515e-05 3.66196 -2.8515e-05 8.17923C -2.8515e-05 12.6965 3.66041 16.3585 8.17579 16.3585Z" transform="translate(54.9873 18.1297)" fill="#A9BBC4"/>
</g>
<g id="Vector_10">
<path d="M 6.65748 13.3205C 10.3343 13.3205 13.3149 10.3386 13.3149 6.66024C 13.3149 2.98189 10.3343 7.13173e-06 6.65748 7.13173e-06C 2.98067 7.13173e-06 1.42575e-05 2.98189 1.42575e-05 6.66024C 1.42575e-05 10.3386 2.98067 13.3205 6.65748 13.3205Z" transform="translate(58.0244 27.7111)" fill="#E9F2F7"/>
</g>
<g id="Vector_11">
<path d="M 2.80311 5.60862C 4.35124 5.60862 5.60628 4.3531 5.60628 2.80432C 5.60628 1.25554 4.35124 -3.56587e-06 2.80311 -3.56587e-06C 1.25498 -3.56587e-06 1.42575e-05 1.25554 1.42575e-05 2.80432C 1.42575e-05 4.3531 1.25498 5.60862 2.80311 5.60862Z" transform="translate(59.7764 20.8172)" fill="#E9F2F7"/>
</g>
<g id="Group_3">
<g id="Vector_12">
<path d="M 1.06933 6.79524L 40.3132 1.8877C 40.7804 1.77085 41.2476 1.30348 41.1308 0.836091C 41.014 0.368706 40.5469 -0.0986935 40.0797 0.0181528L 0.83572 4.92571C 0.36853 5.04256 -0.0986736 5.50994 0.0181239 5.97732C 0.0181239 6.44471 0.60214 6.79524 1.06933 6.79524Z" transform="translate(77.7441 15.1904)" fill="#A9BBC4"/>
</g>
<g id="Vector_13">
<path d="M 1.0693 6.79524L 40.3133 1.8877C 40.7805 1.77085 41.2477 1.30348 41.1309 0.836091C 41.0141 0.368706 40.5469 -0.0986935 40.0797 0.0181528L 0.835763 4.92571C 0.368573 5.04256 -0.0986308 5.50994 0.0181666 5.97732C 0.0181666 6.44471 0.485314 6.79524 1.0693 6.79524Z" transform="translate(78.4453 20.4485)" fill="#A9BBC4"/>
</g>
</g>
</g>
<g id="Group_4">
<g id="Vector_14">
<path d="M 8.57087 0.0446504L 89.1611 12.6641C 91.6139 13.0146 93.3658 15.3515 93.0154 17.9222L 89.7451 38.4871C 89.3947 40.9409 87.0588 42.6936 84.4892 42.343L 23.7545 32.8785L 18.849 37.0849C 18.1483 37.6692 17.3307 37.5523 16.8635 36.7344L 13.4764 31.2426L 3.89898 29.7236C 1.44623 29.3731 -0.305718 27.0362 0.0446745 24.4656L 3.31499 3.9006C 3.66538 1.44683 6.00133 -0.305889 8.57087 0.0446504Z" transform="translate(210.05 109.108)" fill="#E9F2F7"/>
</g>
<g id="Vector_15">
<path d="M 0.839989 2.00453L 51.53 9.7164C 52.114 9.83324 52.5812 9.36588 52.698 8.89849C 52.8148 8.31426 52.3476 7.84688 51.8804 7.73003L 1.19037 0.0181671C 0.60638 -0.0986792 0.13919 0.368685 0.0223928 0.83607C -0.0944046 1.4203 0.256002 1.88769 0.839989 2.00453Z" transform="translate(223.854 117.665)" fill="#A9BBC4"/>
</g>
<g id="Vector_16">
<path d="M 0.879027 2.00456L 62.3145 11.2354C 62.8984 11.3523 63.3656 10.8849 63.4824 10.4175C 63.5992 9.95009 63.132 9.36586 62.6648 9.24901L 1.22941 0.01816C 0.645418 -0.0986864 0.178228 0.368713 0.0614309 0.836098C -0.172164 1.30348 0.29504 1.88772 0.879027 2.00456Z" transform="translate(222.998 123.39)" fill="#A9BBC4"/>
</g>
<g id="Vector_17">
<path d="M 0.879013 2.00453L 37.787 7.61318C 38.371 7.73002 38.8382 7.26262 38.955 6.79524C 39.0718 6.32785 38.6046 5.74362 38.1374 5.62678L 1.22939 0.0181671C 0.645404 -0.0986792 0.178214 0.368685 0.0614166 0.83607C -0.172178 1.30346 0.295026 1.88769 0.879013 2.00453Z" transform="translate(222.18 128.765)" fill="#A9BBC4"/>
</g>
</g>
<g id="Group_5">
<g id="Vector_18">
<path d="M 10.0446 -3.56587e-06C 4.43833 -3.56587e-06 -1.42575e-05 4.55701 -1.42575e-05 10.0488C -1.42575e-05 15.6574 4.55513 20.0976 10.0446 20.0976C 15.6509 20.0976 20.0892 15.5406 20.0892 10.0488C 20.0892 4.44016 15.5341 -3.56587e-06 10.0446 -3.56587e-06ZM 15.3005 14.6058L 14.4829 15.4237C 14.3661 15.5406 13.8989 15.6574 13.8989 15.6574C 11.3294 15.6574 8.87663 14.7226 7.12467 12.8531C 5.37271 11.1004 4.32151 8.52977 4.32151 6.076C 4.32151 6.076 4.43832 5.60862 4.55511 5.49177L 5.37271 4.67385C 5.7231 4.32331 6.19026 4.20646 6.65745 4.32331L 6.77422 4.32331C 7.12462 4.44015 7.59186 4.90754 7.70866 5.25808L 8.05904 6.77709C 8.17583 7.12763 8.05905 7.71186 7.70866 8.0624L 7.12467 8.64663C 7.70866 10.633 9.22698 12.152 11.0957 12.6194L 11.6797 12.0352C 12.0301 11.6846 12.4974 11.5678 12.9645 11.6846L 14.4829 12.0352C 14.8333 12.152 15.3005 12.5026 15.4173 12.9699L 15.4173 13.0868C 15.7677 13.7879 15.6509 14.3721 15.3005 14.6058Z" transform="translate(198.882 21.9857)" fill="#A9BBC4"/>
</g>
</g>
<g id="Group_6">
<g id="Vector_19">
<path d="M 63.421 0C 45.551 0 34.9225 11.3341 34.9225 24.5377C 34.9225 36.6897 27.4474 40.5457 19.9723 43.8174C 12.4973 46.9722 0 54.8009 0 65.5508C 0 76.1838 7.8254 82.9609 23.4763 80.5071C 39.1271 78.0533 37.6088 79.9229 50.4565 79.2218C 63.3042 78.6376 69.4945 75.8333 80.2399 66.6024C 90.1676 58.0726 93.9052 45.3364 93.9052 34.937C 94.022 2.8043 75.9183 0 63.421 0Z" transform="translate(84.0693 1.30389)" fill="#312D74"/>
</g>
<g id="Vector_20">
<path d="M 1.98558 3.97277C 3.08218 3.97277 3.97108 3.08344 3.97108 1.98639C 3.97108 0.889336 3.08218 3.56587e-06 1.98558 3.56587e-06C 0.888992 3.56587e-06 1.42575e-05 0.889336 1.42575e-05 1.98639C 1.42575e-05 3.08344 0.888992 3.97277 1.98558 3.97277Z" transform="translate(169.565 40.7979)" fill="#D1D2D3"/>
</g>
<g id="Vector_21">
<path d="M 44.6167 26.641C 44.6167 39.0267 34.572 48.9586 22.3083 48.9586C 9.92777 48.9586 1.42575e-05 38.9098 1.42575e-05 26.641L 1.42575e-05 14.3721C 1.42575e-05 1.98638 10.0446 -7.13173e-06 22.3083 -7.13173e-06C 34.6888 -7.13173e-06 44.6167 2.10323 44.6167 14.3721L 44.6167 26.641Z" transform="translate(128.103 12.8717)" fill="#ECC19C"/>
</g>
<g id="Vector_22">
<path d="M 18.5351 -3.56587e-06C 18.5351 -3.56587e-06 16.0823 5.14125 16.0823 14.489C 16.0823 23.8367 17.0168 26.7578 6.50499 32.9507C -5.17475 39.7277 -1.67084 61.2275 21.4551 57.3715C 39.7923 54.3335 86.8616 24.8883 84.1753 10.0488C 81.489 -4.79071 31.85 4.7907 30.3316 5.25808C 28.6965 5.60862 18.5351 -3.56587e-06 18.5351 -3.56587e-06Z" transform="translate(66.9355 60.545)" fill="#312D74"/>
</g>
<g id="Vector_23">
<path d="M -1.42575e-05 23.6369C 2.33593 26.9086 11.9134 25.3896 19.7388 22.2348C 35.8568 15.8082 38.7768 3.07201 38.7768 3.07201C 38.7768 3.07201 24.0603 -1.485 13.4317 0.501391C 2.80312 2.48778 -1.42575e-05 23.6369 -1.42575e-05 23.6369Z" transform="translate(123.547 7.34589)" fill="#312D74"/>
</g>
<g id="Vector_24">
<path d="M 16.0012 17.7769C 0.817567 16.6085 -2.8515e-05 5.8586 -2.8515e-05 5.8586C -2.8515e-05 5.8586 2.21915 0.249975 5.13909 0.016282C 10.0446 -0.334257 15.4172 5.04067 16.9356 9.94822C 18.2204 14.0378 16.0012 17.7769 16.0012 17.7769Z" transform="translate(157.185 10.4016)" fill="#312D74"/>
</g>
<g id="Vector_25">
<path d="M 115.158 7.13173e-06C 97.0544 7.13173e-06 89.229 2.10323 72.0597 22.084C 54.8905 42.0647 54.3065 50.2439 59.5624 55.502C 64.9351 60.8769 83.2723 48.7249 85.8418 45.9206C 85.8418 45.9206 80.002 70.9257 59.6792 85.0641C 39.3565 99.3194 22.0705 103.058 12.0259 104.928C -0.821816 107.382 -2.2234 117.431 2.4485 125.259C 7.1204 133.088 21.1361 134.49 27.9103 138.112C 34.6846 141.618 38.1885 155.873 64.2343 154.12C 90.2801 152.368 115.859 130.634 125.086 103.175C 134.313 75.7164 135.13 68.2383 136.882 57.2547C 137.466 53.3988 136.182 37.274 136.182 37.274L 142.605 37.6245C 142.605 37.6245 150.781 49.426 158.256 52.9314C 165.731 56.4368 171.805 53.983 170.053 47.5564C 168.301 41.1299 159.424 26.5241 149.73 14.8395C 140.036 3.27168 136.415 7.13173e-06 115.158 7.13173e-06Z" transform="translate(32.7998 66.2704)" fill="#5AEDC5"/>
</g>
<g id="Vector_26">
<path d="M 56.4451 33.45C 56.7955 37.0722 54.226 40.3439 50.6052 40.6945L 10.1934 45.1346C 6.57264 45.4852 3.30229 42.9145 2.9519 39.2923L 0.0319653 11.7166C -0.318427 8.09437 2.25112 4.82266 5.87184 4.47212L 46.2837 0.0319787C 49.9044 -0.31856 53.1748 2.25206 53.5252 5.87429L 56.4451 33.45Z" transform="translate(122.814 74.5345)" fill="#8D7FFF"/>
</g>
<g id="Vector_27">
<path d="M 1.28476 2.5706C 1.99432 2.5706 2.56957 1.99518 2.56957 1.28532C 2.56957 0.575467 1.99432 7.13173e-06 1.28476 7.13173e-06C 0.575198 7.13173e-06 1.42575e-05 0.575467 1.42575e-05 1.28532C 1.42575e-05 1.99518 0.575198 2.5706 1.28476 2.5706Z" transform="translate(166.646 77.9551)" fill="#E6E7E8"/>
</g>
<g id="Group_7">
<g id="Vector_28">
<path d="M 1.42575e-05 9.46457C 2.10237 9.69826 4.20471 9.46454 6.19026 8.99715C 8.17582 8.52977 10.1614 7.71186 11.9134 6.89393C 13.7821 5.95916 15.5341 4.90753 17.1693 3.73907C 18.9212 2.5706 20.4395 1.28532 22.0747 7.13173e-06L 23.9435 2.68746C 22.1915 3.85592 20.3228 4.90756 18.3372 5.95918C 16.4685 6.89395 14.4829 7.8287 12.3805 8.52977C 10.395 9.23085 8.17585 9.8151 6.0735 9.93194C 4.20474 10.0488 2.10237 9.93195 1.42575e-05 9.46457Z" transform="translate(97.1514 97.8189)" fill="#31CCB7"/>
</g>
</g>
<g id="Group_8">
<g id="Vector_29">
<path d="M 2.80315 1.42635e-05C 3.50394 1.16848 4.5551 2.33694 5.48948 3.5054C 6.54066 4.55702 7.59182 5.60862 8.75979 6.66023C 9.92777 7.595 11.2126 8.52979 12.4973 9.23087C 13.7821 10.0488 15.3004 10.633 16.702 11.2172C 15.1836 10.8667 13.6653 10.5162 12.1469 9.93195C 10.6286 9.34772 9.227 8.76347 7.82543 7.94555C 6.42386 7.12763 5.02229 6.30972 3.73752 5.2581C 2.45275 4.20648 1.28476 3.27169 -1.42575e-05 1.98638L 2.80315 1.42635e-05Z" transform="translate(177.859 95.0146)" fill="#31CCB7"/>
</g>
</g>
<g id="Vector_30">
<path d="M 2.21795 18.2418C 2.21795 18.2418 -1.05242 11.1142 0.349151 6.79085C 1.75072 2.46754 6.77307 0.364283 8.87542 0.013744C 10.9778 -0.336795 13.5473 6.08977 12.3793 10.2962C 11.3282 14.6196 5.60504 16.7228 5.60504 16.7228L 5.95549 20.2282C 6.07228 20.345 3.03554 20.5787 2.21795 18.2418Z" transform="translate(118.876 85.77)" fill="#ECC19C"/>
</g>
<g id="Vector_31">
<path d="M 9.56686 16.3585C 9.56686 16.3585 12.1364 14.9563 12.1364 8.88033C 12.1364 2.80432 9.91726 0 7.8149 0C 5.71255 0 1.50784 0.701071 0.223068 2.8043C -1.0617 4.90754 3.37657 11.9183 9.09965 12.2689L 9.56686 16.3585Z" transform="translate(168.992 84.849)" fill="#ECC19C"/>
</g>
<g id="Group_9">
<g id="Vector_32">
<path d="M 0 2.49591C 0.116797 1.67799 0.700799 0.976915 1.40158 0.509529C 2.10237 0.0421441 3.03676 -0.0746951 3.97114 0.0421512C 4.78872 0.275844 5.60629 0.743225 6.07348 1.4443C 6.54067 2.14538 6.77422 2.96331 6.54063 3.78123C 6.54063 3.89808 6.30705 4.01492 6.19025 4.01492C 6.07345 4.01492 6.07348 3.89807 6.07348 3.89807C 5.72309 3.31383 5.2559 2.96331 4.90551 2.61277C 4.43832 2.37907 4.08788 2.14538 3.62069 2.02853C 3.1535 1.91169 2.68637 1.91169 2.21918 2.02853C 1.75199 2.14538 1.28474 2.37906 0.700756 2.7296C 0.467161 2.84645 0.233566 2.84646 0.116769 2.61277C -2.85167e-05 2.72961 0 2.61276 0 2.49591Z" transform="translate(136.629 33.5114)" fill="#312D74"/>
</g>
</g>
<g id="Group_10">
<g id="Vector_33">
<path d="M 5.9315 2.6623C 5.34751 2.31177 4.88034 2.07807 4.41315 1.96122C 3.94596 1.84437 3.47875 1.84437 3.01156 1.96122C 2.54437 2.07807 2.07721 2.19491 1.72682 2.54545C 1.25963 2.89599 0.909237 3.24654 0.558844 3.83077C 0.442047 3.94761 0.325264 3.9476 0.208466 3.9476L 0.0916262 3.83077C -0.141969 3.12969 0.0916547 2.19492 0.558844 1.49384C 1.02603 0.792764 1.8436 0.325364 2.66118 0.0916716C 3.47877 -0.142021 4.41316 0.0916823 5.23074 0.559068C 5.93153 1.02645 6.51553 1.72753 6.63233 2.54545C 6.63233 2.77914 6.51547 3.01283 6.28188 3.01283C 6.16508 2.77914 6.0483 2.6623 5.9315 2.6623Z" transform="translate(160.247 33.8123)" fill="#312D74"/>
</g>
</g>
<g id="Group_11">
<g id="Vector_34">
<path d="M 0.817568 0.350532C 1.40156 0.584224 1.86877 0.817917 2.45276 0.934763C 3.03675 1.05161 3.62071 1.05162 4.32149 1.05162C 5.60626 1.05162 6.77425 1.05161 8.05902 0.350532L 8.17579 0.233696C 8.29259 0.11685 8.52624 0.233686 8.52624 0.350532L 8.52624 0.467385C 8.40944 1.519 7.70863 2.22007 6.89105 2.68746C 6.07347 3.15484 5.13907 3.27169 4.32149 3.27169C 3.50391 3.27169 2.56952 3.15484 1.75193 2.68746C 0.934351 2.22007 0.116769 1.519 -2.8515e-05 0.467385C -2.8515e-05 0.233693 0.116826 7.13173e-06 0.350421 7.13173e-06C 0.467218 7.13173e-06 0.583959 7.13173e-06 0.583959 7.13173e-06L 0.817568 0.350532Z" transform="translate(148.425 45.8223)" fill="#312D74"/>
</g>
</g>
<g id="Vector_35">
<path d="M 8.64301 4.32331C 8.64301 6.77708 6.65744 6.89393 4.32149 6.89393C 1.98554 6.89393 -2.8515e-05 6.77708 -2.8515e-05 4.32331C -2.8515e-05 1.86954 1.98554 0 4.32149 0C 6.65744 0 8.64301 1.86954 8.64301 4.32331Z" transform="translate(132.657 38.6947)" fill="#E0A8A3"/>
</g>
<g id="Vector_36">
<path d="M 7.94226 3.97277C 7.94226 6.19285 6.19026 6.54339 3.97111 6.54339C 1.75196 6.54339 -2.8515e-05 6.07601 -2.8515e-05 3.97277C -2.8515e-05 1.86954 1.75196 7.13173e-06 3.97111 7.13173e-06C 6.19026 7.13173e-06 7.94226 1.75269 7.94226 3.97277Z" transform="translate(163.608 38.8115)" fill="#E0A8A3"/>
</g>
<g id="Vector_37">
<path d="M 4.08794 8.17924C 6.34563 8.17924 8.17585 6.34826 8.17585 4.08962C 8.17585 1.83099 6.34563 0 4.08794 0C 1.83025 0 2.8515e-05 1.83099 2.8515e-05 4.08962C 2.8515e-05 6.34826 1.83025 8.17924 4.08794 8.17924Z" transform="translate(147.024 93.0283)" fill="#E9F2F7"/>
</g>
<g id="Vector_38">
<path d="M 4.90567 11.9179C 7.61499 11.9179 9.81135 9.24998 9.81135 5.95894C 9.81135 2.66791 7.61499 3.56574e-06 4.90567 3.56574e-06C 2.19634 3.56574e-06 -1.4258e-05 2.66791 -1.4258e-05 5.95894C -1.4258e-05 9.24998 2.19634 11.9179 4.90567 11.9179Z" transform="matrix(0.956766 -0.290711 0.290489 0.956834 119.058 33.1581)" fill="#ECC19C"/>
</g>
<g id="Vector_39">
<path d="M 1.98558 3.97277C 3.08218 3.97277 3.97108 3.08344 3.97108 1.98639C 3.97108 0.889336 3.08218 3.56587e-06 1.98558 3.56587e-06C 0.888992 3.56587e-06 1.42575e-05 0.889336 1.42575e-05 1.98639C 1.42575e-05 3.08344 0.888992 3.97277 1.98558 3.97277Z" transform="translate(125.183 40.7979)" fill="#E6E7E8"/>
</g>
<g id="Group_12">
<g id="Vector_40">
<path d="M 1.40154 0.233689C 1.63514 1.05161 1.98558 1.86954 2.33598 2.57062C 2.80317 3.27169 3.15355 3.85592 3.85433 4.557C 4.20472 5.02438 4.5551 5.72547 4.20471 6.42655C 3.97111 7.01078 3.50392 7.36132 3.03673 7.59501C 2.10235 8.0624 1.05118 8.0624 0.116797 7.71186C 0 7.71186 2.8515e-05 7.595 2.8515e-05 7.47816C 2.8515e-05 7.36131 0.116797 7.36132 0.116797 7.36132C 0.93438 7.36132 1.75196 7.12762 2.45275 6.66024C 2.80314 6.42654 3.03673 6.19286 3.03673 5.95917C 3.03673 5.72548 3.03672 5.60863 2.80312 5.37494C 2.21914 4.79071 1.51837 3.85594 1.28477 3.03801C 0.93438 2.10324 0.817596 1.16846 0.934394 0.233689C 0.934394 0.116843 1.05121 0 1.168 0C 1.4016 0.116846 1.40154 0.116843 1.40154 0.233689Z" transform="translate(152.28 35.7736)" fill="#312D74"/>
</g>
</g>
</g>
</g>
</g>
<defs>

<linearGradient id="paint0_linear" x2="1" gradientUnits="userSpaceOnUse" gradientTransform="matrix(10.7838 21.1576 -21.1488 10.7884 20.1778 -0.79446)">
<stop stop-color="#FFDD15"/>
<stop offset="1" stop-color="#FCB534"/>
</linearGradient>

</defs>
</svg>

