<svg width="202" height="179" viewBox="0 0 202 179" version="1.1" xmlns="http://www.w3.org/2000/svg" xmlns:xlink="http://www.w3.org/1999/xlink">
<g id="Canvas" fill="none">
<g id="Group 2">
<g id="Group">
<g id="Vector">
<path d="M 84.7949 47.4581L 86.4301 29.4638C 86.4301 28.9964 86.5469 27.7111 86.5469 27.7111C 86.5469 27.8279 86.5469 27.8279 86.5469 27.9448C 86.8973 21.6351 83.8605 14.2737 74.9839 7.49665C 56.6467 -6.40806 35.6232 3.29018 35.6232 3.29018L 10.7453 14.2737L 2.8515e-05 38.1104L 24.177 43.719L 38.5432 37.4093C 38.5432 37.4093 48.2374 31.4501 56.6468 36.4745L 47.4198 42.4337L 41.1127 67.9062L 60.0339 72.3464C 60.0339 72.3464 70.5456 64.985 78.0206 59.6101C 79.0718 58.909 80.123 57.8574 80.9406 56.8058C 83.9773 53.4172 84.7949 47.4581 84.7949 47.4581Z" transform="translate(94.0146 98.548)" fill="#C70069"/>
</g>
<g id="Vector_2">
<path d="M -2.8515e-05 14.2737L 24.8779 3.29018C 24.8779 3.29018 45.9014 -6.40806 64.2386 7.49665C 81.291 20.4666 76.3855 35.7735 68.9105 41.1484C 61.3186 46.5233 39.3608 61.947 39.3608 61.947L 36.5576 42.3168L 48.3541 34.7218C 48.3541 34.7218 60.0339 28.0616 49.4053 19.2981C 40.6455 12.0537 29.433 18.8307 29.433 18.8307L 2.21915 30.8659L -2.8515e-05 14.2737Z" transform="translate(104.761 98.548)" fill="#FF0069"/>
</g>
<g id="Vector_3">
<path d="M 28.1482 3.73908L 25.929 22.5513L 14.3661 30.6137L 0 18.5786L 1.75196 0L 16.1181 12.152L 28.1482 3.73908Z" transform="translate(128.002 148.343)" fill="#D0D2D3"/>
</g>
<g id="Vector_4">
<path d="M 26.3962 11.2172L 11.563 -1.78293e-06L 0 7.47816L 14.3661 19.6302L 26.3962 11.2172Z" transform="translate(129.754 140.865)" fill="white"/>
</g>
<g id="Vector_5">
<path d="M 1.75202 8.41293L 5.703e-05 26.8746L 11.5629 18.8123L 13.7821 -3.56587e-06L 1.75202 8.41293Z" transform="translate(142.369 152.082)" fill="#BBBDBF"/>
</g>
<g id="Vector_6">
<path d="M 14.2493 -1.78293e-06L 12.8477 18.228L -2.8515e-05 23.9535L 1.75193 5.49178L 14.2493 -1.78293e-06Z" transform="translate(105.345 123.922)" fill="#BBBDBF"/>
</g>
<g id="Vector_7">
<path d="M 16.0012 11.3341L 1.75199 -1.78293e-06L 2.8515e-05 18.4617L 14.2493 29.7958L 16.0012 11.3341Z" transform="translate(91.0947 118.08)" fill="#D0D2D3"/>
</g>
<g id="Vector_8">
<path d="M 26.7467 11.1004L 11.9133 -1.78293e-06L 2.8515e-05 5.25808L 14.2493 16.5922L 26.7467 11.1004Z" transform="translate(92.8467 112.822)" fill="white"/>
</g>
</g>
<g id="Group_2">
<g id="Vector_9">
<path d="M 8.12406 32.3146L 181.335 0.181856C 186.707 -0.869761 191.846 2.75247 192.898 8.12741L 201.073 52.2953C 202.125 57.6702 198.504 62.8115 193.131 63.8631L 62.6684 88.1671L 55.7773 100.319C 54.843 102.072 52.9743 102.422 51.4559 101.137L 40.5937 92.2568L 19.9206 96.1127C 14.5479 97.1643 9.40878 93.5421 8.3576 88.1671L 0.18178 43.9992C -0.869397 38.5074 2.75138 33.2494 8.12406 32.3146Z" transform="translate(0.511719 0)" fill="#E9F2F7"/>
</g>
<g id="Vector_10">
<path d="M 29.3738 21.4406C 29.7242 23.427 28.4395 25.2965 26.5708 25.647L 7.76625 29.1524C 5.7807 29.503 3.91197 28.2177 3.56157 26.3481L 0.0576492 7.76956C -0.292743 5.78317 0.992057 3.91363 2.86082 3.56309L 21.6652 0.057701C 23.6507 -0.292838 25.5195 0.992473 25.8699 2.86201L 29.3738 21.4406Z" transform="translate(20.0244 46.3953)" fill="#D5E2E8"/>
</g>
<g id="Group_3">
<g id="Vector_11">
<path d="M 10.9789 25.823L -5.703e-05 17.0596L 5.25583 10.5162L 9.69419 14.1384L 21.3739 -8.91467e-07L 27.7978 5.25808L 10.9789 25.823Z" transform="translate(26.0391 44.7003)" fill="#FEA729"/>
</g>
</g>
<g id="Group_4">
<g id="Vector_12">
<path d="M 1.69527 23.9684L 111.602 3.05289C 112.419 2.93605 112.886 2.11812 112.653 1.3002C 112.536 0.482273 111.718 -0.101957 111.018 0.0148891L 1.11128 20.9304C 0.293698 21.0472 -0.17352 21.8651 0.0600746 22.6831C 0.176872 23.6178 0.877685 24.0852 1.69527 23.9684Z" transform="translate(60.4336 25.8731)" fill="#A9BBC4"/>
</g>
<g id="Vector_13">
<path d="M 1.69532 23.9684L 111.602 3.05289C 112.419 2.93605 112.886 2.11812 112.653 1.3002C 112.419 0.482274 111.718 -0.101959 111.018 0.0148878L 1.11134 20.9304C 0.293755 21.0472 -0.173463 21.8651 0.0601317 22.6831C 0.293727 23.501 0.99454 24.0852 1.69532 23.9684Z" transform="translate(61.9512 34.2861)" fill="#A9BBC4"/>
</g>
<g id="Vector_14">
<path d="M 1.69524 20.3461L 93.0309 3.05289C 93.8485 2.93605 94.3157 2.11812 94.0821 1.3002C 93.9653 0.482273 93.1477 -0.101957 92.4469 0.0148891L 1.11125 17.3081C 0.29367 17.425 -0.173406 18.2429 0.0601887 19.0608C 0.176986 19.9956 0.994454 20.463 1.69524 20.3461Z" transform="translate(63.4697 45.737)" fill="#A9BBC4"/>
</g>
</g>
</g>
</g>
</g>
</svg>

