<svg width="156" height="277" viewBox="0 0 156 277" version="1.1" xmlns="http://www.w3.org/2000/svg" xmlns:xlink="http://www.w3.org/1999/xlink">
<g id="Canvas" fill="none">
<g id="Group 2">
<g id="Vector">
<path d="M 11.818 0.00706108C 11.818 0.00706108 7.14609 -0.226617 4.69335 1.99346C 2.2406 4.21354 1.5398 6.66732 1.5398 6.66732C 1.5398 6.66732 -0.212144 7.60208 0.0214504 8.88739C 0.255045 10.1727 5.16054 10.0559 8.89806 8.88739C 14.1539 7.13469 17.3075 1.52607 17.3075 1.52607L 11.818 0.00706108Z" transform="translate(0 157.238)" fill="#B08874"/>
</g>
<g id="Group">
<g id="Vector_2">
<path d="M 48.7045 15.6574C 75.6033 15.6574 97.4091 12.1524 97.4091 7.8287C 97.4091 3.50502 75.6033 1.42635e-05 48.7045 1.42635e-05C 21.8058 1.42635e-05 7.12875e-06 3.50502 7.12875e-06 7.8287C 7.12875e-06 12.1524 21.8058 15.6574 48.7045 15.6574Z" transform="translate(32.7227 261.005)" fill="url(#paint0_linear)"/>
</g>
<g id="Vector_3">
<path d="M -1.42575e-05 -1.42635e-05L 2.45274 8.41294L 2.91992 9.5814L 7.47505 8.88031L 4.90549 -1.42635e-05L -1.42575e-05 -1.42635e-05Z" transform="translate(57.4844 258.2)" fill="#B08874"/>
</g>
<g id="Vector_4">
<path d="M 6.19026 -1.42635e-05L 8.29263 6.42653L 4.5551 8.76346L 1.98554 6.07601L 7.12875e-06 1.16845L 6.19026 -1.42635e-05Z" transform="translate(89.3691 253.526)" fill="#B08874"/>
</g>
<g id="Vector_5">
<path d="M -1.42575e-05 0L 0.817582 6.19284L 6.19027 6.19284L 6.07347 4.90756L 9.11021 6.19284L 20.6731 6.19284C 20.6731 6.19284 21.3739 3.62223 17.4028 3.38854C 11.0958 3.038 6.19027 0 6.19027 0C 6.19027 0 5.25589 0.817938 2.56954 0.817938C 0.700785 0.817938 -1.42575e-05 0 -1.42575e-05 0Z" transform="translate(91.3555 259.602)" fill="#20292B"/>
</g>
<g id="Vector_6">
<path d="M 0.23705 0C 0.23705 0 -0.580532 3.85594 0.821038 8.41295C 6.42732 8.41295 13.552 8.41295 13.552 8.41295C 13.552 8.41295 13.9023 6.19286 12.384 5.37494C 7.59528 2.80432 6.07691 1.05162 5.25933 0C 5.25933 0 2.22261 1.98639 0.23705 0Z" transform="translate(59.2324 265.445)" fill="#20292B"/>
</g>
<g id="Vector_7">
<path d="M 0.00628598 7.13173e-06C -0.110511 8.0624 1.40786 22.2008 3.62701 39.494C 7.01414 65.3171 15.6572 96.2814 19.6283 107.849C 19.6283 107.849 24.0666 109.134 27.6873 107.849C 27.6873 107.849 21.7306 77.9365 20.4458 57.9558C 19.1611 37.9751 20.4458 25.4725 20.4458 25.4725C 20.4458 25.4725 30.1401 51.1787 37.2647 69.8741C 44.3893 88.5695 50.2292 99.9036 52.4484 103.175C 57.3539 104.461 60.5074 102.708 60.5074 102.708C 60.5074 102.708 47.6597 70.1078 40.535 41.1299C 34.4615 16.709 33.4104 4.44016 33.2936 1.28531C 28.2713 2.22008 22.7818 2.80431 17.0587 2.80431C 8.7661 2.68747 3.51021 1.40216 0.00628598 7.13173e-06Z" transform="translate(37.6221 154.558)" fill="#4707FF"/>
</g>
<g id="Vector_8">
<path d="M 62.253 19.9807C 62.253 19.9807 72.5312 29.7958 80.4734 29.0947C 88.0653 28.3937 97.0587 19.6302 97.0587 19.6302L 97.0587 12.9699C 97.0587 12.9699 88.1821 18.8123 83.2766 19.6302C 78.3711 20.565 71.3633 14.0216 67.8593 8.64662C 64.3554 3.27169 61.2019 3.56587e-06 48.2373 3.56587e-06C 37.7256 3.56587e-06 32.5865 0.584224 24.9947 10.0488C 17.4028 19.5133 8.52622 35.6381 7.12875e-06 56.2031L 5.48947 57.8389C 5.48947 57.8389 14.8333 41.3636 20.206 34.236C 25.5786 27.1084 29.5497 23.9535 29.5497 23.9535C 29.5497 23.9535 26.3962 43.5837 26.0458 51.0618C 26.0458 51.7629 25.929 52.5808 25.929 53.3988C 29.4329 54.8009 34.6889 56.0862 42.7479 56.0862C 48.471 56.0862 53.9604 55.3852 58.9827 54.5672C 58.9827 53.983 58.9827 53.7493 58.9827 53.7493C 58.9827 53.7493 61.4355 26.1736 62.253 19.9807Z" transform="translate(11.6992 101.042)" fill="#FEC729"/>
</g>
<g id="Vector_9">
<path d="M 12.6141 25.3735C 12.6141 25.9578 12.1469 26.542 11.563 26.542L 1.16799 27.4768C 0.467204 27.4768 1.42575e-05 27.0094 1.42575e-05 26.4252L 1.42575e-05 1.06951C 1.42575e-05 0.36843 0.584001 -0.0989485 1.16799 0.0178978L 11.563 0.952672C 12.1469 0.952672 12.6141 1.5369 12.6141 2.12113L 12.6141 25.3735Z" transform="translate(99.4141 100.44)" fill="#8D7FFF"/>
</g>
<g id="Vector_10">
<path d="M 8.7385 5.5421C 8.7385 1.68617 5.46814 -0.884444 2.43141 0.284019C -0.605323 1.45248 -0.838911 7.76218 1.96423 9.86541C 4.76737 11.9686 5.58496 11.0339 5.58496 11.0339L 5.58496 12.7866C 5.58496 12.7866 8.7385 11.5013 8.7385 5.5421Z" transform="translate(106.443 106.483)" fill="#B08874"/>
</g>
<g id="Vector_11">
<path d="M 36.0173 0.320475C 14.8769 2.19002 -1.82513 10.2524 0.160428 32.2195C 1.3284 45.7737 8.92025 53.0182 19.6656 56.0562L 20.4832 64.8196C 20.7168 67.3903 22.7024 68.2082 24.9215 66.806L 38.3532 57.692C 39.2876 57.692 40.1052 57.5752 41.0395 57.5752C 62.1799 55.7056 78.8819 47.6432 76.8964 25.6761C 74.9108 3.59218 57.2744 -1.43222 36.0173 0.320475Z" transform="translate(77.9971 0)" fill="#E9F2F7"/>
</g>
<g id="Vector_12">
<path d="M 15.1837 0.0294331C 7.24143 2.60005 3.62071 6.33915 3.62071 6.33915C 3.62071 6.33915 3.03673 11.013 2.45274 14.1678C 0.817575 23.165 -1.42575e-05 35.7844 -1.42575e-05 35.7844L 10.0446 32.7464C 10.0446 32.8633 18.9212 -1.13903 15.1837 0.0294331Z" transform="translate(37.6289 118.656)" fill="url(#paint1_linear)"/>
</g>
<g id="Vector_13">
<path d="M 0.934394 0.587527C 0.350407 3.39184 0.11679 6.42984 -7.12875e-06 7.01407C -7.12875e-06 7.01407 3.15352 9.81839 5.13907 11.1037C 7.12463 12.389 9.81097 13.908 9.81097 13.908C 9.81097 13.908 10.2782 9.00047 8.17581 5.72878C 6.07346 2.45708 1.40158 -1.51571 0.934394 0.587527Z" transform="translate(73.9521 114.009)" fill="url(#paint2_linear)"/>
</g>
<g id="Vector_14">
<path d="M 3.36116 0.884743C 3.36116 0.884743 0.674844 4.62384 0.207654 11.8683C -0.259536 19.1128 0.207654 11.8683 0.207654 11.8683L 3.94515 21.6834L 8.61705 33.9523C 8.61705 33.9523 10.0186 6.02599 7.68268 1.93637C 5.46353 -1.68587 3.36116 0.884743 3.36116 0.884743Z" transform="translate(57.7432 168.045)" fill="url(#paint3_linear)"/>
</g>
<g id="Group_2">
<g id="Vector_15">
<path d="M 7.35825 14.7226C 11.4221 14.7226 14.7165 11.4269 14.7165 7.36132C 14.7165 3.29578 11.4221 3.56587e-06 7.35825 3.56587e-06C 3.2944 3.56587e-06 -1.42575e-05 3.29578 -1.42575e-05 7.36132C -1.42575e-05 11.4269 3.2944 14.7226 7.35825 14.7226Z" transform="translate(65.0762 76.5043)" fill="#FEA729"/>
</g>
<g id="Vector_16">
<path d="M 3.85433 0.0315389C 3.85433 0.0315389 4.7887 3.88747 2.45275 5.64017C 0.583987 7.04232 -7.12875e-06 2.36847 -7.12875e-06 2.36847C -7.12875e-06 2.36847 1.98557 -0.319 3.85433 0.0315389Z" transform="translate(73.9521 77.0569)" fill="#312D74"/>
</g>
<g id="Vector_17">
<path d="M 24.7611 14.9563C 24.7611 21.8503 19.1548 27.342 12.3805 27.342C 5.48947 27.342 -1.42575e-05 21.7334 -1.42575e-05 14.9563L -1.42575e-05 8.0624C -1.42575e-05 1.16847 5.60627 -7.13173e-06 12.3805 -7.13173e-06C 19.2716 -7.13173e-06 24.7611 1.16847 24.7611 8.0624L 24.7611 14.9563Z" transform="translate(51.6436 71.363)" fill="#B08874"/>
</g>
<g id="Group_3">
<g id="Vector_18">
<path d="M 0.752695 -3.56587e-06C 0.98629 0.467382 1.10309 1.05162 1.33668 1.519C 1.57028 1.98639 1.80388 2.45378 2.03747 2.80432C 2.15427 3.03801 2.38785 3.38854 2.38785 3.73907C 2.27105 4.08961 2.03746 4.44017 1.80386 4.55701C 1.21988 4.90755 0.63589 4.90754 0.0519028 4.67385C 0.0519028 4.67385 -0.0648946 4.55701 0.0519028 4.55701C 0.0519028 4.55701 0.05191 4.55701 0.168707 4.55701C 0.635897 4.55701 1.2199 4.44016 1.57029 4.20647C 1.92068 3.85593 1.92068 3.62224 1.57029 3.2717C 1.2199 2.80431 0.986297 2.22008 0.869499 1.75269C 0.752702 1.16846 0.63589 0.701081 0.63589 0.11685C 0.63589 3.56064e-06 0.635897 -3.56587e-06 0.752695 -3.56587e-06C 0.635897 -3.56587e-06 0.752695 -3.56587e-06 0.752695 -3.56587e-06Z" transform="translate(69.8125 85.1508)" fill="#312D74"/>
</g>
</g>
<g id="Vector_19">
<path d="M 10.4884 19.0459C 10.4884 19.0459 13.9923 18.3449 13.9923 15.8911C 13.9923 13.4373 13.9923 12.152 13.9923 12.152C 13.9923 12.152 18.4307 14.3721 25.6721 14.3721C 32.9135 14.3721 34.7823 9.5814 34.7823 6.07601C 34.7823 2.57062 30.928 7.13173e-06 25.6721 7.13173e-06C 21.0002 7.13173e-06 19.4818 4.44015 12.8244 4.44015C 6.05012 4.44015 3.83094 3.38855 1.2614 7.24447C -0.490564 9.93194 0.0934237 13.2036 0.0934237 13.2036C 0.0934237 13.2036 7.2181 9.58139 10.4884 19.0459Z" transform="translate(46.2949 64.5859)" fill="#312D74"/>
</g>
<g id="Vector_20">
<path d="M 6.77424 13.5542C 10.5156 13.5542 13.5485 10.52 13.5485 6.77708C 13.5485 3.0342 10.5156 7.13173e-06 6.77424 7.13173e-06C 3.03293 7.13173e-06 7.12875e-06 3.0342 7.12875e-06 6.77708C 7.12875e-06 10.52 3.03293 13.5542 6.77424 13.5542Z" transform="translate(43.2344 76.8548)" fill="#FEA729"/>
<path d="M 13.5485 6.77708C 13.5485 10.52 10.5156 13.5542 6.77424 13.5542C 3.03293 13.5542 7.12875e-06 10.52 7.12875e-06 6.77708C 7.12875e-06 3.0342 3.03293 7.13173e-06 6.77424 7.13173e-06C 10.5156 7.13173e-06 13.5485 3.0342 13.5485 6.77708Z" stroke-width="0.851" stroke-miterlimit="10" transform="translate(43.2344 76.8548)" stroke="#FEA729"/>
</g>
<g id="Vector_21">
<path d="M 5.3727 12.6194C 8.33995 12.6194 10.7454 9.79446 10.7454 6.3097C 10.7454 2.82495 8.33995 -7.13173e-06 5.3727 -7.13173e-06C 2.40545 -7.13173e-06 7.12875e-06 2.82495 7.12875e-06 6.3097C 7.12875e-06 9.79446 2.40545 12.6194 5.3727 12.6194Z" transform="translate(43.2344 77.2053)" fill="#FEC729"/>
</g>
<g id="Vector_22">
<path d="M 0.064277 11.6269C 0.064277 11.6269 -0.870088 6.01825 4.3858 2.04547C 9.64168 -1.9273 18.7519 1.1107 18.7519 1.1107C 18.7519 1.1107 16.5327 2.98025 14.08 3.33079C 14.08 3.33079 6.37133 3.21393 6.37133 13.029C 6.48813 12.9122 4.50258 11.2763 0.064277 11.6269Z" transform="translate(48.1924 65.3448)" fill="#FEA729"/>
</g>
<g id="Vector_23">
<path d="M 1.3077 2.243C 1.3077 2.59354 0.957297 2.94407 0.606905 2.82723C 0.256512 2.82723 -0.0938802 2.4767 0.0229172 2.12616L 0.0229172 0.607155C 0.0229172 0.256616 0.373317 -0.0939231 0.723709 0.0229233C 1.0741 0.0229233 1.42449 0.373451 1.3077 0.72399L 1.3077 2.243Z" transform="translate(65.9873 82.3236)" fill="#312D74"/>
</g>
<g id="Vector_24">
<path d="M 1.30768 2.243C 1.30768 2.59354 0.957283 2.94407 0.60689 2.82723C 0.256498 2.82723 -0.0938945 2.4767 0.022903 2.12616L 0.022903 0.607155C 0.022903 0.256616 0.373302 -0.0939231 0.723695 0.0229233C 1.07409 0.0229233 1.42448 0.373451 1.30768 0.72399L 1.30768 2.243Z" transform="translate(72.7607 82.3236)" fill="#312D74"/>
</g>
<g id="Group_4">
<g id="Vector_25">
<path d="M 5.83988 1.28531C 5.37269 1.519 4.78868 1.63584 4.32149 1.75269C 3.7375 1.75269 3.27032 1.7527 2.68633 1.63585C 2.21914 1.51901 1.63517 1.28531 1.16798 1.05162C 0.700792 0.817928 0.350399 0.467385 7.12875e-06 0.116846L 7.12875e-06 -7.13173e-06L 0.116812 -7.13173e-06C 1.05119 0.467378 1.86876 0.817928 2.80314 1.05162C 3.73752 1.28531 4.67189 1.2853 5.60627 1.16846C 5.72307 1.16846 5.72307 1.16846 5.72307 1.28531C 5.95667 1.16846 5.83988 1.28531 5.83988 1.28531Z" transform="translate(63.6738 91.2269)" fill="#312D74"/>
</g>
</g>
</g>
<g id="Vector_26">
<path d="M 0.700778 1.40216C 1.08781 1.40216 1.40157 1.08827 1.40157 0.701071C 1.40157 0.313876 1.08781 3.56587e-06 0.700778 3.56587e-06C 0.313745 3.56587e-06 -1.42575e-05 0.313876 -1.42575e-05 0.701071C -1.42575e-05 1.08827 0.313745 1.40216 0.700778 1.40216Z" transform="translate(105.955 105.132)" fill="#E9F2F7"/>
</g>
<g id="Group_5">
<g id="Vector_27">
<path d="M 44.1847 21.6099C 43.2503 19.6235 40.9144 18.8056 38.9288 19.7403C 38.3448 19.974 37.7608 20.4414 37.4104 21.0256L 28.7674 17.8708C 29.001 16.7023 28.8842 15.5339 28.4171 14.4823C 27.9499 13.4306 27.0154 12.4959 25.9643 12.0285L 28.4171 5.25139C 28.8842 5.25139 29.3514 5.25139 29.8186 5.0177C 31.1033 4.43346 31.6874 2.79762 31.1034 1.51231C 30.5194 0.226996 28.8842 -0.357234 27.5995 0.226998C 26.3147 0.811229 25.7307 2.44708 26.3146 3.73239C 26.5482 4.19977 26.8987 4.55031 27.2491 4.78401L 24.7963 11.5611C 23.6283 11.3274 22.4604 11.4442 21.4092 11.9116C 20.358 12.379 19.4236 13.3138 18.9564 14.2486L 7.74389 10.1589C 7.97749 9.22416 7.97747 8.28939 7.51028 7.35462C 6.5759 5.36823 4.23995 4.55031 2.2544 5.48508C 0.26884 6.41985 -0.548749 8.75678 0.38563 10.7432C 1.32001 12.7296 3.65596 13.5475 5.64152 12.6127C 6.2255 12.379 6.80951 11.9116 7.1599 11.3274L 18.4892 15.417C 18.2556 16.3518 18.3724 17.2866 18.606 18.2213L 12.5326 21.1425C 11.4814 19.6235 9.37905 18.9224 7.62709 19.8572C 5.64153 20.792 4.82394 23.1289 5.75832 25.1153C 6.6927 27.1017 9.02865 27.9196 11.0142 26.9848C 12.7662 26.1669 13.7005 24.1805 13.1165 22.311L 19.19 19.3898C 19.6572 20.2077 20.4748 20.9088 21.2924 21.2593L 18.8396 28.0364C 18.3725 28.0364 17.9053 28.0364 17.4381 28.2701C 16.1533 28.8543 15.5693 30.4902 16.1533 31.7755C 16.7373 33.0608 18.3724 33.645 19.6572 33.0608C 20.942 32.4766 21.526 30.8407 20.942 29.5554C 20.7084 29.088 20.358 28.7375 20.0076 28.5038L 22.4603 21.7267C 23.6283 21.9604 24.7963 21.8436 25.8475 21.3762C 26.8987 20.9088 27.833 19.974 28.3002 19.0393L 36.8264 22.0773C 36.5928 23.012 36.5928 23.9468 37.06 24.8816C 37.9944 26.868 40.3303 27.6859 42.3159 26.7511C 44.3015 26.05 45.1191 23.5963 44.1847 21.6099Z" transform="translate(95.1738 12.9466)" fill="#A9BBC4"/>
</g>
<g id="Vector_28">
<path d="M 5.72309 11.4509C 8.88386 11.4509 11.4461 8.88756 11.4461 5.72547C 11.4461 2.56338 8.88386 3.56587e-06 5.72309 3.56587e-06C 2.56232 3.56587e-06 -1.42575e-05 2.56338 -1.42575e-05 5.72547C -1.42575e-05 8.88756 2.56232 11.4509 5.72309 11.4509Z" transform="translate(112.963 23.9234)" fill="#E9F2F7"/>
</g>
<g id="Vector_29">
<path d="M 4.43832 8.88032C 6.88952 8.88032 8.87661 6.89239 8.87661 4.44016C 8.87661 1.98792 6.88952 0 4.43832 0C 1.98711 0 -7.12875e-06 1.98792 -7.12875e-06 4.44016C -7.12875e-06 6.89239 1.98711 8.88032 4.43832 8.88032Z" transform="translate(114.247 25.2087)" fill="#F7941E"/>
</g>
</g>
</g>
</g>
</g>
<defs>

<linearGradient id="paint0_linear" x2="1" gradientUnits="userSpaceOnUse" gradientTransform="translate(0.0108622 -40.7867) scale(97.2992 97.3399)">
<stop stop-color="#E9F2F7" stop-opacity="0"/>
<stop offset="1" stop-color="#E9F2F7"/>
</linearGradient>
<linearGradient id="paint1_linear" x2="1" gradientUnits="userSpaceOnUse" gradientTransform="matrix(9.90991 4.37379 -4.37196 9.91406 -2.96794 7.33158)">
<stop stop-color="#5E1300"/>
<stop offset="0.2552" stop-color="#5E1300" stop-opacity="0.7152"/>
<stop offset="1" stop-color="#5E1300" stop-opacity="0"/>
</linearGradient>
<linearGradient id="paint2_linear" x2="1" gradientUnits="userSpaceOnUse" gradientTransform="matrix(7.39176 -4.40849 4.40665 7.39485 -4.31993 7.88231)">
<stop stop-color="#5E1300"/>
<stop offset="0.2552" stop-color="#5E1300" stop-opacity="0.7152"/>
<stop offset="1" stop-color="#5E1300" stop-opacity="0"/>
</linearGradient>
<linearGradient id="paint3_linear" x2="1" gradientUnits="userSpaceOnUse" gradientTransform="matrix(12.6188 -0.467502 0.467307 12.6241 -8.15477 11.3105)">
<stop stop-color="#5E1300"/>
<stop offset="0.3252" stop-color="#5E1300" stop-opacity="0.7152"/>
<stop offset="1" stop-color="#5E1300" stop-opacity="0"/>
</linearGradient>

</defs>
</svg>

