<svg width="145" height="150" viewBox="0 0 145 150" version="1.1" xmlns="http://www.w3.org/2000/svg" xmlns:xlink="http://www.w3.org/1999/xlink">
<g id="Canvas" fill="none">
<g id="Group">
<g id="Vector">
<path d="M 129.919 0.0406245L 7.98283 11.141C 3.19414 11.6084 -0.426568 15.8149 0.0406213 20.7224L 3.66131 60.3333C 4.1285 65.124 8.33323 68.7463 13.2387 68.2789L 96.9825 60.6839L 105.742 69.3305C 106.91 70.6158 108.662 70.3821 109.597 68.9799L 116.721 58.8143L 135.292 57.1785C 140.081 56.7111 143.701 52.5046 143.234 47.5971L 139.614 7.98618C 139.03 3.19548 134.708 -0.426761 129.919 0.0406245Z" transform="translate(0.799805 0.988678)" fill="#E9F2F7"/>
</g>
<g id="Group_2">
<g id="Vector_2">
<path d="M 1.63516 24.5889C 1.63516 24.5889 11.3293 16.8771 10.395 10.4505C 9.81098 6.59461 8.40942 4.84191 7.70864 4.02399C 7.35825 3.67345 7.12466 3.32291 7.24146 3.08921C 7.47505 2.27129 8.17583 0.518595 10.0446 0.0512099C 12.6141 -0.533022 16.3517 4.02398 17.6364 6.47776C 18.9212 8.93153 19.3884 12.5538 19.3884 12.5538C 19.3884 12.5538 33.0537 7.64621 37.1416 19.3308C 40.6455 29.3796 37.6088 34.6377 34.2216 38.0263C 31.3017 40.8306 24.761 42.9338 17.87 42.9338C 13.6653 42.9338 5.72307 40.48 5.72307 40.48L 0 25.9911L 1.63516 24.5889Z" transform="translate(16.957 101.816)" fill="url(#paint0_linear)"/>
</g>
<g id="Vector_3">
<path d="M 18.3323 21.6117C 18.9163 24.416 17.1643 27.3371 14.2444 27.9214L 10.1565 28.8561C 7.35334 29.4404 4.43341 27.6877 3.84943 24.7665L 0.111893 7.35642C -0.472094 4.5521 1.27987 1.63093 4.1998 1.0467L 8.28771 0.111947C 11.0909 -0.472285 14.0108 1.28041 14.5948 4.20157L 18.3323 21.6117Z" transform="translate(9.25391 120.101)" fill="#FF0069"/>
</g>
</g>
<g id="Group_3">
<g id="Vector_4">
<path d="M 1.40156 8.99716L 73.4656 2.57062C 74.1664 2.45377 74.6336 1.86954 74.6336 1.16847C 74.5168 0.467387 73.9328 1.78293e-06 73.232 1.78293e-06L 1.16799 6.42655C 0.467204 6.5434 1.42575e-05 7.12762 1.42575e-05 7.8287C 0.116812 8.52978 0.700777 9.11401 1.40156 8.99716Z" transform="translate(50.4795 21.2437)" fill="#A9BBC4"/>
</g>
<g id="Vector_5">
<path d="M 1.40157 8.99717L 73.4656 2.57062C 74.1664 2.45377 74.6336 1.86954 74.6336 1.16846C 74.6336 0.467385 73.9328 0 73.232 0L 1.16796 6.42655C 0.467175 6.54339 -1.42575e-05 7.12763 -1.42575e-05 7.8287C -1.42575e-05 8.52978 0.700785 8.99717 1.40157 8.99717Z" transform="translate(51.1797 28.3713)" fill="#A9BBC4"/>
</g>
<g id="Vector_6">
<path d="M 1.40157 7.36132L 56.2964 2.57062C 56.9972 2.45377 57.4643 1.86954 57.4643 1.16846C 57.4643 0.467383 56.7635 -1.78293e-06 56.0628 -1.78293e-06L 1.16796 4.7907C 0.467175 4.90755 -1.42575e-05 5.49178 -1.42575e-05 6.19286C -1.42575e-05 6.89393 0.700785 7.47817 1.40157 7.36132Z" transform="translate(51.7637 36.6674)" fill="#A9BBC4"/>
</g>
</g>
<g id="Group_4">
<g id="Group_5">
<g id="Vector_7">
<path d="M 9.86383 0.052847C 3.79036 0.637079 -0.531175 6.01201 0.0528124 12.088C 0.6368 18.164 6.0095 22.4873 12.083 21.9031C 18.1564 21.3189 22.4779 15.9439 21.8939 9.86794C 21.1932 3.79193 15.8205 -0.531385 9.86383 0.052847ZM 10.2142 3.90878L 17.1052 7.29732L 4.25753 8.58263L 10.2142 3.90878ZM 17.806 13.7239C 17.9228 14.4249 17.4557 14.8923 16.7549 15.0092L 6.00949 16.0608C 5.3087 16.1776 4.84151 15.7103 4.72471 15.0092L 4.14072 8.81632C 4.14072 8.69947 4.14072 8.69948 4.14072 8.58263L 10.6814 11.8543L 10.7982 11.8543L 10.915 11.8543L 11.0318 11.8543C 11.0318 11.8543 11.1486 11.8543 11.1486 11.7375L 16.8717 7.29732C 16.8717 7.41417 16.8717 7.41417 16.8717 7.53101L 17.806 13.7239Z" transform="translate(18.4238 26.6826)" fill="#A9BBC4"/>
</g>
</g>
</g>
</g>
</g>
<defs>

<linearGradient id="paint0_linear" x2="1" gradientUnits="userSpaceOnUse" gradientTransform="translate(0.102081 2.15129) scale(38.6151 38.6313)">
<stop stop-color="#FFDD15"/>
<stop offset="1" stop-color="#FCB534"/>
</linearGradient>

</defs>
</svg>

