<svg width="146" height="132" viewBox="0 0 146 132" version="1.1" xmlns="http://www.w3.org/2000/svg" xmlns:xlink="http://www.w3.org/1999/xlink">
<g id="Canvas" fill="none">
<g id="Group 2">
<g id="Vector">
<path d="M 145.88 11.7147C 145.88 3.88599 125.44 -1.95632 80.2398 0.614295C 45.6678 2.60068 2.8515e-05 4.70393 2.8515e-05 12.5326C 2.8515e-05 20.3613 36.7912 28.7743 82.2254 26.4373C 116.914 24.451 145.88 19.5434 145.88 11.7147Z" transform="translate(0.0703125 104.909)" fill="url(#paint0_linear)"/>
</g>
<g id="Vector_2">
<path d="M 115.874 37.7414C 116.341 7.82871 109.567 0.701085 109.216 0.350546C 108.983 0.116853 108.749 3.56587e-06 108.399 3.56587e-06L 1.06169 1.40216C 0.711302 1.40216 0.244127 1.63585 0.127329 1.98639C -0.106266 2.33693 0.0105031 2.80431 0.244098 3.15485C 0.244098 3.2717 5.73361 5.25809 5.38321 28.2768C 5.26642 37.274 5.03284 51.5292 5.03284 51.6461C 5.03284 51.9966 5.14962 52.2303 5.38321 52.464C 5.61681 52.6977 5.85042 52.8145 6.20081 52.8145L 6.31758 52.8145L 6.08397 73.2626C 6.08397 74.1974 6.78478 74.8985 7.71916 74.8985C 8.65354 74.8985 9.35436 74.1974 9.35436 73.2626L 9.58789 52.8145L 108.165 46.9722L 107.931 66.6024C 107.931 67.5372 108.632 68.2383 109.567 68.2383C 110.501 68.2383 111.202 67.5372 111.202 66.6024L 111.552 45.2195L 115.757 38.2087C 115.874 38.0919 115.874 37.9751 115.874 37.7414Z" transform="translate(7.06641 39.271)" fill="url(#paint1_linear)"/>
</g>
<g id="Vector_3">
<path d="M 6.78477 23.603C 7.01836 7.24447 1.17851 0.701085 1.17851 0.701085C 0.944911 0.350546 0.711302 0.116846 0.36091 0C 0.244112 0.116846 0.244098 0.116843 0.127301 0.233689C -0.106294 0.584228 0.0105459 1.05161 0.244141 1.40215C 0.244141 1.519 5.61682 9.93193 5.50003 25.0051C 5.38323 32.2496 5.26645 46.5048 5.14965 48.8417L 5.96717 49.0755L 6.43439 46.1543C 6.31759 46.1543 6.55117 38.5593 6.78477 23.603Z" transform="translate(7.18457 41.2574)" fill="#DCD8E9"/>
</g>
<g id="Vector_4">
<path d="M 112.009 -3.56587e-06L 110.724 -3.56587e-06L 11.4461 5.25808C 11.3293 5.25808 9.34378 5.37493 4.67188 5.84231C 2.68633 6.07601 0.116826 7.01078 0.116826 9.69825C 0.116826 9.81509 0.116783 12.7363 -1.42575e-05 15.0732C -1.42575e-05 15.8911 0.817568 16.2416 1.16796 16.2416C 1.16796 10.3993 1.28476 8.52979 3.50391 8.29609C 5.48947 8.17925 7.8254 8.41294 12.0301 9.8151C 21.3739 12.7363 25.929 24.4209 26.0458 24.5377C 26.2794 24.8883 26.6298 25.1219 26.9802 25.2388L 27.097 25.2388L 28.9657 25.122L 28.6154 48.2575C 28.6154 49.426 29.5498 50.4776 30.8345 50.4776C 32.1193 50.4776 33.0536 49.5428 33.0536 48.2575L 33.4041 24.6546L 121.469 17.8775L 121.119 40.0783C 121.119 41.2467 122.053 42.2984 123.338 42.2984C 124.506 42.2984 125.557 41.3636 125.557 40.0783L 125.791 17.2933L 129.061 16.9427C 129.645 16.8259 130.112 16.3585 129.996 15.7743C 129.996 15.6574 130.93 1.16846 112.009 -3.56587e-06Z" transform="translate(12.2168 75.9607)" fill="url(#paint2_linear)"/>
</g>
<g id="Vector_5">
<path d="M 9.58235 37.975C 9.58235 37.975 4.67681 38.793 1.87367 36.8066C -2.68143 33.6517 2.1073 17.9943 5.26083 10.2825C 8.41436 2.57062 15.1886 -3.56587e-06 25.5835 -3.56587e-06C 38.0809 -3.56587e-06 39.7161 5.60862 39.7161 14.9563C 39.7161 24.4209 39.7161 37.8582 39.7161 37.8582L 19.5101 37.8582L 9.58235 37.8582L 9.58235 37.975Z" transform="translate(50.6377 30.3906)" fill="#FEA729"/>
</g>
<g id="Vector_6">
<path d="M 0 5.25808C 0 5.25808 8.99337 3.27169 12.9645 -3.56587e-06C 12.9645 1.75269 14.0157 5.25808 14.0157 5.25808L 0 5.25808Z" transform="translate(59.7529 63.1076)" fill="url(#paint3_linear)"/>
</g>
<g id="Vector_7">
<path d="M 11.181 1.519L 0.2021 1.519C 0.2021 1.519 -0.381944 0.584224 0.435638 -7.13173e-06C 3.12198 -7.13173e-06 11.181 -7.13173e-06 11.181 -7.13173e-06L 11.181 1.519Z" transform="translate(64.6895 66.8467)" fill="#8D7FFF"/>
</g>
<g id="Vector_8">
<path d="M 3.60469 3.56587e-06C 3.60469 3.56587e-06 -1.88479 12.152 0.68475 12.9699C 3.37109 13.9047 15.0509 10.1656 15.0509 10.1656L 15.0509 3.38854L 3.60469 3.56587e-06Z" transform="translate(59.7695 46.2818)" fill="url(#paint4_linear)"/>
</g>
<g id="Vector_9">
<path d="M 34.2217 23.2524C 34.2217 23.8367 33.7545 24.304 33.1705 24.304L 1.05118 24.304C 0.46719 24.304 -2.8515e-05 23.8367 -2.8515e-05 23.2524L -2.8515e-05 1.05162C -2.8515e-05 0.467389 0.46719 -7.13173e-06 1.05118 -7.13173e-06L 33.0537 -7.13173e-06C 33.6377 -7.13173e-06 34.1048 0.467389 34.1048 1.05162L 34.1048 23.2524L 34.2217 23.2524Z" transform="translate(72.7178 44.0616)" fill="#8D7FFF"/>
</g>
<g id="Vector_10">
<path d="M 7.54355 1.46116C 6.84277 1.22747 6.14197 1.22747 5.55798 1.46116C 5.20759 0.876933 4.62362 0.40954 4.03963 0.175848C 2.40447 -0.408384 0.652518 0.526394 0.185328 2.0454C -0.865849 5.0834 2.87165 7.42033 3.45564 7.88771C 4.15643 7.88771 8.71154 7.8877 9.52912 5.31708C 9.99631 3.79808 9.06192 2.0454 7.54355 1.46116Z" transform="translate(102.199 10.7015)" fill="#FF0069"/>
</g>
<g id="Group">
<g id="Vector_11">
<path d="M 18.0452 7.82871L 18.0452 0.584224C 18.0452 0.467378 17.9284 0.233693 17.8116 0.116846C 17.6948 0 17.4612 -7.13173e-06 17.3444 -7.13173e-06L 5.6647 2.68746L 4.02951 1.98639C 3.91271 1.98639 3.79593 1.98639 3.67913 1.98639L 0.875967 2.57063C 0.759169 2.57063 0.642357 2.68746 0.642357 2.68746L 0.17521 3.27169C -0.0583845 3.50539 -0.0583845 3.85592 0.17521 4.08961C 0.408805 4.32331 0.759212 4.32331 0.992807 4.08961L 1.45995 3.62224L 3.67913 3.15486L 4.84711 4.90755L 8.4678 10.1656C 8.5846 10.2825 8.70142 10.3993 8.93502 10.3993L 9.05179 10.3993L 17.578 8.29609C 17.8116 8.29609 18.0452 8.0624 18.0452 7.82871Z" transform="translate(39.3721 1.99701)" fill="#E9F2F7"/>
</g>
<g id="Vector_12">
<path d="M 1.51834 0C 0.700756 0 -1.42575e-05 0.701082 -1.42575e-05 1.51901C -1.42575e-05 2.33693 0.700756 3.03801 1.51834 3.03801C 2.33592 3.03801 3.03676 2.33693 3.03676 1.51901C 3.03676 0.701082 2.33592 0 1.51834 0Z" transform="translate(49.0078 13.2143)" fill="#E9F2F7"/>
</g>
<g id="Vector_13">
<path d="M 1.51838 3.56587e-06C 0.700799 3.56587e-06 2.8515e-05 0.701085 2.8515e-05 1.51901C 2.8515e-05 2.33693 0.700799 3.038 1.51838 3.038C 2.33596 3.038 3.03673 2.33693 3.03673 1.51901C 3.03673 0.701085 2.33596 3.56587e-06 1.51838 3.56587e-06Z" transform="translate(54.9639 11.8121)" fill="#E9F2F7"/>
</g>
</g>
<g id="Vector_14">
<path d="M 5.4054 1.42091L 4.93818 4.57577C 4.93818 4.57577 3.6534 5.39368 3.5366 5.39368C 3.4198 5.39368 1.66785 5.39368 1.43426 5.39368C 1.20066 5.39368 0.616691 5.39367 0.499893 5.27682C 0.383096 5.15998 0.149515 4.45891 0.149515 4.22521C 0.149515 3.99152 -0.0841227 2.00515 0.0326748 1.53776C 0.149472 1.07038 0.0327318 0.369299 0.383124 0.369299C 0.733517 0.369299 2.13507 -0.0981075 2.48546 0.0187388C 2.71906 0.135585 5.4054 1.42091 5.4054 1.42091Z" transform="translate(91.373 108.776)" fill="#ECC19C"/>
</g>
<g id="Vector_15">
<path d="M -2.8515e-05 -7.13173e-06L -2.8515e-05 1.86954C -2.8515e-05 1.86954 0.350392 2.8043 0.46719 2.8043C 0.583987 2.92114 1.63519 3.50538 2.10238 3.50538C 2.56957 3.62223 2.80317 3.85592 3.27036 3.50538C 3.73755 3.15484 4.32149 2.92114 4.32149 2.8043C 4.32149 2.68745 4.78871 1.98639 4.78871 1.98639L 5.02232 2.22007C 5.02232 2.22007 5.25589 1.98639 5.13909 1.86954C 5.02229 1.75269 5.13912 1.2853 5.02232 1.0516C 5.02232 0.81791 4.78867 0.350553 4.67187 0.350553C 4.55507 0.350553 2.21914 0.584224 1.98554 0.584224C 1.86874 0.467378 -2.8515e-05 -7.13173e-06 -2.8515e-05 -7.13173e-06Z" transform="translate(85.5654 113.585)" fill="#ECC19C"/>
</g>
<g id="Vector_16">
<path d="M 0 -7.13173e-06L 0.817596 6.19287L 6.19025 6.19287L 6.07348 4.90755L 9.11019 6.19287L 20.6732 6.19287C 20.6732 6.19287 21.374 3.62222 17.4028 3.38853C 11.0958 3.03799 6.19025 -7.13173e-06 6.19025 -7.13173e-06C 6.19025 -7.13173e-06 5.2559 0.817931 2.56956 0.817931C 0.700799 0.817931 0 -7.13173e-06 0 -7.13173e-06Z" transform="translate(90.1211 113.001)" fill="#312D74"/>
</g>
<g id="Vector_17">
<path d="M 3.27034 6.5434C 5.0765 6.5434 6.54066 5.07861 6.54066 3.2717C 6.54066 1.46479 5.0765 0 3.27034 0C 1.46419 0 2.8515e-05 1.46479 2.8515e-05 3.2717C 2.8515e-05 5.07861 1.46419 6.5434 3.27034 6.5434Z" transform="translate(86.5 52.942)" fill="#E9F2F7"/>
</g>
<g id="Vector_18">
<path d="M -1.42575e-05 -3.56587e-06L 18.1036 -3.56587e-06C 18.1036 -3.56587e-06 21.9579 -6.686e-06 21.6075 4.90754C 21.2571 9.81508 14.95 41.831 14.95 41.831C 14.95 41.831 12.8477 43.4668 8.9934 42.4152L 8.05904 8.99716C 7.94224 9.11401 4.90548 3.15485 -1.42575e-05 -3.56587e-06Z" transform="translate(82.8789 68.3657)" fill="#312D74"/>
</g>
<g id="Vector_19">
<path d="M 0 -3.56587e-06C 0 -3.56587e-06 0 2.80431 0 5.60862C 0 8.41294 2.10234 14.7226 10.2782 14.7226C 18.454 14.7226 20.9068 14.6058 20.9068 14.6058C 20.9068 14.6058 23.0091 32.4833 23.7099 38.4424C 24.4107 44.4016 24.7611 45.4532 24.7611 45.4532C 24.7611 45.4532 28.6154 48.2575 32.4697 45.4532L 33.7545 7.94555C 33.7545 7.94555 34.3384 0.11685 25.8122 0.11685C 18.1036 0.11685 8.05905 -3.56587e-06 8.05905 -3.56587e-06L 0 -3.56587e-06Z" transform="translate(59.7529 68.3657)" fill="#403C7E"/>
</g>
<g id="Vector_20">
<path d="M 0.23705 0C 0.23705 0 -0.580532 3.85594 0.821038 8.41295C 6.42732 8.41295 13.552 8.41295 13.552 8.41295C 13.552 8.41295 13.9024 6.19286 12.384 5.37494C 7.59532 2.80432 6.07691 1.05162 5.25933 0C 5.25933 0 2.22261 2.10323 0.23705 0Z" transform="translate(85.2119 115.455)" fill="#403C7E"/>
</g>
<g id="Vector_21">
<path d="M 3.39283 0.467392C 3.39283 0.467392 4.0936 4.44017 1.40726 6.89394C -1.27908 9.34771 0.706436 -3.56587e-06 0.706436 -3.56587e-06L 3.39283 0.467392Z" transform="translate(87.7793 10.5267)" fill="#312D74"/>
</g>
<g id="Vector_22">
<path d="M 20.3456 14.0898C 19.528 19.6985 14.2722 23.5544 8.66588 22.6196C 3.05961 21.8017 -0.794696 16.5436 0.139684 10.935L 0.95728 5.32637C 1.77486 -0.282254 6.44676 -0.515943 12.053 0.418828C 17.6593 1.23675 21.9808 2.87259 21.1632 8.48122L 20.3456 14.0898Z" transform="translate(68.1406 5.78467)" fill="#ECC19C"/>
</g>
<g id="Group_2">
<g id="Vector_23">
<path d="M 18.5119 11.0688C 26.2205 14.8079 29.4908 6.74546 26.8045 4.29169C 24.7021 2.539 22.1326 4.2917 19.6798 2.88954C 5.54734 -4.82232 4.49617 5.3433 4.49617 5.3433C 4.49617 5.3433 1.69304 5.46016 0.641867 8.49817C -0.759703 12.3541 0.291432 16.3269 2.27699 17.3785C 3.44496 17.9627 4.37933 15.6258 4.37933 15.6258C 1.57619 13.172 3.32819 9.90032 5.66414 10.134C 8.58408 10.3677 7.76648 14.1068 7.76648 14.1068C 7.76648 14.1068 9.86882 13.9899 9.86882 13.6394C 9.51843 10.6014 10.1024 7.09601 18.5119 11.0688Z" transform="translate(66.0029 0.743286)" fill="#312D74"/>
</g>
</g>
<g id="Vector_24">
<path d="M 1.19836 2.13363C 1.08156 2.48417 0.847993 2.71785 0.497601 2.60101C 0.147208 2.48416 -0.086415 2.25048 0.0303825 1.89994L 0.263992 0.497788C 0.380789 0.147249 0.614355 -0.0864547 0.964748 0.0303916C 1.31514 0.147238 1.54876 0.380938 1.43197 0.731477L 1.19836 2.13363Z" transform="translate(79.5781 14.586)" fill="#312D74"/>
</g>
<g id="Vector_25">
<path d="M 1.19839 2.13363C 1.08159 2.48417 0.84795 2.71786 0.497558 2.60101C 0.147166 2.48416 -0.0863865 2.25048 0.030411 1.89994L 0.263949 0.497773C 0.380746 0.147234 0.614384 -0.0864511 0.964776 0.0303952C 1.31517 0.147242 1.54872 0.380941 1.43192 0.73148L 1.19839 2.13363Z" transform="translate(85.8857 15.5208)" fill="#312D74"/>
</g>
<g id="Group_3">
<g id="Vector_26">
<path d="M 5.25591 2.33692C 4.32153 2.8043 3.15352 2.68747 2.21914 2.22008C 1.75195 1.98639 1.28479 1.7527 0.934394 1.40216C 0.584001 1.05162 0.233623 0.584239 2.8515e-05 0.2337C 2.8515e-05 0.116853 0 0.116839 0.116797 -7.13173e-06L 0.233566 -7.13173e-06L 1.40154 0.701078C 1.75193 0.934771 2.21912 1.05162 2.56952 1.28531C 3.3871 1.63585 4.20469 1.86955 5.13907 1.98639C 5.25587 1.98639 5.37271 2.10324 5.25591 2.22008C 5.37271 2.22008 5.25591 2.33692 5.25591 2.33692Z" transform="translate(77.1562 21.8608)" fill="#312D74"/>
</g>
</g>
<g id="Group_4">
<g id="Vector_27">
<path d="M 1.75198 0.116839L 1.86874 1.51901C 1.86874 1.98639 1.98556 2.45377 2.10235 2.80431C 2.21915 3.038 2.21915 3.38854 2.10235 3.73908C 1.98556 4.08962 1.63519 4.20647 1.4016 4.32331C 0.817611 4.44016 0.350407 4.20647 1.42575e-05 3.85594L 1.42575e-05 3.73908L 0.116783 3.73908C 0.583973 3.85593 0.934365 3.85593 1.28476 3.73908C 1.63515 3.50539 1.63516 3.38854 1.51837 3.038C 1.40157 2.57061 1.2848 2.10324 1.4016 1.51901C 1.4016 1.05162 1.51834 0.584224 1.63514 0.116839C 1.63514 -7.12999e-06 1.75198 3.56587e-06 1.75198 3.56587e-06L 1.75198 0.116839Z" transform="translate(82.1787 17.6544)" fill="#312D74"/>
</g>
</g>
</g>
</g>
<defs>

<linearGradient id="paint0_linear" x2="1" gradientUnits="userSpaceOnUse" gradientTransform="translate(0.0177532 -59.6451) scale(145.853 145.914)">
<stop stop-color="#E9F2F7" stop-opacity="0"/>
<stop offset="1" stop-color="#E9F2F7"/>
</linearGradient>
<linearGradient id="paint1_linear" x2="1" gradientUnits="userSpaceOnUse" gradientTransform="matrix(-0.917111 65.656 -65.6286 -0.917495 90.9316 11.7537)">
<stop offset="0.0107527" stop-color="#E9F2F7"/>
<stop offset="1" stop-color="#A9BBC4"/>
</linearGradient>
<linearGradient id="paint2_linear" x2="1" gradientUnits="userSpaceOnUse" gradientTransform="matrix(1.9398 33.8119 -33.7978 1.94061 81.1458 1.15859)">
<stop stop-color="#E9F2F7"/>
<stop offset="1" stop-color="#A9BBC4"/>
</linearGradient>
<linearGradient id="paint3_linear" x2="1" gradientUnits="userSpaceOnUse" gradientTransform="matrix(5 7 -6.99707 5.00209 10.7456 -1.60865)">
<stop stop-color="#FE8229"/>
<stop offset="1" stop-color="#FEA729" stop-opacity="0"/>
</linearGradient>
<linearGradient id="paint4_linear" x2="1" gradientUnits="userSpaceOnUse" gradientTransform="matrix(8.5 -15 13.4254 -2.93242 -4.98226 15.6844)">
<stop stop-color="#FE8229"/>
<stop offset="1" stop-color="#FEA729" stop-opacity="0"/>
</linearGradient>

</defs>
</svg>

