<svg width="30" height="32" viewBox="0 0 30 32" version="1.1" xmlns="http://www.w3.org/2000/svg" xmlns:xlink="http://www.w3.org/1999/xlink">
<g id="Canvas" fill="none">
<g id="user-and-heart">
<g id="Vector">
<path d="M 15.0537 27.8C 13.6487 26.4 13.0465 24.2 13.448 22.2C 13.8494 20.2 14.5854 18.2667 16.3918 17.6667C 16.3918 17.651 16.3918 17.6667 16.6594 17.6C 16.9271 17.5333 18.2652 16.8 19.4695 14.6C 19.4695 14.6 24.8888 0 13.6487 0C 2.60931 0 8.02864 14.6 8.02864 14.6C 9.23294 16.6 10.8387 16.2 10.8387 17.6C 10.8387 19 9.43366 19 8.02864 19.2C 5.82077 19.4 3.81361 19 1.80645 22.6C 0.602148 24.8 4.78545e-08 32 4.78545e-08 32L 19.2687 32L 15.0537 27.8Z" fill="#FF0068"/>
</g>
<g id="Vector_2">
<path d="M 11.7606 0.200001C 11.3592 7.59959e-07 10.757 0 10.3556 0C 8.95057 0 7.74627 1.2 6.94341 2.2C 6.14054 1.2 4.93625 0 3.53123 0C 2.92909 0 2.52765 7.59959e-07 2.12622 0.200001C -0.282372 1 -0.683804 4.2 1.12264 6L 7.14412 11.8L 13.1656 6C 14.7713 4.2 14.1692 1 11.7606 0.200001Z" transform="translate(15.9385 20)" fill="#FF0068"/>
</g>
</g>
</g>
</svg>

